/* XPM */
static char * shade_toggled_prelight_xpm[] = {
"32 32 26 1",
" 	c None",
".	c #734173",
"+	c #642C64",
"@	c #6B2F6B",
"#	c #793779",
"$	c #833B83",
"%	c #883E88",
"&	c #793679",
"*	c #6A2F6A",
"=	c #652C65",
"-	c #7A387A",
";	c #883F88",
">	c #893E89",
",	c #7A377A",
"'	c #652D65",
")	c #803A80",
"!	c #7F3A7F",
"~	c #763576",
"{	c #7C397C",
"]	c #7D387D",
"^	c #753575",
"/	c #773577",
"(	c #7C387C",
"_	c #833C83",
":	c #783778",
"<	c #873D87",
"................................",
"++++++++++++++++++++++++++++++++",
"++++++++++++++++++++++++++++++++",
"++++++++++++++++++++++++++++++++",
"++++++++++++++++++++++++++++++++",
"++++++++++++++++++++++++++++++++",
"++++++++++++++++++++++++++++++++",
"++++++++++++++++++++++++++++++++",
"++++++++++++@#$%%$&*++++++++++++",
"++++++++++=-;>>>>>>;,'++++++++++",
"+++++++++=)>>>>>>>>>>!'+++++++++",
"+++++++++->>>>>>>>>>>>#+++++++++",
"++++++++@;>$>>>>>>>>$>;*++++++++",
"++++++++#>~={>>>>>>]+^>&++++++++",
"++++++++$>/++(>>>>(++/>_++++++++",
"++++++++%>>:+={>>]++/>><++++++++",
"++++++++<>>>:+={]++/>>><++++++++",
"++++++++$>>>>/++++/>>>>_++++++++",
"++++++++&>>>>>:++/>>>>>&++++++++",
"++++++++*;>>>>>//>>>>>;*++++++++",
"+++++++++,>>>>>>>>>>>>#+++++++++",
"+++++++++')>>>>>>>>>>)'+++++++++",
"++++++++++'#;>>>>>>;#'++++++++++",
"++++++++++++*&_%%_&*++++++++++++",
"++++++++++++++++++++++++++++++++",
"++++++++++++++++++++++++++++++++",
"++++++++++++++++++++++++++++++++",
"++++++++++++++++++++++++++++++++",
"++++++++++++++++++++++++++++++++",
"++++++++++++++++++++++++++++++++",
"++++++++++++++++++++++++++++++++",
"++++++++++++++++++++++++++++++++"};
