<?xml version="1.0" encoding="UTF-8" standalone="no"?>
<svg
   xmlns:dc="http://purl.org/dc/elements/1.1/"
   xmlns:cc="http://creativecommons.org/ns#"
   xmlns:rdf="http://www.w3.org/1999/02/22-rdf-syntax-ns#"
   xmlns:svg="http://www.w3.org/2000/svg"
   xmlns="http://www.w3.org/2000/svg"
   xmlns:sodipodi="http://sodipodi.sourceforge.net/DTD/sodipodi-0.dtd"
   xmlns:inkscape="http://www.inkscape.org/namespaces/inkscape"
   id="svg4306"
   width="22"
   height="22"
   version="1.1"
   style="enable-background:new"
   sodipodi:docname="close.svg"
   inkscape:version="0.92.4 (5da689c313, 2019-01-14)">
  <metadata
     id="metadata24">
    <rdf:RDF>
      <cc:Work
         rdf:about="">
        <dc:format>image/svg+xml</dc:format>
        <dc:type
           rdf:resource="http://purl.org/dc/dcmitype/StillImage" />
        <dc:title />
      </cc:Work>
    </rdf:RDF>
  </metadata>
  <defs
     id="defs22" />
  <sodipodi:namedview
     pagecolor="#ffffff"
     bordercolor="#666666"
     borderopacity="1"
     objecttolerance="10"
     gridtolerance="10"
     guidetolerance="10"
     inkscape:pageopacity="0"
     inkscape:pageshadow="2"
     inkscape:window-width="1366"
     inkscape:window-height="707"
     id="namedview20"
     showgrid="true"
     inkscape:zoom="8.3406459"
     inkscape:cx="11"
     inkscape:cy="11"
     inkscape:window-x="0"
     inkscape:window-y="0"
     inkscape:window-maximized="1"
     inkscape:current-layer="svg4306"
     showguides="true"
     inkscape:guide-bbox="true">
    <inkscape:grid
       type="xygrid"
       id="grid945" />
    <sodipodi:guide
       position="22,18"
       orientation="0,1"
       id="guide829"
       inkscape:locked="false" />
    <sodipodi:guide
       position="3,18"
       orientation="1,0"
       id="guide831"
       inkscape:locked="false" />
    <sodipodi:guide
       position="3,4"
       orientation="0,1"
       id="guide833"
       inkscape:locked="false" />
    <sodipodi:guide
       position="19,18"
       orientation="1,0"
       id="guide835"
       inkscape:locked="false" />
  </sodipodi:namedview>
  <g
     id="hover-center"
     style="fill:#1c1c1c;fill-opacity:1">
    <path
       id="path840"
       d="M 11,0.04296875 C 4.9482896,0.04296875 0.04296875,4.9484238 0.04296875,11 0.04296875,17.051809 4.9482896,21.957031 11,21.957031 17.051736,21.957031 21.957031,17.051809 21.957031,11 21.957031,4.9484238 17.051736,0.04296875 11,0.04296875 Z M 5.8789062,4.0351562 11,9.1582031 16.121094,4.0351562 17.964844,5.8789062 12.841797,11 l 5.123047,5.121094 -1.84375,1.84375 L 11,12.841797 5.8789062,17.964844 4.0351562,16.121094 9.1582031,11 4.0351562,5.8789062 Z"
       style="fill:#1c1c1c;fill-opacity:1;fill-rule:evenodd;stroke:none;stroke-width:0.02563604;enable-background:new"
       inkscape:connector-curvature="0" />
  </g>
  <g
     id="active-center">
    <path
       inkscape:connector-curvature="0"
       d="m -10.999959,21.95759 c 6.051736,0 10.957538,-4.905876 10.957538,-10.957685 0,-6.0515762 -4.905802,-10.95748298 -10.957538,-10.95748298 -6.05171,0 -10.95763,4.90590678 -10.95763,10.95748298 0,6.051809 4.90592,10.957685 10.95763,10.957685"
       style="fill:#000000;fill-opacity:0;fill-rule:evenodd;stroke:none;stroke-width:0.02563604;enable-background:new;opacity:0"
       id="path14-3" />
    <path
       id="path840-6"
       d="M -16.121094,4.0351562 -11,9.1582031 -5.878906,4.0351562 -4.035156,5.8789062 -9.158203,11 l 5.123047,5.121094 -1.84375,1.84375 L -11,12.841797 l -5.121094,5.123047 -1.84375,-1.84375 L -12.841797,11 -17.964844,5.8789062 Z"
       style="fill:#1c1c1c;fill-opacity:1;fill-rule:evenodd;stroke:none;stroke-width:0.02563604;enable-background:new"
       inkscape:connector-curvature="0" />
  </g>
  <g
     id="inactive-center"
     transform="translate(44)">
    <path
       inkscape:connector-curvature="0"
       d="m 11.000041,21.95759 c 6.051736,0 10.957538,-4.905876 10.957538,-10.957685 0,-6.0515762 -4.905802,-10.95748298 -10.957538,-10.95748298 -6.0517104,0 -10.95762989,4.90590678 -10.95762989,10.95748298 0,6.051809 4.90591949,10.957685 10.95762989,10.957685"
       style="fill:#000000;fill-opacity:0;fill-rule:evenodd;stroke:none;stroke-width:0.02563604;enable-background:new"
       id="path14-3-5" />
    <path
       id="path840-6-3"
       d="M 5.8789062,4.0351562 11,9.1582031 16.121094,4.0351562 17.964844,5.8789062 12.841797,11 l 5.123047,5.121094 -1.84375,1.84375 L 11,12.841797 5.8789062,17.964844 4.0351562,16.121094 9.1582031,11 4.0351562,5.8789062 Z"
       style="fill:#808080;fill-opacity:1;fill-rule:evenodd;stroke:none;stroke-width:0.02563604;enable-background:new"
       inkscape:connector-curvature="0" />
  </g>
  <g
     style="enable-background:new"
     id="deactivated-center"
     transform="translate(66)">
    <path
       inkscape:connector-curvature="0"
       d="m 11.000041,21.95759 c 6.051736,0 10.957538,-4.905876 10.957538,-10.957685 0,-6.0515762 -4.905802,-10.95748298 -10.957538,-10.95748298 -6.0517104,0 -10.95762989,4.90590678 -10.95762989,10.95748298 0,6.051809 4.90591949,10.957685 10.95762989,10.957685"
       style="fill:#000000;fill-opacity:0;fill-rule:evenodd;stroke:none;stroke-width:0.02563604;enable-background:new"
       id="path14-3-5-1" />
    <path
       id="path840-6-3-27"
       d="M 5.8789062,4.0351562 11,9.1582031 16.121094,4.0351562 17.964844,5.8789062 12.841797,11 l 5.123047,5.121094 -1.84375,1.84375 L 11,12.841797 5.8789062,17.964844 4.0351562,16.121094 9.1582031,11 4.0351562,5.8789062 Z"
       style="fill:#808080;fill-opacity:1;fill-rule:evenodd;stroke:none;stroke-width:0.02563604;enable-background:new"
       inkscape:connector-curvature="0" />
  </g>
  <g
     transform="translate(44.006073,-0.007233)"
     style="enable-background:new"
     id="pressed-center">
    <path
       inkscape:connector-curvature="0"
       d="m -10.999959,21.95759 c 6.051736,0 10.957538,-4.905876 10.957538,-10.957685 0,-6.0515762 -4.905802,-10.95748298 -10.957538,-10.95748298 -6.05171,0 -10.95763,4.90590678 -10.95763,10.95748298 0,6.051809 4.90592,10.957685 10.95763,10.957685"
       style="opacity:0;fill:#000000;fill-opacity:0;fill-rule:evenodd;stroke:none;stroke-width:0.02563604;enable-background:new"
       id="path14-3-6" />
    <path
       id="path840-6-7"
       d="M -16.121094,4.0351562 -11,9.1582031 -5.878906,4.0351562 -4.035156,5.8789062 -9.158203,11 l 5.123047,5.121094 -1.84375,1.84375 L -11,12.841797 l -5.121094,5.123047 -1.84375,-1.84375 L -12.841797,11 -17.964844,5.8789062 Z"
       style="fill:#1c1c1c;fill-opacity:1;fill-rule:evenodd;stroke:none;stroke-width:0.02563604;enable-background:new"
       inkscape:connector-curvature="0" />
  </g>
</svg>
