/* XPM */
static char * stick_toggled_prelight_xpm[] = {
"32 32 38 1",
" 	c None",
".	c #323232",
"+	c #1C1C1C",
"@	c #373737",
"#	c #747474",
"$	c #9D9D9D",
"%	c #B0B0B0",
"&	c #737373",
"*	c #202020",
"=	c #787878",
"-	c #B6B6B6",
";	c #B7B7B7",
">	c #B5B5B5",
",	c #767676",
"'	c #1F1F1F",
")	c #8F8F8F",
"!	c #777777",
"~	c #757575",
"{	c #A5A5A5",
"]	c #4F4F4F",
"^	c #242424",
"/	c #4C4C4C",
"(	c #9F9F9F",
"_	c #363636",
":	c #272727",
"<	c #262626",
"[	c #727272",
"}	c #9E9E9E",
"|	c #505050",
"1	c #9C9C9C",
"2	c #AFAFAF",
"3	c #252525",
"4	c #515151",
"5	c #282828",
"6	c #A6A6A6",
"7	c #353535",
"8	c #8E8E8E",
"9	c #8D8D8D",
"................................",
"++++++++++++++++++++++++++++++++",
"++++++++++++++++++++++++++++++++",
"++++++++++++++++++++++++++++++++",
"++++++++++++++++++++++++++++++++",
"++++++++++++++++++++++++++++++++",
"++++++++++++++++++++++++++++++++",
"++++++++++++++++++++++++++++++++",
"++++++++++++@#$%%$&@++++++++++++",
"++++++++++*=-;;;;;;>,'++++++++++",
"+++++++++*);;;;;;;;;;)'+++++++++",
"+++++++++!;;;;;;;;;;;;~+++++++++",
"++++++++@-;;;{]^^/(;;;>_++++++++",
"++++++++&;;;{:++++<{;;;[++++++++",
"++++++++};;;]++++++|;;;1++++++++",
"++++++++2;;;^++++++^;;;2++++++++",
"++++++++2;;;^++++++3;;;2++++++++",
"++++++++};;;/++++++4;;;1++++++++",
"++++++++&;;;(<++++56;;;[++++++++",
"++++++++@>;;;{|^^46;;;>7++++++++",
"+++++++++,;;;;;;;;;;;;#+++++++++",
"+++++++++'8;;;;;;;;;;9'+++++++++",
"++++++++++'~>;;;;;;>#'++++++++++",
"++++++++++++_[1221[7++++++++++++",
"++++++++++++++++++++++++++++++++",
"++++++++++++++++++++++++++++++++",
"++++++++++++++++++++++++++++++++",
"++++++++++++++++++++++++++++++++",
"++++++++++++++++++++++++++++++++",
"++++++++++++++++++++++++++++++++",
"++++++++++++++++++++++++++++++++",
"++++++++++++++++++++++++++++++++"};
