/* XPM */
static char * shade_toggled_prelight_xpm[] = {
"32 32 32 1",
" 	c None",
".	c #FFFFFF",
"+	c #E4E4E4",
"@	c #A8A8A8",
"#	c #808080",
"$	c #6D6D6D",
"%	c #A9A9A9",
"&	c #E5E5E5",
"*	c #FBFBFB",
"=	c #A5A5A5",
"-	c #676767",
";	c #666666",
">	c #686868",
",	c #A6A6A6",
"'	c #8D8D8D",
")	c #8E8E8E",
"!	c #A4A4A4",
"~	c #A7A7A7",
"{	c #B3B3B3",
"]	c #FDFDFD",
"^	c #9D9D9D",
"/	c #989898",
"(	c #B8B8B8",
"_	c #AAAAAA",
":	c #7F7F7F",
"<	c #B2B2B2",
"[	c #9A9A9A",
"}	c #ADADAD",
"|	c #6E6E6E",
"1	c #E6E6E6",
"2	c #8F8F8F",
"3	c #FCFCFC",
"................................",
"................................",
"................................",
"................................",
"................................",
"................................",
"................................",
"................................",
"............+@#$$#%&............",
"..........*=-;;;;;;>,*..........",
".........*';;;;;;;;;;)*.........",
".........!;;;;;;;;;;;;~.........",
"........+-;#;;;;;;;;#;>&........",
"........@;{]^;;;;;;/](;_........",
"........:;<.][;;;;[].<;#........",
"........$;;}.]^;;/].<;;|........",
"........|;;;}.]^/].<;;;|........",
"........:;;;;<.]].<;;;;#........",
"........%;;;;;}..<;;;;;_........",
"........&>;;;;;<<;;;;;>1........",
".........,;;;;;;;;;;;;@.........",
".........*);;;;;;;;;;23.........",
"..........*~>;;;;;;>@3..........",
"............&_#$$#_1............",
"................................",
"................................",
"................................",
"................................",
"................................",
"................................",
"................................",
"................................"};
