/* XPM */
static char * stick_toggled_prelight_xpm[] = {
"32 32 35 1",
" 	c None",
".	c #365970",
"+	c #204760",
"@	c #234F67",
"#	c #2A6079",
"$	c #2E6B84",
"%	c #31718A",
"&	c #2A6078",
"*	c #234E67",
"=	c #214861",
"-	c #31738C",
";	c #31728C",
">	c #2B617A",
",	c #2C6880",
"'	c #2C6780",
")	c #2A617A",
"!	c #2F6E87",
"~	c #26566F",
"{	c #214A62",
"]	c #26546E",
"^	c #2F6C86",
"/	c #234E68",
"(	c #214A63",
"_	c #2A5F79",
":	c #2E6B85",
"<	c #2E6C84",
"[	c #307089",
"}	c #214962",
"|	c #214963",
"1	c #306E87",
"2	c #2D6781",
"3	c #2D6780",
"4	c #204861",
"5	c #307189",
"6	c #295F79",
"................................",
"++++++++++++++++++++++++++++++++",
"++++++++++++++++++++++++++++++++",
"++++++++++++++++++++++++++++++++",
"++++++++++++++++++++++++++++++++",
"++++++++++++++++++++++++++++++++",
"++++++++++++++++++++++++++++++++",
"++++++++++++++++++++++++++++++++",
"++++++++++++@#$%%$&*++++++++++++",
"++++++++++=#-------;>=++++++++++",
"+++++++++=,----------'=+++++++++",
"+++++++++)------------)+++++++++",
"++++++++@----!~{{]^---;/++++++++",
"++++++++&---!(++++(!---_++++++++",
"++++++++:---~++++++~---<++++++++",
"++++++++[---{++++++}---[++++++++",
"++++++++[---{++++++|---[++++++++",
"++++++++:---]++++++~---<++++++++",
"++++++++&---^(++++(1---_++++++++",
"++++++++*;---!~}}~1---;/++++++++",
"+++++++++>------------#+++++++++",
"+++++++++=2----------34+++++++++",
"++++++++++=);------;#4++++++++++",
"++++++++++++/_<55<6/++++++++++++",
"++++++++++++++++++++++++++++++++",
"++++++++++++++++++++++++++++++++",
"++++++++++++++++++++++++++++++++",
"++++++++++++++++++++++++++++++++",
"++++++++++++++++++++++++++++++++",
"++++++++++++++++++++++++++++++++",
"++++++++++++++++++++++++++++++++",
"++++++++++++++++++++++++++++++++"};
