/* XPM */
static char * hide_prelight_xpm[] = {
"32 32 22 1",
" 	c None",
".	c #BA672F",
"+	c #B35618",
"@	c #B86228",
"#	c #C47C4D",
"$	c #CC8E65",
"%	c #D09771",
"&	c #B4581B",
"*	c #C57E4E",
"=	c #D19973",
"-	c #D19A74",
";	c #C57D4D",
">	c #B4571A",
",	c #CA885D",
"'	c #B86127",
")	c #C47C4C",
"!	c #CC8E64",
"~	c #D09670",
"{	c #BC6A33",
"]	c #B75F25",
"^	c #C47B4B",
"/	c #C9885C",
"................................",
"++++++++++++++++++++++++++++++++",
"++++++++++++++++++++++++++++++++",
"++++++++++++++++++++++++++++++++",
"++++++++++++++++++++++++++++++++",
"++++++++++++++++++++++++++++++++",
"++++++++++++++++++++++++++++++++",
"++++++++++++++++++++++++++++++++",
"++++++++++++@#$%%$#@++++++++++++",
"++++++++++&*=------=;>++++++++++",
"+++++++++&,----------,>+++++++++",
"+++++++++*------------;+++++++++",
"++++++++@=------------='++++++++",
"++++++++#--------------)++++++++",
"++++++++$--------------!++++++++",
"++++++++~-{]]]]]]]]]]{-~++++++++",
"++++++++~-{]]]]]]]]]]{-~++++++++",
"++++++++$--------------!++++++++",
"++++++++#--------------^++++++++",
"++++++++@=------------='++++++++",
"+++++++++;------------#+++++++++",
"+++++++++>/----------/>+++++++++",
"++++++++++>;=------=#>++++++++++",
"++++++++++++')!~~!^'++++++++++++",
"++++++++++++++++++++++++++++++++",
"++++++++++++++++++++++++++++++++",
"++++++++++++++++++++++++++++++++",
"++++++++++++++++++++++++++++++++",
"++++++++++++++++++++++++++++++++",
"++++++++++++++++++++++++++++++++",
"++++++++++++++++++++++++++++++++",
"++++++++++++++++++++++++++++++++"};
