<?xml version="1.0" encoding="UTF-8" standalone="no"?>
<!-- Created with Inkscape (http://www.inkscape.org/) -->

<svg
   xmlns:dc="http://purl.org/dc/elements/1.1/"
   xmlns:cc="http://creativecommons.org/ns#"
   xmlns:rdf="http://www.w3.org/1999/02/22-rdf-syntax-ns#"
   xmlns:svg="http://www.w3.org/2000/svg"
   xmlns="http://www.w3.org/2000/svg"
   xmlns:sodipodi="http://sodipodi.sourceforge.net/DTD/sodipodi-0.dtd"
   xmlns:inkscape="http://www.inkscape.org/namespaces/inkscape"
   width="54"
   height="32"
   viewBox="0 0 14.2875 8.4666659"
   version="1.1"
   id="svg827"
   inkscape:version="0.92.4 (5da689c313, 2019-01-14)"
   sodipodi:docname="amarok.svg">
  <defs
     id="defs821" />
  <sodipodi:namedview
     id="base"
     pagecolor="#ffffff"
     bordercolor="#666666"
     borderopacity="1.0"
     inkscape:pageopacity="0.0"
     inkscape:pageshadow="2"
     inkscape:zoom="9.5"
     inkscape:cx="27"
     inkscape:cy="16"
     inkscape:document-units="mm"
     inkscape:current-layer="layer1"
     showgrid="false"
     units="px"
     inkscape:window-width="1366"
     inkscape:window-height="717"
     inkscape:window-x="0"
     inkscape:window-y="25"
     inkscape:window-maximized="1"
     showguides="true"
     inkscape:guide-bbox="true">
    <sodipodi:guide
       position="10.026315,8.1881575"
       orientation="1,0"
       id="guide841"
       inkscape:locked="false" />
    <sodipodi:guide
       position="5.79165,-0.036426612"
       orientation="0,1"
       id="guide843"
       inkscape:locked="false" />
    <sodipodi:guide
       position="5.7916503,5.7844061"
       orientation="1,0"
       inkscape:locked="false"
       id="guide888" />
    <sodipodi:guide
       position="5.7916503,5.7844061"
       orientation="0,1"
       inkscape:locked="false"
       id="guide890" />
    <sodipodi:guide
       position="5.7916506,4.233333"
       orientation="0,1"
       id="guide937"
       inkscape:locked="false" />
  </sodipodi:namedview>
  <metadata
     id="metadata824">
    <rdf:RDF>
      <cc:Work
         rdf:about="">
        <dc:format>image/svg+xml</dc:format>
        <dc:type
           rdf:resource="http://purl.org/dc/dcmitype/StillImage" />
        <dc:title></dc:title>
      </cc:Work>
    </rdf:RDF>
  </metadata>
  <g
     inkscape:label="Capa 1"
     inkscape:groupmode="layer"
     id="layer1"
     transform="translate(0,-288.53334)">
    <g
       id="amarok">
      <rect
         style="fill:none;fill-rule:evenodd;stroke:none;stroke-width:0.26458332px;stroke-linecap:butt;stroke-linejoin:miter;stroke-opacity:1"
         id="rect3343"
         width="8.4666662"
         height="8.4666662"
         x="5.8003292"
         y="288.52216" />
      <path
         id="path4-36"
         d="m 10.029173,289.40033 a 3.3795944,3.3795944 0 0 0 -3.3795955,3.385 3.3795944,3.3795944 0 0 0 3.3849645,3.37424 3.3795944,3.3795944 0 0 0 3.374223,-3.37962 3.3795944,3.3795944 0 0 0 -3.379592,-3.37962 z m -0.0056,0.50506 a 2.9014004,2.9014004 0 0 1 2.901402,2.90145 2.9014004,2.9014004 0 0 1 -2.901401,2.90674 2.9014004,2.9014004 0 0 1 -2.9067721,-2.90137 2.9014004,2.9014004 0 0 1 2.9014001,-2.9122 z m 0.01076,0.17194 a 2.7026007,2.7026007 0 0 0 -2.3479838,4.02972 c 0.2901401,-0.16118 0.4083453,-0.4352 0.3438697,-0.44593 -0.037611,-0.1612 -0.3223777,-0.40836 -0.3975994,-0.80596 0.1182054,-0.0376 0.4352102,-0.0325 0.4943127,-0.0593 0.06985,-0.0376 0.2847673,-0.29552 0.3492427,-0.30089 0.064475,-0.006 0.2041726,-0.0378 0.311632,-0.086 0.1074592,-0.0538 0.5319234,-0.48893 0.6232624,-0.54266 0.09134,-0.0538 0.365364,-0.0538 0.456704,-0.0428 0.08597,0.006 0.1665617,-0.0325 0.2256647,-0.10746 0.05908,-0.0806 0.69311,-0.53194 0.768333,-0.56953 0.08059,-0.0428 0.295513,-0.29554 0.408345,-0.29554 0.03225,0 0.09134,0.11285 0.177308,0.22568 0.08597,0.11282 0.06984,0.21492 0.02152,0.30089 -0.204175,0.18269 -0.317006,0.5373 -0.376108,0.82742 0.214918,-0.10209 0.494313,0.0325 0.709229,-0.14505 0.04836,0.0213 0.04299,0.2149 0.04299,0.27402 0,0.0645 -0.04299,0.12356 -0.209545,0.18266 -0.177309,0.0645 -0.596399,0.33313 -0.773708,0.5964 -0.171934,0.26865 -0.214918,1.27339 -0.231036,1.397 l -0.02152,0.35996 c -0.02152,0.15046 0.161187,0.34387 0.241782,0.47822 a 2.7026007,2.7026007 0 0 0 -0.81669,-5.2709 z m -0.1558137,2.02024 a 0.37610745,0.37610745 0 0 0 -0.193427,0.0538 c -0.155817,0.15046 -0.257904,0.30091 -0.376108,0.53733 0.257903,-0.13435 0.8704207,-0.26867 0.660876,-0.58029 a 0.66624746,0.66624746 0 0 0 -0.09134,-0.0109 z"
         style="fill:#e6e6e6;stroke-width:0.53729641"
         inkscape:connector-curvature="0" />
    </g>
    <g
       transform="matrix(0.6875,0,0,0.6875,-4.0161714,92.850791)"
       id="22-22-amarok">
      <rect
         style="fill:none;fill-rule:evenodd;stroke:none;stroke-width:0.26458332px;stroke-linecap:butt;stroke-linejoin:miter;stroke-opacity:1"
         id="rect3343-6"
         width="8.4666662"
         height="8.4666662"
         x="5.8003292"
         y="288.52216" />
      <path
         id="path4-36-2"
         d="m 10.029173,289.40033 a 3.3795944,3.3795944 0 0 0 -3.3795955,3.385 3.3795944,3.3795944 0 0 0 3.3849645,3.37424 3.3795944,3.3795944 0 0 0 3.374223,-3.37962 3.3795944,3.3795944 0 0 0 -3.379592,-3.37962 z m -0.0056,0.50506 a 2.9014004,2.9014004 0 0 1 2.901402,2.90145 2.9014004,2.9014004 0 0 1 -2.901401,2.90674 2.9014004,2.9014004 0 0 1 -2.9067721,-2.90137 2.9014004,2.9014004 0 0 1 2.9014001,-2.9122 z m 0.01076,0.17194 a 2.7026007,2.7026007 0 0 0 -2.3479838,4.02972 c 0.2901401,-0.16118 0.4083453,-0.4352 0.3438697,-0.44593 -0.037611,-0.1612 -0.3223777,-0.40836 -0.3975994,-0.80596 0.1182054,-0.0376 0.4352102,-0.0325 0.4943127,-0.0593 0.06985,-0.0376 0.2847673,-0.29552 0.3492427,-0.30089 0.064475,-0.006 0.2041726,-0.0378 0.311632,-0.086 0.1074592,-0.0538 0.5319234,-0.48893 0.6232624,-0.54266 0.09134,-0.0538 0.365364,-0.0538 0.456704,-0.0428 0.08597,0.006 0.1665617,-0.0325 0.2256647,-0.10746 0.05908,-0.0806 0.69311,-0.53194 0.768333,-0.56953 0.08059,-0.0428 0.295513,-0.29554 0.408345,-0.29554 0.03225,0 0.09134,0.11285 0.177308,0.22568 0.08597,0.11282 0.06984,0.21492 0.02152,0.30089 -0.204175,0.18269 -0.317006,0.5373 -0.376108,0.82742 0.214918,-0.10209 0.494313,0.0325 0.709229,-0.14505 0.04836,0.0213 0.04299,0.2149 0.04299,0.27402 0,0.0645 -0.04299,0.12356 -0.209545,0.18266 -0.177309,0.0645 -0.596399,0.33313 -0.773708,0.5964 -0.171934,0.26865 -0.214918,1.27339 -0.231036,1.397 l -0.02152,0.35996 c -0.02152,0.15046 0.161187,0.34387 0.241782,0.47822 a 2.7026007,2.7026007 0 0 0 -0.81669,-5.2709 z m -0.1558137,2.02024 a 0.37610745,0.37610745 0 0 0 -0.193427,0.0538 c -0.155817,0.15046 -0.257904,0.30091 -0.376108,0.53733 0.257903,-0.13435 0.8704207,-0.26867 0.660876,-0.58029 a 0.66624746,0.66624746 0 0 0 -0.09134,-0.0109 z"
         style="fill:#e6e6e6;stroke-width:0.53729641"
         inkscape:connector-curvature="0" />
    </g>
  </g>
</svg>
