<?xml version="1.0" encoding="UTF-8" standalone="no"?>
<svg
   xmlns:dc="http://purl.org/dc/elements/1.1/"
   xmlns:cc="http://creativecommons.org/ns#"
   xmlns:rdf="http://www.w3.org/1999/02/22-rdf-syntax-ns#"
   xmlns:svg="http://www.w3.org/2000/svg"
   xmlns="http://www.w3.org/2000/svg"
   xmlns:sodipodi="http://sodipodi.sourceforge.net/DTD/sodipodi-0.dtd"
   xmlns:inkscape="http://www.inkscape.org/namespaces/inkscape"
   width="54"
   height="32"
   id="svg3613"
   version="1.1"
   sodipodi:docname="applications.svg"
   inkscape:version="0.92.4 (5da689c313, 2019-01-14)">
  <sodipodi:namedview
     pagecolor="#ffffff"
     bordercolor="#666666"
     borderopacity="1"
     objecttolerance="10"
     gridtolerance="10"
     guidetolerance="10"
     inkscape:pageopacity="0"
     inkscape:pageshadow="2"
     inkscape:window-width="1366"
     inkscape:window-height="717"
     id="namedview12"
     showgrid="false"
     inkscape:snap-smooth-nodes="true"
     inkscape:snap-bbox="true"
     showguides="true"
     inkscape:guide-bbox="true"
     inkscape:zoom="9.6296296"
     inkscape:cx="27"
     inkscape:cy="16"
     inkscape:window-x="0"
     inkscape:window-y="25"
     inkscape:window-maximized="1"
     inkscape:current-layer="svg3613">
    <sodipodi:guide
       position="21.999998,31.999982"
       orientation="1,0"
       id="guide869"
       inkscape:locked="false" />
    <sodipodi:guide
       position="38.007692,32.088462"
       orientation="1,0"
       id="guide871"
       inkscape:locked="false" />
    <sodipodi:guide
       position="21.999999,-2.7274154e-07"
       orientation="0,1"
       id="guide873"
       inkscape:locked="false" />
    <sodipodi:guide
       position="21.999998,16.00781"
       orientation="0,1"
       id="guide875"
       inkscape:locked="false" />
    <sodipodi:guide
       position="21.999999,22"
       orientation="0,1"
       id="guide882"
       inkscape:locked="false" />
    <sodipodi:guide
       position="21.999998,-2.7274154e-07"
       orientation="0,1"
       id="guide884"
       inkscape:locked="false" />
  </sodipodi:namedview>
  <metadata
     id="metadata13">
    <rdf:RDF>
      <cc:Work
         rdf:about="">
        <dc:format>image/svg+xml</dc:format>
        <dc:type
           rdf:resource="http://purl.org/dc/dcmitype/StillImage" />
        <dc:title></dc:title>
      </cc:Work>
    </rdf:RDF>
  </metadata>
  <defs
     id="defs3615">
    <style
       type="text/css"
       id="current-color-scheme">
      .ColorScheme-Text {
        color:#31363b;
      }
      .ColorScheme-Background{
        color:#E9E8E8;
      }
      .ColorScheme-ViewText {
        color:#31363b;
      }
      .ColorScheme-ViewBackground{
        color:#ffffff;
      }
      .ColorScheme-ViewHover {
        color:#000000;
      }
      .ColorScheme-ViewFocus{
        color:#5a5a5a;
      }
      .ColorScheme-ButtonText {
        color:#31363b;
      }
      .ColorScheme-ButtonBackground{
        color:#E9E8E8;
      }
      .ColorScheme-ButtonHover {
        color:#1489ff;
      }
      .ColorScheme-ButtonFocus{
        color:#2B74C7;
      }
</style>
  </defs>
  <g
     id="applications-other">
    <rect
       style="opacity:0.01000001;fill:#000000;fill-opacity:0.00392157;stroke:none"
       id="rect2994"
       width="32"
       height="32"
       x="21.999998"
       y="1.754521e-05" />
    <path
       id="path822"
       d="M 44.964844 3.9980469 A 4.999989 4.9999843 0 0 0 39.964844 8.9980469 A 4.999989 4.9999843 0 0 0 44.964844 13.998047 A 4.999989 4.9999843 0 0 0 49.964844 8.9980469 A 4.999989 4.9999843 0 0 0 44.964844 3.9980469 z M 31 4 A 4.999989 4.9999843 0 0 0 26 9 A 4.999989 4.9999843 0 0 0 31 14 A 4.999989 4.9999843 0 0 0 36 9 A 4.999989 4.9999843 0 0 0 31 4 z M 44.964844 5.1015625 A 3.896143 3.8961391 0 0 1 48.861328 8.9980469 A 3.896143 3.8961391 0 0 1 44.964844 12.894531 A 3.896143 3.8961391 0 0 1 41.068359 8.9980469 A 3.896143 3.8961391 0 0 1 44.964844 5.1015625 z M 31 5.1035156 A 3.896143 3.8961391 0 0 1 34.896484 9 A 3.896143 3.8961391 0 0 1 31 12.896484 A 3.896143 3.8961391 0 0 1 27.103516 9 A 3.896143 3.8961391 0 0 1 31 5.1035156 z M 30.998047 17.964844 A 4.999989 4.9999843 0 0 0 25.998047 22.964844 A 4.999989 4.9999843 0 0 0 30.998047 27.964844 A 4.999989 4.9999843 0 0 0 35.998047 22.964844 A 4.999989 4.9999843 0 0 0 30.998047 17.964844 z M 44.964844 17.964844 A 4.999989 4.9999843 0 0 0 39.964844 22.964844 A 4.999989 4.9999843 0 0 0 44.964844 27.964844 A 4.999989 4.9999843 0 0 0 49.964844 22.964844 A 4.999989 4.9999843 0 0 0 44.964844 17.964844 z M 30.998047 19.068359 A 3.896143 3.8961391 0 0 1 34.894531 22.964844 A 3.896143 3.8961391 0 0 1 30.998047 26.861328 A 3.896143 3.8961391 0 0 1 27.101562 22.964844 A 3.896143 3.8961391 0 0 1 30.998047 19.068359 z M 44.964844 19.068359 A 3.896143 3.8961391 0 0 1 48.861328 22.964844 A 3.896143 3.8961391 0 0 1 44.964844 26.861328 A 3.896143 3.8961391 0 0 1 41.068359 22.964844 A 3.896143 3.8961391 0 0 1 44.964844 19.068359 z "
       style="opacity:1;fill:#e6e6e6;fill-opacity:1;fill-rule:evenodd;stroke:none;stroke-width:0.60000002;stroke-linejoin:miter;stroke-miterlimit:4;stroke-dasharray:none;stroke-opacity:1" />
  </g>
  <g
     transform="matrix(0.6875,0,0,0.6875,-15.125002,9.9999879)"
     id="22-22-applications-other">
    <rect
       style="opacity:0.01000001;fill:#000000;fill-opacity:0.00392157;stroke:none"
       id="rect2994-5"
       width="32"
       height="32"
       x="21.999998"
       y="1.754521e-05" />
    <path
       inkscape:connector-curvature="0"
       id="path822-6"
       d="m 44.964844,3.9980469 a 4.999989,4.9999843 0 0 0 -5,5 4.999989,4.9999843 0 0 0 5,5.0000001 4.999989,4.9999843 0 0 0 5,-5.0000001 4.999989,4.9999843 0 0 0 -5,-5 z M 31,4 a 4.999989,4.9999843 0 0 0 -5,5 4.999989,4.9999843 0 0 0 5,5 4.999989,4.9999843 0 0 0 5,-5 4.999989,4.9999843 0 0 0 -5,-5 z M 44.964844,5.1015625 A 3.896143,3.8961391 0 0 1 48.861328,8.9980469 3.896143,3.8961391 0 0 1 44.964844,12.894531 3.896143,3.8961391 0 0 1 41.068359,8.9980469 3.896143,3.8961391 0 0 1 44.964844,5.1015625 Z M 31,5.1035156 A 3.896143,3.8961391 0 0 1 34.896484,9 3.896143,3.8961391 0 0 1 31,12.896484 3.896143,3.8961391 0 0 1 27.103516,9 3.896143,3.8961391 0 0 1 31,5.1035156 Z M 30.998,17.964844 a 4.999989,4.9999843 0 0 0 -5,5 4.999989,4.9999843 0 0 0 5,5 4.999989,4.9999843 0 0 0 5,-5 4.999989,4.9999843 0 0 0 -5,-5 z m 13.966797,0 a 4.999989,4.9999843 0 0 0 -5,5 4.999989,4.9999843 0 0 0 5,5 4.999989,4.9999843 0 0 0 5,-5 4.999989,4.9999843 0 0 0 -5,-5 z M 30.998,19.068359 A 3.896143,3.8961391 0 0 1 34.894484,22.964844 3.896143,3.8961391 0 0 1 30.998,26.861328 3.896143,3.8961391 0 0 1 27.101515,22.964844 3.896143,3.8961391 0 0 1 30.998,19.068359 Z m 13.966797,0 a 3.896143,3.8961391 0 0 1 3.896484,3.896485 3.896143,3.8961391 0 0 1 -3.896484,3.896484 3.896143,3.8961391 0 0 1 -3.896485,-3.896484 3.896143,3.8961391 0 0 1 3.896485,-3.896485 z"
       style="opacity:1;fill:#e6e6e6;fill-opacity:1;fill-rule:evenodd;stroke:none;stroke-width:0.60000002;stroke-linejoin:miter;stroke-miterlimit:4;stroke-dasharray:none;stroke-opacity:1" />
  </g>
</svg>
