<?xml version="1.0" encoding="UTF-8" standalone="no"?>
<svg
   xmlns:dc="http://purl.org/dc/elements/1.1/"
   xmlns:cc="http://creativecommons.org/ns#"
   xmlns:rdf="http://www.w3.org/1999/02/22-rdf-syntax-ns#"
   xmlns:svg="http://www.w3.org/2000/svg"
   xmlns="http://www.w3.org/2000/svg"
   xmlns:sodipodi="http://sodipodi.sourceforge.net/DTD/sodipodi-0.dtd"
   xmlns:inkscape="http://www.inkscape.org/namespaces/inkscape"
   id="svg4153"
   version="1.1"
   width="22"
   height="22"
   viewBox="0 0 22 22"
   sodipodi:docname="ktorrent.svg"
   inkscape:version="0.92.4 (5da689c313, 2019-01-14)">
  <sodipodi:namedview
     pagecolor="#ffffff"
     bordercolor="#666666"
     borderopacity="1"
     objecttolerance="10"
     gridtolerance="10"
     guidetolerance="10"
     inkscape:pageopacity="0"
     inkscape:pageshadow="2"
     inkscape:window-width="1366"
     inkscape:window-height="717"
     id="namedview9"
     showgrid="false"
     inkscape:zoom="4.1783583"
     inkscape:cx="11"
     inkscape:cy="11"
     inkscape:window-x="0"
     inkscape:window-y="25"
     inkscape:window-maximized="1"
     inkscape:current-layer="svg4153" />
  <metadata
     id="metadata4159">
    <rdf:RDF>
      <cc:Work
         rdf:about="">
        <dc:format>image/svg+xml</dc:format>
        <dc:type
           rdf:resource="http://purl.org/dc/dcmitype/StillImage" />
        <dc:title></dc:title>
      </cc:Work>
    </rdf:RDF>
  </metadata>
  <defs
     id="defs4157">
    <style
       type="text/css"
       id="current-color-scheme">
      .ColorScheme-Text {
        color:#31363b;
      }
      .ColorScheme-Background {
        color:#eff0f1;
      }
      .ColorScheme-Highlight {
        color:#3daee9;
      }
      .ColorScheme-ViewText {
        color:#31363b;
      }
      .ColorScheme-ViewBackground {
        color:#fcfcfc;
      }
      .ColorScheme-ViewHover {
        color:#93cee9;
      }
      .ColorScheme-ViewFocus{
        color:#3daee9;
      }
      .ColorScheme-ButtonText {
        color:#31363b;
      }
      .ColorScheme-ButtonBackground {
        color:#eff0f1;
      }
      .ColorScheme-ButtonHover {
        color:#93cee9;
      }
      .ColorScheme-ButtonFocus{
        color:#3daee9;
      }
      </style>
  </defs>
  <g
     id="ktorrent">
    <rect
       y="0"
       x="0"
       height="22"
       width="22"
       id="rect4183"
       style="opacity:1;fill:none;fill-opacity:1;stroke:none;stroke-width:0.1;stroke-linecap:square;stroke-linejoin:miter;stroke-miterlimit:4;stroke-dasharray:none;stroke-dashoffset:0;stroke-opacity:1" />
    <path
       id="path833"
       d="M 7.9981425,2.9811961 V 11.587659 C 7.7067887,11.691455 7.41206,12.020479 7.1644094,12.271771 6.7911117,12.654176 6.4582082,12.680066 6.1923475,12.452445 5.9264867,12.224825 6.1594453,11.603479 5.8517023,10.98071 5.5457809,10.357942 4.9351137,10.667401 4.8495284,11.089865 c -0.085585,0.418821 0.7707763,0.703222 0.6050681,0.936306 -0.1675282,0.234901 -0.8308558,0.181894 -1.0256989,-0.25878 -0.194843,-0.44067 -0.6204299,-0.298445 -0.6295346,0.06211 -0.00912,0.360551 0.3297367,0.109544 0.5937766,0.373582 l 6.8138414,6.815722 6.811963,-6.813841 c 0.80122,-0.801224 -0.114569,-0.45693 -0.303948,-0.276658 -0.18938,0.180277 -0.772066,0.325523 -0.841263,0.127038 -0.0692,-0.196662 0.653374,-0.527829 0.859144,-0.749986 0.205769,-0.223979 0.408517,-0.859426 0.07529,-1.092508 -0.333237,-0.2312632 -0.804874,0.187288 -1.010643,0.496852 -0.205768,0.309563 -0.02803,1.095865 -0.303005,1.336234 -0.273143,0.240364 -0.426104,0.09474 -0.477091,-0.111042 -0.05281,-0.205768 0.594088,-0.495251 0.322764,-1.008762 -0.271322,-0.511688 -0.769968,-0.279888 -1.001232,-0.03951 -0.233083,0.240364 0.138373,0.611119 0.223959,0.988056 0.08559,0.378761 -0.792575,0.368063 -1.136736,0.23149 l -0.0141,-0.0083 V 2.9811961 Z M 6.3777261,6.026299 A 0.27132341,0.27132341 0 0 0 6.3015041,6.047943 C 6.0975572,6.1371687 6.0281773,6.4268578 6.2958561,7.0350591 6.5635378,7.6414398 6.94258,8.063413 7.1465279,7.9741856 7.3486564,7.8831381 7.297526,7.3186739 7.0298447,6.7122939 6.7967613,6.1787516 6.5671668,6.002626 6.3796076,6.0262981 Z m 9.2049449,0.6859958 a 0.4008695,0.4008695 0 0 0 0,0.8017389 0.4008695,0.4008695 0 0 0 0,-0.8017389 z M 17.9973,8.0240602 a 0.60182809,0.60182809 0 0 0 0,1.20355 0.6009176,0.6009176 0 0 0 0,-1.201668 z m -1.802973,0.079985 v 0.00187 C 15.981273,8.0549292 15.894317,8.4554364 15.84333,8.8323755 15.79419,9.207494 15.605984,9.5970344 15.76804,9.6698728 15.993842,9.7718467 16.108765,9.1549153 16.363699,8.9236531 16.618634,8.6923928 16.407379,8.1550238 16.194317,8.1040365 Z M 4.594515,8.1934416 a 0.6009176,0.6009176 0 0 0 0,1.201668 0.6009176,0.6009176 0 0 0 0,-1.201668 z M 6.9131598,8.8888473 C 6.7547361,8.8760989 6.5377046,9.034685 6.7343682,9.2586634 6.9984079,9.557301 7.1349511,10.088412 6.901868,10.194027 6.6651427,10.301462 6.6838234,9.7991764 6.6637926,9.5296739 6.6419431,9.2619923 5.9894994,9.1013348 5.7491328,9.4327499 c -0.2403672,0.3332364 0.00234,0.6902591 0.240898,0.7612771 0.236725,0.07283 0.2730105,0.346405 0.4168665,0.630475 0.1402144,0.282249 0.8300017,0.211232 0.9993513,0 A 0.72838502,0.72838502 0 0 0 7.3516696,9.8524399 C 7.023897,9.4882473 7.1228974,9.1507459 7.0354909,8.9631869 7.0136414,8.9176622 6.9659681,8.8943711 6.9131598,8.8907292 Z M 3.1905306,10.199672 a 0.4008696,0.4008696 0 1 0 0,0.801738 0.4008696,0.4008696 0 0 0 0,-0.801738 z m 15.6320334,0.398987 a 0.40061174,0.40061174 0 0 0 0,0.800797 0.40061174,0.40061174 0 0 0 0,-0.800797 z"
       style="fill:#e6e6e6;fill-opacity:1;stroke-width:1.82096267"
       inkscape:connector-curvature="0" />
  </g>
</svg>
