<?xml version="1.0" encoding="UTF-8" standalone="no"?>
<svg
   xmlns:dc="http://purl.org/dc/elements/1.1/"
   xmlns:cc="http://creativecommons.org/ns#"
   xmlns:rdf="http://www.w3.org/1999/02/22-rdf-syntax-ns#"
   xmlns:svg="http://www.w3.org/2000/svg"
   xmlns="http://www.w3.org/2000/svg"
   xmlns:sodipodi="http://sodipodi.sourceforge.net/DTD/sodipodi-0.dtd"
   xmlns:inkscape="http://www.inkscape.org/namespaces/inkscape"
   viewBox="0 0 22 22"
   id="svg"
   version="1.1"
   inkscape:version="0.92.4 (5da689c313, 2019-01-14)"
   width="100%"
   height="100%"
   sodipodi:docname="slc.svg">
  <defs
     id="defs81">
    <style
       id="current-color-scheme"
       type="text/css">
      .ColorScheme-Text {
        color:#7B7C7E;
      }
      .ColorScheme-Background{
        color:#EFF0F1;
      }
      .ColorScheme-Highlight{
        color:#3DAEE6;
      }
      .ColorScheme-ViewText {
        color:#7B7C7E;
      }
      .ColorScheme-ViewBackground{
        color:#FCFCFC;
      }
      .ColorScheme-ViewHover {
        color:#3DAEE6;
      }
      .ColorScheme-ViewFocus{
        color:#1E92FF;
      }
      .ColorScheme-ButtonText {
        color:#7B7C7E;
      }
      .ColorScheme-ButtonBackground{
        color:#EFF0F1;
      }
      .ColorScheme-ButtonHover {
        color:#3DAEE6;
      }
      .ColorScheme-ButtonFocus{
        color:#1E92FF;
      }
</style>
  </defs>
  <metadata
     id="metadata34">
    <rdf:RDF>
      <cc:Work
         rdf:about="">
        <dc:format>image/svg+xml</dc:format>
        <dc:type
           rdf:resource="http://purl.org/dc/dcmitype/StillImage" />
        <dc:title></dc:title>
      </cc:Work>
    </rdf:RDF>
  </metadata>
  <sodipodi:namedview
     pagecolor="#ffffff"
     bordercolor="#666666"
     borderopacity="1"
     objecttolerance="10"
     gridtolerance="10"
     guidetolerance="10"
     inkscape:pageopacity="1"
     inkscape:pageshadow="2"
     inkscape:window-width="1366"
     inkscape:window-height="717"
     id="namedview32"
     showgrid="true"
     inkscape:zoom="3.7846283"
     inkscape:cx="86.279951"
     inkscape:cy="11"
     inkscape:window-x="0"
     inkscape:window-y="25"
     inkscape:window-maximized="1"
     inkscape:current-layer="svg"
     borderlayer="true"
     showguides="true"
     inkscape:guide-bbox="true"
     inkscape:snap-bbox="true"
     inkscape:bbox-nodes="true">
    <inkscape:grid
       type="xygrid"
       id="grid3046"
       empspacing="4"
       visible="true"
       enabled="true"
       snapvisiblegridlinesonly="true"
       color="#0000ff"
       opacity="0.03921569"
       empcolor="#0000ff"
       empopacity="0.07843137" />
    <sodipodi:guide
       orientation="0,1"
       position="10,19"
       id="guide3820"
       inkscape:locked="false" />
    <sodipodi:guide
       orientation="0,1"
       position="11,3"
       id="guide3822"
       inkscape:locked="false" />
    <sodipodi:guide
       orientation="1,0"
       position="11,19.533825"
       id="guide3824"
       inkscape:locked="false" />
    <sodipodi:guide
       orientation="0,1"
       position="11,11"
       id="guide3826"
       inkscape:locked="false" />
  </sodipodi:namedview>
  <g
     id="slc-like">
    <rect
       y="-40"
       x="0"
       height="22"
       width="22"
       id="rect3791"
       style="fill:#ffffff;fill-opacity:0;stroke:none" />
    <path
       style="color:#7b7c7e;fill:#e6e6e6;fill-opacity:1"
       d="m 7,-37 c -2.7614237,0 -5,2.238576 -5,5 0,5 7,9 9,11 2,-2 9,-6 9,-11 0,-2.761424 -2.238576,-5 -5,-5 -1.639595,0 -3.088189,0.780765 -4,2 -0.911811,-1.219235 -2.3604046,-2 -4,-2 z m 0,2 c 3,0 4,2 4,2 0,0 1,-2 4,-2 1.656854,0 3,1.343146 3,3 0,4 -5,7 -7,9 -2,-2 -7,-5 -7,-9 0,-1.656854 1.3431458,-3 3,-3 z"
       id="path3795"
       inkscape:connector-curvature="0"
       sodipodi:nodetypes="sscsscsscsscss"
       class="ColorScheme-Text" />
  </g>
  <g
     id="slc-share">
    <rect
       y="0"
       x="40"
       height="22"
       width="22"
       id="rect3833"
       style="fill:#ffffff;fill-opacity:0;stroke:none" />
    <path
       id="path900"
       d="m 57,3 c -1.656854,0 -3,1.3431458 -3,3 0,0.087382 0.02393,0.1645141 0.03125,0.25 l -6.75,2.8125 C 46.730971,8.4152177 45.916143,8 45,8 c -1.656854,0 -3,1.343146 -3,3 0,1.656854 1.343146,3 3,3 0.916143,0 1.730971,-0.415218 2.28125,-1.0625 l 6.75,2.8125 C 54.023929,15.835486 54,15.912618 54,16 c 0,1.656854 1.343146,3 3,3 1.656854,0 3,-1.343146 3,-3 0,-1.656854 -1.343146,-3 -3,-3 -0.916143,0 -1.730971,0.415218 -2.28125,1.0625 l -6.75,-2.8125 C 47.976071,11.164514 48,11.087382 48,11 48,10.91262 47.97607,10.835486 47.96875,10.75 l 6.75,-2.8125 C 55.269029,8.5847823 56.083857,9 57,9 58.656854,9 60,7.6568542 60,6 60,4.3431458 58.656854,3 57,3 Z"
       style="color:#7b7c7e;fill:#e6e6e6;fill-opacity:1" />
  </g>
  <g
     id="slc-connect">
    <rect
       style="fill:#ffffff;fill-opacity:0;stroke:none"
       id="rect3009"
       width="22"
       height="22"
       x="0"
       y="0" />
    <path
       inkscape:connector-curvature="0"
       id="path831"
       d="M 13.070082,3.628981 A 5.300941,5.300941 0 0 0 7.7691379,8.9299209 5.300941,5.300941 0 0 0 8.831397,12.108415 L 4.640341,16.29947 3.580153,18.41985 5.700529,17.35966 9.8936561,13.166532 a 5.300941,5.300941 0 0 0 3.1764259,1.064326 5.300941,5.300941 0 0 0 5.30094,-5.3009371 5.300941,5.300941 0 0 0 -5.30094,-5.3009399 z"
       style="color:#7b7c7e;fill:#e6e6e6;stroke-width:1.06018758;fill-opacity:1" />
  </g>
</svg>
