<?xml version="1.0" encoding="UTF-8" standalone="no"?>
<svg
   xmlns:dc="http://purl.org/dc/elements/1.1/"
   xmlns:cc="http://creativecommons.org/ns#"
   xmlns:rdf="http://www.w3.org/1999/02/22-rdf-syntax-ns#"
   xmlns:svg="http://www.w3.org/2000/svg"
   xmlns="http://www.w3.org/2000/svg"
   xmlns:xlink="http://www.w3.org/1999/xlink"
   xmlns:sodipodi="http://sodipodi.sourceforge.net/DTD/sodipodi-0.dtd"
   xmlns:inkscape="http://www.inkscape.org/namespaces/inkscape"
   width="48"
   height="48"
   viewBox="0 0 12.7 12.7"
   version="1.1"
   id="svg22"
   sodipodi:docname="SCPlasmaThemeLogo.svg"
   inkscape:version="0.92.4 (5da689c313, 2019-01-14)">
  <metadata
     id="metadata26">
    <rdf:RDF>
      <cc:Work
         rdf:about="">
        <dc:format>image/svg+xml</dc:format>
        <dc:type
           rdf:resource="http://purl.org/dc/dcmitype/StillImage" />
        <dc:title></dc:title>
      </cc:Work>
    </rdf:RDF>
  </metadata>
  <sodipodi:namedview
     pagecolor="#ffffff"
     bordercolor="#666666"
     borderopacity="1"
     objecttolerance="10"
     gridtolerance="10"
     guidetolerance="10"
     inkscape:pageopacity="0"
     inkscape:pageshadow="2"
     inkscape:window-width="1366"
     inkscape:window-height="712"
     id="namedview24"
     showgrid="false"
     inkscape:zoom="2.75"
     inkscape:cx="24.181818"
     inkscape:cy="24"
     inkscape:window-x="0"
     inkscape:window-y="0"
     inkscape:window-maximized="1"
     inkscape:current-layer="svg22" />
  <defs
     id="defs8">
    <linearGradient
       id="linearGradient872">
      <stop
         id="stop868"
         stop-color="#216778"
         offset="0"
         style="stop-color:#1a1a1a;stop-opacity:1" />
      <stop
         id="stop870"
         stop-color="#37abc8"
         offset="1"
         style="stop-color:#1a1a1a;stop-opacity:1" />
    </linearGradient>
    <linearGradient
       gradientTransform="matrix(0.8151,0,0,0.8151,17.448,0.77)"
       xlink:href="#a"
       id="b"
       x1="4.387"
       y1="13.293"
       x2="6.421"
       y2="4.484"
       gradientUnits="userSpaceOnUse" />
    <linearGradient
       id="a">
      <stop
         offset="0"
         stop-color="#0b280b"
         id="stop3" />
      <stop
         offset="1"
         stop-color="#2ca02c"
         id="stop5" />
    </linearGradient>
    <filter
       style="color-interpolation-filters:sRGB"
       id="e"
       x="-0.054000001"
       width="1.108"
       y="-0.046"
       height="1.091">
      <feGaussianBlur
         stdDeviation=".131"
         id="feGaussianBlur8" />
    </filter>
    <filter
       style="color-interpolation-filters:sRGB"
       id="d"
       x="-0.024"
       width="1.048"
       y="-0.024"
       height="1.048">
      <feGaussianBlur
         stdDeviation=".131"
         id="feGaussianBlur14" />
    </filter>
    <linearGradient
       gradientTransform="matrix(0.81108595,0,0,0.81108595,1.5927201,0.65935073)"
       xlink:href="#a-3"
       id="c"
       x1="5.4889998"
       y1="12.112"
       x2="9.1850004"
       y2="1.247"
       gradientUnits="userSpaceOnUse" />
    <linearGradient
       id="a-3">
      <stop
         offset="0"
         stop-color="#216778"
         id="stop2" />
      <stop
         offset="1"
         stop-color="#37abc8"
         id="stop4" />
    </linearGradient>
    <filter
       style="color-interpolation-filters:sRGB"
       id="b-6"
       x="-0.032000002"
       width="1.0650001"
       y="-0.032000002"
       height="1.064">
      <feGaussianBlur
         stdDeviation=".131"
         id="feGaussianBlur11" />
    </filter>
    <linearGradient
       inkscape:collect="always"
       xlink:href="#linearGradient872"
       id="linearGradient859"
       gradientUnits="userSpaceOnUse"
       gradientTransform="matrix(0.81108595,0,0,0.81108595,1.5927201,-15.215649)"
       x1="5.4889998"
       y1="12.112"
       x2="9.1850004"
       y2="1.247" />
    <filter
       style="color-interpolation-filters:sRGB"
       id="b-6-3"
       x="-0.032000002"
       width="1.0650001"
       y="-0.032000002"
       height="1.064">
      <feGaussianBlur
         stdDeviation=".131"
         id="feGaussianBlur11-6" />
    </filter>
    <filter
       style="color-interpolation-filters:sRGB"
       id="d-3"
       x="-0.024"
       width="1.048"
       y="-0.024"
       height="1.048">
      <feGaussianBlur
         stdDeviation=".131"
         id="feGaussianBlur14-5" />
    </filter>
    <filter
       style="color-interpolation-filters:sRGB"
       id="e-6"
       x="-0.054000001"
       width="1.108"
       y="-0.046"
       height="1.091">
      <feGaussianBlur
         stdDeviation=".131"
         id="feGaussianBlur8-2" />
    </filter>
    <linearGradient
       inkscape:collect="always"
       xlink:href="#a-3"
       id="linearGradient891"
       gradientUnits="userSpaceOnUse"
       gradientTransform="matrix(0.81108595,0,0,0.81108595,1.5927201,0.65935073)"
       x1="5.4889998"
       y1="12.112"
       x2="9.1850004"
       y2="1.247" />
  </defs>
  <g
     id="g855">
    <path
       inkscape:connector-curvature="0"
       id="path846"
       d="M 6.7578922,0.44779086 A 5.3457365,5.3854388 0 0 0 4.680122,0.87040314 l 8.91e-4,0.001765 A 5.3819098,5.3819098 0 0 0 4.1904571,1.1050897 l -0.0062,-0.00618 -0.562895,-0.56289459 a 6.1494937,6.1494937 0 0 0 -2.17482,2.17393909 l 0.401437,0.4014375 0.167633,0.1676332 A 5.3819098,5.3819098 0 0 0 1.5947641,4.2918828 H 0.78836007 a 6.1503761,6.1503761 0 0 0 -0.199395,1.5378146 6.1583167,6.1583167 0 0 0 0.203807,1.5378145 H 1.5965291 a 5.3819098,5.3819098 0 0 0 0.419083,1.0119755 l -0.167633,0.1676334 -0.401437,0.4014376 a 6.1521407,6.1521407 0 0 0 2.174821,2.1748206 l 0.401437,-0.400555 0.167633,-0.167634 a 5.3819098,5.3819098 0 0 0 1.0119749,0.419967 v 0.806403 c 0.5029,0.131461 1.0190344,0.198514 1.5378152,0.200278 A 6.1724332,6.1724332 0 0 0 8.27892,11.78156 v -0.8064 a 5.3819098,5.3819098 0 0 0 1.0119755,-0.420848 l 0.1676333,0.167633 0.4014381,0.401437 A 6.1512584,6.1512584 0 0 0 12.03481,8.9485618 L 11.633374,8.5480064 11.46574,8.3803732 a 5.3819098,5.3819098 0 0 0 0.2788,-0.620243 l 0.008,-0.014115 A 5.3457365,5.3854388 0 0 0 12.103629,5.8314653 5.3457365,5.3854388 0 0 0 6.7578922,0.44779086 Z"
       style="fill:#f9f9f9;stroke-width:0.88228029" />
    <path
       transform="matrix(0.92275814,0,0,0.92275814,0.49048537,0.4904858)"
       id="path31"
       d="m 6.7935002,1.0370002 a 4.8400001,4.8760001 0 0 0 -4.8420001,4.876 4.8400001,4.8760001 0 0 0 0.02,0.38 H 10.9625 A 4.189,4.219 0 0 1 6.7925002,10.133 4.189,4.219 0 0 1 2.7475001,6.9930002 l -0.632,0.16 A 4.8400001,4.8760001 0 0 0 6.7925002,10.79 4.8400001,4.8760001 0 0 0 11.6325,5.9130002 a 4.8400001,4.8760001 0 0 0 -0.016,-0.33 H 2.6195001 a 4.189,4.219 0 0 1 4.1740001,-3.889 4.189,4.219 0 0 1 4.0479998,3.155 l 0.629,-0.167 a 4.8400001,4.8760001 0 0 0 -4.6769998,-3.645 z"
       style="opacity:0.2;filter:url(#b-6)"
       inkscape:connector-curvature="0" />
    <path
       id="path33"
       d="m 6.7592436,1.3126635 a 4.4661496,4.4993688 0 0 0 -4.4679955,4.4984459 4.4661496,4.4993688 0 0 0 0.01846,0.3506483 H 10.606227 A 3.8654338,3.8931167 0 0 1 6.7583257,9.7051487 3.8654338,3.8931167 0 0 1 3.0257691,6.8076883 L 2.4425861,6.9553296 A 4.4661496,4.4993688 0 0 0 6.7583207,10.3114 4.4661496,4.4993688 0 0 0 11.22447,5.8111094 4.4661496,4.4993688 0 0 0 11.209706,5.5065992 H 2.9076511 A 3.8654338,3.8931167 0 0 1 6.7592436,1.9189156 3.8654338,3.8931167 0 0 1 10.494568,4.8292949 L 11.074984,4.6751943 A 4.4661496,4.4993688 0 0 0 6.7592436,1.3126635 Z"
       style="fill:url(#c);stroke-width:0.9227581"
       inkscape:connector-curvature="0" />
    <path
       transform="matrix(0.92275814,0,0,0.92275814,0.49048537,0.4904858)"
       id="path35"
       d="m 6.8175002,-0.18699979 a 6.0590001,6.1040001 0 0 0 -2.3560001,0.48 l 10e-4,0.002 a 6.1000001,6.1000001 0 0 0 -0.556,0.26400003 l -0.007,-0.007 -0.638,-0.63800003 A 6.9700001,6.9700001 0 0 0 0.79650011,2.3780002 l 0.45499999,0.455 0.19,0.19 a 6.1000001,6.1000001 0 0 0 -0.47699999,1.148 H 0.05050009 a 6.9710001,6.9710001 0 0 0 -0.226,1.743 6.9800001,6.9800001 0 0 0 0.231,1.7430001 h 0.91100002 a 6.1000001,6.1000001 0 0 0 0.47499999,1.147 l -0.19,0.19 -0.45499999,0.455 A 6.9730001,6.9730001 0 0 0 3.2615001,11.914 l 0.455,-0.454 0.19,-0.19 a 6.1000001,6.1000001 0 0 0 1.148,0.476 v 0.914 c 0.569,0.148 1.1540001,0.225 1.7430001,0.227 a 6.9960001,6.9960001 0 0 0 1.743,-0.227 v -0.914 a 6.1000001,6.1000001 0 0 0 1.147,-0.477 l 0.19,0.19 0.4549998,0.455 a 6.9720001,6.9720001 0 0 0 2.465,-2.4649997 l -0.455,-0.454 -0.19,-0.19 a 6.1000001,6.1000001 0 0 0 0.316,-0.703 l 0.009,-0.016 a 6.0590001,6.1040001 0 0 0 0.398,-2.1700001 6.0590001,6.1040001 0 0 0 -6.0589998,-6.10299999 z m -0.02,0.627 a 5.4340001,5.4740001 0 0 1 0.543,0.027 5.4340001,5.4740001 0 0 1 0.537,0.082 5.4340001,5.4740001 0 0 1 0.526,0.136 5.4340001,5.4740001 0 0 1 0.51,0.187 5.4340001,5.4740001 0 0 1 0.49,0.23799999 5.4340001,5.4740001 0 0 1 0.462,0.286 5.4340001,5.4740001 0 0 1 0.4329998,0.332 5.4340001,5.4740001 0 0 1 0.397,0.373 5.4340001,5.4740001 0 0 1 0.358,0.41 5.4340001,5.4740001 0 0 1 0.316,0.446 5.4340001,5.4740001 0 0 1 0.27,0.474 5.4340001,5.4740001 0 0 1 0.222,0.5 5.4340001,5.4740001 0 0 1 0.171,0.52 5.4340001,5.4740001 0 0 1 0.12,0.533 5.4340001,5.4740001 0 0 1 0.064,0.543 5.4340001,5.4740001 0 0 1 0.014,0.386 5.4340001,5.4740001 0 0 1 -0.027,0.547 5.4340001,5.4740001 0 0 1 -0.081,0.54 5.4340001,5.4740001 0 0 1 -0.134,0.53 5.4340001,5.4740001 0 0 1 -0.028,0.077 5.4340001,5.4740001 0 0 1 -0.03,0.082 5.4430001,5.4430001 0 0 1 -0.09,0.247 5.4340001,5.4740001 0 0 1 -0.039,0.109 5.4340001,5.4740001 0 0 1 -0.129,0.27 5.4430001,5.4430001 0 0 1 -0.033,0.069 5.4340001,5.4740001 0 0 1 -0.074,0.153 5.4340001,5.4740001 0 0 1 -0.283,0.467 5.4340001,5.4740001 0 0 1 -0.049,0.064 l 0.053,0.053 0.59,0.5899998 0.002,0.002 c -0.364,0.487 -0.795,0.92 -1.281,1.284 l -0.004,-0.003 -0.59,-0.59 -0.046,-0.046 a 5.4340001,5.4740001 0 0 1 -0.224,0.162 5.4340001,5.4740001 0 0 1 -0.47,0.272 5.4340001,5.4740001 0 0 1 -0.497,0.223 5.4340001,5.4740001 0 0 1 -0.515,0.173 5.4340001,5.4740001 0 0 1 -0.53,0.12 5.4340001,5.4740001 0 0 1 -0.018,0.002 v 0.886 c -0.3,0.044 -0.603,0.067 -0.907,0.067 A 6.3500001,6.3500001 0 0 1 5.8895001,12.197 v -0.892 a 5.4340001,5.4740001 0 0 1 -0.171,-0.026 5.4340001,5.4740001 0 0 1 -0.527,-0.135 5.4340001,5.4740001 0 0 1 -0.51,-0.188 5.4340001,5.4740001 0 0 1 -0.49,-0.238 5.4340001,5.4740001 0 0 1 -0.462,-0.286 5.4340001,5.4740001 0 0 1 -0.096,-0.072 l -0.044,0.043 -0.59,0.59 -0.003,0.004 a 6.3430001,6.3430001 0 0 1 -1.281,-1.285 V 9.71 l 0.591,-0.5899998 0.055,-0.054 a 5.4340001,5.4740001 0 0 1 -0.137,-0.194 5.4340001,5.4740001 0 0 1 -0.153,-0.268 5.4340001,5.4740001 0 0 1 -0.117,-0.206 5.4340001,5.4740001 0 0 1 -0.095,-0.212 5.4430001,5.4430001 0 0 1 -0.063,-0.143 5.4340001,5.4740001 0 0 1 -0.064,-0.144 5.4340001,5.4740001 0 0 1 -0.047,-0.141 5.4430001,5.4430001 0 0 1 -0.1,-0.3020001 5.4340001,5.4740001 0 0 1 -0.025,-0.077 5.4340001,5.4740001 0 0 1 -0.017,-0.079 5.4430001,5.4430001 0 0 1 -10e-4,-0.003 5.4430001,5.4430001 0 0 1 -0.11,-0.476 H 0.51550011 a 6.3700001,6.3700001 0 0 1 -0.07,-0.907 c 0,-0.304 0.024,-0.607 0.067,-0.907 H 1.4355001 a 5.4430001,5.4430001 0 0 1 0.025,-0.113 5.4340001,5.4740001 0 0 1 0.01,-0.068 5.4340001,5.4740001 0 0 1 0.038,-0.147 5.4430001,5.4430001 0 0 1 0.073,-0.292 5.4340001,5.4740001 0 0 1 0.024,-0.091 5.4340001,5.4740001 0 0 1 0.073,-0.201 5.4430001,5.4430001 0 0 1 0.069,-0.192 5.4340001,5.4740001 0 0 1 0.044,-0.121 5.4340001,5.4740001 0 0 1 0.126,-0.265 5.4430001,5.4430001 0 0 1 0.038,-0.079 5.4340001,5.4740001 0 0 1 0.071,-0.149 5.4340001,5.4740001 0 0 1 0.284,-0.466 5.4340001,5.4740001 0 0 1 0.048,-0.064 l -0.053,-0.052 -0.59,-0.59 -0.003,-0.003 a 6.3500001,6.3500001 0 0 1 1.285,-1.28199999 v 0.002 l 0.591,0.58999999 0.046,0.046 a 5.4340001,5.4740001 0 0 1 0.225,-0.163 5.4340001,5.4740001 0 0 1 0.471,-0.272 5.4340001,5.4740001 0 0 1 0.496,-0.22299999 5.4340001,5.4740001 0 0 1 0.123,-0.042 5.4340001,5.4740001 0 0 1 0.392,-0.13 5.4340001,5.4740001 0 0 1 0.127,-0.03 5.4340001,5.4740001 0 0 1 0.004,0 5.4340001,5.4740001 0 0 1 0.4,-0.09 5.4340001,5.4740001 0 0 1 0.114,-0.015 5.4340001,5.4740001 0 0 1 0.072,-0.008 5.4340001,5.4740001 0 0 1 0.3530001,-0.043 5.4340001,5.4740001 0 0 1 0.124,-0.005 5.4340001,5.4740001 0 0 1 0.044,-0.002 5.4340001,5.4740001 0 0 1 0.217,-0.007 z"
       style="opacity:0.2;filter:url(#d)"
       inkscape:connector-curvature="0" />
    <path
       transform="matrix(0.92275814,0,0,0.92275814,0.49048537,0.4904858)"
       id="path39"
       d="m 6.7935002,2.4830002 a 3.406,3.43 0 0 0 -3.4070001,3.43 3.406,3.43 0 0 0 3.4070001,3.4320001 3.406,3.43 0 0 0 2.41,-1.01 l -0.509,-0.507 a 2.69,2.71 0 0 1 -1.901,0.796 2.69,2.71 0 0 1 -2.6920001,-2.7100001 2.69,2.71 0 0 1 2.6920001,-2.71 2.69,2.71 0 0 1 1.915,0.807 l 0.506,-0.506 a 3.406,3.43 0 0 0 -2.421,-1.022 z"
       style="opacity:0.2;filter:url(#e)"
       inkscape:connector-curvature="0" />
    <path
       id="path41"
       d="M 6.7592436,2.6469718 A 3.1429142,3.1650605 0 0 0 3.6154061,5.8120323 3.1429142,3.1650605 0 0 0 6.7592436,8.9770926 3.1429142,3.1650605 0 0 0 8.9830907,8.0469523 L 8.5134068,7.5781911 A 2.4822194,2.5006747 0 0 1 6.7592436,8.3127068 2.4822194,2.5006747 0 0 1 4.2751781,5.8120323 2.4822194,2.5006747 0 0 1 6.7592436,3.3113576 2.4822194,2.5006747 0 0 1 8.5263253,4.0560235 L 8.9932409,3.5891079 A 3.1429142,3.1650605 0 0 0 6.7592436,2.6469718 Z"
       style="fill:#1a1a1a;stroke-width:0.9227581"
       inkscape:connector-curvature="0" />
    <path
       inkscape:connector-curvature="0"
       style="fill:#1a1a1a;stroke-width:0.9227581"
       d="M 6.776776,0.18320754 A 5.5909917,5.6325155 0 0 0 4.60368,0.6252087 l 9.32e-4,0.001846 A 5.6288246,5.6288246 0 0 0 4.0915501,0.87066235 l -0.0065,-0.00646 -0.58872,-0.58871937 A 6.4316242,6.4316242 0 0 0 1.2217321,2.5491594 l 0.419855,0.419855 0.175324,0.1753239 A 5.6288246,5.6288246 0 0 0 1.3767551,4.2036648 H 0.53335437 a 6.4325471,6.4325471 0 0 0 -0.208543,1.6083675 6.440852,6.440852 0 0 0 0.213157,1.6083673 H 1.3786011 a 5.6288246,5.6288246 0 0 0 0.43831,1.0584036 l -0.175324,0.1753242 -0.419855,0.419855 a 6.4343926,6.4343926 0 0 0 2.274599,2.2745976 l 0.419855,-0.418932 0.175324,-0.175324 a 5.6288246,5.6288246 0 0 0 1.0584029,0.439234 v 0.8434 c 0.525972,0.137492 1.0657859,0.207621 1.6083677,0.209466 a 6.4556161,6.4556161 0 0 0 1.6092901,-0.209466 v -0.8434 a 5.6288246,5.6288246 0 0 0 1.0584036,-0.440156 l 0.175324,0.175324 0.4198556,0.419854 A 6.4334698,6.4334698 0 0 0 12.295792,9.0739824 L 11.875938,8.65505 11.700614,8.4797261 a 5.6288246,5.6288246 0 0 0 0.29159,-0.648699 l 0.0084,-0.014763 A 5.5909917,5.6325155 0 0 0 12.367768,5.8138777 5.5909917,5.6325155 0 0 0 6.776776,0.18320754 Z M 6.759244,0.76085412 a 5.0142679,5.051178 0 0 1 0.5010574,0.0249144 5.0142679,5.051178 0 0 1 0.4955211,0.0756662 5.0142679,5.051178 0 0 1 0.485371,0.12549515 5.0142679,5.051178 0 0 1 0.4706066,0.17255583 5.0142679,5.051178 0 0 1 0.4512288,0.2205392 5.0142679,5.051178 0 0 1 0.4272369,0.2629861 5.0142679,5.051178 0 0 1 0.3995543,0.3063556 5.0142679,5.051178 0 0 1 0.3663339,0.3441888 5.0142679,5.051178 0 0 1 0.330348,0.3783307 5.0142679,5.051178 0 0 1 0.291592,0.4115504 5.0142679,5.051178 0 0 1 0.249144,0.4373874 5.0142679,5.051178 0 0 1 0.204852,0.4613788 5.0142679,5.051178 0 0 1 0.157793,0.4798344 5.0142679,5.051178 0 0 1 0.110731,0.4918301 5.0142679,5.051178 0 0 1 0.05906,0.5010575 5.0142679,5.051178 0 0 1 0.01292,0.3561847 5.0142679,5.051178 0 0 1 -0.02492,0.5047489 5.0142679,5.051178 0 0 1 -0.07474,0.4982895 5.0142679,5.051178 0 0 1 -0.12365,0.4899843 5.0142679,5.051178 0 0 1 -0.02584,0.07013 5.0142679,5.051178 0 0 1 -0.02768,0.075666 5.0225727,5.0225727 0 0 1 -0.08304,0.2279213 5.0142679,5.051178 0 0 1 -0.03598,0.1015034 5.0142679,5.051178 0 0 1 -0.119035,0.2472993 5.0225727,5.0225727 0 0 1 -0.03045,0.064593 5.0142679,5.051178 0 0 1 -0.06828,0.1421047 5.0142679,5.051178 0 0 1 -0.261141,0.4300053 5.0142679,5.051178 0 0 1 -0.04614,0.059056 l 0.04983,0.048906 0.544428,0.544427 0.0018,0.00184 c -0.335884,0.4493831 -0.733593,0.8489369 -1.182053,1.1848209 l -0.0036,-0.0028 L 9.71763,9.9551968 9.675183,9.9127538 a 5.0142679,5.051178 0 0 1 -0.2066973,0.1494872 5.0142679,5.051178 0 0 1 -0.4346195,0.250989 5.0142679,5.051178 0 0 1 -0.4576881,0.205776 5.0142679,5.051178 0 0 1 -0.4752202,0.16056 5.0142679,5.051178 0 0 1 -0.4890619,0.110731 5.0142679,5.051178 0 0 1 -0.01661,0.0018 v 0.816641 c -0.2768276,0.0406 -0.5564233,0.06182 -0.8369418,0.06182 a 5.8595142,5.8595142 0 0 1 -0.8369415,-0.0609 v -0.8231 A 5.0142679,5.051178 0 0 1 5.763611,10.762588 5.0142679,5.051178 0 0 1 5.277317,10.638014 5.0142679,5.051178 0 0 1 4.806711,10.465459 5.0142679,5.051178 0 0 1 4.35456,10.24492 5.0142679,5.051178 0 0 1 3.9273221,9.9819338 5.0142679,5.051178 0 0 1 3.8396621,9.9145728 l -0.0406,0.040601 -0.544427,0.5444272 -0.0028,0.0028 A 5.853055,5.853055 0 0 1 2.0697511,9.3166675 v -9.228e-4 l 0.54535,-0.5444275 0.05075,-0.050752 A 5.0142679,5.051178 0 0 1 2.5394321,8.5415508 5.0142679,5.051178 0 0 1 2.3982501,8.2942517 5.0142679,5.051178 0 0 1 2.2893651,8.1041634 a 5.0142679,5.051178 0 0 1 -0.08674,-0.1956248 5.0225727,5.0225727 0 0 1 -0.05813,-0.1310317 5.0142679,5.051178 0 0 1 -0.05906,-0.1337998 5.0142679,5.051178 0 0 1 -0.04337,-0.1301087 5.0225727,5.0225727 0 0 1 -0.09228,-0.2777503 5.0142679,5.051178 0 0 1 -0.02307,-0.071052 5.0142679,5.051178 0 0 1 -0.01569,-0.073821 5.0225727,5.0225727 0 0 1 -9.23e-4,-0.00277 5.0225727,5.0225727 0 0 1 -0.102426,-0.4392328 H 0.96335207 a 5.8779695,5.8779695 0 0 1 -0.06459,-0.8369415 c 0,-0.2805186 0.02122,-0.5601144 0.06183,-0.8369417 H 1.8113751 a 5.0225727,5.0225727 0 0 1 0.02307,-0.1042719 5.0142679,5.051178 0 0 1 0.0092,-0.062748 5.0142679,5.051178 0 0 1 0.03414,-0.1356456 5.0225727,5.0225727 0 0 1 0.06828,-0.2694453 5.0142679,5.051178 0 0 1 0.02215,-0.083971 5.0142679,5.051178 0 0 1 0.06644,-0.1854746 5.0225727,5.0225727 0 0 1 0.06459,-0.1771695 5.0142679,5.051178 0 0 1 0.0406,-0.1116538 5.0142679,5.051178 0 0 1 0.11719,-0.2445309 5.0225727,5.0225727 0 0 1 0.03414,-0.072898 5.0142679,5.051178 0 0 1 0.06644,-0.1374908 5.0142679,5.051178 0 0 1 0.262064,-0.4300053 5.0142679,5.051178 0 0 1 0.04429,-0.059057 l -0.0489,-0.047982 -0.544427,-0.5444273 -0.0028,-0.00277 A 5.8595142,5.8595142 0 0 1 3.2535881,1.123498 v 9.228e-4 l 0.544428,0.5444273 0.04245,0.042446 A 5.0142679,5.051178 0 0 1 4.0490101,1.5618081 5.0142679,5.051178 0 0 1 4.483629,1.3098952 5.0142679,5.051178 0 0 1 4.941317,1.1041201 5.0142679,5.051178 0 0 1 5.054816,1.0662871 5.0142679,5.051178 0 0 1 5.416538,0.94448298 a 5.0142679,5.051178 0 0 1 0.11719,-0.0258372 5.0142679,5.051178 0 0 1 0.0037,-9.2275e-4 5.0142679,5.051178 0 0 1 0.3691032,-0.0830482 5.0142679,5.051178 0 0 1 0.1051944,-0.0129185 5.0142679,5.051178 0 0 1 0.066438,-0.009228 5.0142679,5.051178 0 0 1 0.324811,-0.0387558 5.0142679,5.051178 0 0 1 0.1153448,-0.004614 5.0142679,5.051178 0 0 1 0.040602,-9.2276e-4 5.0142679,5.051178 0 0 1 0.2002385,-0.007382 z"
       id="path842" />
  </g>
  <g
     id="g914"
     transform="translate(15.875,15.875)">
    <path
       inkscape:connector-curvature="0"
       style="opacity:0.2;filter:url(#d)"
       d="m 6.8175002,-0.18699979 a 6.0590001,6.1040001 0 0 0 -2.3560001,0.48 l 10e-4,0.002 a 6.1000001,6.1000001 0 0 0 -0.556,0.26400003 l -0.007,-0.007 -0.638,-0.63800003 A 6.9700001,6.9700001 0 0 0 0.79650011,2.3780002 l 0.45499999,0.455 0.19,0.19 a 6.1000001,6.1000001 0 0 0 -0.47699999,1.148 H 0.05050009 a 6.9710001,6.9710001 0 0 0 -0.226,1.743 6.9800001,6.9800001 0 0 0 0.231,1.7430001 h 0.91100002 a 6.1000001,6.1000001 0 0 0 0.47499999,1.147 l -0.19,0.19 -0.45499999,0.455 A 6.9730001,6.9730001 0 0 0 3.2615001,11.914 l 0.455,-0.454 0.19,-0.19 a 6.1000001,6.1000001 0 0 0 1.148,0.476 v 0.914 c 0.569,0.148 1.1540001,0.225 1.7430001,0.227 a 6.9960001,6.9960001 0 0 0 1.743,-0.227 v -0.914 a 6.1000001,6.1000001 0 0 0 1.147,-0.477 l 0.19,0.19 0.4549998,0.455 a 6.9720001,6.9720001 0 0 0 2.465,-2.4649997 l -0.455,-0.454 -0.19,-0.19 a 6.1000001,6.1000001 0 0 0 0.316,-0.703 l 0.009,-0.016 a 6.0590001,6.1040001 0 0 0 0.398,-2.1700001 6.0590001,6.1040001 0 0 0 -6.0589998,-6.10299999 z m -0.02,0.627 a 5.4340001,5.4740001 0 0 1 0.543,0.027 5.4340001,5.4740001 0 0 1 0.537,0.082 5.4340001,5.4740001 0 0 1 0.526,0.136 5.4340001,5.4740001 0 0 1 0.51,0.187 5.4340001,5.4740001 0 0 1 0.49,0.23799999 5.4340001,5.4740001 0 0 1 0.462,0.286 5.4340001,5.4740001 0 0 1 0.4329998,0.332 5.4340001,5.4740001 0 0 1 0.397,0.373 5.4340001,5.4740001 0 0 1 0.358,0.41 5.4340001,5.4740001 0 0 1 0.316,0.446 5.4340001,5.4740001 0 0 1 0.27,0.474 5.4340001,5.4740001 0 0 1 0.222,0.5 5.4340001,5.4740001 0 0 1 0.171,0.52 5.4340001,5.4740001 0 0 1 0.12,0.533 5.4340001,5.4740001 0 0 1 0.064,0.543 5.4340001,5.4740001 0 0 1 0.014,0.386 5.4340001,5.4740001 0 0 1 -0.027,0.547 5.4340001,5.4740001 0 0 1 -0.081,0.54 5.4340001,5.4740001 0 0 1 -0.134,0.53 5.4340001,5.4740001 0 0 1 -0.028,0.077 5.4340001,5.4740001 0 0 1 -0.03,0.082 5.4430001,5.4430001 0 0 1 -0.09,0.247 5.4340001,5.4740001 0 0 1 -0.039,0.109 5.4340001,5.4740001 0 0 1 -0.129,0.27 5.4430001,5.4430001 0 0 1 -0.033,0.069 5.4340001,5.4740001 0 0 1 -0.074,0.153 5.4340001,5.4740001 0 0 1 -0.283,0.467 5.4340001,5.4740001 0 0 1 -0.049,0.064 l 0.053,0.053 0.59,0.5899998 0.002,0.002 c -0.364,0.487 -0.795,0.92 -1.281,1.284 l -0.004,-0.003 -0.59,-0.59 -0.046,-0.046 a 5.4340001,5.4740001 0 0 1 -0.224,0.162 5.4340001,5.4740001 0 0 1 -0.47,0.272 5.4340001,5.4740001 0 0 1 -0.497,0.223 5.4340001,5.4740001 0 0 1 -0.515,0.173 5.4340001,5.4740001 0 0 1 -0.53,0.12 5.4340001,5.4740001 0 0 1 -0.018,0.002 v 0.886 c -0.3,0.044 -0.603,0.067 -0.907,0.067 A 6.3500001,6.3500001 0 0 1 5.8895001,12.197 v -0.892 a 5.4340001,5.4740001 0 0 1 -0.171,-0.026 5.4340001,5.4740001 0 0 1 -0.527,-0.135 5.4340001,5.4740001 0 0 1 -0.51,-0.188 5.4340001,5.4740001 0 0 1 -0.49,-0.238 5.4340001,5.4740001 0 0 1 -0.462,-0.286 5.4340001,5.4740001 0 0 1 -0.096,-0.072 l -0.044,0.043 -0.59,0.59 -0.003,0.004 a 6.3430001,6.3430001 0 0 1 -1.281,-1.285 V 9.71 l 0.591,-0.5899998 0.055,-0.054 a 5.4340001,5.4740001 0 0 1 -0.137,-0.194 5.4340001,5.4740001 0 0 1 -0.153,-0.268 5.4340001,5.4740001 0 0 1 -0.117,-0.206 5.4340001,5.4740001 0 0 1 -0.095,-0.212 5.4430001,5.4430001 0 0 1 -0.063,-0.143 5.4340001,5.4740001 0 0 1 -0.064,-0.144 5.4340001,5.4740001 0 0 1 -0.047,-0.141 5.4430001,5.4430001 0 0 1 -0.1,-0.3020001 5.4340001,5.4740001 0 0 1 -0.025,-0.077 5.4340001,5.4740001 0 0 1 -0.017,-0.079 5.4430001,5.4430001 0 0 1 -10e-4,-0.003 5.4430001,5.4430001 0 0 1 -0.11,-0.476 H 0.51550011 a 6.3700001,6.3700001 0 0 1 -0.07,-0.907 c 0,-0.304 0.024,-0.607 0.067,-0.907 H 1.4355001 a 5.4430001,5.4430001 0 0 1 0.025,-0.113 5.4340001,5.4740001 0 0 1 0.01,-0.068 5.4340001,5.4740001 0 0 1 0.038,-0.147 5.4430001,5.4430001 0 0 1 0.073,-0.292 5.4340001,5.4740001 0 0 1 0.024,-0.091 5.4340001,5.4740001 0 0 1 0.073,-0.201 5.4430001,5.4430001 0 0 1 0.069,-0.192 5.4340001,5.4740001 0 0 1 0.044,-0.121 5.4340001,5.4740001 0 0 1 0.126,-0.265 5.4430001,5.4430001 0 0 1 0.038,-0.079 5.4340001,5.4740001 0 0 1 0.071,-0.149 5.4340001,5.4740001 0 0 1 0.284,-0.466 5.4340001,5.4740001 0 0 1 0.048,-0.064 l -0.053,-0.052 -0.59,-0.59 -0.003,-0.003 a 6.3500001,6.3500001 0 0 1 1.285,-1.28199999 v 0.002 l 0.591,0.58999999 0.046,0.046 a 5.4340001,5.4740001 0 0 1 0.225,-0.163 5.4340001,5.4740001 0 0 1 0.471,-0.272 5.4340001,5.4740001 0 0 1 0.496,-0.22299999 5.4340001,5.4740001 0 0 1 0.123,-0.042 5.4340001,5.4740001 0 0 1 0.392,-0.13 5.4340001,5.4740001 0 0 1 0.127,-0.03 5.4340001,5.4740001 0 0 1 0.004,0 5.4340001,5.4740001 0 0 1 0.4,-0.09 5.4340001,5.4740001 0 0 1 0.114,-0.015 5.4340001,5.4740001 0 0 1 0.072,-0.008 5.4340001,5.4740001 0 0 1 0.3530001,-0.043 5.4340001,5.4740001 0 0 1 0.124,-0.005 5.4340001,5.4740001 0 0 1 0.044,-0.002 5.4340001,5.4740001 0 0 1 0.217,-0.007 z"
       id="path849"
       transform="matrix(0.92275814,0,0,0.92275814,0.49048537,-15.384515)" />
    <path
       style="fill:#f9f9f9;stroke-width:0.88228029"
       d="m 6.7578922,-15.427209 a 5.3457365,5.3854388 0 0 0 -2.0777702,0.422612 l 8.91e-4,0.0018 a 5.3819098,5.3819098 0 0 0 -0.4905559,0.232927 l -0.0062,-0.0062 -0.562895,-0.562895 a 6.1494937,6.1494937 0 0 0 -2.17482,2.173939 l 0.401437,0.401438 0.167633,0.167633 a 5.3819098,5.3819098 0 0 0 -0.420848,1.012858 H 0.78836007 a 6.1503761,6.1503761 0 0 0 -0.199395,1.537814 6.1583167,6.1583167 0 0 0 0.203807,1.5378148 H 1.5965291 a 5.3819098,5.3819098 0 0 0 0.419083,1.0119755 l -0.167633,0.1676334 -0.401437,0.4014376 a 6.1521407,6.1521407 0 0 0 2.174821,2.1748207 l 0.401437,-0.400555 0.167633,-0.167634 a 5.3819098,5.3819098 0 0 0 1.0119749,0.419967 v 0.8064029 c 0.5029,0.131461 1.0190344,0.198514 1.5378152,0.200278 A 6.1724332,6.1724332 0 0 0 8.27892,-4.0934401 V -4.89984 a 5.3819098,5.3819098 0 0 0 1.0119755,-0.420848 l 0.1676333,0.167633 0.4014381,0.401437 A 6.1512584,6.1512584 0 0 0 12.03481,-6.9264383 L 11.633374,-7.3269937 11.46574,-7.4946269 a 5.3819098,5.3819098 0 0 0 0.2788,-0.620243 l 0.008,-0.014115 a 5.3457365,5.3854388 0 0 0 0.351089,-1.9145501 5.3457365,5.3854388 0 0 0 -5.3457368,-5.383674 z"
       id="path843"
       inkscape:connector-curvature="0" />
    <path
       inkscape:connector-curvature="0"
       style="opacity:0.2;filter:url(#b-6)"
       d="m 6.7935002,1.0370002 a 4.8400001,4.8760001 0 0 0 -4.8420001,4.876 4.8400001,4.8760001 0 0 0 0.02,0.38 H 10.9625 A 4.189,4.219 0 0 1 6.7925002,10.133 4.189,4.219 0 0 1 2.7475001,6.9930002 l -0.632,0.16 A 4.8400001,4.8760001 0 0 0 6.7925002,10.79 4.8400001,4.8760001 0 0 0 11.6325,5.9130002 a 4.8400001,4.8760001 0 0 0 -0.016,-0.33 H 2.6195001 a 4.189,4.219 0 0 1 4.1740001,-3.889 4.189,4.219 0 0 1 4.0479998,3.155 l 0.629,-0.167 a 4.8400001,4.8760001 0 0 0 -4.6769998,-3.645 z"
       id="path845"
       transform="matrix(0.92275814,0,0,0.92275814,0.49048537,-15.384515)" />
    <path
       inkscape:connector-curvature="0"
       style="fill:url(#linearGradient859);stroke-width:0.9227581"
       d="m 6.7592436,-14.562337 a 4.4661496,4.4993688 0 0 0 -4.4679955,4.498446 4.4661496,4.4993688 0 0 0 0.01846,0.3506487 h 8.2965189 a 3.8654338,3.8931167 0 0 1 -3.8479013,3.543391 3.8654338,3.8931167 0 0 1 -3.7325566,-2.8974605 l -0.583183,0.1476413 A 4.4661496,4.4993688 0 0 0 6.7583207,-5.5636 4.4661496,4.4993688 0 0 0 11.22447,-10.063891 4.4661496,4.4993688 0 0 0 11.20971,-10.368401 H 2.9076511 a 3.8654338,3.8931167 0 0 1 3.8515925,-3.587683 3.8654338,3.8931167 0 0 1 3.7353244,2.910379 l 0.580416,-0.154101 a 4.4661496,4.4993688 0 0 0 -4.3157404,-3.362531 z"
       id="path847" />
    <path
       inkscape:connector-curvature="0"
       style="opacity:0.2;filter:url(#e)"
       d="m 6.7935002,2.4830002 a 3.406,3.43 0 0 0 -3.4070001,3.43 3.406,3.43 0 0 0 3.4070001,3.4320001 3.406,3.43 0 0 0 2.41,-1.01 l -0.509,-0.507 a 2.69,2.71 0 0 1 -1.901,0.796 2.69,2.71 0 0 1 -2.6920001,-2.7100001 2.69,2.71 0 0 1 2.6920001,-2.71 2.69,2.71 0 0 1 1.915,0.807 l 0.506,-0.506 a 3.406,3.43 0 0 0 -2.421,-1.022 z"
       id="path851"
       transform="matrix(0.92275814,0,0,0.92275814,0.49048537,-15.384515)" />
    <path
       inkscape:connector-curvature="0"
       style="fill:#1a1a1a;stroke-width:0.9227581"
       d="m 6.7592436,-13.228028 a 3.1429142,3.1650605 0 0 0 -3.1438375,3.16506 3.1429142,3.1650605 0 0 0 3.1438375,3.1650605 3.1429142,3.1650605 0 0 0 2.2238471,-0.9301403 L 8.5134068,-8.296809 a 2.4822194,2.5006747 0 0 1 -1.7541632,0.7345157 2.4822194,2.5006747 0 0 1 -2.4840655,-2.5006747 2.4822194,2.5006747 0 0 1 2.4840655,-2.500674 2.4822194,2.5006747 0 0 1 1.7670817,0.744665 l 0.4669156,-0.466915 a 3.1429142,3.1650605 0 0 0 -2.2339973,-0.942136 z"
       id="path853" />
    <path
       id="path855"
       d="m 6.776776,-15.691793 a 5.5909917,5.6325155 0 0 0 -2.173096,0.442002 l 9.32e-4,0.0018 a 5.6288246,5.6288246 0 0 0 -0.5130619,0.243607 l -0.0065,-0.0065 -0.58872,-0.588719 a 6.4316242,6.4316242 0 0 0 -2.274598,2.273676 l 0.419855,0.419855 0.175324,0.175324 a 5.6288246,5.6288246 0 0 0 -0.440156,1.059327 H 0.53335437 a 6.4325471,6.4325471 0 0 0 -0.208543,1.608367 6.440852,6.440852 0 0 0 0.213157,1.6083675 H 1.3786011 a 5.6288246,5.6288246 0 0 0 0.43831,1.0584036 l -0.175324,0.1753242 -0.419855,0.419855 a 6.4343926,6.4343926 0 0 0 2.274599,2.2745977 l 0.419855,-0.418932 0.175324,-0.175324 a 5.6288246,5.6288246 0 0 0 1.0584029,0.439234 v 0.8433999 c 0.525972,0.137492 1.0657859,0.207621 1.6083677,0.209466 a 6.4556161,6.4556161 0 0 0 1.6092901,-0.209466 V -4.681438 a 5.6288246,5.6288246 0 0 0 1.0584036,-0.440156 l 0.175324,0.175324 0.4198556,0.419854 a 6.4334698,6.4334698 0 0 0 2.274638,-2.2746017 L 11.875938,-7.2199501 11.700614,-7.395274 a 5.6288246,5.6288246 0 0 0 0.29159,-0.648699 l 0.0084,-0.014763 a 5.5909917,5.6325155 0 0 0 0.367164,-2.002386 5.5909917,5.6325155 0 0 0 -5.590992,-5.630671 z m -0.017532,0.577647 a 5.0142679,5.051178 0 0 1 0.5010574,0.02491 5.0142679,5.051178 0 0 1 0.4955211,0.07567 5.0142679,5.051178 0 0 1 0.485371,0.125495 5.0142679,5.051178 0 0 1 0.4706066,0.172556 5.0142679,5.051178 0 0 1 0.4512288,0.220539 5.0142679,5.051178 0 0 1 0.4272369,0.262986 5.0142679,5.051178 0 0 1 0.3995543,0.306356 5.0142679,5.051178 0 0 1 0.3663339,0.344189 5.0142679,5.051178 0 0 1 0.330348,0.37833 5.0142679,5.051178 0 0 1 0.291592,0.411551 5.0142679,5.051178 0 0 1 0.249144,0.437387 5.0142679,5.051178 0 0 1 0.204852,0.461379 5.0142679,5.051178 0 0 1 0.157793,0.479835 5.0142679,5.051178 0 0 1 0.110731,0.49183 5.0142679,5.051178 0 0 1 0.05906,0.501057 5.0142679,5.051178 0 0 1 0.01292,0.356185 5.0142679,5.051178 0 0 1 -0.02492,0.5047486 5.0142679,5.051178 0 0 1 -0.07474,0.4982895 5.0142679,5.051178 0 0 1 -0.12365,0.4899843 5.0142679,5.051178 0 0 1 -0.02584,0.07013 5.0142679,5.051178 0 0 1 -0.02768,0.075666 5.0225727,5.0225727 0 0 1 -0.08304,0.2279213 5.0142679,5.051178 0 0 1 -0.03598,0.1015034 5.0142679,5.051178 0 0 1 -0.119035,0.2472993 5.0225727,5.0225727 0 0 1 -0.03045,0.064593 5.0142679,5.051178 0 0 1 -0.06828,0.1421047 5.0142679,5.051178 0 0 1 -0.261141,0.4300053 5.0142679,5.051178 0 0 1 -0.04614,0.059056 l 0.04983,0.048906 0.544428,0.544427 0.0018,0.00184 c -0.335884,0.4493832 -0.733593,0.848937 -1.182053,1.184821 l -0.0036,-0.0028 -0.544473,-0.5444076 -0.042447,-0.042443 a 5.0142679,5.051178 0 0 1 -0.2066973,0.1494872 5.0142679,5.051178 0 0 1 -0.4346195,0.250989 5.0142679,5.051178 0 0 1 -0.4576881,0.205776 5.0142679,5.051178 0 0 1 -0.4752202,0.16056 5.0142679,5.051178 0 0 1 -0.4890619,0.110731 5.0142679,5.051178 0 0 1 -0.01661,0.0018 v 0.8166409 c -0.2768276,0.0406 -0.5564233,0.06182 -0.8369418,0.06182 a 5.8595142,5.8595142 0 0 1 -0.8369415,-0.0609 V -5.088442 A 5.0142679,5.051178 0 0 1 5.763611,-5.112412 5.0142679,5.051178 0 0 1 5.277317,-5.236986 5.0142679,5.051178 0 0 1 4.806711,-5.409541 5.0142679,5.051178 0 0 1 4.35456,-5.63008 5.0142679,5.051178 0 0 1 3.9273221,-5.8930662 a 5.0142679,5.051178 0 0 1 -0.08766,-0.067361 l -0.0406,0.040601 -0.544427,0.5444272 -0.0028,0.0028 a 5.853055,5.853055 0 0 1 -1.182084,-1.1857336 v -9.228e-4 l 0.54535,-0.5444275 0.05075,-0.050752 a 5.0142679,5.051178 0 0 1 -0.126419,-0.1790144 5.0142679,5.051178 0 0 1 -0.141182,-0.2472991 5.0142679,5.051178 0 0 1 -0.108885,-0.1900883 5.0142679,5.051178 0 0 1 -0.08674,-0.1956248 5.0225727,5.0225727 0 0 1 -0.05813,-0.1310317 5.0142679,5.051178 0 0 1 -0.05906,-0.1337998 5.0142679,5.051178 0 0 1 -0.04337,-0.1301087 5.0225727,5.0225727 0 0 1 -0.09228,-0.2777503 5.0142679,5.051178 0 0 1 -0.02307,-0.071052 5.0142679,5.051178 0 0 1 -0.01569,-0.073821 5.0225727,5.0225727 0 0 1 -9.23e-4,-0.00277 5.0225727,5.0225727 0 0 1 -0.102426,-0.4392328 H 0.96335207 a 5.8779695,5.8779695 0 0 1 -0.06459,-0.8369412 c 0,-0.280519 0.02122,-0.560115 0.06183,-0.836942 H 1.8113751 a 5.0225727,5.0225727 0 0 1 0.02307,-0.104272 5.0142679,5.051178 0 0 1 0.0092,-0.06275 5.0142679,5.051178 0 0 1 0.03414,-0.135645 5.0225727,5.0225727 0 0 1 0.06828,-0.269446 5.0142679,5.051178 0 0 1 0.02215,-0.08397 5.0142679,5.051178 0 0 1 0.06644,-0.185474 5.0225727,5.0225727 0 0 1 0.06459,-0.17717 5.0142679,5.051178 0 0 1 0.0406,-0.111654 5.0142679,5.051178 0 0 1 0.11719,-0.244531 5.0225727,5.0225727 0 0 1 0.03414,-0.0729 5.0142679,5.051178 0 0 1 0.06644,-0.13749 5.0142679,5.051178 0 0 1 0.262064,-0.430006 5.0142679,5.051178 0 0 1 0.04429,-0.05906 l -0.0489,-0.04798 -0.544427,-0.544427 -0.0028,-0.0028 a 5.8595142,5.8595142 0 0 1 1.185746,-1.18205 v 9.23e-4 l 0.544428,0.544427 0.04245,0.04245 a 5.0142679,5.051178 0 0 1 0.208544,-0.149486 5.0142679,5.051178 0 0 1 0.4346189,-0.251913 5.0142679,5.051178 0 0 1 0.457688,-0.205775 5.0142679,5.051178 0 0 1 0.113499,-0.03783 5.0142679,5.051178 0 0 1 0.361722,-0.121804 5.0142679,5.051178 0 0 1 0.11719,-0.02584 5.0142679,5.051178 0 0 1 0.0037,-9.23e-4 5.0142679,5.051178 0 0 1 0.3691032,-0.08305 5.0142679,5.051178 0 0 1 0.1051944,-0.01292 5.0142679,5.051178 0 0 1 0.066438,-0.0092 5.0142679,5.051178 0 0 1 0.324811,-0.03876 5.0142679,5.051178 0 0 1 0.1153448,-0.0046 5.0142679,5.051178 0 0 1 0.040602,-9.23e-4 5.0142679,5.051178 0 0 1 0.2002385,-0.0074 z"
       style="fill:#1a1a1a;stroke-width:0.9227581"
       inkscape:connector-curvature="0" />
  </g>
  <g
     id="g951"
     transform="translate(-15.875)">
    <path
       inkscape:connector-curvature="0"
       transform="scale(0.26458333)"
       id="path884"
       d="M 39.839844,7.7167969 9.1015625,38.455078 a 23.252185,23.252185 0 0 0 0.21875,0.22461 23.252185,23.252185 0 0 0 4.3671875,3.361328 l 1.517578,-1.513672 0.632813,-0.632813 a 20.341076,20.341076 0 0 0 3.824218,1.585938 v 3.048828 c 1.900726,0.49686 3.851754,0.749192 5.8125,0.755859 a 23.328881,23.328881 0 0 0 5.816407,-0.755859 v -3.048828 a 20.341076,20.341076 0 0 0 3.824218,-1.589844 l 0.632813,0.632813 1.517578,1.517578 a 23.248851,23.248851 0 0 0 8.220703,-8.21875 L 43.96875,32.306641 43.335938,31.673828 a 20.341076,20.341076 0 0 0 1.052734,-2.34375 l 0.03125,-0.05469 A 20.204358,20.354414 0 0 0 45.746094,22.041016 20.204358,20.354414 0 0 0 40.068359,7.9316406 20.204358,20.354414 0 0 0 39.839844,7.7167969 Z"
       style="fill:#f9f9f9;stroke-width:3.33460236" />
    <path
       inkscape:connector-curvature="0"
       transform="scale(0.26458333)"
       id="path869"
       d="m 25.541016,1.6933594 a 20.204358,20.354414 0 0 0 -7.851563,1.5957031 l 0.002,0.00781 A 20.341076,20.341076 0 0 0 15.837891,4.1757812 L 15.814453,4.1542969 13.6875,2.0253906 A 23.242181,23.242181 0 0 0 5.4667969,10.242188 l 1.5175781,1.517578 0.6328125,0.632812 a 20.341076,20.341076 0 0 0 -1.5898437,3.828125 h -3.046875 a 23.245516,23.245516 0 0 0 -0.7539063,5.8125 23.275528,23.275528 0 0 0 0.7695313,5.8125 h 3.0371093 a 20.341076,20.341076 0 0 0 1.5839844,3.824219 L 6.984375,32.304688 5.4667969,33.822266 a 23.252185,23.252185 0 0 0 3.6347656,4.632812 L 39.839844,7.7167969 A 20.204358,20.354414 0 0 0 25.541016,1.6933594 Z"
       style="fill:#1a1a1a;stroke-width:3.33460236" />
    <path
       transform="matrix(0.92275814,0,0,0.92275814,0.49048537,0.4904858)"
       id="path31-9"
       d="m 6.7935002,1.0370002 a 4.8400001,4.8760001 0 0 0 -4.8420001,4.876 4.8400001,4.8760001 0 0 0 0.02,0.38 H 10.9625 A 4.189,4.219 0 0 1 6.7925002,10.133 4.189,4.219 0 0 1 2.7475001,6.9930002 l -0.632,0.16 A 4.8400001,4.8760001 0 0 0 6.7925002,10.79 4.8400001,4.8760001 0 0 0 11.6325,5.9130002 a 4.8400001,4.8760001 0 0 0 -0.016,-0.33 H 2.6195001 a 4.189,4.219 0 0 1 4.1740001,-3.889 4.189,4.219 0 0 1 4.0479998,3.155 l 0.629,-0.167 a 4.8400001,4.8760001 0 0 0 -4.6769998,-3.645 z"
       style="opacity:0.2;filter:url(#b-6-3)"
       inkscape:connector-curvature="0" />
    <path
       id="path33-1"
       d="m 6.7592436,1.3126635 a 4.4661496,4.4993688 0 0 0 -4.4679955,4.4984459 4.4661496,4.4993688 0 0 0 0.01846,0.3506483 H 10.606227 A 3.8654338,3.8931167 0 0 1 6.7583257,9.7051487 3.8654338,3.8931167 0 0 1 3.0257691,6.8076883 L 2.4425861,6.9553296 A 4.4661496,4.4993688 0 0 0 6.7583207,10.3114 4.4661496,4.4993688 0 0 0 11.22447,5.8111094 4.4661496,4.4993688 0 0 0 11.209706,5.5065992 H 2.9076511 A 3.8654338,3.8931167 0 0 1 6.7592436,1.9189156 3.8654338,3.8931167 0 0 1 10.494568,4.8292949 L 11.074984,4.6751943 A 4.4661496,4.4993688 0 0 0 6.7592436,1.3126635 Z"
       style="fill:url(#linearGradient891);stroke-width:0.9227581"
       inkscape:connector-curvature="0" />
    <path
       transform="matrix(0.92275814,0,0,0.92275814,0.49048537,0.4904858)"
       id="path35-2"
       d="m 6.8175002,-0.18699979 a 6.0590001,6.1040001 0 0 0 -2.3560001,0.48 l 10e-4,0.002 a 6.1000001,6.1000001 0 0 0 -0.556,0.26400003 l -0.007,-0.007 -0.638,-0.63800003 A 6.9700001,6.9700001 0 0 0 0.79650011,2.3780002 l 0.45499999,0.455 0.19,0.19 a 6.1000001,6.1000001 0 0 0 -0.47699999,1.148 H 0.05050009 a 6.9710001,6.9710001 0 0 0 -0.226,1.743 6.9800001,6.9800001 0 0 0 0.231,1.7430001 h 0.91100002 a 6.1000001,6.1000001 0 0 0 0.47499999,1.147 l -0.19,0.19 -0.45499999,0.455 A 6.9730001,6.9730001 0 0 0 3.2615001,11.914 l 0.455,-0.454 0.19,-0.19 a 6.1000001,6.1000001 0 0 0 1.148,0.476 v 0.914 c 0.569,0.148 1.1540001,0.225 1.7430001,0.227 a 6.9960001,6.9960001 0 0 0 1.743,-0.227 v -0.914 a 6.1000001,6.1000001 0 0 0 1.147,-0.477 l 0.19,0.19 0.4549998,0.455 a 6.9720001,6.9720001 0 0 0 2.465,-2.4649997 l -0.455,-0.454 -0.19,-0.19 a 6.1000001,6.1000001 0 0 0 0.316,-0.703 l 0.009,-0.016 a 6.0590001,6.1040001 0 0 0 0.398,-2.1700001 6.0590001,6.1040001 0 0 0 -6.0589998,-6.10299999 z m -0.02,0.627 a 5.4340001,5.4740001 0 0 1 0.543,0.027 5.4340001,5.4740001 0 0 1 0.537,0.082 5.4340001,5.4740001 0 0 1 0.526,0.136 5.4340001,5.4740001 0 0 1 0.51,0.187 5.4340001,5.4740001 0 0 1 0.49,0.23799999 5.4340001,5.4740001 0 0 1 0.462,0.286 5.4340001,5.4740001 0 0 1 0.4329998,0.332 5.4340001,5.4740001 0 0 1 0.397,0.373 5.4340001,5.4740001 0 0 1 0.358,0.41 5.4340001,5.4740001 0 0 1 0.316,0.446 5.4340001,5.4740001 0 0 1 0.27,0.474 5.4340001,5.4740001 0 0 1 0.222,0.5 5.4340001,5.4740001 0 0 1 0.171,0.52 5.4340001,5.4740001 0 0 1 0.12,0.533 5.4340001,5.4740001 0 0 1 0.064,0.543 5.4340001,5.4740001 0 0 1 0.014,0.386 5.4340001,5.4740001 0 0 1 -0.027,0.547 5.4340001,5.4740001 0 0 1 -0.081,0.54 5.4340001,5.4740001 0 0 1 -0.134,0.53 5.4340001,5.4740001 0 0 1 -0.028,0.077 5.4340001,5.4740001 0 0 1 -0.03,0.082 5.4430001,5.4430001 0 0 1 -0.09,0.247 5.4340001,5.4740001 0 0 1 -0.039,0.109 5.4340001,5.4740001 0 0 1 -0.129,0.27 5.4430001,5.4430001 0 0 1 -0.033,0.069 5.4340001,5.4740001 0 0 1 -0.074,0.153 5.4340001,5.4740001 0 0 1 -0.283,0.467 5.4340001,5.4740001 0 0 1 -0.049,0.064 l 0.053,0.053 0.59,0.5899998 0.002,0.002 c -0.364,0.487 -0.795,0.92 -1.281,1.284 l -0.004,-0.003 -0.59,-0.59 -0.046,-0.046 a 5.4340001,5.4740001 0 0 1 -0.224,0.162 5.4340001,5.4740001 0 0 1 -0.47,0.272 5.4340001,5.4740001 0 0 1 -0.497,0.223 5.4340001,5.4740001 0 0 1 -0.515,0.173 5.4340001,5.4740001 0 0 1 -0.53,0.12 5.4340001,5.4740001 0 0 1 -0.018,0.002 v 0.886 c -0.3,0.044 -0.603,0.067 -0.907,0.067 A 6.3500001,6.3500001 0 0 1 5.8895001,12.197 v -0.892 a 5.4340001,5.4740001 0 0 1 -0.171,-0.026 5.4340001,5.4740001 0 0 1 -0.527,-0.135 5.4340001,5.4740001 0 0 1 -0.51,-0.188 5.4340001,5.4740001 0 0 1 -0.49,-0.238 5.4340001,5.4740001 0 0 1 -0.462,-0.286 5.4340001,5.4740001 0 0 1 -0.096,-0.072 l -0.044,0.043 -0.59,0.59 -0.003,0.004 a 6.3430001,6.3430001 0 0 1 -1.281,-1.285 V 9.71 l 0.591,-0.5899998 0.055,-0.054 a 5.4340001,5.4740001 0 0 1 -0.137,-0.194 5.4340001,5.4740001 0 0 1 -0.153,-0.268 5.4340001,5.4740001 0 0 1 -0.117,-0.206 5.4340001,5.4740001 0 0 1 -0.095,-0.212 5.4430001,5.4430001 0 0 1 -0.063,-0.143 5.4340001,5.4740001 0 0 1 -0.064,-0.144 5.4340001,5.4740001 0 0 1 -0.047,-0.141 5.4430001,5.4430001 0 0 1 -0.1,-0.3020001 5.4340001,5.4740001 0 0 1 -0.025,-0.077 5.4340001,5.4740001 0 0 1 -0.017,-0.079 5.4430001,5.4430001 0 0 1 -10e-4,-0.003 5.4430001,5.4430001 0 0 1 -0.11,-0.476 H 0.51550011 a 6.3700001,6.3700001 0 0 1 -0.07,-0.907 c 0,-0.304 0.024,-0.607 0.067,-0.907 H 1.4355001 a 5.4430001,5.4430001 0 0 1 0.025,-0.113 5.4340001,5.4740001 0 0 1 0.01,-0.068 5.4340001,5.4740001 0 0 1 0.038,-0.147 5.4430001,5.4430001 0 0 1 0.073,-0.292 5.4340001,5.4740001 0 0 1 0.024,-0.091 5.4340001,5.4740001 0 0 1 0.073,-0.201 5.4430001,5.4430001 0 0 1 0.069,-0.192 5.4340001,5.4740001 0 0 1 0.044,-0.121 5.4340001,5.4740001 0 0 1 0.126,-0.265 5.4430001,5.4430001 0 0 1 0.038,-0.079 5.4340001,5.4740001 0 0 1 0.071,-0.149 5.4340001,5.4740001 0 0 1 0.284,-0.466 5.4340001,5.4740001 0 0 1 0.048,-0.064 l -0.053,-0.052 -0.59,-0.59 -0.003,-0.003 a 6.3500001,6.3500001 0 0 1 1.285,-1.28199999 v 0.002 l 0.591,0.58999999 0.046,0.046 a 5.4340001,5.4740001 0 0 1 0.225,-0.163 5.4340001,5.4740001 0 0 1 0.471,-0.272 5.4340001,5.4740001 0 0 1 0.496,-0.22299999 5.4340001,5.4740001 0 0 1 0.123,-0.042 5.4340001,5.4740001 0 0 1 0.392,-0.13 5.4340001,5.4740001 0 0 1 0.127,-0.03 5.4340001,5.4740001 0 0 1 0.004,0 5.4340001,5.4740001 0 0 1 0.4,-0.09 5.4340001,5.4740001 0 0 1 0.114,-0.015 5.4340001,5.4740001 0 0 1 0.072,-0.008 5.4340001,5.4740001 0 0 1 0.3530001,-0.043 5.4340001,5.4740001 0 0 1 0.124,-0.005 5.4340001,5.4740001 0 0 1 0.044,-0.002 5.4340001,5.4740001 0 0 1 0.217,-0.007 z"
       style="opacity:0.2;filter:url(#d-3)"
       inkscape:connector-curvature="0" />
    <path
       transform="matrix(0.92275814,0,0,0.92275814,0.49048537,0.4904858)"
       id="path39-7"
       d="m 6.7935002,2.4830002 a 3.406,3.43 0 0 0 -3.4070001,3.43 3.406,3.43 0 0 0 3.4070001,3.4320001 3.406,3.43 0 0 0 2.41,-1.01 l -0.509,-0.507 a 2.69,2.71 0 0 1 -1.901,0.796 2.69,2.71 0 0 1 -2.6920001,-2.7100001 2.69,2.71 0 0 1 2.6920001,-2.71 2.69,2.71 0 0 1 1.915,0.807 l 0.506,-0.506 a 3.406,3.43 0 0 0 -2.421,-1.022 z"
       style="opacity:0.2;filter:url(#e-6)"
       inkscape:connector-curvature="0" />
    <path
       inkscape:connector-curvature="0"
       transform="scale(0.26458333)"
       id="path889"
       d="m 17.142578,30.414062 a 11.878731,11.962433 0 0 0 8.404297,3.515626 11.878731,11.962433 0 0 0 8.404297,-3.515626 l -1.775391,-1.771484 a 9.3816166,9.4513689 0 0 1 -6.628906,2.775391 9.3816166,9.4513689 0 0 1 -6.636719,-2.771485 z"
       style="fill:#1a1a1a;stroke-width:3.4875896" />
    <path
       inkscape:connector-curvature="0"
       transform="scale(0.26458333)"
       id="path41-0"
       d="m 17.142578,30.414062 1.767578,-1.767578 a 9.3816166,9.4513689 0 0 1 -2.751953,-6.679687 9.3816166,9.4513689 0 0 1 9.388672,-9.451172 9.3816166,9.4513689 0 0 1 6.677734,2.814453 l 1.765625,-1.765625 a 11.878731,11.962433 0 0 0 -8.443359,-3.560547 11.878731,11.962433 0 0 0 -11.882813,11.962891 11.878731,11.962433 0 0 0 3.478516,8.447265 z"
       style="fill:#f9f9f9;stroke-width:3.4875896" />
    <path
       inkscape:connector-curvature="0"
       style="fill:#1a1a1a;stroke-width:0.9227581"
       d="M 6.776776,0.18320754 A 5.5909917,5.6325155 0 0 0 4.60368,0.6252087 l 9.32e-4,0.001846 A 5.6288246,5.6288246 0 0 0 4.0915501,0.87066235 l -0.0065,-0.00646 -0.58872,-0.58871937 A 6.4316242,6.4316242 0 0 0 1.2217321,2.5491594 l 0.419855,0.419855 0.175324,0.1753239 A 5.6288246,5.6288246 0 0 0 1.3767551,4.2036648 H 0.53335437 a 6.4325471,6.4325471 0 0 0 -0.208543,1.6083675 6.440852,6.440852 0 0 0 0.213157,1.6083673 H 1.3786011 a 5.6288246,5.6288246 0 0 0 0.43831,1.0584036 l -0.175324,0.1753242 -0.419855,0.419855 a 6.4343926,6.4343926 0 0 0 2.274599,2.2745976 l 0.419855,-0.418932 0.175324,-0.175324 a 5.6288246,5.6288246 0 0 0 1.0584029,0.439234 v 0.8434 c 0.525972,0.137492 1.0657859,0.207621 1.6083677,0.209466 a 6.4556161,6.4556161 0 0 0 1.6092901,-0.209466 v -0.8434 a 5.6288246,5.6288246 0 0 0 1.0584036,-0.440156 l 0.175324,0.175324 0.4198556,0.419854 A 6.4334698,6.4334698 0 0 0 12.295792,9.0739824 L 11.875938,8.65505 11.700614,8.4797261 a 5.6288246,5.6288246 0 0 0 0.29159,-0.648699 l 0.0084,-0.014763 A 5.5909917,5.6325155 0 0 0 12.367768,5.8138777 5.5909917,5.6325155 0 0 0 6.776776,0.18320754 Z M 6.759244,0.76085412 a 5.0142679,5.051178 0 0 1 0.5010574,0.0249144 5.0142679,5.051178 0 0 1 0.4955211,0.0756662 5.0142679,5.051178 0 0 1 0.485371,0.12549515 5.0142679,5.051178 0 0 1 0.4706066,0.17255583 5.0142679,5.051178 0 0 1 0.4512288,0.2205392 5.0142679,5.051178 0 0 1 0.4272369,0.2629861 5.0142679,5.051178 0 0 1 0.3995543,0.3063556 5.0142679,5.051178 0 0 1 0.3663339,0.3441888 5.0142679,5.051178 0 0 1 0.330348,0.3783307 5.0142679,5.051178 0 0 1 0.291592,0.4115504 5.0142679,5.051178 0 0 1 0.249144,0.4373874 5.0142679,5.051178 0 0 1 0.204852,0.4613788 5.0142679,5.051178 0 0 1 0.157793,0.4798344 5.0142679,5.051178 0 0 1 0.110731,0.4918301 5.0142679,5.051178 0 0 1 0.05906,0.5010575 5.0142679,5.051178 0 0 1 0.01292,0.3561847 5.0142679,5.051178 0 0 1 -0.02492,0.5047489 5.0142679,5.051178 0 0 1 -0.07474,0.4982895 5.0142679,5.051178 0 0 1 -0.12365,0.4899843 5.0142679,5.051178 0 0 1 -0.02584,0.07013 5.0142679,5.051178 0 0 1 -0.02768,0.075666 5.0225727,5.0225727 0 0 1 -0.08304,0.2279213 5.0142679,5.051178 0 0 1 -0.03598,0.1015034 5.0142679,5.051178 0 0 1 -0.119035,0.2472993 5.0225727,5.0225727 0 0 1 -0.03045,0.064593 5.0142679,5.051178 0 0 1 -0.06828,0.1421047 5.0142679,5.051178 0 0 1 -0.261141,0.4300053 5.0142679,5.051178 0 0 1 -0.04614,0.059056 l 0.04983,0.048906 0.544428,0.544427 0.0018,0.00184 c -0.335884,0.4493831 -0.733593,0.8489369 -1.182053,1.1848209 l -0.0036,-0.0028 L 9.71763,9.9551968 9.675183,9.9127538 a 5.0142679,5.051178 0 0 1 -0.2066973,0.1494872 5.0142679,5.051178 0 0 1 -0.4346195,0.250989 5.0142679,5.051178 0 0 1 -0.4576881,0.205776 5.0142679,5.051178 0 0 1 -0.4752202,0.16056 5.0142679,5.051178 0 0 1 -0.4890619,0.110731 5.0142679,5.051178 0 0 1 -0.01661,0.0018 v 0.816641 c -0.2768276,0.0406 -0.5564233,0.06182 -0.8369418,0.06182 a 5.8595142,5.8595142 0 0 1 -0.8369415,-0.0609 v -0.8231 A 5.0142679,5.051178 0 0 1 5.763611,10.762588 5.0142679,5.051178 0 0 1 5.277317,10.638014 5.0142679,5.051178 0 0 1 4.806711,10.465459 5.0142679,5.051178 0 0 1 4.35456,10.24492 5.0142679,5.051178 0 0 1 3.9273221,9.9819338 5.0142679,5.051178 0 0 1 3.8396621,9.9145728 l -0.0406,0.040601 -0.544427,0.5444272 -0.0028,0.0028 A 5.853055,5.853055 0 0 1 2.0697511,9.3166675 v -9.228e-4 l 0.54535,-0.5444275 0.05075,-0.050752 A 5.0142679,5.051178 0 0 1 2.5394321,8.5415508 5.0142679,5.051178 0 0 1 2.3982501,8.2942517 5.0142679,5.051178 0 0 1 2.2893651,8.1041634 a 5.0142679,5.051178 0 0 1 -0.08674,-0.1956248 5.0225727,5.0225727 0 0 1 -0.05813,-0.1310317 5.0142679,5.051178 0 0 1 -0.05906,-0.1337998 5.0142679,5.051178 0 0 1 -0.04337,-0.1301087 5.0225727,5.0225727 0 0 1 -0.09228,-0.2777503 5.0142679,5.051178 0 0 1 -0.02307,-0.071052 5.0142679,5.051178 0 0 1 -0.01569,-0.073821 5.0225727,5.0225727 0 0 1 -9.23e-4,-0.00277 5.0225727,5.0225727 0 0 1 -0.102426,-0.4392328 H 0.96335207 a 5.8779695,5.8779695 0 0 1 -0.06459,-0.8369415 c 0,-0.2805186 0.02122,-0.5601144 0.06183,-0.8369417 H 1.8113751 a 5.0225727,5.0225727 0 0 1 0.02307,-0.1042719 5.0142679,5.051178 0 0 1 0.0092,-0.062748 5.0142679,5.051178 0 0 1 0.03414,-0.1356456 5.0225727,5.0225727 0 0 1 0.06828,-0.2694453 5.0142679,5.051178 0 0 1 0.02215,-0.083971 5.0142679,5.051178 0 0 1 0.06644,-0.1854746 5.0225727,5.0225727 0 0 1 0.06459,-0.1771695 5.0142679,5.051178 0 0 1 0.0406,-0.1116538 5.0142679,5.051178 0 0 1 0.11719,-0.2445309 5.0225727,5.0225727 0 0 1 0.03414,-0.072898 5.0142679,5.051178 0 0 1 0.06644,-0.1374908 5.0142679,5.051178 0 0 1 0.262064,-0.4300053 5.0142679,5.051178 0 0 1 0.04429,-0.059057 l -0.0489,-0.047982 -0.544427,-0.5444273 -0.0028,-0.00277 A 5.8595142,5.8595142 0 0 1 3.2535881,1.123498 v 9.228e-4 l 0.544428,0.5444273 0.04245,0.042446 A 5.0142679,5.051178 0 0 1 4.0490101,1.5618081 5.0142679,5.051178 0 0 1 4.483629,1.3098952 5.0142679,5.051178 0 0 1 4.941317,1.1041201 5.0142679,5.051178 0 0 1 5.054816,1.0662871 5.0142679,5.051178 0 0 1 5.416538,0.94448298 a 5.0142679,5.051178 0 0 1 0.11719,-0.0258372 5.0142679,5.051178 0 0 1 0.0037,-9.2275e-4 5.0142679,5.051178 0 0 1 0.3691032,-0.0830482 5.0142679,5.051178 0 0 1 0.1051944,-0.0129185 5.0142679,5.051178 0 0 1 0.066438,-0.009228 5.0142679,5.051178 0 0 1 0.324811,-0.0387558 5.0142679,5.051178 0 0 1 0.1153448,-0.004614 5.0142679,5.051178 0 0 1 0.040602,-9.2276e-4 5.0142679,5.051178 0 0 1 0.2002385,-0.007382 z"
       id="path842-9" />
  </g>
</svg>
