<?xml version="1.0" encoding="UTF-8" standalone="no"?>
<svg
   xmlns:dc="http://purl.org/dc/elements/1.1/"
   xmlns:cc="http://creativecommons.org/ns#"
   xmlns:rdf="http://www.w3.org/1999/02/22-rdf-syntax-ns#"
   xmlns:svg="http://www.w3.org/2000/svg"
   xmlns="http://www.w3.org/2000/svg"
   xmlns:sodipodi="http://sodipodi.sourceforge.net/DTD/sodipodi-0.dtd"
   xmlns:inkscape="http://www.inkscape.org/namespaces/inkscape"
   id="svg4306"
   width="22"
   height="22"
   version="1.1"
   style="enable-background:new"
   sodipodi:docname="shade.svg"
   inkscape:version="0.92.4 (5da689c313, 2019-01-14)">
  <metadata
     id="metadata24">
    <rdf:RDF>
      <cc:Work
         rdf:about="">
        <dc:format>image/svg+xml</dc:format>
        <dc:type
           rdf:resource="http://purl.org/dc/dcmitype/StillImage" />
        <dc:title />
      </cc:Work>
    </rdf:RDF>
  </metadata>
  <defs
     id="defs22" />
  <sodipodi:namedview
     pagecolor="#ffffff"
     bordercolor="#666666"
     borderopacity="1"
     objecttolerance="10"
     gridtolerance="10"
     guidetolerance="10"
     inkscape:pageopacity="0"
     inkscape:pageshadow="2"
     inkscape:window-width="1366"
     inkscape:window-height="703"
     id="namedview20"
     showgrid="true"
     inkscape:zoom="1.4744319"
     inkscape:cx="-104.4912"
     inkscape:cy="11"
     inkscape:window-x="0"
     inkscape:window-y="0"
     inkscape:window-maximized="1"
     inkscape:current-layer="svg4306"
     showguides="true"
     inkscape:guide-bbox="true">
    <inkscape:grid
       type="xygrid"
       id="grid945" />
    <sodipodi:guide
       position="22,18"
       orientation="0,1"
       id="guide829"
       inkscape:locked="false" />
    <sodipodi:guide
       position="3,18"
       orientation="1,0"
       id="guide831"
       inkscape:locked="false" />
    <sodipodi:guide
       position="3,4"
       orientation="0,1"
       id="guide833"
       inkscape:locked="false" />
    <sodipodi:guide
       position="19,18"
       orientation="1,0"
       id="guide835"
       inkscape:locked="false" />
  </sodipodi:namedview>
  <g
     id="hover-center"
     inkscape:label="#g837"
     style="fill:#2ca02c;fill-opacity:1">
    <path
       id="path833"
       d="M 11,0.04296875 C 4.9484238,0.04296875 0.04296875,4.948264 0.04296875,11 0.04296875,17.05171 4.9484238,21.957031 11,21.957031 17.051809,21.957031 21.957031,17.05171 21.957031,11 21.957031,4.948264 17.051809,0.04296875 11,0.04296875 Z M 9.7890625,7 h 2.4218755 v 8 H 9.7890625 V 7.5 Z"
       style="fill:#2ca02c;fill-opacity:1;fill-rule:evenodd;stroke:none;stroke-width:0.02563604;enable-background:new"
       inkscape:connector-curvature="0" />
  </g>
  <g
     style="fill:#2ca02c;fill-opacity:1;enable-background:new"
     id="pressed-center"
     transform="translate(22)">
    <path
       id="path896-5"
       d="M 11,0.04296875 C 4.9482896,0.04296875 0.04296875,4.9484238 0.04296875,11 0.04296875,17.051809 4.9482896,21.957031 11,21.957031 17.051736,21.957031 21.957031,17.051809 21.957031,11 21.957031,4.9484238 17.051736,0.04296875 11,0.04296875 Z"
       style="opacity:0;fill:#2ca02c;fill-opacity:1;fill-rule:evenodd;stroke:none;stroke-width:0.02563604;enable-background:new"
       inkscape:connector-curvature="0" />
    <path
       id="path869-6-3"
       d="m 3,9.7890625 h 15 1 V 12.210938 H 3 Z"
       style="fill:#2ca02c;fill-opacity:1;fill-rule:evenodd;stroke:none;stroke-width:0.02563604;enable-background:new"
       inkscape:connector-curvature="0" />
  </g>
  <g
     id="active-center"
     inkscape:label="#g864"
     transform="translate(-22)">
    <path
       id="path860"
       d="M 11,0.04296875 C 4.9484238,0.04296875 0.04296875,4.948264 0.04296875,11 0.04296875,17.05171 4.9484238,21.957031 11,21.957031 17.051809,21.957031 21.957031,17.05171 21.957031,11 21.957031,4.948264 17.051809,0.04296875 11,0.04296875 Z"
       style="opacity:0;fill:#2c89a0;fill-opacity:0;fill-rule:evenodd;stroke:none;stroke-width:0.02563604;enable-background:new"
       inkscape:connector-curvature="0" />
    <path
       id="path833-6"
       d="m 9.7890625,7 h 2.4218755 v 8 H 9.7890625 V 7.5 Z"
       style="fill:#ebebeb;fill-opacity:1;fill-rule:evenodd;stroke:none;stroke-width:0.02563604;enable-background:new"
       inkscape:connector-curvature="0" />
  </g>
  <g
     style="fill:#333333;fill-opacity:1;enable-background:new"
     id="inactive-center"
     inkscape:label="#g864"
     transform="translate(44)">
    <path
       id="path860-5"
       d="M 11,0.04296875 C 4.9484238,0.04296875 0.04296875,4.948264 0.04296875,11 0.04296875,17.05171 4.9484238,21.957031 11,21.957031 17.051809,21.957031 21.957031,17.05171 21.957031,11 21.957031,4.948264 17.051809,0.04296875 11,0.04296875 Z"
       style="opacity:0;fill:#333333;fill-opacity:1;fill-rule:evenodd;stroke:none;stroke-width:0.02563604;enable-background:new"
       inkscape:connector-curvature="0" />
    <path
       id="path833-6-3"
       d="m 9.7890625,7 h 2.4218755 v 8 H 9.7890625 V 7.5 Z"
       style="fill:#333333;fill-opacity:1;fill-rule:evenodd;stroke:none;stroke-width:0.02563604;enable-background:new"
       inkscape:connector-curvature="0" />
  </g>
  <g
     style="fill:#333333;fill-opacity:1;enable-background:new"
     id="deactivated-center"
     inkscape:label="#g864"
     transform="translate(66)">
    <path
       id="path860-6"
       d="M 11,0.04296875 C 4.9484238,0.04296875 0.04296875,4.948264 0.04296875,11 0.04296875,17.05171 4.9484238,21.957031 11,21.957031 17.051809,21.957031 21.957031,17.05171 21.957031,11 21.957031,4.948264 17.051809,0.04296875 11,0.04296875 Z"
       style="opacity:0;fill:#333333;fill-opacity:1;fill-rule:evenodd;stroke:none;stroke-width:0.02563604;enable-background:new"
       inkscape:connector-curvature="0" />
    <path
       id="path833-6-2"
       d="m 9.7890625,7 h 2.4218755 v 8 H 9.7890625 V 7.5 Z"
       style="fill:#333333;fill-opacity:1;fill-rule:evenodd;stroke:none;stroke-width:0.02563604;enable-background:new"
       inkscape:connector-curvature="0" />
  </g>
</svg>
