/* XPM */
static char * close_inactive_xpm[] = {
"32 32 30 1",
" 	c None",
".	c #40A599",
"+	c #2B9B8E",
"@	c #2C897E",
"#	c #30605A",
"$	c #314442",
"%	c #333837",
"&	c #30605B",
"*	c #2D897E",
"=	c #2B988B",
"-	c #305E58",
";	c #333434",
">	c #333333",
",	c #305F5A",
"'	c #2B988C",
")	c #314E4A",
"!	c #314E4B",
"~	c #305D58",
"{	c #2F5F59",
"]	c #2D8A7F",
"^	c #2F615B",
"/	c #324542",
"(	c #314542",
"_	c #333838",
":	c #323837",
"<	c #323938",
"[	c #2C897F",
"}	c #314F4B",
"|	c #304E4B",
"1	c #2B998C",
"................................",
"++++++++++++++++++++++++++++++++",
"++++++++++++++++++++++++++++++++",
"++++++++++++++++++++++++++++++++",
"++++++++++++++++++++++++++++++++",
"++++++++++++++++++++++++++++++++",
"++++++++++++++++++++++++++++++++",
"++++++++++++++++++++++++++++++++",
"++++++++++++@#$%%$&*++++++++++++",
"++++++++++=-;>>>>>>;,'++++++++++",
"+++++++++=)>>>>>>>>>>!'+++++++++",
"+++++++++~>>>>>>>>>>>>{+++++++++",
"++++++++@;>>>>>>>>>>>>;]++++++++",
"++++++++#>>>>>>>>>>>>>>^++++++++",
"++++++++/>>>>>>>>>>>>>>(++++++++",
"++++++++_>>>>>>>>>>>>>>:++++++++",
"++++++++:>>>>>>>>>>>>>><++++++++",
"++++++++/>>>>>>>>>>>>>>(++++++++",
"++++++++&>>>>>>>>>>>>>>^++++++++",
"++++++++*;>>>>>>>>>>>>;[++++++++",
"+++++++++,>>>>>>>>>>>>#+++++++++",
"+++++++++'}>>>>>>>>>>|1+++++++++",
"++++++++++'{;>>>>>>;#1++++++++++",
"++++++++++++]^(__(^[++++++++++++",
"++++++++++++++++++++++++++++++++",
"++++++++++++++++++++++++++++++++",
"++++++++++++++++++++++++++++++++",
"++++++++++++++++++++++++++++++++",
"++++++++++++++++++++++++++++++++",
"++++++++++++++++++++++++++++++++",
"++++++++++++++++++++++++++++++++",
"++++++++++++++++++++++++++++++++"};
