/* XPM */
static char * maximize_active_xpm[] = {
"32 32 30 1",
" 	c None",
".	c #40A599",
"+	c #2B9B8E",
"@	c #33AA9C",
"#	c #47CABA",
"$	c #53E0CF",
"%	c #59EBD9",
"&	c #46C9BA",
"*	c #34A99B",
"=	c #2C9E90",
"-	c #48CCBB",
";	c #5AEDDB",
">	c #5BEEDC",
",	c #5BEDDB",
"'	c #47CBBC",
")	c #2C9D90",
"!	c #4FD9C8",
"~	c #4ED8C8",
"{	c #48CCBC",
"]	c #46CBBB",
"^	c #33A99B",
"/	c #46CABA",
"(	c #53E1CF",
"_	c #52E0CE",
":	c #59EAD9",
"<	c #58EAD8",
"[	c #45C9B9",
"}	c #33A89B",
"|	c #4ED8C7",
"1	c #2C9D8F",
"................................",
"++++++++++++++++++++++++++++++++",
"++++++++++++++++++++++++++++++++",
"++++++++++++++++++++++++++++++++",
"++++++++++++++++++++++++++++++++",
"++++++++++++++++++++++++++++++++",
"++++++++++++++++++++++++++++++++",
"++++++++++++++++++++++++++++++++",
"++++++++++++@#$%%$&*++++++++++++",
"++++++++++=-;>>>>>>,')++++++++++",
"+++++++++=!>>>>>>>>>>~)+++++++++",
"+++++++++{>>>>>>>>>>>>]+++++++++",
"++++++++@;>>>>>>>>>>>>,^++++++++",
"++++++++#>>>>>>>>>>>>>>/++++++++",
"++++++++(>>>>>>>>>>>>>>_++++++++",
"++++++++:>>>>>>>>>>>>>><++++++++",
"++++++++<>>>>>>>>>>>>>><++++++++",
"++++++++(>>>>>>>>>>>>>>_++++++++",
"++++++++&>>>>>>>>>>>>>>[++++++++",
"++++++++*,>>>>>>>>>>>>,}++++++++",
"+++++++++'>>>>>>>>>>>>#+++++++++",
"+++++++++)|>>>>>>>>>>|1+++++++++",
"++++++++++)],>>>>>>,#1++++++++++",
"++++++++++++^/_::_[}++++++++++++",
"++++++++++++++++++++++++++++++++",
"++++++++++++++++++++++++++++++++",
"++++++++++++++++++++++++++++++++",
"++++++++++++++++++++++++++++++++",
"++++++++++++++++++++++++++++++++",
"++++++++++++++++++++++++++++++++",
"++++++++++++++++++++++++++++++++",
"++++++++++++++++++++++++++++++++"};
