<?xml version="1.0" encoding="UTF-8" standalone="no"?>
<svg
   xmlns:dc="http://purl.org/dc/elements/1.1/"
   xmlns:cc="http://creativecommons.org/ns#"
   xmlns:rdf="http://www.w3.org/1999/02/22-rdf-syntax-ns#"
   xmlns:svg="http://www.w3.org/2000/svg"
   xmlns="http://www.w3.org/2000/svg"
   xmlns:xlink="http://www.w3.org/1999/xlink"
   xmlns:sodipodi="http://sodipodi.sourceforge.net/DTD/sodipodi-0.dtd"
   xmlns:inkscape="http://www.inkscape.org/namespaces/inkscape"
   viewBox="0 0 22 22"
   id="svg"
   version="1.1"
   inkscape:version="0.92.4 (5da689c313, 2019-01-14)"
   width="100%"
   height="100%"
   sodipodi:docname="notification.svg">
  <defs
     id="defs81">
    <style
       type="text/css"
       id="current-color-scheme">
      .ColorScheme-Text {
        color:#00ff00;
      }
      .ColorScheme-Background {
        color:#ff0000;
      }
      .ColorScheme-Highlight {
        color:#0000ff;
      }
      .ColorScheme-ButtonHover {
        color:#ffff00;
      }
      .ColorScheme-ButtonFocus{
        color:#ff00ff;
      }
      .ColorScheme-NegativeText {
        color:#00ffff;
      }
  </style>
    <linearGradient
       inkscape:collect="always"
       xlink:href="#linearGradient4254"
       id="linearGradient5399"
       gradientUnits="userSpaceOnUse"
       x1="317.91653"
       y1="909.77173"
       x2="317.91653"
       y2="912.77173" />
    <linearGradient
       id="linearGradient4254">
      <stop
         id="stop4256"
         offset="0"
         style="stop-color:#888888;stop-opacity:1;" />
      <stop
         id="stop4258"
         offset="1"
         style="stop-color:#232323;stop-opacity:1;" />
    </linearGradient>
  </defs>
  <metadata
     id="metadata34">
    <rdf:RDF>
      <cc:Work
         rdf:about="">
        <dc:format>image/svg+xml</dc:format>
        <dc:type
           rdf:resource="http://purl.org/dc/dcmitype/StillImage" />
        <dc:title></dc:title>
      </cc:Work>
    </rdf:RDF>
  </metadata>
  <sodipodi:namedview
     pagecolor="#ffffff"
     bordercolor="#666666"
     borderopacity="1"
     objecttolerance="10"
     gridtolerance="10"
     guidetolerance="10"
     inkscape:pageopacity="1"
     inkscape:pageshadow="2"
     inkscape:window-width="1366"
     inkscape:window-height="708"
     id="namedview32"
     showgrid="true"
     inkscape:zoom="2.9261364"
     inkscape:cx="8.0097087"
     inkscape:cy="11"
     inkscape:window-x="0"
     inkscape:window-y="0"
     inkscape:window-maximized="1"
     inkscape:current-layer="svg"
     borderlayer="true"
     showguides="true"
     inkscape:guide-bbox="true"
     inkscape:snap-bbox="true">
    <inkscape:grid
       type="xygrid"
       id="grid3046"
       empspacing="4"
       visible="true"
       enabled="false"
       snapvisiblegridlinesonly="true"
       color="#0000ff"
       opacity="0.05490196"
       empcolor="#0000ff"
       empopacity="0.11372549" />
  </sodipodi:namedview>
  <path
     class="ColorScheme-Highlight"
     inkscape:connector-curvature="0"
     style="fill:currentColor;fill-opacity:1"
     d="m -18,23 2,-2 2,2 z"
     id="expander-bottom"
     sodipodi:nodetypes="cccc" />
  <path
     class="ColorScheme-Highlight"
     inkscape:connector-curvature="0"
     sodipodi:nodetypes="cccc"
     id="expander-top"
     d="m -18,17 2,2 2,-2 z"
     style="fill:currentColor;fill-opacity:1" />
  <path
     class="ColorScheme-Highlight"
     inkscape:connector-curvature="0"
     style="fill:currentColor;fill-opacity:1"
     d="m -13,18 -2,2 2,2 z"
     id="expander-right"
     sodipodi:nodetypes="cccc" />
  <path
     class="ColorScheme-Highlight"
     inkscape:connector-curvature="0"
     sodipodi:nodetypes="cccc"
     id="expander-left"
     d="m -19,18 2,2 -2,2 z"
     style="fill:currentColor;fill-opacity:1" />
  <g
     id="notification-inactive"
     transform="translate(-22)">
    <rect
       style="opacity:1;fill:none;fill-opacity:1;stroke:none"
       id="rect4400-4"
       width="22"
       height="22"
       x="22"
       y="0" />
    <path
       id="path2-93"
       class="ColorScheme-Highlight"
       d="m 33.000001,2.968332 a 8.0335839,8.0335839 0 0 0 -8.033584,8.033582 8.0335839,8.0335839 0 0 0 8.033584,8.03103 8.0335839,8.0335839 0 0 0 8.033586,-8.032308 8.0335839,8.0335839 0 0 0 -8.033586,-8.0335814 z m -0.02299,1.1954587 a 6.905817,6.905817 0 0 1 6.905822,6.9058163 6.905817,6.905817 0 0 1 -6.905813,6.905817 6.905817,6.905817 0 0 1 -6.904542,-6.905817 6.905817,6.905817 0 0 1 6.904542,-6.9045393 z m 1.152034,2.2606426 C 33.316743,6.3810077 32.892709,7.6901381 33.664138,8.0490308 34.28997,8.3057475 34.971989,7.6633166 34.820007,7.0221627 A 0.69607346,0.69607346 0 0 0 34.129041,6.4244333 Z M 33.78038,9.3070716 c -0.130278,-0.010225 -0.282264,0.035761 -0.448296,0.1609276 -0.796974,0.3461209 -1.462396,0.9131998 -2.15847,1.4215218 0.08813,0.236284 0.186472,0.427863 0.395932,0.166035 0.257995,-0.154544 1.127769,-0.830177 1.040919,-0.16859 -0.27843,1.226114 -0.616887,2.439452 -0.87616,3.668113 -0.270766,0.673088 0.344843,1.282317 0.985996,0.844233 0.682026,-0.280979 1.269536,-0.739497 1.869825,-1.159696 -0.08174,-0.200524 -0.136661,-0.489171 -0.362723,-0.226065 -0.296314,0.134109 -0.945129,0.770149 -1.066469,0.246499 0.250333,-1.328287 0.711405,-2.605483 1.006434,-3.922279 0.204355,-0.4546822 0.0051,-0.9974916 -0.386988,-1.0306994 z"
       style="fill:currentColor;fill-opacity:0.94117647;stroke-width:1.27719927"
       inkscape:connector-curvature="0" />
  </g>
  <g
     transform="translate(-19.396946,-3.946566)"
     id="notification-disabled">
    <rect
       style="opacity:1;fill:none;fill-opacity:1;stroke:none"
       id="rect4400-4-6"
       width="22"
       height="22"
       x="19.396946"
       y="-18.053434" />
    <path
       id="path2-93-7"
       class="ColorScheme-Highlight"
       d="m 30.396948,-15.085103 a 8.0335839,8.0335839 0 0 0 -8.033584,8.033582 8.0335839,8.0335839 0 0 0 8.033584,8.03103 8.0335839,8.0335839 0 0 0 8.033586,-8.032308 8.0335839,8.0335839 0 0 0 -8.033586,-8.033581 z m -0.02299,1.195459 a 6.905817,6.905817 0 0 1 6.905822,6.905816 6.905817,6.905817 0 0 1 -6.905813,6.905817 6.905817,6.905817 0 0 1 -6.904542,-6.905817 6.905817,6.905817 0 0 1 6.904542,-6.904539 z m 1.152034,2.260642 c -0.812302,-0.04343 -1.236336,1.265705 -0.464907,1.624598 0.625832,0.2567165 1.307851,-0.385714 1.155869,-1.026868 a 0.69607346,0.69607346 0 0 0 -0.690966,-0.59773 z m -0.348665,2.8826386 c -0.130278,-0.010225 -0.282264,0.035761 -0.448296,0.1609276 -0.796974,0.3461209 -1.462396,0.9131998 -2.15847,1.4215218 0.08813,0.236284 0.186472,0.427863 0.395932,0.166035 0.257995,-0.154544 1.127769,-0.830177 1.040919,-0.16859 -0.27843,1.226114 -0.616887,2.439452 -0.87616,3.668113 -0.270766,0.673088 0.344843,1.282317 0.985996,0.844233 0.682026,-0.280979 1.269536,-0.739497 1.869825,-1.159696 -0.08174,-0.200524 -0.136661,-0.489171 -0.362723,-0.226065 -0.296314,0.134109 -0.945129,0.770149 -1.066469,0.246499 0.250333,-1.328287 0.711405,-2.605483 1.006434,-3.922279 0.204355,-0.4546822 0.0051,-0.9974916 -0.386988,-1.0306994 z"
       style="opacity:0.4;fill:currentColor;fill-opacity:0.94117647;stroke-width:1.27719927"
       inkscape:connector-curvature="0" />
  </g>
  <g
     transform="translate(0.419847,-6.6335878)"
     id="notification-empty">
    <rect
       style="opacity:1;fill:none;fill-opacity:1;stroke:none"
       id="rect4400-4-3"
       width="22"
       height="22"
       x="21.580153"
       y="-15.366412" />
    <path
       inkscape:connector-curvature="0"
       id="path940"
       class="ColorScheme-Highlight"
       d="m 32.580078,-12.398438 a 8.0335839,8.0335839 0 0 0 -8.033203,8.0332036 8.0335839,8.0335839 0 0 0 8.033203,8.03125 8.0335839,8.0335839 0 0 0 8.033203,-8.03125 8.0335839,8.0335839 0 0 0 -8.033203,-8.0332036 z m -0.02344,1.195313 a 6.905817,6.905817 0 0 1 6.90625,6.90625 6.905817,6.905817 0 0 1 -6.90625,6.90625 6.905817,6.905817 0 0 1 -6.904297,-6.90625 6.905817,6.905817 0 0 1 6.904297,-6.904297 z"
       style="fill:currentColor;fill-opacity:0.94117647;stroke-width:1.27719927" />
  </g>
  <g
     id="notification-progress-active"
     transform="translate(-38)">
    <rect
       style="opacity:1;fill:none;fill-opacity:1;stroke:none"
       id="rect4400-4-3-2"
       width="22"
       height="22"
       x="60"
       y="-1.6278076e-07" />
    <path
       id="path995"
       class="ColorScheme-Highlight"
       d="m 70.999925,2.967974 a 8.0335839,8.0335839 0 0 0 -8.033203,8.033204 8.0335839,8.0335839 0 0 0 8.033203,8.03125 8.0335839,8.0335839 0 0 0 8.033203,-8.03125 8.0335839,8.0335839 0 0 0 -8.033203,-8.033204 z"
       style="fill:currentColor;fill-opacity:1;stroke-width:1.27719927"
       inkscape:connector-curvature="0" />
  </g>
  <g
     transform="translate(-23.762863,26.6751)"
     id="notification-progress-inactive">
    <rect
       style="opacity:1;fill:none;fill-opacity:1;stroke:none"
       id="rect4400-4-3-2-2"
       width="22"
       height="22"
       x="45.762863"
       y="-4.6750998" />
    <path
       id="path995-7"
       class="ColorScheme-Highlight"
       d="m 56.762787,-1.7071257 a 8.0335839,8.0335839 0 0 0 -8.033203,8.033204 8.0335839,8.0335839 0 0 0 8.033203,8.0312497 8.0335839,8.0335839 0 0 0 8.033203,-8.0312497 8.0335839,8.0335839 0 0 0 -8.033203,-8.033204 z"
       style="opacity:0.4;fill:currentColor;fill-opacity:1;stroke-width:1.27719927"
       inkscape:connector-curvature="0" />
  </g>
  <g
     id="notification-active">
    <rect
       style="opacity:1;fill:none;fill-opacity:1;stroke:none"
       id="rect4400-4-9"
       width="22"
       height="22"
       x="-3.9501953e-07"
       y="22" />
    <path
       inkscape:connector-curvature="0"
       id="path845"
       class="ColorScheme-Highlight"
       d="m 11,24.966797 v 0.002 A 8.0335839,8.0335839 0 0 0 2.9667969,33.001953 8.0335839,8.0335839 0 0 0 11,41.033203 8.0335839,8.0335839 0 0 0 19.033203,33.001953 8.0335839,8.0335839 0 0 0 11,24.966797 Z m 1.128906,3.458984 a 0.69607346,0.69607346 0 0 1 0.691406,0.597657 c 0.151983,0.641154 -0.530417,1.282106 -1.15625,1.02539 -0.771428,-0.358893 -0.347458,-1.666473 0.464844,-1.623047 z m -0.349609,2.88086 c 0.392088,0.03321 0.593027,0.576568 0.388672,1.03125 -0.295029,1.316796 -0.75748,2.593588 -1.007813,3.921875 0.12134,0.52365 0.770092,-0.111984 1.066406,-0.246094 0.226063,-0.263105 0.281542,0.02604 0.363282,0.226562 -0.600289,0.420199 -1.187115,0.879178 -1.869141,1.160157 -0.641154,0.438084 -1.257094,-0.172615 -0.986328,-0.845703 0.259273,-1.228662 0.59657,-2.441855 0.875,-3.667969 0.08685,-0.661587 -0.7830206,0.01538 -1.0410156,0.169922 -0.20946,0.261828 -0.3064013,0.07027 -0.3945313,-0.166016 0.696074,-0.508322 1.3612289,-1.075754 2.1582029,-1.421875 0.166032,-0.125167 0.316988,-0.172334 0.447266,-0.162109 z"
       style="fill:currentColor;fill-opacity:0.94117647;stroke-width:1.27719927" />
  </g>
  <path
     style="font-style:normal;font-variant:normal;font-weight:normal;font-stretch:normal;font-size:16px;line-height:1.25;font-family:'Abyssinica SIL';-inkscape-font-specification:'Abyssinica SIL';letter-spacing:0px;word-spacing:0px;fill:#ffffff;fill-opacity:1;stroke:none;stroke-width:0.41620618"
     d="m -10.04776,-58.264309 c -0.0522,0 -0.10131,0.0117 -0.14746,0.0351 -0.0461,0.0211 -0.0873,0.0515 -0.12338,0.0913 -0.0341,0.0398 -0.0612,0.0867 -0.0813,0.14054 -0.0201,0.0539 -0.0301,0.11125 -0.0301,0.17215 0,0.0609 0.01,0.11946 0.0301,0.17567 0.0201,0.0539 0.0471,0.10072 0.0813,0.14054 0.0361,0.0398 0.0772,0.0714 0.12338,0.0949 0.0462,0.0234 0.0953,0.0351 0.14746,0.0351 0.0522,0 0.1013196,-0.0117 0.1474596,-0.0351 0.0461,-0.0234 0.0863,-0.055 0.12037,-0.0949 0.0341,-0.0398 0.0602,-0.0867 0.0783,-0.14054 0.0201,-0.0562 0.0301,-0.11477 0.0301,-0.17567 0,-0.0609 -0.01,-0.11828 -0.0301,-0.17215 -0.0181,-0.0539 -0.0441,-0.10072 -0.0783,-0.14054 -0.0341,-0.0398 -0.0742,-0.0703 -0.12037,-0.0913 -0.0461,-0.0234 -0.0953,-0.0351 -0.1474596,-0.0351 z m 12.7264996,0.52701 c -0.21065,0 -0.40526,0.0422 -0.58381,0.12648 -0.17655,0.0843 -0.32902,0.22017 -0.45742,0.40755 -0.12639,0.18738 -0.2257,0.43332 -0.29792,0.73781 -0.0722,0.30215 -0.10834,0.67106 -0.10834,1.10672 0,0.438 0.0371,0.79871 0.11135,1.08212 0.0742,0.28107 0.17353,0.50359 0.29792,0.66754 0.12439,0.16396 0.26783,0.27873 0.43034,0.34432 0.1625,0.0632 0.33203,0.0949 0.50857,0.0949 0.17655,0 0.34808,-0.0304 0.5146,-0.0913 0.16852,-0.0609 0.31699,-0.15459 0.44538,-0.28107 0.1284,-0.12648 0.23172,-0.28693 0.30997,-0.48133 0.0782,-0.19441 0.11736,-0.42512 0.11736,-0.69214 0,-0.17801 -0.0181,-0.33729 -0.0542,-0.47782 -0.0341,-0.14054 -0.0812,-0.26351 -0.14144,-0.36891 -0.0582,-0.10774 -0.12739,-0.19792 -0.20764,-0.27053 -0.0782,-0.075 -0.1615,-0.13585 -0.24978,-0.18269 -0.0883,-0.0469 -0.17855,-0.0808 -0.27084,-0.10189 -0.0923,-0.0211 -0.18056,-0.0316 -0.26482,-0.0316 -0.11034,0 -0.21166,0.0117 -0.30394,0.0351 -0.0923,0.0234 -0.17555,0.055 -0.24978,0.0949 -0.0742,0.0375 -0.13943,0.082 -0.19561,0.13351 -0.0562,0.0515 -0.10432,0.1054 -0.14444,0.16162 0.0301,-0.32323 0.0672,-0.58557 0.11134,-0.787 0.0462,-0.20144 0.10132,-0.35837 0.16552,-0.4708 0.0642,-0.11242 0.13943,-0.18855 0.2257,-0.22837 0.0863,-0.0398 0.18357,-0.0597 0.2919,-0.0597 0.0943,0 0.17254,0.0187 0.23473,0.0562 0.0622,0.0375 0.11235,0.0855 0.15047,0.14405 0.0381,0.0562 0.0642,0.12063 0.0782,0.19324 0.0161,0.0703 0.0241,0.13819 0.0241,0.20377 h 0.65302 c 0,-0.1499 -0.0271,-0.28927 -0.0813,-0.41809 -0.0542,-0.12882 -0.13141,-0.24125 -0.23172,-0.33729 -0.10031,-0.096 -0.22068,-0.17098 -0.36112,-0.22485 -0.14044,-0.0562 -0.29592,-0.0843 -0.46645,-0.0843 z m -6.79208,0.13351 c -0.0241,0.0375 -0.0702,0.0902 -0.13843,0.1581 -0.0682,0.0679 -0.14445,0.13936 -0.22871,0.21431 -0.0843,0.0726 -0.17153,0.14171 -0.26181,0.20729 -0.0883,0.0656 -0.16652,0.11477 -0.23473,0.14757 v 0.69213 c 0.0602,-0.0211 0.13041,-0.0504 0.21065,-0.0878 0.0802,-0.0398 0.16151,-0.0831 0.24376,-0.13 0.0823,-0.0492 0.1605,-0.10071 0.23473,-0.15459 0.0762,-0.0562 0.14044,-0.11242 0.1926,-0.16864 v 3.55555 h 0.62895 v -4.43389 z m 3.55703995,0 -1.57086995,2.62801 v 0.85726 h 1.81161995 v 0.94862 h 0.62293 v -0.94862 h 0.40626 v -0.64295 h -0.40626 v -2.84232 z m 6.65666005,0 -1.57087,2.62801 v 0.85726 h 1.81162 v 0.94862 h 0.62293 v -0.94862 h 0.40626 v -0.64295 h -0.40626 v -2.84232 z m -6.41591005,0.53403 v 2.30829 H -1.6607304 Z m 6.65666005,0 v 2.30829 h -1.34518 z m -16.33169,0.34431 -0.7583496,0.27405 v 0.23891 h 0.43635 v 3.19366 c 0,0.1382 -0.005,0.26936 -0.015,0.3935 -0.008,0.12648 -0.0241,0.24008 -0.0482,0.3408 -0.0221,0.10306 -0.0522,0.19089 -0.0903,0.26351 -0.0381,0.075 -0.0853,0.13116 -0.14143,0.16864 l -0.59886,-0.48134 c -0.0301,0.0117 -0.0612,0.0281 -0.0933,0.0492 -0.0321,0.0234 -0.0602,0.0515 -0.0843,0.0843 -0.0261,0.0351 -0.0471,0.075 -0.0632,0.11946 -0.0161,0.0468 -0.0241,0.10071 -0.0241,0.16161 0,0.0679 0.013,0.12649 0.0391,0.17567 0.0241,0.0515 0.0582,0.0937 0.10231,0.12648 0.0421,0.0328 0.0913,0.0562 0.14746,0.0703 0.0562,0.0164 0.11636,0.0246 0.18056,0.0246 0.19461,0 0.38118,-0.055 0.55974,-0.16513 0.18056,-0.10775 0.33404,-0.27522 0.4604296,-0.50242 0.0522,-0.096 0.0943,-0.20495 0.12639,-0.32674 0.0321,-0.1218 0.0562,-0.24711 0.0722,-0.37593 0.0181,-0.12883 0.0301,-0.25648 0.0361,-0.38296 0.006,-0.12883 0.009,-0.24711 0.009,-0.35486 v -3.09529 z m 1.69426,0 -0.75836,0.28107 v 0.24594 h 0.43034 v 1.94993 c 0,0.20378 0.0191,0.37944 0.0572,0.52701 0.0401,0.14522 0.0963,0.26584 0.16852,0.36188 0.0742,0.0937 0.16351,0.16278 0.26783,0.20729 0.10633,0.0468 0.2257,0.0703 0.35811,0.0703 0.0903,0 0.18257,-0.0176 0.27686,-0.0527 0.0963,-0.0328 0.18759,-0.0738 0.27385,-0.12297 0.0883,-0.0515 0.16953,-0.10657 0.24376,-0.16513 0.0762,-0.0585 0.14044,-0.11125 0.1926,-0.1581 v 0.41107 h 0.97803 v -0.28107 l -0.27084,-0.0211 c -0.0361,-0.005 -0.0682,-0.0211 -0.0963,-0.0492 -0.0261,-0.0281 -0.0391,-0.0644 -0.0391,-0.10892 v -3.09529 h -0.25278 l -0.75234,0.28107 v 0.24594 h 0.43335 v 2.41018 c -0.0361,0.0211 -0.0802,0.0445 -0.13241,0.0703 -0.0502,0.0234 -0.10433,0.0469 -0.16251,0.0703 -0.0582,0.0211 -0.11937,0.0386 -0.18357,0.0527 -0.0642,0.014 -0.12739,0.0211 -0.18959,0.0211 -0.10833,0 -0.20062,-0.0176 -0.27686,-0.0527 -0.0762,-0.0375 -0.13843,-0.0913 -0.18657,-0.16162 -0.0462,-0.0703 -0.0802,-0.15576 -0.10232,-0.25647 -0.0201,-0.10072 -0.0301,-0.21432 -0.0301,-0.3408 v -2.33992 z m 10.90284,1.04348 c 0.0983,0 0.19059,0.0269 0.27686,0.0808 0.0863,0.0515 0.1605,0.12296 0.22269,0.21431 0.0642,0.089 0.11435,0.19441 0.15047,0.31621 0.0381,0.12179 0.0572,0.25179 0.0572,0.38998 0,0.1382 -0.0191,0.26936 -0.0572,0.3935 -0.0361,0.1218 -0.0863,0.22837 -0.15047,0.31972 -0.0622,0.0914 -0.13642,0.16396 -0.22269,0.21783 -0.0863,0.0515 -0.17856,0.0773 -0.27686,0.0773 -0.0963,0 -0.18758,-0.0258 -0.27385,-0.0773 -0.0863,-0.0539 -0.16251,-0.12648 -0.22871,-0.21783 -0.0642,-0.0913 -0.11536,-0.19792 -0.15348,-0.31972 -0.0361,-0.12414 -0.0542,-0.2553 -0.0542,-0.3935 0,-0.13819 0.0181,-0.26819 0.0542,-0.38998 0.0381,-0.1218 0.0893,-0.2272 0.15348,-0.31621 0.0662,-0.0913 0.14244,-0.16279 0.22871,-0.21431 0.0863,-0.0539 0.17755,-0.0808 0.27385,-0.0808 z"
     id="text843"
     inkscape:connector-curvature="0" />
</svg>
