<?xml version="1.0" encoding="UTF-8" standalone="no"?>
<svg
   xmlns:dc="http://purl.org/dc/elements/1.1/"
   xmlns:cc="http://creativecommons.org/ns#"
   xmlns:rdf="http://www.w3.org/1999/02/22-rdf-syntax-ns#"
   xmlns:svg="http://www.w3.org/2000/svg"
   xmlns="http://www.w3.org/2000/svg"
   xmlns:sodipodi="http://sodipodi.sourceforge.net/DTD/sodipodi-0.dtd"
   xmlns:inkscape="http://www.inkscape.org/namespaces/inkscape"
   width="744.094"
   height="1052.362"
   version="1.1"
   id="svg97"
   sodipodi:docname="tabbar.svg"
   inkscape:version="0.92.4 (5da689c313, 2019-01-14)">
  <metadata
     id="metadata103">
    <rdf:RDF>
      <cc:Work
         rdf:about="">
        <dc:format>image/svg+xml</dc:format>
        <dc:type
           rdf:resource="http://purl.org/dc/dcmitype/StillImage" />
        <dc:title></dc:title>
      </cc:Work>
    </rdf:RDF>
  </metadata>
  <defs
     id="defs101" />
  <sodipodi:namedview
     pagecolor="#ffffff"
     bordercolor="#666666"
     borderopacity="1"
     objecttolerance="10"
     gridtolerance="10"
     guidetolerance="10"
     inkscape:pageopacity="0"
     inkscape:pageshadow="2"
     inkscape:window-width="1366"
     inkscape:window-height="717"
     id="namedview99"
     showgrid="false"
     inkscape:zoom="0.49887773"
     inkscape:cx="372.047"
     inkscape:cy="526.18103"
     inkscape:window-x="0"
     inkscape:window-y="25"
     inkscape:window-maximized="1"
     inkscape:current-layer="svg97" />
  <rect
     id="hint-tile-center"
     style="opacity:0.875;fill:#008000"
     width="41.363"
     height="41.121"
     x="-233.82"
     y="467.13" />
  <g
     id="south-active-tab-top"
     transform="matrix(1.04,0,0,0.69282405,232.80001,183.34892)"
     style="fill:#5beedc;fill-opacity:1">
    <path
       style="fill:#5beedc;fill-opacity:1"
       d="m 40,359.36218 h 80 v 3 H 40 Z"
       id="path3"
       inkscape:connector-curvature="0" />
  </g>
  <g
     id="south-active-tab-topleft"
     transform="matrix(1.04,0,0,0.69282405,232.80001,183.34892)"
     style="fill:#5beedc;fill-opacity:1">
    <rect
       style="opacity:0;fill:#5beedc;fill-opacity:1"
       width="10"
       height="3"
       x="30"
       y="359.35999"
       id="rect6" />
    <path
       style="fill:#5beedc;fill-opacity:1"
       d="m 39.999989,359.36221 v 2.99998 c -4.002873,10e-6 -6.999999,-1.1e-4 -6.999999,-1.1e-4 0,0 0,-0.50072 0,-1 1e-6,-0.60192 0,-2 0,-2 0,0 3.407671,1.2e-4 6.999999,1.3e-4 z"
       id="path8"
       inkscape:connector-curvature="0" />
  </g>
  <g
     id="south-active-tab-topright"
     transform="matrix(1.04,0,0,0.69282405,232.80001,183.34892)"
     style="fill:#5beedc;fill-opacity:1">
    <rect
       style="opacity:0;fill:#5beedc;fill-opacity:1"
       width="10"
       height="3"
       x="120"
       y="359.35999"
       id="rect11" />
    <path
       style="fill:#5beedc;fill-opacity:1"
       d="m 119.99999,359.36221 c 3.67335,-1e-5 7,-1.3e-4 7,-1.3e-4 0,0 0,0.91846 0,1.50012 0,0.54321 0,1.49988 0,1.49988 0,0 -3.17283,1.2e-4 -7,1.1e-4 z"
       id="path13"
       inkscape:connector-curvature="0" />
  </g>
  <rect
     id="south-active-tab-left"
     style="opacity:0;fill:#e4e6e8"
     width="10"
     height="12"
     x="266"
     y="434.36" />
  <rect
     id="south-active-tab-center"
     style="opacity:0;fill:#e4e6e8"
     width="80"
     height="12"
     x="276"
     y="434.36" />
  <rect
     id="south-active-tab-right"
     style="opacity:0;fill:#e4e6e8"
     width="10"
     height="12"
     x="356"
     y="434.36" />
  <rect
     id="south-active-tab-bottomright"
     style="opacity:0;fill:#e4e6e8"
     width="10"
     height="4"
     x="356"
     y="446.36" />
  <rect
     id="south-active-tab-bottom"
     style="opacity:0;fill:#e4e6e8"
     width="80"
     height="4"
     x="276"
     y="446.36" />
  <rect
     id="south-active-tab-bottomleft"
     style="opacity:0;fill:#e4e6e8"
     width="10"
     height="4"
     x="266"
     y="446.36" />
  <rect
     id="south-active-tab-hint-left-margin"
     style="fill:#4e9a06"
     width="6"
     height="5"
     x="266"
     y="437.36" />
  <rect
     id="south-active-tab-hint-right-margin"
     style="fill:#4e9a06"
     width="6"
     height="5"
     x="360"
     y="437.36" />
  <rect
     id="south-active-tab-hint-top-margin"
     style="fill:#4e9a06"
     width="5"
     height="8"
     x="314"
     y="432.36" />
  <rect
     id="south-active-tab-hint-bottom-margin"
     style="fill:#4e9a06"
     width="5"
     height="4"
     x="314"
     y="446.36" />
  <rect
     id="east-active-tab-bottom"
     style="opacity:0;fill:#e4e6e8"
     width="10"
     height="12"
     x="-366.06"
     y="409"
     transform="matrix(0,-1,1,0,0,0)" />
  <rect
     id="east-active-tab-center"
     style="opacity:0;fill:#e4e6e8"
     width="80"
     height="12"
     x="-356.06"
     y="409"
     transform="matrix(0,-1,1,0,0,0)" />
  <rect
     id="east-active-tab-top"
     style="opacity:0;fill:#e4e6e8"
     width="10"
     height="12"
     x="-276.06"
     y="409"
     transform="matrix(0,-1,1,0,0,0)" />
  <rect
     id="east-active-tab-topright"
     style="opacity:0;fill:#e4e6e8"
     width="10"
     height="4"
     x="-276.06"
     y="421"
     transform="matrix(0,-1,1,0,0,0)" />
  <rect
     id="east-active-tab-right"
     style="opacity:0;fill:#e4e6e8"
     width="80"
     height="4"
     x="-356.06"
     y="421"
     transform="matrix(0,-1,1,0,0,0)" />
  <rect
     id="east-active-tab-bottomright"
     style="opacity:0;fill:#e4e6e8"
     width="10"
     height="4"
     x="-366.06"
     y="421"
     transform="matrix(0,-1,1,0,0,0)" />
  <rect
     id="east-active-tab-hint-bottom-margin"
     style="fill:#4e9a06"
     width="6"
     height="5"
     x="-366.36"
     y="412"
     transform="matrix(0,-1,1,0,0,0)" />
  <rect
     id="east-active-tab-hint-top-margin"
     style="fill:#4e9a06"
     width="6"
     height="5"
     x="-272.36"
     y="412"
     transform="matrix(0,-1,1,0,0,0)" />
  <g
     id="east-active-tab-left"
     transform="matrix(0,1,-0.66570362,0,646.22559,236.36218)"
     style="fill:#5beedc;fill-opacity:1">
    <path
       style="fill:#5beedc;fill-opacity:1"
       d="m 40,359.36218 80,0 0,3 -80,0 z"
       id="path34" />
  </g>
  <rect
     id="east-active-tab-hint-left-margin"
     style="fill:#4e9a06"
     width="5"
     height="8"
     x="-312.36"
     y="405"
     transform="matrix(0,-1,1,0,0,0)" />
  <rect
     id="east-active-tab-hint-right-margin"
     style="fill:#4e9a06"
     width="5"
     height="4"
     x="-312.36"
     y="421"
     transform="matrix(0,-1,1,0,0,0)" />
  <rect
     id="west-active-tab-top"
     style="opacity:0;fill:#e4e6e8"
     width="10"
     height="12"
     x="266.36"
     y="-216"
     transform="matrix(0,1,-1,0,0,0)" />
  <rect
     id="west-active-tab-center"
     style="opacity:0;fill:#e4e6e8"
     width="80"
     height="12"
     x="276.36"
     y="-216"
     transform="matrix(0,1,-1,0,0,0)" />
  <rect
     id="west-active-tab-bottom"
     style="opacity:0;fill:#e4e6e8"
     width="10"
     height="12"
     x="356.36"
     y="-216"
     transform="matrix(0,1,-1,0,0,0)" />
  <rect
     id="west-active-tab-bottomleft"
     style="opacity:0;fill:#e4e6e8"
     width="10"
     height="4"
     x="356.36"
     y="-204"
     transform="matrix(0,1,-1,0,0,0)" />
  <rect
     id="west-active-tab-left"
     style="opacity:0;fill:#e4e6e8"
     width="80"
     height="4"
     x="276.36"
     y="-204"
     transform="matrix(0,1,-1,0,0,0)" />
  <rect
     id="west-active-tab-topleft"
     style="opacity:0;fill:#e4e6e8"
     width="10"
     height="4"
     x="266.36"
     y="-204"
     transform="matrix(0,1,-1,0,0,0)" />
  <rect
     id="west-active-tab-hint-top-margin"
     style="fill:#4e9a06"
     width="6"
     height="5"
     x="266.36"
     y="-213"
     transform="matrix(0,1,-1,0,0,0)" />
  <rect
     id="west-active-tab-hint-bottom-margin"
     style="fill:#4e9a06"
     width="6"
     height="5"
     x="360.36"
     y="-213"
     transform="matrix(0,1,-1,0,0,0)" />
  <g
     id="west-active-tab-right"
     transform="matrix(0,1,-0.6661771,0,458.39739,236.36218)"
     style="fill:#5beedc;fill-opacity:1">
    <path
       style="fill:#5beedc;fill-opacity:1"
       d="m 40,359.36218 80,0 0,3 -80,0 z"
       id="path47" />
  </g>
  <g
     id="west-active-tab-topright"
     transform="matrix(0,1,-0.6661771,0,458.39739,236.36218)"
     style="fill:#5beedc;fill-opacity:1">
    <rect
       style="opacity:0;fill:#5beedc;fill-opacity:1"
       width="10"
       height="3"
       x="30"
       y="359.36"
       id="rect50" />
    <path
       style="fill:#5beedc;fill-opacity:1"
       d="m 39.999989,359.36221 0,2.99998 c -3.767297,0 -7.000108,0 -7.000108,0 0,0 1.1e-4,-0.94183 1.1e-4,-1.5 4e-6,-0.45273 -1.1e-4,-1.5 -1.1e-4,-1.5 0,0 2.811044,10e-6 7.000108,2e-5 z"
       id="path52" />
  </g>
  <g
     id="west-active-tab-bottomright"
     transform="matrix(0,1,-0.6661771,0,458.39739,236.36218)"
     style="fill:#5beedc;fill-opacity:1">
    <rect
       style="opacity:0;fill:#5beedc;fill-opacity:1"
       width="10"
       height="3"
       x="120"
       y="359.36"
       id="rect55" />
    <path
       style="fill:#5beedc;fill-opacity:1"
       d="m 119.99999,359.36221 c 4.70659,-2e-5 6.99989,-2e-5 6.99989,-2e-5 0,0 1.1e-4,1.17665 1.1e-4,1.5 0,0.55726 -1.1e-4,1.5 -1.1e-4,1.5 0,0 -3.22893,0 -6.99989,0 z"
       id="path57" />
  </g>
  <rect
     id="west-active-tab-hint-right-margin"
     style="fill:#4e9a06"
     width="5"
     height="8"
     x="307.36"
     y="-219"
     transform="matrix(0,1,-1,0,0,0)" />
  <rect
     id="west-active-tab-hint-left-margin"
     style="fill:#4e9a06"
     width="5"
     height="4"
     x="307.36"
     y="-204"
     transform="matrix(0,1,-1,0,0,0)" />
  <rect
     id="north-active-tab-right"
     style="opacity:0;fill:#e4e6e8"
     width="10"
     height="12"
     x="-373"
     y="-226.36"
     transform="scale(-1,-1)" />
  <rect
     id="north-active-tab-center"
     style="opacity:0;fill:#e4e6e8"
     width="80"
     height="12"
     x="-363"
     y="-226.36"
     transform="scale(-1,-1)" />
  <rect
     id="north-active-tab-left"
     style="opacity:0;fill:#e4e6e8"
     width="10"
     height="12"
     x="-283"
     y="-226.36"
     transform="scale(-1,-1)" />
  <rect
     id="north-active-tab-topleft"
     style="opacity:0;fill:#e4e6e8"
     width="10"
     height="4"
     x="-283"
     y="-214.36"
     transform="scale(-1,-1)" />
  <rect
     id="north-active-tab-top"
     style="opacity:0;fill:#e4e6e8"
     width="80"
     height="4"
     x="-363"
     y="-214.36"
     transform="scale(-1,-1)" />
  <rect
     id="north-active-tab-topright"
     style="opacity:0;fill:#e4e6e8"
     width="10"
     height="4"
     x="-373"
     y="-214.36"
     transform="scale(-1,-1)" />
  <rect
     id="north-focus-hint-right-margin"
     style="fill:#4e9a06"
     width="6"
     height="5"
     x="-373"
     y="-223.36"
     transform="scale(-1,-1)" />
  <rect
     id="north-focus-hint-left-margin"
     style="fill:#4e9a06"
     width="6"
     height="5"
     x="-279"
     y="-223.36"
     transform="scale(-1,-1)" />
  <g
     id="north-active-tab-bottom"
     transform="matrix(1,0,0,0.66617489,243,-11.034407)"
     style="fill:#5beedc;fill-opacity:1">
    <path
       style="fill:#5beedc;fill-opacity:1"
       d="m 40,359.36218 80,0 0,3 -80,0 z"
       id="path70" />
  </g>
  <rect
     id="north-focus-hint-bottom-margin"
     style="fill:#4e9a06"
     width="5"
     height="8"
     x="-319"
     y="-230.36"
     transform="scale(-1,-1)" />
  <rect
     id="north-focus-hint-top-margin"
     style="fill:#4e9a06"
     width="5"
     height="4"
     x="-319"
     y="-214.36"
     transform="scale(-1,-1)" />
  <g
     id="north-active-tab-bottomleft"
     transform="matrix(1,0,0,0.66617489,243,-11.034407)"
     style="fill:#5beedc;fill-opacity:1">
    <rect
       style="opacity:0;fill:#5beedc;fill-opacity:1"
       width="10"
       height="3"
       x="30"
       y="359.36"
       id="rect75" />
    <path
       style="fill:#5beedc;fill-opacity:1"
       d="m 39.999989,359.36221 0,2.99998 c -3.409947,0 -6.999989,-1.2e-4 -6.999989,-1.2e-4 0,0 -6e-6,-0.85237 -1.1e-5,-1.49988 4e-6,-0.61099 1.1e-5,-1.50012 1.1e-5,-1.50012 0,0 7,0 6.999989,1.4e-4 z"
       id="path77" />
  </g>
  <g
     id="north-active-tab-bottomright"
     transform="matrix(1,0,0,0.66617489,0,76.900684)"
     style="fill:#5beedc;fill-opacity:1">
    <rect
       style="opacity:0;fill:#5beedc;fill-opacity:1"
       width="10"
       height="3"
       x="363"
       y="227.36"
       id="rect80" />
    <rect
       style="opacity:0;fill:#5beedc;fill-opacity:1"
       width="10"
       height="3"
       x="363"
       y="227.36"
       id="rect82" />
    <path
       style="fill:#5beedc;fill-opacity:1"
       d="m 363,227.36221 c 4.05485,-2e-5 7,-1.5e-4 7,-1.5e-4 0,0 0,1.01383 0,1.50012 0,0.61168 0,1.49988 0,1.49988 0,0 -3.44673,1.2e-4 -7,1.3e-4 z"
       id="path84" />
  </g>
  <g
     id="east-active-tab-topleft"
     transform="matrix(0,1,-0.66570362,0,646.22559,236.36218)"
     style="fill:#5beedc;fill-opacity:1">
    <rect
       style="opacity:0;fill:#5beedc;fill-opacity:1"
       width="10"
       height="3"
       x="30"
       y="359.36"
       id="rect87" />
    <path
       style="fill:#5beedc;fill-opacity:1"
       d="m 39.999989,359.36221 0,2.99998 c -4.1908,0.003 -7.000108,2.3e-4 -7.000108,2.3e-4 0,0 0.0047,-1.11514 1.08e-4,-1.58523 0.007,-0.63828 -1.08e-4,-1.41477 -1.08e-4,-1.41477 0,0 3.798335,-0.007 7.000108,-2.1e-4 z"
       id="path89" />
  </g>
  <g
     id="east-active-tab-bottomleft"
     transform="matrix(0,1,-0.66570362,0,646.22559,236.36218)"
     style="fill:#5beedc;fill-opacity:1">
    <rect
       style="opacity:0;fill:#5beedc;fill-opacity:1"
       width="10"
       height="3"
       x="120"
       y="359.36"
       id="rect92" />
    <path
       style="fill:#5beedc;fill-opacity:1"
       d="m 119.99999,359.36221 c 3.69017,0.002 6.99989,2.1e-4 6.99989,2.1e-4 0,0 1.1e-4,0.87118 1.1e-4,1.41477 -10e-4,0.51392 -1.1e-4,1.58523 -1.1e-4,1.58523 0,0 -2.97246,-0.0104 -6.99989,-2.3e-4 z"
       id="path94" />
  </g>
</svg>
