/* XPM */
static char * close_inactive_xpm[] = {
"32 32 30 1",
" 	c None",
".	c #365970",
"+	c #204760",
"@	c #3A5A6F",
"#	c #768791",
"$	c #9DA4A8",
"%	c #B0B2B3",
"&	c #758691",
"*	c #3A5B6F",
"=	c #244A62",
"-	c #798994",
";	c #B6B7B7",
">	c #B7B7B7",
",	c #B5B6B6",
"'	c #778892",
")	c #234962",
"!	c #909AA0",
"~	c #909AA1",
"{	c #798993",
"]	c #778792",
"^	c #748591",
"/	c #9EA5A9",
"(	c #9DA3A8",
"_	c #B0B1B3",
":	c #AFB1B2",
"<	c #738590",
"[	c #39596E",
"}	c #8F9AA0",
"|	c #8F99A0",
"1	c #234A62",
"................................",
"++++++++++++++++++++++++++++++++",
"++++++++++++++++++++++++++++++++",
"++++++++++++++++++++++++++++++++",
"++++++++++++++++++++++++++++++++",
"++++++++++++++++++++++++++++++++",
"++++++++++++++++++++++++++++++++",
"++++++++++++++++++++++++++++++++",
"++++++++++++@#$%%$&*++++++++++++",
"++++++++++=-;>>>>>>,')++++++++++",
"+++++++++=!>>>>>>>>>>~)+++++++++",
"+++++++++{>>>>>>>>>>>>]+++++++++",
"++++++++@;>>>>>>>>>>>>,@++++++++",
"++++++++#>>>>>>>>>>>>>>^++++++++",
"++++++++/>>>>>>>>>>>>>>(++++++++",
"++++++++_>>>>>>>>>>>>>>%++++++++",
"++++++++%>>>>>>>>>>>>>>:++++++++",
"++++++++/>>>>>>>>>>>>>>(++++++++",
"++++++++&>>>>>>>>>>>>>><++++++++",
"++++++++*,>>>>>>>>>>>>,[++++++++",
"+++++++++'>>>>>>>>>>>>#+++++++++",
"+++++++++)}>>>>>>>>>>|1+++++++++",
"++++++++++)],>>>>>>,#1++++++++++",
"++++++++++++@^(__(<[++++++++++++",
"++++++++++++++++++++++++++++++++",
"++++++++++++++++++++++++++++++++",
"++++++++++++++++++++++++++++++++",
"++++++++++++++++++++++++++++++++",
"++++++++++++++++++++++++++++++++",
"++++++++++++++++++++++++++++++++",
"++++++++++++++++++++++++++++++++",
"++++++++++++++++++++++++++++++++"};
