/* XPM */
static char * close_prelight_xpm[] = {
"32 32 21 1",
" 	c None",
".	c #365970",
"+	c #204760",
"@	c #1E4259",
"#	c #19374A",
"$	c #152F40",
"%	c #142C3B",
"&	c #20465F",
"*	c #183649",
"=	c #132B3A",
"-	c #163243",
";	c #153040",
">	c #1D4056",
",	c #142D3D",
"'	c #1D4057",
")	c #1E425A",
"!	c #1C3F55",
"~	c #1E435A",
"{	c #19374B",
"]	c #142C3C",
"^	c #173244",
"................................",
"++++++++++++++++++++++++++++++++",
"++++++++++++++++++++++++++++++++",
"++++++++++++++++++++++++++++++++",
"++++++++++++++++++++++++++++++++",
"++++++++++++++++++++++++++++++++",
"++++++++++++++++++++++++++++++++",
"++++++++++++++++++++++++++++++++",
"++++++++++++@#$%%$#@++++++++++++",
"++++++++++&*========#&++++++++++",
"+++++++++&-==========-&+++++++++",
"+++++++++*=;>,====,>$=#+++++++++",
"++++++++@=='+@,==,)+!==)++++++++",
"++++++++#==,@+~,,@+@,=={++++++++",
"++++++++$===,)+@)+@,===;++++++++",
"++++++++%====,@++@,====%++++++++",
"++++++++%====,@++~,====]++++++++",
"++++++++$===,)+@)+@,===;++++++++",
"++++++++#==,@+@,,@+~,=={++++++++",
"++++++++@=='+@,==,)+!==)++++++++",
"+++++++++#=;>,====,>$=#+++++++++",
"+++++++++&^==========^&+++++++++",
"++++++++++&#========#&++++++++++",
"++++++++++++){;%%;{)++++++++++++",
"++++++++++++++++++++++++++++++++",
"++++++++++++++++++++++++++++++++",
"++++++++++++++++++++++++++++++++",
"++++++++++++++++++++++++++++++++",
"++++++++++++++++++++++++++++++++",
"++++++++++++++++++++++++++++++++",
"++++++++++++++++++++++++++++++++",
"++++++++++++++++++++++++++++++++"};
