<?xml version="1.0" encoding="UTF-8" standalone="no"?>
<svg
   xmlns:dc="http://purl.org/dc/elements/1.1/"
   xmlns:cc="http://creativecommons.org/ns#"
   xmlns:rdf="http://www.w3.org/1999/02/22-rdf-syntax-ns#"
   xmlns:svg="http://www.w3.org/2000/svg"
   xmlns="http://www.w3.org/2000/svg"
   xmlns:sodipodi="http://sodipodi.sourceforge.net/DTD/sodipodi-0.dtd"
   xmlns:inkscape="http://www.inkscape.org/namespaces/inkscape"
   id="svg4306"
   width="22"
   height="22"
   version="1.1"
   style="enable-background:new"
   sodipodi:docname="keepabove.svg"
   inkscape:version="0.92.4 (5da689c313, 2019-01-14)">
  <metadata
     id="metadata24">
    <rdf:RDF>
      <cc:Work
         rdf:about="">
        <dc:format>image/svg+xml</dc:format>
        <dc:type
           rdf:resource="http://purl.org/dc/dcmitype/StillImage" />
        <dc:title></dc:title>
      </cc:Work>
    </rdf:RDF>
  </metadata>
  <defs
     id="defs22" />
  <style
     type="text/css"
     id="current-color-scheme">
      .ColorScheme-Text {
        color:#31363b;
      }
      .ColorScheme-Background {
        color:#eff0f1;
      }
      .ColorScheme-Highlight {
        color:#3daee9;
      }

      </style>
  <sodipodi:namedview
     pagecolor="#ffffff"
     bordercolor="#666666"
     borderopacity="1"
     objecttolerance="10"
     gridtolerance="10"
     guidetolerance="10"
     inkscape:pageopacity="1"
     inkscape:pageshadow="2"
     inkscape:window-width="1366"
     inkscape:window-height="707"
     id="namedview20"
     showgrid="true"
     inkscape:zoom="2.6363636"
     inkscape:cx="11"
     inkscape:cy="11"
     inkscape:window-x="0"
     inkscape:window-y="0"
     inkscape:window-maximized="1"
     inkscape:current-layer="svg4306"
     showguides="true"
     inkscape:guide-bbox="true" />
  <g
     id="pressed-center"
     transform="matrix(1,0,0,-1,22,22)">
    <path
       id="path896"
       d="M 11,0.042969 C 4.94829,0.042969 0.04296875,4.948424 0.04296875,11 0.04296875,17.051809 4.94829,21.957031 11,21.957031 17.051736,21.957031 21.957031,17.051809 21.957031,11 21.957031,4.948424 17.051736,0.042969 11,0.042969 Z"
       style="opacity:0;fill:currentColor;fill-opacity:0;fill-rule:evenodd;stroke:none;stroke-width:0.02563604;enable-background:new"
       inkscape:connector-curvature="0" />
    <path
       id="hover-center-3"
       class="ColorScheme-Highlight"
       d="m 11,7.292969 6,6 -1.414062,1.414062 L 11,10.121094 6.4140625,14.707031 5,13.292969 Z"
       style="fill:currentColor;fill-opacity:1;fill-rule:evenodd;stroke:none;stroke-width:0.02563604;enable-background:new"
       inkscape:connector-curvature="0" />
  </g>
  <g
     style="fill:#ebebeb;fill-opacity:1;enable-background:new"
     id="active-center"
     transform="matrix(1,0,0,-1,-22,22)">
    <path
       id="path896-7"
       d="M 11,0.042969 C 4.94829,0.042969 0.04296875,4.948424 0.04296875,11 0.04296875,17.051809 4.94829,21.957031 11,21.957031 17.051736,21.957031 21.957031,17.051809 21.957031,11 21.957031,4.948424 17.051736,0.042969 11,0.042969 Z"
       style="opacity:0;fill:#ebebeb;fill-opacity:1;fill-rule:evenodd;stroke:none;stroke-width:0.02563604;enable-background:new"
       inkscape:connector-curvature="0" />
    <path
       id="hover-center-3-5"
       d="m 11,7.292969 6,6 -1.414062,1.414062 L 11,10.121094 6.4140625,14.707031 5,13.292969 Z"
       style="fill:#ebebeb;fill-opacity:1;fill-rule:evenodd;stroke:none;stroke-width:0.02563604;enable-background:new"
       inkscape:connector-curvature="0" />
  </g>
  <g
     style="fill:#B4B4B4;fill-opacity:1;enable-background:new"
     id="inactive-center"
     transform="matrix(1,0,0,-1,44,22)">
    <path
       id="path896-5"
       d="M 11,0.042969 C 4.94829,0.042969 0.04296875,4.948424 0.04296875,11 0.04296875,17.051809 4.94829,21.957031 11,21.957031 17.051736,21.957031 21.957031,17.051809 21.957031,11 21.957031,4.948424 17.051736,0.042969 11,0.042969 Z"
       style="opacity:0;fill:#B4B4B4;fill-opacity:1;fill-rule:evenodd;stroke:none;stroke-width:0.02563604;enable-background:new"
       inkscape:connector-curvature="0" />
    <path
       id="hover-center-3-6"
       d="m 11,7.292969 6,6 -1.414062,1.414062 L 11,10.121094 6.4140625,14.707031 5,13.292969 Z"
       style="fill:#B4B4B4;fill-opacity:1;fill-rule:evenodd;stroke:none;stroke-width:0.02563604;enable-background:new"
       inkscape:connector-curvature="0" />
  </g>
  <g
     style="fill:#B4B4B4;fill-opacity:1;enable-background:new"
     id="deactivated-center"
     transform="matrix(1,0,0,-1,66,22)">
    <path
       id="path896-9"
       d="M 11,0.042969 C 4.94829,0.042969 0.04296875,4.948424 0.04296875,11 0.04296875,17.051809 4.94829,21.957031 11,21.957031 17.051736,21.957031 21.957031,17.051809 21.957031,11 21.957031,4.948424 17.051736,0.042969 11,0.042969 Z"
       style="opacity:0;fill:#B4B4B4;fill-opacity:1;fill-rule:evenodd;stroke:none;stroke-width:0.02563604;enable-background:new"
       inkscape:connector-curvature="0" />
    <path
       id="hover-center-3-1"
       d="m 11,7.292969 6,6 -1.414062,1.414062 L 11,10.121094 6.4140625,14.707031 5,13.292969 Z"
       style="fill:#B4B4B4;fill-opacity:1;fill-rule:evenodd;stroke:none;stroke-width:0.02563604;enable-background:new"
       inkscape:connector-curvature="0" />
  </g>
  <g
     style="enable-background:new"
     id="hover-center">
    <path
       inkscape:label="#hover-center"
       inkscape:connector-curvature="0"
       id="hover-"
       class="ColorScheme-Highlight"
       d="M 11,21.957031 C 4.94829,21.957031 0.04296875,17.051576 0.04296875,11 0.04296875,4.948191 4.94829,0.042969 11,0.042969 c 6.051736,0 10.957031,4.905222 10.957031,10.957031 0,6.051576 -4.905295,10.957031 -10.957031,10.957031 z m 0,-7.25 6,-6 L 15.585938,7.292969 11,11.878906 6.4140625,7.292969 5,8.707031 Z"
       style="fill:currentColor;fill-opacity:1;fill-rule:evenodd;stroke:none;stroke-width:0.02563604;enable-background:new" />
  </g>
  <path
     style="font-style:normal;font-variant:normal;font-weight:normal;font-stretch:normal;font-size:16px;line-height:1.25;font-family:'Abyssinica SIL';-inkscape-font-specification:'Abyssinica SIL';letter-spacing:0px;word-spacing:0px;fill:#ffffff;fill-opacity:1;stroke:none"
     d="M 16.464844 -40.914062 C 16.329427 -40.914062 16.201823 -40.888021 16.082031 -40.835938 C 15.96224 -40.789062 15.855469 -40.721354 15.761719 -40.632812 C 15.673177 -40.544271 15.602865 -40.440104 15.550781 -40.320312 C 15.498698 -40.200521 15.472656 -40.072917 15.472656 -39.9375 C 15.472656 -39.802083 15.498698 -39.671875 15.550781 -39.546875 C 15.602865 -39.427083 15.673177 -39.322917 15.761719 -39.234375 C 15.855469 -39.145833 15.96224 -39.075521 16.082031 -39.023438 C 16.201823 -38.971354 16.329427 -38.945312 16.464844 -38.945312 C 16.60026 -38.945312 16.727865 -38.971354 16.847656 -39.023438 C 16.967448 -39.075521 17.071615 -39.145833 17.160156 -39.234375 C 17.248698 -39.322917 17.316406 -39.427083 17.363281 -39.546875 C 17.415365 -39.671875 17.441406 -39.802083 17.441406 -39.9375 C 17.441406 -40.072917 17.415365 -40.200521 17.363281 -40.320312 C 17.316406 -40.440104 17.248698 -40.544271 17.160156 -40.632812 C 17.071615 -40.721354 16.967448 -40.789062 16.847656 -40.835938 C 16.727865 -40.888021 16.60026 -40.914062 16.464844 -40.914062 z M 49.503906 -39.742188 C 48.957031 -39.742188 48.451823 -39.648438 47.988281 -39.460938 C 47.529948 -39.273438 47.134115 -38.971354 46.800781 -38.554688 C 46.472656 -38.138021 46.214844 -37.591146 46.027344 -36.914062 C 45.839844 -36.242188 45.746094 -35.421875 45.746094 -34.453125 C 45.746094 -33.479167 45.842448 -32.677083 46.035156 -32.046875 C 46.227865 -31.421875 46.485677 -30.927083 46.808594 -30.5625 C 47.13151 -30.197917 47.503906 -29.942708 47.925781 -29.796875 C 48.347656 -29.65625 48.78776 -29.585938 49.246094 -29.585938 C 49.704427 -29.585938 50.14974 -29.653646 50.582031 -29.789062 C 51.019531 -29.924479 51.404948 -30.132812 51.738281 -30.414062 C 52.071615 -30.695313 52.339844 -31.052083 52.542969 -31.484375 C 52.746094 -31.916667 52.847656 -32.429688 52.847656 -33.023438 C 52.847656 -33.419271 52.800781 -33.773438 52.707031 -34.085938 C 52.61849 -34.398438 52.496094 -34.671875 52.339844 -34.90625 C 52.188802 -35.145833 52.009115 -35.346354 51.800781 -35.507812 C 51.597656 -35.674479 51.38151 -35.809896 51.152344 -35.914062 C 50.923177 -36.018229 50.688802 -36.09375 50.449219 -36.140625 C 50.209635 -36.1875 49.980469 -36.210938 49.761719 -36.210938 C 49.47526 -36.210938 49.21224 -36.184896 48.972656 -36.132812 C 48.733073 -36.080729 48.516927 -36.010417 48.324219 -35.921875 C 48.13151 -35.838542 47.96224 -35.739583 47.816406 -35.625 C 47.670573 -35.510417 47.545573 -35.390625 47.441406 -35.265625 C 47.519531 -35.984375 47.615885 -36.567708 47.730469 -37.015625 C 47.85026 -37.463542 47.99349 -37.8125 48.160156 -38.0625 C 48.326823 -38.3125 48.522135 -38.481771 48.746094 -38.570312 C 48.970052 -38.658854 49.222656 -38.703125 49.503906 -38.703125 C 49.748698 -38.703125 49.951823 -38.661458 50.113281 -38.578125 C 50.27474 -38.494792 50.404948 -38.388021 50.503906 -38.257812 C 50.602865 -38.132812 50.670573 -37.989583 50.707031 -37.828125 C 50.748698 -37.671875 50.769531 -37.520833 50.769531 -37.375 L 52.464844 -37.375 C 52.464844 -37.708333 52.394531 -38.018229 52.253906 -38.304688 C 52.113281 -38.591146 51.91276 -38.841146 51.652344 -39.054688 C 51.391927 -39.268229 51.079427 -39.434896 50.714844 -39.554688 C 50.35026 -39.679688 49.946615 -39.742188 49.503906 -39.742188 z M 31.871094 -39.445312 C 31.808594 -39.361979 31.688802 -39.244792 31.511719 -39.09375 C 31.334635 -38.942708 31.136719 -38.783854 30.917969 -38.617188 C 30.699219 -38.455729 30.472656 -38.302083 30.238281 -38.15625 C 30.009115 -38.010417 29.80599 -37.901042 29.628906 -37.828125 L 29.628906 -36.289062 C 29.785156 -36.335938 29.967448 -36.401042 30.175781 -36.484375 C 30.384115 -36.572917 30.595052 -36.669271 30.808594 -36.773438 C 31.022135 -36.882812 31.22526 -36.997396 31.417969 -37.117188 C 31.615885 -37.242188 31.782552 -37.367188 31.917969 -37.492188 L 31.917969 -29.585938 L 33.550781 -29.585938 L 33.550781 -39.445312 L 31.871094 -39.445312 z M 41.105469 -39.445312 L 37.027344 -33.601562 L 37.027344 -31.695312 L 41.730469 -31.695312 L 41.730469 -29.585938 L 43.347656 -29.585938 L 43.347656 -31.695312 L 44.402344 -31.695312 L 44.402344 -33.125 L 43.347656 -33.125 L 43.347656 -39.445312 L 41.105469 -39.445312 z M 58.386719 -39.445312 L 54.308594 -33.601562 L 54.308594 -31.695312 L 59.011719 -31.695312 L 59.011719 -29.585938 L 60.628906 -29.585938 L 60.628906 -31.695312 L 61.683594 -31.695312 L 61.683594 -33.125 L 60.628906 -33.125 L 60.628906 -39.445312 L 58.386719 -39.445312 z M 41.730469 -38.257812 L 41.730469 -33.125 L 38.238281 -33.125 L 41.730469 -38.257812 z M 59.011719 -38.257812 L 59.011719 -33.125 L 55.519531 -33.125 L 59.011719 -38.257812 z M 16.613281 -37.492188 L 14.644531 -36.882812 L 14.644531 -36.351562 L 15.777344 -36.351562 L 15.777344 -29.25 C 15.777344 -28.942708 15.764323 -28.651042 15.738281 -28.375 C 15.717448 -28.09375 15.675781 -27.841146 15.613281 -27.617188 C 15.55599 -27.388021 15.477865 -27.192708 15.378906 -27.03125 C 15.279948 -26.864583 15.157552 -26.739583 15.011719 -26.65625 L 13.457031 -27.726562 C 13.378906 -27.700521 13.298177 -27.664062 13.214844 -27.617188 C 13.13151 -27.565104 13.058594 -27.502604 12.996094 -27.429688 C 12.928385 -27.351563 12.873698 -27.263021 12.832031 -27.164062 C 12.790365 -27.059896 12.769531 -26.940104 12.769531 -26.804688 C 12.769531 -26.653646 12.803385 -26.523438 12.871094 -26.414062 C 12.933594 -26.299479 13.022135 -26.205729 13.136719 -26.132812 C 13.246094 -26.059896 13.373698 -26.007812 13.519531 -25.976562 C 13.665365 -25.940104 13.821615 -25.921875 13.988281 -25.921875 C 14.49349 -25.921875 14.977865 -26.044271 15.441406 -26.289062 C 15.910156 -26.528646 16.308594 -26.901042 16.636719 -27.40625 C 16.772135 -27.619792 16.88151 -27.861979 16.964844 -28.132812 C 17.048177 -28.403646 17.110677 -28.682292 17.152344 -28.96875 C 17.199219 -29.255208 17.230469 -29.539062 17.246094 -29.820312 C 17.261719 -30.106771 17.269531 -30.369792 17.269531 -30.609375 L 17.269531 -37.492188 L 16.613281 -37.492188 z M 21.011719 -37.492188 L 19.042969 -36.867188 L 19.042969 -36.320312 L 20.160156 -36.320312 L 20.160156 -31.984375 C 20.160156 -31.53125 20.209635 -31.140625 20.308594 -30.8125 C 20.41276 -30.489583 20.558594 -30.221354 20.746094 -30.007812 C 20.938802 -29.799479 21.170573 -29.645833 21.441406 -29.546875 C 21.717448 -29.442708 22.027344 -29.390625 22.371094 -29.390625 C 22.605469 -29.390625 22.845052 -29.429688 23.089844 -29.507812 C 23.339844 -29.580729 23.576823 -29.671875 23.800781 -29.78125 C 24.029948 -29.895833 24.240885 -30.018229 24.433594 -30.148438 C 24.63151 -30.278646 24.798177 -30.395833 24.933594 -30.5 L 24.933594 -29.585938 L 27.472656 -29.585938 L 27.472656 -30.210938 L 26.769531 -30.257812 C 26.675781 -30.268229 26.592448 -30.304688 26.519531 -30.367188 C 26.451823 -30.429687 26.417969 -30.510417 26.417969 -30.609375 L 26.417969 -37.492188 L 25.761719 -37.492188 L 23.808594 -36.867188 L 23.808594 -36.320312 L 24.933594 -36.320312 L 24.933594 -30.960938 C 24.839844 -30.914062 24.72526 -30.861979 24.589844 -30.804688 C 24.459635 -30.752604 24.31901 -30.700521 24.167969 -30.648438 C 24.016927 -30.601562 23.858073 -30.5625 23.691406 -30.53125 C 23.52474 -30.5 23.360677 -30.484375 23.199219 -30.484375 C 22.917969 -30.484375 22.678385 -30.523438 22.480469 -30.601562 C 22.282552 -30.684896 22.121094 -30.804688 21.996094 -30.960938 C 21.876302 -31.117187 21.78776 -31.307292 21.730469 -31.53125 C 21.678385 -31.755208 21.652344 -32.007812 21.652344 -32.289062 L 21.652344 -37.492188 L 21.011719 -37.492188 z M 49.316406 -35.171875 C 49.571615 -35.171875 49.811198 -35.111979 50.035156 -34.992188 C 50.259115 -34.877604 50.451823 -34.71875 50.613281 -34.515625 C 50.779948 -34.317708 50.910156 -34.083333 51.003906 -33.8125 C 51.102865 -33.541667 51.152344 -33.252604 51.152344 -32.945312 C 51.152344 -32.638021 51.102865 -32.346354 51.003906 -32.070312 C 50.910156 -31.799479 50.779948 -31.5625 50.613281 -31.359375 C 50.451823 -31.15625 50.259115 -30.994792 50.035156 -30.875 C 49.811198 -30.760417 49.571615 -30.703125 49.316406 -30.703125 C 49.066406 -30.703125 48.829427 -30.760417 48.605469 -30.875 C 48.38151 -30.994792 48.183594 -31.15625 48.011719 -31.359375 C 47.845052 -31.5625 47.71224 -31.799479 47.613281 -32.070312 C 47.519531 -32.346354 47.472656 -32.638021 47.472656 -32.945312 C 47.472656 -33.252604 47.519531 -33.541667 47.613281 -33.8125 C 47.71224 -34.083333 47.845052 -34.317708 48.011719 -34.515625 C 48.183594 -34.71875 48.38151 -34.877604 48.605469 -34.992188 C 48.829427 -35.111979 49.066406 -35.171875 49.316406 -35.171875 z "
     id="text834" />
</svg>
