<?xml version="1.0" encoding="UTF-8" standalone="no"?>
<svg
   xmlns:dc="http://purl.org/dc/elements/1.1/"
   xmlns:cc="http://creativecommons.org/ns#"
   xmlns:rdf="http://www.w3.org/1999/02/22-rdf-syntax-ns#"
   xmlns:svg="http://www.w3.org/2000/svg"
   xmlns="http://www.w3.org/2000/svg"
   xmlns:xlink="http://www.w3.org/1999/xlink"
   xmlns:sodipodi="http://sodipodi.sourceforge.net/DTD/sodipodi-0.dtd"
   xmlns:inkscape="http://www.inkscape.org/namespaces/inkscape"
   width="100"
   height="80"
   version="1"
   id="svg38"
   sodipodi:docname="action-overlays.svg"
   inkscape:version="0.92.4 (5da689c313, 2019-01-14)">
  <metadata
     id="metadata42">
    <rdf:RDF>
      <cc:Work
         rdf:about="">
        <dc:format>image/svg+xml</dc:format>
        <dc:type
           rdf:resource="http://purl.org/dc/dcmitype/StillImage" />
        <dc:title></dc:title>
      </cc:Work>
    </rdf:RDF>
  </metadata>
  <sodipodi:namedview
     pagecolor="#ffffff"
     bordercolor="#666666"
     borderopacity="1"
     objecttolerance="10"
     gridtolerance="10"
     guidetolerance="10"
     inkscape:pageopacity="0"
     inkscape:pageshadow="2"
     inkscape:window-width="1366"
     inkscape:window-height="717"
     id="namedview40"
     showgrid="false"
     inkscape:zoom="2.95"
     inkscape:cx="13.559322"
     inkscape:cy="40"
     inkscape:window-x="0"
     inkscape:window-y="25"
     inkscape:window-maximized="1"
     inkscape:current-layer="svg38" />
  <defs
     id="defs10">
    <linearGradient
       id="a">
      <stop
         offset="0"
         stop-color="#e6e6e6"
         id="stop2" />
      <stop
         offset="1"
         stop-color="#e6e6e6"
         stop-opacity="0"
         id="stop4" />
    </linearGradient>
    <linearGradient
       xlink:href="#a"
       id="b"
       gradientUnits="userSpaceOnUse"
       x1="67.159"
       y1="63.933"
       x2="67.159"
       y2="73.942"
       gradientTransform="matrix(4.12024 0 0 3.46378 -24.178 98.384)" />
    <linearGradient
       xlink:href="#a"
       id="c"
       gradientUnits="userSpaceOnUse"
       x1="67.159"
       y1="63.933"
       x2="67.159"
       y2="73.942"
       gradientTransform="matrix(4.12024,0,0,3.46378,-24.178,124.384)" />
    <linearGradient
       xlink:href="#a"
       id="d"
       gradientUnits="userSpaceOnUse"
       x1="67.159"
       y1="63.933"
       x2="67.159"
       y2="73.942"
       gradientTransform="matrix(4.12024,0,0,3.46378,-23.178,150.384)" />
  </defs>
  <g
     id="add-normal">
    <path
       style="fill:#e6e6e6;fill-opacity:1"
       id="path865"
       d="M 14 6 A 8 8 0 0 0 6 14 A 8 8 0 0 0 14 22 A 8 8 0 0 0 22 14 A 8 8 0 0 0 14 6 z M 14 7.5 A 6.5 6.5 0 0 1 20.5 14 A 6.5 6.5 0 0 1 14 20.5 A 6.5 6.5 0 0 1 7.5 14 A 6.5 6.5 0 0 1 14 7.5 z M 13 10 L 13 13 L 10 13 L 10 15 L 13 15 L 13 18 L 15 18 L 15 15 L 18 15 L 18 13 L 15 13 L 15 10 L 13 10 z " />
  </g>
  <g
     id="remove-normal">
    <path
       style="fill:#e6e6e6;fill-opacity:1"
       id="path859"
       d="M 14 32 A 8 8 0 0 0 6 40 A 8 8 0 0 0 14 48 A 8 8 0 0 0 22 40 A 8 8 0 0 0 14 32 z M 14 33.5 A 6.5 6.5 0 0 1 20.5 40 A 6.5 6.5 0 0 1 14 46.5 A 6.5 6.5 0 0 1 7.5 40 A 6.5 6.5 0 0 1 14 33.5 z M 10 39 L 10 41 L 18 41 L 18 39 L 10 39 z " />
  </g>
  <g
     id="open-normal">
    <path
       style="fill:#e6e6e6;fill-opacity:1"
       id="path853"
       d="M 14 59 A 8 8 0 0 0 6 67 A 8 8 0 0 0 14 75 A 8 8 0 0 0 22 67 A 8 8 0 0 0 14 59 z M 14 60.5 A 6.5 6.5 0 0 1 20.5 67 A 6.5 6.5 0 0 1 14 73.5 A 6.5 6.5 0 0 1 7.5 67 A 6.5 6.5 0 0 1 14 60.5 z M 14 63 L 10 67 L 13 67 L 13 70 L 15 70 L 15 67 L 18 67 L 14 63 z " />
  </g>
  <g
     transform="translate(-214.536 -326.505)"
     id="add-hover">
    <path
       d="M252.536 333.505a8 8 0 0 0-8 8 8 8 0 0 0 8 8 8 8 0 0 0 8-8 8 8 0 0 0-8-8zm0 1.5a6.5 6.5 0 0 1 6.5 6.5 6.5 6.5 0 0 1-6.5 6.5 6.5 6.5 0 0 1-6.5-6.5 6.5 6.5 0 0 1 6.5-6.5zm-1 2.5v3h-3v2h3v3h2v-3h3v-2h-3v-3z"
       fill="#e6e6e6"
       id="path14" />
    <circle
       r="6.5"
       cx="252.536"
       cy="341.505"
       fill="url(#b)"
       id="circle16" />
  </g>
  <g
     id="add-pressed">
    <path
       id="path20"
       fill="#e6e6e6"
       d="M66 7a8 8 0 0 0-8 8 8 8 0 0 0 8 8 8 8 0 0 0 8-8 8 8 0 0 0-8-8zm0 1.5a6.5 6.5 0 0 1 6.5 6.5 6.5 6.5 0 0 1-6.5 6.5 6.5 6.5 0 0 1-6.5-6.5A6.5 6.5 0 0 1 66 8.5zM65 11v3h-3v2h3v3h2v-3h3v-2h-3v-3z" />
  </g>
  <g
     transform="translate(-214.536,-326.505)"
     id="remove-hover">
    <path
       d="m 252.536,359.505 a 8,8 0 0 0 -8,8 8,8 0 0 0 8,8 8,8 0 0 0 8,-8 8,8 0 0 0 -8,-8 z m 0,1.5 a 6.5,6.5 0 0 1 6.5,6.5 6.5,6.5 0 0 1 -6.5,6.5 6.5,6.5 0 0 1 -6.5,-6.5 6.5,6.5 0 0 1 6.5,-6.5 z m -4,5.5 v 2 h 8 v -2 z"
       id="path22"
       inkscape:connector-curvature="0"
       style="fill:#e6e6e6" />
    <circle
       r="6.5"
       cx="252.536"
       cy="367.505"
       id="circle24"
       style="fill:url(#c)" />
  </g>
  <g
     id="remove-pressed">
    <path
       id="path28"
       fill="#e6e6e6"
       d="M66 33a8 8 0 0 0-8 8 8 8 0 0 0 8 8 8 8 0 0 0 8-8 8 8 0 0 0-8-8zm0 1.5a6.5 6.5 0 0 1 6.5 6.5 6.5 6.5 0 0 1-6.5 6.5 6.5 6.5 0 0 1-6.5-6.5 6.5 6.5 0 0 1 6.5-6.5zM62 40v2h8v-2z" />
  </g>
  <g
     transform="translate(-214.536,-326.505)"
     id="open-hover">
    <circle
       r="6.5"
       cx="253.536"
       cy="393.505"
       id="circle30"
       style="fill:url(#d)" />
    <path
       d="m 253.536,385.505 a 8,8 0 0 0 -8,8 8,8 0 0 0 8,8 8,8 0 0 0 8,-8 8,8 0 0 0 -8,-8 z m 0,1.5 a 6.5,6.5 0 0 1 6.5,6.5 6.5,6.5 0 0 1 -6.5,6.5 6.5,6.5 0 0 1 -6.5,-6.5 6.5,6.5 0 0 1 6.5,-6.5 z m 0,2.5 -4,4 h 3 v 3 h 2 v -3 h 3 z"
       id="path32"
       inkscape:connector-curvature="0"
       style="fill:#e6e6e6" />
  </g>
  <g
     id="open-pressed">
    <path
       style="fill:#e6e6e6"
       inkscape:connector-curvature="0"
       id="path36"
       d="m 66,59 a 8,8 0 0 0 -8,8 8,8 0 0 0 8,8 8,8 0 0 0 8,-8 8,8 0 0 0 -8,-8 z m 0,1.5 A 6.5,6.5 0 0 1 72.5,67 6.5,6.5 0 0 1 66,73.5 6.5,6.5 0 0 1 59.5,67 6.5,6.5 0 0 1 66,60.5 Z m 0,2.5 -4,4 h 3 v 3 h 2 v -3 h 3 z" />
  </g>
</svg>
