<?xml version="1.0" encoding="UTF-8" standalone="no"?>
<!-- Created with Inkscape (http://www.inkscape.org/) -->

<svg
   xmlns:dc="http://purl.org/dc/elements/1.1/"
   xmlns:cc="http://creativecommons.org/ns#"
   xmlns:rdf="http://www.w3.org/1999/02/22-rdf-syntax-ns#"
   xmlns:svg="http://www.w3.org/2000/svg"
   xmlns="http://www.w3.org/2000/svg"
   xmlns:sodipodi="http://sodipodi.sourceforge.net/DTD/sodipodi-0.dtd"
   xmlns:inkscape="http://www.inkscape.org/namespaces/inkscape"
   width="22"
   height="22"
   viewBox="0 0 22 22"
   id="svg2"
   version="1.1"
   inkscape:version="0.92.4 (5da689c313, 2019-01-14)"
   sodipodi:docname="vlc.svg">
  <sodipodi:namedview
     pagecolor="#ffffff"
     bordercolor="#666666"
     borderopacity="1"
     objecttolerance="10"
     gridtolerance="10"
     guidetolerance="10"
     inkscape:pageopacity="0"
     inkscape:pageshadow="2"
     inkscape:window-width="1366"
     inkscape:window-height="708"
     id="namedview13"
     showgrid="false"
     inkscape:zoom="4.2104995"
     inkscape:cx="9.5305344"
     inkscape:cy="11"
     inkscape:window-x="0"
     inkscape:window-y="0"
     inkscape:window-maximized="1"
     inkscape:current-layer="layer1" />
  <defs
     id="defs4">
    <style
       type="text/css"
       id="current-color-scheme">
      .ColorScheme-Text {
        color:#00ff00;
      }
      .ColorScheme-Background {
        color:#ff0000;
      }
      .ColorScheme-Highlight {
        color:#0000ff;
      }
      .ColorScheme-ButtonHover {
        color:#ffff00;
      }
      .ColorScheme-ButtonFocus{
        color:#ff00ff;
      }
      .ColorScheme-NegativeText {
        color:#00ffff;
      }
  </style>
  </defs>
  <metadata
     id="metadata7">
    <rdf:RDF>
      <cc:Work
         rdf:about="">
        <dc:format>image/svg+xml</dc:format>
        <dc:type
           rdf:resource="http://purl.org/dc/dcmitype/StillImage" />
        <dc:title></dc:title>
      </cc:Work>
    </rdf:RDF>
  </metadata>
  <g
     inkscape:label="Layer 1"
     inkscape:groupmode="layer"
     id="layer1"
     transform="translate(0,-1030.3621)">
    <g
       id="vlc">
      <rect
         y="1030.3621"
         x="0"
         height="22"
         width="22"
         id="rect4246"
         style="opacity:1;fill:none;fill-opacity:1;stroke:none;stroke-width:3.29999995;stroke-linecap:butt;stroke-linejoin:round;stroke-miterlimit:4;stroke-dasharray:none;stroke-opacity:1" />
      <path
         id="path4"
         class="ColorScheme-Highlight"
         d="m 11.086386,1033.4161 c -0.478418,0 -0.991011,0.1308 -1.545817,0.4221 l -0.781954,2.762 c 1.57999,0.79 3.095655,0.6695 4.573127,0 l -0.894523,-2.8423 a 2.9066987,2.9066987 0 0 0 -1.350833,-0.3418 z m -3.264508,6.3603 -0.880452,2.9769 c 2.93082,1.3569 5.668666,1.2544 8.18137,-0.1005 l -0.8503,-2.8745 c -2.106652,0.6854 -4.239436,0.969 -6.450618,0 z m 7.300918,2.8744 0.719641,2.4928 c -2.243344,1.992 -6.981304,2.7317 -9.608589,0.028 l 0.707578,-2.4182 -1.507624,0.01 -2.386066,5.5944 c -0.006,0.3335 0.04824,0.8019 0.645263,0.9327 l 14.694306,0.024 c 0.631193,-0.3879 0.582949,-0.6574 0.546767,-0.995 l -2.347874,-5.6345 z"
         style="opacity:1;fill:currentColor;fill-opacity:1;stroke-width:2.01016474"
         inkscape:connector-curvature="0" />
    </g>
    <path
       style="font-style:normal;font-variant:normal;font-weight:normal;font-stretch:normal;font-size:16px;line-height:1.25;font-family:'Abyssinica SIL';-inkscape-font-specification:'Abyssinica SIL';letter-spacing:0px;word-spacing:0px;fill:#ffffff;fill-opacity:1;stroke:none;stroke-width:0.41620618"
       d="m 0.31527793,988.90332 c -0.0522,0 -0.10131,0.012 -0.14746,0.035 -0.0461,0.021 -0.0873,0.051 -0.12338,0.091 -0.0341,0.04 -0.0612,0.087 -0.0813,0.1405 -0.0201,0.054 -0.0301,0.1113 -0.0301,0.1722 0,0.061 0.01,0.1195 0.0301,0.1757 0.0201,0.054 0.0471,0.1007 0.0813,0.1405 0.0361,0.04 0.0772,0.071 0.12338,0.095 0.0462,0.023 0.0953,0.035 0.14746,0.035 0.0522,0 0.10132,-0.012 0.14746,-0.035 0.0461,-0.023 0.0863,-0.055 0.12037,-0.095 0.0341,-0.04 0.0602,-0.087 0.0783,-0.1405 0.0201,-0.056 0.0301,-0.1148 0.0301,-0.1757 0,-0.061 -0.01,-0.1183 -0.0301,-0.1722 -0.0181,-0.054 -0.0441,-0.1007 -0.0783,-0.1405 -0.0341,-0.04 -0.0742,-0.07 -0.12037,-0.091 -0.0461,-0.023 -0.0953,-0.035 -0.14746,-0.035 z m 12.72650007,0.527 c -0.21065,0 -0.40526,0.042 -0.58381,0.1265 -0.17655,0.084 -0.32902,0.2202 -0.45742,0.4075 -0.12639,0.1874 -0.2257,0.4334 -0.29792,0.7379 -0.0722,0.3021 -0.10834,0.671 -0.10834,1.1067 0,0.438 0.0371,0.7987 0.11135,1.0821 0.0742,0.2811 0.17353,0.5036 0.29792,0.6675 0.12439,0.164 0.26783,0.2788 0.43034,0.3444 0.1625,0.063 0.33203,0.095 0.50857,0.095 0.17655,0 0.34808,-0.03 0.5146,-0.091 0.16852,-0.061 0.31699,-0.1546 0.44538,-0.2811 0.1284,-0.1265 0.23172,-0.2869 0.30997,-0.4813 0.0782,-0.1945 0.11736,-0.4252 0.11736,-0.6922 0,-0.178 -0.0181,-0.3373 -0.0542,-0.4778 -0.0341,-0.1405 -0.0812,-0.2635 -0.14144,-0.3689 -0.0582,-0.1078 -0.12739,-0.1979 -0.20764,-0.2705 -0.0782,-0.075 -0.1615,-0.1359 -0.24978,-0.1827 -0.0883,-0.047 -0.17855,-0.081 -0.27084,-0.1019 -0.0923,-0.021 -0.18056,-0.032 -0.26482,-0.032 -0.11034,0 -0.21166,0.012 -0.30394,0.035 -0.0923,0.023 -0.17555,0.055 -0.24978,0.095 -0.0742,0.038 -0.13943,0.082 -0.19561,0.1335 -0.0562,0.052 -0.10432,0.1054 -0.14444,0.1616 0.0301,-0.3232 0.0672,-0.5856 0.11134,-0.787 0.0462,-0.2014 0.10132,-0.3584 0.16552,-0.4708 0.0642,-0.1124 0.13943,-0.1885 0.2257,-0.2284 0.0863,-0.04 0.18357,-0.06 0.2919,-0.06 0.0943,0 0.17254,0.019 0.23473,0.056 0.0622,0.037 0.11235,0.085 0.15047,0.1441 0.0381,0.056 0.0642,0.1206 0.0782,0.1932 0.0161,0.07 0.0241,0.1382 0.0241,0.2038 h 0.65302 c 0,-0.1499 -0.0271,-0.2893 -0.0813,-0.4181 -0.0542,-0.1288 -0.13141,-0.2412 -0.23172,-0.3373 -0.10031,-0.096 -0.22068,-0.171 -0.36112,-0.2248 -0.14044,-0.056 -0.29592,-0.084 -0.46645,-0.084 z m -6.7920801,0.1335 c -0.0241,0.037 -0.0702,0.09 -0.13843,0.1581 -0.0682,0.068 -0.14445,0.1394 -0.22871,0.2143 -0.0843,0.073 -0.17153,0.1417 -0.26181,0.2073 -0.0883,0.066 -0.16652,0.1148 -0.23473,0.1476 v 0.6921 c 0.0602,-0.021 0.13041,-0.05 0.21065,-0.088 0.0802,-0.04 0.16151,-0.083 0.24376,-0.13 0.0823,-0.049 0.1605,-0.1007 0.23473,-0.1546 0.0762,-0.056 0.14044,-0.1124 0.1926,-0.1686 v 3.5555 h 0.62895 v -4.4338 z m 3.55704,0 -1.57087,2.628 v 0.8573 h 1.8116201 v 0.9486 h 0.62293 v -0.9486 h 0.40626 v -0.643 h -0.40626 v -2.8423 z m 6.6566601,0 -1.57087,2.628 v 0.8573 h 1.81162 v 0.9486 h 0.62293 v -0.9486 h 0.40626 v -0.643 h -0.40626 v -2.8423 z m -6.41591,0.5341 v 2.3082 H 8.7023079 Z m 6.65666,0 v 2.3082 h -1.34518 z m -16.33169007,0.3443 -0.75835,0.274 v 0.2389 h 0.43635 v 3.1937 c 0,0.1382 -0.005,0.2693 -0.015,0.3935 -0.008,0.1265 -0.0241,0.2401 -0.0482,0.3408 -0.0221,0.103 -0.0522,0.1909 -0.0903,0.2635 -0.0381,0.075 -0.0853,0.1312 -0.14143,0.1686 l -0.59886,-0.4813 c -0.0301,0.012 -0.0612,0.028 -0.0933,0.049 -0.0321,0.023 -0.0602,0.052 -0.0843,0.084 -0.0261,0.035 -0.0471,0.075 -0.0632,0.1195 -0.0161,0.047 -0.0241,0.1007 -0.0241,0.1616 0,0.068 0.013,0.1265 0.0391,0.1756 0.0241,0.052 0.0582,0.094 0.10231003,0.1265 0.0421,0.033 0.0913,0.056 0.14746,0.07 0.0562,0.016 0.11636,0.025 0.18056,0.025 0.19461,0 0.38118,-0.055 0.55974,-0.1651 0.18056,-0.1078 0.33404,-0.2752 0.46043,-0.5024 0.0522,-0.096 0.0943,-0.205 0.12639,-0.3268 0.0321,-0.1218 0.0562,-0.2471 0.0722,-0.3759 0.0181,-0.1288 0.0301,-0.2565 0.0361,-0.383 0.006,-0.1288 0.009,-0.2471 0.009,-0.3548 v -3.0953 z m 1.69425997,0 -0.75836,0.281 v 0.246 h 0.43034 v 1.9499 c 0,0.2038 0.0191,0.3794 0.0572,0.527 0.0401,0.1452 0.0963,0.2659 0.16852,0.3619 0.0742,0.094 0.16351,0.1628 0.26783,0.2073 0.10633,0.047 0.2257,0.07 0.35811,0.07 0.0903,0 0.18257,-0.018 0.27686,-0.053 0.0963,-0.033 0.18759,-0.074 0.27385,-0.123 0.0883,-0.052 0.16953,-0.1066 0.24376,-0.1651 0.0762,-0.059 0.14044,-0.1113 0.1926,-0.1581 v 0.4111 h 0.97803 v -0.2811 l -0.27084,-0.021 c -0.0361,0 -0.0682,-0.021 -0.0963,-0.049 -0.0261,-0.028 -0.0391,-0.064 -0.0391,-0.1089 v -3.0953 h -0.25278 l -0.75234,0.281 v 0.246 h 0.43335 v 2.4102 c -0.0361,0.021 -0.0802,0.045 -0.13241,0.07 -0.0502,0.023 -0.10433,0.047 -0.16251,0.07 -0.0582,0.021 -0.11937,0.039 -0.18357,0.053 -0.0642,0.014 -0.12739,0.021 -0.18959,0.021 -0.10833,0 -0.20062,-0.018 -0.27686,-0.053 -0.0762,-0.038 -0.13843,-0.091 -0.18657,-0.1617 -0.0462,-0.07 -0.0802,-0.1557 -0.10232,-0.2564 -0.0201,-0.1007 -0.0301,-0.2143 -0.0301,-0.3408 v -2.3399 z m 10.9028401,1.0434 c 0.0983,0 0.19059,0.027 0.27686,0.081 0.0863,0.052 0.1605,0.123 0.22269,0.2144 0.0642,0.089 0.11435,0.1944 0.15047,0.3162 0.0381,0.1218 0.0572,0.2518 0.0572,0.3899 0,0.1382 -0.0191,0.2694 -0.0572,0.3935 -0.0361,0.1218 -0.0863,0.2284 -0.15047,0.3198 -0.0622,0.091 -0.13642,0.1639 -0.22269,0.2178 -0.0863,0.052 -0.17856,0.077 -0.27686,0.077 -0.0963,0 -0.18758,-0.026 -0.27385,-0.077 -0.0863,-0.054 -0.16251,-0.1265 -0.22871,-0.2178 -0.0642,-0.091 -0.11536,-0.198 -0.15348,-0.3198 -0.0361,-0.1241 -0.0542,-0.2553 -0.0542,-0.3935 0,-0.1381 0.0181,-0.2681 0.0542,-0.3899 0.0381,-0.1218 0.0893,-0.2272 0.15348,-0.3162 0.0662,-0.091 0.14244,-0.1628 0.22871,-0.2144 0.0863,-0.054 0.17755,-0.081 0.27385,-0.081 z"
       id="text843"
       inkscape:connector-curvature="0" />
  </g>
</svg>
