<?xml version="1.0" encoding="UTF-8" standalone="no"?>
<svg
   xmlns:dc="http://purl.org/dc/elements/1.1/"
   xmlns:cc="http://creativecommons.org/ns#"
   xmlns:rdf="http://www.w3.org/1999/02/22-rdf-syntax-ns#"
   xmlns:svg="http://www.w3.org/2000/svg"
   xmlns="http://www.w3.org/2000/svg"
   xmlns:sodipodi="http://sodipodi.sourceforge.net/DTD/sodipodi-0.dtd"
   xmlns:inkscape="http://www.inkscape.org/namespaces/inkscape"
   id="svg24"
   width="30"
   height="30"
   version="1.1"
   sodipodi:docname="bar_meter_horizontal.svg"
   inkscape:version="0.92.4 (5da689c313, 2019-01-14)">
  <metadata
     id="metadata29">
    <rdf:RDF>
      <cc:Work
         rdf:about="">
        <dc:format>image/svg+xml</dc:format>
        <dc:type
           rdf:resource="http://purl.org/dc/dcmitype/StillImage" />
        <dc:title></dc:title>
      </cc:Work>
    </rdf:RDF>
  </metadata>
  <defs
     id="defs27" />
    <style
       type="text/css"
       id="current-color-scheme">
      .ColorScheme-Text {
        color:#00ff00;
      }
      .ColorScheme-Background {
        color:#ff0000;
      }
      .ColorScheme-Highlight {
        color:#0000ff;
      }
      .ColorScheme-ButtonHover {
        color:#ffff00;
      }
      .ColorScheme-ButtonFocus{
        color:#ff00ff;
      }
  </style>
  <sodipodi:namedview
     pagecolor="#ffffff"
     bordercolor="#666666"
     borderopacity="1"
     objecttolerance="10"
     gridtolerance="10"
     guidetolerance="10"
     inkscape:pageopacity="0"
     inkscape:pageshadow="2"
     inkscape:window-width="1366"
     inkscape:window-height="717"
     id="namedview25"
     showgrid="false"
     inkscape:zoom="8.4666667"
     inkscape:cx="-12.57874"
     inkscape:cy="15"
     inkscape:window-x="0"
     inkscape:window-y="25"
     inkscape:window-maximized="1"
     inkscape:current-layer="svg24" />
  <rect
     id="hint-tile-center"
     width="1"
     height="1"
     x="0"
     y="3"
     style="fill:#ff2a2a" />
  <rect
     id="hint-bar-size"
     width="3"
     height="3"
     x="3"
     y="0"
     style="fill:#ff2a2a" />
  <path
     id="bar-inactive-bottomright"
     d="m 14,17 0,1 1,0 0,-1 z"
     class="ColorScheme-Highlight"
     style="fill:currentColor;opacity:0.12;fill-opacity:1" />
  <path
     id="bar-inactive-right"
     class="ColorScheme-Highlight"
     d="m 14,15 0,1 1,0 0,-1 -1,0 z"
     style="fill:currentColor;opacity:0.12;fill-opacity:1" />
  <path
     id="bar-inactive-topright"
     class="ColorScheme-Highlight"
     d="m 14,13 0,1 1,0 0,-1 z"
     style="fill:currentColor;opacity:0.12;fill-opacity:1" />
  <path
     id="bar-inactive-bottomleft"
     class="ColorScheme-Highlight"
     d="m 10,17 0,1 1,0 0,-1 z"
     style="fill:currentColor;opacity:0.12;fill-opacity:1" />
  <path
     id="bar-inactive-left"
     class="ColorScheme-Highlight"
     d="m 10,15 0,1 1,0 0,-1 -1,0 z"
     style="fill:currentColor;opacity:0.12;fill-opacity:1" />
  <path
     id="bar-inactive-topleft"
     class="ColorScheme-Highlight"
     d="m 11,13 -1,0 0,1 1,0 z"
     style="fill:currentColor;opacity:0.12;fill-opacity:1" />
  <path
     id="bar-inactive-bottom"
     class="ColorScheme-Highlight"
     d="m 12,17 0,1 1,0 0,-1 -1,0 z"
     style="fill:currentColor;opacity:0.12;fill-opacity:1" />
  <path
     id="bar-inactive-center"
     class="ColorScheme-Highlight"
     d="m 13,15 -1,0 0,1 1,0 0,-1 z"
     style="fill:currentColor;opacity:0.12;fill-opacity:1" />
  <path
     id="bar-inactive-top"
     class="ColorScheme-Highlight"
     d="m 12,13 0,1 1,0 0,-1 -1,0 z"
     style="fill:currentColor;opacity:0.12;fill-opacity:1" />
  <path
     id="bar-active-bottomright"
     class="ColorScheme-Highlight"
     d="m 14,26 0,1 1,0 0,-1 z"
     style="fill:currentColor;fill-opacity:1" />
  <path
     id="bar-active-right"
     class="ColorScheme-Highlight"
     d="m 14,24 0,1 1,0 0,-1 -1,0 z"
     style="fill:currentColor;fill-opacity:1" />
  <path
     id="bar-active-topright"
     class="ColorScheme-Highlight"
     d="m 14,22 0,1 1,0 0,-1 z"
     style="fill:currentColor;fill-opacity:1" />
  <path
     id="bar-active-bottomleft"
     class="ColorScheme-Highlight"
     d="m 10,26 0,1 1,0 0,-1 z"
     style="fill:currentColor;fill-opacity:1" />
  <path
     id="bar-active-left"
     class="ColorScheme-Highlight"
     d="m 10,24 0,1 1,0 0,-1 -1,0 z"
     style="fill:currentColor;fill-opacity:1" />
  <path
     id="bar-active-topleft"
     class="ColorScheme-Highlight"
     d="m 11,22 -1,0 0,1 1,0 z"
     style="fill:currentColor;fill-opacity:1" />
  <path
     id="bar-active-bottom"
     class="ColorScheme-Highlight"
     d="m 12,26 0,1 1,0 0,-1 -1,0 z"
     style="fill:currentColor;fill-opacity:1" />
  <path
     id="bar-active-center"
     class="ColorScheme-Highlight"
     d="m 13,24 -1,0 0,1 1,0 0,-1 z"
     style="fill:currentColor;fill-opacity:1" />
  <path
     id="bar-active-top"
     class="ColorScheme-Highlight"
     d="m 12,22 0,1 1,0 0,-1 -1,0 z"
     style="fill:currentColor;fill-opacity:1" />
  <rect
     id="hint-stretch-borders"
     width="1"
     height="1"
     x="0"
     y="8"
     style="fill:#ff2a2a" />
  <rect
     id="hint-bar-stretch"
     width="1"
     height="1"
     x="0"
     y="13"
     style="fill:#ff2a2a" />
</svg>
