<?xml version="1.0" encoding="UTF-8" standalone="no"?>
<svg
   xmlns:dc="http://purl.org/dc/elements/1.1/"
   xmlns:cc="http://creativecommons.org/ns#"
   xmlns:rdf="http://www.w3.org/1999/02/22-rdf-syntax-ns#"
   xmlns:svg="http://www.w3.org/2000/svg"
   xmlns="http://www.w3.org/2000/svg"
   xmlns:sodipodi="http://sodipodi.sourceforge.net/DTD/sodipodi-0.dtd"
   xmlns:inkscape="http://www.inkscape.org/namespaces/inkscape"
   width="744.094"
   height="1052.362"
   version="1.1"
   id="svg97"
   sodipodi:docname="tabbar.svg"
   inkscape:version="0.92.4 (5da689c313, 2019-01-14)">
  <metadata
     id="metadata103">
    <rdf:RDF>
      <cc:Work
         rdf:about="">
        <dc:format>image/svg+xml</dc:format>
        <dc:type
           rdf:resource="http://purl.org/dc/dcmitype/StillImage" />
        <dc:title></dc:title>
      </cc:Work>
    </rdf:RDF>
  </metadata>
  <defs
     id="defs101" />
  <style
     type="text/css"
     id="current-color-scheme">
      .ColorScheme-Text {
        color:#00ff00;
      }
      .ColorScheme-Background {
        color:#ff0000;
      }
      .ColorScheme-Highlight {
        color:#0000ff;
      }
      .ColorScheme-ButtonHover {
        color:#ffff00;
      }
      .ColorScheme-ButtonFocus{
        color:#ff00ff;
      }
  </style>
  <sodipodi:namedview
     pagecolor="#ffffff"
     bordercolor="#666666"
     borderopacity="1"
     objecttolerance="10"
     gridtolerance="10"
     guidetolerance="10"
     inkscape:pageopacity="0"
     inkscape:pageshadow="2"
     inkscape:window-width="1366"
     inkscape:window-height="708"
     id="namedview99"
     showgrid="false"
     inkscape:zoom="0.24943887"
     inkscape:cx="336.96826"
     inkscape:cy="526.18103"
     inkscape:window-x="0"
     inkscape:window-y="0"
     inkscape:window-maximized="1"
     inkscape:current-layer="svg97" />
  <rect
     id="hint-tile-center"
     style="opacity:0.875;fill:#008000"
     width="41.363"
     height="41.121"
     x="-233.82"
     y="467.13" />
  <g
     id="south-active-tab-top"
     transform="matrix(1.04,0,0,0.69282405,232.80001,183.34892)"
     style="fill:currentColor;fill-opacity:1">
    <path
       style="fill:currentColor;fill-opacity:1"
       class="ColorScheme-Highlight"
       d="m 40,359.36218 h 80 v 3 H 40 Z"
       id="path3"
       inkscape:connector-curvature="0" />
  </g>
  <g
     id="south-active-tab-topleft"
     transform="matrix(1.04,0,0,0.69282405,232.80001,183.34892)"
     style="fill:currentColor;fill-opacity:1">
    <rect
       style="opacity:0;fill:#000000;fill-opacity:1"
       width="10"
       height="3"
       x="30"
       y="359.35999"
       id="rect6" />
    <path
       style="fill:currentColor;fill-opacity:1"
       class="ColorScheme-Highlight"
       d="m 39.999989,359.36221 v 2.99998 c -4.002873,10e-6 -6.999999,-1.1e-4 -6.999999,-1.1e-4 0,0 0,-0.50072 0,-1 1e-6,-0.60192 0,-2 0,-2 0,0 3.407671,1.2e-4 6.999999,1.3e-4 z"
       id="path8"
       inkscape:connector-curvature="0" />
  </g>
  <g
     id="south-active-tab-topright"
     transform="matrix(1.04,0,0,0.69282405,232.80001,183.34892)"
     style="fill:currentColor;fill-opacity:1">
    <rect
       style="opacity:0;fill:#000000;fill-opacity:1"
       width="10"
       height="3"
       x="120"
       y="359.35999"
       id="rect11" />
    <path
       style="fill:currentColor;fill-opacity:1"
       class="ColorScheme-Highlight"
       d="m 119.99999,359.36221 c 3.67335,-1e-5 7,-1.3e-4 7,-1.3e-4 0,0 0,0.91846 0,1.50012 0,0.54321 0,1.49988 0,1.49988 0,0 -3.17283,1.2e-4 -7,1.1e-4 z"
       id="path13"
       inkscape:connector-curvature="0" />
  </g>
  <rect
     id="south-active-tab-left"
     style="opacity:0;fill:#e4e6e8"
     width="10"
     height="12"
     x="266"
     y="434.36" />
  <rect
     id="south-active-tab-center"
     style="opacity:0;fill:#e4e6e8"
     width="80"
     height="12"
     x="276"
     y="434.36" />
  <rect
     id="south-active-tab-right"
     style="opacity:0;fill:#e4e6e8"
     width="10"
     height="12"
     x="356"
     y="434.36" />
  <rect
     id="south-active-tab-bottomright"
     style="opacity:0;fill:#e4e6e8"
     width="10"
     height="4"
     x="356"
     y="446.36" />
  <rect
     id="south-active-tab-bottom"
     style="opacity:0;fill:#e4e6e8"
     width="80"
     height="4"
     x="276"
     y="446.36" />
  <rect
     id="south-active-tab-bottomleft"
     style="opacity:0;fill:#e4e6e8"
     width="10"
     height="4"
     x="266"
     y="446.36" />
  <rect
     id="south-active-tab-hint-left-margin"
     style="fill:#4e9a06"
     width="6"
     height="5"
     x="266"
     y="437.36" />
  <rect
     id="south-active-tab-hint-right-margin"
     style="fill:#4e9a06"
     width="6"
     height="5"
     x="360"
     y="437.36" />
  <rect
     id="south-active-tab-hint-top-margin"
     style="fill:#4e9a06"
     width="5"
     height="8"
     x="314"
     y="432.36" />
  <rect
     id="south-active-tab-hint-bottom-margin"
     style="fill:#4e9a06"
     width="5"
     height="4"
     x="314"
     y="446.36" />
  <rect
     id="east-active-tab-bottom"
     style="opacity:0;fill:#e4e6e8"
     width="10"
     height="12"
     x="-366.06"
     y="409"
     transform="matrix(0,-1,1,0,0,0)" />
  <rect
     id="east-active-tab-center"
     style="opacity:0;fill:#e4e6e8"
     width="80"
     height="12"
     x="-356.06"
     y="409"
     transform="matrix(0,-1,1,0,0,0)" />
  <rect
     id="east-active-tab-top"
     style="opacity:0;fill:#e4e6e8"
     width="10"
     height="12"
     x="-276.06"
     y="409"
     transform="matrix(0,-1,1,0,0,0)" />
  <rect
     id="east-active-tab-topright"
     style="opacity:0;fill:#e4e6e8"
     width="10"
     height="4"
     x="-276.06"
     y="421"
     transform="matrix(0,-1,1,0,0,0)" />
  <rect
     id="east-active-tab-right"
     style="opacity:0;fill:#e4e6e8"
     width="80"
     height="4"
     x="-356.06"
     y="421"
     transform="matrix(0,-1,1,0,0,0)" />
  <rect
     id="east-active-tab-bottomright"
     style="opacity:0;fill:#e4e6e8"
     width="10"
     height="4"
     x="-366.06"
     y="421"
     transform="matrix(0,-1,1,0,0,0)" />
  <rect
     id="east-active-tab-hint-bottom-margin"
     style="fill:#4e9a06"
     width="6"
     height="5"
     x="-366.36"
     y="412"
     transform="matrix(0,-1,1,0,0,0)" />
  <rect
     id="east-active-tab-hint-top-margin"
     style="fill:#4e9a06"
     width="6"
     height="5"
     x="-272.36"
     y="412"
     transform="matrix(0,-1,1,0,0,0)" />
  <g
     id="east-active-tab-left"
     transform="matrix(0,1,-0.66570362,0,646.22559,236.36218)"
     style="fill:currentColor;fill-opacity:1">
    <path
       style="fill:currentColor;fill-opacity:1"
       class="ColorScheme-Highlight"
       d="m 40,359.36218 80,0 0,3 -80,0 z"
       id="path34" />
  </g>
  <rect
     id="east-active-tab-hint-left-margin"
     style="fill:#4e9a06"
     width="5"
     height="8"
     x="-312.36"
     y="405"
     transform="matrix(0,-1,1,0,0,0)" />
  <rect
     id="east-active-tab-hint-right-margin"
     style="fill:#4e9a06"
     width="5"
     height="4"
     x="-312.36"
     y="421"
     transform="matrix(0,-1,1,0,0,0)" />
  <rect
     id="west-active-tab-top"
     style="opacity:0;fill:#e4e6e8"
     width="10"
     height="12"
     x="266.36"
     y="-216"
     transform="matrix(0,1,-1,0,0,0)" />
  <rect
     id="west-active-tab-center"
     style="opacity:0;fill:#e4e6e8"
     width="80"
     height="12"
     x="276.36"
     y="-216"
     transform="matrix(0,1,-1,0,0,0)" />
  <rect
     id="west-active-tab-bottom"
     style="opacity:0;fill:#e4e6e8"
     width="10"
     height="12"
     x="356.36"
     y="-216"
     transform="matrix(0,1,-1,0,0,0)" />
  <rect
     id="west-active-tab-bottomleft"
     style="opacity:0;fill:#e4e6e8"
     width="10"
     height="4"
     x="356.36"
     y="-204"
     transform="matrix(0,1,-1,0,0,0)" />
  <rect
     id="west-active-tab-left"
     style="opacity:0;fill:#e4e6e8"
     width="80"
     height="4"
     x="276.36"
     y="-204"
     transform="matrix(0,1,-1,0,0,0)" />
  <rect
     id="west-active-tab-topleft"
     style="opacity:0;fill:#e4e6e8"
     width="10"
     height="4"
     x="266.36"
     y="-204"
     transform="matrix(0,1,-1,0,0,0)" />
  <rect
     id="west-active-tab-hint-top-margin"
     style="fill:#4e9a06"
     width="6"
     height="5"
     x="266.36"
     y="-213"
     transform="matrix(0,1,-1,0,0,0)" />
  <rect
     id="west-active-tab-hint-bottom-margin"
     style="fill:#4e9a06"
     width="6"
     height="5"
     x="360.36"
     y="-213"
     transform="matrix(0,1,-1,0,0,0)" />
  <g
     id="west-active-tab-right"
     transform="matrix(0,1,-0.6661771,0,458.39739,236.36218)"
     style="fill:currentColor;fill-opacity:1">
    <path
       style="fill:currentColor;fill-opacity:1"
       class="ColorScheme-Highlight"
       d="m 40,359.36218 80,0 0,3 -80,0 z"
       id="path47" />
  </g>
  <g
     id="west-active-tab-topright"
     transform="matrix(0,1,-0.6661771,0,458.39739,236.36218)"
     style="fill:currentColor;fill-opacity:1">
    <rect
       style="opacity:0;fill:#000000;fill-opacity:1"
       width="10"
       height="3"
       x="30"
       y="359.36"
       id="rect50" />
    <path
       style="fill:currentColor;fill-opacity:1"
       class="ColorScheme-Highlight"
       d="m 39.999989,359.36221 0,2.99998 c -3.767297,0 -7.000108,0 -7.000108,0 0,0 1.1e-4,-0.94183 1.1e-4,-1.5 4e-6,-0.45273 -1.1e-4,-1.5 -1.1e-4,-1.5 0,0 2.811044,10e-6 7.000108,2e-5 z"
       id="path52" />
  </g>
  <g
     id="west-active-tab-bottomright"
     transform="matrix(0,1,-0.6661771,0,458.39739,236.36218)"
     style="fill:currentColor;fill-opacity:1">
    <rect
       style="opacity:0;fill:#000000;fill-opacity:1"
       width="10"
       height="3"
       x="120"
       y="359.36"
       id="rect55" />
    <path
       style="fill:currentColor;fill-opacity:1"
       class="ColorScheme-Highlight"
       d="m 119.99999,359.36221 c 4.70659,-2e-5 6.99989,-2e-5 6.99989,-2e-5 0,0 1.1e-4,1.17665 1.1e-4,1.5 0,0.55726 -1.1e-4,1.5 -1.1e-4,1.5 0,0 -3.22893,0 -6.99989,0 z"
       id="path57" />
  </g>
  <rect
     id="west-active-tab-hint-right-margin"
     style="fill:#4e9a06"
     width="5"
     height="8"
     x="307.36"
     y="-219"
     transform="matrix(0,1,-1,0,0,0)" />
  <rect
     id="west-active-tab-hint-left-margin"
     style="fill:#4e9a06"
     width="5"
     height="4"
     x="307.36"
     y="-204"
     transform="matrix(0,1,-1,0,0,0)" />
  <rect
     id="north-active-tab-right"
     style="opacity:0;fill:#e4e6e8"
     width="10"
     height="12"
     x="-373"
     y="-226.36"
     transform="scale(-1,-1)" />
  <rect
     id="north-active-tab-center"
     style="opacity:0;fill:#e4e6e8"
     width="80"
     height="12"
     x="-363"
     y="-226.36"
     transform="scale(-1,-1)" />
  <rect
     id="north-active-tab-left"
     style="opacity:0;fill:#e4e6e8"
     width="10"
     height="12"
     x="-283"
     y="-226.36"
     transform="scale(-1,-1)" />
  <rect
     id="north-active-tab-topleft"
     style="opacity:0;fill:#e4e6e8"
     width="10"
     height="4"
     x="-283"
     y="-214.36"
     transform="scale(-1,-1)" />
  <rect
     id="north-active-tab-top"
     style="opacity:0;fill:#e4e6e8"
     width="80"
     height="4"
     x="-363"
     y="-214.36"
     transform="scale(-1,-1)" />
  <rect
     id="north-active-tab-topright"
     style="opacity:0;fill:#e4e6e8"
     width="10"
     height="4"
     x="-373"
     y="-214.36"
     transform="scale(-1,-1)" />
  <rect
     id="north-focus-hint-right-margin"
     style="fill:#4e9a06"
     width="6"
     height="5"
     x="-373"
     y="-223.36"
     transform="scale(-1,-1)" />
  <rect
     id="north-focus-hint-left-margin"
     style="fill:#4e9a06"
     width="6"
     height="5"
     x="-279"
     y="-223.36"
     transform="scale(-1,-1)" />
  <g
     id="north-active-tab-bottom"
     transform="matrix(1,0,0,0.66617489,243,-11.034407)"
     style="fill:currentColor;fill-opacity:1">
    <path
       style="fill:currentColor;fill-opacity:1"
       class="ColorScheme-Highlight"
       d="m 40,359.36218 80,0 0,3 -80,0 z"
       id="path70" />
  </g>
  <rect
     id="north-focus-hint-bottom-margin"
     style="fill:#4e9a06"
     width="5"
     height="8"
     x="-319"
     y="-230.36"
     transform="scale(-1,-1)" />
  <rect
     id="north-focus-hint-top-margin"
     style="fill:#4e9a06"
     width="5"
     height="4"
     x="-319"
     y="-214.36"
     transform="scale(-1,-1)" />
  <g
     id="north-active-tab-bottomleft"
     transform="matrix(1,0,0,0.66617489,243,-11.034407)"
     style="fill:currentColor;fill-opacity:1">
    <rect
       style="opacity:0;fill:#000000;fill-opacity:1"
       width="10"
       height="3"
       x="30"
       y="359.36"
       id="rect75" />
    <path
       style="fill:currentColor;fill-opacity:1"
       class="ColorScheme-Highlight"
       d="m 39.999989,359.36221 0,2.99998 c -3.409947,0 -6.999989,-1.2e-4 -6.999989,-1.2e-4 0,0 -6e-6,-0.85237 -1.1e-5,-1.49988 4e-6,-0.61099 1.1e-5,-1.50012 1.1e-5,-1.50012 0,0 7,0 6.999989,1.4e-4 z"
       id="path77" />
  </g>
  <g
     id="north-active-tab-bottomright"
     transform="matrix(1,0,0,0.66617489,0,76.900684)"
     style="fill:currentColor;fill-opacity:1">
    <rect
       style="opacity:0;fill:#000000;fill-opacity:1"
       width="10"
       height="3"
       x="363"
       y="227.36"
       id="rect80" />
    <rect
       style="opacity:0;fill:#000000;fill-opacity:1"
       width="10"
       height="3"
       x="363"
       y="227.36"
       id="rect82" />
    <path
       style="fill:currentColor;fill-opacity:1"
       class="ColorScheme-Highlight"
       d="m 363,227.36221 c 4.05485,-2e-5 7,-1.5e-4 7,-1.5e-4 0,0 0,1.01383 0,1.50012 0,0.61168 0,1.49988 0,1.49988 0,0 -3.44673,1.2e-4 -7,1.3e-4 z"
       id="path84" />
  </g>
  <g
     id="east-active-tab-topleft"
     transform="matrix(0,1,-0.66570362,0,646.22559,236.36218)"
     style="fill:currentColor;fill-opacity:1">
    <rect
       style="opacity:0;fill:#000000;fill-opacity:1"
       width="10"
       height="3"
       x="30"
       y="359.36"
       id="rect87" />
    <path
       style="fill:currentColor;fill-opacity:1"
       class="ColorScheme-Highlight"
       d="m 39.999989,359.36221 0,2.99998 c -4.1908,0.003 -7.000108,2.3e-4 -7.000108,2.3e-4 0,0 0.0047,-1.11514 1.08e-4,-1.58523 0.007,-0.63828 -1.08e-4,-1.41477 -1.08e-4,-1.41477 0,0 3.798335,-0.007 7.000108,-2.1e-4 z"
       id="path89" />
  </g>
  <g
     id="east-active-tab-bottomleft"
     transform="matrix(0,1,-0.66570362,0,646.22559,236.36218)"
     style="fill:currentColor;fill-opacity:1">
    <rect
       style="opacity:0;fill:#000000;fill-opacity:1"
       width="10"
       height="3"
       x="120"
       y="359.36"
       id="rect92" />
    <path
       style="fill:currentColor;fill-opacity:1"
       class="ColorScheme-Highlight"
       d="m 119.99999,359.36221 c 3.69017,0.002 6.99989,2.1e-4 6.99989,2.1e-4 0,0 1.1e-4,0.87118 1.1e-4,1.41477 -10e-4,0.51392 -1.1e-4,1.58523 -1.1e-4,1.58523 0,0 -2.97246,-0.0104 -6.99989,-2.3e-4 z"
       id="path94" />
  </g>
  <path
     style="font-style:normal;font-variant:normal;font-weight:normal;font-stretch:normal;font-size:16px;line-height:1.25;font-family:'Abyssinica SIL';-inkscape-font-specification:'Abyssinica SIL';letter-spacing:0px;word-spacing:0px;fill:#ffffff;fill-opacity:1;stroke:none;stroke-width:5.4018383"
     d="m 309.03345,-290.0145 c -0.65197,0 -1.26534,0.1578 -1.84175,0.47339 -0.57578,0.28457 -1.09036,0.69457 -1.54099,1.23135 -0.4259,0.53677 -0.76438,1.16931 -1.01542,1.89544 -0.25105,0.72694 -0.37594,1.50041 -0.37594,2.32176 0,0.82135 0.12489,1.61114 0.37594,2.36924 0.25104,0.72694 0.58827,1.35839 1.01542,1.89544 0.45088,0.53677 0.96421,0.96296 1.54099,1.2799 0.57703,0.31559 1.19028,0.47339 1.84175,0.47339 0.65197,0 1.26546,-0.1578 1.84174,-0.47339 0.57578,-0.31559 1.07787,-0.74178 1.5034,-1.2799 0.4259,-0.53678 0.75189,-1.16931 0.97795,-1.89544 0.25105,-0.75797 0.37595,-1.54789 0.37595,-2.36924 0,-0.82135 -0.1249,-1.59522 -0.37595,-2.32176 -0.22606,-0.72694 -0.5508,-1.3584 -0.97795,-1.89544 -0.4259,-0.53678 -0.92674,-0.94813 -1.5034,-1.23135 -0.57578,-0.31559 -1.19027,-0.47339 -1.84174,-0.47339 z m 158.95147,7.1077 c -2.63098,0 -5.06162,0.56915 -7.29168,1.70582 -2.20507,1.13694 -4.10939,2.9694 -5.71308,5.49657 -1.57859,2.52716 -2.81895,5.84412 -3.72096,9.95073 -0.90177,4.07505 -1.35315,9.05049 -1.35315,14.92617 0,5.90724 0.46337,10.77208 1.39074,14.59439 0.92674,3.79075 2.16736,6.79184 3.72096,9.00301 1.55361,2.2113 3.34515,3.75919 5.37486,4.64379 2.0296,0.85237 4.14699,1.2799 6.35194,1.2799 2.20508,0 4.34745,-0.41 6.42726,-1.23135 2.10478,-0.82135 3.95914,-2.08493 5.5627,-3.79074 1.60369,-1.70582 2.89414,-3.86979 3.87147,-6.49163 0.9767,-2.62198 1.4658,-5.73353 1.4658,-9.33479 0,-2.40079 -0.22607,-4.54898 -0.67695,-6.44429 -0.4259,-1.89544 -1.01417,-3.55392 -1.76655,-4.97543 -0.72691,-1.45307 -1.59108,-2.66932 -2.59339,-3.6486 -0.9767,-1.01151 -2.0171,-1.83219 -3.1197,-2.46391 -1.10285,-0.63253 -2.23005,-1.08974 -3.38274,-1.37417 -1.15281,-0.28458 -2.25516,-0.42619 -3.30755,-0.42619 -1.37812,0 -2.64359,0.1578 -3.79615,0.47339 -1.15281,0.31559 -2.19258,0.74178 -3.1197,1.2799 -0.92674,0.50576 -1.74145,1.10592 -2.44313,1.80063 -0.70193,0.69457 -1.30294,1.42151 -1.80403,2.17975 0.37595,-4.35936 0.83932,-7.8975 1.39062,-10.61416 0.57703,-2.71679 1.26546,-4.83328 2.06731,-6.3496 0.80184,-1.5162 1.74145,-2.54295 2.81895,-3.08 1.07787,-0.53677 2.29275,-0.80516 3.64577,-0.80516 1.17779,0 2.15499,0.2522 2.93173,0.75796 0.77687,0.50576 1.40323,1.15312 1.87934,1.94278 0.47586,0.75796 0.80185,1.62692 0.9767,2.6062 0.20109,0.94812 0.30101,1.86375 0.30101,2.74821 h 8.15609 c 0,-2.02167 -0.33847,-3.90134 -1.01542,-5.63871 -0.67695,-1.73738 -1.64129,-3.25371 -2.89414,-4.54898 -1.25285,-1.29474 -2.75625,-2.30598 -4.51032,-3.03252 -1.75406,-0.75796 -3.69598,-1.13694 -5.82586,-1.13694 z m -84.83174,1.80063 c -0.301,0.50576 -0.87678,1.21652 -1.72896,2.13228 -0.85181,0.91575 -1.80416,1.87952 -2.85655,2.89036 -1.05289,0.97915 -2.14237,1.91122 -3.26995,2.79569 -1.10285,0.88474 -2.0798,1.54789 -2.93173,1.99026 v 9.33465 c 0.75188,-0.28457 1.62879,-0.67974 2.63097,-1.18415 1.00169,-0.53677 2.01723,-1.12075 3.04452,-1.75329 1.02791,-0.66355 2.00461,-1.35826 2.93173,-2.08493 0.95172,-0.75796 1.75407,-1.51619 2.40554,-2.27442 v 47.95317 h 7.85546 v -59.79921 z m 44.42673,0 -19.61986,35.44358 v 11.56174 h 22.62678 v 12.79389 h 7.78027 v -12.79389 h 5.0741 v -8.67137 h -5.0741 v -38.33395 z m 83.14036,0 -19.61985,35.44358 v 11.56174 h 22.62677 v 12.79389 h 7.78027 v -12.79389 h 5.07411 v -8.67137 h -5.07411 v -38.33395 z m -80.13344,7.20239 v 31.13156 h -16.80104 z m 83.14036,0 v 31.13156 h -16.80103 z m -203.97957,4.64365 -9.47165,3.69608 v 3.22214 h 5.44993 v 43.07241 c 0,1.86389 -0.0625,3.63282 -0.18735,5.30708 -0.0999,1.70581 -0.301,3.23792 -0.60201,4.59632 -0.27602,1.38995 -0.65196,2.5745 -1.12783,3.55392 -0.47586,1.01151 -1.06538,1.76893 -1.76643,2.27442 l -7.47964,-6.49176 c -0.37594,0.15779 -0.76438,0.37898 -1.1653,0.66355 -0.40092,0.31559 -0.75189,0.69457 -1.05289,1.13694 -0.32598,0.47339 -0.58827,1.01152 -0.78936,1.61114 -0.20108,0.63119 -0.301,1.35826 -0.301,2.17961 0,0.91576 0.16237,1.70595 0.48835,2.36924 0.30101,0.69457 0.72691,1.26371 1.27783,1.70581 0.52582,0.44237 1.14032,0.75796 1.84175,0.94813 0.70193,0.22118 1.45331,0.33178 2.25516,0.33178 2.43064,0 4.76086,-0.74178 6.99104,-2.22709 2.25516,-1.45321 4.17209,-3.71185 5.75068,-6.77606 0.65197,-1.29474 1.17779,-2.76413 1.57859,-4.40669 0.40092,-1.6427 0.70192,-3.33274 0.90176,-5.07012 0.22606,-1.73751 0.37594,-3.4591 0.45088,-5.16492 0.0749,-1.73751 0.11241,-3.33274 0.11241,-4.78594 v -41.74572 z m 21.16097,0 -9.47177,3.79075 v 3.31696 h 5.37486 v 26.29841 c 0,2.74835 0.23856,5.11745 0.71442,7.10771 0.50084,1.95856 1.20277,3.58534 2.10478,4.88062 0.92674,1.26372 2.04221,2.19539 3.34514,2.79569 1.32804,0.63118 2.81895,0.94812 4.47273,0.94812 1.12783,0 2.28026,-0.23737 3.45792,-0.71075 1.20277,-0.44237 2.34297,-0.99533 3.42034,-1.65848 1.10285,-0.69457 2.11739,-1.4373 3.04451,-2.22709 0.95172,-0.78898 1.75407,-1.50041 2.40554,-2.13227 v 5.54404 h 12.2154 v -3.79075 l -3.38274,-0.28457 c -0.45088,-0.0674 -0.85181,-0.28457 -1.20277,-0.66355 -0.32598,-0.37898 -0.48835,-0.86855 -0.48835,-1.46899 v -41.74571 h -3.15717 l -9.39658,3.79075 v 3.31695 h 5.41246 v 32.50574 c -0.45089,0.28457 -1.00169,0.60016 -1.65378,0.94813 -0.62699,0.31559 -1.30306,0.63253 -2.02972,0.94812 -0.7269,0.28457 -1.4909,0.52059 -2.29275,0.71076 -0.80184,0.18881 -1.59108,0.28457 -2.36794,0.28457 -1.35302,0 -2.50571,-0.23737 -3.45793,-0.71076 -0.95172,-0.50575 -1.72896,-1.23135 -2.33022,-2.17974 -0.57703,-0.94813 -1.00168,-2.10071 -1.27796,-3.45897 -0.25104,-1.3584 -0.37594,-2.89051 -0.37594,-4.59632 v -31.55815 z m 136.17431,14.07326 c 1.22775,0 2.38043,0.3628 3.45793,1.08974 1.07787,0.69457 2.00461,1.65834 2.78135,2.89037 0.80185,1.20033 1.42821,2.62198 1.87934,4.26467 0.47586,1.64257 0.71442,3.39586 0.71442,5.25961 0,1.86388 -0.23856,3.63281 -0.71442,5.30707 -0.45088,1.6427 -1.07787,3.07999 -1.87934,4.31202 -0.77686,1.23269 -1.70386,2.2113 -2.78135,2.93784 -1.07787,0.69457 -2.23018,1.04253 -3.45793,1.04253 -1.20277,0 -2.34284,-0.34796 -3.42033,-1.04253 -1.07787,-0.72694 -2.02972,-1.70582 -2.85654,-2.93784 -0.80185,-1.23135 -1.44083,-2.66932 -1.91694,-4.31202 -0.45088,-1.67426 -0.67695,-3.44319 -0.67695,-5.30707 0,-1.86375 0.22607,-3.61704 0.67695,-5.25961 0.47586,-1.64269 1.11534,-3.06421 1.91694,-4.26467 0.82682,-1.23135 1.77904,-2.19553 2.85654,-2.89037 1.07787,-0.72694 2.21756,-1.08974 3.42033,-1.08974 z"
     id="text843"
     inkscape:connector-curvature="0" />
</svg>
