/* XPM */
static char * close_active_xpm[] = {
"32 32 16 1",
" 	c None",
".	c #734173",
"+	c #642C64",
"@	c #5D295D",
"#	c #4D224D",
"$	c #431D43",
"%	c #3E1B3E",
"&	c #632B63",
"*	c #4C224C",
"=	c #3C1B3C",
"-	c #3C1A3C",
";	c #632C63",
">	c #461F46",
",	c #4E224E",
"'	c #431E43",
")	c #471F47",
"................................",
"++++++++++++++++++++++++++++++++",
"++++++++++++++++++++++++++++++++",
"++++++++++++++++++++++++++++++++",
"++++++++++++++++++++++++++++++++",
"++++++++++++++++++++++++++++++++",
"++++++++++++++++++++++++++++++++",
"++++++++++++++++++++++++++++++++",
"++++++++++++@#$%%$#@++++++++++++",
"++++++++++&*=------=#;++++++++++",
"+++++++++&>---------->;+++++++++",
"+++++++++*------------#+++++++++",
"++++++++@=------------=@++++++++",
"++++++++#--------------,++++++++",
"++++++++$--------------'++++++++",
"++++++++%--------------%++++++++",
"++++++++%--------------%++++++++",
"++++++++$--------------'++++++++",
"++++++++#--------------,++++++++",
"++++++++@=------------=@++++++++",
"+++++++++#------------#+++++++++",
"+++++++++;)----------);+++++++++",
"++++++++++;#=------=#;++++++++++",
"++++++++++++@,'%%',@++++++++++++",
"++++++++++++++++++++++++++++++++",
"++++++++++++++++++++++++++++++++",
"++++++++++++++++++++++++++++++++",
"++++++++++++++++++++++++++++++++",
"++++++++++++++++++++++++++++++++",
"++++++++++++++++++++++++++++++++",
"++++++++++++++++++++++++++++++++",
"++++++++++++++++++++++++++++++++"};
