/* XPM */
static char * maximize_toggled_prelight_xpm[] = {
"32 32 34 1",
" 	c None",
".	c #734173",
"+	c #642C64",
"@	c #6C2E6C",
"#	c #803380",
"$	c #8E368E",
"%	c #943994",
"&	c #813381",
"*	c #6D2E6D",
"=	c #652D65",
"-	c #813481",
";	c #963996",
">	c #953995",
",	c #662C66",
"'	c #893589",
")	c #823482",
"!	c #843484",
"~	c #6E2E6E",
"{	c #652C65",
"]	c #803480",
"^	c #773277",
"/	c #702F70",
"(	c #7D327D",
"_	c #6F2F6F",
":	c #793179",
"<	c #6C2F6C",
"[	c #7D337D",
"}	c #8D378D",
"|	c #6E2F6E",
"1	c #943894",
"2	c #933893",
"3	c #843584",
"4	c #783178",
"5	c #893689",
"................................",
"++++++++++++++++++++++++++++++++",
"++++++++++++++++++++++++++++++++",
"++++++++++++++++++++++++++++++++",
"++++++++++++++++++++++++++++++++",
"++++++++++++++++++++++++++++++++",
"++++++++++++++++++++++++++++++++",
"++++++++++++++++++++++++++++++++",
"++++++++++++@#$%%$&*++++++++++++",
"++++++++++=-;;;;;;;>&,++++++++++",
"+++++++++=';;;;>>;;;;',+++++++++",
"+++++++++);;;!~{{~!;;;]+++++++++",
"++++++++@;;;^+/((_+:;;><++++++++",
"++++++++&;;!+[>;;>(+!;;#++++++++",
"++++++++};;~/>;;;;>||;;}++++++++",
"++++++++1;>{[;;;;;;({>;2++++++++",
"++++++++2;>{(;;;;;;(+>;2++++++++",
"++++++++};;~_>;;;;;||;;}++++++++",
"++++++++&;;!+(>;;>(+3;;#++++++++",
"++++++++*>;;:+|((|+4;;>*++++++++",
"+++++++++&;;;3|++|3;;;#+++++++++",
"+++++++++,5;;;;>>;;;;5{+++++++++",
"++++++++++,]>;;;;;;>#{++++++++++",
"++++++++++++<#}11}]*++++++++++++",
"++++++++++++++++++++++++++++++++",
"++++++++++++++++++++++++++++++++",
"++++++++++++++++++++++++++++++++",
"++++++++++++++++++++++++++++++++",
"++++++++++++++++++++++++++++++++",
"++++++++++++++++++++++++++++++++",
"++++++++++++++++++++++++++++++++",
"++++++++++++++++++++++++++++++++"};
