/* XPM */
static char * maximize_active_xpm[] = {
"32 32 23 1",
" 	c None",
".	c #734173",
"+	c #642C64",
"@	c #6C2E6C",
"#	c #803380",
"$	c #8E368E",
"%	c #943994",
"&	c #813381",
"*	c #6D2E6D",
"=	c #652D65",
"-	c #813481",
";	c #963996",
">	c #953995",
",	c #662C66",
"'	c #893589",
")	c #823482",
"!	c #803480",
"~	c #6C2F6C",
"{	c #8D378D",
"]	c #943894",
"^	c #933893",
"/	c #893689",
"(	c #652C65",
"................................",
"++++++++++++++++++++++++++++++++",
"++++++++++++++++++++++++++++++++",
"++++++++++++++++++++++++++++++++",
"++++++++++++++++++++++++++++++++",
"++++++++++++++++++++++++++++++++",
"++++++++++++++++++++++++++++++++",
"++++++++++++++++++++++++++++++++",
"++++++++++++@#$%%$&*++++++++++++",
"++++++++++=-;;;;;;;>&,++++++++++",
"+++++++++=';;;;;;;;;;',+++++++++",
"+++++++++);;;;;;;;;;;;!+++++++++",
"++++++++@;;;;;;;;;;;;;>~++++++++",
"++++++++#;;;;;;;;;;;;;;#++++++++",
"++++++++{;;;;;;;;;;;;;;{++++++++",
"++++++++];;;;;;;;;;;;;;^++++++++",
"++++++++^;;;;;;;;;;;;;;^++++++++",
"++++++++{;;;;;;;;;;;;;;{++++++++",
"++++++++&;;;;;;;;;;;;;;!++++++++",
"++++++++*>;;;;;;;;;;;;>*++++++++",
"+++++++++&;;;;;;;;;;;;#+++++++++",
"+++++++++,/;;;;;;;;;;/(+++++++++",
"++++++++++,!>;;;;;;>#(++++++++++",
"++++++++++++~#{]]{!*++++++++++++",
"++++++++++++++++++++++++++++++++",
"++++++++++++++++++++++++++++++++",
"++++++++++++++++++++++++++++++++",
"++++++++++++++++++++++++++++++++",
"++++++++++++++++++++++++++++++++",
"++++++++++++++++++++++++++++++++",
"++++++++++++++++++++++++++++++++",
"++++++++++++++++++++++++++++++++"};
