/* XPM */
static char * stick_toggled_prelight_xpm[] = {
"32 32 26 1",
" 	c None",
".	c #734173",
"+	c #642C64",
"@	c #6B2F6B",
"#	c #793779",
"$	c #833B83",
"%	c #883E88",
"&	c #793679",
"*	c #6A2F6A",
"=	c #652C65",
"-	c #7A387A",
";	c #883F88",
">	c #893E89",
",	c #7A377A",
"'	c #652D65",
")	c #803A80",
"!	c #7F3A7F",
"~	c #853C85",
"{	c #703270",
"]	c #662D66",
"^	c #6F326F",
"/	c #833C83",
"(	c #672D67",
"_	c #713271",
":	c #873D87",
"<	c #672E67",
"................................",
"++++++++++++++++++++++++++++++++",
"++++++++++++++++++++++++++++++++",
"++++++++++++++++++++++++++++++++",
"++++++++++++++++++++++++++++++++",
"++++++++++++++++++++++++++++++++",
"++++++++++++++++++++++++++++++++",
"++++++++++++++++++++++++++++++++",
"++++++++++++@#$%%$&*++++++++++++",
"++++++++++=-;>>>>>>;,'++++++++++",
"+++++++++=)>>>>>>>>>>!'+++++++++",
"+++++++++->>>>>>>>>>>>#+++++++++",
"++++++++@;>>>~{]]^/>>>;*++++++++",
"++++++++&>>>~(++++]~>>>&++++++++",
"++++++++$>>>{++++++_>>>/++++++++",
"++++++++:>>>]++++++]>>>:++++++++",
"++++++++:>>>]++++++]>>>:++++++++",
"++++++++$>>>^++++++_>>>/++++++++",
"++++++++&>>>/]++++<~>>>&++++++++",
"++++++++*;>>>~_]]_~>>>;*++++++++",
"+++++++++,>>>>>>>>>>>>#+++++++++",
"+++++++++')>>>>>>>>>>)'+++++++++",
"++++++++++'#;>>>>>>;#'++++++++++",
"++++++++++++*&/%%/&*++++++++++++",
"++++++++++++++++++++++++++++++++",
"++++++++++++++++++++++++++++++++",
"++++++++++++++++++++++++++++++++",
"++++++++++++++++++++++++++++++++",
"++++++++++++++++++++++++++++++++",
"++++++++++++++++++++++++++++++++",
"++++++++++++++++++++++++++++++++",
"++++++++++++++++++++++++++++++++"};
