/* XPM */
static char * close_inactive_xpm[] = {
"32 32 29 1",
" 	c None",
".	c #BA672F",
"+	c #B35618",
"@	c #9C501D",
"#	c #6A4227",
"$	c #48382E",
"%	c #393532",
"&	c #6B4227",
"*	c #9D501D",
"=	c #AF5518",
"-	c #684128",
";	c #343433",
">	c #333333",
",	c #343332",
"'	c #694228",
")	c #B05518",
"!	c #543C2C",
"~	c #674128",
"{	c #694127",
"]	c #9E501D",
"^	c #48392F",
"/	c #49392E",
"(	c #393431",
"_	c #3A3531",
":	c #6C4227",
"<	c #9E501C",
"[	c #553D2C",
"}	c #553C2B",
"|	c #B05519",
"................................",
"++++++++++++++++++++++++++++++++",
"++++++++++++++++++++++++++++++++",
"++++++++++++++++++++++++++++++++",
"++++++++++++++++++++++++++++++++",
"++++++++++++++++++++++++++++++++",
"++++++++++++++++++++++++++++++++",
"++++++++++++++++++++++++++++++++",
"++++++++++++@#$%%$&*++++++++++++",
"++++++++++=-;>>>>>>,')++++++++++",
"+++++++++=!>>>>>>>>>>!)+++++++++",
"+++++++++~>>>>>>>>>>>>{+++++++++",
"++++++++@;>>>>>>>>>>>>,]++++++++",
"++++++++#>>>>>>>>>>>>>>&++++++++",
"++++++++^>>>>>>>>>>>>>>/++++++++",
"++++++++%>>>>>>>>>>>>>>(++++++++",
"++++++++(>>>>>>>>>>>>>>_++++++++",
"++++++++^>>>>>>>>>>>>>>/++++++++",
"++++++++&>>>>>>>>>>>>>>:++++++++",
"++++++++*,>>>>>>>>>>>>,<++++++++",
"+++++++++'>>>>>>>>>>>>#+++++++++",
"+++++++++)[>>>>>>>>>>}|+++++++++",
"++++++++++){,>>>>>>,#|++++++++++",
"++++++++++++]&/%%/:<++++++++++++",
"++++++++++++++++++++++++++++++++",
"++++++++++++++++++++++++++++++++",
"++++++++++++++++++++++++++++++++",
"++++++++++++++++++++++++++++++++",
"++++++++++++++++++++++++++++++++",
"++++++++++++++++++++++++++++++++",
"++++++++++++++++++++++++++++++++",
"++++++++++++++++++++++++++++++++"};
