/* XPM */
static char * hide_active_xpm[] = {
"32 32 21 1",
" 	c None",
".	c #8D3027",
"+	c #811A10",
"@	c #8A2A21",
"#	c #9E4E46",
"$	c #AB6660",
"%	c #B1726C",
"&	c #821D13",
"*	c #9F5048",
"=	c #B3756F",
"-	c #B37670",
";	c #9E4F47",
">	c #821C12",
",	c #A75E57",
"'	c #892920",
")	c #9D4D45",
"!	c #AB655F",
"~	c #B1716B",
"{	c #B0706A",
"]	c #9D4C44",
"^	c #A65D56",
"................................",
"++++++++++++++++++++++++++++++++",
"++++++++++++++++++++++++++++++++",
"++++++++++++++++++++++++++++++++",
"++++++++++++++++++++++++++++++++",
"++++++++++++++++++++++++++++++++",
"++++++++++++++++++++++++++++++++",
"++++++++++++++++++++++++++++++++",
"++++++++++++@#$%%$#@++++++++++++",
"++++++++++&*=------=;>++++++++++",
"+++++++++&,----------,>+++++++++",
"+++++++++*------------;+++++++++",
"++++++++@=------------='++++++++",
"++++++++#--------------)++++++++",
"++++++++$--------------!++++++++",
"++++++++~--------------~++++++++",
"++++++++~--------------{++++++++",
"++++++++$--------------!++++++++",
"++++++++#--------------]++++++++",
"++++++++@=------------='++++++++",
"+++++++++;------------#+++++++++",
"+++++++++>^----------^>+++++++++",
"++++++++++>;=------=#>++++++++++",
"++++++++++++')!~~!]'++++++++++++",
"++++++++++++++++++++++++++++++++",
"++++++++++++++++++++++++++++++++",
"++++++++++++++++++++++++++++++++",
"++++++++++++++++++++++++++++++++",
"++++++++++++++++++++++++++++++++",
"++++++++++++++++++++++++++++++++",
"++++++++++++++++++++++++++++++++",
"++++++++++++++++++++++++++++++++"};
