/* XPM */
static char * close_active_xpm[] = {
"32 32 20 1",
" 	c None",
".	c #323232",
"+	c #1C1C1C",
"@	c #2C2C2C",
"#	c #505050",
"$	c #686868",
"%	c #737373",
"&	c #1F1F1F",
"*	c #515151",
"=	c #767676",
"-	c #777777",
";	c #1E1E1E",
">	c #606060",
",	c #2B2B2B",
"'	c #4F4F4F",
")	c #676767",
"!	c #727272",
"~	c #717171",
"{	c #4E4E4E",
"]	c #5F5F5F",
"................................",
"++++++++++++++++++++++++++++++++",
"++++++++++++++++++++++++++++++++",
"++++++++++++++++++++++++++++++++",
"++++++++++++++++++++++++++++++++",
"++++++++++++++++++++++++++++++++",
"++++++++++++++++++++++++++++++++",
"++++++++++++++++++++++++++++++++",
"++++++++++++@#$%%$#@++++++++++++",
"++++++++++&*=------=*;++++++++++",
"+++++++++&>---------->;+++++++++",
"+++++++++*------------*+++++++++",
"++++++++@=------------=,++++++++",
"++++++++#--------------'++++++++",
"++++++++$--------------)++++++++",
"++++++++!--------------!++++++++",
"++++++++!--------------~++++++++",
"++++++++$--------------)++++++++",
"++++++++#--------------{++++++++",
"++++++++@=------------=,++++++++",
"+++++++++*------------#+++++++++",
"+++++++++;]----------];+++++++++",
"++++++++++;*=------=#;++++++++++",
"++++++++++++,')!!){,++++++++++++",
"++++++++++++++++++++++++++++++++",
"++++++++++++++++++++++++++++++++",
"++++++++++++++++++++++++++++++++",
"++++++++++++++++++++++++++++++++",
"++++++++++++++++++++++++++++++++",
"++++++++++++++++++++++++++++++++",
"++++++++++++++++++++++++++++++++",
"++++++++++++++++++++++++++++++++"};
