/* XPM */
static char * close_active_xpm[] = {
"32 32 18 1",
" 	c None",
".	c #40A599",
"+	c #2B9B8E",
"@	c #289084",
"#	c #21786E",
"$	c #1D675F",
"%	c #1A5F57",
"&	c #2A998C",
"*	c #21776D",
"=	c #1A5E56",
"-	c #1A5D55",
";	c #2B9A8D",
">	c #1E6D64",
",	c #289185",
"'	c #1D685F",
")	c #1B6058",
"!	c #1B6159",
"~	c #22796F",
"................................",
"++++++++++++++++++++++++++++++++",
"++++++++++++++++++++++++++++++++",
"++++++++++++++++++++++++++++++++",
"++++++++++++++++++++++++++++++++",
"++++++++++++++++++++++++++++++++",
"++++++++++++++++++++++++++++++++",
"++++++++++++++++++++++++++++++++",
"++++++++++++@#$%%$#@++++++++++++",
"++++++++++&*=------=*;++++++++++",
"+++++++++&>---------->;+++++++++",
"+++++++++*------------*+++++++++",
"++++++++@=------------=,++++++++",
"++++++++#--------------#++++++++",
"++++++++$--------------'++++++++",
"++++++++)--------------)++++++++",
"++++++++)--------------!++++++++",
"++++++++$--------------'++++++++",
"++++++++#--------------~++++++++",
"++++++++@=------------=,++++++++",
"+++++++++*------------#+++++++++",
"+++++++++;>---------->;+++++++++",
"++++++++++;*=------=#;++++++++++",
"++++++++++++,#'))'~,++++++++++++",
"++++++++++++++++++++++++++++++++",
"++++++++++++++++++++++++++++++++",
"++++++++++++++++++++++++++++++++",
"++++++++++++++++++++++++++++++++",
"++++++++++++++++++++++++++++++++",
"++++++++++++++++++++++++++++++++",
"++++++++++++++++++++++++++++++++",
"++++++++++++++++++++++++++++++++"};
