/* XPM */
static char * maximize_prelight_xpm[] = {
"32 32 35 1",
" 	c None",
".	c #734173",
"+	c #642C64",
"@	c #6C2E6C",
"#	c #803380",
"$	c #8E368E",
"%	c #943994",
"&	c #813381",
"*	c #6D2E6D",
"=	c #652D65",
"-	c #813481",
";	c #963996",
">	c #873587",
",	c #7F337F",
"'	c #953995",
")	c #662C66",
"!	c #893589",
"~	c #672C67",
"{	c #672D67",
"]	c #823482",
"^	c #753175",
"/	c #682D68",
"(	c #7C327C",
"_	c #763076",
":	c #803480",
"<	c #702F70",
"[	c #923892",
"}	c #6F2F6F",
"|	c #6C2F6C",
"1	c #8D378D",
"2	c #933893",
"3	c #763176",
"4	c #893689",
"5	c #652C65",
"6	c #943894",
"................................",
"++++++++++++++++++++++++++++++++",
"++++++++++++++++++++++++++++++++",
"++++++++++++++++++++++++++++++++",
"++++++++++++++++++++++++++++++++",
"++++++++++++++++++++++++++++++++",
"++++++++++++++++++++++++++++++++",
"++++++++++++++++++++++++++++++++",
"++++++++++++@#$%%$&*++++++++++++",
"++++++++++=-;%>,,>%'&)++++++++++",
"+++++++++=!',~++++{,'!)+++++++++",
"+++++++++];^+/(>>(/+_':+++++++++",
"++++++++@;,+<[;;;;[}+:'|++++++++",
"++++++++&%~/[;;;;;;[/{%#++++++++",
"++++++++1>+(;;;;;;;;(+>1++++++++",
"++++++++2,+>;;;;;;;;>+,2++++++++",
"++++++++2,+>;;;;;;;;>+,2++++++++",
"++++++++1>+(;;;;;;;;(+>1++++++++",
"++++++++&%{/[;;;;;;[/{%#++++++++",
"++++++++*',+}[;;;;[<+#'*++++++++",
"+++++++++&'_+/(>>(/+3'#+++++++++",
"+++++++++)4':{++++{#'45+++++++++",
"++++++++++):'%>::>''#5++++++++++",
"++++++++++++|#1661:*++++++++++++",
"++++++++++++++++++++++++++++++++",
"++++++++++++++++++++++++++++++++",
"++++++++++++++++++++++++++++++++",
"++++++++++++++++++++++++++++++++",
"++++++++++++++++++++++++++++++++",
"++++++++++++++++++++++++++++++++",
"++++++++++++++++++++++++++++++++",
"++++++++++++++++++++++++++++++++"};
