/* XPM */
static char * hide_prelight_xpm[] = {
"32 32 21 1",
" 	c None",
".	c #365970",
"+	c #204760",
"@	c #30546B",
"#	c #537184",
"$	c #6A8495",
"%	c #768E9D",
"&	c #234962",
"*	c #547285",
"=	c #78909F",
"-	c #7991A0",
";	c #224861",
">	c #627E8F",
",	c #2F536B",
"'	c #527084",
")	c #698494",
"!	c #758D9C",
"~	c #3A5D73",
"{	c #2C5169",
"]	c #516F83",
"^	c #627D8F",
"................................",
"++++++++++++++++++++++++++++++++",
"++++++++++++++++++++++++++++++++",
"++++++++++++++++++++++++++++++++",
"++++++++++++++++++++++++++++++++",
"++++++++++++++++++++++++++++++++",
"++++++++++++++++++++++++++++++++",
"++++++++++++++++++++++++++++++++",
"++++++++++++@#$%%$#@++++++++++++",
"++++++++++&*=------=*;++++++++++",
"+++++++++&>---------->;+++++++++",
"+++++++++*------------*+++++++++",
"++++++++@=------------=,++++++++",
"++++++++#--------------'++++++++",
"++++++++$--------------)++++++++",
"++++++++!-~{{{{{{{{{{~-!++++++++",
"++++++++!-~{{{{{{{{{{~-!++++++++",
"++++++++$--------------)++++++++",
"++++++++#--------------]++++++++",
"++++++++@=------------=,++++++++",
"+++++++++*------------#+++++++++",
"+++++++++;^----------^;+++++++++",
"++++++++++;*=------=#;++++++++++",
"++++++++++++,')!!)],++++++++++++",
"++++++++++++++++++++++++++++++++",
"++++++++++++++++++++++++++++++++",
"++++++++++++++++++++++++++++++++",
"++++++++++++++++++++++++++++++++",
"++++++++++++++++++++++++++++++++",
"++++++++++++++++++++++++++++++++",
"++++++++++++++++++++++++++++++++",
"++++++++++++++++++++++++++++++++"};
