/* XPM */
static char * maximize_toggled_prelight_xpm[] = {
"32 32 43 1",
" 	c None",
".	c #365970",
"+	c #204760",
"@	c #22526B",
"#	c #276D84",
"$	c #2A7E95",
"%	c #2B869D",
"&	c #276C84",
"*	c #22536B",
"=	c #204961",
"-	c #276E86",
";	c #2C89A0",
">	c #2B889F",
",	c #276E85",
"'	c #204862",
")	c #29788F",
"!	c #297890",
"~	c #287088",
"{	c #23546D",
"]	c #214861",
"^	c #287289",
"/	c #276D85",
"(	c #246179",
"_	c #23566F",
":	c #266880",
"<	c #23556E",
"[	c #25617A",
"}	c #2C889F",
"|	c #266B84",
"1	c #2A7E96",
"2	c #22566E",
"3	c #22546D",
"4	c #2A7D95",
"5	c #2C869D",
"6	c #204861",
"7	c #2C859C",
"8	c #27728A",
"9	c #25627A",
"0	c #22526A",
"a	c #277189",
"b	c #28788F",
"c	c #29778F",
"d	c #266C83",
"................................",
"++++++++++++++++++++++++++++++++",
"++++++++++++++++++++++++++++++++",
"++++++++++++++++++++++++++++++++",
"++++++++++++++++++++++++++++++++",
"++++++++++++++++++++++++++++++++",
"++++++++++++++++++++++++++++++++",
"++++++++++++++++++++++++++++++++",
"++++++++++++@#$%%$&*++++++++++++",
"++++++++++=-;;;;;;;>,'++++++++++",
"+++++++++=);;;;>>;;;;!'+++++++++",
"+++++++++-;;;~{]]{^;;;/+++++++++",
"++++++++@;;;(+_::<+[;;>@++++++++",
"++++++++&;;~+:};;}:+^;;|++++++++",
"++++++++1;;{_};;;;}23;;4++++++++",
"++++++++5;>]:;;;;;;:]>;5++++++++",
"++++++++5;>]:;;;;;;:6>;7++++++++",
"++++++++1;;{<};;;;;23;;4++++++++",
"++++++++&;;^+:};;}:+8;;|++++++++",
"++++++++*>;;[+2::2+9;;>0++++++++",
"+++++++++,;;;a36638;;;#+++++++++",
"+++++++++'b;;;;>>;;;;c=+++++++++",
"++++++++++'/>;;;;;;>#=++++++++++",
"++++++++++++@|4554d0++++++++++++",
"++++++++++++++++++++++++++++++++",
"++++++++++++++++++++++++++++++++",
"++++++++++++++++++++++++++++++++",
"++++++++++++++++++++++++++++++++",
"++++++++++++++++++++++++++++++++",
"++++++++++++++++++++++++++++++++",
"++++++++++++++++++++++++++++++++",
"++++++++++++++++++++++++++++++++"};
