/* XPM */
static char * close_active_xpm[] = {
"32 32 16 1",
" 	c None",
".	c #365970",
"+	c #204760",
"@	c #1E4259",
"#	c #19374A",
"$	c #152F40",
"%	c #142C3B",
"&	c #20465F",
"*	c #183649",
"=	c #132B3A",
"-	c #163243",
";	c #1E425A",
">	c #19374B",
",	c #153040",
"'	c #142C3C",
")	c #173244",
"................................",
"++++++++++++++++++++++++++++++++",
"++++++++++++++++++++++++++++++++",
"++++++++++++++++++++++++++++++++",
"++++++++++++++++++++++++++++++++",
"++++++++++++++++++++++++++++++++",
"++++++++++++++++++++++++++++++++",
"++++++++++++++++++++++++++++++++",
"++++++++++++@#$%%$#@++++++++++++",
"++++++++++&*========#&++++++++++",
"+++++++++&-==========-&+++++++++",
"+++++++++*============#+++++++++",
"++++++++@==============;++++++++",
"++++++++#==============>++++++++",
"++++++++$==============,++++++++",
"++++++++%==============%++++++++",
"++++++++%=============='++++++++",
"++++++++$==============,++++++++",
"++++++++#==============>++++++++",
"++++++++@==============;++++++++",
"+++++++++#============#+++++++++",
"+++++++++&)==========)&+++++++++",
"++++++++++&#========#&++++++++++",
"++++++++++++;>,%%,>;++++++++++++",
"++++++++++++++++++++++++++++++++",
"++++++++++++++++++++++++++++++++",
"++++++++++++++++++++++++++++++++",
"++++++++++++++++++++++++++++++++",
"++++++++++++++++++++++++++++++++",
"++++++++++++++++++++++++++++++++",
"++++++++++++++++++++++++++++++++",
"++++++++++++++++++++++++++++++++"};
