/* XPM */
static char * close_inactive_xpm[] = {
"32 32 16 1",
" 	c None",
".	c #323232",
"+	c #1C1C1C",
"@	c #242424",
"#	c #363636",
"$	c #414141",
"%	c #484848",
"&	c #1D1D1D",
"*	c #373737",
"=	c #494949",
"-	c #3E3E3E",
";	c #353535",
">	c #424242",
",	c #474747",
"'	c #232323",
")	c #3D3D3D",
"................................",
"++++++++++++++++++++++++++++++++",
"++++++++++++++++++++++++++++++++",
"++++++++++++++++++++++++++++++++",
"++++++++++++++++++++++++++++++++",
"++++++++++++++++++++++++++++++++",
"++++++++++++++++++++++++++++++++",
"++++++++++++++++++++++++++++++++",
"++++++++++++@#$%%$#@++++++++++++",
"++++++++++&*========*&++++++++++",
"+++++++++&-==========-&+++++++++",
"+++++++++*============#+++++++++",
"++++++++@==============@++++++++",
"++++++++#==============;++++++++",
"++++++++>==============$++++++++",
"++++++++%==============,++++++++",
"++++++++,==============,++++++++",
"++++++++>==============$++++++++",
"++++++++#==============;++++++++",
"++++++++@=============='++++++++",
"+++++++++*============#+++++++++",
"+++++++++&-==========)&+++++++++",
"++++++++++&#========#&++++++++++",
"++++++++++++@;$%%$;'++++++++++++",
"++++++++++++++++++++++++++++++++",
"++++++++++++++++++++++++++++++++",
"++++++++++++++++++++++++++++++++",
"++++++++++++++++++++++++++++++++",
"++++++++++++++++++++++++++++++++",
"++++++++++++++++++++++++++++++++",
"++++++++++++++++++++++++++++++++",
"++++++++++++++++++++++++++++++++"};
