/* XPM */
static char * close_prelight_xpm[] = {
"32 32 26 1",
" 	c None",
".	c #323232",
"+	c #1C1C1C",
"@	c #2C2C2C",
"#	c #505050",
"$	c #686868",
"%	c #737373",
"&	c #1F1F1F",
"*	c #515151",
"=	c #767676",
"-	c #777777",
";	c #1E1E1E",
">	c #606060",
",	c #676767",
"'	c #333333",
")	c #707070",
"!	c #6F6F6F",
"~	c #2B2B2B",
"{	c #353535",
"]	c #2A2A2A",
"^	c #6E6E6E",
"/	c #4F4F4F",
"(	c #727272",
"_	c #717171",
":	c #4E4E4E",
"<	c #5F5F5F",
"................................",
"++++++++++++++++++++++++++++++++",
"++++++++++++++++++++++++++++++++",
"++++++++++++++++++++++++++++++++",
"++++++++++++++++++++++++++++++++",
"++++++++++++++++++++++++++++++++",
"++++++++++++++++++++++++++++++++",
"++++++++++++++++++++++++++++++++",
"++++++++++++@#$%%$#@++++++++++++",
"++++++++++&*=------=*;++++++++++",
"+++++++++&>---------->;+++++++++",
"+++++++++*-,')----!'$-*+++++++++",
"++++++++@=-.+@)--!~+{-=~++++++++",
"++++++++#--!@+]^!@+@)--/++++++++",
"++++++++$---!~+@~+@)---,++++++++",
"++++++++(----!@++@)----(++++++++",
"++++++++(----!@++]^----_++++++++",
"++++++++$---!~+@~+@)---,++++++++",
"++++++++#--!@+@)!@+]^--:++++++++",
"++++++++@=-.+@)--!~+{-=~++++++++",
"+++++++++*-,')----!'$-#+++++++++",
"+++++++++;<----------<;+++++++++",
"++++++++++;*=------=#;++++++++++",
"++++++++++++~/,((,:~++++++++++++",
"++++++++++++++++++++++++++++++++",
"++++++++++++++++++++++++++++++++",
"++++++++++++++++++++++++++++++++",
"++++++++++++++++++++++++++++++++",
"++++++++++++++++++++++++++++++++",
"++++++++++++++++++++++++++++++++",
"++++++++++++++++++++++++++++++++",
"++++++++++++++++++++++++++++++++"};
