/* XPM */
static char * maximize_toggled_prelight_xpm[] = {
"32 32 33 1",
" 	c None",
".	c #323232",
"+	c #1C1C1C",
"@	c #343434",
"#	c #696969",
"$	c #8D8D8D",
"%	c #9E9E9E",
"&	c #333333",
"*	c #202020",
"=	c #6C6C6C",
"-	c #A3A3A3",
";	c #A4A4A4",
">	c #A2A2A2",
",	c #6B6B6B",
"'	c #818181",
")	c #6D6D6D",
"!	c #727272",
"~	c #383838",
"{	c #1E1E1E",
"]	c #737373",
"^	c #6A6A6A",
"/	c #525252",
"(	c #3A3A3A",
"_	c #606060",
":	c #535353",
"<	c #616161",
"[	c #686868",
"}	c #8E8E8E",
"|	c #393939",
"1	c #9D9D9D",
"2	c #747474",
"3	c #808080",
"4	c #1F1F1F",
"................................",
"++++++++++++++++++++++++++++++++",
"++++++++++++++++++++++++++++++++",
"++++++++++++++++++++++++++++++++",
"++++++++++++++++++++++++++++++++",
"++++++++++++++++++++++++++++++++",
"++++++++++++++++++++++++++++++++",
"++++++++++++++++++++++++++++++++",
"++++++++++++@#$%%$#&++++++++++++",
"++++++++++*=-;;;;;;>,*++++++++++",
"+++++++++*';;;;>>;;;;'*+++++++++",
"+++++++++);;;!~{{~];;;^+++++++++",
"++++++++@-;;/+(__(+:;;>&++++++++",
"++++++++#;;!+<-;;-_+];;[++++++++",
"++++++++};;~(-;;;;-|~;;$++++++++",
"++++++++%;>{<;;;;;;_{>;1++++++++",
"++++++++1;>{_;;;;;;_{>;1++++++++",
"++++++++};;~(-;;;;-|~;;$++++++++",
"++++++++#;;]+_-;;-_+2;;[++++++++",
"++++++++&>;;:+|__|+:;;>.++++++++",
"+++++++++,;;;]~{{~2;;;#+++++++++",
"+++++++++*';;;;>>;;;;34+++++++++",
"++++++++++*^>;;;;;;>#4++++++++++",
"++++++++++++&[$%%$[.++++++++++++",
"++++++++++++++++++++++++++++++++",
"++++++++++++++++++++++++++++++++",
"++++++++++++++++++++++++++++++++",
"++++++++++++++++++++++++++++++++",
"++++++++++++++++++++++++++++++++",
"++++++++++++++++++++++++++++++++",
"++++++++++++++++++++++++++++++++",
"++++++++++++++++++++++++++++++++"};
