/* XPM */
static char * stick_prelight_xpm[] = {
"32 32 32 1",
" 	c None",
".	c #8D3027",
"+	c #811A10",
"@	c #861D14",
"#	c #93251D",
"$	c #9A2A24",
"%	c #9E2D27",
"&	c #92251D",
"*	c #811B11",
"=	c #93261E",
"-	c #A02E28",
";	c #9F2E28",
">	c #821B11",
",	c #982821",
"'	c #94261E",
")	c #91241D",
"!	c #841C12",
"~	c #841D13",
"{	c #91241C",
"]	c #94261F",
"^	c #9B2A24",
"/	c #9E2C26",
"(	c #831B12",
"_	c #8B2018",
":	c #93241C",
"<	c #972821",
"[	c #831B11",
"}	c #8C2018",
"|	c #91251D",
"1	c #992922",
"2	c #8E2219",
"3	c #821A10",
"................................",
"++++++++++++++++++++++++++++++++",
"++++++++++++++++++++++++++++++++",
"++++++++++++++++++++++++++++++++",
"++++++++++++++++++++++++++++++++",
"++++++++++++++++++++++++++++++++",
"++++++++++++++++++++++++++++++++",
"++++++++++++++++++++++++++++++++",
"++++++++++++@#$%%$&@++++++++++++",
"++++++++++*=-;;;;;;-=>++++++++++",
"+++++++++*,;;;;;;%;;;,>+++++++++",
"+++++++++';;;;-)!+~';;#+++++++++",
"++++++++@-;;;;{+++++];-@++++++++",
"++++++++&;;;;%*+++++!;;&++++++++",
"++++++++^;;;;$+++++++/;^++++++++",
"++++++++/;;;;/++++++(-;/++++++++",
"++++++++/;;;;;_+++++:;;/++++++++",
"++++++++^;;;;<[}++*|-;;^++++++++",
"++++++++&;;;<[,;/^/;;;;&++++++++",
"++++++++@-;1[<;;;;;;;;-@++++++++",
"+++++++++=;21;;;;;;;;;#+++++++++",
"+++++++++><;;;;;;;;;;<3+++++++++",
"++++++++++>#-;;;;;;-#3++++++++++",
"++++++++++++@&^//^:@++++++++++++",
"++++++++++++++++++++++++++++++++",
"++++++++++++++++++++++++++++++++",
"++++++++++++++++++++++++++++++++",
"++++++++++++++++++++++++++++++++",
"++++++++++++++++++++++++++++++++",
"++++++++++++++++++++++++++++++++",
"++++++++++++++++++++++++++++++++",
"++++++++++++++++++++++++++++++++"};
