/* XPM */
static char * menu_active_xpm[] = {
"32 32 26 1",
" 	c None",
".	c #323232",
"+	c #1C1C1C",
"@	c #373737",
"#	c #747474",
"$	c #9D9D9D",
"%	c #B0B0B0",
"&	c #737373",
"*	c #202020",
"=	c #787878",
"-	c #B6B6B6",
";	c #B7B7B7",
">	c #B5B5B5",
",	c #767676",
"'	c #1F1F1F",
")	c #8F8F8F",
"!	c #777777",
"~	c #757575",
"{	c #363636",
"]	c #727272",
"^	c #9E9E9E",
"/	c #9C9C9C",
"(	c #AFAFAF",
"_	c #353535",
":	c #8E8E8E",
"<	c #8D8D8D",
"................................",
"++++++++++++++++++++++++++++++++",
"++++++++++++++++++++++++++++++++",
"++++++++++++++++++++++++++++++++",
"++++++++++++++++++++++++++++++++",
"++++++++++++++++++++++++++++++++",
"++++++++++++++++++++++++++++++++",
"++++++++++++++++++++++++++++++++",
"++++++++++++@#$%%$&@++++++++++++",
"++++++++++*=-;;;;;;>,'++++++++++",
"+++++++++*);;;;;;;;;;)'+++++++++",
"+++++++++!;;;;;;;;;;;;~+++++++++",
"++++++++@-;;;;;;;;;;;;>{++++++++",
"++++++++#;;;;;;;;;;;;;;]++++++++",
"++++++++^;;;;;;;;;;;;;;/++++++++",
"++++++++(;;;;;;;;;;;;;;(++++++++",
"++++++++(;;;;;;;;;;;;;;(++++++++",
"++++++++^;;;;;;;;;;;;;;/++++++++",
"++++++++&;;;;;;;;;;;;;;]++++++++",
"++++++++@>;;;;;;;;;;;;>_++++++++",
"+++++++++,;;;;;;;;;;;;#+++++++++",
"+++++++++':;;;;;;;;;;<'+++++++++",
"++++++++++'~>;;;;;;>#'++++++++++",
"++++++++++++{]/((/]_++++++++++++",
"++++++++++++++++++++++++++++++++",
"++++++++++++++++++++++++++++++++",
"++++++++++++++++++++++++++++++++",
"++++++++++++++++++++++++++++++++",
"++++++++++++++++++++++++++++++++",
"++++++++++++++++++++++++++++++++",
"++++++++++++++++++++++++++++++++",
"++++++++++++++++++++++++++++++++"};
