<?xml version="1.0" encoding="UTF-8" standalone="no"?>
<svg
   xmlns:dc="http://purl.org/dc/elements/1.1/"
   xmlns:cc="http://creativecommons.org/ns#"
   xmlns:rdf="http://www.w3.org/1999/02/22-rdf-syntax-ns#"
   xmlns:svg="http://www.w3.org/2000/svg"
   xmlns="http://www.w3.org/2000/svg"
   xmlns:sodipodi="http://sodipodi.sourceforge.net/DTD/sodipodi-0.dtd"
   xmlns:inkscape="http://www.inkscape.org/namespaces/inkscape"
   height="16"
   width="16"
   version="1.1"
   id="svg6"
   sodipodi:docname="maximize_focused_prelight.svg"
   inkscape:version="0.92.4 (5da689c313, 2019-01-14)">
  <metadata
     id="metadata12">
    <rdf:RDF>
      <cc:Work
         rdf:about="">
        <dc:format>image/svg+xml</dc:format>
        <dc:type
           rdf:resource="http://purl.org/dc/dcmitype/StillImage" />
      </cc:Work>
    </rdf:RDF>
  </metadata>
  <defs
     id="defs10" />
  <sodipodi:namedview
     pagecolor="#ffffff"
     bordercolor="#666666"
     borderopacity="1"
     objecttolerance="10"
     gridtolerance="10"
     guidetolerance="10"
     inkscape:pageopacity="0"
     inkscape:pageshadow="2"
     inkscape:window-width="1295"
     inkscape:window-height="744"
     id="namedview8"
     showgrid="false"
     inkscape:zoom="37.75"
     inkscape:cx="8"
     inkscape:cy="8"
     inkscape:window-x="65"
     inkscape:window-y="24"
     inkscape:window-maximized="1"
     inkscape:current-layer="svg6" />
  <g
     id="g4529">
    <path
       style="fill:none"
       inkscape:connector-curvature="0"
       id="path2"
       d="M 0,0 H 16 V 16 H 0 Z" />
    <path
       id="path829"
       d="M 8,1.042969 C 4.157542,1.042969 1.042969,4.1576268 1.042969,8 c 0,3.842521 3.114573,6.957031 6.957031,6.957031 3.842477,0 6.957031,-3.11451 6.957031,-6.957031 C 14.957031,4.1576268 11.842477,1.042969 8,1.042969 Z m 0,1.2698753 c 3.141102,0 5.687155,2.5461358 5.687155,5.6871557 0,3.141141 -2.546053,5.687155 -5.687155,5.687155 C 4.85891,13.687155 2.312844,11.141141 2.312844,8 2.312844,4.85898 4.85891,2.3128443 8,2.3128443 Z M 8,3.5827195 C 5.560279,3.5827194 3.582719,5.560333 3.582719,8 c 0,2.439761 1.97756,4.417279 4.417281,4.417279 2.439732,0 4.417279,-1.977518 4.417279,-4.417279 C 12.417279,5.560333 10.439732,3.5827194 8,3.5827195 Z"
       style="fill:#963996;fill-opacity:1;fill-rule:evenodd;stroke:none;stroke-width:0.01627728;enable-background:new"
       inkscape:connector-curvature="0" />
  </g>
</svg>
