/* XPM */
static char * close_prelight_xpm[] = {
"32 32 22 1",
" 	c None",
".	c #2F794E",
"+	c #186A3B",
"@	c #166337",
"#	c #13522E",
"$	c #104727",
"%	c #0F4124",
"&	c #18693A",
"*	c #12512D",
"=	c #0E4024",
"-	c #0E4023",
";	c #18693B",
">	c #114A29",
",	c #104728",
"'	c #165F35",
")	c #0F4325",
"!	c #166035",
"~	c #155E35",
"{	c #0F4426",
"]	c #0F4225",
"^	c #13532E",
"/	c #114B2A",
"................................",
"++++++++++++++++++++++++++++++++",
"++++++++++++++++++++++++++++++++",
"++++++++++++++++++++++++++++++++",
"++++++++++++++++++++++++++++++++",
"++++++++++++++++++++++++++++++++",
"++++++++++++++++++++++++++++++++",
"++++++++++++++++++++++++++++++++",
"++++++++++++@#$%%$#@++++++++++++",
"++++++++++&*=------=*;++++++++++",
"+++++++++&>---------->;+++++++++",
"+++++++++*-,')----)'$-*+++++++++",
"++++++++@=-!+@)--)@+~-=@++++++++",
"++++++++#--)@+@{)@+@)--#++++++++",
"++++++++$---)@+@@+@)---,++++++++",
"++++++++]----)@++@)----]++++++++",
"++++++++]----)@++@{----]++++++++",
"++++++++$---)@+@@+@)---,++++++++",
"++++++++#--)@+@))@+@{--^++++++++",
"++++++++@=-!+@)--)@+~-=@++++++++",
"+++++++++*-,')----)'$-#+++++++++",
"+++++++++;/----------/;+++++++++",
"++++++++++;*=------=#;++++++++++",
"++++++++++++@#,]],^@++++++++++++",
"++++++++++++++++++++++++++++++++",
"++++++++++++++++++++++++++++++++",
"++++++++++++++++++++++++++++++++",
"++++++++++++++++++++++++++++++++",
"++++++++++++++++++++++++++++++++",
"++++++++++++++++++++++++++++++++",
"++++++++++++++++++++++++++++++++",
"++++++++++++++++++++++++++++++++"};
