/* XPM */
static char * close_prelight_xpm[] = {
"32 32 21 1",
" 	c None",
".	c #8D3027",
"+	c #811A10",
"@	c #78180F",
"#	c #64140C",
"$	c #56110B",
"%	c #4F100A",
"&	c #7F1A10",
"*	c #63140C",
"=	c #4E100A",
"-	c #4D100A",
";	c #801A10",
">	c #5B120B",
",	c #57110B",
"'	c #74170E",
")	c #51100A",
"!	c #52110A",
"~	c #73170E",
"{	c #79180F",
"]	c #50100A",
"^	c #65140C",
"................................",
"++++++++++++++++++++++++++++++++",
"++++++++++++++++++++++++++++++++",
"++++++++++++++++++++++++++++++++",
"++++++++++++++++++++++++++++++++",
"++++++++++++++++++++++++++++++++",
"++++++++++++++++++++++++++++++++",
"++++++++++++++++++++++++++++++++",
"++++++++++++@#$%%$#@++++++++++++",
"++++++++++&*=------=*;++++++++++",
"+++++++++&>---------->;+++++++++",
"+++++++++*-,')----!'$-*+++++++++",
"++++++++@=-'+@)--!@+~-=@++++++++",
"++++++++#--!@+{!!@+@)--#++++++++",
"++++++++$---!@+@@+@)---,++++++++",
"++++++++]----!@++@)----]++++++++",
"++++++++]----!@++{!----]++++++++",
"++++++++$---!@+@@+@)---,++++++++",
"++++++++#--!@+@)!@+{!--^++++++++",
"++++++++@=-'+@)--!@+~-=@++++++++",
"+++++++++*-,')----!'$-#+++++++++",
"+++++++++;>---------->;+++++++++",
"++++++++++;*=------=#;++++++++++",
"++++++++++++@#,]],^@++++++++++++",
"++++++++++++++++++++++++++++++++",
"++++++++++++++++++++++++++++++++",
"++++++++++++++++++++++++++++++++",
"++++++++++++++++++++++++++++++++",
"++++++++++++++++++++++++++++++++",
"++++++++++++++++++++++++++++++++",
"++++++++++++++++++++++++++++++++",
"++++++++++++++++++++++++++++++++"};
