/* XPM */
static char * menu_prelight_xpm[] = {
"32 32 22 1",
" 	c None",
".	c #8D3027",
"+	c #811A10",
"@	c #861D14",
"#	c #93251D",
"$	c #9A2A24",
"%	c #9E2D27",
"&	c #92251D",
"*	c #811B11",
"=	c #93261E",
"-	c #A02E28",
";	c #9F2E28",
">	c #821B11",
",	c #982821",
"'	c #94261E",
")	c #9B2A24",
"!	c #9A2A23",
"~	c #9E2C26",
"{	c #9B2923",
"]	c #93241C",
"^	c #972821",
"/	c #821A10",
"................................",
"++++++++++++++++++++++++++++++++",
"++++++++++++++++++++++++++++++++",
"++++++++++++++++++++++++++++++++",
"++++++++++++++++++++++++++++++++",
"++++++++++++++++++++++++++++++++",
"++++++++++++++++++++++++++++++++",
"++++++++++++++++++++++++++++++++",
"++++++++++++@#$%%$&@++++++++++++",
"++++++++++*=-;;;;;;-=>++++++++++",
"+++++++++*,;;;;;;;;;;,>+++++++++",
"+++++++++';;;;;;;;;;;;#+++++++++",
"++++++++@-;;;;;;;;;;;;-@++++++++",
"++++++++#;;;;;;;;;;;;;;&++++++++",
"++++++++);;;;;;!!;;;;;;)++++++++",
"++++++++~;;;;;!++{;;;;;~++++++++",
"++++++++~;;;;;!++{;;;;;~++++++++",
"++++++++);;;;;;{{;;;;;;)++++++++",
"++++++++&;;;;;;;;;;;;;;]++++++++",
"++++++++@-;;;;;;;;;;;;-@++++++++",
"+++++++++=;;;;;;;;;;;;#+++++++++",
"+++++++++>,;;;;;;;;;;^/+++++++++",
"++++++++++>#-;;;;;;-#/++++++++++",
"++++++++++++@&)~~)]@++++++++++++",
"++++++++++++++++++++++++++++++++",
"++++++++++++++++++++++++++++++++",
"++++++++++++++++++++++++++++++++",
"++++++++++++++++++++++++++++++++",
"++++++++++++++++++++++++++++++++",
"++++++++++++++++++++++++++++++++",
"++++++++++++++++++++++++++++++++",
"++++++++++++++++++++++++++++++++"};
