/* XPM */
static char * maximize_toggled_prelight_xpm[] = {
"32 32 36 1",
" 	c None",
".	c #BA672F",
"+	c #B35618",
"@	c #C05D1B",
"#	c #DE6D22",
"$	c #F27827",
"%	c #FC7E29",
"&	c #B55718",
"*	c #E06E23",
"=	c #FE7F2A",
"-	c #FF7F2A",
";	c #DF6E22",
">	c #EC7525",
",	c #EB7425",
"'	c #E37024",
")	c #C25E1B",
"!	c #B45618",
"~	c #E47024",
"{	c #DF6D22",
"]	c #D1661F",
"^	c #C45F1C",
"/	c #D96A21",
"(	c #D2661F",
"_	c #C05C1B",
":	c #D96B21",
"<	c #FF7E2A",
"[	c #DD6D22",
"}	c #C35E1C",
"|	c #FB7D29",
"1	c #B45719",
"2	c #E47023",
"3	c #D2671F",
"4	c #E47124",
"5	c #EB7525",
"6	c #B45619",
"7	c #DD6C22",
"................................",
"++++++++++++++++++++++++++++++++",
"++++++++++++++++++++++++++++++++",
"++++++++++++++++++++++++++++++++",
"++++++++++++++++++++++++++++++++",
"++++++++++++++++++++++++++++++++",
"++++++++++++++++++++++++++++++++",
"++++++++++++++++++++++++++++++++",
"++++++++++++@#$%%$#@++++++++++++",
"++++++++++&*=------=;&++++++++++",
"+++++++++&>----==----,&+++++++++",
"+++++++++*---')!!)~---{+++++++++",
"++++++++@=--]+^//^+(--=_++++++++",
"++++++++#--'+:<--</+~--[++++++++",
"++++++++$--)^<----<}}--$++++++++",
"++++++++|-=!:------/!=-|++++++++",
"++++++++|-=!/------:1=-|++++++++",
"++++++++$--)^<----=}}--$++++++++",
"++++++++#--~+/<--<:+2--[++++++++",
"++++++++@=--(+}/:}+3--=@++++++++",
"+++++++++;---4}11}2---#+++++++++",
"+++++++++&5----==----,6+++++++++",
"++++++++++&{=------=#6++++++++++",
"++++++++++++_[$||$7@++++++++++++",
"++++++++++++++++++++++++++++++++",
"++++++++++++++++++++++++++++++++",
"++++++++++++++++++++++++++++++++",
"++++++++++++++++++++++++++++++++",
"++++++++++++++++++++++++++++++++",
"++++++++++++++++++++++++++++++++",
"++++++++++++++++++++++++++++++++",
"++++++++++++++++++++++++++++++++"};
