/* XPM */
static char * maximize_prelight_xpm[] = {
"32 32 42 1",
" 	c None",
".	c #BA672F",
"+	c #B35618",
"@	c #C05D1B",
"#	c #DE6D22",
"$	c #F27827",
"%	c #FC7E29",
"&	c #B55718",
"*	c #E06E23",
"=	c #FE7F2A",
"-	c #E77324",
";	c #DD6D22",
">	c #FC7D29",
",	c #DF6E22",
"'	c #EC7525",
")	c #FF7E2A",
"!	c #DC6C22",
"~	c #B75819",
"{	c #B85919",
"]	c #EB7425",
"^	c #CE641F",
"/	c #B95919",
"(	c #D76A21",
"_	c #E87224",
":	c #D76921",
"<	c #CE651F",
"[	c #DF6D22",
"}	c #C55F1C",
"|	c #F97C29",
"1	c #FF7F2A",
"2	c #C45F1D",
"3	c #DD6C22",
"4	c #C05C1B",
"5	c #E87324",
"6	c #FB7D29",
"7	c #B85819",
"8	c #C45F1C",
"9	c #DE6D23",
"0	c #CE651E",
"a	c #EB7525",
"b	c #B45619",
"c	c #FC7E2A",
"................................",
"++++++++++++++++++++++++++++++++",
"++++++++++++++++++++++++++++++++",
"++++++++++++++++++++++++++++++++",
"++++++++++++++++++++++++++++++++",
"++++++++++++++++++++++++++++++++",
"++++++++++++++++++++++++++++++++",
"++++++++++++++++++++++++++++++++",
"++++++++++++@#$%%$#@++++++++++++",
"++++++++++&*=%-;;->=,&++++++++++",
"+++++++++&')!~++++{;)]&+++++++++",
"+++++++++*=^+/(__:/+<)[+++++++++",
"++++++++@=!+}|1111|2+3=4++++++++",
"++++++++#%~/|111111|/{>;++++++++",
"++++++++$_+(11111111:+5$++++++++",
"++++++++6!+_11111111-+;6++++++++",
"++++++++6!+_11111111-+;6++++++++",
"++++++++$_+:11111111(+5$++++++++",
"++++++++#%{/|111111|{7>;++++++++",
"++++++++@=;+2|1111|8+9=@++++++++",
"+++++++++,)<+/:__({+0)#+++++++++",
"+++++++++&a)3{++++79)]b+++++++++",
"++++++++++&[=>_335c=#b++++++++++",
"++++++++++++4;$66$3@++++++++++++",
"++++++++++++++++++++++++++++++++",
"++++++++++++++++++++++++++++++++",
"++++++++++++++++++++++++++++++++",
"++++++++++++++++++++++++++++++++",
"++++++++++++++++++++++++++++++++",
"++++++++++++++++++++++++++++++++",
"++++++++++++++++++++++++++++++++",
"++++++++++++++++++++++++++++++++"};
