/* XPM */
static char * stick_prelight_xpm[] = {
"32 32 37 1",
" 	c None",
".	c #BA672F",
"+	c #B35618",
"@	c #B85C1E",
"#	c #C4692E",
"$	c #CC7338",
"%	c #D0773D",
"&	c #B45719",
"*	c #C56B2E",
"=	c #D1793D",
"-	c #D1793E",
";	c #D1783D",
">	c #C56A2E",
",	c #CA7035",
"'	c #CA6F34",
")	c #C3692D",
"!	c #B6591B",
"~	c #B75B1D",
"{	c #C66C30",
"]	c #C2672B",
"^	c #C66B30",
"/	c #B4571A",
"(	c #C4692D",
"_	c #CD7338",
":	c #CF763B",
"<	c #CC7337",
"[	c #D0773C",
"}	c #B45619",
"|	c #B5591A",
"1	c #BD6225",
"2	c #C97034",
"3	c #B5581B",
"4	c #BE6226",
"5	c #C2682B",
"6	c #CA7135",
"7	c #B85B1E",
"8	c #C06428",
"................................",
"++++++++++++++++++++++++++++++++",
"++++++++++++++++++++++++++++++++",
"++++++++++++++++++++++++++++++++",
"++++++++++++++++++++++++++++++++",
"++++++++++++++++++++++++++++++++",
"++++++++++++++++++++++++++++++++",
"++++++++++++++++++++++++++++++++",
"++++++++++++@#$%%$#@++++++++++++",
"++++++++++&*=------;>&++++++++++",
"+++++++++&,------%---'&+++++++++",
"+++++++++*----;)!+~{-->+++++++++",
"++++++++@=----]+++++^-;@++++++++",
"++++++++#----;/+++++!--(++++++++",
"++++++++$----_+++++++:-<++++++++",
"++++++++[----[}+++++|=-[++++++++",
"++++++++[-----1+++++(--[++++++++",
"++++++++$----234}+/5=--<++++++++",
"++++++++#---232-[<[----(++++++++",
"++++++++@;-632--------;7++++++++",
"+++++++++>-86---------#+++++++++",
"+++++++++&2----------2}+++++++++",
"++++++++++&>;------;#}++++++++++",
"++++++++++++@(<[[<(7++++++++++++",
"++++++++++++++++++++++++++++++++",
"++++++++++++++++++++++++++++++++",
"++++++++++++++++++++++++++++++++",
"++++++++++++++++++++++++++++++++",
"++++++++++++++++++++++++++++++++",
"++++++++++++++++++++++++++++++++",
"++++++++++++++++++++++++++++++++",
"++++++++++++++++++++++++++++++++"};
