/* XPM */
static char * close_active_xpm[] = {
"32 32 28 1",
" 	c None",
".	c #FFFFFF",
"+	c #D6D6D6",
"@	c #7C7C7C",
"#	c #404040",
"$	c #232323",
"%	c #7D7D7D",
"&	c #D7D7D7",
"*	c #F9F9F9",
"=	c #787878",
"-	c #1B1B1B",
";	c #191919",
">	c #1C1C1C",
",	c #7A7A7A",
"'	c #FAFAFA",
")	c #545454",
"!	c #555555",
"~	c #777777",
"{	c #D8D8D8",
"]	c #7F7F7F",
"^	c #3F3F3F",
"/	c #414141",
"(	c #242424",
"_	c #252525",
":	c #262626",
"<	c #808080",
"[	c #D9D9D9",
"}	c #565656",
"................................",
"................................",
"................................",
"................................",
"................................",
"................................",
"................................",
"................................",
"............+@#$$#%&............",
"..........*=-;;;;;;>,'..........",
".........*);;;;;;;;;;!'.........",
".........~;;;;;;;;;;;;,.........",
"........+-;;;;;;;;;;;;>{........",
"........@;;;;;;;;;;;;;;]........",
"........^;;;;;;;;;;;;;;/........",
"........(;;;;;;;;;;;;;;_........",
"........_;;;;;;;;;;;;;;:........",
"........^;;;;;;;;;;;;;;/........",
"........%;;;;;;;;;;;;;;<........",
"........&>;;;;;;;;;;;;>[........",
".........,;;;;;;;;;;;;@.........",
".........'!;;;;;;;;;;}'.........",
"..........',>;;;;;;>@'..........",
"............{]/((/<[............",
"................................",
"................................",
"................................",
"................................",
"................................",
"................................",
"................................",
"................................"};
