/* XPM */
static char * maximize_active_xpm[] = {
"32 32 22 1",
" 	c None",
".	c #8D3027",
"+	c #811A10",
"@	c #861D15",
"#	c #932420",
"$	c #9B2928",
"%	c #9F2B2B",
"&	c #922420",
"*	c #871E15",
"=	c #811A11",
"-	c #932521",
";	c #A02C2C",
">	c #A02B2B",
",	c #821A11",
"'	c #982825",
")	c #942521",
"!	c #861D14",
"~	c #92241F",
"{	c #9A2827",
"]	c #9E2B2B",
"^	c #982724",
"/	c #972724",
"................................",
"++++++++++++++++++++++++++++++++",
"++++++++++++++++++++++++++++++++",
"++++++++++++++++++++++++++++++++",
"++++++++++++++++++++++++++++++++",
"++++++++++++++++++++++++++++++++",
"++++++++++++++++++++++++++++++++",
"++++++++++++++++++++++++++++++++",
"++++++++++++@#$%%$&*++++++++++++",
"++++++++++=-;;;;;;;>-,++++++++++",
"+++++++++=';;;;;;;;;;',+++++++++",
"+++++++++);;;;;;;;;;;;#+++++++++",
"++++++++@;;;;;;;;;;;;;>!++++++++",
"++++++++#;;;;;;;;;;;;;;~++++++++",
"++++++++$;;;;;;;;;;;;;;{++++++++",
"++++++++];;;;;;;;;;;;;;%++++++++",
"++++++++%;;;;;;;;;;;;;;]++++++++",
"++++++++$;;;;;;;;;;;;;;{++++++++",
"++++++++&;;;;;;;;;;;;;;~++++++++",
"++++++++*>;;;;;;;;;;;;>!++++++++",
"+++++++++-;;;;;;;;;;;;#+++++++++",
"+++++++++,^;;;;;;;;;;/=+++++++++",
"++++++++++,#>;;;;;;>#=++++++++++",
"++++++++++++!~{]]{~!++++++++++++",
"++++++++++++++++++++++++++++++++",
"++++++++++++++++++++++++++++++++",
"++++++++++++++++++++++++++++++++",
"++++++++++++++++++++++++++++++++",
"++++++++++++++++++++++++++++++++",
"++++++++++++++++++++++++++++++++",
"++++++++++++++++++++++++++++++++",
"++++++++++++++++++++++++++++++++"};
