<?xml version="1.0" encoding="UTF-8" standalone="no"?>
<svg
   xmlns:dc="http://purl.org/dc/elements/1.1/"
   xmlns:cc="http://creativecommons.org/ns#"
   xmlns:rdf="http://www.w3.org/1999/02/22-rdf-syntax-ns#"
   xmlns:svg="http://www.w3.org/2000/svg"
   xmlns="http://www.w3.org/2000/svg"
   xmlns:sodipodi="http://sodipodi.sourceforge.net/DTD/sodipodi-0.dtd"
   xmlns:inkscape="http://www.inkscape.org/namespaces/inkscape"
   id="svg2"
   width="32"
   height="16"
   version="1"
   sodipodi:docname="checkmarks.svg"
   inkscape:version="0.92.4 (5da689c313, 2019-01-14)">
  <metadata
     id="metadata15">
    <rdf:RDF>
      <cc:Work
         rdf:about="">
        <dc:format>image/svg+xml</dc:format>
        <dc:type
           rdf:resource="http://purl.org/dc/dcmitype/StillImage" />
        <dc:title></dc:title>
        <dc:title />
      </cc:Work>
    </rdf:RDF>
  </metadata>
  <defs
     id="defs13" />
  <sodipodi:namedview
     pagecolor="#ffffff"
     bordercolor="#666666"
     borderopacity="1"
     objecttolerance="10"
     gridtolerance="10"
     guidetolerance="10"
     inkscape:pageopacity="0"
     inkscape:pageshadow="2"
     inkscape:window-width="1366"
     inkscape:window-height="717"
     id="namedview11"
     showgrid="false"
     showguides="true"
     inkscape:guide-bbox="true"
     inkscape:zoom="23.15625"
     inkscape:cx="16"
     inkscape:cy="8"
     inkscape:window-x="0"
     inkscape:window-y="25"
     inkscape:window-maximized="1"
     inkscape:current-layer="svg2" />
  <g
     id="radiobutton">
    <path
       style="fill:#a02c2c;fill-opacity:1;stroke-width:0.79568148"
       id="path2"
       d="m 8,4.0215928 c -2.196081,0 -3.978408,1.7823266 -3.978408,3.9784076 0,2.1960806 1.782327,3.9784076 3.978408,3.9784076 2.196081,0 3.978408,-1.782327 3.978408,-3.9784076 C 11.978408,5.8039194 10.196081,4.0215928 8,4.0215928 Z M 8,0.04318489 c -4.392162,0 -7.9568151,3.56465361 -7.9568151,7.95681551 0,4.3921616 3.5646531,7.9568146 7.9568151,7.9568146 4.392162,0 7.956815,-3.564653 7.956815,-7.9568146 C 15.956815,3.6078385 12.392162,0.04318489 8,0.04318489 Z M 8,14.365452 c -3.516912,0 -6.3654521,-2.84854 -6.3654521,-6.3654516 0,-3.5169123 2.8485401,-6.3654525 6.3654521,-6.3654525 3.516912,0 6.365452,2.8485402 6.365452,6.3654525 0,3.5169116 -2.84854,6.3654516 -6.365452,6.3654516 z"
       inkscape:connector-curvature="0" />
  </g>
  <g
     id="checkbox">
    <path
       style="fill:#a02c2c;fill-opacity:1;stroke-width:0.8888889"
       id="path2-3"
       d="M 30.233017,0.05398107 H 17.788573 c -0.986667,0 -1.777778,0.79999996 -1.777778,1.77777773 V 14.276202 c 0,0.977778 0.791111,1.777778 1.777778,1.777778 h 12.444444 c 0.986667,0 1.777778,-0.8 1.777778,-1.777778 V 1.8317588 c 0,-0.97777777 -0.791111,-1.77777773 -1.777778,-1.77777773 z m -8,12.44444293 -4.444444,-4.4444428 1.253333,-1.2533335 3.191111,3.1822214 6.746667,-6.7466657 1.253333,1.2622221 z"
       inkscape:connector-curvature="0" />
  </g>
</svg>
