/* XPM */
static char * shade_toggled_prelight_xpm[] = {
"32 32 25 1",
" 	c None",
".	c #8D3027",
"+	c #811A10",
"@	c #861D14",
"#	c #93251D",
"$	c #9A2A24",
"%	c #9E2D27",
"&	c #92251D",
"*	c #811B11",
"=	c #93261E",
"-	c #A02E28",
";	c #9F2E28",
">	c #821B11",
",	c #982821",
"'	c #94261E",
")	c #90241C",
"!	c #95261F",
"~	c #962720",
"{	c #8F231B",
"]	c #9B2A24",
"^	c #9E2C26",
"/	c #92241D",
"(	c #93241C",
"_	c #972821",
":	c #821A10",
"................................",
"++++++++++++++++++++++++++++++++",
"++++++++++++++++++++++++++++++++",
"++++++++++++++++++++++++++++++++",
"++++++++++++++++++++++++++++++++",
"++++++++++++++++++++++++++++++++",
"++++++++++++++++++++++++++++++++",
"++++++++++++++++++++++++++++++++",
"++++++++++++@#$%%$&@++++++++++++",
"++++++++++*=-;;;;;;-=>++++++++++",
"+++++++++*,;;;;;;;;;;,>+++++++++",
"+++++++++';;;;;;;;;;;;#+++++++++",
"++++++++@-;$;;;;;;;;$;-@++++++++",
"++++++++#;)+!;;;;;;~+{;&++++++++",
"++++++++];)++~;;;;~++);]++++++++",
"++++++++^;;/++!;;~++);;^++++++++",
"++++++++^;;;/++!~++);;;^++++++++",
"++++++++];;;;)++++);;;;]++++++++",
"++++++++&;;;;;/++);;;;;(++++++++",
"++++++++@-;;;;;));;;;;-@++++++++",
"+++++++++=;;;;;;;;;;;;#+++++++++",
"+++++++++>,;;;;;;;;;;_:+++++++++",
"++++++++++>#-;;;;;;-#:++++++++++",
"++++++++++++@&]^^](@++++++++++++",
"++++++++++++++++++++++++++++++++",
"++++++++++++++++++++++++++++++++",
"++++++++++++++++++++++++++++++++",
"++++++++++++++++++++++++++++++++",
"++++++++++++++++++++++++++++++++",
"++++++++++++++++++++++++++++++++",
"++++++++++++++++++++++++++++++++",
"++++++++++++++++++++++++++++++++"};
