/* XPM */
static char * maximize_toggled_prelight_xpm[] = {
"32 32 36 1",
" 	c None",
".	c #2F794E",
"+	c #186A3B",
"@	c #1C7339",
"#	c #238932",
"$	c #29972F",
"%	c #2B9E2D",
"&	c #238833",
"*	c #1C7439",
"=	c #186B3A",
"-	c #248A32",
";	c #2CA02C",
">	c #2B9F2C",
",	c #248933",
"'	c #186C3B",
")	c #279230",
"!	c #258C32",
"~	c #1C7538",
"{	c #196B3B",
"]	c #258C31",
"^	c #1F7F35",
"/	c #1D7638",
"(	c #228534",
"_	c #208035",
":	c #1B7338",
"<	c #228533",
"[	c #2C9F2C",
"}	c #238832",
"|	c #1C7637",
"1	c #28962E",
"2	c #2B9D2D",
"3	c #248D31",
"4	c #258D31",
"5	c #26922F",
"6	c #269130",
"7	c #238732",
"................................",
"++++++++++++++++++++++++++++++++",
"++++++++++++++++++++++++++++++++",
"++++++++++++++++++++++++++++++++",
"++++++++++++++++++++++++++++++++",
"++++++++++++++++++++++++++++++++",
"++++++++++++++++++++++++++++++++",
"++++++++++++++++++++++++++++++++",
"++++++++++++@#$%%$&*++++++++++++",
"++++++++++=-;;;;;;;>,'++++++++++",
"+++++++++=);;;;>>;;;;)'+++++++++",
"+++++++++-;;;!~{{~];;;#+++++++++",
"++++++++@;;;^+/((/+_;;>:++++++++",
"++++++++&;;!+<[;;[(+];;}++++++++",
"++++++++$;;~/[;;;;[|~;;1++++++++",
"++++++++2;>{<;;;;;;({>;2++++++++",
"++++++++2;>{(;;;;;;({>;2++++++++",
"++++++++$;;~/[;;;;;|~;;1++++++++",
"++++++++&;;]+([;;[(+3;;}++++++++",
"++++++++*>;;_+|((|+_;;>:++++++++",
"+++++++++,;;;4~{{~3;;;#+++++++++",
"+++++++++'5;;;;>>;;;;6{+++++++++",
"++++++++++'#>;;;;;;>#{++++++++++",
"++++++++++++:}12217:++++++++++++",
"++++++++++++++++++++++++++++++++",
"++++++++++++++++++++++++++++++++",
"++++++++++++++++++++++++++++++++",
"++++++++++++++++++++++++++++++++",
"++++++++++++++++++++++++++++++++",
"++++++++++++++++++++++++++++++++",
"++++++++++++++++++++++++++++++++",
"++++++++++++++++++++++++++++++++"};
