<?xml version="1.0" encoding="UTF-8" standalone="no"?>
<!-- Created with Inkscape (http://www.inkscape.org/) -->

<svg
   xmlns:dc="http://purl.org/dc/elements/1.1/"
   xmlns:cc="http://creativecommons.org/ns#"
   xmlns:rdf="http://www.w3.org/1999/02/22-rdf-syntax-ns#"
   xmlns:svg="http://www.w3.org/2000/svg"
   xmlns="http://www.w3.org/2000/svg"
   xmlns:sodipodi="http://sodipodi.sourceforge.net/DTD/sodipodi-0.dtd"
   xmlns:inkscape="http://www.inkscape.org/namespaces/inkscape"
   width="32"
   height="32"
   viewBox="0 0 8.4666665 8.4666669"
   version="1.1"
   id="svg76"
   inkscape:version="0.92.4 (5da689c313, 2019-01-14)"
   sodipodi:docname="users_primary.svg">
  <defs
     id="defs70" />
  <sodipodi:namedview
     id="base"
     pagecolor="#1c1c1c"
     bordercolor="#666666"
     borderopacity="1.0"
     inkscape:pageopacity="0.0"
     inkscape:pageshadow="2"
     inkscape:zoom="16.375"
     inkscape:cx="18.259542"
     inkscape:cy="16"
     inkscape:document-units="mm"
     inkscape:current-layer="layer1"
     showgrid="true"
     units="px"
     inkscape:window-width="1366"
     inkscape:window-height="708"
     inkscape:window-x="0"
     inkscape:window-y="0"
     inkscape:window-maximized="1"
     showguides="true"
     inkscape:guide-bbox="true" />
  <metadata
     id="metadata73">
    <rdf:RDF>
      <cc:Work
         rdf:about="">
        <dc:format>image/svg+xml</dc:format>
        <dc:type
           rdf:resource="http://purl.org/dc/dcmitype/StillImage" />
        <dc:title></dc:title>
      </cc:Work>
    </rdf:RDF>
  </metadata>
  <g
     inkscape:label="Capa 1"
     inkscape:groupmode="layer"
     id="layer1"
     transform="translate(0,-288.53332)">
    <path
       inkscape:transform-center-y="9.0093705"
       inkscape:transform-center-x="10.260669"
       id="path4"
       d="m 4.2333344,288.59138 a 4.175267,4.175267 0 0 0 -4.17526603,4.18194 4.175267,4.175267 0 0 0 4.18190523,4.16861 4.175267,4.175267 0 0 0 4.1686306,-4.17527 4.175267,4.175267 0 0 0 -4.1752698,-4.17528 z m -0.00666,0.624 a 3.5844908,3.5844908 0 0 1 3.5844865,3.58447 3.5844908,3.5844908 0 0 1 -3.5844912,3.59115 3.5844908,3.5844908 0 0 1 -3.59112663,-3.58456 3.5844908,3.5844908 0 0 1 3.58449133,-3.59772 z m 0.5775024,0.67039 c -0.6173298,0 -1.1151751,0.47795 -1.1151751,1.06206 0,0.2124 0.019925,0.46469 0.1460352,1.04883 0.039827,0.11276 0.2057761,0.30531 0.3783623,0.48459 l -0.013265,0.12603 c -0.086295,0.0667 -0.1991404,0.13279 -0.3119862,0.18587 a 1.8320732,1.8320732 0 0 1 -0.4845807,-0.26548 v -0.11276 c 0.079654,-0.11288 0.1593099,-0.21906 0.1792226,-0.2788 0.086293,-0.41154 0.086293,-0.56419 0.092935,-0.71687 0,-0.39835 -0.3119827,-0.71028 -0.7036239,-0.71028 -0.385,0 -0.7036206,0.31862 -0.7036206,0.71028 0,0.146 0.013265,0.31859 0.092934,0.71687 0.019912,0.0596 0.099568,0.15267 0.1792241,0.25227 v 0.1394 c -0.3451741,0.28541 -1.2811239,0.41154 -1.2811239,0.71021 l -0.1062074,0.88285 c 0,0.25229 0.6106917,0.46469 1.4205225,0.51773 0.1327582,0.33196 1.0819831,0.57756 2.2369875,0.57756 1.2412964,0 2.250264,-0.29208 2.250264,-0.65714 l -0.1460359,-1.08868 c 0,-0.31193 -1.0886225,-0.50447 -1.5068126,-0.86953 l -0.00666,-0.0861 c 0.159311,-0.19915 0.3318988,-0.40488 0.3717263,-0.52437 0.1393948,-0.59745 0.1393948,-0.82977 0.1460344,-1.05544 0,-0.57748 -0.4978478,-1.04881 -1.1085383,-1.04881 z"
       style="fill:#f9f9f9;fill-opacity:1;stroke-width:0.6637944"
       class="ColorScheme-Text"
       inkscape:connector-curvature="0" />
  </g>
</svg>
