<?xml version="1.0" encoding="UTF-8" standalone="no"?>
<svg
   xmlns:dc="http://purl.org/dc/elements/1.1/"
   xmlns:cc="http://creativecommons.org/ns#"
   xmlns:rdf="http://www.w3.org/1999/02/22-rdf-syntax-ns#"
   xmlns:svg="http://www.w3.org/2000/svg"
   xmlns="http://www.w3.org/2000/svg"
   xmlns:sodipodi="http://sodipodi.sourceforge.net/DTD/sodipodi-0.dtd"
   xmlns:inkscape="http://www.inkscape.org/namespaces/inkscape"
   id="svg4306"
   width="22"
   height="22"
   version="1.1"
   style="enable-background:new"
   sodipodi:docname="alldesktops.svg"
   inkscape:version="0.92.4 (5da689c313, 2019-01-14)">
  <metadata
     id="metadata24">
    <rdf:RDF>
      <cc:Work
         rdf:about="">
        <dc:format>image/svg+xml</dc:format>
        <dc:type
           rdf:resource="http://purl.org/dc/dcmitype/StillImage" />
        <dc:title></dc:title>
      </cc:Work>
    </rdf:RDF>
  </metadata>
  <defs
     id="defs22" />
  <style
     type="text/css"
     id="current-color-scheme">
      .ColorScheme-Text {
        color:#31363b;
      }
      .ColorScheme-Background {
        color:#eff0f1;
      }
      .ColorScheme-Highlight {
        color:#3daee9;
      }

      </style>
  <sodipodi:namedview
     pagecolor="#ffffff"
     bordercolor="#666666"
     borderopacity="1"
     objecttolerance="10"
     gridtolerance="10"
     guidetolerance="10"
     inkscape:pageopacity="1"
     inkscape:pageshadow="2"
     inkscape:window-width="1366"
     inkscape:window-height="707"
     id="namedview20"
     showgrid="true"
     inkscape:zoom="2.6363636"
     inkscape:cx="11"
     inkscape:cy="11"
     inkscape:window-x="0"
     inkscape:window-y="0"
     inkscape:window-maximized="1"
     inkscape:current-layer="svg4306" />
  <g
     id="active-center"
     inkscape:label="#g843">
    <path
       inkscape:connector-curvature="0"
       d="m -10.999959,21.95759 c 6.051736,0 10.957538,-4.905876 10.957538,-10.957685 0,-6.0515762 -4.905802,-10.95748298 -10.957538,-10.95748298 -6.05171,0 -10.95763,4.90590678 -10.95763,10.95748298 0,6.051809 4.90592,10.957685 10.95763,10.957685"
       style="fill:#000000;fill-opacity:0;fill-rule:evenodd;stroke:none;stroke-width:0.02563604;enable-background:new"
       id="path14-3" />
    <path
       inkscape:connector-curvature="0"
       id="path831"
       class="ColorScheme-Text"
       d="m -9.0137793,3.986864 a 5.0269122,5.0269122 0 0 0 -5.0269197,5.0269128 5.0269122,5.0269122 0 0 0 1.007344,3.0141772 l -3.974404,3.974402 -1.00538,2.01078 2.010777,-1.005379 3.976366,-3.976368 A 5.0269122,5.0269122 0 0 0 -9.0137793,14.040692 5.0269122,5.0269122 0 0 0 -3.986861,9.0137768 5.0269122,5.0269122 0 0 0 -9.0137793,3.986864 Z"
       style="fill:currentColor;fill-opacity:1;stroke-width:1.00538194" />
  </g>
  <g
     id="hover-center">
    <path
       id="path14-3-5"
       class="ColorScheme-Text"
       d="M 11,0.04296875 C 4.9482896,0.04296875 0.04296875,4.9484238 0.04296875,11 0.04296875,17.051809 4.9482896,21.957031 11,21.957031 17.051736,21.957031 21.957031,17.051809 21.957031,11 21.957031,4.9484238 17.051736,0.04296875 11,0.04296875 Z M 12.986328,3.9863281 A 5.0269122,5.0269122 0 0 1 18.013672,9.0136719 5.0269122,5.0269122 0 0 1 12.986328,14.041016 5.0269122,5.0269122 0 0 1 9.9746094,13.03125 l -3.9765625,3.976562 -2.0117188,1.00586 1.0058594,-2.011719 3.9746094,-3.974609 A 5.0269122,5.0269122 0 0 1 7.9589844,9.0136719 5.0269122,5.0269122 0 0 1 12.986328,3.9863281 Z"
       style="fill:currentColor;fill-opacity:1;fill-rule:evenodd;stroke:none;stroke-width:0.02563604;enable-background:new"
       inkscape:connector-curvature="0" />
  </g>
  <g
     id="pressed-center"
     transform="translate(22)">
    <circle
       r="5"
       cy="11"
       cx="11"
       id="path1026"
       class="ColorScheme-Text"
       style="opacity:1;fill:currentColor;fill-opacity:1;fill-rule:evenodd;stroke:none;stroke-width:0.27272725;stroke-linejoin:miter;stroke-miterlimit:4;stroke-dasharray:none;stroke-opacity:1" />
    <path
       inkscape:connector-curvature="0"
       d="m 11.000041,21.95759 c 6.051736,0 10.957538,-4.905876 10.957538,-10.957685 0,-6.0515762 -4.905802,-10.95748298 -10.957538,-10.95748298 -6.0517104,0 -10.95762989,4.90590678 -10.95762989,10.95748298 0,6.051809 4.90591949,10.957685 10.95762989,10.957685"
       style="fill:#000000;fill-opacity:0;fill-rule:evenodd;stroke:none;stroke-width:0.02563604;enable-background:new"
       id="path14-3-1" />
  </g>
  <g
     id="inactive-center"
     inkscape:label="#g846">
    <path
       inkscape:connector-curvature="0"
       d="m 55.000041,21.95759 c 6.051736,0 10.957538,-4.905876 10.957538,-10.957685 0,-6.0515762 -4.905802,-10.95748298 -10.957538,-10.95748298 -6.05171,0 -10.95763,4.90590678 -10.95763,10.95748298 0,6.051809 4.90592,10.957685 10.95763,10.957685"
       style="fill:#000000;fill-opacity:0;fill-rule:evenodd;stroke:none;stroke-width:0.02563604;enable-background:new"
       id="path14-3-9" />
    <path
       inkscape:connector-curvature="0"
       id="path831-6"
       class="ColorScheme-Text"
       d="m 56.986221,3.986864 a 5.0269122,5.0269122 0 0 0 -5.02692,5.0269128 5.0269122,5.0269122 0 0 0 1.007344,3.0141772 l -3.974404,3.974402 -1.00538,2.01078 2.010777,-1.005379 3.976366,-3.976368 a 5.0269122,5.0269122 0 0 0 3.012217,1.009303 5.0269122,5.0269122 0 0 0 5.026918,-5.0269152 5.0269122,5.0269122 0 0 0 -5.026918,-5.0269128 z"
       style="fill:currentColor;fill-opacity:0.5;stroke-width:1.00538194" />
  </g>
  <g
     id="deactivated-center"
     inkscape:label="#g854">
    <path
       inkscape:connector-curvature="0"
       d="m 77.000041,21.95759 c 6.051736,0 10.957538,-4.905876 10.957538,-10.957685 0,-6.0515762 -4.905802,-10.95748298 -10.957538,-10.95748298 -6.05171,0 -10.95763,4.90590678 -10.95763,10.95748298 0,6.051809 4.90592,10.957685 10.95763,10.957685"
       style="fill:#000000;fill-opacity:0;fill-rule:evenodd;stroke:none;stroke-width:0.02563604;enable-background:new"
       id="path14-3-9-6" />
    <path
       inkscape:connector-curvature="0"
       id="path831-6-6"
       d="m 78.986221,3.986864 a 5.0269122,5.0269122 0 0 0 -5.02692,5.0269128 5.0269122,5.0269122 0 0 0 1.007344,3.0141772 l -3.974404,3.974402 -1.00538,2.01078 2.010777,-1.005379 3.976366,-3.976368 a 5.0269122,5.0269122 0 0 0 3.012217,1.009303 5.0269122,5.0269122 0 0 0 5.026918,-5.0269152 5.0269122,5.0269122 0 0 0 -5.026918,-5.0269128 z"
       style="fill:currentColor;fill-opacity:0.5;stroke-width:1.00538194" />
  </g>
  <path
     style="font-style:normal;font-variant:normal;font-weight:normal;font-stretch:normal;font-size:16px;line-height:1.25;font-family:'Abyssinica SIL';-inkscape-font-specification:'Abyssinica SIL';letter-spacing:0px;word-spacing:0px;fill:#ffffff;fill-opacity:1;stroke:none;stroke-width:0.50350225"
     d="m 53.641248,-35.60365 c -0.06611,0 -0.128405,0.01352 -0.186887,0.04057 -0.05848,0.02434 -0.110606,0.0595 -0.156374,0.105481 -0.04323,0.04598 -0.07755,0.100071 -0.102979,0.162278 -0.02543,0.06221 -0.03814,0.12847 -0.03814,0.198791 0,0.07032 0.01271,0.137936 0.03814,0.202847 0.02543,0.06221 0.05975,0.1163 0.102979,0.162279 0.04577,0.04598 0.09789,0.08249 0.156374,0.109537 0.05848,0.02705 0.120778,0.04057 0.186887,0.04057 0.06611,0 0.128406,-0.01352 0.186887,-0.04057 0.05848,-0.02705 0.109336,-0.06356 0.152561,-0.109537 0.04323,-0.04598 0.07628,-0.100072 0.09916,-0.162279 0.02543,-0.06491 0.03814,-0.132527 0.03814,-0.202847 0,-0.07032 -0.01271,-0.136584 -0.03814,-0.198791 -0.02289,-0.06221 -0.05594,-0.116299 -0.09916,-0.162278 -0.04322,-0.04598 -0.09408,-0.08114 -0.152561,-0.105481 -0.05848,-0.02705 -0.120777,-0.04057 -0.186887,-0.04057 z m 16.129491,0.608542 c -0.266981,0 -0.513621,0.04868 -0.73992,0.146051 -0.223755,0.09737 -0.416999,0.254235 -0.579731,0.470606 -0.160188,0.216371 -0.286051,0.500358 -0.377587,0.85196 -0.09154,0.348898 -0.137305,0.774878 -0.137305,1.27794 0,0.505767 0.04704,0.92228 0.141118,1.249542 0.09408,0.324556 0.219942,0.581496 0.377589,0.77082 0.157646,0.189325 0.339447,0.321852 0.545404,0.397582 0.205957,0.07303 0.420814,0.109537 0.64457,0.109537 0.223756,0 0.441155,-0.03516 0.652197,-0.105481 0.213585,-0.07032 0.401744,-0.178505 0.564475,-0.324556 0.162732,-0.14605 0.29368,-0.331318 0.392844,-0.555802 0.09917,-0.224485 0.148747,-0.490891 0.148747,-0.79922 0,-0.205552 -0.02288,-0.389467 -0.06865,-0.551745 -0.04323,-0.162278 -0.102979,-0.304271 -0.179259,-0.42598 -0.07374,-0.124414 -0.16146,-0.228542 -0.263168,-0.312386 -0.09916,-0.08655 -0.204685,-0.156868 -0.316563,-0.210961 -0.111878,-0.05409 -0.226299,-0.09331 -0.343262,-0.117651 -0.116963,-0.02434 -0.228841,-0.03651 -0.335634,-0.03651 -0.139847,0 -0.268252,0.01352 -0.385216,0.04057 -0.116963,0.02705 -0.222484,0.06356 -0.316563,0.109538 -0.09408,0.04327 -0.176717,0.09466 -0.247912,0.154164 -0.0712,0.0595 -0.132219,0.121709 -0.183073,0.18662 0.03814,-0.373239 0.08518,-0.676159 0.141119,-0.908757 0.05848,-0.232599 0.128405,-0.413809 0.209771,-0.543632 0.08137,-0.129822 0.176717,-0.217723 0.286052,-0.263702 0.109335,-0.04598 0.232655,-0.06897 0.369959,-0.06897 0.119506,0 0.218671,0.02164 0.297494,0.06491 0.07882,0.04327 0.14239,0.09872 0.190701,0.166335 0.04831,0.06491 0.08137,0.139289 0.09916,0.223133 0.02034,0.08114 0.03051,0.159573 0.03051,0.235303 h 0.827642 c 0,-0.173097 -0.03433,-0.334023 -0.102979,-0.482777 -0.06865,-0.148755 -0.166545,-0.278578 -0.293679,-0.389468 -0.127134,-0.11089 -0.279695,-0.197438 -0.457682,-0.259645 -0.177988,-0.06491 -0.375045,-0.09737 -0.591174,-0.09737 z m -8.608243,0.154165 c -0.03051,0.04327 -0.08899,0.104128 -0.175445,0.182563 -0.08645,0.07843 -0.183073,0.160925 -0.289865,0.247473 -0.106793,0.08384 -0.2174,0.163631 -0.33182,0.239361 -0.111878,0.07573 -0.211042,0.132527 -0.297494,0.170392 v 0.799219 c 0.07628,-0.02434 0.165275,-0.05815 0.266982,-0.101423 0.101707,-0.04598 0.204685,-0.09601 0.308935,-0.150108 0.10425,-0.0568 0.203415,-0.116299 0.297494,-0.178506 0.09662,-0.06491 0.177987,-0.129822 0.244097,-0.194733 v 4.105635 h 0.79713 v -5.119873 z m 4.508172,0 -1.990919,3.0346 v 0.989896 h 2.296041 v 1.095377 h 0.789502 v -1.095377 h 0.514892 v -0.742422 h -0.514892 v -3.282074 z m 8.436613,0 -1.990919,3.0346 v 0.989896 h 2.29604 v 1.095377 h 0.789502 v -1.095377 h 0.514893 v -0.742422 h -0.514893 v -3.282074 z m -8.131491,0.616656 v 2.665418 h -1.704868 z m 8.436612,0 v 2.665418 h -1.704867 z m -20.698687,0.397582 -0.961133,0.316442 v 0.275873 h 0.553033 v 3.687769 c 0,0.159573 -0.0064,0.311033 -0.01907,0.454379 -0.01017,0.14605 -0.03051,0.277225 -0.06102,0.393524 -0.02797,0.119004 -0.06611,0.220428 -0.114421,0.304272 -0.04831,0.08655 -0.108063,0.151459 -0.179258,0.194733 l -0.758991,-0.555802 c -0.03814,0.01352 -0.07755,0.03245 -0.118234,0.0568 -0.04068,0.02705 -0.07628,0.0595 -0.106792,0.09737 -0.03305,0.04057 -0.05975,0.08655 -0.0801,0.137936 -0.02034,0.05409 -0.03051,0.116299 -0.03051,0.18662 0,0.07843 0.01653,0.14605 0.04958,0.202848 0.03051,0.0595 0.07374,0.108185 0.129677,0.14605 0.0534,0.03787 0.115692,0.06491 0.186887,0.08114 0.07119,0.01893 0.147475,0.0284 0.228841,0.0284 0.24664,0 0.483109,-0.06356 0.709408,-0.190677 0.228841,-0.124413 0.423356,-0.317795 0.583545,-0.580144 0.06611,-0.11089 0.119506,-0.236656 0.160189,-0.377297 0.04068,-0.140641 0.0712,-0.285339 0.09154,-0.434093 0.02288,-0.148756 0.03814,-0.296158 0.04577,-0.442208 0.0076,-0.148755 0.01144,-0.285339 0.01144,-0.409752 v -3.574175 z m 2.147293,0 -0.961133,0.324556 v 0.283986 h 0.545405 v 2.251609 c 0,0.235303 0.02416,0.438151 0.07247,0.608543 0.05085,0.167687 0.122049,0.306976 0.213586,0.417866 0.09408,0.108185 0.207228,0.187972 0.339447,0.23936 0.134762,0.05409 0.286052,0.08114 0.453869,0.08114 0.11442,0 0.231383,-0.02029 0.35089,-0.06085 0.122048,-0.03787 0.23774,-0.0852 0.347075,-0.141993 0.111878,-0.0595 0.214857,-0.123062 0.308936,-0.190677 0.09662,-0.06762 0.177987,-0.128471 0.244097,-0.182563 v 0.474663 h 1.239557 v -0.324556 l -0.343262,-0.02434 c -0.04577,-0.0054 -0.08645,-0.02434 -0.122049,-0.0568 -0.03305,-0.03246 -0.04958,-0.07438 -0.04958,-0.125765 v -3.574175 h -0.320378 l -0.953505,0.324556 v 0.283986 h 0.549219 v 2.78307 c -0.04577,0.02434 -0.101707,0.05139 -0.167817,0.08114 -0.06357,0.02705 -0.132219,0.05409 -0.205957,0.08114 -0.07374,0.02434 -0.151289,0.04463 -0.232655,0.06085 -0.08137,0.01623 -0.16146,0.02434 -0.240283,0.02434 -0.137305,0 -0.254268,-0.02028 -0.35089,-0.06086 -0.09662,-0.04327 -0.175445,-0.10548 -0.236469,-0.186619 -0.05848,-0.08114 -0.101707,-0.179859 -0.129677,-0.296158 -0.02543,-0.116299 -0.03814,-0.247474 -0.03814,-0.393524 v -2.70193 z m 13.818195,1.204915 c 0.124592,0 0.241555,0.0311 0.35089,0.09331 0.109335,0.0595 0.203414,0.141994 0.282237,0.247475 0.08137,0.102775 0.144933,0.224484 0.190701,0.365125 0.04831,0.140641 0.07247,0.290748 0.07247,0.450322 0,0.159573 -0.02416,0.311033 -0.07247,0.454378 -0.04577,0.140641 -0.109335,0.263703 -0.190701,0.369183 -0.07882,0.105481 -0.172902,0.189325 -0.282237,0.251531 -0.109335,0.0595 -0.226298,0.08925 -0.35089,0.08925 -0.122049,0 -0.237741,-0.02975 -0.347076,-0.08925 -0.109335,-0.06221 -0.205957,-0.14605 -0.289865,-0.251531 -0.08137,-0.10548 -0.146204,-0.228542 -0.194515,-0.369183 -0.04577,-0.143345 -0.06865,-0.294805 -0.06865,-0.454378 0,-0.159574 0.02288,-0.309681 0.06865,-0.450322 0.04831,-0.140641 0.113149,-0.26235 0.194515,-0.365125 0.08391,-0.105481 0.18053,-0.187973 0.289865,-0.247475 0.109335,-0.06221 0.225027,-0.09331 0.347076,-0.09331 z"
     id="text832"
     inkscape:connector-curvature="0" />
</svg>
