/* XPM */
static char * hide_prelight_xpm[] = {
"32 32 24 1",
" 	c None",
".	c #FFFFFF",
"+	c #E8E8E8",
"@	c #B6B6B6",
"#	c #959595",
"$	c #858585",
"%	c #B7B7B7",
"&	c #E9E9E9",
"*	c #FBFBFB",
"=	c #B4B4B4",
"-	c #808080",
";	c #7F7F7F",
">	c #818181",
",	c #B5B5B5",
"'	c #FCFCFC",
")	c #A0A0A0",
"!	c #B3B3B3",
"~	c #B8B8B8",
"{	c #949494",
"]	c #868686",
"^	c #D9D9D9",
"/	c #EEEEEE",
"(	c #EAEAEA",
"_	c #A1A1A1",
"................................",
"................................",
"................................",
"................................",
"................................",
"................................",
"................................",
"................................",
"............+@#$$#%&............",
"..........*=-;;;;;;>,'..........",
".........*);;;;;;;;;;)'.........",
".........!;;;;;;;;;;;;,.........",
"........+-;;;;;;;;;;;;>&........",
"........@;;;;;;;;;;;;;;~........",
"........{;;;;;;;;;;;;;;#........",
"........];^//////////^;]........",
"........];^//////////^;]........",
"........{;;;;;;;;;;;;;;#........",
"........%;;;;;;;;;;;;;;~........",
"........&>;;;;;;;;;;;;>(........",
".........,;;;;;;;;;;;;@.........",
".........'_;;;;;;;;;;_'.........",
"..........',>;;;;;;>@'..........",
"............&~#$$#~(............",
"................................",
"................................",
"................................",
"................................",
"................................",
"................................",
"................................",
"................................"};
