/* XPM */
static char * maximize_active_xpm[] = {
"32 32 28 1",
" 	c None",
".	c #FFFFFF",
"+	c #DFDFDF",
"@	c #999999",
"#	c #6A6A6A",
"$	c #545454",
"%	c #9A9A9A",
"&	c #E0E0E0",
"*	c #FAFAFA",
"=	c #969696",
"-	c #4D4D4D",
";	c #4C4C4C",
">	c #4E4E4E",
",	c #979797",
"'	c #FBFBFB",
")	c #7A7A7A",
"!	c #959595",
"~	c #989898",
"{	c #E1E1E1",
"]	c #9B9B9B",
"^	c #696969",
"/	c #6B6B6B",
"(	c #555555",
"_	c #565656",
":	c #9C9C9C",
"<	c #E2E2E2",
"[	c #7B7B7B",
"}	c #7C7C7C",
"................................",
"................................",
"................................",
"................................",
"................................",
"................................",
"................................",
"................................",
"............+@#$$#%&............",
"..........*=-;;;;;;>,'..........",
".........*);;;;;;;;;;)'.........",
".........!;;;;;;;;;;;;~.........",
"........+-;;;;;;;;;;;;>{........",
"........@;;;;;;;;;;;;;;]........",
"........^;;;;;;;;;;;;;;/........",
"........$;;;;;;;;;;;;;;(........",
"........(;;;;;;;;;;;;;;_........",
"........^;;;;;;;;;;;;;;/........",
"........%;;;;;;;;;;;;;;:........",
"........&>;;;;;;;;;;;;><........",
".........,;;;;;;;;;;;;@.........",
".........'[;;;;;;;;;;}'.........",
"..........'~>;;;;;;>@'..........",
"............{]/$$/:<............",
"................................",
"................................",
"................................",
"................................",
"................................",
"................................",
"................................",
"................................"};
