/* XPM */
static char * stick_prelight_xpm[] = {
"32 32 42 1",
" 	c None",
".	c #FFFFFF",
"+	c #E4E4E4",
"@	c #A8A8A8",
"#	c #808080",
"$	c #6D6D6D",
"%	c #A9A9A9",
"&	c #E5E5E5",
"*	c #FBFBFB",
"=	c #A5A5A5",
"-	c #676767",
";	c #666666",
">	c #686868",
",	c #A6A6A6",
"'	c #8D8D8D",
")	c #6C6C6C",
"!	c #8E8E8E",
"~	c #A4A4A4",
"{	c #ACACAC",
"]	c #F1F1F1",
"^	c #ECECEC",
"/	c #A0A0A0",
"(	c #A7A7A7",
"_	c #B2B2B2",
":	c #6A6A6A",
"<	c #FAFAFA",
"[	c #AAAAAA",
"}	c #7F7F7F",
"|	c #707070",
"1	c #6E6E6E",
"2	c #6F6F6F",
"3	c #FDFDFD",
"4	c #F4F4F4",
"5	c #CACACA",
"6	c #8F8F8F",
"7	c #B0B0B0",
"8	c #818181",
"9	c #8A8A8A",
"0	c #E6E6E6",
"a	c #C0C0C0",
"b	c #898989",
"c	c #FCFCFC",
"................................",
"................................",
"................................",
"................................",
"................................",
"................................",
"................................",
"................................",
"............+@#$$#%&............",
"..........*=-;;;;;;>,*..........",
".........*';;;;;;);;;!*.........",
".........~;;;;>{].^/;;(.........",
"........+-;;;;_...../;>&........",
"........%;;;;:<.....]-;[........",
"........};;;;}.......|;#........",
"........1;;;;23.....4-;1........",
"........1;;;;;5.....[;;1........",
"........};;;;6453.<7-;;#........",
"........%;;;64!;181;;;;[........",
"........&>;946;;;;;;;;>0........",
".........,-ab;;;;;;;;;@.........",
".........*6;;;;;;;;;;6c.........",
"..........*(>;;;;;;>@c..........",
"............&[#$$#[0............",
"................................",
"................................",
"................................",
"................................",
"................................",
"................................",
"................................",
"................................"};
