/* XPM */
static char * maximize_prelight_xpm[] = {
"32 32 49 1",
" 	c None",
".	c #365970",
"+	c #204760",
"@	c #22526B",
"#	c #276D84",
"$	c #2A7E95",
"%	c #2B869D",
"&	c #276C84",
"*	c #22536B",
"=	c #204961",
"-	c #276E86",
";	c #2C89A0",
">	c #28758C",
",	c #266B83",
"'	c #2B879E",
")	c #2B889F",
"!	c #276E85",
"~	c #204862",
"{	c #29788F",
"]	c #2C889F",
"^	c #276B83",
"/	c #214B63",
"(	c #214C64",
"_	c #297890",
":	c #245E76",
"<	c #204C65",
"[	c #26677F",
"}	c #29758C",
"|	c #26667E",
"1	c #214C65",
"2	c #255E76",
"3	c #276D85",
"4	c #23576F",
"5	c #2B849B",
"6	c #2C849B",
"7	c #23566E",
"8	c #266C83",
"9	c #266B84",
"0	c #2A7E96",
"a	c #29758D",
"b	c #2A7D95",
"c	c #2C869D",
"d	c #214B65",
"e	c #23566F",
"f	c #22526A",
"g	c #245E77",
"h	c #28788F",
"i	c #29778F",
"j	c #2B879D",
"................................",
"++++++++++++++++++++++++++++++++",
"++++++++++++++++++++++++++++++++",
"++++++++++++++++++++++++++++++++",
"++++++++++++++++++++++++++++++++",
"++++++++++++++++++++++++++++++++",
"++++++++++++++++++++++++++++++++",
"++++++++++++++++++++++++++++++++",
"++++++++++++@#$%%$&*++++++++++++",
"++++++++++=-;%>,,>')!~++++++++++",
"+++++++++={]^/++++(,]_~+++++++++",
"+++++++++-;:+<[}}|1+2]3+++++++++",
"++++++++@;^+45;;;;67+8)@++++++++",
"++++++++&%/<5;;;;;;61('9++++++++",
"++++++++0}+[;;;;;;;;|+ab++++++++",
"++++++++c^+};;;;;;;;>+,c++++++++",
"++++++++c^+};;;;;;;;>+,c++++++++",
"++++++++0}+|;;;;;;;;|+ab++++++++",
"++++++++&%(16;;;;;;5(d'9++++++++",
"++++++++*),+76;;;;5e+&)f++++++++",
"+++++++++!]2+1|}}|(+g]#+++++++++",
"+++++++++~h]8(++++d&]i=+++++++++",
"++++++++++~3)'}88aj)#=++++++++++",
"++++++++++++@9bccb8f++++++++++++",
"++++++++++++++++++++++++++++++++",
"++++++++++++++++++++++++++++++++",
"++++++++++++++++++++++++++++++++",
"++++++++++++++++++++++++++++++++",
"++++++++++++++++++++++++++++++++",
"++++++++++++++++++++++++++++++++",
"++++++++++++++++++++++++++++++++",
"++++++++++++++++++++++++++++++++"};
