/* XPM */
static char * maximize_active_xpm[] = {
"32 32 27 1",
" 	c None",
".	c #365970",
"+	c #204760",
"@	c #22526B",
"#	c #276D84",
"$	c #2A7E95",
"%	c #2B869D",
"&	c #276C84",
"*	c #22536B",
"=	c #204961",
"-	c #276E86",
";	c #2C89A0",
">	c #2B889F",
",	c #276E85",
"'	c #204862",
")	c #29788F",
"!	c #297890",
"~	c #276D85",
"{	c #266B84",
"]	c #2A7E96",
"^	c #2A7D95",
"/	c #2C869D",
"(	c #2C859C",
"_	c #266C83",
":	c #22526A",
"<	c #28788F",
"[	c #29778F",
"................................",
"++++++++++++++++++++++++++++++++",
"++++++++++++++++++++++++++++++++",
"++++++++++++++++++++++++++++++++",
"++++++++++++++++++++++++++++++++",
"++++++++++++++++++++++++++++++++",
"++++++++++++++++++++++++++++++++",
"++++++++++++++++++++++++++++++++",
"++++++++++++@#$%%$&*++++++++++++",
"++++++++++=-;;;;;;;>,'++++++++++",
"+++++++++=);;;;;;;;;;!'+++++++++",
"+++++++++-;;;;;;;;;;;;~+++++++++",
"++++++++@;;;;;;;;;;;;;>@++++++++",
"++++++++#;;;;;;;;;;;;;;{++++++++",
"++++++++];;;;;;;;;;;;;;^++++++++",
"++++++++/;;;;;;;;;;;;;;/++++++++",
"++++++++/;;;;;;;;;;;;;;(++++++++",
"++++++++];;;;;;;;;;;;;;^++++++++",
"++++++++&;;;;;;;;;;;;;;_++++++++",
"++++++++*>;;;;;;;;;;;;>:++++++++",
"+++++++++,;;;;;;;;;;;;#+++++++++",
"+++++++++'<;;;;;;;;;;[=+++++++++",
"++++++++++'~>;;;;;;>#=++++++++++",
"++++++++++++@{^//^_:++++++++++++",
"++++++++++++++++++++++++++++++++",
"++++++++++++++++++++++++++++++++",
"++++++++++++++++++++++++++++++++",
"++++++++++++++++++++++++++++++++",
"++++++++++++++++++++++++++++++++",
"++++++++++++++++++++++++++++++++",
"++++++++++++++++++++++++++++++++",
"++++++++++++++++++++++++++++++++"};
