/* XPM */
static char * menu_prelight_xpm[] = {
"32 32 29 1",
" 	c None",
".	c #365970",
"+	c #204760",
"@	c #234F67",
"#	c #2A6079",
"$	c #2E6B84",
"%	c #31718A",
"&	c #2A6078",
"*	c #234E67",
"=	c #214861",
"-	c #31738C",
";	c #31728C",
">	c #2B617A",
",	c #2C6880",
"'	c #2C6780",
")	c #2A617A",
"!	c #234E68",
"~	c #2A5F79",
"{	c #2E6B85",
"]	c #2E6A84",
"^	c #2E6C84",
"/	c #307089",
"(	c #204761",
"_	c #2D6B84",
":	c #295F79",
"<	c #2D6781",
"[	c #2D6780",
"}	c #204861",
"|	c #307189",
"................................",
"++++++++++++++++++++++++++++++++",
"++++++++++++++++++++++++++++++++",
"++++++++++++++++++++++++++++++++",
"++++++++++++++++++++++++++++++++",
"++++++++++++++++++++++++++++++++",
"++++++++++++++++++++++++++++++++",
"++++++++++++++++++++++++++++++++",
"++++++++++++@#$%%$&*++++++++++++",
"++++++++++=#-------;>=++++++++++",
"+++++++++=,----------'=+++++++++",
"+++++++++)------------)+++++++++",
"++++++++@-------------;!++++++++",
"++++++++#--------------~++++++++",
"++++++++{------]$------^++++++++",
"++++++++/-----$((_-----/++++++++",
"++++++++/-----$((_-----/++++++++",
"++++++++{------__------^++++++++",
"++++++++&--------------:++++++++",
"++++++++*;------------;!++++++++",
"+++++++++>------------#+++++++++",
"+++++++++=<----------[}+++++++++",
"++++++++++=);------;#}++++++++++",
"++++++++++++!~^||^:!++++++++++++",
"++++++++++++++++++++++++++++++++",
"++++++++++++++++++++++++++++++++",
"++++++++++++++++++++++++++++++++",
"++++++++++++++++++++++++++++++++",
"++++++++++++++++++++++++++++++++",
"++++++++++++++++++++++++++++++++",
"++++++++++++++++++++++++++++++++",
"++++++++++++++++++++++++++++++++"};
