/* XPM */
static char * stick_prelight_xpm[] = {
"32 32 40 1",
" 	c None",
".	c #365970",
"+	c #204760",
"@	c #234F67",
"#	c #2A6079",
"$	c #2E6B84",
"%	c #31718A",
"&	c #2A6078",
"*	c #234E67",
"=	c #214861",
"-	c #31738C",
";	c #31728C",
">	c #2B617A",
",	c #2C6880",
"'	c #2C6780",
")	c #2A617A",
"!	c #295F77",
"~	c #224B64",
"{	c #224C65",
"]	c #2A627B",
"^	c #285D76",
"/	c #2B627B",
"(	c #234E68",
"_	c #30718A",
":	c #2A5F79",
"<	c #2E6B85",
"[	c #307089",
"}	c #2E6C84",
"|	c #30708A",
"1	c #214A63",
"2	c #26566F",
"3	c #295F79",
"4	c #2D6780",
"5	c #25566F",
"6	c #295E76",
"7	c #2D6781",
"8	c #2D6882",
"9	c #275972",
"0	c #204861",
"a	c #307189",
"................................",
"++++++++++++++++++++++++++++++++",
"++++++++++++++++++++++++++++++++",
"++++++++++++++++++++++++++++++++",
"++++++++++++++++++++++++++++++++",
"++++++++++++++++++++++++++++++++",
"++++++++++++++++++++++++++++++++",
"++++++++++++++++++++++++++++++++",
"++++++++++++@#$%%$&*++++++++++++",
"++++++++++=#-------;>=++++++++++",
"+++++++++=,------%---'=+++++++++",
"+++++++++)----;!~+{]--)+++++++++",
"++++++++@-----^+++++/-;(++++++++",
"++++++++&----_=+++++~--:++++++++",
"++++++++<----<+++++++[-}++++++++",
"++++++++[----|++++++1--[++++++++",
"++++++++[-----2+++++3--[++++++++",
"++++++++<----415++=6---}++++++++",
"++++++++&---417-|$[----:++++++++",
"++++++++*;-814--------;(++++++++",
"+++++++++>-98---------#+++++++++",
"+++++++++=4----------40+++++++++",
"++++++++++=);------;#0++++++++++",
"++++++++++++(:}aa}3(++++++++++++",
"++++++++++++++++++++++++++++++++",
"++++++++++++++++++++++++++++++++",
"++++++++++++++++++++++++++++++++",
"++++++++++++++++++++++++++++++++",
"++++++++++++++++++++++++++++++++",
"++++++++++++++++++++++++++++++++",
"++++++++++++++++++++++++++++++++",
"++++++++++++++++++++++++++++++++"};
