<?xml version="1.0" encoding="UTF-8" standalone="no"?>
<svg
   xmlns:dc="http://purl.org/dc/elements/1.1/"
   xmlns:cc="http://creativecommons.org/ns#"
   xmlns:rdf="http://www.w3.org/1999/02/22-rdf-syntax-ns#"
   xmlns:svg="http://www.w3.org/2000/svg"
   xmlns="http://www.w3.org/2000/svg"
   xmlns:sodipodi="http://sodipodi.sourceforge.net/DTD/sodipodi-0.dtd"
   xmlns:inkscape="http://www.inkscape.org/namespaces/inkscape"
   id="svg4306"
   width="22"
   height="22"
   version="1.1"
   style="enable-background:new"
   sodipodi:docname="maximize.svg"
   inkscape:version="0.92.4 (5da689c313, 2019-01-14)">
  <metadata
     id="metadata24">
    <rdf:RDF>
      <cc:Work
         rdf:about="">
        <dc:format>image/svg+xml</dc:format>
        <dc:type
           rdf:resource="http://purl.org/dc/dcmitype/StillImage" />
        <dc:title></dc:title>
      </cc:Work>
    </rdf:RDF>
  </metadata>
  <defs
     id="defs22" />
  <style
     type="text/css"
     id="current-color-scheme">
      .ColorScheme-Text {
        color:#31363b;
      }
      .ColorScheme-Background {
        color:#eff0f1;
      }
      .ColorScheme-Highlight {
        color:#3daee9;
      }

      </style>
  <sodipodi:namedview
     pagecolor="#ffffff"
     bordercolor="#666666"
     borderopacity="1"
     objecttolerance="10"
     gridtolerance="10"
     guidetolerance="10"
     inkscape:pageopacity="1"
     inkscape:pageshadow="2"
     inkscape:window-width="1366"
     inkscape:window-height="707"
     id="namedview20"
     showgrid="true"
     inkscape:zoom="3.7283812"
     inkscape:cx="11"
     inkscape:cy="11"
     inkscape:window-x="0"
     inkscape:window-y="0"
     inkscape:window-maximized="1"
     inkscape:current-layer="svg4306"
     showguides="true"
     inkscape:guide-bbox="true" />
  <g
     id="hover-center"
     transform="translate(-22,22)">
    <path
       inkscape:connector-curvature="0"
       id="path851"
       class="ColorScheme-Highlight"
       d="m 33,-21.957031 c -6.05171,0 -10.957031,4.905455 -10.957031,10.957031 0,6.051809 4.905321,10.957031 10.957031,10.957031 6.051736,0 10.957031,-4.905222 10.957031,-10.957031 0,-6.051576 -4.905295,-10.957031 -10.957031,-10.957031 z m 0,4 c 3.842476,0 6.957031,3.114658 6.957031,6.957031 0,3.842521 -3.114555,6.957031 -6.957031,6.957031 -3.842459,0 -6.957031,-3.11451 -6.957031,-6.957031 0,-3.842373 3.114572,-6.957031 6.957031,-6.957031 z m 0,2 c -2.737833,0 -4.957031,2.219259 -4.957031,4.957031 0,2.737877 2.219198,4.957031 4.957031,4.957031 2.737845,0 4.957031,-2.219154 4.957031,-4.957031 0,-2.737772 -2.219186,-4.957031 -4.957031,-4.957031 z"
       style="fill:currentColor;fill-opacity:1;fill-rule:evenodd;stroke:none;stroke-width:0.02563604;enable-background:new" />
  </g>
  <g
     id="active-center"
     transform="translate(-22)">
    <path
       id="path916"
       d="M 11,0.042969 C 4.94829,0.042969 0.042969,4.948424 0.042969,11 0.042969,17.051809 4.94829,21.957031 11,21.957031 17.051736,21.957031 21.957031,17.051809 21.957031,11 21.957031,4.948424 17.051736,0.042969 11,0.042969 Z"
       style="opacity:0;fill:#000000;fill-opacity:0;fill-rule:evenodd;stroke:none;stroke-width:0.02563604;enable-background:new"
       inkscape:connector-curvature="0" />
    <path
       inkscape:connector-curvature="0"
       id="path914"
       d="M 11,4.0429688 C 7.157541,4.0429687 4.0429688,7.157627 4.0429688,11 4.0429687,14.842521 7.157541,17.957031 11,17.957031 c 3.842476,0 6.957031,-3.11451 6.957031,-6.957031 0,-3.842373 -3.114555,-6.9570312 -6.957031,-6.9570312 z m 0,2 c 2.737845,0 4.957031,2.2192592 4.957031,4.9570312 0,2.737877 -2.219186,4.957031 -4.957031,4.957031 C 8.262167,15.957031 6.0429688,13.737877 6.0429688,11 6.0429687,8.262228 8.262167,6.0429688 11,6.0429688 Z"
       style="fill:#ebebeb;fill-opacity:1;fill-rule:evenodd;stroke:none;stroke-width:0.02563604;enable-background:new" />
  </g>
  <g
     style="fill:currentColor;fill-opacity:1;enable-background:new"
     id="pressed-center"
     transform="translate(22)">
    <path
       id="path916-2"
       class="ColorScheme-Highlight"
       d="M 11,0.042969 C 4.94829,0.042969 0.042969,4.948424 0.042969,11 0.042969,17.051809 4.94829,21.957031 11,21.957031 17.051736,21.957031 21.957031,17.051809 21.957031,11 21.957031,4.948424 17.051736,0.042969 11,0.042969 Z"
       style="opacity:0;fill:currentColor;fill-opacity:1;fill-rule:evenodd;stroke:none;stroke-width:0.02563604;enable-background:new"
       inkscape:connector-curvature="0" />
    <path
       inkscape:connector-curvature="0"
       id="path914-9"
       class="ColorScheme-Highlight"
       d="M 11,4.0429688 C 7.157541,4.0429687 4.0429688,7.157627 4.0429688,11 4.0429687,14.842521 7.157541,17.957031 11,17.957031 c 3.842476,0 6.957031,-3.11451 6.957031,-6.957031 0,-3.842373 -3.114555,-6.9570312 -6.957031,-6.9570312 z m 0,2 c 2.737845,0 4.957031,2.2192592 4.957031,4.9570312 0,2.737877 -2.219186,4.957031 -4.957031,4.957031 C 8.262167,15.957031 6.0429688,13.737877 6.0429688,11 6.0429687,8.262228 8.262167,6.0429688 11,6.0429688 Z"
       style="fill:currentColor;fill-opacity:1;fill-rule:evenodd;stroke:none;stroke-width:0.02563604;enable-background:new" />
  </g>
  <g
     style="fill:#B4B4B4;fill-opacity:1;enable-background:new"
     id="deactivated-center"
     transform="translate(66,-0.042969)">
    <path
       id="path916-2-2"
       d="M 11,0.042969 C 4.94829,0.042969 0.042969,4.948424 0.042969,11 0.042969,17.051809 4.94829,21.957031 11,21.957031 17.051736,21.957031 21.957031,17.051809 21.957031,11 21.957031,4.948424 17.051736,0.042969 11,0.042969 Z"
       style="opacity:0;fill:#B4B4B4;fill-opacity:1;fill-rule:evenodd;stroke:none;stroke-width:0.02563604;enable-background:new"
       inkscape:connector-curvature="0" />
    <path
       inkscape:connector-curvature="0"
       id="path914-9-7"
       d="M 11,4.0429688 C 7.157541,4.0429687 4.0429688,7.157627 4.0429688,11 4.0429687,14.842521 7.157541,17.957031 11,17.957031 c 3.842476,0 6.957031,-3.11451 6.957031,-6.957031 0,-3.842373 -3.114555,-6.9570312 -6.957031,-6.9570312 z m 0,2 c 2.737845,0 4.957031,2.2192592 4.957031,4.9570312 0,2.737877 -2.219186,4.957031 -4.957031,4.957031 C 8.262167,15.957031 6.0429688,13.737877 6.0429688,11 6.0429687,8.262228 8.262167,6.0429688 11,6.0429688 Z"
       style="fill:#B4B4B4;fill-opacity:1;fill-rule:evenodd;stroke:none;stroke-width:0.02563604;enable-background:new" />
  </g>
  <g
     style="fill:#B4B4B4;fill-opacity:1;enable-background:new"
     id="inactive-center"
     transform="translate(44.017274)">
    <path
       id="path916-2-2-9"
       d="M 11,0.042969 C 4.94829,0.042969 0.042969,4.948424 0.042969,11 0.042969,17.051809 4.94829,21.957031 11,21.957031 17.051736,21.957031 21.957031,17.051809 21.957031,11 21.957031,4.948424 17.051736,0.042969 11,0.042969 Z"
       style="opacity:0;fill:#B4B4B4;fill-opacity:1;fill-rule:evenodd;stroke:none;stroke-width:0.02563604;enable-background:new"
       inkscape:connector-curvature="0" />
    <path
       inkscape:connector-curvature="0"
       id="path914-9-7-3"
       d="M 11,4.0429688 C 7.157541,4.0429687 4.0429688,7.157627 4.0429688,11 4.0429687,14.842521 7.157541,17.957031 11,17.957031 c 3.842476,0 6.957031,-3.11451 6.957031,-6.957031 0,-3.842373 -3.114555,-6.9570312 -6.957031,-6.9570312 z m 0,2 c 2.737845,0 4.957031,2.2192592 4.957031,4.9570312 0,2.737877 -2.219186,4.957031 -4.957031,4.957031 C 8.262167,15.957031 6.0429688,13.737877 6.0429688,11 6.0429687,8.262228 8.262167,6.0429688 11,6.0429688 Z"
       style="fill:#B4B4B4;fill-opacity:1;fill-rule:evenodd;stroke:none;stroke-width:0.02563604;enable-background:new" />
  </g>
  <path
     inkscape:connector-curvature="0"
     style="font-style:normal;font-variant:normal;font-weight:normal;font-stretch:normal;font-size:16px;line-height:1.25;font-family:'Abyssinica SIL';-inkscape-font-specification:'Abyssinica SIL';letter-spacing:0px;word-spacing:0px;fill:#ffffff;fill-opacity:1;stroke:none;stroke-width:0.85886687;enable-background:new"
     d="m -0.95448763,-27.249702 c -0.11819197,0 -0.22956197,0.022 -0.33410697,0.06608 -0.104557,0.03958 -0.197734,0.09684 -0.279556,0.171679 -0.07727,0.07483 -0.138646,0.16287 -0.184105,0.264123 -0.04543,0.101243 -0.06814,0.209092 -0.06814,0.323542 0,0.114461 0.02271,0.22451 0.06814,0.330151 0.04543,0.101253 0.106827,0.189287 0.184105,0.264123 0.08183,0.07483 0.174999,0.134266 0.279556,0.178288 0.104545,0.044 0.215915,0.06608 0.33410697,0.06608 0.118184,0 0.229554,-0.022 0.334101,-0.06608 0.104555,-0.04399 0.19546,-0.103451 0.272739,-0.178288 0.07727,-0.07483 0.136374,-0.16287 0.17728,-0.264123 0.04543,-0.105641 0.06815,-0.21569 0.06815,-0.330151 0,-0.11445 -0.02272,-0.222299 -0.06815,-0.323542 -0.04087,-0.101253 -0.100002,-0.189296 -0.17728,-0.264133 -0.07727,-0.07483 -0.168184,-0.132055 -0.272739,-0.171679 -0.104547,-0.04399 -0.215917,-0.06599 -0.334101,-0.06599 z m 28.83535663,0.990455 c -0.4773,0 -0.91823,0.07924 -1.32279,0.237706 -0.40002,0.158472 -0.74549,0.413796 -1.03641,0.765955 -0.28638,0.352167 -0.51139,0.814375 -0.67503,1.386643 -0.16364,0.56786 -0.24546,1.261177 -0.24546,2.07996 0,0.823174 0.0841,1.501093 0.25228,2.033737 0.16819,0.528239 0.3932,0.946433 0.67503,1.254578 0.28183,0.308145 0.60684,0.523838 0.97504,0.647094 0.3682,0.118859 0.75231,0.178288 1.15232,0.178288 0.40003,0 0.78868,-0.05725 1.16596,-0.171679 0.38184,-0.11445 0.71821,-0.290537 1.00914,-0.528246 0.29092,-0.237707 0.52502,-0.539253 0.7023,-0.904619 0.17728,-0.365364 0.26592,-0.798968 0.26592,-1.300797 0,-0.334552 -0.0409,-0.633898 -0.12273,-0.898021 -0.0773,-0.264113 -0.1841,-0.495221 -0.32047,-0.693316 -0.13182,-0.202494 -0.28865,-0.371975 -0.47047,-0.508431 -0.17728,-0.140864 -0.36593,-0.255324 -0.56593,-0.343358 -0.20002,-0.08808 -0.40457,-0.151873 -0.61367,-0.191487 -0.2091,-0.03958 -0.40911,-0.05941 -0.60002,-0.05941 -0.25002,0 -0.47957,0.022 -0.68867,0.06608 -0.2091,0.04399 -0.39775,0.103441 -0.56594,0.178278 -0.16818,0.07041 -0.31591,0.154073 -0.44319,0.250916 -0.12729,0.09684 -0.23638,0.198095 -0.3273,0.303736 0.0682,-0.607473 0.15229,-1.100504 0.25229,-1.479077 0.10454,-0.378573 0.22955,-0.673511 0.37501,-0.884813 0.14546,-0.211293 0.31593,-0.354357 0.51139,-0.429194 0.19547,-0.07483 0.41593,-0.112249 0.6614,-0.112249 0.21364,0 0.39092,0.03525 0.53184,0.105641 0.14091,0.07041 0.25455,0.160682 0.34092,0.270731 0.0864,0.105641 0.14546,0.2267 0.17728,0.363166 0.0364,0.132058 0.0546,0.259723 0.0546,0.382971 h 1.47961 c 0,-0.281728 -0.0614,-0.543643 -0.18409,-0.78576 -0.12274,-0.242108 -0.29775,-0.453408 -0.52503,-0.633888 -0.22728,-0.180487 -0.50002,-0.321352 -0.81821,-0.422595 -0.3182,-0.105651 -0.67049,-0.158471 -1.05687,-0.158471 z m -15.389312,0.250916 c -0.05455,0.07041 -0.1591,0.169478 -0.313655,0.297135 -0.154547,0.127657 -0.327286,0.261923 -0.518204,0.40279 -0.190919,0.136463 -0.388654,0.266321 -0.59321,0.38958 -0.200006,0.123258 -0.377287,0.215693 -0.531843,0.277319 v 1.30081 c 0.136374,-0.03958 0.295474,-0.09465 0.477298,-0.16508 0.181823,-0.07483 0.365928,-0.156274 0.552294,-0.244318 0.186377,-0.09244 0.363657,-0.189286 0.531844,-0.290527 0.172737,-0.105651 0.318197,-0.211302 0.436382,-0.316946 v 6.682282 h 1.425062 v -8.333045 z m 8.059442,0 -3.55925,4.939078 v 1.611146 h 4.10473 v 1.782821 h 1.41142 v -1.782821 h 0.92049 v -1.208366 h -0.92049 v -5.341858 z m 15.08247,0 -3.55924,4.939078 v 1.611146 h 4.10472 v 1.782821 h 1.41143 v -1.782821 h 0.92049 v -1.208366 h -0.92049 v -5.341858 z m -14.53699,1.003661 v 4.338197 h -3.04787 z m 15.08247,0 v 4.338197 h -3.04785 z m -37.00388463,0.647102 -1.71826397,0.515032 v 0.449009 h 0.988679 v 6.002172 c 0,0.259715 -0.01136,0.50623 -0.03407,0.739539 -0.01816,0.237706 -0.05455,0.451209 -0.109098,0.640495 -0.04999,0.193685 -0.118185,0.358766 -0.204547,0.495232 -0.08639,0.140864 -0.193191,0.246507 -0.320471,0.316943 l -1.3568777,-0.904619 c -0.06824,0.022 -0.138646,0.05283 -0.211372,0.09244 -0.07271,0.04399 -0.136366,0.09684 -0.190919,0.158472 -0.05912,0.06608 -0.106817,0.140864 -0.14319,0.22451 -0.0364,0.08808 -0.05455,0.189286 -0.05455,0.303736 0,0.127657 0.02951,0.237707 0.08863,0.330151 0.05455,0.09684 0.131832,0.176079 0.231834,0.237709 0.09546,0.06166 0.20683,0.105651 0.3341,0.132066 0.127279,0.03083 0.263654,0.04625 0.409115,0.04625 0.4409257,0 0.8636697,-0.103451 1.2682337,-0.310343 0.409115,-0.202494 0.756851,-0.517239 1.04322997,-0.944233 0.118184,-0.180487 0.213645,-0.385181 0.28637,-0.614092 0.07271,-0.228897 0.127279,-0.464406 0.163651,-0.706523 0.04087,-0.242107 0.06815,-0.482024 0.08183,-0.719731 0.0136,-0.242109 0.02047,-0.464419 0.02047,-0.666912 v -5.817304 z m 3.83880003,0 -1.718254,0.528239 v 0.462216 h 0.97504 v 3.664688 c 0,0.382974 0.04319,0.713135 0.129549,0.990454 0.09096,0.272932 0.218196,0.499632 0.38184,0.68012 0.168184,0.17608 0.370471,0.305934 0.60684,0.38958 0.240919,0.08808 0.511389,0.132057 0.811407,0.132057 0.204546,0 0.413646,-0.033 0.627292,-0.09904 0.218195,-0.06166 0.425024,-0.138666 0.620486,-0.231107 0.200006,-0.09685 0.3841023,-0.200296 0.5522953,-0.310346 0.172737,-0.110052 0.318198,-0.209094 0.436383,-0.297138 v 0.772561 h 2.216006 v -0.528243 l -0.613665,-0.03958 c -0.08183,-0.009 -0.154556,-0.03958 -0.218196,-0.09244 -0.05911,-0.05283 -0.08863,-0.121059 -0.08863,-0.204694 v -5.817284 h -0.572747 l -1.7046183,0.528246 v 0.462206 h 0.9818553 v 4.529696 c -0.08183,0.03957 -0.181823,0.08366 -0.300008,0.132056 -0.113641,0.044 -0.236376,0.08808 -0.3681993,0.132067 -0.131822,0.03957 -0.27047,0.07266 -0.415931,0.09904 -0.14546,0.02641 -0.28865,0.03958 -0.429557,0.03958 -0.245473,0 -0.454575,-0.03299 -0.627302,-0.09904 -0.17274,-0.07041 -0.313657,-0.171679 -0.422755,-0.303744 -0.104545,-0.132057 -0.181824,-0.292729 -0.231826,-0.482023 -0.04543,-0.189287 -0.06814,-0.40278 -0.06814,-0.640489 v -4.397628 z m 24.7033546,1.961104 c 0.22273,0 0.43183,0.05067 0.6273,0.151871 0.19547,0.09685 0.36365,0.2311 0.50457,0.402779 0.14546,0.167281 0.2591,0.365374 0.34092,0.594274 0.0864,0.22891 0.12956,0.473225 0.12956,0.73294 0,0.259725 -0.0432,0.50623 -0.12956,0.739539 -0.0818,0.22891 -0.19546,0.429203 -0.34092,0.600882 -0.14092,0.171679 -0.3091,0.308137 -0.50457,0.409388 -0.19547,0.09684 -0.40457,0.145265 -0.6273,0.145265 -0.21819,0 -0.42502,-0.04841 -0.62048,-0.145265 -0.19547,-0.101251 -0.3682,-0.237709 -0.51821,-0.409388 -0.14546,-0.171679 -0.26137,-0.371972 -0.34773,-0.600882 -0.0818,-0.233309 -0.12274,-0.479814 -0.12274,-0.739539 0,-0.259715 0.0409,-0.50403 0.12274,-0.73294 0.0864,-0.2289 0.20227,-0.426993 0.34773,-0.594274 0.15001,-0.171679 0.32274,-0.305934 0.51821,-0.402779 0.19546,-0.101251 0.40229,-0.151871 0.62048,-0.151871 z"
     id="text829" />
</svg>
