<?xml version="1.0" encoding="UTF-8" standalone="no"?>
<svg
   xmlns:dc="http://purl.org/dc/elements/1.1/"
   xmlns:cc="http://creativecommons.org/ns#"
   xmlns:rdf="http://www.w3.org/1999/02/22-rdf-syntax-ns#"
   xmlns:svg="http://www.w3.org/2000/svg"
   xmlns="http://www.w3.org/2000/svg"
   xmlns:sodipodi="http://sodipodi.sourceforge.net/DTD/sodipodi-0.dtd"
   xmlns:inkscape="http://www.inkscape.org/namespaces/inkscape"
   id="svg4306"
   width="22"
   height="22"
   version="1.1"
   style="enable-background:new"
   sodipodi:docname="shade.svg"
   inkscape:version="0.92.4 (5da689c313, 2019-01-14)">
  <metadata
     id="metadata24">
    <rdf:RDF>
      <cc:Work
         rdf:about="">
        <dc:format>image/svg+xml</dc:format>
        <dc:type
           rdf:resource="http://purl.org/dc/dcmitype/StillImage" />
        <dc:title></dc:title>
      </cc:Work>
    </rdf:RDF>
  </metadata>
  <defs
     id="defs22" />
  <style
     type="text/css"
     id="current-color-scheme">
      .ColorScheme-Text {
        color:#31363b;
      }
      .ColorScheme-Background {
        color:#eff0f1;
      }
      .ColorScheme-Highlight {
        color:#3daee9;
      }

      </style>
  <sodipodi:namedview
     pagecolor="#ffffff"
     bordercolor="#666666"
     borderopacity="1"
     objecttolerance="10"
     gridtolerance="10"
     guidetolerance="10"
     inkscape:pageopacity="1"
     inkscape:pageshadow="2"
     inkscape:window-width="1366"
     inkscape:window-height="707"
     id="namedview20"
     showgrid="true"
     inkscape:zoom="3.7283812"
     inkscape:cx="11"
     inkscape:cy="11"
     inkscape:window-x="0"
     inkscape:window-y="0"
     inkscape:window-maximized="1"
     inkscape:current-layer="svg4306"
     showguides="true"
     inkscape:guide-bbox="true" />
  <g
     id="hover-center"
     inkscape:label="#g837">
    <path
       id="path833"
       class="ColorScheme-Highlight"
       d="M 11,0.04296875 C 4.9484238,0.04296875 0.04296875,4.948264 0.04296875,11 0.04296875,17.05171 4.9484238,21.957031 11,21.957031 17.051809,21.957031 21.957031,17.05171 21.957031,11 21.957031,4.948264 17.051809,0.04296875 11,0.04296875 Z M 9.7890625,7 h 2.4218755 v 8 H 9.7890625 V 7.5 Z"
       style="fill:currentColor;fill-opacity:1;fill-rule:evenodd;stroke:none;stroke-width:0.02563604;enable-background:new"
       inkscape:connector-curvature="0" />
  </g>
  <g
     style="fill:currentColor;fill-opacity:1;enable-background:new"
     id="pressed-center"
     transform="translate(22)">
    <path
       id="path896-5"
       class="ColorScheme-Highlight"
       d="M 11,0.04296875 C 4.9482896,0.04296875 0.04296875,4.9484238 0.04296875,11 0.04296875,17.051809 4.9482896,21.957031 11,21.957031 17.051736,21.957031 21.957031,17.051809 21.957031,11 21.957031,4.9484238 17.051736,0.04296875 11,0.04296875 Z"
       style="opacity:0;fill:currentColor;fill-opacity:1;fill-rule:evenodd;stroke:none;stroke-width:0.02563604;enable-background:new"
       inkscape:connector-curvature="0" />
    <path
       id="path869-6-3"
       class="ColorScheme-Highlight"
       d="m 3,9.7890625 h 15 1 V 12.210938 H 3 Z"
       style="fill:currentColor;fill-opacity:1;fill-rule:evenodd;stroke:none;stroke-width:0.02563604;enable-background:new"
       inkscape:connector-curvature="0" />
  </g>
  <g
     id="active-center"
     inkscape:label="#g864"
     transform="translate(-22)">
    <path
       id="path860"
       d="M 11,0.04296875 C 4.9484238,0.04296875 0.04296875,4.948264 0.04296875,11 0.04296875,17.05171 4.9484238,21.957031 11,21.957031 17.051809,21.957031 21.957031,17.05171 21.957031,11 21.957031,4.948264 17.051809,0.04296875 11,0.04296875 Z"
       style="opacity:0;fill:000000;fill-opacity:0;fill-rule:evenodd;stroke:none;stroke-width:0.02563604;enable-background:new"
       inkscape:connector-curvature="0" />
    <path
       id="path833-6"
       d="m 9.7890625,7 h 2.4218755 v 8 H 9.7890625 V 7.5 Z"
       style="fill:#ebebeb;fill-opacity:1;fill-rule:evenodd;stroke:none;stroke-width:0.02563604;enable-background:new"
       inkscape:connector-curvature="0" />
  </g>
  <g
     style="fill:#B4B4B4;fill-opacity:1;enable-background:new"
     id="inactive-center"
     inkscape:label="#g864"
     transform="translate(44)">
    <path
       id="path860-5"
       d="M 11,0.04296875 C 4.9484238,0.04296875 0.04296875,4.948264 0.04296875,11 0.04296875,17.05171 4.9484238,21.957031 11,21.957031 17.051809,21.957031 21.957031,17.05171 21.957031,11 21.957031,4.948264 17.051809,0.04296875 11,0.04296875 Z"
       style="opacity:0;fill:#B4B4B4;fill-opacity:1;fill-rule:evenodd;stroke:none;stroke-width:0.02563604;enable-background:new"
       inkscape:connector-curvature="0" />
    <path
       id="path833-6-3"
       d="m 9.7890625,7 h 2.4218755 v 8 H 9.7890625 V 7.5 Z"
       style="fill:#B4B4B4;fill-opacity:1;fill-rule:evenodd;stroke:none;stroke-width:0.02563604;enable-background:new"
       inkscape:connector-curvature="0" />
  </g>
  <g
     style="fill:#B4B4B4;fill-opacity:1;enable-background:new"
     id="deactivated-center"
     inkscape:label="#g864"
     transform="translate(66)">
    <path
       id="path860-6"
       d="M 11,0.04296875 C 4.9484238,0.04296875 0.04296875,4.948264 0.04296875,11 0.04296875,17.05171 4.9484238,21.957031 11,21.957031 17.051809,21.957031 21.957031,17.05171 21.957031,11 21.957031,4.948264 17.051809,0.04296875 11,0.04296875 Z"
       style="opacity:0;fill:#B4B4B4;fill-opacity:1;fill-rule:evenodd;stroke:none;stroke-width:0.02563604;enable-background:new"
       inkscape:connector-curvature="0" />
    <path
       id="path833-6-2"
       d="m 9.7890625,7 h 2.4218755 v 8 H 9.7890625 V 7.5 Z"
       style="fill:#B4B4B4;fill-opacity:1;fill-rule:evenodd;stroke:none;stroke-width:0.02563604;enable-background:new"
       inkscape:connector-curvature="0" />
  </g>
  <path
     style="font-style:normal;font-variant:normal;font-weight:normal;font-stretch:normal;font-size:16px;line-height:1.25;font-family:'Abyssinica SIL';-inkscape-font-specification:'Abyssinica SIL';letter-spacing:0px;word-spacing:0px;fill:#ffffff;fill-opacity:1;stroke:none;stroke-width:0.53605449"
     d="m 31.095687,-34.924267 c -0.07527,0 -0.1462,0.01346 -0.212786,0.04039 -0.06659,0.02423 -0.125934,0.05924 -0.178045,0.105008 -0.04922,0.04577 -0.0883,0.09962 -0.11725,0.161552 -0.02895,0.06193 -0.04343,0.127895 -0.04343,0.197901 0,0.07001 0.01448,0.137319 0.04343,0.201939 0.02895,0.06193 0.06803,0.115779 0.11725,0.161552 0.05211,0.04577 0.111459,0.08212 0.178045,0.109047 0.06659,0.02693 0.137515,0.04039 0.212786,0.04039 0.07527,0 0.1462,-0.01346 0.212786,-0.04039 0.06659,-0.02692 0.124487,-0.06327 0.173702,-0.109047 0.04922,-0.04577 0.08685,-0.09962 0.112907,-0.161552 0.02895,-0.06462 0.04343,-0.131933 0.04343,-0.201939 0,-0.07001 -0.01448,-0.135973 -0.04343,-0.197901 -0.02606,-0.06193 -0.06369,-0.115779 -0.112907,-0.161552 -0.04922,-0.04577 -0.107116,-0.08078 -0.173702,-0.105008 -0.06659,-0.02692 -0.137515,-0.04039 -0.212786,-0.04039 z m 18.364719,0.605818 c -0.30398,0 -0.584799,0.04847 -0.842458,0.145397 -0.254764,0.09693 -0.474787,0.253098 -0.660071,0.468499 -0.182388,0.215403 -0.325692,0.498118 -0.429914,0.848146 -0.104221,0.347336 -0.156332,0.77141 -0.156332,1.27222 0,0.503502 0.05356,0.918152 0.160675,1.243947 0.107117,0.323103 0.250421,0.578894 0.429914,0.76737 0.179493,0.188477 0.386488,0.320411 0.620987,0.395802 0.234499,0.0727 0.47913,0.109047 0.733894,0.109047 0.254764,0 0.502291,-0.035 0.742579,-0.105009 0.243184,-0.07 0.457417,-0.177706 0.6427,-0.323103 0.185283,-0.145396 0.334378,-0.329834 0.447285,-0.553314 0.112907,-0.22348 0.16936,-0.488694 0.16936,-0.795642 0,-0.204632 -0.02606,-0.387724 -0.07817,-0.549275 -0.04922,-0.161552 -0.117249,-0.302909 -0.2041,-0.424073 -0.08396,-0.123856 -0.183835,-0.227519 -0.299637,-0.310987 -0.112907,-0.08616 -0.233052,-0.156167 -0.360433,-0.210017 -0.127382,-0.05385 -0.257659,-0.09289 -0.390831,-0.117125 -0.133173,-0.02423 -0.260554,-0.03635 -0.382146,-0.03635 -0.159228,0 -0.305427,0.01346 -0.4386,0.04039 -0.133172,0.02693 -0.253316,0.06327 -0.360433,0.109047 -0.107117,0.04308 -0.201205,0.09424 -0.282267,0.153474 -0.08106,0.05924 -0.150542,0.121164 -0.208443,0.185785 0.04342,-0.371569 0.09698,-0.673132 0.160675,-0.90469 0.06659,-0.231557 0.1462,-0.411956 0.238841,-0.541197 0.09264,-0.129242 0.201206,-0.216749 0.325693,-0.262522 0.124487,-0.04577 0.264896,-0.06866 0.421229,-0.06866 0.136067,0 0.248974,0.02154 0.33872,0.06462 0.08975,0.04308 0.162123,0.09828 0.217128,0.165591 0.05501,0.06462 0.09264,0.138665 0.112907,0.222133 0.02316,0.08078 0.03474,0.15886 0.03474,0.23425 h 0.942337 c 0,-0.172321 -0.03908,-0.332527 -0.117249,-0.480616 -0.07817,-0.148089 -0.189626,-0.27733 -0.334378,-0.387724 -0.144752,-0.110393 -0.318455,-0.196554 -0.521108,-0.258483 -0.202654,-0.06462 -0.427019,-0.09693 -0.673098,-0.09693 z m -9.801175,0.153474 c -0.03474,0.04308 -0.101327,0.103663 -0.199758,0.181746 -0.09843,0.07808 -0.208444,0.160206 -0.330036,0.246366 -0.121592,0.08347 -0.247526,0.162898 -0.377803,0.238289 -0.127382,0.07539 -0.240289,0.131934 -0.338721,0.169629 v 0.795642 c 0.08685,-0.02423 0.188179,-0.05789 0.30398,-0.10097 0.115802,-0.04577 0.233051,-0.09558 0.351748,-0.149435 0.118697,-0.05654 0.231604,-0.115779 0.338721,-0.177707 0.110011,-0.06462 0.202653,-0.129241 0.277924,-0.193862 v 4.087256 h 0.907596 v -5.096954 z m 5.132915,0 -2.266821,3.021016 v 0.985465 h 2.614226 v 1.090473 h 0.898911 v -1.090473 h 0.586247 v -0.739099 h -0.586247 v -3.267382 z m 9.605759,0 -2.26682,3.021016 v 0.985465 h 2.614226 v 1.090473 h 0.898911 v -1.090473 h 0.586247 v -0.739099 h -0.586247 v -3.267382 z m -9.258354,0.613897 v 2.653485 h -1.941128 z m 9.60576,0 v 2.653485 h -1.941128 z m -23.567115,0.395801 -1.094327,0.315026 v 0.274637 h 0.629672 v 3.671261 c 0,0.15886 -0.0072,0.309641 -0.02171,0.452345 -0.01158,0.145396 -0.03474,0.275984 -0.06948,0.391762 -0.03185,0.118472 -0.07527,0.219442 -0.130277,0.30291 -0.05501,0.08616 -0.123039,0.150781 -0.204101,0.193862 l -0.864171,-0.553315 c -0.04343,0.01346 -0.0883,0.03231 -0.134619,0.05654 -0.04632,0.02693 -0.08685,0.05924 -0.121592,0.09693 -0.03764,0.04039 -0.06803,0.08616 -0.09119,0.137319 -0.02316,0.05385 -0.03474,0.115779 -0.03474,0.185784 0,0.07808 0.01882,0.145397 0.05645,0.20194 0.03474,0.05924 0.08396,0.107701 0.147647,0.145396 0.0608,0.0377 0.131725,0.06462 0.212786,0.08078 0.08106,0.01885 0.167913,0.02827 0.260554,0.02827 0.280819,0 0.550059,-0.06327 0.807718,-0.189823 0.260554,-0.123856 0.482025,-0.316372 0.664413,-0.577547 0.07527,-0.110394 0.136066,-0.235596 0.182387,-0.375608 0.04632,-0.140011 0.08106,-0.284061 0.104222,-0.43215 0.02606,-0.148089 0.04343,-0.294832 0.05211,-0.440229 0.0087,-0.148089 0.01303,-0.284061 0.01303,-0.407917 v -3.558175 z m 2.444866,0 -1.094328,0.323103 v 0.282716 h 0.620987 v 2.241529 c 0,0.234249 0.0275,0.436189 0.08251,0.605818 0.0579,0.166937 0.138963,0.305602 0.243184,0.415995 0.107117,0.107702 0.235946,0.187131 0.386488,0.238289 0.153438,0.05385 0.325693,0.08078 0.516766,0.08078 0.130277,0 0.263449,-0.02019 0.399517,-0.06058 0.138962,-0.03769 0.270686,-0.08481 0.395173,-0.141358 0.127382,-0.05924 0.244631,-0.122509 0.351748,-0.189823 0.110012,-0.06731 0.202653,-0.127895 0.277925,-0.181745 v 0.472538 h 1.411334 v -0.323103 l -0.390831,-0.02423 c -0.05211,-0.0054 -0.09843,-0.02423 -0.138963,-0.05654 -0.03764,-0.03231 -0.05645,-0.07404 -0.05645,-0.125202 v -3.558175 h -0.364775 l -1.085642,0.323103 v 0.282716 h 0.62533 v 2.77061 c -0.05211,0.02423 -0.115803,0.05116 -0.191073,0.08078 -0.07238,0.02692 -0.150543,0.05385 -0.234499,0.08077 -0.08396,0.02423 -0.172255,0.04443 -0.264897,0.06058 -0.09264,0.01616 -0.183835,0.02423 -0.273582,0.02423 -0.156332,0 -0.289504,-0.02019 -0.399516,-0.06058 -0.110012,-0.04308 -0.199758,-0.105008 -0.269239,-0.185784 -0.06659,-0.08078 -0.115802,-0.179053 -0.147647,-0.294832 -0.02895,-0.115778 -0.04343,-0.246366 -0.04343,-0.391763 v -2.689834 z m 15.733122,1.199521 c 0.141858,0 0.27503,0.03096 0.399516,0.09289 0.124488,0.05924 0.231604,0.141358 0.32135,0.246366 0.09264,0.102317 0.165018,0.22348 0.217129,0.363492 0.05501,0.140011 0.08251,0.289446 0.08251,0.448305 0,0.158859 -0.0275,0.309641 -0.08251,0.452345 -0.05211,0.140011 -0.124487,0.262521 -0.217129,0.36753 -0.08975,0.105008 -0.196862,0.188477 -0.32135,0.250405 -0.124486,0.05924 -0.257658,0.08885 -0.399516,0.08885 -0.138962,0 -0.270687,-0.02962 -0.395173,-0.08885 -0.124488,-0.06193 -0.234499,-0.145397 -0.330035,-0.250405 -0.09264,-0.105009 -0.166465,-0.227519 -0.221472,-0.36753 -0.05211,-0.142704 -0.07817,-0.293486 -0.07817,-0.452345 0,-0.158859 0.02605,-0.308294 0.07817,-0.448305 0.05501,-0.140012 0.12883,-0.261175 0.221472,-0.363492 0.09554,-0.105008 0.205547,-0.18713 0.330035,-0.246366 0.124486,-0.06193 0.256211,-0.09289 0.395173,-0.09289 z"
     id="text836"
     inkscape:connector-curvature="0" />
</svg>
