/* XPM */
static char * menu_active_xpm[] = {
"32 32 26 1",
" 	c None",
".	c #40A599",
"+	c #2B9B8E",
"@	c #33A194",
"#	c #45B0A4",
"$	c #52B9AD",
"%	c #57BDB1",
"&	c #45AFA3",
"*	c #2C9C8E",
"=	c #47B1A4",
"-	c #5ABFB3",
";	c #59BFB3",
">	c #46B0A3",
",	c #2D9C8F",
"'	c #4EB6AA",
")	c #47B1A5",
"!	c #46AFA3",
"~	c #33A195",
"{	c #45AEA2",
"]	c #53B9AD",
"^	c #58BDB2",
"/	c #58BDB1",
"(	c #57BEB2",
"_	c #32A195",
":	c #4DB5A9",
"<	c #2C9C8F",
"................................",
"++++++++++++++++++++++++++++++++",
"++++++++++++++++++++++++++++++++",
"++++++++++++++++++++++++++++++++",
"++++++++++++++++++++++++++++++++",
"++++++++++++++++++++++++++++++++",
"++++++++++++++++++++++++++++++++",
"++++++++++++++++++++++++++++++++",
"++++++++++++@#$%%$&@++++++++++++",
"++++++++++*=-------;>,++++++++++",
"+++++++++*'----------',+++++++++",
"+++++++++)------------!+++++++++",
"++++++++@-------------;~++++++++",
"++++++++#--------------{++++++++",
"++++++++]--------------$++++++++",
"++++++++^--------------/++++++++",
"++++++++/--------------(++++++++",
"++++++++]--------------$++++++++",
"++++++++&--------------&++++++++",
"++++++++@;------------;_++++++++",
"+++++++++>------------#+++++++++",
"+++++++++,:----------:<+++++++++",
"++++++++++,!;------;#<++++++++++",
"++++++++++++~{$^^$&_++++++++++++",
"++++++++++++++++++++++++++++++++",
"++++++++++++++++++++++++++++++++",
"++++++++++++++++++++++++++++++++",
"++++++++++++++++++++++++++++++++",
"++++++++++++++++++++++++++++++++",
"++++++++++++++++++++++++++++++++",
"++++++++++++++++++++++++++++++++",
"++++++++++++++++++++++++++++++++"};
