/* XPM */
static char * maximize_active_xpm[] = {
"32 32 24 1",
" 	c None",
".	c #2F794E",
"+	c #186A3B",
"@	c #1C7339",
"#	c #238932",
"$	c #29972F",
"%	c #2B9E2D",
"&	c #238833",
"*	c #1C7439",
"=	c #186B3A",
"-	c #248A32",
";	c #2CA02C",
">	c #2B9F2C",
",	c #248933",
"'	c #186C3B",
")	c #279230",
"!	c #1B7338",
"~	c #238832",
"{	c #28962E",
"]	c #2B9D2D",
"^	c #238732",
"/	c #26922F",
"(	c #269130",
"_	c #196B3B",
"................................",
"++++++++++++++++++++++++++++++++",
"++++++++++++++++++++++++++++++++",
"++++++++++++++++++++++++++++++++",
"++++++++++++++++++++++++++++++++",
"++++++++++++++++++++++++++++++++",
"++++++++++++++++++++++++++++++++",
"++++++++++++++++++++++++++++++++",
"++++++++++++@#$%%$&*++++++++++++",
"++++++++++=-;;;;;;;>,'++++++++++",
"+++++++++=);;;;;;;;;;)'+++++++++",
"+++++++++-;;;;;;;;;;;;#+++++++++",
"++++++++@;;;;;;;;;;;;;>!++++++++",
"++++++++#;;;;;;;;;;;;;;~++++++++",
"++++++++$;;;;;;;;;;;;;;{++++++++",
"++++++++];;;;;;;;;;;;;;]++++++++",
"++++++++];;;;;;;;;;;;;;]++++++++",
"++++++++$;;;;;;;;;;;;;;{++++++++",
"++++++++&;;;;;;;;;;;;;;^++++++++",
"++++++++*>;;;;;;;;;;;;>!++++++++",
"+++++++++,;;;;;;;;;;;;#+++++++++",
"+++++++++'/;;;;;;;;;;(_+++++++++",
"++++++++++'#>;;;;;;>#_++++++++++",
"++++++++++++!~{]]{^!++++++++++++",
"++++++++++++++++++++++++++++++++",
"++++++++++++++++++++++++++++++++",
"++++++++++++++++++++++++++++++++",
"++++++++++++++++++++++++++++++++",
"++++++++++++++++++++++++++++++++",
"++++++++++++++++++++++++++++++++",
"++++++++++++++++++++++++++++++++",
"++++++++++++++++++++++++++++++++"};
