/* XPM */
static char * maximize_prelight_xpm[] = {
"32 32 49 1",
" 	c None",
".	c #FFFFFF",
"+	c #DFDFDF",
"@	c #999999",
"#	c #6A6A6A",
"$	c #545454",
"%	c #9A9A9A",
"&	c #E0E0E0",
"*	c #FAFAFA",
"=	c #969696",
"-	c #4D4D4D",
";	c #838383",
">	c #9D9D9D",
",	c #535353",
"'	c #4E4E4E",
")	c #979797",
"!	c #FBFBFB",
"~	c #7A7A7A",
"{	c #9E9E9E",
"]	c #F4F4F4",
"^	c #959595",
"/	c #C1C1C1",
"(	c #F1F1F1",
"_	c #A9A9A9",
":	c #AAAAAA",
"<	c #F2F2F2",
"[	c #C0C0C0",
"}	c #989898",
"|	c #D6D6D6",
"1	c #595959",
"2	c #4C4C4C",
"3	c #5A5A5A",
"4	c #9C9C9C",
"5	c #E1E1E1",
"6	c #9B9B9B",
"7	c #696969",
"8	c #818181",
"9	c #6B6B6B",
"0	c #555555",
"a	c #ABABAB",
"b	c #5B5B5B",
"c	c #F3F3F3",
"d	c #D7D7D7",
"e	c #E2E2E2",
"f	c #BEBEBE",
"g	c #7B7B7B",
"h	c #7C7C7C",
"i	c #828282",
"j	c #525252",
"................................",
"................................",
"................................",
"................................",
"................................",
"................................",
"................................",
"................................",
"............+@#$$#%&............",
"..........*=-$;>>;,')!..........",
".........*~-{]....]>-~!.........",
".........^-/.(_;;:<.[-}.........",
"........+-{.|122223|.4'5........",
"........%$](12222223<],6........",
"........7;._22222222:.89........",
"........0>.;22222222;.>0........",
"........0>.;22222222;.>0........",
"........7;.:22222222a.89........",
"........%$]<3222222b<c,6........",
"........&'>.|32222bd.6'e........",
".........)-[.<:;;a<.f-@.........",
".........!g-4]....c6-h!.........",
"..........!}',;44ij'@!..........",
"............569$$94e............",
"................................",
"................................",
"................................",
"................................",
"................................",
"................................",
"................................",
"................................"};
