<?xml version="1.0" encoding="UTF-8" standalone="no"?>
<!-- Created with Inkscape (http://www.inkscape.org/) -->

<svg
   xmlns:dc="http://purl.org/dc/elements/1.1/"
   xmlns:cc="http://creativecommons.org/ns#"
   xmlns:rdf="http://www.w3.org/1999/02/22-rdf-syntax-ns#"
   xmlns:svg="http://www.w3.org/2000/svg"
   xmlns="http://www.w3.org/2000/svg"
   xmlns:sodipodi="http://sodipodi.sourceforge.net/DTD/sodipodi-0.dtd"
   xmlns:inkscape="http://www.inkscape.org/namespaces/inkscape"
   width="32"
   height="32"
   id="svg3869"
   version="1.1"
   inkscape:version="0.92.4 (5da689c313, 2019-01-14)"
   sodipodi:docname="device.svg"
   viewBox="0 0 32 32">
  <defs
     id="defs3871">
    <style
       type="text/css"
       id="current-color-scheme">
      .ColorScheme-Text {
        color:#31363b;
      }
      .ColorScheme-Background {
        color:#eff0f1;
      }
      .ColorScheme-Highlight {
        color:#3daee9;
      }
      .ColorScheme-ViewText {
        color:#31363b;
      }
      .ColorScheme-ViewBackground {
        color:#fcfcfc;
      }
      .ColorScheme-ViewHover {
        color:#93cee9;
      }
      .ColorScheme-ViewFocus{
        color:#3daee9;
      }
      .ColorScheme-ButtonText {
        color:#31363b;
      }
      .ColorScheme-ButtonBackground {
        color:#eff0f1;
      }
      .ColorScheme-ButtonHover {
        color:#93cee9;
      }
      .ColorScheme-ButtonFocus{
        color:#3daee9;
      }
      </style>
  </defs>
  <sodipodi:namedview
     id="base"
     pagecolor="#ffffff"
     bordercolor="#666666"
     borderopacity="1.0"
     inkscape:pageopacity="0.0"
     inkscape:pageshadow="2"
     inkscape:zoom="2.03125"
     inkscape:cx="71.495891"
     inkscape:cy="16"
     inkscape:document-units="px"
     inkscape:current-layer="layer1"
     showgrid="true"
     fit-margin-top="0"
     fit-margin-left="0"
     fit-margin-right="0"
     fit-margin-bottom="0"
     inkscape:window-width="1366"
     inkscape:window-height="717"
     inkscape:window-x="0"
     inkscape:window-y="25"
     inkscape:window-maximized="1"
     inkscape:showpageshadow="false"
     showguides="true"
     inkscape:guide-bbox="true">
    <inkscape:grid
       type="xygrid"
       id="grid4132"
       originx="5"
       originy="4.9999826" />
    <sodipodi:guide
       position="7,25"
       orientation="18,0"
       id="guide4138" />
    <sodipodi:guide
       position="7,7"
       orientation="0,18"
       id="guide4140" />
    <sodipodi:guide
       position="25,7"
       orientation="-18,0"
       id="guide4142" />
    <sodipodi:guide
       position="25,25"
       orientation="0,-18"
       id="guide4144" />
    <sodipodi:guide
       position="8,24"
       orientation="16,0"
       id="guide4146" />
    <sodipodi:guide
       position="8,8"
       orientation="0,16"
       id="guide4148" />
    <sodipodi:guide
       position="24,8"
       orientation="-16,0"
       id="guide4150" />
    <sodipodi:guide
       position="24,24"
       orientation="0,-16"
       id="guide4152" />
    <sodipodi:guide
       position="0,31.999997"
       orientation="32,0"
       id="guide4180" />
    <sodipodi:guide
       position="0,-2.6171875e-06"
       orientation="0,32"
       id="guide4182" />
    <sodipodi:guide
       position="32,-2.6171875e-06"
       orientation="-32,0"
       id="guide4184" />
    <sodipodi:guide
       position="32,31.999997"
       orientation="0,-32"
       id="guide4186" />
    <sodipodi:guide
       position="2,29.999997"
       orientation="28,0"
       id="guide4188" />
    <sodipodi:guide
       position="2,1.9999974"
       orientation="0,28"
       id="guide4190" />
    <sodipodi:guide
       position="30,1.9999974"
       orientation="-28,0"
       id="guide4192" />
    <sodipodi:guide
       position="30,29.999997"
       orientation="0,-28"
       id="guide4194" />
    <sodipodi:guide
       position="48,26.999983"
       orientation="1,0"
       id="guide869"
       inkscape:locked="false" />
    <sodipodi:guide
       position="37,15.999983"
       orientation="0,1"
       id="guide871"
       inkscape:locked="false" />
    <sodipodi:guide
       position="74,22.999983"
       orientation="1,0"
       id="guide885"
       inkscape:locked="false" />
  </sodipodi:namedview>
  <metadata
     id="metadata3874">
    <rdf:RDF>
      <cc:Work
         rdf:about="">
        <dc:format>image/svg+xml</dc:format>
        <dc:type
           rdf:resource="http://purl.org/dc/dcmitype/StillImage" />
        <dc:title></dc:title>
      </cc:Work>
    </rdf:RDF>
  </metadata>
  <g
     inkscape:label="Capa 1"
     inkscape:groupmode="layer"
     id="layer1"
     transform="translate(-321,-529.36218)">
    <g
       id="22-22-device-notifier">
      <rect
         y="534.36218"
         x="358"
         height="21.999985"
         width="21.999985"
         id="rect4157"
         style="opacity:0.2;fill:none;fill-opacity:1;stroke:none" />
      <path
         id="path2"
         d="m 376.27483,537.64136 a 0.38005953,0.38005953 0 0 0 -0.10974,0.0254 l -2.67731,0.88679 a 0.39695108,0.39695108 0 0 0 -0.15204,0.65877 l 0.38854,0.3885 -6.37656,6.36811 a 0.62498681,0.62498681 0 0 0 -0.0678,0.0678 l -0.0171,0.017 -0.0171,0.0171 -0.43075,0.43922 0.12672,-2.58446 0.97125,-0.97967 a 1.6553706,1.6553706 0 1 0 -1.005,-1.01349 l -1.18239,1.18241 a 0.70944449,0.70944449 0 0 0 -0.20275,0.46448 l -0.21117,4.42559 -0.71789,0.71789 a 2.2803573,2.2803573 0 0 0 -2.6604,0.42231 2.2719114,2.2719114 0 0 0 0,3.24317 2.2803573,2.2803573 0 0 0 3.24319,0 2.2803573,2.2803573 0 0 0 0.42229,-2.6604 l 0.84454,-0.84461 a 0.70099872,0.70099872 0 0 0 0.12671,-0.12668 l 1.5371,-1.53713 4.41714,-0.21114 a 0.70944449,0.70944449 0 0 0 0.47299,-0.20267 l 1.28377,-1.28377 0.2787,0.27025 a 0.39695108,0.39695108 0 0 0 0.55741,0 l 1.57094,-1.55401 a 0.39695108,0.39695108 0 0 0 0,-0.55743 l -1.57936,-1.57091 a 0.38850529,0.38850529 0 0 0 -0.55744,0 l -1.57093,1.56248 a 0.39695108,0.39695108 0 0 0 0,0.55743 l 0.27876,0.27869 -1.09797,1.09795 -2.56753,0.11824 5.11814,-5.12656 0.38848,0.39699 a 0.39695108,0.39695108 0 0 0 0.65879,-0.15206 l 0.89525,-2.68574 a 0.39695108,0.39695108 0 0 0 -0.2787,-0.50674 0.37161379,0.37161379 0 0 0 -0.10975,0 z"
         style="fill:#e6e6e6;stroke-width:0.69255286"
         inkscape:connector-curvature="0" />
    </g>
    <g
       id="device-notifier">
      <rect
         y="529.36218"
         x="321"
         height="31.999985"
         width="31.999985"
         id="rect4151"
         style="opacity:0.2;fill:none;fill-opacity:1;stroke:none" />
      <path
         id="path2-3"
         d="m 336.97732,531.32809 a 14.080919,14.080919 0 0 0 -14.08093,14.08088 14.080919,14.080919 0 0 0 14.08093,14.07647 14.080919,14.080919 0 0 0 14.08093,-14.0787 14.080919,14.080919 0 0 0 -14.08093,-14.08088 z m -0.0403,2.09531 a 12.104223,12.104223 0 0 1 12.10422,12.10425 12.104223,12.104223 0 0 1 -12.10422,12.10424 12.104223,12.104223 0 0 1 -12.10199,-12.10424 12.104223,12.104223 0 0 1 12.10199,-12.102 z m 7.89338,4.19521 a 0.41190613,0.41190613 0 0 0 -0.11641,0.0223 l -2.90349,0.96481 a 0.42533783,0.42533783 0 0 0 -0.16564,0.70964 l 0.42311,0.42087 -6.89943,6.89945 a 0.67606332,0.67606332 0 0 0 -0.0829,0.076 l -0.009,0.008 c -0.007,0.007 -0.0132,0.0204 -0.0223,0.0269 l -0.4679,0.46791 0.13433,-2.7938 1.06113,-1.06113 a 1.7931346,1.7931346 0 1 0 -1.08799,-1.08799 l -1.27156,1.27156 a 0.76784675,0.76784675 0 0 0 -0.22381,0.50816 l -0.22835,4.7817 -0.78355,0.78351 a 2.4691979,2.4691979 0 0 0 -2.87438,0.45668 c -0.47008,0.46787 -0.72756,1.09019 -0.72756,1.75283 0,0.66265 0.25971,1.285 0.72756,1.75285 a 2.4669599,2.4669599 0 0 0 3.50569,0 c 0.7701,-0.77229 0.94021,-1.92968 0.45669,-2.87439 l 0.91782,-0.92006 a 0.76113085,0.76113085 0 0 0 0.13432,-0.13434 l 1.66556,-1.66328 4.77716,-0.23061 a 0.76784675,0.76784675 0 0 0 0.51265,-0.22382 l 1.38797,-1.38795 0.30444,0.29997 a 0.42533783,0.42533783 0 0 0 0.60444,0 l 1.69465,-1.6924 a 0.42533783,0.42533783 0 0 0 0,-0.60445 l -1.69689,-1.69236 a 0.42309926,0.42309926 0 0 0 -0.60445,0 l -1.69016,1.69236 a 0.42757647,0.42757647 0 0 0 0,0.60445 l 0.3022,0.30222 -1.17971,1.1775 -2.79155,0.13434 5.5428,-5.54508 0.42087,0.42532 a 0.42757647,0.42757647 0 0 0 0.70962,-0.16787 l 0.9671,-2.90125 a 0.42533783,0.42533783 0 0 0 -0.30668,-0.55071 v 0.004 a 0.3984744,0.3984744 0 0 0 -0.11641,-0.0113 z"
         style="fill:#e6e6e6;stroke-width:2.23862004"
         inkscape:connector-curvature="0" />
    </g>
    <g
       id="16-16-device-notifier">
      <rect
         style="opacity:0.2;fill:none;fill-opacity:1;stroke:none"
         id="rect4182"
         width="15.999985"
         height="15.999985"
         x="387"
         y="537.36218" />
      <path
         id="path2-6"
         d="m 400.59462,539.39133 a 0.29432622,0.29432622 0 0 0 -0.0849,0.0195 l -2.07336,0.68675 a 0.30740738,0.30740738 0 0 0 -0.11772,0.51017 l 0.30087,0.30086 -4.93814,4.93161 a 0.48400311,0.48400311 0 0 0 -0.0524,0.0524 l -0.0131,0.0132 -0.0131,0.013 -0.33356,0.34012 0.0981,-2.00145 0.75218,-0.75869 a 1.2819542,1.2819542 0 1 0 -0.77833,-0.78486 l -0.91567,0.91568 a 0.54940895,0.54940895 0 0 0 -0.15698,0.35972 l -0.16353,3.42728 -0.55596,0.55593 a 1.7659573,1.7659573 0 0 0 -2.06028,0.32704 1.7594167,1.7594167 0 0 0 0,2.51158 1.7659573,1.7659573 0 0 0 2.51159,0 1.7659573,1.7659573 0 0 0 0.32703,-2.06028 l 0.65404,-0.65407 a 0.54286836,0.54286836 0 0 0 0.0981,-0.0981 l 1.19035,-1.19041 3.42072,-0.16351 a 0.54940895,0.54940895 0 0 0 0.3663,-0.15696 l 0.99416,-0.99417 0.21584,0.20929 a 0.30740738,0.30740738 0 0 0 0.43168,0 l 1.21656,-1.20347 a 0.30740738,0.30740738 0 0 0 0,-0.43168 l -1.22308,-1.21653 a 0.3008668,0.3008668 0 0 0 -0.43171,0 l -1.21654,1.20998 a 0.30740738,0.30740738 0 0 0 0,0.43171 l 0.21585,0.21582 -0.85029,0.85027 -1.98832,0.0917 3.96357,-3.97013 0.30087,0.30743 a 0.30740738,0.30740738 0 0 0 0.51017,-0.11775 l 0.69331,-2.0799 a 0.30740738,0.30740738 0 0 0 -0.21584,-0.39244 0.28778564,0.28778564 0 0 0 -0.0849,0 z"
         style="fill:#e6e6e6;stroke-width:0.53632778"
         inkscape:connector-curvature="0" />
    </g>
  </g>
</svg>
