<?xml version="1.0" encoding="UTF-8" standalone="no"?>
<svg
   xmlns:dc="http://purl.org/dc/elements/1.1/"
   xmlns:cc="http://creativecommons.org/ns#"
   xmlns:rdf="http://www.w3.org/1999/02/22-rdf-syntax-ns#"
   xmlns:svg="http://www.w3.org/2000/svg"
   xmlns="http://www.w3.org/2000/svg"
   xmlns:sodipodi="http://sodipodi.sourceforge.net/DTD/sodipodi-0.dtd"
   xmlns:inkscape="http://www.inkscape.org/namespaces/inkscape"
   height="54"
   width="54"
   version="1.1"
   id="svg"
   viewBox="0 0 54 54"
   inkscape:version="0.92.4 (5da689c313, 2019-01-14)"
   sodipodi:docname="document.svg">
  <sodipodi:namedview
     pagecolor="#ffffff"
     bordercolor="#666666"
     borderopacity="1"
     objecttolerance="10"
     gridtolerance="10"
     guidetolerance="10"
     inkscape:pageopacity="0"
     inkscape:pageshadow="2"
     inkscape:window-width="1366"
     inkscape:window-height="768"
     id="namedview20"
     showgrid="false"
     inkscape:zoom="3.4045882"
     inkscape:cx="27"
     inkscape:cy="27"
     inkscape:window-x="0"
     inkscape:window-y="25"
     inkscape:window-maximized="0"
     inkscape:current-layer="svg"
     showguides="true"
     inkscape:guide-bbox="true">
    <sodipodi:guide
       position="22.223077,16.2"
       orientation="0,1"
       id="guide826"
       inkscape:locked="false" />
  </sodipodi:namedview>
  <metadata
     id="metadata23">
    <rdf:RDF>
      <cc:Work
         rdf:about="">
        <dc:format>image/svg+xml</dc:format>
        <dc:type
           rdf:resource="http://purl.org/dc/dcmitype/StillImage" />
        <dc:title></dc:title>
      </cc:Work>
    </rdf:RDF>
  </metadata>
  <defs
     id="defs81">
    <style
       type="text/css"
       id="current-color-scheme">
      .ColorScheme-Text {
        color:#31363b;
      }
      .ColorScheme-Background {
        color:#eff0f1;
      }
      .ColorScheme-Highlight {
        color:#3daee9;
      }
      .ColorScheme-ViewText {
        color:#31363b;
      }
      .ColorScheme-ViewBackground {
        color:#fcfcfc;
      }
      .ColorScheme-ViewHover {
        color:#93cee9;
      }
      .ColorScheme-ViewFocus{
        color:#3daee9;
      }
      .ColorScheme-ButtonText {
        color:#31363b;
      }
      .ColorScheme-ButtonBackground {
        color:#eff0f1;
      }
      .ColorScheme-ButtonHover {
        color:#93cee9;
      }
      .ColorScheme-ButtonFocus{
        color:#3daee9;
      }
      .ColorScheme-NegativeText {
        color:#da4453;
      }
  </style>
  </defs>
  <g
     transform="translate(0,32)"
     id="g8125">
    <rect
       class="ColorScheme-Text"
       y="0"
       x="0"
       height="22"
       width="22"
       id="rect3802"
       style="opacity:1;fill:none" />
  </g>
  <g
     transform="translate(32.042307,-10.042309)"
     id="document-decrypt">
    <rect
       style="opacity:0.01000001;fill:#000000;fill-opacity:0.00392157;stroke:none"
       id="rect3028-2"
       width="22"
       height="22"
       x="-0.042307649"
       y="10.042308" />
    <path
       id="path2"
       d="M 10.952477,12.444229 A 4.0566467,4.0566467 0 0 0 7.4600002,14.4233 l 1.388036,0.841776 a 2.5253298,2.5253298 0 0 1 2.1313068,-1.28953 2.552195,2.552195 0 0 1 2.525329,2.552195 v 1.620868 H 4.4331862 V 27.9365 c 0,0.931327 0.716405,1.647733 1.647733,1.647733 H 15.868811 A 1.6119126,1.6119126 0 0 0 17.489679,27.9365 l 0.125371,-9.761026 -1.746239,-0.02687 h -0.805956 v -1.611913 a 4.0566467,4.0566467 0 0 0 -4.083512,-4.083512 z"
       style="fill:#e6e6e6;stroke-width:2.39100385"
       inkscape:connector-curvature="0" />
  </g>
  <g
     id="document-encrypt"
     transform="translate(0,-10)">
    <rect
       style="opacity:0.01000001;fill:#000000;fill-opacity:0.00392157;stroke:none"
       id="rect3028"
       width="22"
       height="22"
       x="2.2758499e-16"
       y="10" />
    <path
       id="path819-5"
       d="m 10.890937,12.401922 a 4.0566465,4.0566465 0 0 0 -4.0566478,4.056647 v 1.647732 h -2.462642 v 9.787892 c 0,0.931326 0.716403,1.647733 1.647732,1.647733 h 9.7878928 a 1.6119125,1.6119125 0 0 0 1.620865,-1.647733 l 0.125366,-9.761026 -1.746236,-0.02687 H 15.001308 V 16.494383 A 4.0566465,4.0566465 0 0 0 10.917799,12.41087 Z m 0.02687,1.522362 a 2.5521946,2.5521946 0 0 1 2.525328,2.570105 v 1.611912 H 8.4103872 v -1.611912 a 2.5432397,2.5432397 0 0 1 2.5074198,-2.552195 z"
       style="fill:#e6e6e6;stroke-width:2.39100361"
       inkscape:connector-curvature="0" />
  </g>
  <g
     transform="matrix(0.6875,0,0,0.6875,-13.021153,31.999987)"
     id="22-22-document-open-recent">
    <rect
       style="opacity:0.01000001;fill:#000000;fill-opacity:0.00392157;stroke:none"
       id="rect2994-5"
       width="32"
       height="32"
       x="21.999998"
       y="1.754521e-05" />
    <path
       id="path2-36-3"
       d="M 37.981767,4.226771 A 11.754331,11.754331 0 0 0 26.265231,15.981102 11.754331,11.754331 0 0 0 37.981767,27.773228 11.754331,11.754331 0 0 0 49.811688,15.981102 11.754331,11.754331 0 0 0 37.981767,4.226771 Z m 0,1.738583 A 10.129134,10.129134 0 0 1 48.073105,16.094488 10.129134,10.129134 0 0 1 37.981767,26.223622 10.129134,10.129134 0 0 1 27.852633,16.094488 10.129134,10.129134 0 0 1 37.981767,5.965354 Z m 5.102362,4.459843 a 0.83149607,0.83149607 0 0 0 -0.113386,0 0.83149607,0.83149607 0 0 0 -0.415748,0.302362 l -4.459843,4.422047 -2.759054,-2.759055 a 0.83149607,0.83149607 0 1 0 -1.133859,1.133858 l 3.325984,3.36378 a 0.83149607,0.83149607 0 0 0 1.133858,0 l 5.026772,-5.026772 a 0.83149607,0.83149607 0 0 0 -0.642519,-1.43622 z"
       style="fill:#e6e6e6;stroke-width:3.77952766"
       inkscape:connector-curvature="0" />
  </g>
  <g
     transform="translate(9.9975585e-8,21.999982)"
     id="document-open-recent">
    <rect
       style="opacity:0.01000001;fill:#000000;fill-opacity:0.00392157;stroke:none"
       id="rect2994"
       width="32"
       height="32"
       x="21.999998"
       y="1.754521e-05" />
    <path
       id="path2-36"
       d="M 37.981767,4.226771 A 11.754331,11.754331 0 0 0 26.265231,15.981102 11.754331,11.754331 0 0 0 37.981767,27.773228 11.754331,11.754331 0 0 0 49.811688,15.981102 11.754331,11.754331 0 0 0 37.981767,4.226771 Z m 0,1.738583 A 10.129134,10.129134 0 0 1 48.073105,16.094488 10.129134,10.129134 0 0 1 37.981767,26.223622 10.129134,10.129134 0 0 1 27.852633,16.094488 10.129134,10.129134 0 0 1 37.981767,5.965354 Z m 5.102362,4.459843 a 0.83149607,0.83149607 0 0 0 -0.113386,0 0.83149607,0.83149607 0 0 0 -0.415748,0.302362 l -4.459843,4.422047 -2.759054,-2.759055 a 0.83149607,0.83149607 0 1 0 -1.133859,1.133858 l 3.325984,3.36378 a 0.83149607,0.83149607 0 0 0 1.133858,0 l 5.026772,-5.026772 a 0.83149607,0.83149607 0 0 0 -0.642519,-1.43622 z"
       style="fill:#e6e6e6;stroke-width:3.77952766"
       inkscape:connector-curvature="0" />
  </g>
</svg>
