<?xml version="1.0" encoding="UTF-8" standalone="no"?>
<svg
   xmlns:dc="http://purl.org/dc/elements/1.1/"
   xmlns:cc="http://creativecommons.org/ns#"
   xmlns:rdf="http://www.w3.org/1999/02/22-rdf-syntax-ns#"
   xmlns:svg="http://www.w3.org/2000/svg"
   xmlns="http://www.w3.org/2000/svg"
   xmlns:sodipodi="http://sodipodi.sourceforge.net/DTD/sodipodi-0.dtd"
   xmlns:inkscape="http://www.inkscape.org/namespaces/inkscape"
   version="1.1"
   id="svg2"
   viewBox="0 0 54 32"
   inkscape:version="0.92.4 (5da689c313, 2019-01-14)"
   sodipodi:docname="drive.svg">
  <sodipodi:namedview
     pagecolor="#ffffff"
     bordercolor="#666666"
     borderopacity="1"
     objecttolerance="10"
     gridtolerance="10"
     guidetolerance="10"
     inkscape:pageopacity="0"
     inkscape:pageshadow="2"
     inkscape:window-width="1366"
     inkscape:window-height="768"
     id="namedview15"
     showgrid="false"
     inkscape:zoom="3.4045882"
     inkscape:cx="-8.7230769"
     inkscape:cy="16"
     inkscape:window-x="0"
     inkscape:window-y="25"
     inkscape:window-maximized="0"
     inkscape:current-layer="svg2"
     showguides="true"
     inkscape:guide-bbox="true">
    <sodipodi:guide
       position="22.326923,15.680769"
       orientation="0,1"
       id="guide827"
       inkscape:locked="false" />
    <sodipodi:guide
       position="-8.0039048,15.680769"
       orientation="1,0"
       id="guide864"
       inkscape:locked="false" />
    <sodipodi:guide
       position="-15.934379,8.0039048"
       orientation="0,1"
       id="guide866"
       inkscape:locked="false" />
  </sodipodi:namedview>
  <metadata
     id="metadata21">
    <rdf:RDF>
      <cc:Work
         rdf:about="">
        <dc:format>image/svg+xml</dc:format>
        <dc:type
           rdf:resource="http://purl.org/dc/dcmitype/StillImage" />
        <dc:title></dc:title>
      </cc:Work>
    </rdf:RDF>
  </metadata>
  <defs
     id="defs3051">
    <style
       id="current-color-scheme"
       type="text/css">
      .ColorScheme-Text {
        color:#31363b;
      }
      </style>
  </defs>
  <g
     transform="translate(-0.0493007,0.073127)"
     id="drive">
    <rect
       style="opacity:0.01000001;fill:#000000;fill-opacity:0.00392157;stroke:none"
       id="rect2994"
       width="32"
       height="32"
       x="21.999998"
       y="1.754521e-05" />
    <path
       id="path2-36"
       d="M 38.03846,3.229818 A 12.773229,12.773229 0 0 0 25.265232,16.003046 12.773229,12.773229 0 0 0 38.03846,28.772213 12.773229,12.773229 0 0 0 50.811688,16.001015 12.773229,12.773229 0 0 0 38.03846,3.227787 Z M 38.0019,5.130572 A 10.980103,10.980103 0 0 1 48.982007,16.110674 10.980103,10.980103 0 0 1 38.001909,27.090778 10.980103,10.980103 0 0 1 27.023834,16.110674 10.980103,10.980103 0 0 1 38.001909,5.132602 Z m -5.744907,2.796301 c -1.153448,0 -1.153448,1.15751 -1.153448,1.15751 v 13.857631 c 0,0 0,1.15548 1.153448,1.15548 h 11.55074 c 0,0 1.15751,0 1.15751,-1.157511 v -13.8556 c 0,0 0,-1.155479 -1.15751,-1.155479 H 32.256998 Z m 5.777398,2.310959 a 4.6198882,4.6198882 0 1 1 0,9.239775 h -4.621918 v -4.617854 a 4.6198881,4.6198881 0 0 1 4.62192,-4.61989 z m 0,2.310963 a 2.3109593,2.3109593 0 1 0 0,4.619885 2.3109593,2.3109593 0 0 0 0,-4.619885 z"
       style="fill:#e6e6e6;stroke-width:2.03072"
       inkscape:connector-curvature="0" />
  </g>
  <g
     id="22-22-drive"
     transform="translate(-8)">
    <rect
       style="opacity:0.01000001;fill:#000000;fill-opacity:0.00392157;stroke:none"
       id="rect3028"
       width="22"
       height="22"
       x="8"
       y="10" />
    <path
       inkscape:connector-curvature="0"
       id="path867"
       d="m 13.230349,12.862471 c -1.153448,0 -1.152344,1.158203 -1.152344,1.158203 v 13.857422 c 0,0 -0.0011,1.15625 1.152344,1.15625 H 24.78113 c 0,0 1.158203,-6.92e-4 1.158203,-1.158203 V 14.020674 c 0,0 -6.93e-4,-1.156251 -1.158203,-1.156251 H 13.230349 Z m 5.777343,2.3125 a 4.6198882,4.6198882 0 1 1 0,9.238281 h -4.621093 v -4.617187 a 4.6198881,4.6198881 0 0 1 4.621093,-4.619141 z m 0,2.310547 a 2.3109593,2.3109593 0 1 0 0,4.619139 2.3109593,2.3109593 0 0 0 0,-4.619139 z"
       style="fill:#e6e6e6;stroke-width:2.03072" />
  </g>
  <g
     id="16-16-drive">
    <path
       id="path17"
       d="M -16,16 V 32 H 0 V 16 Z"
       style="opacity:1;fill:none"
       inkscape:connector-curvature="0" />
    <path
       id="path908"
       d="m -8.0224748,18.185453 v 0.0024 a 5.8291429,5.8291429 0 0 0 -5.8306652,5.8282 v 5.825733 h 5.8306652 a 5.829143,5.829143 0 1 0 0,-11.656397 z m 0,2.915332 a 2.9158524,2.9158524 0 0 1 0,5.828199 2.9158524,2.9158524 0 1 1 0,-5.828199 z"
       style="fill:#e6e6e6;stroke-width:2.56226039"
       inkscape:connector-curvature="0" />
  </g>
</svg>
