<?xml version="1.0" encoding="UTF-8" standalone="no"?>
<svg
   xmlns:dc="http://purl.org/dc/elements/1.1/"
   xmlns:cc="http://creativecommons.org/ns#"
   xmlns:rdf="http://www.w3.org/1999/02/22-rdf-syntax-ns#"
   xmlns:svg="http://www.w3.org/2000/svg"
   xmlns="http://www.w3.org/2000/svg"
   xmlns:sodipodi="http://sodipodi.sourceforge.net/DTD/sodipodi-0.dtd"
   xmlns:inkscape="http://www.inkscape.org/namespaces/inkscape"
   version="1.1"
   id="svg2"
   viewBox="0 0 22 22"
   sodipodi:docname="video-card.svg"
   inkscape:version="0.92.4 (5da689c313, 2019-01-14)">
  <sodipodi:namedview
     pagecolor="#ffffff"
     bordercolor="#666666"
     borderopacity="1"
     objecttolerance="10"
     gridtolerance="10"
     guidetolerance="10"
     inkscape:pageopacity="0"
     inkscape:pageshadow="2"
     inkscape:window-width="1366"
     inkscape:window-height="717"
     id="namedview10"
     showgrid="false"
     inkscape:zoom="8.2763635"
     inkscape:cx="-15.340071"
     inkscape:cy="11"
     inkscape:window-x="0"
     inkscape:window-y="25"
     inkscape:window-maximized="1"
     inkscape:current-layer="svg2" />
  <metadata
     id="metadata12">
    <rdf:RDF>
      <cc:Work
         rdf:about="">
        <dc:format>image/svg+xml</dc:format>
        <dc:type
           rdf:resource="http://purl.org/dc/dcmitype/StillImage" />
        <dc:title></dc:title>
      </cc:Work>
    </rdf:RDF>
  </metadata>
  <defs
     id="defs3051">
    <style
       type="text/css"
       id="current-color-scheme">
      .ColorScheme-Text {
        color:#31363b;
      }
      </style>
  </defs>
  <g
     id="22-22-video-card-inactive">
    <path
       id="path7"
       style="opacity:1;fill:none"
       d="M 0,0 V 22 H 22 V 0 Z"
       inkscape:connector-curvature="0" />
    <path
       id="path832"
       d="M 15.409107,4.1933691 A 3.8940487,3.8940487 0 0 0 11.895336,6.4185398 H 8.1773023 V 14.206638 H 15.965399 V 11.935833 A 3.8940487,3.8940487 0 0 0 19.303156,8.0874179 3.8940487,3.8940487 0 0 0 15.409107,4.1933691 Z m -0.07171,1.1125854 a 2.7814634,2.7814634 0 0 1 0.07171,0 2.7814634,2.7814634 0 0 1 2.781463,2.7814634 2.7814634,2.7814634 0 0 1 -2.225171,2.7206191 V 6.4185398 H 13.188282 A 2.7814634,2.7814634 0 0 1 15.337397,5.3059545 Z M 9.2898877,7.5311252 h 2.2686303 a 3.8940487,3.8940487 0 0 0 -0.04346,0.5562927 3.8940487,3.8940487 0 0 0 3.337756,3.8505891 v 1.156046 H 9.2898877 Z m 3.3942543,0 h 2.168672 v 3.2812588 a 2.7814634,2.7814634 0 0 1 -2.225171,-2.7249661 2.7814634,2.7814634 0 0 1 0.0565,-0.5562927 z"
       style="color:#31363b;fill:#e6e6e6;fill-opacity:1;stroke:none;stroke-width:1.11258531"
       inkscape:connector-curvature="0" />
    <path
       id="path12"
       d="m 17.931981,13.109264 c -1.084341,0.125746 -1.917349,1.019503 -1.966582,2.11 -7.48e-4,0.03331 -7.48e-4,0.06664 0,0.09995 h 1.112586 c -5.82e-4,-0.564466 0.421628,-1.039918 0.982204,-1.106067 0.04236,-0.01035 0.08693,-0.01024 0.130381,-0.0066 0.564467,-5.82e-4 1.039919,0.439009 1.106067,0.999589 -0.02039,1.312609 -0.997126,1.375941 -2.216479,1.471132 0,0 -0.0022,1.880631 -0.0022,1.994831 h 1.112585 l 5.2e-5,-1.127796 h 0.0022 0.256417 c 1.084236,-0.125747 1.917296,-1.019503 1.966529,-2.11 -0.01182,-0.116904 -0.0093,-0.21779 -0.01521,-0.356376 -0.125747,-1.084341 -1.019503,-1.917348 -2.11,-1.966581 -0.118462,-10e-4 -0.236695,-0.0014 -0.358549,-0.0022 z m -0.851823,6.660301 v 1.112585 h 1.112585 v -1.112585 z"
       style="fill:#e6e6e6;fill-opacity:1;stroke:none;stroke-width:1.11258531"
       inkscape:connector-curvature="0" />
    <path
       id="path831"
       d="m 7.287213,1.1178519 a 0.31019772,0.31019772 0 0 1 0.3107329,0.310734 V 18.298217 c 0,0.190891 -0.1432721,0.334164 -0.3341628,0.334164 H 6.2859607 c -0.1908918,0 -0.3341639,-0.143273 -0.3341639,-0.334164 v -3.054315 l -0.096183,0.02467 H 3.4215341 c -0.2147512,0 -0.4056798,-0.190928 -0.4056798,-0.405681 v -3.030882 c 0,-0.238614 0.1909286,-0.405681 0.4056798,-0.405681 H 5.9517924 V 8.3239126 l -0.096183,0.04809 H 3.4215296 c -0.2147512,0 -0.4056797,-0.190495 -0.4056797,-0.4291088 V 4.9120093 c 0,-0.2386139 0.1909285,-0.4056802 0.4056797,-0.4056802 h 2.4340798 l 0.096183,0.024659 V 2.7171434 H 1.8949925 c -0.1670313,0 -0.3107329,-0.1432714 -0.3107329,-0.3341622 V 1.4285845 A 0.31019772,0.31019772 0 0 1 1.8949925,1.1178504 H 7.2637786 Z M 5.8556183,5.651851 H 4.1145212 c -0.095449,0 -0.1676944,0.072253 -0.1676944,0.1676975 v 1.21704 c 0,0.095445 0.072251,0.1664648 0.1676944,0.1664648 H 5.8556183 A 0.16702956,0.16702956 0 0 0 5.9986556,7.0365885 V 5.8429766 c 0,-0.1193063 -0.07145,-0.1911256 -0.1430373,-0.1911256 z m 0,6.919991 H 4.1145212 c -0.095449,0 -0.1676944,0.07102 -0.1676944,0.166465 v 1.193609 c 0,0.119307 0.072251,0.191126 0.1676944,0.191126 h 1.7410971 a 0.16702956,0.16702956 0 0 0 0.1430373,-0.167695 v -1.21704 c 0,-0.09545 -0.07145,-0.166465 -0.1430373,-0.166465 z"
       style="fill:#e6e6e6;fill-opacity:1;stroke-width:2.38613701"
       inkscape:connector-curvature="0" />
  </g>
</svg>
