<?xml version="1.0" encoding="UTF-8" standalone="no"?>
<!-- Created with Inkscape (http://www.inkscape.org/) -->

<svg
   xmlns:dc="http://purl.org/dc/elements/1.1/"
   xmlns:cc="http://creativecommons.org/ns#"
   xmlns:rdf="http://www.w3.org/1999/02/22-rdf-syntax-ns#"
   xmlns:svg="http://www.w3.org/2000/svg"
   xmlns="http://www.w3.org/2000/svg"
   xmlns:xlink="http://www.w3.org/1999/xlink"
   xmlns:sodipodi="http://sodipodi.sourceforge.net/DTD/sodipodi-0.dtd"
   xmlns:inkscape="http://www.inkscape.org/namespaces/inkscape"
   width="173"
   height="56.000004"
   viewBox="0 0 173 56.000004"
   id="svg2"
   version="1.1"
   inkscape:version="0.92.4 (5da689c313, 2019-01-14)"
   sodipodi:docname="panel-background.svg">
  <defs
     id="defs4">
    <style
       type="text/css"
       id="current-color-scheme">
      .ColorScheme-Text {
        color:#00ff00;
      }
      .ColorScheme-Background {
        color:#ff0000;
      }
      .ColorScheme-Highlight {
        color:#0000ff;
      }
      .ColorScheme-ButtonHover {
        color:#ffff00;
      }
      .ColorScheme-ButtonFocus{
        color:#ff00ff;
      }
      </style>
    <radialGradient
       inkscape:collect="always"
       xlink:href="#linearGradient4270"
       id="radialGradient4944"
       gradientUnits="userSpaceOnUse"
       gradientTransform="matrix(2.1665502e-7,1.0000002,-0.99998986,2.166522e-7,1058.1027,-6.2502157)"
       cx="54.249981"
       cy="945.11224"
       fx="54.249981"
       fy="945.11224"
       r="6" />
    <radialGradient
       inkscape:collect="always"
       xlink:href="#linearGradient4270"
       id="radialGradient4938"
       gradientUnits="userSpaceOnUse"
       gradientTransform="matrix(-0.99999977,-1.5530616e-6,1.5530619e-6,-1.0000003,80.641384,998.36216)"
       cx="7.6428633"
       cy="950.36188"
       fx="7.6428633"
       fy="950.36188"
       r="6" />
    <radialGradient
       inkscape:collect="always"
       xlink:href="#linearGradient4270"
       id="radialGradient4930"
       gradientUnits="userSpaceOnUse"
       gradientTransform="matrix(1.0000002,4.4078421e-7,-3.4750754e-7,1.0000036,59.107455,-903.76554)"
       cx="53.892849"
       cy="911.76221"
       fx="53.892849"
       fy="911.76221"
       r="6" />
    <radialGradient
       inkscape:collect="always"
       xlink:href="#linearGradient4270"
       id="radialGradient4924"
       gradientUnits="userSpaceOnUse"
       gradientTransform="matrix(-1.2274083e-7,-0.99999983,1.0000073,-1.2274096e-7,-840.97593,30.200088)"
       cx="22.200001"
       cy="913.9693"
       fx="22.200001"
       fy="913.9693"
       r="6" />
    <linearGradient
       inkscape:collect="always"
       xlink:href="#linearGradient4270"
       id="linearGradient4950"
       gradientUnits="userSpaceOnUse"
       x1="55"
       y1="932.36218"
       x2="61"
       y2="932.36218" />
    <linearGradient
       id="linearGradient4270"
       inkscape:collect="always">
      <stop
         id="stop4272"
         offset="0"
         style="stop-color:#000000;stop-opacity:0.66663194" />
      <stop
         id="stop4274"
         offset="1"
         style="stop-color:#000000;stop-opacity:0;" />
    </linearGradient>
    <linearGradient
       inkscape:collect="always"
       xlink:href="#linearGradient4270"
       id="linearGradient4948"
       gradientUnits="userSpaceOnUse"
       x1="-15"
       y1="932.36218"
       x2="-9"
       y2="932.36218" />
    <linearGradient
       inkscape:collect="always"
       xlink:href="#linearGradient4270"
       id="linearGradient4942"
       gradientUnits="userSpaceOnUse"
       x1="51"
       y1="47.999981"
       x2="51"
       y2="53.999981"
       gradientTransform="translate(58,0)" />
    <linearGradient
       inkscape:collect="always"
       xlink:href="#linearGradient4270"
       id="linearGradient4946"
       gradientUnits="userSpaceOnUse"
       x1="55"
       y1="43.999981"
       x2="61"
       y2="43.999981" />
    <linearGradient
       inkscape:collect="always"
       xlink:href="#linearGradient4270"
       id="linearGradient4936"
       gradientUnits="userSpaceOnUse"
       x1="19"
       y1="47.999977"
       x2="19"
       y2="53.999981"
       gradientTransform="translate(58,0)" />
    <linearGradient
       inkscape:collect="always"
       xlink:href="#linearGradient4270"
       id="linearGradient4940"
       gradientUnits="userSpaceOnUse"
       x1="15"
       y1="43.999981"
       x2="9"
       y2="43.999981" />
    <linearGradient
       inkscape:collect="always"
       xlink:href="#linearGradient4270"
       id="linearGradient4934"
       gradientUnits="userSpaceOnUse"
       x1="952.36218"
       y1="-35"
       x2="958.36218"
       y2="-35" />
    <linearGradient
       inkscape:collect="always"
       xlink:href="#linearGradient4270"
       id="linearGradient4928"
       gradientUnits="userSpaceOnUse"
       x1="55"
       y1="11.99998"
       x2="61"
       y2="11.99998" />
    <linearGradient
       inkscape:collect="always"
       xlink:href="#linearGradient4270"
       id="linearGradient4932"
       gradientUnits="userSpaceOnUse"
       x1="51"
       y1="7.9999795"
       x2="51"
       y2="1.9999795"
       gradientTransform="translate(58,0)" />
    <linearGradient
       inkscape:collect="always"
       xlink:href="#linearGradient4270"
       id="linearGradient4922"
       gradientUnits="userSpaceOnUse"
       x1="15"
       y1="11.99998"
       x2="9"
       y2="11.99998" />
    <linearGradient
       inkscape:collect="always"
       xlink:href="#linearGradient4270"
       id="linearGradient4926"
       gradientUnits="userSpaceOnUse"
       x1="19"
       y1="7.9999795"
       x2="19"
       y2="1.9999795"
       gradientTransform="translate(58,0)" />
    <linearGradient
       inkscape:collect="always"
       xlink:href="#linearGradient4270"
       id="linearGradient4920"
       gradientUnits="userSpaceOnUse"
       x1="-912.36218"
       y1="-35"
       x2="-906.36218"
       y2="-35" />
  </defs>
  <sodipodi:namedview
     id="base"
     pagecolor="#ffffff"
     bordercolor="#cc0000"
     borderopacity="1"
     inkscape:pageopacity="1"
     inkscape:pageshadow="2"
     inkscape:zoom="2.6936416"
     inkscape:cx="86.5"
     inkscape:cy="28.000002"
     inkscape:document-units="px"
     inkscape:current-layer="layer1"
     showgrid="true"
     inkscape:showpageshadow="false"
     borderlayer="true"
     units="px"
     inkscape:window-width="1366"
     inkscape:window-height="700"
     inkscape:window-x="0"
     inkscape:window-y="0"
     inkscape:window-maximized="1"
     showguides="true"
     fit-margin-top="0"
     fit-margin-left="0"
     fit-margin-right="0"
     fit-margin-bottom="0" />
  <metadata
     id="metadata7">
    <rdf:RDF>
      <cc:Work
         rdf:about="">
        <dc:format>image/svg+xml</dc:format>
        <dc:type
           rdf:resource="http://purl.org/dc/dcmitype/StillImage" />
        <dc:title></dc:title>
      </cc:Work>
    </rdf:RDF>
  </metadata>
  <g
     inkscape:label="Layer 1"
     inkscape:groupmode="layer"
     id="layer1"
     transform="translate(0,-904.36218)">
    <rect
       style="opacity:1;fill:#ff6600;fill-opacity:1;stroke:none"
       id="hint-tile-center"
       width="5"
       height="5"
       x="0"
       y="904.36218" />
    <g
       id="top">
      <rect
         y="-50.999985"
         x="-916.36218"
         height="32"
         width="6"
         id="rect4152"
         style="opacity:1;fill:currentColor;fill-opacity:1;stroke:none"
         transform="matrix(0,-1,-1,0,0,0)"
         class="ColorScheme-Background" />
    </g>
    <g
       id="topleft">
      <path
         style="opacity:1;fill:currentColor;fill-opacity:1"
         d="m 14,6 c -0.553986,0 -1,0.4460137 -1,1 l 0,4 0,1 4,0 1,0 1,0 0,-1 0,-4 0,-1 -1,0 -1,0 -3,0 z"
         transform="translate(0,904.36218)"
         id="rect4159"
         inkscape:connector-curvature="0"
         class="ColorScheme-Background" />
    </g>
    <g
       id="topright">
      <path
         style="opacity:1;fill:currentColor;fill-opacity:1"
         d="m 51,6 0,1 0,4 0,1 1,0 1,0 3,0 1,0 0,-1 0,-4 C 57,6.4460137 56.553986,6 56,6 l -3,0 -1,0 -1,0 z"
         transform="translate(0,904.36218)"
         id="rect4177"
         inkscape:connector-curvature="0"
         class="ColorScheme-Background" />
    </g>
    <g
       id="bottom">
      <rect
         transform="matrix(0,1,-1,0,0,0)"
         style="opacity:1;fill:currentColor;fill-opacity:1;stroke:none"
         id="rect4148"
         width="6"
         height="32"
         x="948.36218"
         y="-50.999985"
         class="ColorScheme-Background" />
    </g>
    <g
       id="bottomleft">
      <path
         inkscape:connector-curvature="0"
         style="opacity:1;fill:currentColor;fill-opacity:1"
         d="m 19,954.36218 0,-1 0,-4 0,-1 -1,0 -1,0 -3,0 -1,0 0,1 0,4 c 0,0.55399 0.446014,1 1,1 l 3,0 1,0 1,0 z"
         id="path5048"
         class="ColorScheme-Background" />
    </g>
    <g
       id="bottomright">
      <path
         id="rect4177-6"
         d="m 51,954.36218 0,-1 0,-4 0,-1 1,0 1,0 3,0 1,0 0,1 0,4 c 0,0.55399 -0.446014,1 -1,1 l -3,0 -1,0 -1,0 z"
         style="opacity:1;fill:currentColor;fill-opacity:1"
         inkscape:connector-curvature="0"
         class="ColorScheme-Background" />
    </g>
    <g
       id="left">
      <rect
         transform="scale(-1,1)"
         style="opacity:1;fill:currentColor;fill-opacity:1;stroke:none"
         id="rect4144"
         width="5.9999995"
         height="32"
         x="-19.000004"
         y="916.36218"
         class="ColorScheme-Background" />
    </g>
    <g
       id="right">
      <rect
         y="916.36218"
         x="50.999985"
         height="32"
         width="5.9999995"
         id="rect4140"
         style="opacity:1;fill:currentColor;fill-opacity:1;stroke:none"
         class="ColorScheme-Background" />
    </g>
    <g
       id="center">
      <rect
         y="916.36218"
         x="19.000004"
         height="32"
         width="32"
         id="rect4401"
         style="opacity:1;fill:none;fill-opacity:1;stroke:none" />
      <rect
         style="opacity:1;fill:currentColor;fill-opacity:1;stroke:none"
         id="rect4138"
         width="32"
         height="32"
         x="19.000004"
         y="916.36218"
         class="ColorScheme-Background" />
    </g>
    <rect
       style="fill:#ff00ff;fill-opacity:1;stroke:none"
       id="hint-top-margin"
       width="4"
       height="1.9999769"
       x="33"
       y="910.36218" />
    <rect
       y="952.36218"
       x="33"
       height="2.0000231"
       width="4"
       id="hint-bottom-margin"
       style="fill:#ff00ff;fill-opacity:1;stroke:none" />
    <rect
       y="-56.999985"
       x="930.36218"
       height="1.9999847"
       width="3.9999769"
       id="hint-right-margin"
       style="fill:#ff00ff;fill-opacity:1;stroke:none"
       transform="matrix(0,1,-1,0,0,0)" />
    <rect
       style="fill:#ff00ff;fill-opacity:1;stroke:none"
       id="hint-left-margin"
       width="4"
       height="2.0000019"
       x="930.36218"
       y="-14.999996"
       transform="matrix(0,1,-1,0,0,0)" />
    <g
       id="mask-top"
       transform="translate(116,0)">
      <rect
         transform="matrix(0,-1,-1,0,0,0)"
         style="opacity:0.97000002;fill:#000000;fill-opacity:1;stroke:none"
         id="rect4265"
         width="4.9999771"
         height="32.000015"
         x="-915.36218"
         y="-51" />
    </g>
    <g
       id="mask-topleft"
       transform="translate(116,0)">
      <path
         style="opacity:0.97000002;fill:#000000;fill-opacity:1"
         d="M 130 6 C 129.44601 6 129 6.4460137 129 7 L 129 11 L 134 11 L 134 6 L 133 6 L 130 6 z "
         transform="translate(-116,904.36218)"
         id="path4277" />
    </g>
    <g
       id="mask-topright"
       transform="translate(116,0)">
      <path
         style="opacity:0.97000002;fill:#000000;fill-opacity:1"
         d="M 168 6 L 168 11 L 173 11 L 173 7 C 173 6.4460137 172.55399 6 172 6 L 169 6 L 168 6 z "
         transform="translate(-116,904.36218)"
         id="path4287" />
    </g>
    <g
       id="mask-bottom"
       transform="translate(116,0)">
      <rect
         y="-51"
         x="949.36218"
         height="32.000015"
         width="5.0000229"
         id="rect4291"
         style="opacity:0.97000002;fill:#000000;fill-opacity:1;stroke:none"
         transform="matrix(0,1,-1,0,0,0)" />
    </g>
    <g
       id="mask-bottomleft"
       transform="translate(116,0)">
      <path
         style="opacity:0.97000002;fill:#000000;fill-opacity:1"
         d="M 129 45 L 129 49 C 129 49.55399 129.44601 50 130 50 L 133 50 L 134 50 L 134 45 L 129 45 z "
         transform="translate(-116,904.36218)"
         id="path4303" />
    </g>
    <g
       id="mask-bottomright"
       transform="translate(116,0)">
      <path
         style="opacity:0.97000002;fill:#000000;fill-opacity:1"
         d="M 168 45 L 168 50 L 169 50 L 172 50 C 172.55399 50 173 49.55399 173 49 L 173 45 L 168 45 z "
         transform="translate(-116,904.36218)"
         id="path4313" />
    </g>
    <g
       id="mask-left"
       transform="translate(116,0)">
      <rect
         y="916.36218"
         x="-18"
         height="32.000023"
         width="4.9999962"
         id="rect4317"
         style="opacity:0.97000002;fill:#000000;fill-opacity:1;stroke:none"
         transform="scale(-1,1)" />
    </g>
    <g
       id="mask-right"
       transform="translate(116,0)">
      <rect
         style="opacity:0.97000002;fill:#000000;fill-opacity:1;stroke:none"
         id="rect4323"
         width="4.9999847"
         height="32.000023"
         x="52"
         y="916.36218" />
    </g>
    <g
       id="mask-center"
       transform="translate(116,0)">
      <rect
         style="opacity:1;fill:none;fill-opacity:1;stroke:none"
         id="rect4329"
         width="32"
         height="32"
         x="19.000004"
         y="916.36218" />
      <rect
         y="916.36218"
         x="19.000004"
         height="32"
         width="32"
         id="rect4331"
         style="opacity:0.97000002;fill:#000000;fill-opacity:1;stroke:none" />
    </g>
    <g
       id="shadow-top"
       transform="translate(58,-1.8530272e-7)">
      <rect
         transform="matrix(0,-1,-1,0,0,0)"
         style="opacity:1;fill:none;fill-opacity:1;stroke:none"
         id="rect4820"
         width="6"
         height="32"
         x="-916.36218"
         y="-50.999985" />
      <rect
         transform="matrix(0,-1,-1,0,0,0)"
         style="opacity:0.9;fill:url(#linearGradient4920);fill-opacity:1;stroke:none"
         id="rect4822"
         width="6"
         height="32"
         x="-910.36218"
         y="-50.999985" />
      <rect
         y="-50.999985"
         x="-911.36218"
         height="32"
         width="0.99997741"
         id="rect4824"
         style="opacity:1;fill:none;fill-opacity:1;stroke:none"
         transform="matrix(0,-1,-1,0,0,0)" />
    </g>
    <g
       id="shadow-topleft"
       transform="translate(58,-1.8530272e-7)">
      <path
         id="path4828"
         transform="translate(0,904.36218)"
         d="m 7,7 0,1 0,4 6,0 0,-4 0,-1 -6,0 z"
         style="opacity:0.9;fill:url(#linearGradient4922);fill-opacity:1;fill-rule:evenodd;stroke:none;stroke-width:1px;stroke-linecap:butt;stroke-linejoin:miter;stroke-opacity:1"
         inkscape:connector-curvature="0" />
      <path
         inkscape:connector-curvature="0"
         style="opacity:1;fill:url(#radialGradient4924);fill-opacity:1;fill-rule:evenodd;stroke:none;stroke-width:1px;stroke-linecap:butt;stroke-linejoin:miter;stroke-opacity:1"
         d="m 65,0 0,7 6,0 c 0,-1 1,-1 1,-1 l 0,-6 -7,0 z"
         transform="translate(-58,904.36218)"
         id="path4830" />
      <path
         style="opacity:0.9;fill:url(#linearGradient4926);fill-opacity:1;fill-rule:evenodd;stroke:none;stroke-width:1px;stroke-linecap:butt;stroke-linejoin:miter;stroke-opacity:1"
         d="m 72,0 0,6 1,0 4,0 0,-6 -4,0 -1,0 z"
         transform="translate(-58,904.36218)"
         id="path4832"
         inkscape:connector-curvature="0" />
      <rect
         ry="0.9999752"
         y="910.36218"
         x="-19.000004"
         height="6.0000224"
         width="5.9999919"
         id="rect4834"
         style="fill:none;fill-opacity:1"
         transform="scale(-1,1)" />
      <rect
         ry="0"
         y="910.36218"
         x="-19.000004"
         height="5.9999752"
         width="2.0000038"
         id="rect4836"
         style="fill:none;fill-opacity:1"
         transform="scale(-1,1)" />
      <rect
         y="914.36218"
         x="-18"
         height="2.0000248"
         width="4.9999924"
         id="rect4838"
         style="fill:none;fill-opacity:1"
         transform="scale(-1,1)" />
    </g>
    <g
       id="shadow-topright"
       transform="translate(58,-1.8530272e-7)">
      <path
         id="path4842"
         transform="translate(0,904.36218)"
         d="m 57,7 0,1 0,4 6,0 0,-4 0,-1 -6,0 z"
         style="opacity:0.9;fill:url(#linearGradient4928);fill-opacity:1;fill-rule:evenodd;stroke:none;stroke-width:1px;stroke-linecap:butt;stroke-linejoin:miter;stroke-opacity:1"
         inkscape:connector-curvature="0" />
      <path
         inkscape:connector-curvature="0"
         style="opacity:1;fill:url(#radialGradient4930);fill-opacity:1;fill-rule:evenodd;stroke:none;stroke-width:1px;stroke-linecap:butt;stroke-linejoin:miter;stroke-opacity:1"
         d="m 114,0 0,6 c 0,0 1,0 1,1 l 6,0 0,-7 -7,0 z"
         id="path4844"
         transform="translate(-58,904.36218)" />
      <path
         style="opacity:0.9;fill:url(#linearGradient4932);fill-opacity:1;fill-rule:evenodd;stroke:none;stroke-width:1px;stroke-linecap:butt;stroke-linejoin:miter;stroke-opacity:1"
         d="m 109,0 0,6 4,0 1,0 0,-6 -1,0 -4,0 z"
         transform="translate(-58,904.36218)"
         id="path4846"
         inkscape:connector-curvature="0" />
      <rect
         style="fill:none;fill-opacity:1"
         id="rect4848"
         width="5.9999957"
         height="6.0000224"
         x="50.999985"
         y="910.36218"
         ry="0.9999752" />
      <rect
         style="fill:none;fill-opacity:1"
         id="rect4850"
         width="2.0000153"
         height="5.9999752"
         x="50.999985"
         y="910.36218"
         ry="0" />
      <rect
         style="fill:none;fill-opacity:1"
         id="rect4852"
         width="4.9999809"
         height="2.0000248"
         x="52"
         y="914.36218" />
    </g>
    <g
       id="shadow-bottom"
       transform="translate(58,-1.8530272e-7)">
      <rect
         y="-50.999985"
         x="948.36218"
         height="32"
         width="6"
         id="rect4856"
         style="opacity:1;fill:none;fill-opacity:1;stroke:none"
         transform="matrix(0,1,-1,0,0,0)" />
      <rect
         y="-50.999985"
         x="954.36218"
         height="32"
         width="6"
         id="rect4858"
         style="opacity:0.9;fill:url(#linearGradient4934);fill-opacity:1;stroke:none"
         transform="matrix(0,1,-1,0,0,0)" />
      <rect
         transform="matrix(0,1,-1,0,0,0)"
         style="opacity:1;fill:none;fill-opacity:1;stroke:none"
         id="rect4860"
         width="1.0000226"
         height="31.999971"
         x="953.36218"
         y="-50.999985" />
    </g>
    <g
       id="shadow-bottomleft"
       transform="translate(58,-1.8530272e-7)">
      <path
         style="opacity:0.9;fill:url(#linearGradient4936);fill-opacity:1;fill-rule:evenodd;stroke:none;stroke-width:1px;stroke-linecap:butt;stroke-linejoin:miter;stroke-opacity:1"
         d="m 72,50 0,6 1,0 4,0 0,-6 -4,0 -1,0 z"
         transform="translate(-58,904.36218)"
         id="path4864"
         inkscape:connector-curvature="0" />
      <path
         inkscape:connector-curvature="0"
         style="opacity:1;fill:url(#radialGradient4938);fill-opacity:1;fill-rule:evenodd;stroke:none;stroke-width:1px;stroke-linecap:butt;stroke-linejoin:miter;stroke-opacity:1"
         d="m 65,49 0,7 7,0 0,-6 c -1,0 -1,-1 -1,-1 l -6,0 z"
         transform="translate(-58,904.36218)"
         id="path4866" />
      <path
         id="path4868"
         transform="translate(0,904.36218)"
         d="m 7,44 0,4 0,1 6,0 0,-1 0,-4 -6,0 z"
         style="opacity:0.9;fill:url(#linearGradient4940);fill-opacity:1;fill-rule:evenodd;stroke:none;stroke-width:1px;stroke-linecap:butt;stroke-linejoin:miter;stroke-opacity:1"
         inkscape:connector-curvature="0" />
      <rect
         style="fill:none;fill-opacity:1"
         id="rect4870"
         width="5.9999957"
         height="5.999999"
         x="-19.000004"
         y="-954.36188"
         ry="0.99971962"
         transform="scale(-1,-1)" />
      <rect
         transform="scale(-1,-1)"
         style="fill:none;fill-opacity:1"
         id="rect4872"
         width="2.0000038"
         height="6.0000248"
         x="-19.000004"
         y="-954.36218"
         ry="0" />
      <rect
         transform="scale(-1,-1)"
         style="fill:none;fill-opacity:1"
         id="rect4874"
         width="4.9999714"
         height="2.0000362"
         x="-18"
         y="-950.36218" />
    </g>
    <g
       id="shadow-bottomright"
       transform="translate(58,-1.8530272e-7)">
      <path
         style="opacity:0.9;fill:url(#linearGradient4942);fill-opacity:1;fill-rule:evenodd;stroke:none;stroke-width:1px;stroke-linecap:butt;stroke-linejoin:miter;stroke-opacity:1"
         d="m 109,50 0,6 4,0 1,0 0,-6 -1,0 -4,0 z"
         transform="translate(-58,904.36218)"
         id="path4878"
         inkscape:connector-curvature="0" />
      <path
         inkscape:connector-curvature="0"
         style="opacity:1;fill:url(#radialGradient4944);fill-opacity:1;fill-rule:evenodd;stroke:none;stroke-width:1px;stroke-linecap:butt;stroke-linejoin:miter;stroke-opacity:1"
         d="m 115,49 c 0,0 0,1 -1,1 l 0,6 7,0 0,-7 -6,0 z"
         transform="translate(-58,904.36218)"
         id="path4880" />
      <path
         id="path4882"
         transform="translate(0,904.36218)"
         d="m 57,44 0,4 0,1 6,0 0,-1 0,-4 -6,0 z"
         style="opacity:0.9;fill:url(#linearGradient4946);fill-opacity:1;fill-rule:evenodd;stroke:none;stroke-width:1px;stroke-linecap:butt;stroke-linejoin:miter;stroke-opacity:1"
         inkscape:connector-curvature="0" />
      <rect
         ry="0.99971962"
         y="-954.36188"
         x="50.999985"
         height="5.999999"
         width="5.9999957"
         id="rect4884"
         style="fill:none;fill-opacity:1"
         transform="scale(1,-1)" />
      <rect
         ry="0"
         y="-954.36218"
         x="50.999985"
         height="6.0000248"
         width="2.0000153"
         id="rect4886"
         style="fill:none;fill-opacity:1"
         transform="scale(1,-1)" />
      <rect
         y="-950.36218"
         x="52"
         height="2.0000362"
         width="4.9999847"
         id="rect4888"
         style="fill:none;fill-opacity:1"
         transform="scale(1,-1)" />
    </g>
    <g
       id="shadow-left"
       transform="translate(58,-1.8530272e-7)">
      <rect
         y="916.36218"
         x="-19.000004"
         height="32"
         width="5.9999995"
         id="rect4892"
         style="opacity:1;fill:none;fill-opacity:1;stroke:none"
         transform="scale(-1,1)" />
      <rect
         y="916.36218"
         x="-13.000002"
         height="32"
         width="5.9999995"
         id="rect4894"
         style="opacity:0.9;fill:url(#linearGradient4948);fill-opacity:1;stroke:none"
         transform="scale(-1,1)" />
      <rect
         transform="scale(-1,1)"
         style="opacity:1;fill:none;fill-opacity:1;stroke:none"
         id="rect4896"
         width="1.0000019"
         height="32.000023"
         x="-14.000002"
         y="916.36218" />
    </g>
    <g
       id="shadow-right"
       transform="translate(58,-1.8530272e-7)">
      <rect
         style="opacity:1;fill:none;fill-opacity:1;stroke:none"
         id="rect4900"
         width="5.9999995"
         height="32"
         x="50.999985"
         y="916.36218" />
      <rect
         style="opacity:0.9;fill:url(#linearGradient4950);fill-opacity:1;stroke:none"
         id="rect4902"
         width="5.9999995"
         height="32"
         x="56.999985"
         y="916.36218" />
      <rect
         y="916.36218"
         x="55.999985"
         height="32.000023"
         width="1"
         id="rect4904"
         style="opacity:1;fill:none;fill-opacity:1;stroke:none" />
    </g>
    <g
       id="shadow-center"
       transform="translate(58,-1.8530272e-7)">
      <rect
         style="opacity:1;fill:none;fill-opacity:1;stroke:none"
         id="rect4908"
         width="32"
         height="32"
         x="19.000004"
         y="916.36218" />
      <rect
         y="916.36218"
         x="19.000004"
         height="32"
         width="32"
         id="rect4910"
         style="opacity:1;fill:none;fill-opacity:1;stroke:none" />
    </g>
    <rect
       y="904.36218"
       x="91"
       height="5.9999771"
       width="4"
       id="shadow-hint-top-margin"
       style="fill:#ff00ff;fill-opacity:1;stroke:none" />
    <rect
       style="fill:#ff00ff;fill-opacity:1;stroke:none"
       id="shadow-hint-bottom-margin"
       width="4"
       height="6.0000229"
       x="91"
       y="954.36218" />
    <rect
       transform="matrix(0,1,-1,0,0,0)"
       style="fill:#ff00ff;fill-opacity:1;stroke:none"
       id="shadow-hint-right-margin"
       width="3.9999769"
       height="5.9999771"
       x="930.36218"
       y="-120.99998" />
    <rect
       transform="matrix(0,1,-1,0,0,0)"
       y="-71"
       x="930.36218"
       height="6"
       width="4.0000229"
       id="shadow-hint-left-margin"
       style="fill:#ff00ff;fill-opacity:1;stroke:none" />
    <path
       style="font-style:normal;font-variant:normal;font-weight:normal;font-stretch:normal;font-size:16px;line-height:1.25;font-family:'Abyssinica SIL';-inkscape-font-specification:'Abyssinica SIL';letter-spacing:0px;word-spacing:0px;fill:#ffffff;fill-opacity:1;stroke:none;stroke-width:0.69157732"
       d="m 62.338748,875.15666 c -0.08608,0 -0.1672,0.0196 -0.243351,0.0588 -0.07615,0.0353 -0.144024,0.0862 -0.203621,0.15282 -0.05629,0.0666 -0.100982,0.14499 -0.134091,0.23512 -0.03311,0.0901 -0.04966,0.18613 -0.04966,0.28802 0,0.10188 0.01655,0.19985 0.04966,0.29389 0.03311,0.0901 0.07781,0.16851 0.134091,0.23512 0.0596,0.0666 0.12747,0.11952 0.203621,0.15871 0.07615,0.0392 0.157268,0.0588 0.243351,0.0588 0.08608,0 0.1672,-0.0196 0.243351,-0.0588 0.07615,-0.0392 0.142369,-0.0921 0.198654,-0.15871 0.05629,-0.0666 0.09933,-0.14499 0.129126,-0.23512 0.03311,-0.094 0.04966,-0.19201 0.04966,-0.29389 0,-0.10189 -0.01655,-0.19789 -0.04966,-0.28802 -0.0298,-0.0901 -0.07284,-0.1685 -0.129126,-0.23512 -0.05628,-0.0666 -0.122503,-0.11756 -0.198654,-0.15282 -0.07615,-0.0392 -0.157267,-0.0588 -0.243351,-0.0588 z m 21.002696,0.88169 c -0.347644,0 -0.668802,0.0705 -0.963472,0.2116 -0.291359,0.14107 -0.542988,0.36835 -0.754885,0.68184 -0.208587,0.31349 -0.372477,0.72495 -0.491669,1.23437 -0.119193,0.5055 -0.178789,1.12268 -0.178789,1.85154 0,0.73278 0.06125,1.33625 0.183755,1.8104 0.122504,0.47024 0.286393,0.84251 0.491669,1.11681 0.205276,0.2743 0.442005,0.46632 0.710188,0.57604 0.268183,0.1058 0.547954,0.1587 0.839313,0.1587 0.29136,0 0.574441,-0.0509 0.849246,-0.15283 0.278116,-0.10188 0.523123,-0.25862 0.73502,-0.47023 0.211898,-0.2116 0.382409,-0.48003 0.511534,-0.80527 0.129125,-0.32525 0.193688,-0.71123 0.193688,-1.15796 0,-0.29781 -0.0298,-0.56428 -0.08939,-0.79939 -0.05629,-0.23512 -0.134092,-0.44085 -0.233419,-0.61719 -0.09602,-0.18025 -0.210242,-0.33112 -0.342678,-0.4526 -0.129125,-0.12539 -0.266528,-0.22728 -0.412207,-0.30565 -0.14568,-0.0784 -0.29467,-0.13519 -0.446972,-0.17046 -0.152301,-0.0353 -0.297981,-0.0529 -0.437039,-0.0529 -0.182099,0 -0.3493,0.0196 -0.501601,0.0588 -0.152301,0.0392 -0.289703,0.0921 -0.412207,0.1587 -0.122503,0.0627 -0.230108,0.13715 -0.322813,0.22336 -0.0927,0.0862 -0.172166,0.17634 -0.238384,0.27039 0.04966,-0.54077 0.110915,-0.97966 0.183754,-1.31666 0.07615,-0.337 0.167201,-0.59955 0.27315,-0.78764 0.105949,-0.18809 0.230107,-0.31545 0.372476,-0.38206 0.142369,-0.0666 0.302947,-0.0999 0.481736,-0.0999 0.155613,0 0.284738,0.0313 0.387375,0.0941 0.102638,0.0627 0.185411,0.14303 0.248318,0.24099 0.06291,0.094 0.105949,0.20181 0.129125,0.32329 0.02649,0.11756 0.03973,0.2312 0.03973,0.34092 h 1.077698 c 0,-0.25079 -0.0447,-0.48395 -0.134092,-0.69948 -0.08939,-0.21552 -0.216864,-0.40361 -0.382409,-0.56428 -0.165544,-0.16066 -0.364199,-0.28605 -0.595962,-0.37618 -0.231763,-0.0941 -0.488358,-0.14107 -0.769784,-0.14107 z m -11.209053,0.22336 c -0.03973,0.0627 -0.115881,0.15086 -0.228452,0.2645 -0.112571,0.11364 -0.238385,0.23316 -0.377443,0.35856 -0.139058,0.12148 -0.283082,0.23707 -0.432072,0.3468 -0.14568,0.10972 -0.274805,0.19201 -0.387375,0.24687 v 1.15795 c 0.09933,-0.0353 0.215208,-0.0842 0.347644,-0.14695 0.132436,-0.0666 0.266528,-0.13911 0.402274,-0.21748 0.135747,-0.0823 0.264872,-0.1685 0.387376,-0.25863 0.125814,-0.0941 0.231763,-0.18809 0.317846,-0.28214 v 5.94846 h 1.037968 v -7.41794 z m 5.870226,0 -2.592435,4.39669 v 1.43421 h 2.989743 v 1.58704 h 1.028035 v -1.58704 h 0.670457 v -1.07566 H 79.42796 v -4.75524 z m 10.985567,0 -2.592435,4.39669 v 1.43421 h 2.989743 v 1.58704 h 1.028035 v -1.58704 h 0.670457 v -1.07566 h -0.670457 v -4.75524 z m -10.588259,0.89344 v 3.8618 h -2.219958 z m 10.985567,0 v 3.8618 h -2.219958 z m -26.952383,0.57604 -1.25152,0.45848 v 0.3997 h 0.72012 v 5.34303 c 0,0.2312 -0.0083,0.45064 -0.02483,0.65833 -0.01324,0.21161 -0.03973,0.40166 -0.07946,0.57016 -0.03642,0.17242 -0.08608,0.31937 -0.14899,0.44084 -0.06291,0.1254 -0.140714,0.21945 -0.233419,0.28214 l -0.988304,-0.80527 c -0.04966,0.0196 -0.100982,0.047 -0.153957,0.0823 -0.05297,0.0392 -0.09933,0.0862 -0.139058,0.14107 -0.04304,0.0588 -0.0778,0.12539 -0.104293,0.19985 -0.02649,0.0784 -0.03973,0.1685 -0.03973,0.27038 0,0.11364 0.02152,0.21161 0.06456,0.2939 0.03973,0.0862 0.09602,0.15674 0.168856,0.2116 0.06953,0.0549 0.150646,0.0941 0.243351,0.11756 0.09271,0.0274 0.192032,0.0412 0.297981,0.0412 0.321157,0 0.629071,-0.0921 0.923741,-0.27626 0.297981,-0.18026 0.551265,-0.46044 0.759852,-0.84055 0.08608,-0.16066 0.155612,-0.34288 0.208586,-0.54664 0.05298,-0.20377 0.09271,-0.41342 0.119193,-0.62894 0.0298,-0.21553 0.04966,-0.42909 0.0596,-0.6407 0.0099,-0.21552 0.0149,-0.41341 0.0149,-0.59367 v -5.17845 z m 2.796055,0 -1.25152,0.47023 v 0.41146 h 0.710188 v 3.26225 c 0,0.34092 0.03145,0.63481 0.09436,0.88169 0.06622,0.24295 0.158924,0.44476 0.278116,0.60542 0.122504,0.15675 0.269839,0.27235 0.442005,0.3468 0.175478,0.0784 0.372476,0.11756 0.590996,0.11756 0.14899,0 0.301292,-0.0294 0.456904,-0.0882 0.158923,-0.0549 0.30957,-0.12344 0.451938,-0.20573 0.14568,-0.0862 0.279771,-0.17829 0.402274,-0.27626 0.125815,-0.098 0.231764,-0.18613 0.317847,-0.26451 v 0.68772 h 1.614064 v -0.47023 l -0.446972,-0.0353 c -0.0596,-0.008 -0.11257,-0.0353 -0.158923,-0.0823 -0.04304,-0.047 -0.06456,-0.10776 -0.06456,-0.18222 v -5.17845 h -0.417173 l -1.241588,0.47023 v 0.41146 h 0.715155 v 4.03226 c -0.0596,0.0353 -0.132436,0.0745 -0.21852,0.11755 -0.08277,0.0392 -0.172166,0.0784 -0.268183,0.11756 -0.09601,0.0353 -0.196998,0.0647 -0.302947,0.0882 -0.105949,0.0235 -0.210242,0.0353 -0.31288,0.0353 -0.178789,0 -0.33109,-0.0294 -0.456904,-0.0882 -0.125814,-0.0627 -0.228452,-0.15283 -0.307914,-0.27038 -0.07615,-0.11756 -0.132436,-0.26059 -0.168856,-0.42909 -0.03311,-0.1685 -0.04966,-0.35856 -0.04966,-0.57016 v -3.9147 z m 17.993088,1.74574 c 0.162234,0 0.314535,0.0451 0.456904,0.1352 0.142368,0.0862 0.264872,0.20572 0.36751,0.35855 0.105949,0.14891 0.188721,0.32524 0.248317,0.52901 0.06291,0.20377 0.09436,0.42125 0.09436,0.65245 0,0.2312 -0.03145,0.45064 -0.09436,0.65833 -0.0596,0.20377 -0.142368,0.38207 -0.248317,0.53489 -0.102638,0.15283 -0.225142,0.27431 -0.36751,0.36443 -0.142369,0.0862 -0.29467,0.12932 -0.456904,0.12932 -0.158924,0 -0.309569,-0.0431 -0.451939,-0.12932 -0.142368,-0.0901 -0.268182,-0.2116 -0.377442,-0.36443 -0.105949,-0.15282 -0.190377,-0.33112 -0.253284,-0.53489 -0.0596,-0.20769 -0.08939,-0.42713 -0.08939,-0.65833 0,-0.2312 0.0298,-0.44868 0.08939,-0.65245 0.06291,-0.20377 0.147335,-0.3801 0.253284,-0.52901 0.10926,-0.15283 0.235074,-0.27234 0.377442,-0.35855 0.14237,-0.0901 0.293015,-0.1352 0.451939,-0.1352 z"
       id="text929"
       inkscape:connector-curvature="0" />
  </g>
</svg>
