<?xml version="1.0" encoding="UTF-8" standalone="no"?>
<svg
   xmlns:dc="http://purl.org/dc/elements/1.1/"
   xmlns:cc="http://creativecommons.org/ns#"
   xmlns:rdf="http://www.w3.org/1999/02/22-rdf-syntax-ns#"
   xmlns:svg="http://www.w3.org/2000/svg"
   xmlns="http://www.w3.org/2000/svg"
   xmlns:sodipodi="http://sodipodi.sourceforge.net/DTD/sodipodi-0.dtd"
   xmlns:inkscape="http://www.inkscape.org/namespaces/inkscape"
   id="svg4306"
   width="22"
   height="22"
   version="1.1"
   style="enable-background:new"
   sodipodi:docname="restore.svg"
   inkscape:version="0.92.4 (5da689c313, 2019-01-14)">
  <metadata
     id="metadata24">
    <rdf:RDF>
      <cc:Work
         rdf:about="">
        <dc:format>image/svg+xml</dc:format>
        <dc:type
           rdf:resource="http://purl.org/dc/dcmitype/StillImage" />
        <dc:title />
      </cc:Work>
    </rdf:RDF>
  </metadata>
  <defs
     id="defs22" />
  <sodipodi:namedview
     pagecolor="#ffffff"
     bordercolor="#666666"
     borderopacity="1"
     objecttolerance="10"
     gridtolerance="10"
     guidetolerance="10"
     inkscape:pageopacity="0"
     inkscape:pageshadow="2"
     inkscape:window-width="1366"
     inkscape:window-height="709"
     id="namedview20"
     showgrid="true"
     inkscape:zoom="1.4801137"
     inkscape:cx="-36.654382"
     inkscape:cy="11"
     inkscape:window-x="0"
     inkscape:window-y="0"
     inkscape:window-maximized="1"
     inkscape:current-layer="svg4306"
     showguides="true"
     inkscape:guide-bbox="true">
    <inkscape:grid
       type="xygrid"
       id="grid945" />
    <sodipodi:guide
       position="22,18"
       orientation="0,1"
       id="guide829"
       inkscape:locked="false" />
    <sodipodi:guide
       position="3,18"
       orientation="1,0"
       id="guide831"
       inkscape:locked="false" />
    <sodipodi:guide
       position="3,4"
       orientation="0,1"
       id="guide833"
       inkscape:locked="false" />
    <sodipodi:guide
       position="19,18"
       orientation="1,0"
       id="guide835"
       inkscape:locked="false" />
  </sodipodi:namedview>
  <g
     id="hover-center">
    <path
       id="path829"
       d="M 11,0.04296875 C 4.9482896,0.04296875 0.04296875,4.9484238 0.04296875,11 0.04296875,17.051809 4.9482896,21.957031 11,21.957031 17.051736,21.957031 21.957031,17.051809 21.957031,11 21.957031,4.9484238 17.051736,0.04296875 11,0.04296875 Z m 0,2.00000005 c 4.947106,0 8.957031,4.0100566 8.957031,8.9570312 0,4.947165 -4.009925,8.957031 -8.957031,8.957031 C 6.0529155,19.957031 2.0429688,15.947165 2.0429688,11 2.0429688,6.0530254 6.0529155,2.0429688 11,2.0429688 Z m 0,2 C 7.1575415,4.0429687 4.0429688,7.157627 4.0429688,11 c 0,3.842521 3.1145727,6.957031 6.9570312,6.957031 3.842476,0 6.957031,-3.11451 6.957031,-6.957031 0,-3.842373 -3.114555,-6.9570312 -6.957031,-6.9570312 z"
       style="fill:#5beedc;fill-opacity:1;fill-rule:evenodd;stroke:none;stroke-width:0.02563604;enable-background:new"
       inkscape:connector-curvature="0" />
  </g>
  <g
     id="pressed-center"
     transform="translate(22)">
    <path
       id="path873"
       d="M 11,0.04296875 C 4.9482896,0.04296875 0.04296875,4.9484238 0.04296875,11 0.04296875,17.051809 4.9482896,21.957031 11,21.957031 17.051736,21.957031 21.957031,17.051809 21.957031,11 21.957031,4.9484238 17.051736,0.04296875 11,0.04296875 Z"
       style="opacity:0;fill:#5beedc;fill-opacity:0;fill-rule:evenodd;stroke:none;stroke-width:0.02563604;enable-background:new"
       inkscape:connector-curvature="0" />
    <path
       id="path871"
       d="m 11,2.0429688 c -4.9470845,0 -8.9570312,4.0100566 -8.9570312,8.9570312 0,4.947165 4.0099467,8.957031 8.9570312,8.957031 4.947106,0 8.957031,-4.009866 8.957031,-8.957031 0,-4.9469746 -4.009925,-8.9570312 -8.957031,-8.9570312 z m 0,2 C 14.842476,4.0429687 17.957031,7.157627 17.957031,11 17.957031,14.842521 14.842476,17.957031 11,17.957031 7.1575415,17.957031 4.0429688,14.842521 4.0429688,11 4.0429688,7.157627 7.1575415,4.0429687 11,4.0429688 Z"
       style="fill:#5beedc;fill-opacity:1;fill-rule:evenodd;stroke:none;stroke-width:0.02563604;enable-background:new"
       inkscape:connector-curvature="0" />
  </g>
  <g
     style="fill:#ebebeb;fill-opacity:1;enable-background:new"
     id="active-center"
     transform="translate(-22)">
    <path
       id="path873-5"
       d="M 11,0.04296875 C 4.9482896,0.04296875 0.04296875,4.9484238 0.04296875,11 0.04296875,17.051809 4.9482896,21.957031 11,21.957031 17.051736,21.957031 21.957031,17.051809 21.957031,11 21.957031,4.9484238 17.051736,0.04296875 11,0.04296875 Z"
       style="opacity:0;fill:#ebebeb;fill-opacity:1;fill-rule:evenodd;stroke:none;stroke-width:0.02563604;enable-background:new"
       inkscape:connector-curvature="0" />
    <path
       id="path871-6"
       d="m 11,2.0429688 c -4.9470845,0 -8.9570312,4.0100566 -8.9570312,8.9570312 0,4.947165 4.0099467,8.957031 8.9570312,8.957031 4.947106,0 8.957031,-4.009866 8.957031,-8.957031 0,-4.9469746 -4.009925,-8.9570312 -8.957031,-8.9570312 z m 0,2 C 14.842476,4.0429687 17.957031,7.157627 17.957031,11 17.957031,14.842521 14.842476,17.957031 11,17.957031 7.1575415,17.957031 4.0429688,14.842521 4.0429688,11 4.0429688,7.157627 7.1575415,4.0429687 11,4.0429688 Z"
       style="fill:#ebebeb;fill-opacity:1;fill-rule:evenodd;stroke:none;stroke-width:0.02563604;enable-background:new"
       inkscape:connector-curvature="0" />
  </g>
  <g
     style="fill:#333333;fill-opacity:1;enable-background:new"
     id="inactive-center"
     transform="translate(44)">
    <path
       id="path873-9"
       d="M 11,0.04296875 C 4.9482896,0.04296875 0.04296875,4.9484238 0.04296875,11 0.04296875,17.051809 4.9482896,21.957031 11,21.957031 17.051736,21.957031 21.957031,17.051809 21.957031,11 21.957031,4.9484238 17.051736,0.04296875 11,0.04296875 Z"
       style="opacity:0;fill:#333333;fill-opacity:1;fill-rule:evenodd;stroke:none;stroke-width:0.02563604;enable-background:new"
       inkscape:connector-curvature="0" />
    <path
       id="path871-1"
       d="m 11,2.0429688 c -4.9470845,0 -8.9570312,4.0100566 -8.9570312,8.9570312 0,4.947165 4.0099467,8.957031 8.9570312,8.957031 4.947106,0 8.957031,-4.009866 8.957031,-8.957031 0,-4.9469746 -4.009925,-8.9570312 -8.957031,-8.9570312 z m 0,2 C 14.842476,4.0429687 17.957031,7.157627 17.957031,11 17.957031,14.842521 14.842476,17.957031 11,17.957031 7.1575415,17.957031 4.0429688,14.842521 4.0429688,11 4.0429688,7.157627 7.1575415,4.0429687 11,4.0429688 Z"
       style="fill:#333333;fill-opacity:1;fill-rule:evenodd;stroke:none;stroke-width:0.02563604;enable-background:new"
       inkscape:connector-curvature="0" />
  </g>
  <g
     style="fill:#333333;fill-opacity:1;enable-background:new"
     id="deactivated-center"
     transform="translate(66)">
    <path
       id="path873-0"
       d="M 11,0.04296875 C 4.9482896,0.04296875 0.04296875,4.9484238 0.04296875,11 0.04296875,17.051809 4.9482896,21.957031 11,21.957031 17.051736,21.957031 21.957031,17.051809 21.957031,11 21.957031,4.9484238 17.051736,0.04296875 11,0.04296875 Z"
       style="opacity:0;fill:#333333;fill-opacity:1;fill-rule:evenodd;stroke:none;stroke-width:0.02563604;enable-background:new"
       inkscape:connector-curvature="0" />
    <path
       id="path871-9"
       d="m 11,2.0429688 c -4.9470845,0 -8.9570312,4.0100566 -8.9570312,8.9570312 0,4.947165 4.0099467,8.957031 8.9570312,8.957031 4.947106,0 8.957031,-4.009866 8.957031,-8.957031 0,-4.9469746 -4.009925,-8.9570312 -8.957031,-8.9570312 z m 0,2 C 14.842476,4.0429687 17.957031,7.157627 17.957031,11 17.957031,14.842521 14.842476,17.957031 11,17.957031 7.1575415,17.957031 4.0429688,14.842521 4.0429688,11 4.0429688,7.157627 7.1575415,4.0429687 11,4.0429688 Z"
       style="fill:#333333;fill-opacity:1;fill-rule:evenodd;stroke:none;stroke-width:0.02563604;enable-background:new"
       inkscape:connector-curvature="0" />
  </g>
</svg>
