/* XPM */
static char * hide_prelight_xpm[] = {
"32 32 21 1",
" 	c None",
".	c #2F794E",
"+	c #186A3B",
"@	c #287549",
"#	c #4D8C68",
"$	c #659C7C",
"%	c #71A386",
"&	c #1B6C3D",
"*	c #4E8D69",
"=	c #73A589",
"-	c #74A689",
";	c #1A6B3D",
">	c #5D9675",
",	c #277448",
"'	c #4C8B67",
")	c #649B7C",
"!	c #70A386",
"~	c #337C52",
"{	c #257246",
"]	c #4B8B66",
"^	c #5C9675",
"................................",
"++++++++++++++++++++++++++++++++",
"++++++++++++++++++++++++++++++++",
"++++++++++++++++++++++++++++++++",
"++++++++++++++++++++++++++++++++",
"++++++++++++++++++++++++++++++++",
"++++++++++++++++++++++++++++++++",
"++++++++++++++++++++++++++++++++",
"++++++++++++@#$%%$#@++++++++++++",
"++++++++++&*=------=#;++++++++++",
"+++++++++&>---------->;+++++++++",
"+++++++++*------------#+++++++++",
"++++++++@=------------=,++++++++",
"++++++++#--------------'++++++++",
"++++++++$--------------)++++++++",
"++++++++!-~{{{{{{{{{{~-!++++++++",
"++++++++!-~{{{{{{{{{{~-!++++++++",
"++++++++$--------------)++++++++",
"++++++++#--------------]++++++++",
"++++++++@=------------=,++++++++",
"+++++++++#------------#+++++++++",
"+++++++++;^----------^;+++++++++",
"++++++++++;#=------=#;++++++++++",
"++++++++++++,')!!)],++++++++++++",
"++++++++++++++++++++++++++++++++",
"++++++++++++++++++++++++++++++++",
"++++++++++++++++++++++++++++++++",
"++++++++++++++++++++++++++++++++",
"++++++++++++++++++++++++++++++++",
"++++++++++++++++++++++++++++++++",
"++++++++++++++++++++++++++++++++",
"++++++++++++++++++++++++++++++++"};
