/* XPM */
static char * shade_toggled_prelight_xpm[] = {
"32 32 33 1",
" 	c None",
".	c #40A599",
"+	c #2B9B8E",
"@	c #33A194",
"#	c #45B0A4",
"$	c #52B9AD",
"%	c #57BDB1",
"&	c #45AFA3",
"*	c #2C9C8E",
"=	c #47B1A4",
"-	c #5ABFB3",
";	c #59BFB3",
">	c #46B0A3",
",	c #2D9C8F",
"'	c #4EB6AA",
")	c #47B1A5",
"!	c #46AFA3",
"~	c #33A195",
"{	c #42ADA1",
"]	c #2C9B8E",
"^	c #49B2A5",
"/	c #4BB4A7",
"(	c #2C9C8F",
"_	c #41AC9F",
":	c #45AEA2",
"<	c #53B9AD",
"[	c #4AB3A6",
"}	c #58BDB2",
"|	c #44AEA2",
"1	c #58BDB1",
"2	c #57BEB2",
"3	c #32A195",
"4	c #4DB5A9",
"................................",
"++++++++++++++++++++++++++++++++",
"++++++++++++++++++++++++++++++++",
"++++++++++++++++++++++++++++++++",
"++++++++++++++++++++++++++++++++",
"++++++++++++++++++++++++++++++++",
"++++++++++++++++++++++++++++++++",
"++++++++++++++++++++++++++++++++",
"++++++++++++@#$%%$&@++++++++++++",
"++++++++++*=-------;>,++++++++++",
"+++++++++*'----------',+++++++++",
"+++++++++)------------!+++++++++",
"++++++++@--$--------$-;~++++++++",
"++++++++#-{]^------/(_-:++++++++",
"++++++++<-{+([----[(+{-$++++++++",
"++++++++}--|+]^--/(+{--1++++++++",
"++++++++1---|+]^/(+{---2++++++++",
"++++++++<----{+((+{----$++++++++",
"++++++++&-----|++{-----&++++++++",
"++++++++@;-----{{-----;3++++++++",
"+++++++++>------------#+++++++++",
"+++++++++,4----------4(+++++++++",
"++++++++++,!;------;#(++++++++++",
"++++++++++++~:$}}$&3++++++++++++",
"++++++++++++++++++++++++++++++++",
"++++++++++++++++++++++++++++++++",
"++++++++++++++++++++++++++++++++",
"++++++++++++++++++++++++++++++++",
"++++++++++++++++++++++++++++++++",
"++++++++++++++++++++++++++++++++",
"++++++++++++++++++++++++++++++++",
"++++++++++++++++++++++++++++++++"};
