<?xml version="1.0" encoding="UTF-8" standalone="no"?>
<svg
   xmlns:dc="http://purl.org/dc/elements/1.1/"
   xmlns:cc="http://creativecommons.org/ns#"
   xmlns:rdf="http://www.w3.org/1999/02/22-rdf-syntax-ns#"
   xmlns:svg="http://www.w3.org/2000/svg"
   xmlns="http://www.w3.org/2000/svg"
   xmlns:xlink="http://www.w3.org/1999/xlink"
   xmlns:sodipodi="http://sodipodi.sourceforge.net/DTD/sodipodi-0.dtd"
   xmlns:inkscape="http://www.inkscape.org/namespaces/inkscape"
   width="200"
   height="200"
   viewBox="0 0 52.916667 52.916667"
   version="1.1"
   id="svg43"
   sodipodi:docname="logo.svg"
   inkscape:version="0.92.4 (5da689c313, 2019-01-14)">
  <metadata
     id="metadata47">
    <rdf:RDF>
      <cc:Work
         rdf:about="">
        <dc:format>image/svg+xml</dc:format>
        <dc:type
           rdf:resource="http://purl.org/dc/dcmitype/StillImage" />
        <dc:title></dc:title>
      </cc:Work>
    </rdf:RDF>
  </metadata>
  <sodipodi:namedview
     pagecolor="#ffffff"
     bordercolor="#666666"
     borderopacity="1"
     objecttolerance="10"
     gridtolerance="10"
     guidetolerance="10"
     inkscape:pageopacity="0"
     inkscape:pageshadow="2"
     inkscape:window-width="1366"
     inkscape:window-height="707"
     id="namedview45"
     showgrid="false"
     inkscape:zoom="2.54"
     inkscape:cx="100"
     inkscape:cy="100"
     inkscape:window-x="0"
     inkscape:window-y="0"
     inkscape:window-maximized="1"
     inkscape:current-layer="svg43" />
  <defs
     id="defs17">
    <linearGradient
       id="a">
      <stop
         offset="0"
         stop-color="#216778"
         id="stop2" />
      <stop
         offset="1"
         stop-color="#37abc8"
         id="stop4" />
    </linearGradient>
    <linearGradient
       gradientTransform="matrix(2.8818529,0,0,2.8818529,67.763702,6.2389786)"
       xlink:href="#a"
       id="c"
       x1="5.4889998"
       y1="12.112"
       x2="9.1850004"
       y2="1.247"
       gradientUnits="userSpaceOnUse" />
    <filter
       id="e"
       x="-0.054000001"
       width="1.108"
       y="-0.046"
       height="1.091"
       style="color-interpolation-filters:sRGB">
      <feGaussianBlur
         stdDeviation=".131"
         id="feGaussianBlur8" />
    </filter>
    <filter
       id="b"
       x="-0.032000002"
       width="1.0650001"
       y="-0.032000002"
       height="1.064"
       style="color-interpolation-filters:sRGB">
      <feGaussianBlur
         stdDeviation=".131"
         id="feGaussianBlur11" />
    </filter>
    <filter
       id="d"
       x="-0.024"
       width="1.048"
       y="-0.024"
       height="1.048"
       style="color-interpolation-filters:sRGB">
      <feGaussianBlur
         stdDeviation=".131"
         id="feGaussianBlur14" />
    </filter>
    <filter
       id="b-3"
       x="-0.032000002"
       width="1.0650001"
       y="-0.032000002"
       height="1.064"
       style="color-interpolation-filters:sRGB">
      <feGaussianBlur
         stdDeviation=".131"
         id="feGaussianBlur11-6" />
    </filter>
    <filter
       id="d-3"
       x="-0.024"
       width="1.048"
       y="-0.024"
       height="1.048"
       style="color-interpolation-filters:sRGB">
      <feGaussianBlur
         stdDeviation=".131"
         id="feGaussianBlur14-5" />
    </filter>
    <filter
       id="e-6"
       x="-0.054000001"
       width="1.108"
       y="-0.046"
       height="1.091"
       style="color-interpolation-filters:sRGB">
      <feGaussianBlur
         stdDeviation=".131"
         id="feGaussianBlur8-2" />
    </filter>
    <filter
       id="e-6-1"
       x="-0.054000001"
       width="1.108"
       y="-0.046"
       height="1.091"
       style="color-interpolation-filters:sRGB">
      <feGaussianBlur
         stdDeviation=".131"
         id="feGaussianBlur8-2-2" />
    </filter>
    <filter
       id="b-3-7"
       x="-0.032000002"
       width="1.0650001"
       y="-0.032000002"
       height="1.064"
       style="color-interpolation-filters:sRGB">
      <feGaussianBlur
         stdDeviation=".131"
         id="feGaussianBlur11-6-0" />
    </filter>
    <filter
       inkscape:collect="always"
       style="color-interpolation-filters:sRGB"
       id="filter1000"
       x="-0.048079781"
       width="1.0961596"
       y="-0.047920484"
       height="1.0958411">
      <feGaussianBlur
         inkscape:collect="always"
         stdDeviation="0.77398372"
         id="feGaussianBlur1002" />
    </filter>
  </defs>
  <path
     inkscape:connector-curvature="0"
     style="opacity:0.2;fill:#000000;fill-opacity:1;stroke-width:3.27863288;filter:url(#filter1000)"
     d="m 27.96301,7.0766361 a 17.816092,17.947238 0 0 1 1.780298,0.088523 17.816092,17.947238 0 0 1 1.760626,0.2688479 17.816092,17.947238 0 0 1 1.724561,0.445894 17.816092,17.947238 0 0 1 1.672101,0.6131044 17.816092,17.947238 0 0 1 1.603254,0.7835933 17.816092,17.947238 0 0 1 1.518007,0.9344103 17.816092,17.947238 0 0 1 1.419648,1.088506 17.816092,17.947238 0 0 1 1.301614,1.22293 17.816092,17.947238 0 0 1 1.173748,1.344239 17.816092,17.947238 0 0 1 1.03605,1.462271 17.816092,17.947238 0 0 1 0.88523,1.554072 17.816092,17.947238 0 0 1 0.72786,1.639316 17.816092,17.947238 0 0 1 0.56064,1.70489 17.816092,17.947238 0 0 1 0.39344,1.747511 17.816092,17.947238 0 0 1 0.20983,1.780298 17.816092,17.947238 0 0 1 0.0459,1.265551 17.816092,17.947238 0 0 1 -0.0885,1.793412 17.816092,17.947238 0 0 1 -0.26557,1.770462 17.816092,17.947238 0 0 1 -0.43934,1.740955 17.816092,17.947238 0 0 1 -0.0918,0.249176 17.816092,17.947238 0 0 1 -0.0984,0.268848 17.8456,17.8456 0 0 1 -0.29507,0.809822 17.816092,17.947238 0 0 1 -0.12787,0.36065 17.816092,17.947238 0 0 1 -0.42295,0.878673 17.8456,17.8456 0 0 1 -0.10819,0.229505 17.816092,17.947238 0 0 1 -0.24262,0.504908 17.816092,17.947238 0 0 1 -0.92785,1.527845 17.816092,17.947238 0 0 1 -0.16393,0.209833 l 0.17704,0.173767 1.9344,1.934393 0.007,0.0066 c -1.19342,1.596691 -2.60651,3.01634 -4.199923,4.209764 l -0.0131,-0.0098 -1.934395,-1.934395 -0.150817,-0.150815 a 17.816092,17.947238 0 0 1 -0.734412,0.531138 17.816092,17.947238 0 0 1 -1.544238,0.891788 17.816092,17.947238 0 0 1 -1.626201,0.731134 17.816092,17.947238 0 0 1 -1.688496,0.570484 17.816092,17.947238 0 0 1 -1.737677,0.393436 17.816092,17.947238 0 0 1 -0.05902,0.0066 v 2.901589 c -0.98359,0.144261 -1.977017,0.219667 -2.97372,0.219667 a 20.81932,20.81932 0 0 1 -2.97372,-0.216386 v -2.924542 a 17.816092,17.947238 0 0 1 -0.560647,-0.08525 17.816092,17.947238 0 0 1 -1.727839,-0.442616 17.816092,17.947238 0 0 1 -1.672103,-0.613103 17.816092,17.947238 0 0 1 -1.606531,-0.783595 17.816092,17.947238 0 0 1 -1.518007,-0.934411 17.816092,17.947238 0 0 1 -0.31147,-0.239339 l -0.14426,0.144258 -1.934393,1.934396 -0.0098,0.0098 A 20.79637,20.79637 0 0 1 11.301461,37.4762 v -0.0033 l 1.937672,-1.934403 0.180325,-0.180324 a 17.816092,17.947238 0 0 1 -0.449173,-0.636056 17.816092,17.947238 0 0 1 -0.501631,-0.87867 17.816092,17.947238 0 0 1 -0.386878,-0.675401 17.816092,17.947238 0 0 1 -0.308192,-0.69507 17.8456,17.8456 0 0 1 -0.206554,-0.465566 17.816092,17.947238 0 0 1 -0.209832,-0.475402 17.816092,17.947238 0 0 1 -0.154096,-0.462287 17.8456,17.8456 0 0 1 -0.327863,-0.986868 17.816092,17.947238 0 0 1 -0.08197,-0.252455 17.816092,17.947238 0 0 1 -0.05574,-0.262291 17.8456,17.8456 0 0 1 -0.0033,-0.0098 17.8456,17.8456 0 0 1 -0.363928,-1.560629 H 7.3703525 a 20.884893,20.884893 0 0 1 -0.229504,-2.973712 c 0,-0.996705 0.07541,-1.99013 0.219668,-2.973719 h 3.0228995 a 17.8456,17.8456 0 0 1 0.08197,-0.370486 17.816092,17.947238 0 0 1 0.03279,-0.222947 17.816092,17.947238 0 0 1 0.121309,-0.481959 17.8456,17.8456 0 0 1 0.242619,-0.95736 17.816092,17.947238 0 0 1 0.07869,-0.298357 17.816092,17.947238 0 0 1 0.236062,-0.659005 17.8456,17.8456 0 0 1 0.229504,-0.629497 17.816092,17.947238 0 0 1 0.14426,-0.396715 17.816092,17.947238 0 0 1 0.416386,-0.868838 17.8456,17.8456 0 0 1 0.12131,-0.259012 17.816092,17.947238 0 0 1 0.236061,-0.488516 17.816092,17.947238 0 0 1 0.931132,-1.527843 17.816092,17.947238 0 0 1 0.157375,-0.209833 l -0.173768,-0.170489 -1.934393,-1.934393 -0.0098,-0.0098 a 20.81932,20.81932 0 0 1 4.213044,-4.1999283 v 0.00328 l 1.934394,1.9343933 0.150817,0.150817 a 17.816092,17.947238 0 0 1 0.740971,-0.5311381 17.816092,17.947238 0 0 1 1.544236,-0.8950669 17.816092,17.947238 0 0 1 1.626202,-0.7311352 17.816092,17.947238 0 0 1 0.403272,-0.134424 17.816092,17.947238 0 0 1 1.285224,-0.4327795 17.816092,17.947238 0 0 1 0.416387,-0.091802 17.816092,17.947238 0 0 1 0.01311,-0.00328 17.816092,17.947238 0 0 1 1.311453,-0.2950769 17.816092,17.947238 0 0 1 0.373765,-0.045901 17.816092,17.947238 0 0 1 0.236061,-0.032786 17.816092,17.947238 0 0 1 1.154079,-0.1377025 17.816092,17.947238 0 0 1 0.409829,-0.016393 17.816092,17.947238 0 0 1 0.14426,-0.00328 17.816092,17.947238 0 0 1 0.711463,-0.026229 z"
     id="path37-9"
     transform="matrix(1.124573,0,0,1.124573,-3.2959872,-5.9418206)" />
  <path
     inkscape:connector-curvature="0"
     style="fill:#1a1a1a;fill-opacity:1;stroke-width:3.68706059"
     d="m 28.150449,2.0163711 a 20.035492,20.182978 0 0 1 2.002078,0.099553 20.035492,20.182978 0 0 1 1.979946,0.3023389 20.035492,20.182978 0 0 1 1.939401,0.5014411 20.035492,20.182978 0 0 1 1.880403,0.6894804 20.035492,20.182978 0 0 1 1.802971,0.8812072 20.035492,20.182978 0 0 1 1.707107,1.0508128 20.035492,20.182978 0 0 1 1.596499,1.2240997 20.035492,20.182978 0 0 1 1.463761,1.3752769 20.035492,20.182978 0 0 1 1.319961,1.5116896 20.035492,20.182978 0 0 1 1.165117,1.6444293 20.035492,20.182978 0 0 1 0.995503,1.747672 20.035492,20.182978 0 0 1 0.81853,1.843526 20.035492,20.182978 0 0 1 0.630479,1.91727 20.035492,20.182978 0 0 1 0.442451,1.965211 20.035492,20.182978 0 0 1 0.235971,2.002068 20.035492,20.182978 0 0 1 0.0516,1.423212 20.035492,20.182978 0 0 1 -0.0995,2.016822 20.035492,20.182978 0 0 1 -0.29866,1.991012 20.035492,20.182978 0 0 1 -0.494068,1.957825 20.035492,20.182978 0 0 1 -0.103209,0.280216 20.035492,20.182978 0 0 1 -0.110664,0.302348 20.06868,20.06868 0 0 1 -0.331832,0.910702 20.035492,20.182978 0 0 1 -0.143793,0.40557 20.035492,20.182978 0 0 1 -0.475637,0.988133 20.06868,20.06868 0 0 1 -0.121668,0.258095 20.035492,20.182978 0 0 1 -0.272841,0.56781 20.035492,20.182978 0 0 1 -1.043441,1.718172 20.035492,20.182978 0 0 1 -0.184347,0.235973 l 0.199088,0.195411 2.17538,2.175369 0.008,0.0076 c -1.342091,1.795598 -2.931211,3.392094 -4.723118,4.734186 l -0.01472,-0.01098 -2.175367,-2.175368 -0.169603,-0.169602 a 20.035492,20.182978 0 0 1 -0.825902,0.597304 20.035492,20.182978 0 0 1 -1.736606,1.002881 20.035492,20.182978 0 0 1 -1.828783,0.822211 20.035492,20.182978 0 0 1 -1.898837,0.641551 20.035492,20.182978 0 0 1 -1.954143,0.442449 20.035492,20.182978 0 0 1 -0.06635,0.0076 v 3.263048 c -1.106136,0.162213 -2.223316,0.247011 -3.344182,0.247011 a 23.41284,23.41284 0 0 1 -3.34419,-0.24338 v -3.288861 a 20.035492,20.182978 0 0 1 -0.630488,-0.09585 20.035492,20.182978 0 0 1 -1.94308,-0.497754 20.035492,20.182978 0 0 1 -1.880402,-0.689478 20.035492,20.182978 0 0 1 -1.806661,-0.88121 20.035492,20.182978 0 0 1 -1.707108,-1.05081 20.035492,20.182978 0 0 1 -0.35027,-0.269158 l -0.162231,0.16223 -2.175366,2.175368 -0.01098,0.01098 A 23.38703,23.38703 0 0 1 9.413434,36.203046 v -0.0033 l 2.179054,-2.175374 0.202787,-0.202789 A 20.035492,20.182978 0 0 1 11.290135,33.106018 20.035492,20.182978 0 0 1 10.726017,32.117888 20.035492,20.182978 0 0 1 10.29094,31.358355 20.035492,20.182978 0 0 1 9.944358,30.576694 20.06868,20.06868 0 0 1 9.7120718,30.053131 20.035492,20.182978 0 0 1 9.476101,29.518507 20.035492,20.182978 0 0 1 9.3028066,28.99863 20.06868,20.06868 0 0 1 8.9341036,27.888829 20.035492,20.182978 0 0 1 8.8419275,27.604927 20.035492,20.182978 0 0 1 8.7792577,27.309956 20.06868,20.06868 0 0 1 8.7756789,27.298963 20.06868,20.06868 0 0 1 8.3663651,25.543918 H 4.9925288 a 23.486583,23.486583 0 0 1 -0.258094,-3.344151 c 0,-1.120866 0.0848,-2.238048 0.247032,-3.344166 h 3.3994701 a 20.06868,20.06868 0 0 1 0.092179,-0.41664 20.035492,20.182978 0 0 1 0.036876,-0.250717 20.035492,20.182978 0 0 1 0.1364198,-0.541999 20.06868,20.06868 0 0 1 0.2728414,-1.076621 20.035492,20.182978 0 0 1 0.08849,-0.335526 20.035492,20.182978 0 0 1 0.2654675,-0.741095 20.06868,20.06868 0 0 1 0.2580943,-0.707917 20.035492,20.182978 0 0 1 0.1622315,-0.446135 20.035492,20.182978 0 0 1 0.4682586,-0.977069 20.06868,20.06868 0 0 1 0.13642,-0.291281 20.035492,20.182978 0 0 1 0.265468,-0.549372 20.035492,20.182978 0 0 1 1.047126,-1.718167 20.035492,20.182978 0 0 1 0.176975,-0.235973 L 11.592378,10.375326 9.4170086,8.1999617 9.4060218,8.1889746 A 23.41284,23.41284 0 0 1 14.143897,3.4658502 v 0.00368 l 2.175365,2.1753662 0.169606,0.1696041 a 20.035492,20.182978 0 0 1 0.833272,-0.5973022 20.035492,20.182978 0 0 1 1.736606,-1.0065679 20.035492,20.182978 0 0 1 1.828782,-0.8222147 20.035492,20.182978 0 0 1 0.453511,-0.1511696 20.035492,20.182978 0 0 1 1.445325,-0.4866918 20.035492,20.182978 0 0 1 0.468257,-0.1032411 20.035492,20.182978 0 0 1 0.01471,-0.00368 20.035492,20.182978 0 0 1 1.474829,-0.3318354 20.035492,20.182978 0 0 1 0.420326,-0.051621 20.035492,20.182978 0 0 1 0.265463,-0.036866 20.035492,20.182978 0 0 1 1.297848,-0.1548565 20.035492,20.182978 0 0 1 0.46088,-0.018433 20.035492,20.182978 0 0 1 0.162232,-0.00368 20.035492,20.182978 0 0 1 0.800091,-0.029499 z"
     id="path37" />
  <path
     d="m -9.524,41.836667 a 4.84,4.876 0 0 0 -4.842,4.876 4.84,4.876 0 0 0 0.02,0.38 h 8.991 a 4.189,4.219 0 0 1 -4.17,3.84 4.189,4.219 0 0 1 -4.045,-3.14 l -0.632,0.16 a 4.84,4.876 0 0 0 4.677,3.637 4.84,4.876 0 0 0 4.84,-4.877 4.84,4.876 0 0 0 -0.016,-0.33 h -8.997 a 4.189,4.219 0 0 1 4.174,-3.889 4.189,4.219 0 0 1 4.048,3.155 l 0.629,-0.167 a 4.84,4.876 0 0 0 -4.677,-3.645 z"
     id="path31"
     inkscape:connector-curvature="0"
     style="opacity:0.2;filter:url(#b-3-7)"
     transform="matrix(3.6870611,0,0,3.6870611,63.266017,-149.49479)" />
  <path
     d="M 28.150445,4.2212338 A 17.845374,17.978115 0 0 0 10.297694,22.195659 17.845374,17.978115 0 0 0 10.371461,23.59674 H 43.521809 A 15.445104,15.555713 0 0 1 28.146757,37.75505 15.445104,15.555713 0 0 1 13.232595,26.177683 l -2.330226,0.589931 A 17.845374,17.978115 0 0 0 28.146757,40.177453 17.845374,17.978115 0 0 0 45.992129,22.195659 17.845374,17.978115 0 0 0 45.933211,20.97893 H 12.760651 A 15.445104,15.555713 0 0 1 28.150445,6.6436349 15.445104,15.555713 0 0 1 43.075673,18.272624 l 2.319163,-0.615742 A 17.845374,17.978115 0 0 0 28.150445,4.2212338 Z"
     id="path33"
     inkscape:connector-curvature="0"
     style="fill:#ececec;stroke-width:3.68706059" />
  <path
     d="m -9.524,43.282667 a 3.406,3.43 0 0 0 -3.407,3.43 3.406,3.43 0 0 0 3.407,3.432 3.406,3.43 0 0 0 2.41,-1.01 l -0.509,-0.507 a 2.69,2.71 0 0 1 -1.901,0.796 2.69,2.71 0 0 1 -2.692,-2.71 2.69,2.71 0 0 1 2.692,-2.71 2.69,2.71 0 0 1 1.915,0.807 l 0.506,-0.506 a 3.406,3.43 0 0 0 -2.421,-1.022 z"
     id="path39"
     inkscape:connector-curvature="0"
     style="opacity:0.2;filter:url(#e-6-1)"
     transform="matrix(3.6870611,0,0,3.6870611,63.266017,-149.49479)" />
  <path
     d="M 28.198176,9.5527248 A 12.558134,12.646622 0 0 0 15.63636,22.199347 12.558134,12.646622 0 0 0 28.198176,34.845958 12.558134,12.646622 0 0 0 37.083992,31.129405 l -1.876715,-1.873023 a 9.918195,9.9919367 0 0 1 -7.009101,2.934901 9.918195,9.9919367 0 0 1 -9.92557,-9.991936 9.918195,9.9919367 0 0 1 9.92557,-9.991945 9.918195,9.9919367 0 0 1 7.060724,2.975467 l 1.865655,-1.865658 A 12.558134,12.646622 0 0 0 28.198176,9.5527248 Z"
     id="path41"
     inkscape:connector-curvature="0"
     style="fill:#808080;stroke-width:3.68706059" />
</svg>
