/* XPM */
static char * stick_prelight_xpm[] = {
"32 32 40 1",
" 	c None",
".	c #40A599",
"+	c #2B9B8E",
"@	c #33A194",
"#	c #45B0A4",
"$	c #52B9AD",
"%	c #57BDB1",
"&	c #45AFA3",
"*	c #2C9C8E",
"=	c #47B1A4",
"-	c #5ABFB3",
";	c #59BFB3",
">	c #46B0A3",
",	c #2D9C8F",
"'	c #4EB6AA",
")	c #58BDB1",
"!	c #47B1A5",
"~	c #45AFA2",
"{	c #2F9E91",
"]	c #319F93",
"^	c #48B2A5",
"/	c #46AFA3",
"(	c #42ADA1",
"_	c #48B1A5",
":	c #33A195",
"<	c #58BEB2",
"[	c #2C9C8F",
"}	c #45AEA2",
"|	c #53B9AD",
"1	c #2E9E91",
"2	c #3BA89B",
"3	c #4DB5A9",
"4	c #2F9D91",
"5	c #3BA79B",
"6	c #43ADA1",
"7	c #57BEB2",
"8	c #4FB7AB",
"9	c #32A195",
"0	c #3EA99E",
"a	c #58BDB2",
"................................",
"++++++++++++++++++++++++++++++++",
"++++++++++++++++++++++++++++++++",
"++++++++++++++++++++++++++++++++",
"++++++++++++++++++++++++++++++++",
"++++++++++++++++++++++++++++++++",
"++++++++++++++++++++++++++++++++",
"++++++++++++++++++++++++++++++++",
"++++++++++++@#$%%$&@++++++++++++",
"++++++++++*=-------;>,++++++++++",
"+++++++++*'------)---',+++++++++",
"+++++++++!----;~{+]^--/+++++++++",
"++++++++@-----(+++++_-;:++++++++",
"++++++++&----<[+++++{--}++++++++",
"++++++++|----$+++++++%-$++++++++",
"++++++++)----%[+++++1--)++++++++",
"++++++++)-----2+++++&--)++++++++",
"++++++++|----345[+[6---$++++++++",
"++++++++&---343-7$)----}++++++++",
"++++++++@;-843--------;9++++++++",
"+++++++++>-08---------#+++++++++",
"+++++++++,3----------3[+++++++++",
"++++++++++,/;------;#[++++++++++",
"++++++++++++:}$aa$&9++++++++++++",
"++++++++++++++++++++++++++++++++",
"++++++++++++++++++++++++++++++++",
"++++++++++++++++++++++++++++++++",
"++++++++++++++++++++++++++++++++",
"++++++++++++++++++++++++++++++++",
"++++++++++++++++++++++++++++++++",
"++++++++++++++++++++++++++++++++",
"++++++++++++++++++++++++++++++++"};
