/* XPM */
static char * hide_active_xpm[] = {
"32 32 18 1",
" 	c None",
".	c #40A599",
"+	c #2B9B8E",
"@	c #3AA296",
"#	c #5BB2A8",
"$	c #72BCB4",
"%	c #7CC1B9",
"&	c #2D9C8F",
"*	c #5DB3A9",
"=	c #7FC3BB",
"-	c #80C3BB",
";	c #5CB2A8",
">	c #6AB9B0",
",	c #39A296",
"'	c #5AB1A7",
")	c #71BCB3",
"!	c #7BC1B9",
"~	c #69B8AF",
"................................",
"++++++++++++++++++++++++++++++++",
"++++++++++++++++++++++++++++++++",
"++++++++++++++++++++++++++++++++",
"++++++++++++++++++++++++++++++++",
"++++++++++++++++++++++++++++++++",
"++++++++++++++++++++++++++++++++",
"++++++++++++++++++++++++++++++++",
"++++++++++++@#$%%$#@++++++++++++",
"++++++++++&*=------=;&++++++++++",
"+++++++++&>---------->&+++++++++",
"+++++++++*------------;+++++++++",
"++++++++@=------------=,++++++++",
"++++++++#--------------'++++++++",
"++++++++$--------------)++++++++",
"++++++++%--------------%++++++++",
"++++++++%--------------!++++++++",
"++++++++$--------------)++++++++",
"++++++++#--------------'++++++++",
"++++++++@=------------=,++++++++",
"+++++++++;------------#+++++++++",
"+++++++++&~----------~&+++++++++",
"++++++++++&;=------=#&++++++++++",
"++++++++++++,')%%)',++++++++++++",
"++++++++++++++++++++++++++++++++",
"++++++++++++++++++++++++++++++++",
"++++++++++++++++++++++++++++++++",
"++++++++++++++++++++++++++++++++",
"++++++++++++++++++++++++++++++++",
"++++++++++++++++++++++++++++++++",
"++++++++++++++++++++++++++++++++",
"++++++++++++++++++++++++++++++++"};
