<?xml version="1.0" encoding="UTF-8" standalone="no"?>
<!-- Created with Inkscape (http://www.inkscape.org/) -->

<svg
   xmlns:dc="http://purl.org/dc/elements/1.1/"
   xmlns:cc="http://creativecommons.org/ns#"
   xmlns:rdf="http://www.w3.org/1999/02/22-rdf-syntax-ns#"
   xmlns:svg="http://www.w3.org/2000/svg"
   xmlns="http://www.w3.org/2000/svg"
   xmlns:xlink="http://www.w3.org/1999/xlink"
   xmlns:sodipodi="http://sodipodi.sourceforge.net/DTD/sodipodi-0.dtd"
   xmlns:inkscape="http://www.inkscape.org/namespaces/inkscape"
   width="48"
   height="48"
   viewBox="0 0 12.7 12.7"
   version="1.1"
   id="svg882"
   inkscape:version="0.92.4 (5da689c313, 2019-01-14)"
   sodipodi:docname="PlasmaThemesLogo.svg">
  <defs
     id="defs876">
    <linearGradient
       inkscape:collect="always"
       id="linearGradient848">
      <stop
         style="stop-color:#204760;stop-opacity:1;"
         offset="0"
         id="stop844" />
      <stop
         style="stop-color:#2c89a0;stop-opacity:1"
         offset="1"
         id="stop846" />
    </linearGradient>
    <linearGradient
       gradientTransform="matrix(0.67285476,0,0,0.67285476,2.4066432,286.0416)"
       inkscape:collect="always"
       xlink:href="#linearGradient848"
       id="linearGradient821-9"
       x1="4.3866181"
       y1="13.293493"
       x2="6.4211688"
       y2="4.4840708"
       gradientUnits="userSpaceOnUse" />
    <filter
       inkscape:collect="always"
       style="color-interpolation-filters:sRGB"
       id="filter895"
       x="-0.024079541"
       width="1.0481591"
       y="-0.023920983"
       height="1.047842">
      <feGaussianBlur
         inkscape:collect="always"
         stdDeviation="0.056322155"
         id="feGaussianBlur897" />
    </filter>
    <filter
       inkscape:collect="always"
       style="color-interpolation-filters:sRGB"
       id="filter907"
       x="-0.024087113"
       width="1.0481742"
       y="-0.023913515"
       height="1.047827">
      <feGaussianBlur
         inkscape:collect="always"
         stdDeviation="0.093599194"
         id="feGaussianBlur909" />
    </filter>
    <filter
       inkscape:collect="always"
       style="color-interpolation-filters:sRGB"
       id="filter923"
       x="-0.015786999"
       width="1.031574"
       y="-0.050024833"
       height="1.1000497">
      <feGaussianBlur
         inkscape:collect="always"
         stdDeviation="0.030450324"
         id="feGaussianBlur925" />
    </filter>
    <filter
       inkscape:collect="always"
       style="color-interpolation-filters:sRGB"
       id="filter954"
       x="-0.024020659"
       width="1.0480413"
       y="-0.023979376"
       height="1.0479588">
      <feGaussianBlur
         inkscape:collect="always"
         stdDeviation="0.12288601"
         id="feGaussianBlur956" />
    </filter>
    <filter
       inkscape:collect="always"
       style="color-interpolation-filters:sRGB"
       id="filter1049"
       x="-0.024027864"
       width="1.0480557"
       y="-0.023972201"
       height="1.0479444">
      <feGaussianBlur
         inkscape:collect="always"
         stdDeviation="0.10001712"
         id="feGaussianBlur1051" />
    </filter>
    <linearGradient
       gradientTransform="matrix(0.9923077,0,0,0.9923077,0.03670589,2.1993672)"
       inkscape:collect="always"
       xlink:href="#linearGradient848"
       id="linearGradient850"
       x1="5.4105339"
       y1="283.54211"
       x2="6.3324957"
       y2="297.81021"
       gradientUnits="userSpaceOnUse" />
  </defs>
  <sodipodi:namedview
     id="base"
     pagecolor="#ffffff"
     bordercolor="#666666"
     borderopacity="1.0"
     inkscape:pageopacity="0.0"
     inkscape:pageshadow="2"
     inkscape:zoom="2.703125"
     inkscape:cx="24"
     inkscape:cy="24"
     inkscape:document-units="mm"
     inkscape:current-layer="layer1"
     showgrid="false"
     units="px"
     showguides="true"
     inkscape:guide-bbox="true"
     inkscape:snap-bbox="true"
     inkscape:snap-smooth-nodes="true"
     inkscape:window-width="1366"
     inkscape:window-height="707"
     inkscape:window-x="0"
     inkscape:window-y="0"
     inkscape:window-maximized="1" />
  <metadata
     id="metadata879">
    <rdf:RDF>
      <cc:Work
         rdf:about="">
        <dc:format>image/svg+xml</dc:format>
        <dc:type
           rdf:resource="http://purl.org/dc/dcmitype/StillImage" />
        <dc:title></dc:title>
      </cc:Work>
    </rdf:RDF>
  </metadata>
  <g
     inkscape:label="Capa 1"
     inkscape:groupmode="layer"
     id="layer1"
     transform="translate(0,-284.29998)">
    <rect
       style="opacity:1;fill:url(#linearGradient850);fill-opacity:1;fill-rule:evenodd;stroke:none;stroke-width:0.15647513;stroke-linejoin:miter;stroke-miterlimit:4;stroke-dasharray:none;stroke-opacity:1"
       id="rect842"
       width="12.578025"
       height="12.626588"
       x="0.060987771"
       y="284.3367"
       ry="1.3001862" />
    <path
       style="opacity:0.3;fill:#1c1c1c;fill-opacity:1;stroke:none;stroke-width:0.12390401;filter:url(#filter1049)"
       d="m 6.8783748,285.8638 v 0.005 a 4.6378353,4.6725615 0 0 0 -1.8029905,0.36743 l 0.0016,0.002 a 4.6702263,4.6702263 0 0 0 -0.4263306,0.20154 l -0.0052,-0.006 -0.4883428,-0.48835 c -0.7785458,0.45906 -1.4276536,1.10815 -1.8867055,1.88672 l 0.3477819,0.34828 0.146244,0.14573 a 4.6702263,4.6702263 0 0 0 -0.3653519,0.8785 h -0.0088 -0.6909137 c -0.11384,0.4357 -0.171866,0.88398 -0.173116,1.33429 0.0027,0.45049 0.06157,0.89875 0.1767329,1.33428 h 0.6898809 0.0078 a 4.6702263,4.6702263 0 0 0 0.3638019,0.87799 l -0.146244,0.14624 -0.3477819,0.34727 c 0.224183,0.38021 0.4967699,0.72722 0.8046018,1.03869 l -5.17e-4,5.2e-4 c 0.3225019,0.32633 0.6842768,0.61369 1.0826207,0.84853 l 0.3477829,-0.34779 0.1462439,-0.14572 a 4.6702263,4.6702263 0 0 0 0.8784985,0.36483 v 0.20619 0.49351 c 0.4356919,0.11383 0.8839688,0.17237 1.3342856,0.17363 0.4503159,-0.002 0.8985927,-0.0599 1.3342846,-0.17363 v -0.49351 -0.20619 a 4.6702263,4.6702263 0 0 0 0.8779828,-0.36483 l 0.1457269,0.14572 0.3482999,0.34779 c 0.7785659,-0.45903 1.4276559,-1.10866 1.8867059,-1.88723 l -0.3483,-0.34726 -0.145727,-0.14625 a 4.6702263,4.6702263 0 0 0 0.24236,-0.53692 l 0.0067,-0.0129 a 4.6378353,4.6725615 0 0 0 0.304374,-1.66088 4.6378353,4.6725615 0 0 0 -1.342555,-3.28092 l -0.0832,0.0832 a 4.5296904,4.5636066 0 0 0 -0.0016,-0.003 l 0.08527,-0.0853 a 4.6378353,4.6725615 0 0 0 -3.2959307,-1.39113 z"
       id="path1048-3-7"
       inkscape:connector-curvature="0" />
    <g
       id="g863">
      <path
         inkscape:connector-curvature="0"
         id="path1048-3"
         d="m 6.6779517,285.96309 a 4.3091043,4.3404034 0 0 1 0.4302681,0.0217 4.3091043,4.3404034 0 0 1 0.4257601,0.0648 4.3091043,4.3404034 0 0 1 0.4171559,0.10736 4.3091043,4.3404034 0 0 1 0.404861,0.14877 4.3091043,4.3404034 0 0 1 0.387652,0.18894 4.3091043,4.3404034 0 0 1 0.3671615,0.22659 4.3091043,4.3404034 0 0 1 0.3429861,0.26266 4.3091043,4.3404034 0 0 1 0.3151204,0.29583 4.3091043,4.3404034 0 0 1 0.2839762,0.3258 4.3091043,4.3404034 0 0 1 0.250783,0.35323 4.3091043,4.3404034 0 0 1 0.214316,0.37615 4.3091043,4.3404034 0 0 1 0.175793,0.39628 4.3091043,4.3404034 0 0 1 0.135638,0.41182 4.3091043,4.3404034 0 0 1 0.09425,0.42331 4.3091043,4.3404034 0 0 1 0.05162,0.4307 4.3091043,4.3404034 0 0 1 0.01109,0.3061 4.3091043,4.3404034 0 0 1 -0.0217,0.43314 4.3091043,4.3404034 0 0 1 -0.06435,0.42904 4.3091043,4.3404034 0 0 1 -0.106133,0.4204 4.3091043,4.3404034 0 0 1 -0.02215,0.0607 4.3091043,4.3404034 0 0 1 -0.02334,0.0646 4.3159674,4.3159674 0 0 1 -0.0713,0.19587 4.3091043,4.3404034 0 0 1 -0.03112,0.0863 4.3091043,4.3404034 0 0 1 -0.102443,0.21349 4.3159674,4.3159674 0 0 1 -0.02663,0.0552 4.3091043,4.3404034 0 0 1 -0.05816,0.12174 4.3091043,4.3404034 0 0 1 -0.224972,0.37004 4.3091043,4.3404034 0 0 1 -0.03852,0.0512 l 0.04181,0.0417 0.467967,0.46801 0.0015,7.9e-4 c -0.288401,0.3865 -0.630068,0.72951 -1.0158439,1.01874 l -0.00281,-0.003 -0.4679655,-0.468 -0.03647,-0.036 a 4.3091043,4.3404034 0 0 1 -0.1778454,0.12828 4.3091043,4.3404034 0 0 1 -0.3733086,0.21597 4.3091043,4.3404034 0 0 1 -0.3933882,0.17706 4.3091043,4.3404034 0 0 1 -0.4085492,0.13722 4.3091043,4.3404034 0 0 1 -0.4204341,0.0951 4.3091043,4.3404034 0 0 1 -0.01393,0.002 v 0.0369 0.66263 0.003 c -0.2381337,0.0349 -0.4778639,0.0531 -0.719163,0.0533 -0.2412974,-3.3e-4 -0.4810213,-0.0183 -0.7191614,-0.0532 v -0.003 -0.66341 -0.041 a 4.3091043,4.3404034 0 0 1 -0.1360731,-0.0204 4.3091043,4.3404034 0 0 1 -0.417566,-0.10697 4.3091043,4.3404034 0 0 1 -0.4044513,-0.14877 4.3091043,4.3404034 0 0 1 -0.3880612,-0.18887 4.3091043,4.3404034 0 0 1 -0.367163,-0.22666 4.3091043,4.3404034 0 0 1 -0.07581,-0.0577 l -0.034834,0.0349 -0.4675563,0.46802 -0.00285,0.003 C 3.2778521,294.04531 2.935954,293.7022 2.6477417,293.31565 l 7.899e-4,-7.9e-4 0.4683798,-0.46755 0.043447,-0.0437 a 4.3091043,4.3404034 0 0 1 -0.1089952,-0.15319 4.3091043,4.3404034 0 0 1 -0.1208836,-0.21268 4.3091043,4.3404034 0 0 1 -0.09343,-0.16352 4.3091043,4.3404034 0 0 1 -0.074575,-0.16799 4.3159674,4.3159674 0 0 1 -0.050395,-0.1131 4.3091043,4.3404034 0 0 1 -0.050815,-0.11475 4.3091043,4.3404034 0 0 1 -0.036885,-0.11188 4.3159674,4.3159674 0 0 1 -0.079083,-0.23888 4.3091043,4.3404034 0 0 1 -0.020075,-0.0609 4.3091043,4.3404034 0 0 1 -0.01393,-0.0627 4.3159674,4.3159674 0 0 1 -7.923e-4,-0.003 4.3159674,4.3159674 0 0 1 -0.087693,-0.37742 H 2.3610224 1.699638 1.6971742 c -0.035104,-0.23768 -0.054446,-0.47827 -0.055314,-0.71916 3.624e-4,-0.2413 0.018541,-0.48104 0.05327,-0.71917 h 0.00326 0.6626136 0.06515 a 4.3159674,4.3159674 0 0 1 0.01967,-0.0898 4.3091043,4.3404034 0 0 1 0.00813,-0.0538 4.3091043,4.3404034 0 0 1 0.02951,-0.11679 4.3159674,4.3159674 0 0 1 0.058603,-0.23154 4.3091043,4.3404034 0 0 1 0.01843,-0.0724 4.3091043,4.3404034 0 0 1 0.057785,-0.15945 4.3159674,4.3159674 0 0 1 0.054915,-0.1524 4.3091043,4.3404034 0 0 1 0.034833,-0.0959 4.3091043,4.3404034 0 0 1 0.1012158,-0.21023 4.3159674,4.3159674 0 0 1 0.029509,-0.0622 4.3091043,4.3404034 0 0 1 0.056958,-0.11804 4.3091043,4.3404034 0 0 1 0.2249691,-0.37002 4.3091043,4.3404034 0 0 1 0.0377,-0.0508 l -0.04139,-0.0415 -0.467968,-0.46754 -0.00245,-0.003 c 0.289235,-0.38573 0.632187,-0.72803 1.0187104,-1.01623 l 7.909e-4,8e-4 0.4679671,0.46801 0.036055,0.036 a 4.3091043,4.3404034 0 0 1 0.178663,-0.12871 4.3091043,4.3404034 0 0 1 0.3737195,-0.2159 4.3091043,4.3404034 0 0 1 0.3933857,-0.17707 4.3091043,4.3404034 0 0 1 0.097528,-0.0329 4.3091043,4.3404034 0 0 1 0.3110233,-0.10406 4.3091043,4.3404034 0 0 1 0.1003947,-0.0224 4.3091043,4.3404034 0 0 1 0.00335,-8e-4 4.3091043,4.3404034 0 0 1 0.3167595,-0.0719 4.3091043,4.3404034 0 0 1 0.090562,-0.0113 4.3091043,4.3404034 0 0 1 0.056958,-0.008 4.3091043,4.3404034 0 0 1 0.2798787,-0.034 4.3091043,4.3404034 0 0 1 0.098757,-0.004 4.3091043,4.3404034 0 0 1 0.034833,-8e-4 4.3091043,4.3404034 0 0 1 0.1721081,-0.007 z"
         style="fill:#1c1c1c;fill-opacity:1;stroke:none;stroke-width:0.12390405" />
      <path
         inkscape:connector-curvature="0"
         id="path1666"
         d="m 3.2033621,293.83507 c 0.1664325,0.16583 0.3079589,0.35655 0.496517,0.49777 l 0.00285,-0.003 0.4673585,-0.46777 0.034905,-0.0349 a 4.3091043,4.3404033 0 0 0 0.07557,0.0573 4.3091043,4.3404033 0 0 0 0.3671515,0.2267 4.3091043,4.3404033 0 0 0 0.388096,0.18891 4.3091043,4.3404033 0 0 0 0.4045243,0.14867 4.3091043,4.3404033 0 0 0 0.4176654,0.10719 4.3091043,4.3404033 0 0 0 0.1359365,0.0204 v 0.0407 0.66366 0.003 c 0.238139,0.0348 0.47781,0.0532 0.7191074,0.0534 0.2412991,-3.2e-4 0.4813846,-0.0188 0.7195181,-0.0537 v -0.003 -0.66285 -0.037 a 4.3091043,4.3404033 0 0 0 0.01355,-0.002 4.3091043,4.3404033 0 0 0 0.42054,-0.0953 4.3091043,4.3404033 0 0 0 0.408631,-0.13716 4.3091043,4.3404033 0 0 0 0.393435,-0.17701 4.3091043,4.3404033 0 0 0 0.3733119,-0.21603 4.3091043,4.3404033 0 0 0 0.1778261,-0.12853 l 0.03655,0.0365 0.4677682,0.46777 0.0029,0.003 c 0.385775,-0.28922 0.727219,-0.63242 1.015621,-1.0189 l -0.0016,-8e-4 -0.46777,-0.46775 -0.0419,-0.0417 a 4.3091043,4.3404033 0 0 0 0.03862,-0.0511 4.3091043,4.3404033 0 0 0 0.225056,-0.37001 4.3091043,4.3404033 0 0 0 0.05791,-0.12157 4.3159675,4.3159675 0 0 0 0.02669,-0.0553 4.3091043,4.3404033 0 0 0 0.102671,-0.21357 4.3091043,4.3404033 0 0 0 0.03081,-0.0861 4.3159675,4.3159675 0 0 0 0.07147,-0.19589 4.3091043,4.3404033 0 0 0 0.0234,-0.0646 4.3091043,4.3404033 0 0 0 0.02217,-0.0609 4.3091043,4.3404033 0 0 0 0.105956,-0.42011 4.3091043,4.3404033 0 0 0 0.06448,-0.42916 4.3091043,4.3404033 0 0 0 0.02177,-0.43328 4.3091043,4.3404033 0 0 0 -0.0111,-0.30595 4.3091043,4.3404033 0 0 0 -0.05176,-0.43083 4.3091043,4.3404033 0 0 0 -0.09405,-0.4234 4.3091043,4.3404033 0 0 0 -0.135935,-0.41153 4.3091043,4.3404033 0 0 0 -0.175774,-0.39628 4.3091043,4.3404033 0 0 0 -0.214376,-0.3762 4.3091043,4.3404033 0 0 0 -0.250517,-0.35317 4.3091043,4.3404033 0 0 0 -0.2841949,-0.32611 4.3091043,4.3404033 0 0 0 -0.022994,-0.0219 z"
         style="fill:#ebebeb;fill-opacity:1;stroke:none;stroke-width:0.12390405" />
      <path
         transform="matrix(0.794722,0,0,0.794722,1.3035382,59.663475)"
         id="path1671-3"
         d="m 4.6194157,292.69883 a 3.280551,3.3043794 0 0 0 2.3083861,0.95859 3.280551,3.3043794 0 0 0 2.3207888,-0.97203 l -0.489376,-0.48886 a 2.5917651,2.6105905 0 0 1 -1.8314128,0.76688 2.5917651,2.6105905 0 0 1 -1.8195271,-0.75344 z"
         style="opacity:0.5;fill:#1a1a1a;fill-opacity:1;stroke:none;stroke-width:0.09233435;filter:url(#filter923)"
         inkscape:connector-curvature="0" />
      <path
         transform="matrix(0.794722,0,0,0.794722,1.3035382,59.663475)"
         inkscape:connector-curvature="0"
         id="path1543-5"
         d="m 6.9032265,285.68027 a 4.6625243,4.6963912 0 0 0 -4.663533,4.69639 4.6625243,4.6963912 0 0 0 0.018414,0.36586 h 0.6291714 8.0323861 a 4.0345617,4.0638661 0 0 1 -4.0159435,3.69887 4.0345617,4.0638661 0 0 1 -3.8964817,-3.02491 l -0.6087628,0.1548 a 4.6625243,4.6963912 0 0 0 4.5047465,3.50276 4.6625243,4.6963912 0 0 0 4.6625385,-4.69738 4.6625243,4.6963912 0 0 0 -0.01593,-0.31757 H 10.923647 2.8832943 a 4.0345617,4.0638661 0 0 1 4.0204252,-3.74616 4.0345617,4.0638661 0 0 1 3.8994685,3.03884 l 0.60528,-0.16128 a 4.6625243,4.6963912 0 0 0 -4.5052435,-3.51022 z"
         style="opacity:0.5;fill:#1a1a1a;fill-opacity:1;stroke:none;stroke-width:0.13123132;filter:url(#filter907)" />
      <path
         inkscape:connector-curvature="0"
         id="path1543"
         d="m 6.6924489,286.5832 a 3.7054107,3.7323251 0 0 0 -3.7062117,3.73229 3.7054107,3.7323251 0 0 0 0.014634,0.29076 h 0.5000162 6.383513 a 3.2063546,3.2296435 0 0 1 -3.1915578,2.93957 3.2063546,3.2296435 0 0 1 -3.0966196,-2.40396 l -0.4837973,0.12305 a 3.7054107,3.7323251 0 0 0 3.5800209,2.78371 3.7054107,3.7323251 0 0 0 3.7054224,-3.73313 3.7054107,3.7323251 0 0 0 -0.01268,-0.25237 H 9.8875669 3.4977206 a 3.2063546,3.2296435 0 0 1 3.1951203,-2.97716 3.2063546,3.2296435 0 0 1 3.0989931,2.41504 l 0.481029,-0.12818 A 3.7054107,3.7323251 0 0 0 6.6924474,286.5832 Z"
         style="fill:url(#linearGradient821-9);fill-opacity:1;stroke:none;stroke-width:0.1042924" />
      <path
         transform="matrix(0.794722,0,0,0.794722,1.3035382,59.663475)"
         inkscape:connector-curvature="0"
         id="path1048-2"
         d="m 6.7892966,284.49758 a 5.6997186,5.7423953 0 0 0 -2.2158961,0.45114 l 0.00144,0.002 a 5.7395254,5.7395254 0 0 0 -0.5235867,0.24792 l -0.00629,-0.006 -0.6004002,-0.6004 c -0.9568029,0.56418 -1.754318,1.36167 -2.3184744,2.31851 l 0.4273312,0.42782 0.1793914,0.17936 A 5.7395254,5.7395254 0 0 0 1.284088,288.59728 H 1.272858 0.42402939 c -0.13990608,0.53545 -0.21139813,1.08634 -0.21293455,1.63977 0.003262,0.55364 0.0762603,1.10459 0.21779666,1.63983 h 0.8473686 0.00968 a 5.7395254,5.7395254 0 0 0 0.4467765,1.07923 l -0.1793911,0.17941 -0.4273312,0.42734 c 0.5641541,0.95681 1.362134,1.75483 2.3189619,2.31895 l 0.4273301,-0.42734 0.1793911,-0.17942 a 5.7395254,5.7395254 0 0 0 1.0792645,0.44876 v 0.25278 0.60674 c 0.5354493,0.13987 1.0863808,0.21192 1.639803,0.21342 0.5534202,-0.002 1.1043538,-0.0736 1.639802,-0.21342 v -0.60674 -0.25278 a 5.7395254,5.7395254 0 0 0 1.0792638,-0.44876 l 0.1793922,0.17942 0.4278161,0.42734 c 0.956829,-0.56413 1.754329,-1.36214 2.318482,-2.31895 l -0.42782,-0.42734 -0.179392,-0.17941 a 5.7395254,5.7395254 0 0 0 0.298012,-0.66018 l 0.0085,-0.0154 a 5.6997186,5.7423953 0 0 0 0.374326,-2.04138 5.6997186,5.7423953 0 0 0 -5.6996857,-5.74147 z m -0.01798,0.58968 a 5.1122513,5.1493841 0 0 1 0.5104638,0.0258 5.1122513,5.1493841 0 0 1 0.5051154,0.0773 5.1122513,5.1493841 0 0 1 0.4949062,0.12742 5.1122513,5.1493841 0 0 1 0.4803205,0.17643 5.1122513,5.1493841 0 0 1 0.459903,0.22413 5.1122513,5.1493841 0 0 1 0.4355952,0.26885 5.1122513,5.1493841 0 0 1 0.4069153,0.31161 5.1122513,5.1493841 0 0 1 0.373852,0.35105 5.1122513,5.1493841 0 0 1 0.336903,0.38648 5.1122513,5.1493841 0 0 1 0.297527,0.41905 5.1122513,5.1493841 0 0 1 0.254261,0.44626 5.1122513,5.1493841 0 0 1 0.20856,0.47012 5.1122513,5.1493841 0 0 1 0.16092,0.48861 5.1122513,5.1493841 0 0 1 0.111816,0.50219 5.1122513,5.1493841 0 0 1 0.06128,0.51097 5.1122513,5.1493841 0 0 1 0.01313,0.36313 5.1122513,5.1493841 0 0 1 -0.02578,0.51389 5.1122513,5.1493841 0 0 1 -0.07634,0.50898 5.1122513,5.1493841 0 0 1 -0.125914,0.49882 5.1122513,5.1493841 0 0 1 -0.02628,0.0719 5.1122513,5.1493841 0 0 1 -0.02772,0.0768 5.1203931,5.1203931 0 0 1 -0.08457,0.23236 5.1122513,5.1493841 0 0 1 -0.03693,0.10257 5.1122513,5.1493841 0 0 1 -0.121537,0.25333 5.1203931,5.1203931 0 0 1 -0.03157,0.0654 5.1122513,5.1493841 0 0 1 -0.06906,0.14437 5.1122513,5.1493841 0 0 1 -0.266901,0.43898 5.1122513,5.1493841 0 0 1 -0.04572,0.0605 l 0.04957,0.0495 0.55519,0.55519 0.002,9.4e-4 c -0.342158,0.45853 -0.747508,0.86548 -1.205182,1.20858 l -0.0034,-0.003 -0.5551908,-0.55518 -0.043268,-0.0426 a 5.1122513,5.1493841 0 0 1 -0.2109905,0.15214 5.1122513,5.1493841 0 0 1 -0.4428881,0.2562 5.1122513,5.1493841 0 0 1 -0.4667094,0.21 5.1122513,5.1493841 0 0 1 -0.4846969,0.1629 5.1122513,5.1493841 0 0 1 -0.4987956,0.11279 5.1122513,5.1493841 0 0 1 -0.016524,0.002 v 0.0436 0.7861 0.003 c -0.2825179,0.0411 -0.5669297,0.0629 -0.853202,0.0632 -0.2862724,-4.2e-4 -0.5706773,-0.0214 -0.8532031,-0.063 v -0.003 -0.78709 -0.0486 a 5.1122513,5.1493841 0 0 1 -0.1614346,-0.0242 5.1122513,5.1493841 0 0 1 -0.4953938,-0.12692 5.1122513,5.1493841 0 0 1 -0.4798347,-0.17643 5.1122513,5.1493841 0 0 1 -0.4603885,-0.22412 5.1122513,5.1493841 0 0 1 -0.4355959,-0.26885 5.1122513,5.1493841 0 0 1 -0.089931,-0.0684 l -0.041324,0.0411 -0.5547019,0.55518 -0.00338,0.003 c -0.457642,-0.34297 -0.8632644,-0.75004 -1.2051953,-1.20863 l 9.381e-4,-9.4e-4 0.5556768,-0.5547 0.051537,-0.052 a 5.1122513,5.1493841 0 0 1 -0.1293092,-0.18174 5.1122513,5.1493841 0 0 1 -0.1434154,-0.25232 5.1122513,5.1493841 0 0 1 -0.1108425,-0.19398 5.1122513,5.1493841 0 0 1 -0.088485,-0.19935 5.1203931,5.1203931 0 0 1 -0.059795,-0.13414 5.1122513,5.1493841 0 0 1 -0.060284,-0.13614 5.1122513,5.1493841 0 0 1 -0.043759,-0.1327 5.1203931,5.1203931 0 0 1 -0.093829,-0.28343 5.1122513,5.1493841 0 0 1 -0.023815,-0.0723 5.1122513,5.1493841 0 0 1 -0.016525,-0.0744 5.1203931,5.1203931 0 0 1 -9.412e-4,-0.003 5.1203931,5.1203931 0 0 1 -0.1040371,-0.44776 h -0.073406 -0.78465462 -0.002958 c -0.0416368,-0.28198 -0.064597,-0.56737 -0.0656274,-0.85317 4.2896e-4,-0.28627 0.022001,-0.57068 0.0632,-0.85324 h 0.00388 0.78611352 0.077299 a 5.1203931,5.1203931 0 0 1 0.023336,-0.10643 5.1122513,5.1493841 0 0 1 0.00968,-0.0637 5.1122513,5.1493841 0 0 1 0.035012,-0.13856 5.1203931,5.1203931 0 0 1 0.069519,-0.27468 5.1122513,5.1493841 0 0 1 0.021869,-0.0857 5.1122513,5.1493841 0 0 1 0.068541,-0.18911 5.1203931,5.1203931 0 0 1 0.065149,-0.18085 5.1122513,5.1493841 0 0 1 0.041322,-0.11377 5.1122513,5.1493841 0 0 1 0.1200804,-0.24941 5.1203931,5.1203931 0 0 1 0.035012,-0.0739 5.1122513,5.1493841 0 0 1 0.067573,-0.14006 5.1122513,5.1493841 0 0 1 0.2669001,-0.43898 5.1122513,5.1493841 0 0 1 0.044726,-0.0601 l -0.049103,-0.0491 -0.5551895,-0.55472 -0.00297,-0.003 c 0.343144,-0.45764 0.7500164,-0.86372 1.2085817,-1.20566 l 9.562e-4,10e-4 0.5551896,0.55519 0.04278,0.0426 a 5.1122513,5.1493841 0 0 1 0.2119631,-0.15265 5.1122513,5.1493841 0 0 1 0.4433741,-0.2562 5.1122513,5.1493841 0 0 1 0.4667084,-0.21004 5.1122513,5.1493841 0 0 1 0.1157056,-0.0386 5.1122513,5.1493841 0 0 1 0.3689914,-0.12348 5.1122513,5.1493841 0 0 1 0.1191073,-0.0268 5.1122513,5.1493841 0 0 1 0.00388,-9.3e-4 5.1122513,5.1493841 0 0 1 0.375798,-0.0853 5.1122513,5.1493841 0 0 1 0.1074398,-0.0131 5.1122513,5.1493841 0 0 1 0.067576,-0.008 5.1122513,5.1493841 0 0 1 0.3320436,-0.0401 5.1122513,5.1493841 0 0 1 0.1171637,-0.004 5.1122513,5.1493841 0 0 1 0.041324,-9.7e-4 5.1122513,5.1493841 0 0 1 0.2041861,-0.007 z"
         style="opacity:0.5;fill:#1a1a1a;fill-opacity:1;stroke:none;stroke-width:0.14699773;filter:url(#filter954)" />
      <path
         inkscape:connector-curvature="0"
         id="path840"
         d="m 10.003058,287.03579 -0.3441538,0.34417 a 4.1598173,4.190032 0 0 1 0.017665,0.0167 4.1598173,4.190032 0 0 1 0.274339,0.31459 4.1598173,4.190032 0 0 1 0.2418918,0.34087 4.1598173,4.190032 0 0 1 0.206985,0.36344 4.1598173,4.190032 0 0 1 0.169611,0.38235 4.1598173,4.190032 0 0 1 0.131009,0.39754 4.1598173,4.190032 0 0 1 0.09117,0.40863 4.1598173,4.190032 0 0 1 0.04968,0.41561 4.1598173,4.190032 0 0 1 0.01068,0.2957 4.1598173,4.190032 0 0 1 -0.02095,0.41808 4.1598173,4.190032 0 0 1 -0.06203,0.41437 4.1598173,4.190032 0 0 1 -0.102671,0.40576 4.1598173,4.190032 0 0 1 -0.02137,0.0584 4.1598173,4.190032 0 0 1 -0.02258,0.0629 4.1664424,4.1664424 0 0 1 -0.0686,0.18891 4.1598173,4.190032 0 0 1 -0.02998,0.0834 4.1598173,4.190032 0 0 1 -0.09898,0.20616 4.1664424,4.1664424 0 0 1 -0.02586,0.0532 4.1598173,4.190032 0 0 1 -0.05625,0.11747 4.1598173,4.190032 0 0 1 -0.216841,0.35729 4.1598173,4.190032 0 0 1 -0.03737,0.049 l 0.04024,0.0407 0.451754,0.45174 0.0016,4.2e-4 c -0.278409,0.37308 -0.6083038,0.70438 -0.9807127,0.98359 l -0.00251,-0.003 -0.4517526,-0.45175 -0.035317,-0.0349 a 4.1598173,4.190032 0 0 1 -0.1716661,0.12403 4.1598173,4.190032 0 0 1 -0.3601697,0.20862 4.1598173,4.190032 0 0 1 -0.3798829,0.17085 4.1598173,4.190032 0 0 1 -0.3946671,0.13223 4.1598173,4.190032 0 0 1 -0.4057557,0.0919 4.1598173,4.190032 0 0 1 -0.013553,0.002 v 0.0354 0.63985 0.003 c -0.2298835,0.0338 -0.4611169,0.0512 -0.6940559,0.0513 -0.2329384,-3.6e-4 -0.4641662,-0.0174 -0.6940558,-0.0511 v -0.003 -0.64067 -0.0396 a 4.1598173,4.190032 0 0 1 -0.1314189,-0.0198 4.1598173,4.190032 0 0 1 -0.4032917,-0.10307 4.1598173,4.190032 0 0 1 -0.3905605,-0.14375 4.1598173,4.190032 0 0 1 -0.3745436,-0.18235 4.1598173,4.190032 0 0 1 -0.3544205,-0.21888 4.1598173,4.190032 0 0 1 -0.073101,-0.0553 l -0.033675,0.0333 -0.4513417,0.45175 -0.00287,0.003 c -0.1802926,-0.13528 -0.3152182,-0.31801 -0.47466,-0.47651 l -0.1047244,0.10472 -0.2997994,0.22547 c 0.3225024,0.32633 0.6842189,0.61363 1.0825631,0.84847 l 0.3478492,-0.34785 0.1457927,-0.1458 a 4.6702275,4.6702275 0 0 0 0.8784532,0.3651 v 0.20575 0.49365 c 0.4356923,0.11383 0.8839955,0.17248 1.3343122,0.17374 0.4503163,-0.002 0.8986201,-0.06 1.3343119,-0.17374 v -0.49365 -0.20575 a 4.6702275,4.6702275 0 0 0 0.8780427,-0.3651 l 0.1457927,0.1458 0.3482605,0.34785 c 0.778567,-0.45903 1.427633,-1.10851 1.886682,-1.88708 l -0.348261,-0.34744 -0.145791,-0.14621 a 4.6702275,4.6702275 0 0 0 0.242301,-0.53718 l 0.0068,-0.0126 a 4.6378368,4.6725628 0 0 0 0.304315,-1.66081 4.6378368,4.6725628 0 0 0 -1.342114,-3.28177 z"
         style="fill:#1c1c1c;fill-opacity:1;stroke:none;stroke-width:0.11961144" />
      <path
         inkscape:connector-curvature="0"
         id="path1048"
         d="m 6.7073179,285.64562 a 4.6378368,4.6725628 0 0 0 -1.8029028,0.36714 l 0.00125,0.002 a 4.6702275,4.6702275 0 0 0 -0.4262898,0.20164 l -0.00494,-0.006 -0.4887141,-0.4883 c -0.7785466,0.45906 -1.4272196,1.10772 -1.8862713,1.88628 l 0.3474387,0.34826 0.1462034,0.14619 a 4.6702275,4.6702275 0 0 0 -0.365098,0.87804 H 2.218964 1.5281935 c -0.1138409,0.4357 -0.1720584,0.88401 -0.1733086,1.33432 0.00265,0.45049 0.061837,0.89879 0.1770049,1.33432 h 0.6895383 0.00823 a 4.6702275,4.6702275 0 0 0 0.3634553,0.87804 l -0.1462035,0.14621 -0.3474387,0.34744 c 0.224183,0.38021 0.4962878,0.72714 0.8041194,1.03861 l 0.2997954,-0.22532 0.1047244,-0.10472 c -0.1696992,-0.16868 -0.3621026,-0.3144 -0.5055519,-0.50679 l 4.107e-4,-8.1e-4 0.452163,-0.45135 0.042302,-0.0422 a 4.1598173,4.190032 0 0 1 -0.1055458,-0.14786 4.1598173,4.190032 0 0 1 -0.1166342,-0.20533 4.1598173,4.190032 0 0 1 -0.089941,-0.15811 4.1598173,4.190032 0 0 1 -0.072281,-0.16222 4.1664424,4.1664424 0 0 1 -0.048462,-0.10925 4.1598173,4.190032 0 0 1 -0.049282,-0.11047 4.1598173,4.190032 0 0 1 -0.035318,-0.10801 4.1664424,4.1664424 0 0 1 -0.076388,-0.23081 4.1598173,4.190032 0 0 1 -0.019303,-0.0589 4.1598173,4.190032 0 0 1 -0.013553,-0.0609 4.1664424,4.1664424 0 0 1 -8.214e-4,-0.002 4.1664424,4.1664424 0 0 1 -0.084601,-0.36468 H 2.5253438 1.887141 1.884681 C 1.8508,290.78061 1.83213,290.54859 1.831292,290.31603 c 3.491e-4,-0.23295 0.017813,-0.46416 0.051336,-0.69407 h 0.00328 0.6394351 0.062835 a 4.1664424,4.1664424 0 0 1 0.019303,-0.0866 4.1598173,4.190032 0 0 1 0.00782,-0.0521 4.1598173,4.190032 0 0 1 0.028337,-0.11253 4.1664424,4.1664424 0 0 1 0.056674,-0.22341 4.1598173,4.190032 0 0 1 0.017661,-0.0698 4.1598173,4.190032 0 0 1 0.055855,-0.154 4.1664424,4.1664424 0 0 1 0.052978,-0.14704 4.1598173,4.190032 0 0 1 0.033675,-0.0924 4.1598173,4.190032 0 0 1 0.097743,-0.20287 4.1664424,4.1664424 0 0 1 0.028337,-0.0604 4.1598173,4.190032 0 0 1 0.055032,-0.11377 4.1598173,4.190032 0 0 1 0.2172518,-0.3573 4.1598173,4.190032 0 0 1 0.036552,-0.049 l -0.040248,-0.0397 -0.4517524,-0.45135 -0.00204,-0.003 c 0.2792147,-0.37239 0.6100447,-0.70289 0.9831773,-0.98112 l 8.214e-4,8.2e-4 0.4517523,0.45175 0.03491,0.0349 a 4.1598173,4.190032 0 0 1 0.1724871,-0.12403 4.1598173,4.190032 0 0 1 0.3605806,-0.20862 4.1598173,4.190032 0 0 1 0.3798826,-0.17085 4.1598173,4.190032 0 0 1 0.094047,-0.0318 4.1598173,4.190032 0 0 1 0.3002097,-0.10062 4.1598173,4.190032 0 0 1 0.096921,-0.0219 4.1598173,4.190032 0 0 1 0.00328,-8.1e-4 4.1598173,4.190032 0 0 1 0.305549,-0.0689 4.1598173,4.190032 0 0 1 0.087476,-0.0107 4.1598173,4.190032 0 0 1 0.055031,-0.008 4.1598173,4.190032 0 0 1 0.2702301,-0.0328 4.1598173,4.190032 0 0 1 0.095279,-0.004 4.1598173,4.190032 0 0 1 0.033675,-8.2e-4 4.1598173,4.190032 0 0 1 0.1663268,-0.006 v -0.002 a 4.1598173,4.190032 0 0 1 0.4152017,0.0214 4.1598173,4.190032 0 0 1 0.4110947,0.0629 4.1598173,4.190032 0 0 1 0.4028807,0.10348 4.1598173,4.190032 0 0 1 0.3905607,0.14375 4.1598173,4.190032 0 0 1 0.374133,0.18235 4.1598173,4.190032 0 0 1 0.3544202,0.21848 4.1598173,4.190032 0 0 1 0.3314221,0.2538 4.1598173,4.190032 0 0 1 0.2862479,0.26857 l 0.3441516,-0.34414 A 4.6378368,4.6725628 0 0 0 6.7073674,285.6406 Z"
         style="fill:#ebebeb;fill-opacity:1;stroke:none;stroke-width:0.11961144" />
      <path
         transform="matrix(0.794722,0,0,0.794722,1.3035382,59.663475)"
         id="path2-6"
         d="m 4.6194159,292.69883 0.488859,-0.48886 a 2.5917651,2.6105905 0 0 1 -0.7730795,-1.85725 2.5917651,2.6105905 0 0 1 2.5926066,-2.6107 2.5917651,2.6105905 0 0 1 1.8448486,0.77773 l 0.4873088,-0.4873 a 3.280551,3.3043794 0 0 0 -2.3321574,-0.98444 3.280551,3.3043794 0 0 0 -3.2814535,3.30419 3.280551,3.3043794 0 0 0 0.9730674,2.34663 z"
         style="opacity:0.5;fill:#1a1a1a;fill-opacity:1;stroke:none;stroke-width:0.09233435;filter:url(#filter895)"
         inkscape:connector-curvature="0" />
      <path
         inkscape:connector-curvature="0"
         id="path2"
         d="m 4.858008,292.18043 0.3885069,-0.38851 a 2.0597326,2.0746935 0 0 1 -0.6143832,-1.476 2.0597326,2.0746935 0 0 1 2.0604016,-2.07475 2.0597326,2.0746935 0 0 1 1.4661415,0.61807 l 0.3872749,-0.38729 a 2.607126,2.6260629 0 0 0 -1.8534164,-0.78234 2.607126,2.6260629 0 0 0 -2.6078435,2.62589 2.607126,2.6260629 0 0 0 0.7733182,1.86493 z"
         style="fill:#ebebeb;fill-opacity:1;stroke:none;stroke-width:0.07338014" />
      <path
         inkscape:connector-curvature="0"
         id="path1671"
         d="m 4.858008,292.18043 a 2.607126,2.6260629 0 0 0 1.8345253,0.76183 2.607126,2.6260629 0 0 0 1.8443817,-0.77252 l -0.388918,-0.3885 a 2.0597326,2.0746935 0 0 1 -1.4554637,0.60947 2.0597326,2.0746935 0 0 1 -1.4460184,-0.59879 z"
         style="fill:#1c1c1c;fill-opacity:1;stroke:none;stroke-width:0.07338014" />
    </g>
  </g>
</svg>
