<?xml version="1.0" encoding="UTF-8" standalone="no"?>
<!-- Created with Inkscape (http://www.inkscape.org/) -->

<svg
   xmlns:dc="http://purl.org/dc/elements/1.1/"
   xmlns:cc="http://creativecommons.org/ns#"
   xmlns:rdf="http://www.w3.org/1999/02/22-rdf-syntax-ns#"
   xmlns:svg="http://www.w3.org/2000/svg"
   xmlns="http://www.w3.org/2000/svg"
   xmlns:sodipodi="http://sodipodi.sourceforge.net/DTD/sodipodi-0.dtd"
   xmlns:inkscape="http://www.inkscape.org/namespaces/inkscape"
   width="0.5in"
   height="0.5in"
   viewBox="0 0 22.86 22.86"
   version="1.1"
   id="svg836"
   inkscape:version="0.92.4 (5da689c313, 2019-01-14)"
   sodipodi:docname="SCAuroraeLogo.svg">
  <defs
     id="defs830" />
  <sodipodi:namedview
     id="base"
     pagecolor="#ffffff"
     bordercolor="#666666"
     borderopacity="1.0"
     inkscape:pageopacity="0.0"
     inkscape:pageshadow="2"
     inkscape:zoom="10.8125"
     inkscape:cx="24"
     inkscape:cy="24"
     inkscape:document-units="mm"
     inkscape:current-layer="layer1"
     showgrid="true"
     units="in"
     scale-x="1.8"
     showguides="false"
     inkscape:guide-bbox="true"
     inkscape:window-width="1366"
     inkscape:window-height="707"
     inkscape:window-x="0"
     inkscape:window-y="0"
     inkscape:window-maximized="1">
    <inkscape:grid
       type="xygrid"
       id="grid1687" />
  </sodipodi:namedview>
  <metadata
     id="metadata833">
    <rdf:RDF>
      <cc:Work
         rdf:about="">
        <dc:format>image/svg+xml</dc:format>
        <dc:type
           rdf:resource="http://purl.org/dc/dcmitype/StillImage" />
        <dc:title></dc:title>
      </cc:Work>
    </rdf:RDF>
  </metadata>
  <g
     inkscape:label="Capa 1"
     inkscape:groupmode="layer"
     id="layer1"
     transform="translate(0,-284.29998)">
    <rect
       style="opacity:1;fill:#ebebeb;fill-opacity:1;fill-rule:evenodd;stroke:none;stroke-width:0.28575;stroke-linejoin:miter;stroke-miterlimit:4;stroke-dasharray:none;stroke-opacity:1"
       id="rect1055"
       width="22.860001"
       height="22.860001"
       x="0"
       y="284.29999"
       ry="2.3811548" />
    <g
       transform="matrix(0.24525608,0,0,0.24525608,0.47398606,293.62476)"
       style="enable-background:new"
       id="hover-center-75">
      <path
         inkscape:label="#hover-center"
         inkscape:connector-curvature="0"
         id="hover-"
         d="M 11,21.957031 C 4.94829,21.957031 0.04296875,17.051576 0.04296875,11 0.04296875,4.948191 4.94829,0.042969 11,0.042969 c 6.051736,0 10.957031,4.905222 10.957031,10.957031 0,6.051576 -4.905295,10.957031 -10.957031,10.957031 z m 0,-7.25 6,-6 L 15.585938,7.292969 11,11.878906 6.4140625,7.292969 5,8.707031 Z"
         style="fill:#5beedc;fill-opacity:1;fill-rule:evenodd;stroke:none;stroke-width:0.02563604;enable-background:new" />
    </g>
    <g
       transform="matrix(0.24525608,0,0,0.24525608,5.4352542,300.59567)"
       id="hover-center-35"
       inkscape:label="#g837"
       style="fill:#5beedc;fill-opacity:1;enable-background:new">
      <path
         id="path833"
         d="M 11,0.04296875 C 4.9484238,0.04296875 0.04296875,4.948264 0.04296875,11 0.04296875,17.05171 4.9484238,21.957031 11,21.957031 17.051809,21.957031 21.957031,17.05171 21.957031,11 21.957031,4.948264 17.051809,0.04296875 11,0.04296875 Z M 9.7890625,7 h 2.4218755 v 8 H 9.7890625 V 7.5 Z"
         style="fill:#5beedc;fill-opacity:1;fill-rule:evenodd;stroke:none;stroke-width:0.02563604;enable-background:new"
         inkscape:connector-curvature="0" />
    </g>
    <g
       style="fill:#5beedc;fill-opacity:1;enable-background:new"
       id="pressed-center-62"
       transform="matrix(0.24525608,0,0,0.24525608,1.1692318,283.3279)">
      <path
         id="path896-5-9"
         d="M 11,0.04296875 C 4.9482896,0.04296875 0.04296875,4.9484238 0.04296875,11 0.04296875,17.051809 4.9482896,21.957031 11,21.957031 17.051736,21.957031 21.957031,17.051809 21.957031,11 21.957031,4.9484238 17.051736,0.04296875 11,0.04296875 Z"
         style="opacity:0;fill:#5beedc;fill-opacity:1;fill-rule:evenodd;stroke:none;stroke-width:0.02563604;enable-background:new"
         inkscape:connector-curvature="0" />
      <path
         id="path869-6-3-1"
         d="m 3,9.7890625 h 15 1 V 12.210938 H 3 Z"
         style="fill:#5beedc;fill-opacity:1;fill-rule:evenodd;stroke:none;stroke-width:0.02563604;enable-background:new"
         inkscape:connector-curvature="0" />
    </g>
    <g
       transform="matrix(0.24525608,0,0,0.24525608,16.828433,299.05319)"
       style="enable-background:new"
       id="hover-center-2">
      <path
         id="path14-3-5"
         d="M 11,0.04296875 C 4.9482896,0.04296875 0.04296875,4.9484238 0.04296875,11 0.04296875,17.051809 4.9482896,21.957031 11,21.957031 17.051736,21.957031 21.957031,17.051809 21.957031,11 21.957031,4.9484238 17.051736,0.04296875 11,0.04296875 Z M 12.986328,3.9863281 A 5.0269122,5.0269122 0 0 1 18.013672,9.0136719 5.0269122,5.0269122 0 0 1 12.986328,14.041016 5.0269122,5.0269122 0 0 1 9.9746094,13.03125 l -3.9765625,3.976562 -2.0117188,1.00586 1.0058594,-2.011719 3.9746094,-3.974609 A 5.0269122,5.0269122 0 0 1 7.9589844,9.0136719 5.0269122,5.0269122 0 0 1 12.986328,3.9863281 Z"
         style="fill:#2c89a0;fill-opacity:1;fill-rule:evenodd;stroke:none;stroke-width:0.02563604;enable-background:new"
         inkscape:connector-curvature="0" />
    </g>
    <g
       style="fill:#2c89a0;fill-opacity:1;enable-background:new"
       id="pressed-center-7"
       transform="matrix(0.24525608,0,0,0.24525608,12.249202,284.41492)">
      <path
         id="path916-2-0"
         d="M 11,0.042969 C 4.94829,0.042969 0.042969,4.948424 0.042969,11 0.042969,17.051809 4.94829,21.957031 11,21.957031 17.051736,21.957031 21.957031,17.051809 21.957031,11 21.957031,4.948424 17.051736,0.042969 11,0.042969 Z"
         style="opacity:0;fill:#2c89a0;fill-opacity:1;fill-rule:evenodd;stroke:none;stroke-width:0.02563604;enable-background:new"
         inkscape:connector-curvature="0" />
      <path
         inkscape:connector-curvature="0"
         id="path914-9-9"
         d="M 11,4.0429688 C 7.157541,4.0429687 4.0429688,7.157627 4.0429688,11 4.0429687,14.842521 7.157541,17.957031 11,17.957031 c 3.842476,0 6.957031,-3.11451 6.957031,-6.957031 0,-3.842373 -3.114555,-6.9570312 -6.957031,-6.9570312 z m 0,2 c 2.737845,0 4.957031,2.2192592 4.957031,4.9570312 0,2.737877 -2.219186,4.957031 -4.957031,4.957031 C 8.262167,15.957031 6.0429688,13.737877 6.0429688,11 6.0429687,8.262228 8.262167,6.0429688 11,6.0429688 Z"
         style="fill:#2c89a0;fill-opacity:1;fill-rule:evenodd;stroke:none;stroke-width:0.02563604;enable-background:new" />
    </g>
    <g
       transform="matrix(0.24525608,0,0,0.24525608,6.2938845,294.28165)"
       style="enable-background:new"
       id="hover-center-36">
      <path
         id="path869-0"
         d="M 11,0.04296875 C 4.9482896,0.04296875 0.04296875,4.9484238 0.04296875,11 0.04296875,17.051809 4.9482896,21.957031 11,21.957031 17.051736,21.957031 21.957031,17.051809 21.957031,11 21.957031,4.9484238 17.051736,0.04296875 11,0.04296875 Z M 3,9.7890625 h 15 1 V 12.210938 H 3 Z"
         style="fill:#963996;fill-opacity:1;fill-rule:evenodd;stroke:none;stroke-width:0.02563604;enable-background:new"
         inkscape:connector-curvature="0" />
    </g>
    <g
       transform="matrix(0.24525608,0,0,0.24525608,10.960613,299.68335)"
       id="hover-center-6"
       style="fill:#963996;fill-opacity:1;enable-background:new">
      <path
         id="path840-2"
         d="M 11,0.04296875 C 4.9482896,0.04296875 0.04296875,4.9484238 0.04296875,11 0.04296875,17.051809 4.9482896,21.957031 11,21.957031 17.051736,21.957031 21.957031,17.051809 21.957031,11 21.957031,4.9484238 17.051736,0.04296875 11,0.04296875 Z M 5.8789062,4.0351562 11,9.1582031 16.121094,4.0351562 17.964844,5.8789062 12.841797,11 l 5.123047,5.121094 -1.84375,1.84375 L 11,12.841797 5.8789062,17.964844 4.0351562,16.121094 9.1582031,11 4.0351562,5.8789062 Z"
         style="fill:#963996;fill-opacity:1;fill-rule:evenodd;stroke:none;stroke-width:0.02563604;enable-background:new"
         inkscape:connector-curvature="0" />
    </g>
    <g
       transform="matrix(0.24525608,0,0,0.24525608,11.881967,292.42503)"
       id="pressed-center-61"
       style="fill:#2ca02c;fill-opacity:1;enable-background:new">
      <path
         inkscape:connector-curvature="0"
         d="m 33.000041,21.95759 c 6.051736,0 10.957538,-4.905876 10.957538,-10.957685 0,-6.0515762 -4.905802,-10.95748298 -10.957538,-10.95748298 -6.05171,0 -10.95763,4.90590678 -10.95763,10.95748298 0,6.051809 4.90592,10.957685 10.95763,10.957685"
         style="opacity:0;fill:#2ca02c;fill-opacity:1;fill-rule:evenodd;stroke:none;stroke-width:0.02563604;enable-background:new"
         id="path14-3-5-6" />
      <path
         id="path840-6-3-2"
         d="M 27.878906,4.0351562 33,9.1582031 38.121094,4.0351562 39.964844,5.8789062 34.841797,11 l 5.123047,5.121094 -1.84375,1.84375 L 33,12.841797 27.878906,17.964844 26.035156,16.121094 31.158203,11 26.035156,5.8789062 Z"
         style="fill:#2ca02c;fill-opacity:1;fill-rule:evenodd;stroke:none;stroke-width:0.02563604;enable-background:new"
         inkscape:connector-curvature="0" />
    </g>
    <g
       transform="matrix(0.24525608,0,0,0.24525608,8.990411,288.49442)"
       id="hover-center-8"
       style="fill:#2ca02c;fill-opacity:1;enable-background:new">
      <path
         id="path829"
         d="M 11,0.04296875 C 4.9482896,0.04296875 0.04296875,4.9484238 0.04296875,11 0.04296875,17.051809 4.9482896,21.957031 11,21.957031 17.051736,21.957031 21.957031,17.051809 21.957031,11 21.957031,4.9484238 17.051736,0.04296875 11,0.04296875 Z m 0,2.00000005 c 4.947106,0 8.957031,4.0100566 8.957031,8.9570312 0,4.947165 -4.009925,8.957031 -8.957031,8.957031 C 6.0529155,19.957031 2.0429688,15.947165 2.0429688,11 2.0429688,6.0530254 6.0529155,2.0429688 11,2.0429688 Z m 0,2 C 7.1575415,4.0429687 4.0429688,7.157627 4.0429688,11 c 0,3.842521 3.1145727,6.957031 6.9570312,6.957031 3.842476,0 6.957031,-3.11451 6.957031,-6.957031 0,-3.842373 -3.114555,-6.9570312 -6.957031,-6.9570312 z"
         style="fill:#2ca02c;fill-opacity:1;fill-rule:evenodd;stroke:none;stroke-width:0.02563604;enable-background:new"
         inkscape:connector-curvature="0" />
    </g>
    <g
       style="enable-background:new"
       id="pressed-center-79"
       transform="matrix(0.24525608,0,0,0.24525608,13.018433,290.86647)">
      <path
         id="path896"
         d="M 11,0.042969 C 4.94829,0.042969 0.04296875,4.948424 0.04296875,11 0.04296875,17.051809 4.94829,21.957031 11,21.957031 17.051736,21.957031 21.957031,17.051809 21.957031,11 21.957031,4.948424 17.051736,0.042969 11,0.042969 Z"
         style="opacity:0;fill:#ff7f2a;fill-opacity:0;fill-rule:evenodd;stroke:none;stroke-width:0.02563604;enable-background:new"
         inkscape:connector-curvature="0" />
      <path
         id="hover-center-3-2"
         d="m 11,7.292969 6,6 -1.414062,1.414062 L 11,10.121094 6.4140625,14.707031 5,13.292969 Z"
         style="fill:#ff7f2a;fill-opacity:1;fill-rule:evenodd;stroke:none;stroke-width:0.02563604;enable-background:new"
         inkscape:connector-curvature="0" />
    </g>
    <g
       style="enable-background:new"
       id="g892"
       inkscape:label="#hover-center"
       transform="matrix(0.24525608,0,0,0.24525608,2.8842619,292.93621)">
      <path
         inkscape:connector-curvature="0"
         id="hover-center-0"
         d="m 11,-21.957031 c -6.05171,0 -10.95703125,4.905455 -10.95703125,10.957031 0,6.051809 4.90532125,10.957031 10.95703125,10.957031 6.051736,0 10.957031,-4.905222 10.957031,-10.957031 0,-6.051576 -4.905295,-10.957031 -10.957031,-10.957031 z m 0,7.25 6,6 -1.414062,1.414062 L 11,-11.878906 6.4140625,-7.292969 5,-8.707031 Z"
         style="fill:#a02c2c;fill-opacity:1;fill-rule:evenodd;stroke:none;stroke-width:0.02563604;enable-background:new" />
    </g>
    <g
       id="pressed-center-2"
       transform="matrix(0.24525608,0,0,0.24525608,17.092408,287.19522)"
       style="fill:#1c1c1c;fill-opacity:1;enable-background:new">
      <path
         id="path873"
         d="M 11,0.04296875 C 4.9482896,0.04296875 0.04296875,4.9484238 0.04296875,11 0.04296875,17.051809 4.9482896,21.957031 11,21.957031 17.051736,21.957031 21.957031,17.051809 21.957031,11 21.957031,4.9484238 17.051736,0.04296875 11,0.04296875 Z"
         style="opacity:0;fill:#1c1c1c;fill-opacity:1;fill-rule:evenodd;stroke:none;stroke-width:0.02563604;enable-background:new"
         inkscape:connector-curvature="0" />
      <path
         id="path871"
         d="m 11,2.0429688 c -4.9470845,0 -8.9570312,4.0100566 -8.9570312,8.9570312 0,4.947165 4.0099467,8.957031 8.9570312,8.957031 4.947106,0 8.957031,-4.009866 8.957031,-8.957031 0,-4.9469746 -4.009925,-8.9570312 -8.957031,-8.9570312 z m 0,2 C 14.842476,4.0429687 17.957031,7.157627 17.957031,11 17.957031,14.842521 14.842476,17.957031 11,17.957031 7.1575415,17.957031 4.0429688,14.842521 4.0429688,11 4.0429688,7.157627 7.1575415,4.0429687 11,4.0429688 Z"
         style="fill:#1c1c1c;fill-opacity:1;fill-rule:evenodd;stroke:none;stroke-width:0.02563604;enable-background:new"
         inkscape:connector-curvature="0" />
    </g>
    <g
       transform="matrix(0.28839493,0,0,0.28839493,6.2849467,299.34269)"
       id="active-center"
       style="fill:#1c1c1c;fill-opacity:1;enable-background:new">
      <path
         inkscape:connector-curvature="0"
         d="m -10.999959,21.95759 c 6.051736,0 10.957538,-4.905876 10.957538,-10.957685 0,-6.0515762 -4.905802,-10.95748298 -10.957538,-10.95748298 -6.05171,0 -10.95763,4.90590678 -10.95763,10.95748298 0,6.051809 4.90592,10.957685 10.95763,10.957685"
         style="opacity:0;fill:#1c1c1c;fill-opacity:1;fill-rule:evenodd;stroke:none;stroke-width:0.02563604;enable-background:new"
         id="path14-3" />
      <g
         id="window-pin"
         transform="matrix(1.7475445,0,0,1.7475445,-45.935377,-9.9860513)"
         style="fill:#1c1c1c;fill-opacity:1;enable-background:new">
        <path
           style="color:#7b7c7e;fill:#1c1c1c;fill-opacity:1;stroke-width:0.57531118"
           d="m 21.127701,7.9957422 a 2.8765575,2.8765575 0 0 0 -2.876562,2.8765578 2.8765575,2.8765575 0 0 0 0.576434,1.724807 l -2.274279,2.274278 -0.57531,1.150632 1.15063,-0.57531 2.275402,-2.275403 a 2.8765575,2.8765575 0 0 0 1.723685,0.577555 2.8765575,2.8765575 0 0 0 2.876561,-2.876559 2.8765575,2.8765575 0 0 0 -2.876561,-2.8765578 z"
           id="path831"
           inkscape:connector-curvature="0" />
      </g>
    </g>
    <g
       transform="matrix(0.28839493,0,0,0.28839493,5.7229555,294.16002)"
       style="enable-background:new"
       id="pressed-center">
      <circle
         r="5"
         cy="11"
         cx="33"
         id="path1026"
         style="opacity:1;fill:#1c1c1c;fill-opacity:1;fill-rule:evenodd;stroke:none;stroke-width:0.27272725;stroke-linejoin:miter;stroke-miterlimit:4;stroke-dasharray:none;stroke-opacity:1" />
      <path
         inkscape:connector-curvature="0"
         d="m 33.000041,21.95759 c 6.051736,0 10.957538,-4.905876 10.957538,-10.957685 0,-6.0515762 -4.905802,-10.95748298 -10.957538,-10.95748298 -6.05171,0 -10.95763,4.90590678 -10.95763,10.95748298 0,6.051809 4.90592,10.957685 10.95763,10.957685"
         style="opacity:0;fill:#000000;fill-opacity:0;fill-rule:evenodd;stroke:none;stroke-width:0.02563604;enable-background:new"
         id="path14-3-1" />
    </g>
  </g>
</svg>
