<?xml version="1.0" encoding="UTF-8" standalone="no"?>
<svg
   xmlns:dc="http://purl.org/dc/elements/1.1/"
   xmlns:cc="http://creativecommons.org/ns#"
   xmlns:rdf="http://www.w3.org/1999/02/22-rdf-syntax-ns#"
   xmlns:svg="http://www.w3.org/2000/svg"
   xmlns="http://www.w3.org/2000/svg"
   xmlns:sodipodi="http://sodipodi.sourceforge.net/DTD/sodipodi-0.dtd"
   xmlns:inkscape="http://www.inkscape.org/namespaces/inkscape"
   width="48"
   height="48"
   viewBox="0 0 22.86 22.86"
   version="1.1"
   id="svg24"
   sodipodi:docname="SCAuroraeLogo1.svg"
   inkscape:version="0.92.4 (5da689c313, 2019-01-14)">
  <metadata
     id="metadata30">
    <rdf:RDF>
      <cc:Work
         rdf:about="">
        <dc:format>image/svg+xml</dc:format>
        <dc:type
           rdf:resource="http://purl.org/dc/dcmitype/StillImage" />
        <dc:title></dc:title>
      </cc:Work>
    </rdf:RDF>
  </metadata>
  <defs
     id="defs28" />
  <sodipodi:namedview
     pagecolor="#ffffff"
     bordercolor="#666666"
     borderopacity="1"
     objecttolerance="10"
     gridtolerance="10"
     guidetolerance="10"
     inkscape:pageopacity="0"
     inkscape:pageshadow="2"
     inkscape:window-width="1366"
     inkscape:window-height="705"
     id="namedview26"
     showgrid="false"
     showguides="false"
     inkscape:guide-bbox="true"
     inkscape:zoom="10.604167"
     inkscape:cx="22.349705"
     inkscape:cy="24"
     inkscape:window-x="0"
     inkscape:window-y="0"
     inkscape:window-maximized="1"
     inkscape:current-layer="svg24">
    <sodipodi:guide
       position="0.4940275,11.497367"
       orientation="0,1"
       id="guide840"
       inkscape:locked="false" />
    <sodipodi:guide
       position="-0.22455796,17.246051"
       orientation="0,1"
       id="guide1030"
       inkscape:locked="false" />
  </sodipodi:namedview>
  <rect
     style="fill:#ebebeb;fill-rule:evenodd;stroke-width:0.79536974"
     x="0"
     width="22.860001"
     height="14.461534"
     y="8.3984547"
     ry="1.5062516"
     id="rect844" />
  <path
     style="fill:#1a1a1a;fill-rule:evenodd;stroke-width:1"
     d="m 0,2.38125 v 8.981777 H 22.86 V 2.38125 C 22.86,1.062176 21.797824,0 20.47875,0 H 2.38125 C 1.062176,0 0,1.062176 0,2.38125 Z"
     id="rect2"
     inkscape:connector-curvature="0" />
  <path
     style="fill:#f9f9f9;fill-rule:evenodd;stroke-width:2.09973741"
     d="M 10.033203 6.3574219 A 5.6435546 5.6435546 0 0 0 10.033203 17.644531 A 5.6435546 5.6435546 0 0 0 10.033203 6.3574219 z M 24.033203 6.359375 A 5.6419948 5.6419948 0 0 0 24.033203 17.642578 A 5.6419948 5.6419948 0 0 0 24.033203 6.359375 z M 38.033203 6.359375 A 5.6419948 5.6419948 0 0 0 38.033203 17.642578 A 5.6419948 5.6419948 0 0 0 38.033203 6.359375 z M 24.033203 7.3867188 A 4.613281 4.613281 0 0 1 24.033203 16.611328 A 4.613281 4.613281 0 0 1 24.033203 7.3867188 z M 35.396484 8.4121094 L 38.033203 11.048828 L 40.671875 8.4121094 L 41.623047 9.3632812 L 38.982422 12 L 41.623047 14.638672 L 40.671875 15.585938 L 38.033203 12.947266 L 35.396484 15.585938 L 34.447266 14.638672 L 37.085938 12 L 34.447266 9.3632812 L 35.396484 8.4121094 z M 24.033203 8.4160156 A 3.5821522 3.5821522 0 0 0 24.033203 15.580078 A 3.5821522 3.5821522 0 0 0 24.033203 8.4160156 z M 5.9140625 11.375 L 14.152344 11.375 L 14.152344 12.623047 L 5.9140625 12.623047 L 5.9140625 11.375 z "
     transform="scale(0.47625)"
     id="path935" />
  <path
     style="fill:#1a1a1a;fill-rule:evenodd;stroke-width:0.99999994"
     d="m 4.7783129,14.456792 a 2.688208,2.688208 0 0 0 0,5.376416 2.688208,2.688208 0 0 0 0,-5.376416 z m 6.6675001,9.3e-4 a 2.687278,2.687278 0 0 0 0,5.374556 2.687278,2.687278 0 0 0 0,-5.374556 z m 6.6675,0 a 2.687278,2.687278 0 0 0 0,5.374556 2.687278,2.687278 0 0 0 0,-5.374556 z m -6.6675,0.490203 a 2.1970751,2.1970751 0 0 1 0,4.39322 2.1970751,2.1970751 0 0 1 0,-4.39322 z m 5.411763,0.488342 1.255737,1.255737 1.256667,-1.255737 0.452996,0.452996 -1.257598,1.255737 1.257598,1.256668 -0.452996,0.451135 -1.256667,-1.256668 -1.255737,1.256668 L 16.40551,18.401668 17.662178,17.145 16.40551,15.889263 Z m -5.411763,0.0019 a 1.706,1.706 0 0 0 0,3.411884 1.706,1.706 0 0 0 0,-3.411884 z m -8.6292407,1.409216 h 3.9234815 v 0.594382 H 2.8165723 Z"
     id="path935-3"
     inkscape:connector-curvature="0" />
</svg>
