<svg xmlns="http://www.w3.org/2000/svg" width="48" height="48" viewBox="0 0 22.86 22.86"><g transform="translate(0 -284.3)"><rect width="22.86" height="22.86" y="284.3" ry="2.381" fill="#ebebeb" fill-rule="evenodd"/><path d="M3.172 299.01a2.687 2.687 0 1 1 0-5.375 2.687 2.687 0 0 1 0 5.375zm0-1.778l1.471-1.472-.346-.347-1.125 1.125-1.125-1.125-.347.347zM8.133 300.606a2.687 2.687 0 1 0 0 5.375 2.687 2.687 0 0 0 0-5.375zm-.297 1.706h.594v1.963h-.594v-1.84zM1.905 285.729h3.924v.594H1.905z" fill="#5beedc" fill-rule="evenodd"/><path d="M19.526 299.064a2.687 2.687 0 1 0 0 5.374 2.687 2.687 0 0 0 0-5.374zm.487.967a1.233 1.233 0 0 1 1.233 1.233 1.233 1.233 0 0 1-1.233 1.233 1.233 1.233 0 0 1-.738-.248l-.976.975-.493.247.247-.493.975-.975a1.233 1.233 0 0 1-.248-.74 1.233 1.233 0 0 1 1.233-1.232zM14.947 285.406a1.706 1.706 0 1 0 0 3.413 1.706 1.706 0 0 0 0-3.413zm0 .491a1.216 1.216 0 1 1 0 2.431 1.216 1.216 0 0 1 0-2.431z" fill="#2c89a0" fill-rule="evenodd"/><path d="M8.992 294.292a2.687 2.687 0 1 0 0 5.375 2.687 2.687 0 0 0 0-5.375zm-1.962 2.39h3.924v.594H7.03zM13.658 299.694a2.687 2.687 0 1 0 0 5.374 2.687 2.687 0 0 0 0-5.374zm-1.256.979l1.256 1.256 1.256-1.256.453.452-1.257 1.256 1.257 1.256-.453.452-1.256-1.256-1.256 1.256-.452-.452 1.257-1.256-1.257-1.256z" fill="#963996" fill-rule="evenodd"/><path d="M18.72 293.415l1.255 1.256 1.256-1.256.453.452-1.257 1.256 1.257 1.256-.453.452-1.256-1.256-1.256 1.256-.452-.452 1.257-1.256-1.257-1.256zM11.688 288.505a2.687 2.687 0 1 0 0 5.374 2.687 2.687 0 0 0 0-5.374zm0 .49a2.197 2.197 0 1 1 0 4.394 2.197 2.197 0 0 1 0-4.394zm0 .491a1.706 1.706 0 1 0 0 3.412 1.706 1.706 0 0 0 0-3.412z" fill-rule="evenodd" fill="#2ca02c"/><path d="M15.716 292.655l1.472 1.472-.347.346-1.125-1.124-1.124 1.124-.347-.346z" fill="#ff7f2a" fill-rule="evenodd"/><path d="M5.582 287.551a2.687 2.687 0 1 0 0 5.375 2.687 2.687 0 0 0 0-5.375zm0 1.778l1.472 1.472-.347.347-1.125-1.125-1.125 1.125-.346-.347z" fill="#a02c2c" fill-rule="evenodd"/><path d="M19.79 287.696a2.197 2.197 0 1 0 0 4.394 2.197 2.197 0 0 0 0-4.394zm0 .49a1.706 1.706 0 1 1 0 3.413 1.706 1.706 0 0 1 0-3.412z" fill-rule="evenodd" fill="#1c1c1c"/><path d="M3.685 300.492a1.45 1.45 0 0 0-1.45 1.45 1.45 1.45 0 0 0 .291.87l-1.146 1.146-.29.58.58-.29 1.147-1.147a1.45 1.45 0 0 0 .868.291 1.45 1.45 0 0 0 1.45-1.45 1.45 1.45 0 0 0-1.45-1.45z" color="#7b7c7e" fill="#1c1c1c"/><circle r="5" cy="11" cx="33" fill="#1c1c1c" fill-rule="evenodd" transform="matrix(.2884 0 0 .2884 5.723 294.16)"/></g></svg>