<svg xmlns="http://www.w3.org/2000/svg" width="48" height="48" viewBox="0 0 12.7 12.7"><path d="M6.764.558a5.368 5.408 0 0 0-2.087.425l.001.002a5.405 5.405 0 0 0-.493.234l-.006-.006-.565-.565A6.176 6.176 0 0 0 1.43 2.83l.403.403.169.169a5.405 5.405 0 0 0-.423 1.016h-.81a6.176 6.176 0 0 0-.2 1.545c.003.521.071 1.04.205 1.544h.807A5.405 5.405 0 0 0 2 8.525l-.168.168-.403.403a6.178 6.178 0 0 0 2.184 2.184l.403-.403.169-.168a5.405 5.405 0 0 0 1.016.422V11.941c.504.131 1.023.2 1.544.2a6.165 6.165 0 0 0 1.545-.2V11.13a5.405 5.405 0 0 0 1.016-.422l.17.168.402.403a6.177 6.177 0 0 0 2.183-2.184l-.402-.403-.17-.168a5.405 5.405 0 0 0 .281-.622l.008-.015a5.368 5.408 0 0 0 .353-1.922A5.368 5.408 0 0 0 6.764.558z" fill="#2ca02c"/><path d="M6.793.56a5.368 5.408 0 0 0-.03-.001 5.368 5.408 0 0 0-.536.026 5.368 5.408 0 0 0-.53.081 5.368 5.408 0 0 0-.52.133 5.368 5.408 0 0 0-.5.184l.001.002a5.405 5.405 0 0 0-.489.231 5.405 5.405 0 0 0-.004.004l-.006-.006-.483-.482c-.002.004-.01-.004-.011.002-.027.215-.4.257-.648.361l-.088.07c.044.012.1.019.095.061-.052.015-.118.007-.18.004-.059.048-.123.089-.18.14.002.02-.01.049-.001.066-.073-.006-.106.024-.146.047-.03.028-.066.045-.095.073-.067.109-.116.244-.262.309-.268.298-.53.603-.737.95.347-.019.614-.05 1.076.005.007.194-.103.205.02.311.292-.29.673.162.711.393.114-.093.304-.015.492-.125.063-.144-.042-.19.04-.345.525-.097.795.797 1.308.449-.129-.02-.138-.108-.092-.229a.25.25 0 0 1 .181-.105c.092.121.188.24.438.27.07.228.234.613.444.626-.097-.144-.113-.336-.231-.468.417.063.633.406.88.336-.337-.49-1.068-.75-1.164-1.38l-.19-.05c-.12-.534.053-1.074.596-.708.011-.189.209-.056.253-.188-.207-.154-.51-.072-.629-.32.166-.114.206-.253.197-.355.18.043.047.268.162.349L6.01.995c.248-.16.57.101.727.142-.186-.133.076-.391.174-.464-.11.003-.126-.047-.119-.111z" fill="#ff7f2a" fill-rule="evenodd"/><path d="M9.827 1.533a5.368 5.408 0 0 0-.164-.118 5.368 5.408 0 0 0-.465-.268 5.368 5.408 0 0 0-.49-.221 5.368 5.408 0 0 0-.51-.17 5.368 5.408 0 0 0-.523-.119 5.368 5.408 0 0 0-.532-.065 5.368 5.408 0 0 0-.38-.013 5.368 5.408 0 0 0-.533.026c.024.06.048.118.047.203-.043.107-.184-.017-.227.03a.527.527 0 0 0 .028.283c-.027.116-.209.078-.256.172-.01.153.153.131.17.255 0 .15-.055.255-.198.256-.17-.125-.111-.738-.142-.965-.009-.056-.07.013 0-.055-.243.084.013.512-.142.852-.178-.03-.409-.119-.512 0 .118.111.442.03.569.141-.195.068-.354.347-.569.313-.364-.05-.279-.762-.482-1.008a5.405 5.405 0 0 0-.06.028c.04.403.213.646.287 1.093-.104.086-.233.155-.341.141-.278-.05-.119-.51-.427-.511-.052.306.34.768-.17.823-.123-.056-.09-.27-.255-.283-.032.27.208.684-.086.795-.216.082-.22-.198-.426-.199-.074.17.174.261.227.398-.03.257-.135.427-.34.397-.168-.02-.321-.436-.398-.256-.03.161.459.276.483.511.045.446-.499.15-.682.085.058.255.416.21.512.427.072.419-.122.64-.455.568-.033.242.308.11.426.2.17.398-.269.263-.398.397.09.132.485-.03.512.17-.021.132-.175.13-.17.286.193.07.404.125.34.454-.106.044-.226.077-.227.227.152 0 .244.059.284.17.22-.081.315.117.455.2v.17c-.15.044-.333.095-.313.227.237.09.31-.223.54-.226.14.05.144.234.227.34-.056.248-.3.308-.483.427-.412-.285-.94.09-.738.57.229.201.594.076.767-.087.165.167.43.198.653.056.175-.26.068-.53-.114-.71.115-.154.357-.235.483-.03-.05.108-.006.253.114.283.068-.104.382-.196.426 0 .029.162-.119.265-.029.397.27-.04.055-.433.284-.54.382-.058.31.353.71.2.095.212-.107.55.228.511.125-.114.01-.332.028-.512.063-.07.104-.16.199-.199.153.019.227.114.313.2.124-.018.12-.163.113-.313.156-.11.471-.06.625-.17.103.039.161.127.284.141.015.13-.049.162 0 .256.128.004.139-.114.256-.115.152.14-.006.244 0 .454.054-.009.063.031.114.03.063-.145.069-.35.312-.312.155.21.486.343.824.283.212.053.045.49.34.455-.086-.351.163-.829.427-.399.254-.448.518.028.625.284.054.01.062-.031.113-.03-.037-.247-.175-.393-.198-.654a.791.791 0 0 1 .937-.312.556.556 0 0 0-.077.438 5.405 5.405 0 0 0 .122-.26 5.405 5.405 0 0 0 .052-.133l.008-.014a5.368 5.408 0 0 0 .052-.16c-.103-.106-.235-.183-.328-.299.177-.069.132-.36.285-.454a.52.52 0 0 0 .227.03c.104-.081-.116-.166-.029-.226.023-.017.058.009.08.014a5.368 5.408 0 0 0 .019-.17c-.08-.034-.163-.064-.184-.157.12-.12.146-.332.23-.486a5.368 5.408 0 0 0 0-.015 5.368 5.408 0 0 0-.015-.318c-.012-.006-.038.004-.044-.007.03-.038.018-.087.037-.125a5.368 5.408 0 0 0-.004-.09 5.368 5.408 0 0 0-.016-.107c-.055-.014-.117-.021-.103-.103 0-.025-.023-.025-.028-.055.02-.031.067-.048.096-.075a5.368 5.408 0 0 0-.03-.195 5.368 5.408 0 0 0-.132-.524 5.368 5.408 0 0 0-.184-.508 5.368 5.408 0 0 0-.214-.445c-.058.01-.122.016-.16-.014.024-.043.014-.14.026-.214a5.368 5.408 0 0 0-.157-.258c-.038-.013-.102-.028-.126-.012-.094.17-.144.384-.312.482-.147-.013-.245-.076-.255-.226.02-.103.164-.081.17-.198.008-.256-.224-.312-.37-.342.09-.145.296-.178.313-.397-.027-.01-.036-.037-.043-.065a5.368 5.408 0 0 0-.017-.019c-.271-.026-.217.268-.48.254-.075-.058-.148-.115-.142-.256.068-.076.16-.124.17-.256-.11-.089-.177.06-.312.03-.094-.17-.045-.283.028-.39zm.54 1.272v.115h-.142c.006-.076.05-.116.142-.115zm.739.456c.046.057.022.185.085.227-.204.14-.375-.23-.085-.227z" fill="#963996" fill-rule="evenodd"/><path d="M11.844 9.378c.067-.1.157-.179.218-.282l-.402-.403-.17-.168a5.405 5.405 0 0 0 .23-.49 5.405 5.405 0 0 0 .051-.132l.008-.014a5.368 5.408 0 0 0 .166-.515 5.368 5.408 0 0 0 .059-.27c-.06-.171-.108-.366-.193-.487-.022.054-.027.138-.085.13-.029-.104 0-.241-.007-.359-.082-.026-.15-.028-.203-.003.034-.418-.534-.166-.467-.736a.236.236 0 0 0-.156.01c.162-.105-.09-.215.006-.406-.137-.072-.083-.058-.238-.063.14-.343-.2-.236.031-.502-.151.04-.411-.107-.514.017.243.053.042.276-.04.346.018.395.054.668-.006 1.17-.193.008-.204-.103-.31.02.29.292-.162.673-.393.712.093.114.015.304.124.491.144.063.19-.041.346.04.096.525-.797.796-.45 1.309.02-.13.109-.138.23-.092a.249.249 0 0 1 .105.18c-.122.093-.24.189-.27.438-.228.07-.615.235-.627.446.144-.099.337-.114.47-.233-.064.418-.406.634-.336.88.49-.336.75-1.068 1.379-1.163l.05-.19c.534-.12 1.074.052.709.595.188.012.055.21.187.254.154-.207.072-.51.32-.629.057.083.116.07.178.099z" fill="#ff7f2a" fill-rule="evenodd"/><path d="M8.723.933a5.368 5.408 0 0 0-.015-.007 5.368 5.408 0 0 0-.51-.171 5.368 5.408 0 0 0-.523-.118 5.368 5.408 0 0 0-.532-.065 5.368 5.408 0 0 0-.38-.013V.558a5.368 5.408 0 0 0-.536.027 5.368 5.408 0 0 0-.344.053l.03.066C5.777.786 5.71.73 5.63.833c.078.074.15.339-.045.398.13.152-.012.202-.056.291.044.119.175-.004.211.132-.044.087-.024.197-.147.257.14.115.267.346.106.481.176.223.424.31.364.63.152-.065.213.12.401-.034.205.25-.084.315-.17.456.084.027.005.104.103.142-.056.483.153.978.208 1.534-.019.104-.169.163-.224.253.128.231-.042.348-.156.488.109.152.061.248.004.34.048.128.04-.03.139-.03.1.158-.22.16-.165.302.073-.068.216-.11.253-.192.04-.011.053.042.074.08.004-.204.111-.09.218-.03-.086.29.072.29.09.527.132.114.29.148.49.08.068.163-.096.24 0 .415-.48-.056-.89.245-.885.632.001.16.168.264.2.44.057.31-.396.666-.03.846-.029.207.165.414.196.593.104-.12.252-.15.35-.312.476.231.215.78.395 1.032-.569.205-.517.83-.1 1.107.166-.077.287-.027.382.09a.657.657 0 0 1 .453-.17v-.48a5.405 5.405 0 0 0 .103-.036c-.058-.357-.267-.75-.154-1.09.122-.091.151.063.262-.001-.16-.243.08-.376.259-.346-.08-.346-.093-.508-.344-.752.115-.047.182.029.277.03.254-.278.164-.683.389-.973-.06-.051-.12-.098-.18-.145.031-.353.114-.685-.19-1.163.221-.273-.007-.714.28-.962.124-.073.137.146.276.03-.192-.406.094-.552.455-.662-.062-.087-.224-.332-.106-.482.142-.063.234.023.388-.064-.077-.144-.293-.047-.269-.257.271-.151.258-.563.042-.738-.05-.115.192-.12.207-.21-.126-.063-.311.043-.414-.076-.024-.08.082-.109.022-.2-.058-.005-.12-.001-.15-.082-.048-.12.12-.162.101-.273-.146-.124-.242-.026-.478.034-.174-.127-.514-.192-.461-.509.092-.002.218.097.263-.001-.036-.133-.167-.017-.212-.132-.138-.191.157-.22.228-.332-.039-.1-.139-.043-.197-.099.008-.184.113-.425-.087-.604.007-.047.068-.075.123-.104z" fill="#5beedc" fill-rule="evenodd"/><path d="M2.3 1.707c-.003.003-.004.01-.008.012.003.022.006.043-.001.075-.033 0-.064.002-.08.029l-.004.007c.033.01.046.04.036.09-.005.026-.023.031-.049.023-.013.043.007.055.003.089-.022-.007-.027.013-.048.008-.026.15.027.418-.089.43-.049-.004-.034-.071-.06-.098-.04.078.009.09.007.164-.033.047-.12-.006-.13-.006.021.024.01.079.026.108-.05.027-.043.145-.109.146-.037 0-.057-.084-.077-.057.025.02.037.051.038.094-.072-.008-.056-.061-.085-.087-.042.068.098.07.065.173-.03.03-.045-.012-.08-.012-.004.071.066.08.01.135l.018.057.15.149.168.169a5.405 5.405 0 0 0-.232.487 5.405 5.405 0 0 0-.184.508 5.405 5.405 0 0 0-.006.021H.846c-.002.001.001.005 0 .006 0 0-.006-.005-.005-.006H.769c-.084.323-.097.657-.128.989.014.006.02.022.034.026a.448.448 0 0 0-.026.144c.036.154.132.2.12.345-.011.127-.15.203-.116.337-.017.017-.028.015-.042.029.004.067.02.132.027.2.068-.006.123-.048.158-.014-.017.095-.094.089-.088.179.097.016.124-.081.198-.102.082.056-.014.354.096.34.012-.093-.07-.211.004-.28a.418.418 0 0 1 .07.248c.004-.026.022-.031.048-.023.076.155.235.226.225.465.063.034.055.14.163.13a.224.224 0 0 1-.007.076h.076a5.405 5.405 0 0 0 .03.088c.19-.108.268.156.34.275-.043.038-.052.131-.059.227-.168.029-.02-.353-.134-.42-.013.092.056.172.01.252-.043.01-.034-.03-.053-.044a5.405 5.405 0 0 0 .046.13 5.405 5.405 0 0 0 .23.49 5.405 5.405 0 0 0 .01.018l-.168.169-.403.403c.23.388.518.734.823 1.061.04-.01.09-.005.11-.045.035-.023-.028.016-.02-.032.068.02.1-.074.174-.091-.02.04-.007.071.013.105.013-.023.04-.026.072-.018.017.023.036.043.039.08 0 .05-.05.019-.053.066.141-.01.13.204.296.21.031.03.017.105.032.152.052-.069.162-.014.156.084.019-.03.028-.078.077-.062.053-.004.02.077.062.084.06-.026.117-.01.16.04.001-.082.065-.065.123-.055.055-.096.191-.098.252-.05-.021-.027-.05-.047-.05-.096.044-.097.171-.015.26-.005.025-.077-.047-.06-.036-.124.029-.06.095-.062.099-.162.139-.06.162-.241.28-.341.076-.065.17-.078.226-.143.084-.098.055-.177.073-.27-.014-.033-.045.05-.085.031-.037-.029-.087-.046-.083-.116.124-.02.197-.122.27-.224.064-.012.042.063.099.06.02-.1-.05-.11-.078-.16-.015-.233-.08-.484-.27-.487-.197-.003-.317.322-.22.573-.282-.158-.34-.537-.534-.78-.329.059-.248-.6.04-.527.012.024.003.067.04.066.043-.01.075-.037.091-.09-.005-.021-.044-.01-.043-.036.136-.224.432.19.518-.127-.028-.166-.178-.212-.223-.36.015-.042.047-.059.048-.126-.038-.091-.101-.016-.174-.027-.023-.135.11-.332.053-.422-.142.064-.472.02-.557-.19.077.05.143-.001.203-.028l.009-.087c.054.055.056-.05.1-.059-.031 0-.05-.013-.043-.05.073-.1.013-.194.034-.336-.02.038-.04.012-.096.014.006-.104-.047-.092-.11-.076.02-.202-.162-.262-.098-.43.199.052.33.12.545.07-.01.04.042.021.042.052-.022.035.021.059-.022.1.085-.01.085.084.17.056-.013.091-.02.111-.005.177.029-.06.07-.1.128-.113-.02-.037-.091-.025-.072-.1.176-.05.416-.05.558-.061-.155-.048-.335.028-.514-.021.009-.098.062-.125.068-.226.057-.014.151-.045.141-.112-.075.02-.115.097-.219.07-.036-.065-.033-.169-.044-.259.031-.046.107-.107.088-.179-.038.063-.071.133-.144.14-.015-.015-.034-.027-.028-.063a.168.168 0 0 1 .09-.075c-.013-.047.009-.056-.003-.09-.01-.004-.023-.004-.022-.018-.064-.008-.09.045-.146.052a.549.549 0 0 1 .043-.32c-.024-.052-.056-.012-.094 0 .017.083-.008.141-.052.17.01.017.042.012.03.05-.078.002-.098.1-.164.122.017.005.043.002.044.022-.176.145-.446.396-.71.184.012.089.13.074.122.182-.012.037-.05.031-.075.048.024.015.061.045.028.078.041.008.078.02.088.058-.103.08-.083.18-.102.325.06.012.038.113.008.15-.055-.052-.115.052-.15-.024.004-.078.105-.088.075-.166-.007.045-.06.016-.095.015.012-.23-.05-.339-.004-.564.03-.009.052-.03.066-.063-.151-.372.43-.117.387-.473-.061.01-.055.126-.109.146l-.07-.012c-.166-.354.32-.262.37-.534.046-.012.08-.04.144-.022.013-.026-.03-.054.005-.059.034.002.033.04.067.04-.01-.083.07-.107.087-.045-.016-.048.024-.101-.013-.106-.093-.026-.198.076-.283.119-.023-.03-.018-.087-.06-.098-.03.035-.044.04-.082.002-.014.053.046.033.052.067-.037.012.007.052-.009.088-.153-.004-.24.346-.403.158-.005-.097.048-.102.053-.184-.033-.083.016-.1.03-.187-.068.03-.102.116-.208.085-.023-.065.017-.085.026-.144a.39.39 0 0 1-.133-.198c.01-.057.057-.054.07-.108-.043-.012-.037.055-.086.031-.06-.069.024-.125.007-.191-.02.036-.049.057-.098.044-.02-.064-.017-.156.04-.172.028.036.059.041.093.015l.007-.073c-.06-.012-.043-.098-.12-.093-.002-.156-.117-.201-.091-.384-.02-.01-.032.016-.035-.006a.408.408 0 0 1 .124-.425.302.302 0 0 0-.053-.171c-.007.062-.03.099-.03.173-.058.017-.08.094-.15.095-.055-.08.013-.22-.026-.33.004-.025.095.01.061-.02-.02-.012-.07.007-.068-.025.001-.026.007-.046.017-.057-.142-.09.063-.213.078-.314-.059.045-.13.073-.178.135C2.56 1.9 2.518 1.9 2.52 1.86c-.054.042-.13.013-.121-.078-.005.022-.026.006-.035-.006-.006.045.034.072.002.104-.016-.007-.02-.024-.045-.022a.802.802 0 0 0-.02-.15zM.843 4.455c.02.034 0 .098-.013.13-.032-.011-.008-.078-.063-.068.008-.05.04-.058.076-.062zm2.495 1.533c.024.164-.016.38.113.489-.114-.034-.285-.124-.313-.286.064-.072.11-.171.2-.203zm.16 1.919c.029.114-.1.234-.17.298-.067-.02-.05-.185-.022-.255.038-.007.034.029.042.051.048-.034.077-.1.15-.094zm-1.36.097c-.023.087-.09.103-.153.125.053-.038.058-.155.153-.125zm.248 1.653c.009.013.024.02.044.022.03.047-.045.06.005.075-.006.041-.05.018-.084.016.019.032.02.015.006.06 0 .038.022-.014.046.008-.014.056-.102-.008-.11.057a.264.264 0 0 1-.09-.044c.004-.039.082-.017.028-.055.039-.012-.002-.056.053-.051.017.033-.012.027.005.06.016-.054.065-.056.06-.124.014.024.035.017.037-.024zm.684.211c-.015.043-.044.038.019.048-.034.011-.035.066.017.061-.026.01-.066.063-.007.073.004.046-.035.024-.03.07-.107-.02-.084-.045-.134-.08.048-.047.047-.123.096-.133-.002-.024-.022.009-.022-.019-.007-.05.038-.016.06-.02z" fill="#2c89a0" fill-rule="evenodd"/><path d="M1.743 3.961v.002a5.405 5.405 0 0 0-.158.436 5.405 5.405 0 0 0-.006.02H1.55c-.008.018-.032.025-.025.068-.026-.015-.009-.032-.035-.047-.044.035-.054.005-.089.05.042.052-.023.123-.047.13.008.042.039.061.036.09-.018-.013-.037-.007-.055-.013.037.035.053.059.008.06-.004.02.017.028.035.035-.042.058-.117.01-.18-.012.052.049-.065.006-.02.063-.043-.044-.067-.045-.096-.04.01-.055-.004-.034.054-.084a1.078 1.078 0 0 1-.216-.141c-.076.014-.134.075-.19.13-.046.218-.063.44-.085.662.01.015-.01.04.011.051.033.02.1-.011.097.026-.017-.018.008-.036.026-.055 0 .028.03.025.05.034.033-.109.154-.177.178-.058.036-.03.073.002.109-.042-.033-.03-.08-.005-.077-.061.027.006.036-.006.048-.008.024-.021-.012-.041.007-.062.016.016.032.008.048.034-.024.018-.006.036.015.054.016-.026.032-.009.048-.035.014.025.027.009.041.028-.029.03-.03.02-.068.028.082.09.035.152.044.234-.025-.008-.05-.006-.076-.02.022.037.006.069-.033.09.012.014.019.027.014.041-.026-.03-.017.011-.034.02l-.021-.02c-.016.012-.004.024-.006.035-.013-.012-.02-.01-.02.008 0-.03-.03-.012-.05-.034.036 0-.004-.056-.027-.04-.03.012-.069.073-.089.09-.041.034-.103.044-.137.084-.07.082-.053.193-.057.283.033-.016.028.042.028.04.064.116.336.165.265.328.02.044.062.086.064.13.08.035.123.076.208.108-.018.046-.023.091.001.137-.014-.018-.027-.024-.04-.013.024.061-.042.124-.06.186-.15-.004-.297-.031-.444.028.029.162.022.33.064.49h.808a5.405 5.405 0 0 0 .18.508 5.405 5.405 0 0 0 .093.197c-.001-.023 0-.046-.005-.067.016.009.032.05.048.02-.073-.05-.086-.103-.119-.143.02-.048.04-.046.054-.07-.006.016-.043-.02-.027-.027.036.036.05-.048.095-.057-.016-.017-.012-.034-.014-.052-.01.005-.018 0-.028-.003-.004-.034.03-.012.006-.062.012-.011.023.012.034-.008 0-.02-.023-.041-.021-.062.037-.012.027-.035.02-.063.01.009.018.015.027 0-.01-.09-.04-.144-.064-.226.026.03.018-.012.034-.02.019.016.037.01.055.012-.058-.071-.134-.107-.064-.185-.064-.042-.057-.128-.085-.192-.017.021-.069-.027-.063-.047.034.035.04.013.027-.014.014.006.029.043.042.027-.014-.031-.042-.024-.021-.048-.026-.029-.05-.018-.076-.047.018-.03.023-.027.047-.063-.04-.043-.006-.022.02-.048-.02-.013-.003-.028-.028-.04-.012.008-.023.027-.034.02-.021-.045.026-.053.047-.076-.036-.018-.005-.037.012-.056a5.917 5.917 0 0 0-.034-.033.13.13 0 0 1-.124.029c.017.055-.062 0-.089.021-.007-.003-.014-.012-.02-.006.035.05.003.104.029.137-.01-.01-.018.006-.027 0 .001-.08-.085-.16-.107-.24.009-.007.018-.014.028 0 .015-.029-.032-.052-.03-.08-.001-.004-.005-.007-.006-.009l.003.003c.001-.075.012-.152-.082-.216a.59.59 0 0 1 .107-.262c.086.056.148.102.202.142-.008-.01-.015-.018 0-.028-.007.043.038.042.07.082-.032.03.023.058.035.088.008-.034.013-.025.026-.055-.099-.082-.015-.1-.015-.165.048.032.008.066.063.089-.011.012-.023.02-.034.021.014.041.022.103.056.123-.01.019-.007.037-.013.055-.011-.01-.023-.024-.035-.006.013.023.06.015.05.047-.01.02-.054-.054-.041-.014.048.043 0 .046-.02.09.013.007.028.043.042.027-.013-.016.067-.003.055.013-.025.023-.051.002-.076.021.01.012.028.023.021.035-.016.045-.068-.023-.062.021.035.022.116.04.098.095.028 0 .01-.016.02-.034.029.046.055-.013.083-.001.05.019.033.059.07.068-.008-.01-.015-.018 0-.028.016.026.032.017.048.033-.04.074.02.147.003.221.094.082.135.18.263.19.025.001.078-.028.124-.016-.005-.007.002-.044.014-.028.008.01 0 .02.014.028.02-.04.047-.02.054-.07.012.011.023.025.035.007-.01-.034.01-.02.034-.02-.032-.036-.073-.04-.07-.083.028.036.055.01.083.013-.02.036.03.027.049.062.028-.017-.014-.032.006-.048-.004.015.012.007.028.011a.049.049 0 0 0 .013-.025c.03.018.025.036.015.055.048.03.1.075.139.107.002-.053.043.019.055.013-.006-.026.045-.028.062-.02.012-.036.015-.052.054-.056-.025-.02-.004-.053-.001-.07-.034-.018-.024.019-.055-.012.011-.013.023-.021.034-.022-.052-.03-.06-.085-.139-.107.006.009.003.017 0 .027 0-.036-.03-.027-.048-.02-.035-.037-.048-.066-.091-.116-.026-.008-.018.034-.035.021.034-.041-.066-.065-.014-.083-.042.006-.116-.042-.063-.102a.597.597 0 0 1-.044-.22c-.071-.007-.146-.032-.181-.107-.016-.008-.032.033-.048.021-.008-.052-.041-.071-.05-.13-.056.028-.143-.101-.158-.02-.027-.066-.086-.177-.175-.196.006-.02.044-.003.027-.028-.062-.027-.09-.069-.153-.135-.015.009-.007.027-.02.02-.014-.04-.066-.082-.07-.123.005-.019.043-.003.027-.028-.033-.024-.083-.038-.098-.095-.025.038-.05.036-.076.022.039-.065-.035-.113-.008-.145-.014.001-.015-.01-.042-.027.03-.024.01-.049.048-.062-.065.005-.129-.136-.147-.074.003-.03-.012-.06-.02-.09.01.01.022.029.034.021-.025-.046-.091-.103-.022-.13-.017-.016-.01-.032-.036-.048.028.011.027-.076.055-.042.065-.115.173-.043.274-.128.082-.003.105.116.187.115.022.022-.008.121.023.145.025.02.126-.022.15-.016a.249.249 0 0 1 .105.06c.033.04.006.02.055.04s.133.143.18.136c-.035.002.008.046-.012.07-.081.09-.14.138-.087.228-.007-.004-.013-.014-.02-.008.07.042.138.076.208.094.101-.045.167.004.262.025-.012.011-.024-.013-.035.007.044.012.146.028.145-.009.088.038.14-.048.22-.017.012-.02.02-.042.047-.02.032-.053.036-.15.116-.16-.035-.044.025-.027.034-.049.023-.056-.067-.152-.127-.164l.02-.02c-.032-.032-.063.03-.096.014.017-.018-.022-.036.014-.054-.02-.022-.042-.035-.063-.034-.021.037-.136.01-.159-.02-.019.008-.001.045-.026.03.002-.028-.005-.045-.021-.008 0-.016-.017-.032-.035-.047-.006-.017.035-.033.006-.049-.038.048-.063-.05-.075.008-.014-.013.01-.027-.015-.04-.015.048-.067.003-.103.035.014-.011.007-.023.02-.034.01.008.02.014.028 0-.012-.03-.047-.06-.036-.09-.04-.023-.068.013-.076-.047-.038.019-.078.011-.117-.006.04-.012.002-.03.048-.035-.1-.01-.184-.115-.244-.21-.011.013-.023.014-.034.009l.061-.023c-.05.006-.116-.063-.063-.115a.217.217 0 0 0-.146-.088c.008-.027.05.004.035-.022-.019.006-.037-.026-.056-.012.003-.023-.007-.046.013-.07-.034-.02-.041-.06-.063-.06.032-.02-.007-.056.027-.056-.04-.022-.027-.046-.014-.069-.01-.016-.052-.031-.022-.048-.028-.003-.055-.032-.083-.04.001.012-.016.029-.04.056-.043-.036-.065-.073-.016-.11-.011-.009-.023-.028-.034-.02a.05.05 0 0 1 0 .041c-.04-.029-.058-.058-.087-.075zM5.38 6.038c-.017.033-.037.008-.055.014.028.018-.002.025-.013.027.022.014.022.028 0 .043-.007-.012-.003-.024-.02-.035-.012.034-.028.025-.055 0-.028.026.03.077-.02.063 0 .03.012.059.021.089-.018-.017-.036.01-.054.028.021.028.006.055.014.082a.074.074 0 0 0-.034-.006c.043.06-.059.046-.026.096-.021-.051-.041-.011-.077-.047.064-.038.024-.144.089-.118-.016-.04-.028-.054-.07-.082-.033.024-.001.046-.04.07.006.01.02.018.013.027-.017.02-.058.068-.109.07-.124-.053-.288-.123-.413-.01-.02.092-.005.167.052.268.168-.027.168.19.183.288.127.024.084.185.016.233.028.085.1.124.166.108.09.068.117.067.195.149-.01.038.011.108-.026.124.01.025.054.012.042.04-.006-.021-.044-.02-.028.001.064.041.049.092.098.068.006.08.184.182.024.227.007.068-.061.108-.074.159.038-.045.08.05.02.034.011.018.055.036.043.055-.026.008-.009-.034-.035-.021.006.018.012.036-.013.055.021.03.041.032.062.035-.036.012-.011.02-.033.047-.014-.013.009-.027-.015-.04-.037.02.018.04.008.061-.052-.02 0 .06-.047.064.025.028-.018.056.028.067-.026-.008-.008.033-.034.021-.027-.017.015-.034-.021-.034-.007.04.02.08.036.117-.036-.02-.049-.034-.043-.069-.008.026-.024.02-.02.036.006-.013.033.03.028.04-.029-.008-.057.01-.069-.013.007.01.004.018 0 .027.015.021.064-.017.056.028-.04-.047-.017.044-.013.04-.014.006-.028-.024-.042-.013-.005.014.027.028.015.042-.034-.03-.02.04-.027.055-.033-.018-.003-.036-.028-.054-.028.023.02.045 0 .068-.018-.016-.01-.032-.02-.047-.048.034.003.024-.014.054-.05-.044.016.02-.034.035.038.027.021.036-.006.048.032.028.006.05.049.062-.013.014.01.027-.013.041-.004-.033-.01-.024-.029-.054-.02.055-.049.012-.054.042 0 .04.037.07.064.116-.026-.036-.052-.039-.077-.034.015.038.064.022.055.04-.018.004-.036-.02-.054.001.01.014.054.015.042.042-.035-.013-.047.043-.041.07a.034.034 0 0 0-.024-.018c.01.015.003.03.01.044-.036-.027-.072.067-.11.016-.017.018-.035.042-.053.041.003.026.03.05.007.076-.034-.016.005-.068-.035-.061.006.009.003.018 0 .027-.008 0-.049-.016-.035-.034.032.032.048-.02.076-.022-.06-.043-.017-.092-.001-.123.008.006 0 .02.014.013-.007-.011-.005-.022-.022-.034-.026.048-.032-.01-.04.042-.052-.027-.038-.035-.07-.054-.004.03.026.06.056.054-.029.015-.01.03-.01.045.004-.004.014.004.018-.01.013.02 0 .04-.01.06-.016-.02-.03-.016-.046-.03.014-.004.02-.014.028-.015-.047-.027-.114-.049-.126-.11.023.01.047-.003.07.012-.029-.015.003-.031-.008-.047-.032.025-.064.02-.096.001-.002.025-.02.053-.041.042 0 .03.035.02.056.054-.047 0 .014.035-.013.055-.039-.035-.026-.04-.029-.082-.011.011-.022.026-.034.008.042 0-.005-.04.02-.062-.024-.012-.007-.029-.019-.047.02.012.04.032.06.019-.046-.032-.036-.064-.043-.096-.01.008-.018.021-.027.014-.013-.036-.008-.073.026-.11-.019-.016-.035-.008-.022-.034.025-.008.012-.014.041-.028-.006-.014-.044-.027-.028-.04.016.001.033.018.05.006-.026-.028-.05-.081-.01-.089-.01-.016-.002-.032-.02-.048-.03.033-.022.033-.055.056-.021-.038-.041-.002-.062-.006-.019-.027-.003-.056-.015-.083.021.04.041 0 .062.033-.027.001-.01.017-.005.035.03-.006.024-.042.06-.035-.033-.042.042-.043.013-.083-.043.053-.027-.069-.082-.04-.04-.027-.06-.075-.09-.075.013-.027.062-.006.053-.028-.035.016.02-.02 0-.027-.019.017-.003-.022-.028-.027-.036.019.004.036-.013.055-.023-.003-.045.026-.068 0a.048.048 0 0 1 0-.04c.04.002.044-.033.033-.063-.014.005-.028-.001-.042-.013.049-.012-.003-.034.033-.063-.029-.036-.042-.061-.083-.081.009-.01.018-.012.027-.015-.05-.021-.08-.085-.05-.13-.043-.028-.03-.058-.035-.088a.629.629 0 0 1 .109-.085c.046.03.023.018.07.027-.013-.012-.013-.023-.008-.034.008.016.05.031.035.048-.021.008-.061-.01-.062.021.026.017.05.02.076.033-.02-.015-.027-.031-.007-.048.016.019.032.012.048.007-.018-.025-.037-.012-.055-.04.008-.011.018-.012.027-.014-.021-.03-.042-.012-.063-.034.021-.014.014-.063.04-.056.02.021-.015.078.037.075-.009-.009.004-.017.004-.025.013.012.024 0 .036.012.028-.017.01-.033.02-.049.044.007.018.044.049.047.018-.03-.033-.06-.049-.089.057-.017-.002-.056-.008-.075.02-.001.056.011.056.04.068-.038-.005-.119-.008-.047-.018-.016-.025-.032-.02-.048.034-.003.026-.02.061-.022-.029-.034-.02-.09.026-.069-.03-.031-.096-.038-.104-.087.014.007.028.043.042.027-.02-.044.022-.007.04-.028a.072.072 0 0 0 .007-.035c-.032.008-.033-.047 0-.027-.017-.018-.033-.012-.049-.021.011-.018.057-.054.054-.083.019.018.037.043.055.026 0-.038-.084-.073-.083-.095.036 0 .032-.006.061-.008-.031-.012-.024-.058-.048-.048.02.016.013.032-.006.049-.022-.036-.078-.013-.077-.048.018.027.025-.002.027-.013.012.01.023.027.035.02-.01-.016.007-.032-.021-.048-.036.05-.074-.022-.11-.027.006-.009.02 0 .013-.013-.078-.028-.068-.073-.147-.17a.384.384 0 0 0-.062-.008c.006.019.033.036.028.055-.03.018-.06-.04-.09-.034a.049.049 0 0 1 .001.041c-.035-.021-.04.024-.082.015.008.016.049.032.035.048-.017-.026-.033-.018-.05-.034.008-.058.003-.07.054-.111-.008-.027-.048.007-.034-.02.014-.007.027-.008.04-.014a.175.175 0 0 1-.041-.096c-.019-.01-.038-.015-.056.014-.028-.032-.066-.018-.062-.061-.045.013-.003.021-.006.048-.015-.011-.064-.048-.056-.027l.022.021c-.015.012-.008.023-.021.035-.03-.06-.066-.055-.07-.096.03.006.017.037.041.014-.007-.016.009-.033.006-.05-.011.01-.023-.01-.034-.019-.035-.009 0 .046-.034.035a.098.098 0 0 1 .02-.063c-.013-.03-.054-.058-.008-.089-.059-.04-.037-.06-.035-.089-.036-.012-.03.048-.07.015.057-.038-.015-.028-.007-.048.013-.03.028-.007.042-.015-.018-.018.02-.036-.015-.054-.035.015.02.027 0 .04-.025-.034-.008.02-.028 0 .006-.034-.025-.025-.007-.06-.02.02-.04.012-.075.02.005.024-.015.048-.027.071-.046-.045.008.044-.048.008.054.056-.06.077-.026.138-.06-.006-.058.112-.143.106.004.006.014.013.008.02l-.022-.02c-.042.039-.041.044-.081.055 0 .016.017.033.035.049-.03.018-.016.036-.041.055.017.036.061.072.042.11.092.03.093.132.113.204-.114.029-.243.054-.335.135-.007-.003-.014-.013-.02-.007.046.045.054.091.07.137.017-.005.034.002.035.02.018-.011.036-.002.054-.028.086.073.17-.028.255.059.094-.063.088.055.126.108.052.073.119.094.146.142-.032.003-.018.047-.04.07.031.034.055.068.05.103a.05.05 0 0 0 .013-.028c.016.012.032-.005.048.008.131.098-.031.232.032.343a.834.834 0 0 0 .23.197c.044.055.093.121.118.156-.007-.009-.02-.018-.013-.027.014.025.027.008.041.027.003.019-.02.037.001.055.01-.008.018-.02.027-.014-.027.023-.011.046 0 .069.022-.014.035-.023.07-.001-.014.007-.028.008-.041.014.04.036.043.096.071.15.056.008.089.06.104.116-.014.012-.007.023-.02.035-.04-.023-.045.062-.04.084-.013-.064-.051-.004-.083-.027-.02-.025.002-.05-.021-.076-.03 0-.016.023-.04.042.017.013.023.027.013.04-.034-.034-.012-.125-.056-.08.002-.048-.02-.068-.008-.104-.021-.025-.042-.017-.062-.02.016.013.016.027 0 .041-.007-.006-.014-.002-.021-.007.028-.065-.057-.062-.036-.13-.026.019-.032.037-.026.055-.035.005-.083-.01-.097.015-.03-.055.058-.032.026-.083-.03.008-.024.04-.06.008-.033.02.009.037 0 .056-.05-.039-.145-.047-.215-.087.01-.012.023-.023.034-.035-.023-.028-.046.026-.069.015-.006-.01-.003-.018 0-.028.018.032.037-.03.027-.041-.027.013-.044.002-.056-.027-.013.017-.027.024-.04.014.003-.007.002-.014-.008-.02.031-.006-.002-.057.013-.083-.03.019-.019-.053-.049-.034a.081.081 0 0 0 0 .055c-.025-.023-.006.038-.026.014-.006-.024-.004-.07-.042-.054-.025-.04.03-.041.02-.076-.045.008-.055-.014-.09.008.071.033.043.084.077.116-.02.01-.041-.03-.062-.02.013.019-.03.045-.041.028.006-.02.044-.004.028-.028-.025.004-.051.018-.077-.005.053-.048-.006-.056.013-.097.01.01.012.02.014.028.022-.023.022-.047.054-.07-.05-.022-.1-.023-.152-.04.003.042.059.013.056.042-.031-.01-.024.016-.047.02.018.034.029.096-.02.09.026.029.05-.01.076.02-.037.038.068.023.035.062-.029-.04-.051-.012-.062-.008-.007-.009.003-.018.014-.028-.019-.016-.037-.01-.056-.012.02.04-.016 0-.034.034.027.02.053.045.062.062-.037.012-.027-.036-.047-.034.002.016.009.032.006.048-.015.032-.09.04-.102.05.104.06.323.228.197.286-.001.014.023.027 0 .041l-.021-.02c-.03.033-.032.09-.081.084.016.016.032.008.048.033-.01.05-.029.063-.06.104-.014-.017-.028-.024-.041-.013.014.016-.026.032-.034.049.039-.002.079.016.076.06.02-.03.04-.018.061-.049-.007-.009-.02-.018-.014-.027.036.046.048-.026.04-.042.026.035.051.02.076.006-.016-.034-.003-.027.02-.063.037-.013.074-.015.075-.062.045.022.007.046.029.068.014-.018.02-.036.027-.055.021-.001.078.03.076-.008-.018.02-.037.003-.055-.013.038-.016.097-.039.096.013.016-.028.031-.012.047-.022-.012-.03-.058-.016-.048-.047.023-.004.047.024.07.026 0 .016.02.036 0 .042.023.022.045.007.069.04.026-.009.018-.025.034-.02-.006.1.171.17.135.265.064.02.071.066.097.096.014-.016-.013-.068.02-.062.002.053.054.059.084.081-.028-.024.026-.018.026-.027.022.015.023.038.057.068.036-.042.063.063.055 0 .04.01.029.062.077.073-.022.023-.008.023 0 .056-.016-.01-.033-.027-.048-.007.056.005.101.053.057.11.03.04.06.028.089.019.03.032.058.038.07.027.073.101-.132.155-.1.256-.01-.007-.02-.02-.028-.014a.25.25 0 0 0-.032.16c-.054-.032-.052-.045-.057-.097-.025.05-.05.063-.047.104-.017-.046-.006-.051-.056-.054.02-.037.042-.013.062-.035-.057-.059-.062.03-.089.05-.033-.01-.051-.021-.055-.055-.046.048.032.05.028.082-.038-.03-.022.03-.04.042-.046-.003-.04-.007-.09-.02.01.025.028.044.041.068-.043-.021-.007.042-.033.035-.031-.047-.064 0-.076-.047.02-.012.073-.045.06-.076-.013.024-.027-.038-.04-.014.007.048-.014.071-.055.098.014.027.055.053.042.081-.018-.057-.04.032-.075-.005.026-.012.036-.029.026-.056-.018.023-.037.011-.055.014.013.03.048.09-.006.063.012.02.059.085.062.047-.007.007-.02-.002-.014-.014.034-.03.066.008.07.04-.056-.053-.025.038-.076.022a.068.068 0 0 1 .008.034c-.025.012-.077-.011-.062.036-.074-.062-.154-.093-.195-.163.01.016-.01.006-.02.008.01.012.028.023.02.035-.037-.036-.011-.005-.013.013-.036 0-.03-.034-.041-.054-.044.053-.078-.088-.112-.04-.035-.023-.032-.045-.028-.068-.03 0-.01.028-.033.048-.02-.039-.043-.077-.009-.117-.018-.026-.037-.032-.055-.027.007-.007-.004-.02-.014-.013.012.011.012.023.007.034-.026-.022-.008.043-.034.021.001-.057.02-.151-.037-.185.006.01.006.027-.006.02a.368.368 0 0 1-.044-.164c-.011.011-.023-.015-.034-.007.016.007.016.043 0 .027-.028-.071-.04-.102-.064-.171.021 0 .049-.03.02-.049-.034.014-.048.037-.069.043-.012-.014-.019-.028-.014-.041l.027-.028c-.003-.007-.013-.013-.007-.02-.08-.072-.145-.151-.228-.087-.005-.03.048-.018.006-.048-.013-.012-.02.048-.048.02-.012-.024-.032-.049-.035-.074-.038-.01-.023.028-.041.027-.03-.025.015-.085-.036-.088.005.021.006.04.008.061l-.042-.04c-.014.056-.084 0-.075.063.01-.007.018.004.028.013.013-.017.027-.024.041-.013-.011.012-.022.02-.034.02.027.016-.014.032.022.048a.336.336 0 0 1 .159.101c-.026-.042.04.06.008.062-.009-.01-.001-.019-.015-.027-.016.018-.007.033-.033.034.045.063.086.094.145.06-.013.053.022.106.036.158-.027-.042-.087-.052-.111-.122-.06.042-.038.083-.054.125l-.042-.041a.05.05 0 0 0 .014-.028l-.049-.047c-.021.023.002.045 0 .068-.02-.025-.04.027-.061-.02.05 0-.037-.034.013-.055-.048-.022-.01-.045-.03-.068l-.04.001v.041c-.026-.03-.018-.013-.034.008-.01-.045-.07-.075-.097-.108.012.011.012.022.006.034-.035-.035-.067-.039-.07-.081-.015.011-.003.022-.006.033-.01-.048-.062-.053-.049-.101.014-.019.027.011.041-.001-.01-.019-.054-.036-.042-.055.023 0 .018.037.049.007-.003-.03.002-.021.026-.055-.023-.022-.052-.022-.028-.055.016.025.026.057.041.014.004.04.048.009.056.054.02-.047.042.004.062-.022-.008-.026-.049.007-.035-.02.07-.021.016-.066.062-.063.003-.05-.034-.064-.078-.088.047-.02.004-.007 0-.014-.012-.023-.008-.093-.057-.123-.025.014-.007.028-.026.042.006.014.044.027.028.04-.021-.002-.04.042-.062.022.007-.025-.012-.044-.035-.034.002-.019-.025-.048.006-.048-.038-.02-.024-.022-.062-.06-.034.02 0 .04-.034.061-.059-.02-.168-.063-.167-.108-.03-.011-.017.021-.048.008.01-.011-.01-.023-.02-.034.01-.007-.017-.012-.018-.017-.005.003-.001.009-.01.017-.018-.011-.014-.022-.021-.034.004-.005.009-.003.013 0-.029-.02-.054-.044-.055-.054.018-.033.048.018.047-.021-.044.011-.019-.033-.062-.074.036-.02-.009-.043.027-.043l-.006-.006v-.01l-.1.1-.402.402c.178.301.414.558.638.823.022-.085.02-.179.083-.227.02.003.042.037.063.033-.01-.036.033-.018.068-.07-.024-.052.034-.105.032-.158.05-.003.104 0 .145.06-.006-.017-.044-.016-.027 0 .13.134.121.334.13.508.019-.006.036-.038.055-.015-.022.062.142.036.153.122.02.008.041 0 .062.02-.006.049.023.081.07.082 0 .037.015.093-.012.11.08.03.161.096.242.156.022-.042.089.038.132.018.012.04.074.096.07.123-.016-.012.021-.018.027-.014.007.014.008.027.015.04.188-.003.257.231.176.364.014-.013.016.035.042.026-.005.025-.002.051-.006.076.05.022.039.057.04.094l.389-.39.074-.073c-.013-.007-.026-.004-.04-.008.008-.02.043-.005.062-.035.002.01-.005.013 0 .02l.072-.073a5.405 5.405 0 0 0 .488.233 5.405 5.405 0 0 0 .508.184 5.405 5.405 0 0 0 .02.007v.211a.048.048 0 0 1 .042.018c-.016.011-.02.023-.007.034-.029-.015-.03.001-.035.01v.151c.007.031-.003.06.025.1-.06-.035.014.14.008.063.04.022-.015.046.028.068.027-.013.055.026.083.027-.005-.007.001-.044.013-.028-.002.016-.009.032-.006.048.03-.014.06.014.09.005-.035-.043.09-.071.122-.084-.009-.054.042-.053.02-.089.017.01.032.027.048.007-.01-.011-.028-.022-.02-.034.017-.01.036.028.054.014-.007-.014-.043-.028-.028-.042.013-.014.02-.009.021.007.018-.016.01-.033.006-.049-.012.01-.058.01-.048-.02.016.02.031.002.048.008.008-.034-.03-.025-.028-.055.02-.011.04.003.061-.008-.014-.028-.063.011-.055-.027.012.012.023.012.035.007-.007-.009-.02-.017-.014-.027.012.012.023.013.034.007-.007-.035-.02-.028-.022-.062.028-.017.01-.032.02-.049.008.01.014-.002.02 0-.013-.005-.026-.016-.04-.02.014-.01.014-.06.04-.028-.017.019-.024.003-.026.028.01 0 .02.012.031.02.01.002.02.014.031 0-.058-.023 0-.042-.001-.07-.01.008-.019-.003-.028-.012.03-.003.014-.047.027-.07-.025-.04-.056-.06-.077-.102.033.007.04.027.062.033-.003-.04.055 0 .076-.008-.037-.02-.008-.075-.056-.054.02.018-.008.038-.027.028-.026-.014-.009-.028-.028-.041-.016.011-.004.023-.007.035-.012-.014-.019-.028-.014-.042.033-.006.019-.056.054-.056-.007-.02-.043-.002-.027-.026.023.012.046.03.069.026-.017-.008-.01-.049-.036-.034.007.018-.045-.019-.061.008.038.038-.032.036-.02.09.01-.025-.047-.017-.035-.048.014.016.029.016.042 0-.015-.049-.003-.097-.01-.145.017.018.033.024.05.02-.023-.027-.036-.036-.036-.048.012-.015.023-.008.034-.021 0-.02-.062-.04-.035-.075 0 .016.017.032.035.048.012-.01.023-.028.034-.021.01.011.028.022.02.034l-.026-.028c-.032.044.01.068-.013.097.023-.03.046.002.069-.001 0-.029.016-.037-.008-.075.011.01.023.024.034.007-.055.004.002-.054.007-.035-.017-.06-.055-.03-.083-.068.025 0 .05-.019.075-.035-.01-.025-.017-.05-.008-.075.025.006.007-.026.027-.014-.009.034.04.119.002.11.046-.008.068.076.062.033-.007-.046-.065-.114-.015-.15 0 .035-.008.091.049.088-.006-.012-.006-.023.006-.034-.012-.015-.023-.008-.034-.02.046-.024-.015-.046.013-.07.024.033.053.032.04 0 .028.024.078-.001.084.053.026-.03-.027-.059-.008-.089.02-.015.04-.034.061-.034.018.013.025.027.015.04-.022-.015-.029.019-.062.008.013.032.042.041.083.055.057-.097-.05-.124-.051-.226-.019-.014-.037.011-.055-.014.02-.011-.01-.054.027-.042.011.024.005.05.042.041-.001-.038-.028-.039-.002-.069 0 .021.024.039.042.014a.048.048 0 0 1-.014-.027c-.03.014-.06.014-.09-.02.01-.04.033-.055.026-.083-.038.011-.047-.072-.007-.062.005.019.02.072.056.068 0-.023-.028-.046-.028-.069.032.01.065.048.097.054-.008.01 0 .019-.014.028-.014-.018-.028-.024-.041-.013.056.023.066.044.083.095.014-.036.029.019.042 0-.028-.034-.044-.025-.056-.055.042-.028.02-.056.026-.083.016.002.033.018.05.02.013-.018.026-.026.04-.028l-.034-.034c.028-.002.026-.046.026-.07.07-.02.05-.064.094-.138-.015-.061-.082-.051-.07-.11.028.034.092.034.096.013-.01.006-.022.006-.034-.007.025-.014.007-.027.027-.041-.061-.025-.041-.12-.097-.081.066.064-.028.05-.006.103-.007-.003-.014 0-.02.008a4.5 4.5 0 0 0-.035-.033c.047-.012-.004-.014.013-.042.011.012.023.012.034.006.013-.023 0-.045.013-.069-.028-.02-.056-.074-.083-.054-.003.021-.014.042-.006.063-.035-.045-.026.02-.034.035l-.028-.027-.04.041c.025.01.05.056.075.033-.01-.025-.053-.01-.041-.04.013-.024.028.037.041.013-.007-.008.003-.02.013-.014-.012.025.02.05.022.075-.015.01-.025.012-.04.001.019.02-.018.041.007.062.055-.01.074-.021.102-.036-.009.01.007.019.001.027-.023.04-.046.01-.068.041.011.015.022.009.034.021-.011.01-.023.001-.034.008.007.014.043.027.028.041-.022-.03-.042-.024-.063-.048.025-.018.02-.037.014-.055-.026.017-.028.03-.042.028a.048.048 0 0 0 0-.04c-.03-.011-.141.016-.075.047.014-.011.004-.022.006-.033.028.018.007.024-.006.034-.025.018-.077.033-.082.07.05.035.066.034.077.089-.037-.001-.11-.016-.124.015.025.002.014.063.036.089-.014-.016-.028-.016-.041 0 .008.016.05.032.035.048-.021-.038-.042.005-.062-.007-.018-.046-.04-.104-.01-.131-.013.028-.027-.002-.04-.013.01-.015.023-.008.034-.02-.06-.05-.08.04-.145-.034-.021-.022.015-.045.012-.068-.017.029-.036-.019-.054.014.019.054.015.066.008.117-.039-.025-.017-.05-.05-.075-.032.024.045.046.002.07-.026 0-.019-.017-.035-.035-.014.023.005.046.001.069.05-.005.06.022.076.061.05 0 .101.005.152.025.008.014.005.064-.013.056-.003-.018.007-.037-.015-.055-.02.025-.061.01-.062-.007-.026.017-.017.032-.033.048-.04-.007-.055-.024-.084-.04 0 .014.024.027.001.041-.041-.004-.083-.058-.124-.026-.024.02.037.003.013.028-.015.014-.03-.002-.047-.02.01-.006-.01-.008-.008-.02-.01-.012-.002.004-.013.013-.006.016.035.032.007.048-.03-.03-.084.041-.034.049-.023.014 0 .027-.013.041-.046-.056.001-.114-.022-.171-.018.009-.054-.01-.035-.034.02.018.054-.012.055.026.036-.035-.032-.034-.021-.075.03.02.06.012.09.033-.014-.011-.01-.023.006-.034-.014-.007-.029-.043-.042-.027.025.034-.056.012-.075.008-.03.028-.019.056-.054.084.035.028.04.086-.006.076a.918.918 0 0 0-.057-.11c.02-.03.041.018.062.007 0-.014.044-.087.013-.096.01.025-.024.069-.055.041.028-.047.015-.092.081-.083-.005.018-.01.037.015.055.039-.022.032-.045.048-.05.023.013.017.06.048.048.006-.026-.022-.077.013-.083-.026-.021-.05.021-.076.008.037-.016-.03-.032.006-.048.02.035.038-.001.056 0a.416.416 0 0 1-.059-.048c.018.012.034.025.05 0 .007-.019-.013-.038 0-.056.024.045.067-.02.07.026.028-.02 0-.04-.022-.06-.013.011-.026.041-.04.013.013-.025.026-.008.04-.027-.042-.026-.057-.077-.07-.11.016.013.032-.005.048-.008-.007-.02-.044-.002-.028-.027.014.006.015.006.042 0 .023.016 0 .068.035.061.002-.054-.045-.067-.016-.123.04-.006.009.058.049.034.005-.014-.026-.028-.014-.042-.016-.008-.022-.028-.035-.02-.006-.012-.005-.023.007-.035l.02.021c.01-.012.028-.023.02-.034l-.02.02-.028-.027c-.02.028-.04.03-.061.021.03-.03.061-.032.04-.07.03-.023.06.054.09.034-.012-.02-.017-.04.006-.062.014.006.028.043.042.027-.02-.027-.029-.054-.043-.081.019.01.038.052.056.04a.235.235 0 0 0-.001-.055c.022.054.07-.05.034-.035.01.01-.036.042-.048.009.043-.027.063-.076.123-.071l-.035-.034c-.021.06-.056-.004-.048-.034-.008.027-.036.059-.034.049-.002.01.026.02.021.034.001-.005-.025-.004-.028 0 .005-.007-.008.045-.019.09l-.02-.02c.024-.004.015-.052-.008-.076-.04.047-.052.034-.063-.007-.033.018-.002.037-.027.055.014.025.028.008.042.027-.018.003-.036.02-.055.015.014-.045-.052-.12.026-.124.003-.025-.06-.05-.022-.076.005.052.033-.007.041 0-.014.02.044.06-.005.061.03.02.058.005.076.047.013-.019.022-.036.013-.055-.026.03-.018-.011-.035-.02-.014.01-.007.027-.02.02-.003-.015.004-.031.006-.047.02 0 .042.037.062.007-.02-.064-.067-.095-.07-.165.028.021.03-.016.04-.041.03.019.059.011.089.045-.006-.011-.012-.022.007-.033a.252.252 0 0 1 .036.103c-.011.011-.023-.012-.034.008.02.028.057.047.05.089.013-.013.054-.025.04-.056-.011.011-.023.025-.035.008.044-.03.017-.058.014-.069-.018-.023.068-.026.02-.075-.026.007-.009.043-.028.027-.013-.024.017-.029-.008-.047.025.008.051.015.077.033l.054-.056c-.026-.015-.052-.046-.077-.033.02.03-.028.02-.047.034.004-.006-.009-.008-.02-.02-.028.016-.021.033-.021.049-.04-.047-.04.013-.062.007-.014-.036-.015-.006-.042-.026.018-.017.035-.01.021-.035-.014 0-.028.024-.042 0-.01-.02 0-.04.007-.062.04.021.047.082.076.062-.032-.026.018-.028.027-.042-.029-.018-.058-.005-.069 0-.013-.032-.011-.1.013-.11.013.012.009.023-.007.035.087.019.005-.079-.042-.082.003-.028.047-.012.04-.056-.014.024-.028-.036-.041-.012.045.028-.028.057-.027.055-.012-.023.058-.083-.001-.083.021.02-.01.07-.033.05.002-.017.018-.034.006-.05-.02.013-.076-.01-.056-.04.018-.002.037.015.055.013 0-.047-.035-.01-.055-.027.022-.022.045-.017.068-.029-.01.07.058-.01.096 0-.037-.032-.039-.035-.056-.082.034.026.041-.02.062-.021-.024.02.002.04-.006.061.025-.029.05.009.075-.022-.011-.012-.023-.018-.034-.02.03-.03-.003-.068.047-.062-.034-.042-.005-.045-.049-.075.01.007-.046-.008-.062-.034-.025.007-.008.044-.028.028-.006-.01-.003-.019 0-.027.012 0 .018-.003.028-.001.015.002.028-.001.041 0-.004-.008-.007-.006-.021-.02.042-.022-.017-.042.006-.063.012.009.02-.012.02-.021.012.012.024.02.035.02.031-.042.04-.083.026-.124-.016.002-.032.01-.048.008.06-.043-.047-.008-.07-.04.01-.012.028-.024.02-.035-.028.007-.037-.072-.075-.034.03.012.013.059-.007.05-.011-.021.005-.042-.007-.063-.03.015-.005.028-.013.042-.012-.015-.023-.008-.035-.02.03-.013.012-.06-.007-.048.009.009-.01.027-.021.02-.006-.016.011-.032-.007-.048-.008.016-.05.009-.035.035.019-.02.026.053-.006.034-.003-.037-.005-.068-.022-.089.04 0 .029.019.076.006-.007-.02.011-.041.034-.062-.038-.03.02-.027-.008-.062.019.02.037-.004.055 0 0-.03.014-.06.04-.07-.025-.026-.012-.033-.04-.028.006-.007 0-.014.005-.02.05.012-.016-.025.034-.05-.022-.035-.035-.048.006-.075-.024-.025 0-.05-.035-.075a.063.063 0 0 1-.035.008c-.01-.023-.034-.045-.015-.068.021.018-.003.036.015.054.008-.011.05.02.035-.007-.032 0 .023-.02.034-.035 0-.03-.013-.06-.036-.09-.01.009-.018.016-.027.002-.039.027-.005.08-.055.07a.07.07 0 0 0 .007-.035c-.018.019-.026.002-.028.027-.019-.02-.073-.017-.069-.04.033.011.066-.043.054-.07-.03 0-.016.024-.04.043 0-.038-.024-.013-.042-.014.01-.01.012-.02.014-.028.014-.006.027.026.04.014-.012-.018.031-.038.041-.056-.019-.015-.008-.052-.031-.055a.067.067 0 0 1 .024-.034c-.034-.014-.025-.002-.056-.027.05.013.013-.074.069-.042-.038-.076-.125-.03-.126-.122-.023.014-.046.041-.069.042 0-.051.012-.068.013-.11 0 .018.017.034.035.034.035-.014-.02-.028 0-.042.018-.003.036.02.055 0-.017-.023-.008-.046-.002-.07.009.01.002.02.015.028.009-.008.018-.02.027-.014.02-.03.007-.06.02-.09.028.034.05-.014.06-.036-.04.004-.04-.043-.075-.033.008-.009 0-.017.013-.027.003.018.01.024.028.013 0-.02.018-.049.034-.048-.019-.021-.037.004-.056-.014.051-.036-.029-.018-.014-.04.023-.017.046.012.07-.002-.015-.022.004-.022-.002-.054.036.038.03-.026.07-.001-.01-.034-.027-.095-.078-.088.012-.034.02-.042.033-.063-.025-.035-.05.022-.075.008.011-.015-.015-.008-.007-.02v-.002c.02.011.002-.02.027-.014-.027-.064.024-.091.047-.131-.085-.048-.083.066-.165.043.008-.02.024-.042.006-.062zm-1.889.272l.027.027c-.016.02-.031.003-.047-.007l.02-.02zm1.927 1.55c.032.02.064.001.096.013-.047.016-.017.003-.006.035.01.014.022-.005.032-.002.002.015-.013.05-.037.06-.002-.005-.01.001-.008-.004-.012-.013-.059.011-.048.021-.016.013-.01-.028-.035-.02-.015-.02.026-.003.034.007.016-.018.032-.035.049-.021-.002-.06-.054-.062-.077-.088zm.174.184c.011.014.014.03.012.044-.028-.008-.07.016-.031.046.009.02-.041-.024-.055 0-.02-.011.002-.023-.008-.034.011-.008.023.012.035.02.004-.016-.003-.031-.021-.047.023.012.046.005.068-.03zm.049.034c.017.026.009.018.035.034l-.027.027c0-.02-.032-.04-.008-.061zm-1.275.336c.014.012.022.025.013.037-.027-.022-.008.043-.034.02-.005-.018.011-.038.021-.057zm1.121.071v.001a.07.07 0 0 0 .015.014c-.025.011-.012.058-.041.027.026 0 .01-.016.006-.034.007-.004.014 0 .02-.008zm-1.864.06c.034 0 .07.045.103.005.014.01.028.041.041.013.007.027-.004.036-.006.049-.025 0-.05-.016-.076-.006-.01.016.022.031-.006.048-.047-.03-.053.026-.074.035-.03-.017-.017-.036-.043-.054.014-.017.028.02.042.026-.02-.037.033-.09.075-.063.014-.047-.044 0-.056-.054zm1.955.016c.013.011.007.023.021.034-.016.004-.032.022-.048-.007.025-.002.009-.01.027-.027zm-1.17.015c.005-.012.053.042.014.014-.006.006.004.013.008.02-.01.004-.021.002-.031-.006.006-.01.02-.019.01-.028zm1.071.134c.005.004 0 .026.019.03-.06.013.012.051-.027.083.001-.023.004-.046-.028-.068.028-.008.048-.012.027-.042.005-.004.008-.005.01-.003zm.058.1c.015.006.03.042.044.012l.021.02c-.026.034-.053-.018-.08-.025.005-.008.01-.01.015-.007zm-.08.013c.003.01.005.02.015.028-.011.014-.023.007-.034.02a.046.046 0 0 1-.01-.029c.01.003.02-.01.03-.019zm-.061.022c.025.005.009.043.028.027.017.05-.059-.036-.041.014-.034.012-.003-.05.013-.041zm-.047.159c.008.023.001.046.015.068-.02-.013-.04-.04-.076-.033.02 0 .027-.017.007-.034.022-.007.023.051.054-.001zm.05.075c.011-.008.023.012.035.02-.018.014-.037.016-.055.042-.012-.013.018-.027 0-.04.01-.007.022-.007.034.006.007-.01-.007-.018-.014-.027zm-2.96.04c.02.037-.022.046-.005.075-.007.004-.014 0-.02.007l-.015-.014c.029-.023.016-.046.013-.068.009-.006.019.008.028 0zm2.444 0c-.018.022.035.041.008.062l-.035-.034c-.015.042-.025.001-.04.042-.037-.024-.037-.056 0-.013.005-.03.023-.018.033-.049.012.017.023.003.034-.008zm.71.063c.01 0 .018.005.028.018-.012.012-.012.023-.006.034-.04.018-.009-.03-.05-.034.01-.012.02-.018.028-.018zm-.102.232c.006.013 0 .062.024.076-.027.02-.037-.015-.049-.034.01-.014.04-.027.013-.04.007-.007.01-.007.012-.002zm-.734.02a.051.051 0 0 1 .02.018c-.029.008-.018.027-.048.035-.007-.012.012-.024.02-.035l-.013-.014a.02.02 0 0 1 .02-.003zm-.247.083c.024-.01.05.017.042.041.017.01.033.003.05.016a.05.05 0 0 0-.03.005c-.007.014.012.005.021.02-.009.007-.01.014-.006.02-.045-.01-.03-.086-.077-.1zm.083.026c.013-.016.028.02.042.027-.008.01-.016.004-.024.004 0-.01-.01-.02-.018-.03zm.613.082c-.001.066.026-.02.07.027-.01.007-.054-.001-.041.027-.032.021-.057-.033-.029-.054zm.168.163c.012.03.004.06.05.09-.057-.004-.05-.051-.078-.09.01-.005.019.009.028 0zm.93.023c.008.009.018.018.028.026-.02.012-.055.015-.056-.013.01-.002.018-.004.027-.013zm-.18.002a.064.064 0 0 1 .042.027c-.017.018-.017.036 0 .055-.022.006-.012.023-.015.034.017-.001.034.002.05 0 .005.006 0 .013.008.02l-.014.014c-.015-.025-.03-.012-.045-.031-.001.012-.014.02-.017.04-.052-.037.007-.075-.042-.11.04-.014 0-.022.033-.049zm-.839.051v.001c.01.01.02.02.028.014.007.005.004.01 0 .014-.022.02-.005.04.008.061-.037.013-.019.022-.034.049-.04-.01-.046-.023-.07-.054.04-.004.037.006.076.005.008-.023-.041-.046-.056-.068.016-.01.033.006.048-.022zm-.178.072c.026.018-.005.036.028.054-.01.001-.029.01-.02.021-.015.002-.017-.054-.008-.075zm.14.093c.011.001.022.009.034.021-.007.01-.014.011-.02.008-.007.007.002.014.006.02-.015.012-.031-.008-.047.021-.005-.007 0-.014-.007-.02.048-.009.009-.012.034-.049zm-.221.018c.031.018-.008.037 0 .054.027.017.028-.01.042-.028.016.026.008.018.035.034 0-.011.007-.022.02-.034.014.016-.002.032-.02.048-.026-.014-.05.002-.076-.005-.026-.008.005-.049-.021-.034-.007-.012.011-.023.02-.035zm.235.051c.035-.004.03.022.069.04-.015.024-.055.058-.013.097-.008 0-.048-.007-.034.022-.011.003-.023-.01-.034.008-.023-.03-.046-.02-.07-.054.032-.019.066.067.097.012-.016-.01-.032-.002-.048-.02.05.009.016-.045.061-.035.004-.012-.039-.03.006-.034-.026-.016-.017-.008-.034-.034zm-1.246.038c.01.032-.028.027.022.048-.02.023-.041.006-.062-.007-.01-.025.042-.013.013-.04.01-.006.018.008.027-.001zm-.536.135c.012 0 .024.018.036.002.006.01-.004.01-.007.007-.031.014.017.027-.013.041-.025-.013-.01-.027-.028-.04.004-.007.008-.01.012-.01zm1.56.018a.03.03 0 0 1 .025.012c-.009.006-.011.014-.007.02-.014.017-.028-.02-.042-.026v-.001c.008-.002.017-.005.025-.005zm-.682.221c.002.014.01.027.029.04a.05.05 0 0 0-.028.015c-.013-.018-.028-.036 0-.055zm-.122.126c.014-.005.015.021.042.027-.007.007-.014-.003-.02-.007-.03.02-.068.081-.125.03v-.001c.03-.012.097-.006.103-.05z" fill="#a02c2c" fill-rule="evenodd"/><path d="M6.783.282a5.624 5.666 0 0 0-2.186.445l.002.003a5.664 5.664 0 0 0-.517.245L4.075.968 3.483.376a6.47 6.47 0 0 0-2.288 2.287l.422.422.177.177a5.664 5.664 0 0 0-.443 1.065H.503a6.469 6.469 0 0 0-.21 1.618 6.48 6.48 0 0 0 .215 1.618h.845a5.664 5.664 0 0 0 .441 1.065l-.177.177-.422.422a6.472 6.472 0 0 0 2.288 2.288l.422-.421.177-.177a5.664 5.664 0 0 0 1.065.443v.847a6.47 6.47 0 0 0 1.618.211 6.46 6.46 0 0 0 1.618-.21v-.848a5.664 5.664 0 0 0 1.065-.443l.177.177.422.421a6.472 6.472 0 0 0 2.288-2.288l-.422-.422-.177-.177a5.664 5.664 0 0 0 .294-.65l.008-.016a5.624 5.666 0 0 0 .37-2.014A5.624 5.666 0 0 0 6.783.282zm-.017.58v.003A5.045 5.081 0 0 1 7.27.89a5.045 5.081 0 0 1 .498.076 5.045 5.081 0 0 1 .488.126 5.045 5.081 0 0 1 .474.175 5.045 5.081 0 0 1 .454.22 5.045 5.081 0 0 1 .43.266 5.045 5.081 0 0 1 .401.307 5.045 5.081 0 0 1 .37.347 5.045 5.081 0 0 1 .332.38 5.045 5.081 0 0 1 .294.415 5.045 5.081 0 0 1 .25.44 5.045 5.081 0 0 1 .206.464 5.045 5.081 0 0 1 .159.482 5.045 5.081 0 0 1 .11.495 5.045 5.081 0 0 1 .06.505 5.045 5.081 0 0 1 .014.358 5.045 5.081 0 0 1-.026.507 5.045 5.081 0 0 1-.075.503 5.045 5.081 0 0 1-.125.491 5.045 5.081 0 0 1-.025.072 5.045 5.081 0 0 1-.028.075 5.053 5.053 0 0 1-.083.23 5.045 5.081 0 0 1-.037.1 5.045 5.081 0 0 1-.12.251 5.053 5.053 0 0 1-.03.064 5.045 5.081 0 0 1-.07.143 5.045 5.081 0 0 1-.262.433 5.045 5.081 0 0 1-.045.06l.049.049.547.548h.003a5.9 5.9 0 0 1-1.19 1.193l-.003-.003-.548-.548-.043-.042a5.045 5.081 0 0 1-.208.15 5.045 5.081 0 0 1-.437.253 5.045 5.081 0 0 1-.46.207 5.045 5.081 0 0 1-.479.16 5.045 5.081 0 0 1-.492.112 5.045 5.081 0 0 1-.016.001V11.778c-.279.04-.56.062-.842.062-.282 0-.563-.02-.842-.062V10.95a5.045 5.081 0 0 1-.16-.024 5.045 5.081 0 0 1-.488-.125 5.045 5.081 0 0 1-.474-.174 5.045 5.081 0 0 1-.454-.221 5.045 5.081 0 0 1-.43-.266 5.045 5.081 0 0 1-.088-.067l-.041.04-.547.548-.004.003A5.919 5.919 0 0 1 2.048 9.47v-.001l.549-.547.05-.052a5.045 5.081 0 0 1-.127-.179 5.045 5.081 0 0 1-.141-.249 5.045 5.081 0 0 1-.11-.191 5.045 5.081 0 0 1-.087-.197 5.053 5.053 0 0 1-.06-.132 5.045 5.081 0 0 1-.059-.134 5.045 5.081 0 0 1-.042-.132 5.053 5.053 0 0 1-.093-.28 5.045 5.081 0 0 1-.024-.07 5.045 5.081 0 0 1-.016-.074 5.053 5.053 0 0 1-.001-.004 5.053 5.053 0 0 1-.102-.442h-.85a5.913 5.913 0 0 1-.065-.841c0-.283.022-.564.063-.842h.855a5.053 5.053 0 0 1 .023-.106 5.045 5.081 0 0 1 .01-.063 5.045 5.081 0 0 1 .034-.136 5.053 5.053 0 0 1 .069-.27 5.045 5.081 0 0 1 .022-.085 5.045 5.081 0 0 1 .067-.187 5.053 5.053 0 0 1 .065-.178 5.045 5.081 0 0 1 .04-.113 5.045 5.081 0 0 1 .119-.246 5.053 5.053 0 0 1 .035-.073 5.045 5.081 0 0 1 .066-.138 5.045 5.081 0 0 1 .264-.433 5.045 5.081 0 0 1 .044-.06l-.05-.047-.547-.548-.003-.002c.339-.452.74-.853 1.193-1.19l.001.001.548.548.042.042a5.045 5.081 0 0 1 .21-.15 5.045 5.081 0 0 1 .437-.253 5.045 5.081 0 0 1 .46-.208 5.045 5.081 0 0 1 .114-.038 5.045 5.081 0 0 1 .364-.122 5.045 5.081 0 0 1 .118-.026 5.045 5.081 0 0 1 .004-.001 5.045 5.081 0 0 1 .37-.084 5.045 5.081 0 0 1 .107-.013 5.045 5.081 0 0 1 .066-.01 5.045 5.081 0 0 1 .328-.039A5.045 5.081 0 0 1 6.524.87a5.045 5.081 0 0 1 .04 0A5.045 5.081 0 0 1 6.766.86zm-.001.558a4.493 4.526 0 0 0-4.494 4.526 4.493 4.526 0 0 0 .018.352H3.625a3.162 3.185 0 0 0 3.14 2.833 3.162 3.185 0 0 0 2.237-.937l-.471-.471a2.498 2.516 0 0 1-1.766.74 2.498 2.516 0 0 1-2.47-2.165h6.341a3.888 3.917 0 0 1-3.87 3.565A3.888 3.917 0 0 1 3.01 6.947l-.587.15a4.493 4.526 0 0 0 4.341 3.375 4.493 4.526 0 0 0 4.494-4.526 4.493 4.526 0 0 0-.015-.307H4.288A2.498 2.516 0 0 1 6.765 3.43a2.498 2.516 0 0 1 1.778.75l.47-.47a3.162 3.185 0 0 0-2.248-.949A3.162 3.185 0 0 0 3.621 5.64h-.73a3.888 3.917 0 0 1 3.875-3.61 3.888 3.917 0 0 1 3.758 2.929l.583-.156A4.493 4.526 0 0 0 6.765 1.42z" fill="#1c1c1c"/></svg>