<svg xmlns="http://www.w3.org/2000/svg" width="48" height="48" viewBox="0 0 12.7 12.7"><path d="M6.798.078a5.813 5.857 0 0 0-2.26.46l.001.003a5.854 5.854 0 0 0-.534.253L4 .787 3.387.174A6.688 6.688 0 0 0 1.022 2.54l.436.436.183.183a5.854 5.854 0 0 0-.458 1.101H.306a6.687 6.687 0 0 0-.217 1.673c.003.564.077 1.126.222 1.672h.874a5.854 5.854 0 0 0 .456 1.1l-.183.184-.436.436a6.69 6.69 0 0 0 2.365 2.365l.436-.436.183-.183a5.854 5.854 0 0 0 1.1.458v.876a6.69 6.69 0 0 0 1.673.218 6.71 6.71 0 0 0 1.673-.218v-.876a5.854 5.854 0 0 0 1.1-.458l.183.183.437.436a6.69 6.69 0 0 0 2.364-2.365l-.436-.436-.183-.183a5.854 5.854 0 0 0 .304-.674l.008-.015a5.813 5.857 0 0 0 .382-2.082A5.813 5.857 0 0 0 6.798.078z" fill="#a02c2c"/><path d="M6.78 1.253A4.645 4.678 0 0 0 2.133 5.93a4.645 4.678 0 0 0 .018.365h8.628a4.019 4.048 0 0 1-4 3.684 4.019 4.048 0 0 1-3.882-3.013l-.606.154a4.645 4.678 0 0 0 4.487 3.49 4.645 4.678 0 0 0 4.645-4.68 4.645 4.678 0 0 0-.016-.316H2.774A4.019 4.048 0 0 1 6.78 1.883a4.019 4.048 0 0 1 3.884 3.027l.603-.16A4.645 4.678 0 0 0 6.78 1.253z" fill="#fff"/><path d="M6.78 2.64A3.268 3.292 0 0 0 3.51 5.93a3.268 3.292 0 0 0 3.27 3.293 3.268 3.292 0 0 0 2.311-.969l-.487-.487a2.582 2.6 0 0 1-1.825.764 2.582 2.6 0 0 1-2.582-2.6A2.582 2.6 0 0 1 6.779 3.33a2.582 2.6 0 0 1 1.838.775l.485-.485A3.268 3.292 0 0 0 6.78 2.64z" fill="#1a1a1a"/></svg>