<?xml version="1.0" encoding="UTF-8" standalone="no"?>
<!-- Created with Inkscape (http://www.inkscape.org/) -->

<svg
   xmlns:dc="http://purl.org/dc/elements/1.1/"
   xmlns:cc="http://creativecommons.org/ns#"
   xmlns:rdf="http://www.w3.org/1999/02/22-rdf-syntax-ns#"
   xmlns:svg="http://www.w3.org/2000/svg"
   xmlns="http://www.w3.org/2000/svg"
   xmlns:xlink="http://www.w3.org/1999/xlink"
   xmlns:sodipodi="http://sodipodi.sourceforge.net/DTD/sodipodi-0.dtd"
   xmlns:inkscape="http://www.inkscape.org/namespaces/inkscape"
   width="48"
   height="48"
   viewBox="0 0 12.7 12.7"
   version="1.1"
   id="svg882"
   inkscape:version="0.92.4 (5da689c313, 2019-01-14)"
   sodipodi:docname="SCPlasmaThemeLogo.svg">
  <defs
     id="defs876">
    <linearGradient
       gradientTransform="matrix(0.81510871,0,0,0.81510871,1.5730334,285.07069)"
       inkscape:collect="always"
       xlink:href="#linearGradient848"
       id="linearGradient821-9"
       x1="4.3866181"
       y1="13.293493"
       x2="6.4211688"
       y2="4.4840708"
       gradientUnits="userSpaceOnUse" />
    <linearGradient
       inkscape:collect="always"
       id="linearGradient848">
      <stop
         style="stop-color:#0b280b;stop-opacity:1"
         offset="0"
         id="stop844" />
      <stop
         style="stop-color:#2ca02c;stop-opacity:1"
         offset="1"
         id="stop846" />
    </linearGradient>
  </defs>
  <sodipodi:namedview
     id="base"
     pagecolor="#ffffff"
     bordercolor="#666666"
     borderopacity="1.0"
     inkscape:pageopacity="0.0"
     inkscape:pageshadow="2"
     inkscape:zoom="10.8125"
     inkscape:cx="24"
     inkscape:cy="24"
     inkscape:document-units="mm"
     inkscape:current-layer="layer1"
     showgrid="false"
     units="px"
     showguides="true"
     inkscape:guide-bbox="true"
     inkscape:snap-bbox="true"
     inkscape:snap-smooth-nodes="true"
     inkscape:window-width="1366"
     inkscape:window-height="707"
     inkscape:window-x="0"
     inkscape:window-y="0"
     inkscape:window-maximized="1" />
  <metadata
     id="metadata879">
    <rdf:RDF>
      <cc:Work
         rdf:about="">
        <dc:format>image/svg+xml</dc:format>
        <dc:type
           rdf:resource="http://purl.org/dc/dcmitype/StillImage" />
        <dc:title></dc:title>
      </cc:Work>
    </rdf:RDF>
  </metadata>
  <g
     inkscape:label="Capa 1"
     inkscape:groupmode="layer"
     id="layer1"
     transform="translate(0,-284.29998)">
    <path
       style="fill:#1c1c1c;fill-opacity:1;stroke:none;stroke-width:0.15009965"
       d="m 6.7473747,284.97557 a 5.2201289,5.2580448 0 0 1 0.5212349,0.0263 5.2201289,5.2580448 0 0 1 0.5157745,0.0784 5.2201289,5.2580448 0 0 1 0.5053493,0.13005 5.2201289,5.2580448 0 0 1 0.4904561,0.18024 5.2201289,5.2580448 0 0 1 0.4696091,0.22887 5.2201289,5.2580448 0 0 1 0.4447867,0.27451 5.2201289,5.2580448 0 0 1 0.4154997,0.31817 5.2201289,5.2580448 0 0 1 0.381743,0.35838 5.2201289,5.2580448 0 0 1 0.344014,0.39468 5.2201289,5.2580448 0 0 1 0.303803,0.42792 5.2201289,5.2580448 0 0 1 0.259627,0.45568 5.2201289,5.2580448 0 0 1 0.212957,0.48005 5.2201289,5.2580448 0 0 1 0.164317,0.49888 5.2201289,5.2580448 0 0 1 0.114175,0.51281 5.2201289,5.2580448 0 0 1 0.06254,0.52177 5.2201289,5.2580448 0 0 1 0.01345,0.3708 5.2201289,5.2580448 0 0 1 -0.0263,0.52471 5.2201289,5.2580448 0 0 1 -0.07795,0.51975 5.2201289,5.2580448 0 0 1 -0.128572,0.50928 5.2201289,5.2580448 0 0 1 -0.02683,0.0735 5.2201289,5.2580448 0 0 1 -0.02826,0.0782 5.228443,5.228443 0 0 1 -0.08638,0.23728 5.2201289,5.2580448 0 0 1 -0.03768,0.10464 5.2201289,5.2580448 0 0 1 -0.124102,0.25861 5.228443,5.228443 0 0 1 -0.03227,0.0668 5.2201289,5.2580448 0 0 1 -0.07044,0.14746 5.2201289,5.2580448 0 0 1 -0.272538,0.44829 5.2201289,5.2580448 0 0 1 -0.04667,0.062 l 0.05065,0.0505 0.566904,0.56695 0.0019,9.5e-4 c -0.349375,0.46822 -0.763276,0.88375 -1.230613,1.23412 l -0.0033,-0.003 -0.5669022,-0.56693 -0.044181,-0.0436 a 5.2201289,5.2580448 0 0 1 -0.2154448,0.1554 5.2201289,5.2580448 0 0 1 -0.4522333,0.26164 5.2201289,5.2580448 0 0 1 -0.4765575,0.21449 5.2201289,5.2580448 0 0 1 -0.494924,0.16622 5.2201289,5.2580448 0 0 1 -0.5093215,0.1152 5.2201289,5.2580448 0 0 1 -0.016873,0.002 v 0.0445 0.80272 0.003 c -0.2884799,0.0421 -0.5788933,0.0643 -0.8712072,0.0645 -0.2923128,-3.7e-4 -0.582719,-0.0223 -0.8712063,-0.0644 v -0.003 -0.80367 -0.0498 a 5.2201289,5.2580448 0 0 1 -0.164841,-0.0248 5.2201289,5.2580448 0 0 1 -0.5058474,-0.12959 5.2201289,5.2580448 0 0 1 -0.4899595,-0.18023 5.2201289,5.2580448 0 0 1 -0.4701055,-0.22881 5.2201289,5.2580448 0 0 1 -0.4447879,-0.27457 5.2201289,5.2580448 0 0 1 -0.091838,-0.0699 l -0.042193,0.0421 -0.5664058,0.56697 -0.0035,0.003 C 2.628519,294.76554 2.2143375,294.34989 1.865192,293.88161 l 9.581e-4,-9.4e-4 0.5674042,-0.5664 0.052636,-0.0529 a 5.2201289,5.2580448 0 0 1 -0.1320399,-0.18559 5.2201289,5.2580448 0 0 1 -0.1464411,-0.25763 5.2201289,5.2580448 0 0 1 -0.1131833,-0.19809 5.2201289,5.2580448 0 0 1 -0.090335,-0.2035 5.228443,5.228443 0 0 1 -0.061044,-0.137 5.2201289,5.2580448 0 0 1 -0.061564,-0.13904 5.2201289,5.2580448 0 0 1 -0.044677,-0.13551 5.228443,5.228443 0 0 1 -0.095799,-0.2894 5.2201289,5.2580448 0 0 1 -0.024314,-0.0737 5.2201289,5.2580448 0 0 1 -0.016874,-0.0759 5.228443,5.228443 0 0 1 -9.582e-4,-0.003 5.228443,5.228443 0 0 1 -0.1062294,-0.4572 h -0.074914 -0.80121393 -0.003028 c -0.0425207,-0.28793 -0.0659612,-0.5794 -0.0670032,-0.8712 4.3912e-4,-0.29232 0.02246,-0.58274 0.0645314,-0.87122 h 0.003988 0.80270303 0.078923 a 5.228443,5.228443 0 0 1 0.023829,-0.1087 5.2201289,5.2580448 0 0 1 0.00982,-0.065 5.2201289,5.2580448 0 0 1 0.03575,-0.14151 5.228443,5.228443 0 0 1 0.070989,-0.28047 5.2201289,5.2580448 0 0 1 0.022326,-0.0876 5.2201289,5.2580448 0 0 1 0.070007,-0.19317 5.228443,5.228443 0 0 1 0.066519,-0.18461 5.2201289,5.2580448 0 0 1 0.042194,-0.11618 5.2201289,5.2580448 0 0 1 0.1226149,-0.25466 5.228443,5.228443 0 0 1 0.03575,-0.0754 5.2201289,5.2580448 0 0 1 0.069001,-0.14299 5.2201289,5.2580448 0 0 1 0.2725318,-0.44827 5.2201289,5.2580448 0 0 1 0.04567,-0.0616 l -0.050141,-0.0503 -0.5669053,-0.5664 -0.00292,-0.003 c 0.3503846,-0.46727 0.7658431,-0.88194 1.2340844,-1.23109 l 9.582e-4,9.5e-4 0.5669034,0.56696 0.043683,0.0436 a 5.2201289,5.2580448 0 0 1 0.2164356,-0.15591 5.2201289,5.2580448 0 0 1 0.4527303,-0.26156 5.2201289,5.2580448 0 0 1 0.4765549,-0.21451 5.2201289,5.2580448 0 0 1 0.1181496,-0.0397 5.2201289,5.2580448 0 0 1 0.3767791,-0.12606 5.2201289,5.2580448 0 0 1 0.1216201,-0.0272 5.2201289,5.2580448 0 0 1 0.00412,-9.6e-4 5.2201289,5.2580448 0 0 1 0.3837277,-0.0871 5.2201289,5.2580448 0 0 1 0.1097061,-0.0137 5.2201289,5.2580448 0 0 1 0.069002,-0.008 5.2201289,5.2580448 0 0 1 0.3390507,-0.0412 5.2201289,5.2580448 0 0 1 0.1196397,-0.004 5.2201289,5.2580448 0 0 1 0.042193,-9.6e-4 5.2201289,5.2580448 0 0 1 0.2084949,-0.007 z"
       id="path1048-3"
       inkscape:connector-curvature="0" />
    <path
       style="fill:#ebebeb;fill-opacity:1;stroke:none;stroke-width:0.15009965"
       d="m 2.5381923,294.51183 c 0.20162,0.20088 0.3730672,0.43192 0.6014898,0.603 l 0.0034,-0.003 0.5661672,-0.56667 0.042291,-0.0423 a 5.2201289,5.2580448 0 0 0 0.091547,0.0693 5.2201289,5.2580448 0 0 0 0.4447734,0.27463 5.2201289,5.2580448 0 0 0 0.4701481,0.22885 5.2201289,5.2580448 0 0 0 0.4900475,0.18011 5.2201289,5.2580448 0 0 0 0.5059674,0.12984 5.2201289,5.2580448 0 0 0 0.1646764,0.0248 v 0.0494 0.80398 0.003 c 0.2884862,0.042 0.5788278,0.0644 0.8711397,0.0646 0.292314,-4e-4 0.5831587,-0.0228 0.8716373,-0.0649 v -0.003 -0.80298 -0.0448 a 5.2201289,5.2580448 0 0 0 0.016413,-0.002 5.2201289,5.2580448 0 0 0 0.50945,-0.11545 5.2201289,5.2580448 0 0 0 0.4950233,-0.16615 5.2201289,5.2580448 0 0 0 0.4766142,-0.21443 5.2201289,5.2580448 0 0 0 0.4522371,-0.2617 5.2201289,5.2580448 0 0 0 0.2154216,-0.15572 l 0.044278,0.0441 0.5666647,0.56666 0.0036,0.003 c 0.467335,-0.35037 0.880966,-0.76611 1.230343,-1.23432 l -0.002,-9.5e-4 -0.566665,-0.56664 -0.05077,-0.0505 a 5.2201289,5.2580448 0 0 0 0.04678,-0.0619 5.2201289,5.2580448 0 0 0 0.272638,-0.44825 5.2201289,5.2580448 0 0 0 0.07015,-0.14726 5.228443,5.228443 0 0 0 0.03233,-0.0669 5.2201289,5.2580448 0 0 0 0.124377,-0.25873 5.2201289,5.2580448 0 0 0 0.03733,-0.10435 5.228443,5.228443 0 0 0 0.08659,-0.2373 5.2201289,5.2580448 0 0 0 0.02836,-0.0782 5.2201289,5.2580448 0 0 0 0.02685,-0.0737 5.2201289,5.2580448 0 0 0 0.128356,-0.50893 5.2201289,5.2580448 0 0 0 0.07812,-0.51988 5.2201289,5.2580448 0 0 0 0.02637,-0.5249 5.2201289,5.2580448 0 0 0 -0.01346,-0.37063 5.2201289,5.2580448 0 0 0 -0.06272,-0.52191 5.2201289,5.2580448 0 0 0 -0.113933,-0.51292 5.2201289,5.2580448 0 0 0 -0.164674,-0.49853 5.2201289,5.2580448 0 0 0 -0.212936,-0.48005 5.2201289,5.2580448 0 0 0 -0.2597,-0.45575 5.2201289,5.2580448 0 0 0 -0.303481,-0.42783 5.2201289,5.2580448 0 0 0 -0.344278,-0.39506 5.2201289,5.2580448 0 0 0 -0.02786,-0.0267 z"
       id="path1666"
       inkscape:connector-curvature="0" />
    <path
       style="fill:url(#linearGradient821-9);fill-opacity:1;stroke:none;stroke-width:0.12634173"
       d="m 6.7649382,285.72676 a 4.4888031,4.5214079 0 0 0 -4.489774,4.52139 4.4888031,4.5214079 0 0 0 0.017721,0.35221 h 0.605729 7.7331078 a 3.8842375,3.9124499 0 0 1 -3.8663142,3.56106 3.8842375,3.9124499 0 0 1 -3.751303,-2.9122 l -0.5860807,0.14906 a 4.4888031,4.5214079 0 0 0 4.3369036,3.37224 4.4888031,4.5214079 0 0 0 4.4888193,-4.52237 4.4888031,4.5214079 0 0 0 -0.01536,-0.30573 h -0.60283 -7.7407798 a 3.8842375,3.9124499 0 0 1 3.8706288,-3.60659 3.8842375,3.9124499 0 0 1 3.754179,2.92563 l 0.582726,-0.15529 a 4.4888031,4.5214079 0 0 0 -4.3373822,-3.37941 z"
       id="path1543"
       inkscape:connector-curvature="0" />
    <path
       style="fill:#1c1c1c;fill-opacity:1;stroke:none;stroke-width:0.54765165"
       d="M 25.636719 1.09375 L 25.636719 1.0996094 A 21.234752 21.393747 0 0 0 17.380859 2.78125 L 17.386719 2.7890625 A 21.383056 21.383056 0 0 0 15.435547 3.7109375 L 15.412109 3.6894531 L 13.175781 1.453125 C 9.6111334 3.5549581 6.6408729 6.5251067 4.5390625 10.089844 L 6.1289062 11.683594 L 6.7988281 12.353516 A 21.383056 21.383056 0 0 0 5.1269531 16.373047 L 5.0859375 16.373047 L 1.9238281 16.373047 C 1.4026004 18.367957 1.1346292 20.420614 1.1289062 22.482422 C 1.1412615 24.545023 1.4121598 26.597756 1.9394531 28.591797 L 5.0976562 28.591797 L 5.1347656 28.591797 A 21.383056 21.383056 0 0 0 6.7988281 32.611328 L 6.1289062 33.28125 L 4.5390625 34.871094 C 5.5655043 36.611944 6.811267 38.200786 8.2207031 39.626953 L 9.59375 38.595703 L 8.2207031 39.628906 C 9.6973113 41.123029 11.353881 42.438434 13.177734 43.513672 L 14.769531 41.919922 L 15.4375 41.253906 A 21.383056 21.383056 0 0 0 19.458984 42.923828 L 19.458984 43.867188 L 19.458984 46.126953 C 21.453839 46.648188 23.506544 46.916206 25.568359 46.921875 C 27.630172 46.914316 29.682879 46.647243 31.677734 46.126953 L 31.677734 43.867188 L 31.677734 42.923828 A 21.383056 21.383056 0 0 0 35.699219 41.253906 L 36.365234 41.919922 L 37.960938 43.513672 C 41.525667 41.411952 44.497814 38.437746 46.599609 34.873047 L 45.003906 33.28125 L 44.335938 32.613281 A 21.383056 21.383056 0 0 0 45.445312 30.152344 L 45.478516 30.095703 A 21.234752 21.393747 0 0 0 46.871094 22.490234 A 21.234752 21.393747 0 0 0 40.726562 7.4648438 L 40.726562 7.4628906 A 21.234752 21.393747 0 0 0 25.636719 1.09375 z M 25.570312 3.2949219 A 19.046096 19.184438 0 0 1 27.472656 3.3925781 A 19.046096 19.184438 0 0 1 29.353516 3.6796875 A 19.046096 19.184438 0 0 1 31.199219 4.1542969 A 19.046096 19.184438 0 0 1 32.986328 4.8125 A 19.046096 19.184438 0 0 1 34.699219 5.6464844 A 19.046096 19.184438 0 0 1 36.322266 6.6484375 A 19.046096 19.184438 0 0 1 37.839844 7.8105469 A 19.046096 19.184438 0 0 1 39.150391 9.0390625 L 39.150391 9.0410156 A 19.046096 19.184438 0 0 1 39.230469 9.1171875 A 19.046096 19.184438 0 0 1 40.488281 10.558594 A 19.046096 19.184438 0 0 1 41.595703 12.119141 A 19.046096 19.184438 0 0 1 42.542969 13.783203 A 19.046096 19.184438 0 0 1 43.318359 15.533203 A 19.046096 19.184438 0 0 1 43.919922 17.353516 A 19.046096 19.184438 0 0 1 44.335938 19.224609 A 19.046096 19.184438 0 0 1 44.564453 21.126953 A 19.046096 19.184438 0 0 1 44.613281 22.480469 A 19.046096 19.184438 0 0 1 44.517578 24.394531 A 19.046096 19.184438 0 0 1 44.232422 26.292969 A 19.046096 19.184438 0 0 1 43.763672 28.150391 A 19.046096 19.184438 0 0 1 43.664062 28.417969 A 19.046096 19.184438 0 0 1 43.5625 28.705078 A 19.07643 19.07643 0 0 1 43.248047 29.570312 A 19.046096 19.184438 0 0 1 43.109375 29.951172 A 19.046096 19.184438 0 0 1 42.65625 30.896484 A 19.07643 19.07643 0 0 1 42.539062 31.138672 A 19.046096 19.184438 0 0 1 42.28125 31.677734 A 19.046096 19.184438 0 0 1 41.289062 33.3125 A 19.046096 19.184438 0 0 1 41.117188 33.537109 L 41.300781 33.724609 L 43.369141 35.792969 L 43.376953 35.794922 C 42.102232 37.503117 40.591826 39.01845 38.886719 40.296875 L 38.875 40.287109 L 36.806641 38.21875 L 36.646484 38.058594 A 19.046096 19.184438 0 0 1 35.859375 38.626953 A 19.046096 19.184438 0 0 1 34.210938 39.582031 A 19.046096 19.184438 0 0 1 32.470703 40.363281 A 19.046096 19.184438 0 0 1 30.664062 40.96875 A 19.046096 19.184438 0 0 1 28.806641 41.390625 A 19.046096 19.184438 0 0 1 28.744141 41.398438 L 28.744141 41.560547 L 28.744141 44.490234 L 28.744141 44.501953 C 27.691597 44.656914 26.632938 44.73595 25.566406 44.736328 C 24.499878 44.734627 23.441242 44.656536 22.388672 44.501953 L 22.388672 44.490234 L 22.388672 41.556641 L 22.388672 41.376953 A 19.046096 19.184438 0 0 1 21.787109 41.287109 A 19.046096 19.184438 0 0 1 19.941406 40.814453 A 19.046096 19.184438 0 0 1 18.152344 40.15625 A 19.046096 19.184438 0 0 1 16.4375 39.320312 A 19.046096 19.184438 0 0 1 14.814453 38.318359 A 19.046096 19.184438 0 0 1 14.480469 38.066406 L 14.326172 38.21875 L 12.259766 40.287109 L 12.246094 40.298828 C 11.420625 39.678683 10.802286 38.842932 10.072266 38.117188 L 10.072266 38.115234 C 9.2953784 37.341867 8.4146067 36.675816 7.7578125 35.794922 L 7.7597656 35.791016 L 9.8300781 33.724609 L 10.023438 33.53125 A 19.046096 19.184438 0 0 1 9.5410156 32.853516 A 19.046096 19.184438 0 0 1 9.0058594 31.914062 A 19.046096 19.184438 0 0 1 8.5957031 31.189453 A 19.046096 19.184438 0 0 1 8.2636719 30.447266 A 19.07643 19.07643 0 0 1 8.0410156 29.947266 A 19.046096 19.184438 0 0 1 7.8164062 29.441406 A 19.046096 19.184438 0 0 1 7.6542969 28.947266 A 19.07643 19.07643 0 0 1 7.3046875 27.890625 A 19.046096 19.184438 0 0 1 7.2167969 27.621094 A 19.046096 19.184438 0 0 1 7.1542969 27.341797 A 19.07643 19.07643 0 0 1 7.1503906 27.333984 A 19.07643 19.07643 0 0 1 6.7636719 25.664062 L 6.4882812 25.664062 L 3.5664062 25.664062 L 3.5546875 25.664062 C 3.3995613 24.613392 3.3143959 23.551172 3.3105469 22.486328 C 3.3121455 21.419821 3.3913997 20.361268 3.5449219 19.308594 L 3.5605469 19.308594 L 6.4882812 19.308594 L 6.7773438 19.308594 A 19.07643 19.07643 0 0 1 6.8652344 18.912109 A 19.046096 19.184438 0 0 1 6.9003906 18.673828 A 19.046096 19.184438 0 0 1 7.0292969 18.158203 A 19.07643 19.07643 0 0 1 7.2890625 17.134766 A 19.046096 19.184438 0 0 1 7.3710938 16.814453 A 19.046096 19.184438 0 0 1 7.6269531 16.109375 A 19.07643 19.07643 0 0 1 7.8691406 15.4375 A 19.046096 19.184438 0 0 1 8.0234375 15.013672 A 19.046096 19.184438 0 0 1 8.4707031 14.083984 A 19.07643 19.07643 0 0 1 8.5996094 13.808594 A 19.046096 19.184438 0 0 1 8.8515625 13.287109 A 19.046096 19.184438 0 0 1 9.8476562 11.652344 A 19.046096 19.184438 0 0 1 10.013672 11.427734 L 9.8300781 11.244141 L 7.7617188 9.1777344 L 7.7519531 9.1679688 C 9.0303636 7.4629861 10.545488 5.949671 12.253906 4.6757812 L 12.257812 4.6796875 L 14.326172 6.7480469 L 14.486328 6.90625 A 19.046096 19.184438 0 0 1 15.275391 6.3378906 A 19.046096 19.184438 0 0 1 16.925781 5.3828125 A 19.046096 19.184438 0 0 1 18.666016 4.6015625 A 19.046096 19.184438 0 0 1 19.095703 4.4550781 A 19.046096 19.184438 0 0 1 20.470703 3.9941406 A 19.046096 19.184438 0 0 1 20.914062 3.8925781 A 19.046096 19.184438 0 0 1 20.929688 3.890625 A 19.046096 19.184438 0 0 1 22.328125 3.5742188 A 19.046096 19.184438 0 0 1 22.728516 3.5234375 A 19.046096 19.184438 0 0 1 22.980469 3.4941406 A 19.046096 19.184438 0 0 1 24.21875 3.34375 A 19.046096 19.184438 0 0 1 24.654297 3.3300781 A 19.046096 19.184438 0 0 1 24.808594 3.3261719 A 19.046096 19.184438 0 0 1 25.570312 3.3027344 L 25.570312 3.2949219 z "
       transform="matrix(0.26458333,0,0,0.26458333,0,284.29998)"
       id="path840" />
    <path
       style="fill:#ebebeb;fill-opacity:1;stroke:none;stroke-width:0.08889406"
       d="m 4.5426622,292.50735 0.4706445,-0.47065 a 2.4951982,2.513322 0 0 1 -0.7442759,-1.78804 2.4951982,2.513322 0 0 1 2.4960091,-2.5134 2.4951982,2.513322 0 0 1 1.7761102,0.74875 l 0.4691522,-0.46917 a 3.1583207,3.1812612 0 0 0 -2.2452624,-0.94775 3.1583207,3.1812612 0 0 0 -3.1591907,3.18107 3.1583207,3.1812612 0 0 0 0.936813,2.25919 z"
       id="path2"
       inkscape:connector-curvature="0" />
    <path
       style="fill:#1c1c1c;fill-opacity:1;stroke:none;stroke-width:0.08889406"
       d="m 4.5426622,292.50735 a 3.1583207,3.1812612 0 0 0 2.2223777,0.92291 3.1583207,3.1812612 0 0 0 2.2343183,-0.93584 l -0.4711426,-0.47063 a 2.4951982,2.513322 0 0 1 -1.7631757,0.73831 2.4951982,2.513322 0 0 1 -1.7517332,-0.7254 z"
       id="path1671"
       inkscape:connector-curvature="0" />
  </g>
</svg>
