<svg xmlns="http://www.w3.org/2000/svg" xmlns:xlink="http://www.w3.org/1999/xlink" width="48" height="48" viewBox="0 0 12.7 12.7"><defs><linearGradient gradientTransform="matrix(.8151 0 0 .8151 1.573 285.07)" xlink:href="#a" id="b" x1="4.387" y1="13.293" x2="6.421" y2="4.484" gradientUnits="userSpaceOnUse"/><linearGradient id="a"><stop offset="0" stop-color="#0b280b"/><stop offset="1" stop-color="#2ca02c"/></linearGradient></defs><path d="M6.747.676a5.22 5.258 0 0 1 .522.026 5.22 5.258 0 0 1 .515.078 5.22 5.258 0 0 1 .506.13 5.22 5.258 0 0 1 .49.18 5.22 5.258 0 0 1 .47.23 5.22 5.258 0 0 1 .445.274 5.22 5.258 0 0 1 .415.318 5.22 5.258 0 0 1 .382.359 5.22 5.258 0 0 1 .344.394 5.22 5.258 0 0 1 .304.428 5.22 5.258 0 0 1 .26.456 5.22 5.258 0 0 1 .212.48 5.22 5.258 0 0 1 .165.499 5.22 5.258 0 0 1 .114.513 5.22 5.258 0 0 1 .062.521 5.22 5.258 0 0 1 .014.371 5.22 5.258 0 0 1-.027.525 5.22 5.258 0 0 1-.078.52 5.22 5.258 0 0 1-.128.509 5.22 5.258 0 0 1-.027.073 5.22 5.258 0 0 1-.028.079 5.228 5.228 0 0 1-.087.237 5.22 5.258 0 0 1-.037.104 5.22 5.258 0 0 1-.124.26 5.228 5.228 0 0 1-.033.066 5.22 5.258 0 0 1-.07.147 5.22 5.258 0 0 1-.273.449 5.22 5.258 0 0 1-.046.062l.05.05.567.567.002.001c-.35.468-.763.884-1.23 1.234l-.004-.003-.567-.567-.044-.043a5.22 5.258 0 0 1-.215.155 5.22 5.258 0 0 1-.453.262 5.22 5.258 0 0 1-.476.214 5.22 5.258 0 0 1-.495.166 5.22 5.258 0 0 1-.51.116 5.22 5.258 0 0 1-.016.002V11.968a6.055 6.055 0 0 1-.871.064 6.08 6.08 0 0 1-.872-.064V11.11a5.22 5.258 0 0 1-.164-.024 5.22 5.258 0 0 1-.506-.13 5.22 5.258 0 0 1-.49-.18 5.22 5.258 0 0 1-.47-.229 5.22 5.258 0 0 1-.445-.275 5.22 5.258 0 0 1-.092-.07l-.042.043-.567.567-.003.003a6.085 6.085 0 0 1-1.23-1.234V9.58l.568-.567.052-.053a5.22 5.258 0 0 1-.132-.185 5.22 5.258 0 0 1-.146-.258 5.22 5.258 0 0 1-.113-.198 5.22 5.258 0 0 1-.09-.203 5.228 5.228 0 0 1-.062-.137 5.22 5.258 0 0 1-.061-.14 5.22 5.258 0 0 1-.045-.135 5.228 5.228 0 0 1-.096-.29 5.22 5.258 0 0 1-.024-.073 5.22 5.258 0 0 1-.017-.076 5.228 5.228 0 0 1-.001-.003 5.228 5.228 0 0 1-.106-.457H.714a6.118 6.118 0 0 1-.067-.871c0-.293.022-.583.064-.872h.886a5.228 5.228 0 0 1 .024-.108 5.22 5.258 0 0 1 .01-.065 5.22 5.258 0 0 1 .035-.142 5.228 5.228 0 0 1 .071-.28 5.22 5.258 0 0 1 .022-.088 5.22 5.258 0 0 1 .07-.193 5.228 5.228 0 0 1 .067-.185 5.22 5.258 0 0 1 .042-.116 5.22 5.258 0 0 1 .123-.254 5.228 5.228 0 0 1 .036-.076 5.22 5.258 0 0 1 .069-.143 5.22 5.258 0 0 1 .272-.448 5.22 5.258 0 0 1 .046-.062l-.05-.05-.567-.566-.003-.003c.35-.468.766-.882 1.234-1.232v.001l.568.567.043.044a5.22 5.258 0 0 1 .217-.156 5.22 5.258 0 0 1 .453-.261 5.22 5.258 0 0 1 .476-.215 5.22 5.258 0 0 1 .118-.04A5.22 5.258 0 0 1 5.35.866 5.22 5.258 0 0 1 5.472.84a5.22 5.258 0 0 1 .004 0A5.22 5.258 0 0 1 5.859.75a5.22 5.258 0 0 1 .11-.014A5.22 5.258 0 0 1 6.04.73a5.22 5.258 0 0 1 .338-.04 5.22 5.258 0 0 1 .12-.005 5.22 5.258 0 0 1 .042 0 5.22 5.258 0 0 1 .209-.008z" fill="#1c1c1c"/><path d="M2.538 10.212c.202.2.373.432.602.603l.003-.003.566-.567.043-.042a5.22 5.258 0 0 0 .091.07 5.22 5.258 0 0 0 .445.274 5.22 5.258 0 0 0 .47.229 5.22 5.258 0 0 0 .49.18 5.22 5.258 0 0 0 .506.13 5.22 5.258 0 0 0 .165.024V11.967c.288.042.579.064.87.064.293 0 .584-.022.872-.065V11.116a5.22 5.258 0 0 0 .017-.002 5.22 5.258 0 0 0 .51-.116 5.22 5.258 0 0 0 .494-.166 5.22 5.258 0 0 0 .477-.214 5.22 5.258 0 0 0 .452-.262 5.22 5.258 0 0 0 .216-.156l.044.044.567.567.003.003c.468-.35.881-.766 1.23-1.234l-.001-.001-.567-.567-.05-.05a5.22 5.258 0 0 0 .046-.062 5.22 5.258 0 0 0 .273-.449 5.22 5.258 0 0 0 .07-.147 5.228 5.228 0 0 0 .032-.067 5.22 5.258 0 0 0 .124-.258 5.22 5.258 0 0 0 .038-.105 5.228 5.228 0 0 0 .086-.237 5.22 5.258 0 0 0 .029-.078 5.22 5.258 0 0 0 .026-.074 5.22 5.258 0 0 0 .129-.509 5.22 5.258 0 0 0 .078-.52 5.22 5.258 0 0 0 .026-.525 5.22 5.258 0 0 0-.013-.37 5.22 5.258 0 0 0-.063-.522 5.22 5.258 0 0 0-.114-.513 5.22 5.258 0 0 0-.164-.499 5.22 5.258 0 0 0-.213-.48 5.22 5.258 0 0 0-.26-.455 5.22 5.258 0 0 0-.304-.428 5.22 5.258 0 0 0-.344-.395 5.22 5.258 0 0 0-.028-.027z" fill="#ebebeb"/><path d="M6.765 285.727a4.489 4.521 0 0 0-4.49 4.521 4.489 4.521 0 0 0 .018.352h8.339a3.884 3.912 0 0 1-3.867 3.561 3.884 3.912 0 0 1-3.75-2.912l-.587.15a4.489 4.521 0 0 0 4.337 3.372 4.489 4.521 0 0 0 4.489-4.523 4.489 4.521 0 0 0-.016-.306H2.895a3.884 3.912 0 0 1 3.87-3.606 3.884 3.912 0 0 1 3.755 2.925l.582-.155a4.489 4.521 0 0 0-4.337-3.38z" fill="url(#b)" transform="translate(0 -284.3)"/><path d="M6.783.29a5.618 5.66 0 0 0-2.184.446L4.6.738a5.658 5.658 0 0 0-.516.244L4.078.976 3.486.384A6.462 6.462 0 0 0 1.201 2.67l.42.421.178.178a5.658 5.658 0 0 0-.442 1.063H.509a6.466 6.466 0 0 0-.21 1.616c.003.546.075 1.09.214 1.617h.846a5.658 5.658 0 0 0 .44 1.063l-.177.178-.421.42c.272.46.601.881.974 1.259l.363-.273-.363.273c.39.395.829.744 1.312 1.028l.42-.422.178-.176a5.658 5.658 0 0 0 1.064.442v.847c.527.138 1.07.21 1.616.21a6.5 6.5 0 0 0 1.616-.21v-.847a5.658 5.658 0 0 0 1.064-.442l.177.176.422.422a6.466 6.466 0 0 0 2.285-2.286l-.422-.421-.176-.177a5.658 5.658 0 0 0 .293-.651l.009-.015A5.618 5.66 0 0 0 12.4 5.95a5.618 5.66 0 0 0-1.625-3.976A5.618 5.66 0 0 0 6.783.289zm-.018.582a5.04 5.076 0 0 1 .504.026 5.04 5.076 0 0 1 .497.076 5.04 5.076 0 0 1 .489.125 5.04 5.076 0 0 1 .473.174 5.04 5.076 0 0 1 .453.221 5.04 5.076 0 0 1 .43.265 5.04 5.076 0 0 1 .4.308 5.04 5.076 0 0 1 .348.325 5.04 5.076 0 0 1 .02.02 5.04 5.076 0 0 1 .334.382 5.04 5.076 0 0 1 .293.413 5.04 5.076 0 0 1 .25.44 5.04 5.076 0 0 1 .205.463 5.04 5.076 0 0 1 .16.481 5.04 5.076 0 0 1 .11.496 5.04 5.076 0 0 1 .06.503 5.04 5.076 0 0 1 .013.358 5.04 5.076 0 0 1-.025.506 5.04 5.076 0 0 1-.076.503 5.04 5.076 0 0 1-.124.491 5.04 5.076 0 0 1-.026.07 5.04 5.076 0 0 1-.027.077 5.047 5.047 0 0 1-.083.229 5.04 5.076 0 0 1-.037.1 5.04 5.076 0 0 1-.12.25 5.047 5.047 0 0 1-.03.065 5.04 5.076 0 0 1-.07.142 5.04 5.076 0 0 1-.262.433 5.04 5.076 0 0 1-.045.06l.048.049.548.547h.002a5.893 5.893 0 0 1-1.188 1.192l-.003-.003-.548-.547-.042-.042a5.04 5.076 0 0 1-.208.15 5.04 5.076 0 0 1-.436.253 5.04 5.076 0 0 1-.46.206 5.04 5.076 0 0 1-.479.16 5.04 5.076 0 0 1-.491.112 5.04 5.076 0 0 1-.017.002V11.774a5.777 5.777 0 0 1-1.681 0V10.948a5.04 5.076 0 0 1-.16-.024 5.04 5.076 0 0 1-.488-.125 5.04 5.076 0 0 1-.473-.174 5.04 5.076 0 0 1-.454-.222 5.04 5.076 0 0 1-.43-.265 5.04 5.076 0 0 1-.088-.066l-.04.04-.547.547-.004.003c-.218-.164-.382-.385-.575-.577-.206-.205-.439-.381-.612-.614V9.47l.548-.547.051-.051a5.04 5.076 0 0 1-.128-.18 5.04 5.076 0 0 1-.141-.248 5.04 5.076 0 0 1-.109-.192 5.04 5.076 0 0 1-.088-.196 5.047 5.047 0 0 1-.058-.132 5.04 5.076 0 0 1-.06-.134 5.04 5.076 0 0 1-.043-.131 5.047 5.047 0 0 1-.092-.28 5.04 5.076 0 0 1-.024-.07 5.04 5.076 0 0 1-.016-.075 5.047 5.047 0 0 1-.001-.002 5.047 5.047 0 0 1-.102-.442H.94a5.904 5.904 0 0 1-.065-.84c0-.283.021-.563.062-.841h.855a5.047 5.047 0 0 1 .023-.105 5.04 5.076 0 0 1 .01-.063 5.04 5.076 0 0 1 .034-.137 5.047 5.047 0 0 1 .069-.27 5.04 5.076 0 0 1 .021-.085 5.04 5.076 0 0 1 .068-.187 5.047 5.047 0 0 1 .064-.177 5.04 5.076 0 0 1 .04-.113 5.04 5.076 0 0 1 .12-.246 5.047 5.047 0 0 1 .033-.072 5.04 5.076 0 0 1 .067-.138 5.04 5.076 0 0 1 .264-.433 5.04 5.076 0 0 1 .043-.06l-.048-.048-.547-.547-.003-.002c.338-.451.74-.852 1.191-1.189l.001.001.547.547.043.042a5.04 5.076 0 0 1 .209-.15 5.04 5.076 0 0 1 .436-.253 5.04 5.076 0 0 1 .46-.207 5.04 5.076 0 0 1 .114-.038 5.04 5.076 0 0 1 .364-.122 5.04 5.076 0 0 1 .118-.027 5.04 5.076 0 0 1 .004 0 5.04 5.076 0 0 1 .37-.084 5.04 5.076 0 0 1 .106-.014A5.04 5.076 0 0 1 6.08.924a5.04 5.076 0 0 1 .328-.04 5.04 5.076 0 0 1 .115-.003 5.04 5.076 0 0 1 .04-.001 5.04 5.076 0 0 1 .202-.006V.872z" fill="#1c1c1c"/><path d="M4.543 8.207l.47-.47a2.495 2.513 0 0 1-.744-1.788 2.495 2.513 0 0 1 2.496-2.514 2.495 2.513 0 0 1 1.776.749l.47-.47a3.158 3.181 0 0 0-2.246-.947 3.158 3.181 0 0 0-3.16 3.181 3.158 3.181 0 0 0 .938 2.26z" fill="#ebebeb"/><path d="M4.543 8.207a3.158 3.181 0 0 0 2.222.923 3.158 3.181 0 0 0 2.234-.936l-.47-.47a2.495 2.513 0 0 1-1.764.738 2.495 2.513 0 0 1-1.752-.725z" fill="#1c1c1c"/></svg>