/* XPM */
static char * close_inactive_xpm[] = {
"32 32 26 1",
" 	c None",
".	c #734173",
"+	c #642C64",
"@	c #724472",
"#	c #937B93",
"$	c #A99FA9",
"%	c #B3B1B3",
"&	c #937A93",
"*	c #734473",
"=	c #663066",
"-	c #957E95",
";	c #B7B6B7",
">	c #B7B7B7",
",	c #B6B6B6",
"'	c #947C94",
")	c #662F66",
"!	c #A193A1",
"~	c #A293A2",
"{	c #937C93",
"]	c #927992",
"^	c #A9A0A9",
"/	c #A89FA8",
"(	c #B3B0B3",
"_	c #B2AFB2",
":	c #724372",
"<	c #A192A1",
"................................",
"++++++++++++++++++++++++++++++++",
"++++++++++++++++++++++++++++++++",
"++++++++++++++++++++++++++++++++",
"++++++++++++++++++++++++++++++++",
"++++++++++++++++++++++++++++++++",
"++++++++++++++++++++++++++++++++",
"++++++++++++++++++++++++++++++++",
"++++++++++++@#$%%$&*++++++++++++",
"++++++++++=-;>>>>>>,')++++++++++",
"+++++++++=!>>>>>>>>>>~)+++++++++",
"+++++++++->>>>>>>>>>>>{+++++++++",
"++++++++@;>>>>>>>>>>>>,@++++++++",
"++++++++#>>>>>>>>>>>>>>]++++++++",
"++++++++^>>>>>>>>>>>>>>/++++++++",
"++++++++(>>>>>>>>>>>>>>(++++++++",
"++++++++(>>>>>>>>>>>>>>_++++++++",
"++++++++^>>>>>>>>>>>>>>/++++++++",
"++++++++&>>>>>>>>>>>>>>]++++++++",
"++++++++*,>>>>>>>>>>>>,:++++++++",
"+++++++++'>>>>>>>>>>>>#+++++++++",
"+++++++++)!>>>>>>>>>><)+++++++++",
"++++++++++){,>>>>>>,#)++++++++++",
"++++++++++++@]/((/]:++++++++++++",
"++++++++++++++++++++++++++++++++",
"++++++++++++++++++++++++++++++++",
"++++++++++++++++++++++++++++++++",
"++++++++++++++++++++++++++++++++",
"++++++++++++++++++++++++++++++++",
"++++++++++++++++++++++++++++++++",
"++++++++++++++++++++++++++++++++",
"++++++++++++++++++++++++++++++++"};
