/* XPM */
static char * maximize_active_xpm[] = {
"32 32 21 1",
" 	c None",
".	c #BA672F",
"+	c #B35618",
"@	c #C05D1B",
"#	c #DE6D22",
"$	c #F27827",
"%	c #FC7E29",
"&	c #B55718",
"*	c #E06E23",
"=	c #FE7F2A",
"-	c #FF7F2A",
";	c #DF6E22",
">	c #EC7525",
",	c #EB7425",
"'	c #DF6D22",
")	c #C05C1B",
"!	c #DD6D22",
"~	c #FB7D29",
"{	c #DD6C22",
"]	c #EB7525",
"^	c #B45619",
"................................",
"++++++++++++++++++++++++++++++++",
"++++++++++++++++++++++++++++++++",
"++++++++++++++++++++++++++++++++",
"++++++++++++++++++++++++++++++++",
"++++++++++++++++++++++++++++++++",
"++++++++++++++++++++++++++++++++",
"++++++++++++++++++++++++++++++++",
"++++++++++++@#$%%$#@++++++++++++",
"++++++++++&*=------=;&++++++++++",
"+++++++++&>----------,&+++++++++",
"+++++++++*------------'+++++++++",
"++++++++@=------------=)++++++++",
"++++++++#--------------!++++++++",
"++++++++$--------------$++++++++",
"++++++++~--------------~++++++++",
"++++++++~--------------~++++++++",
"++++++++$--------------$++++++++",
"++++++++#--------------{++++++++",
"++++++++@=------------=@++++++++",
"+++++++++;------------#+++++++++",
"+++++++++&]----------,^+++++++++",
"++++++++++&'=------=#^++++++++++",
"++++++++++++)!$~~${@++++++++++++",
"++++++++++++++++++++++++++++++++",
"++++++++++++++++++++++++++++++++",
"++++++++++++++++++++++++++++++++",
"++++++++++++++++++++++++++++++++",
"++++++++++++++++++++++++++++++++",
"++++++++++++++++++++++++++++++++",
"++++++++++++++++++++++++++++++++",
"++++++++++++++++++++++++++++++++"};
