<?xml version="1.0" encoding="UTF-8" standalone="no"?>
<svg
   xmlns:dc="http://purl.org/dc/elements/1.1/"
   xmlns:cc="http://creativecommons.org/ns#"
   xmlns:rdf="http://www.w3.org/1999/02/22-rdf-syntax-ns#"
   xmlns:svg="http://www.w3.org/2000/svg"
   xmlns="http://www.w3.org/2000/svg"
   xmlns:sodipodi="http://sodipodi.sourceforge.net/DTD/sodipodi-0.dtd"
   xmlns:inkscape="http://www.inkscape.org/namespaces/inkscape"
   width="54"
   height="32"
   id="svg3613"
   version="1.1"
   sodipodi:docname="apport.svg"
   inkscape:version="0.92.4 (5da689c313, 2019-01-14)">
  <sodipodi:namedview
     pagecolor="#ffffff"
     bordercolor="#666666"
     borderopacity="1"
     objecttolerance="10"
     gridtolerance="10"
     guidetolerance="10"
     inkscape:pageopacity="0"
     inkscape:pageshadow="2"
     inkscape:window-width="1366"
     inkscape:window-height="717"
     id="namedview12"
     showgrid="false"
     inkscape:snap-smooth-nodes="true"
     inkscape:snap-bbox="false"
     showguides="true"
     inkscape:guide-bbox="true"
     inkscape:zoom="9.6296296"
     inkscape:cx="21.816722"
     inkscape:cy="16"
     inkscape:window-x="0"
     inkscape:window-y="25"
     inkscape:window-maximized="1"
     inkscape:current-layer="svg3613">
    <sodipodi:guide
       position="21.999998,31.999982"
       orientation="1,0"
       id="guide869"
       inkscape:locked="false" />
    <sodipodi:guide
       position="38.007692,32.088462"
       orientation="1,0"
       id="guide871"
       inkscape:locked="false" />
    <sodipodi:guide
       position="21.999999,-2.7274154e-07"
       orientation="0,1"
       id="guide873"
       inkscape:locked="false" />
    <sodipodi:guide
       position="21.999998,16.00781"
       orientation="0,1"
       id="guide875"
       inkscape:locked="false" />
    <sodipodi:guide
       position="21.999999,22"
       orientation="0,1"
       id="guide882"
       inkscape:locked="false" />
    <sodipodi:guide
       position="21.999998,-2.7274154e-07"
       orientation="0,1"
       id="guide884"
       inkscape:locked="false" />
  </sodipodi:namedview>
  <metadata
     id="metadata13">
    <rdf:RDF>
      <cc:Work
         rdf:about="">
        <dc:format>image/svg+xml</dc:format>
        <dc:type
           rdf:resource="http://purl.org/dc/dcmitype/StillImage" />
        <dc:title></dc:title>
      </cc:Work>
    </rdf:RDF>
  </metadata>
  <defs
     id="defs3615">
    <style
       type="text/css"
       id="current-color-scheme">
      .ColorScheme-Text {
        color:#31363b;
      }
      .ColorScheme-Background{
        color:#E9E8E8;
      }
      .ColorScheme-ViewText {
        color:#31363b;
      }
      .ColorScheme-ViewBackground{
        color:#ffffff;
      }
      .ColorScheme-ViewHover {
        color:#000000;
      }
      .ColorScheme-ViewFocus{
        color:#5a5a5a;
      }
      .ColorScheme-ButtonText {
        color:#31363b;
      }
      .ColorScheme-ButtonBackground{
        color:#E9E8E8;
      }
      .ColorScheme-ButtonHover {
        color:#1489ff;
      }
      .ColorScheme-ButtonFocus{
        color:#2B74C7;
      }
</style>
  </defs>
  <g
     id="apport">
    <rect
       style="opacity:0.01000001;fill:#000000;fill-opacity:0.00392157;stroke:none"
       id="rect2994"
       width="32"
       height="32"
       x="21.999998"
       y="1.754521e-05" />
    <path
       id="path2"
       d="M 38.010857,3.2059032 A 12.773229,12.773229 0 0 0 25.237628,15.979128 12.773229,12.773229 0 0 0 38.010857,28.748295 12.773229,12.773229 0 0 0 50.784085,15.977097 12.773229,12.773229 0 0 0 38.010857,3.2038722 Z m -0.03657,1.900754 A 10.980104,10.980104 0 0 1 48.954404,16.086756 10.980104,10.980104 0 0 1 37.974306,27.066859 10.980104,10.980104 0 0 1 26.996229,16.086756 10.980104,10.980104 0 0 1 37.974306,5.1086882 Z m 2.162716,2.838944 c -1.005205,0.01424 -0.192917,2.3921898 -0.647799,3.3628688 -0.483312,1.035668 -0.923977,0.7534 -1.066128,0.456912 -0.142151,-0.296481 0.176672,-3.0298308 -1.208279,-2.4896548 -1.021453,0.398016 0.584848,2.0977298 0.467066,2.6906988 -0.363499,1.813432 -2.607444,1.084403 -2.987189,0.578755 -0.379745,-0.505648 -3.117155,-4.4513328 -4.463523,-2.412495 -1.348398,2.038843 4.069563,3.039987 3.980211,3.131369 -0.09341,0.09138 1.344337,0.696537 1.185941,0.944285 -0.158397,0.245717 -0.328976,0.81838 -1.114865,1.060035 -0.785889,0.241656 -2.109918,-1.096588 -2.434834,0.310701 -0.324915,1.409319 1.910908,0.304608 2.477478,0.215256 0.566571,-0.09138 0.540172,0.162458 0.6742,0.385837 0.09747,0.162458 0.02639,0.430513 0.02639,0.568602 0,0.134027 -0.06497,0.926008 -0.369592,0.999114 -1.502732,0.36553 -3.880705,0.724967 -3.005465,2.189116 0.87321,1.46618 2.8491,-1.726112 3.630929,-1.941368 0.781826,-0.219318 1.145326,0.196979 1.389012,0.355376 0.245716,0.158396 0.562509,0.426451 0.361467,1.500702 -0.203068,1.07222 -2.540426,4.189375 -0.649826,4.108146 1.888569,-0.08123 1.159541,-3.482684 1.496639,-3.821815 0.337101,-0.337099 1.147358,-0.729028 1.813434,-0.544233 0.664045,0.182765 0.690444,1.957614 1.080343,1.630669 0.609216,-0.507681 -0.726998,-1.655037 -0.48128,-1.969799 0.243686,-0.312731 0.418327,-0.810257 0.9057,-0.96053 1.707835,-0.525957 3.72028,3.708094 4.664565,1.953552 0.946315,-1.754542 -2.944545,-2.243945 -3.135432,-2.838946 -0.188857,-0.595001 -0.517835,-0.771674 -0.361468,-1.019422 0.158395,-0.245717 0.276177,0.142151 0.613277,-0.194949 0.337101,-0.33913 2.694765,1.69159 3.031864,0.33913 0.33507,-1.35449 -3.30195,-0.879301 -3.30195,-1.153449 0,-0.272116 0.523926,-0.639676 0.467066,-0.928039 -0.08123,-0.430512 -0.452851,-0.615307 -0.168549,-0.720905 0.282269,-0.105597 2.71304,0.731059 2.637905,-0.274147 -0.08123,-1.088467 -1.653007,-0.134028 -2.540432,-0.09951 -0.426452,0.01625 -0.50971,-0.527988 -0.503618,-0.597031 0.03046,-0.398024 0.424419,-0.355376 0.371623,-0.653894 -0.06905,-0.383804 -0.584847,-0.113721 -0.519866,-0.42645 0.166521,-0.787915 2.124133,-1.228583 1.326062,-2.0104118 -0.796044,-0.781825 -1.35043,1.1412648 -1.908879,1.8215558 -0.39599,0.48331 -0.84884,0.722935 -1.303721,0.584847 -0.322885,-0.101537 -0.59094,-0.03656 -0.536111,-0.865086 0.05282,-0.828534 1.681436,-2.8978348 0.335069,-3.2369638 a 0.88336312,0.88336312 0 0 0 -0.22744,-0.02843 z"
       style="fill:#e6e6e6;stroke-width:2.03072"
       inkscape:connector-curvature="0" />
  </g>
  <g
     id="22-22-apport">
    <rect
       style="opacity:0.01000001;fill:#000000;fill-opacity:0.00392157;stroke:none;stroke-width:0.6875"
       id="rect2994-9"
       width="22"
       height="22"
       x="-0.0044083111"
       y="10.01813" />
    <path
       inkscape:connector-curvature="0"
       id="path2-1"
       d="m 12.992615,13.480769 c -0.942127,0.01336 -0.180813,2.242072 -0.607148,3.151838 -0.452983,0.970678 -0.865996,0.706123 -0.999227,0.42824 -0.133232,-0.277876 0.165586,-2.839701 -1.132456,-2.333423 -0.9573538,0.37304 0.548147,1.966093 0.437756,2.521852 -0.340688,1.699633 -2.4438191,1.016353 -2.799734,0.542436 -0.3559149,-0.473917 -2.9215449,-4.171999 -4.1834247,-2.261104 -1.2637822,1.9109 3.8141868,2.849219 3.7304419,2.934866 -0.087547,0.08564 1.2599761,0.652828 1.1115198,0.88503 -0.1484571,0.230296 -0.3083318,0.767024 -1.0449041,0.993514 -0.7365723,0.226491 -1.9775148,-1.027774 -2.2820413,0.291204 -0.3045257,1.32088 1.7909932,0.285493 2.3220093,0.201747 0.5310171,-0.08564 0.5062746,0.152264 0.6318921,0.361625 0.091353,0.152264 0.024733,0.403498 0.024733,0.53292 0,0.125612 -0.060893,0.8679 -0.3463991,0.936417 -1.4084313,0.342593 -3.63718,0.679475 -2.8168637,2.051743 0.8184136,1.374174 2.6703111,-1.617794 3.4030782,-1.81954 0.7327642,-0.205555 1.0734535,0.184617 1.3018474,0.333075 0.2302971,0.148455 0.5272102,0.399689 0.3387862,1.406528 -0.1903255,1.004936 -2.3810094,3.92648 -0.6090497,3.850349 1.7700577,-0.07615 1.0867767,-3.264138 1.4027217,-3.581986 0.315947,-0.315946 1.075358,-0.68328 1.699636,-0.51008 0.622375,0.171295 0.647116,1.834767 1.012547,1.528339 0.570986,-0.475823 -0.681375,-1.551178 -0.451078,-1.846189 0.228395,-0.293107 0.392076,-0.759411 0.848865,-0.900255 1.600665,-0.492951 3.486823,3.475402 4.371853,1.830961 0.886929,-1.644438 -2.759767,-2.10313 -2.938676,-2.660793 -0.177007,-0.557663 -0.485339,-0.72325 -0.338785,-0.955451 0.148454,-0.230297 0.258846,0.133232 0.574792,-0.182715 0.315947,-0.317848 2.525661,1.585438 2.841606,0.317849 0.314043,-1.269492 -3.094744,-0.824123 -3.094744,-1.081067 0,-0.25504 0.491049,-0.599535 0.437758,-0.869802 -0.07614,-0.403496 -0.424433,-0.576695 -0.157974,-0.675666 0.264556,-0.09898 2.542789,0.685183 2.47237,-0.256943 -0.07613,-1.020163 -1.549276,-0.125612 -2.381013,-0.09327 -0.39969,0.01523 -0.477724,-0.494854 -0.472016,-0.559564 0.02854,-0.373048 0.397787,-0.333076 0.348303,-0.612861 -0.06471,-0.35972 -0.548146,-0.10658 -0.487242,-0.39969 0.156072,-0.73847 1.990838,-1.151486 1.242848,-1.884252 -0.74609,-0.732764 -1.265687,1.069648 -1.789092,1.707248 -0.371139,0.452981 -0.795572,0.677568 -1.221908,0.548146 -0.302624,-0.09517 -0.553858,-0.03428 -0.502469,-0.8108 0.04949,-0.776541 1.575921,-2.715987 0.314042,-3.033835 a 0.82792964,0.82792964 0 0 0 -0.213167,-0.02665 z"
       style="fill:#e6e6e6;stroke-width:1.90328658" />
  </g>
</svg>
