<?xml version="1.0" encoding="UTF-8" standalone="no"?>
<svg
   xmlns:dc="http://purl.org/dc/elements/1.1/"
   xmlns:cc="http://creativecommons.org/ns#"
   xmlns:rdf="http://www.w3.org/1999/02/22-rdf-syntax-ns#"
   xmlns:svg="http://www.w3.org/2000/svg"
   xmlns="http://www.w3.org/2000/svg"
   xmlns:sodipodi="http://sodipodi.sourceforge.net/DTD/sodipodi-0.dtd"
   xmlns:inkscape="http://www.inkscape.org/namespaces/inkscape"
   version="1.1"
   id="svg2"
   viewBox="0 0 54 32"
   inkscape:version="0.92.4 (5da689c313, 2019-01-14)"
   sodipodi:docname="edit.svg">
  <sodipodi:namedview
     pagecolor="#ffffff"
     bordercolor="#666666"
     borderopacity="1"
     objecttolerance="10"
     gridtolerance="10"
     guidetolerance="10"
     inkscape:pageopacity="0"
     inkscape:pageshadow="2"
     inkscape:window-width="1366"
     inkscape:window-height="768"
     id="namedview12"
     showgrid="false"
     inkscape:zoom="9.6296296"
     inkscape:cx="27"
     inkscape:cy="16"
     inkscape:window-x="0"
     inkscape:window-y="25"
     inkscape:window-maximized="0"
     inkscape:current-layer="svg2" />
  <metadata
     id="metadata14">
    <rdf:RDF>
      <cc:Work
         rdf:about="">
        <dc:format>image/svg+xml</dc:format>
        <dc:type
           rdf:resource="http://purl.org/dc/dcmitype/StillImage" />
        <dc:title></dc:title>
      </cc:Work>
    </rdf:RDF>
  </metadata>
  <defs
     id="defs3051">
    <style
       id="current-color-scheme"
       type="text/css">
      .ColorScheme-NegativeText {
        color:#da4453;
      }
      </style>
  </defs>
  <g
     transform="matrix(0.6875,0,0,0.6875,-15.125,9.9999869)"
     id="22-22-edit-delete">
    <rect
       style="opacity:0.01000001;fill:#000000;fill-opacity:0.00392157;stroke:none"
       id="rect2994-5"
       width="32"
       height="32"
       x="21.999998"
       y="1.754521e-05" />
    <path
       id="path2-36-3"
       d="m 38.052928,4.5138115 a 11.51,11.51 0 1 0 11.5,11.5000005 c 0,-6.3399998 -5.16,-11.5000005 -11.5,-11.5000005 z M 28.652927,16.013812 A 9.4,9.4 0 0 1 44.172928,8.8938115 L 30.932927,22.123812 a 9.35,9.35 0 0 1 -2.28,-6.11 z m 9.400001,9.39 a 9.34,9.34 0 0 1 -5.580001,-1.84 l 13.130001,-13.13 a 9.34,9.34 0 0 1 1.84,5.58 9.4,9.4 0 0 1 -9.4,9.39 z"
       style="fill:#e6e6e6"
       inkscape:connector-curvature="0" />
  </g>
  <g
     transform="translate(-0.052928,0.00541925)"
     id="edit-delete">
    <rect
       style="opacity:0.01000001;fill:#000000;fill-opacity:0.00392157;stroke:none"
       id="rect2994"
       width="32"
       height="32"
       x="21.999998"
       y="1.754521e-05" />
    <path
       id="path2-36"
       d="m 38.052928,4.5138115 a 11.51,11.51 0 1 0 11.5,11.5000005 c 0,-6.3399998 -5.16,-11.5000005 -11.5,-11.5000005 z M 28.652927,16.013812 A 9.4,9.4 0 0 1 44.172928,8.8938115 L 30.932927,22.123812 a 9.35,9.35 0 0 1 -2.28,-6.11 z m 9.400001,9.39 a 9.34,9.34 0 0 1 -5.580001,-1.84 l 13.130001,-13.13 a 9.34,9.34 0 0 1 1.84,5.58 9.4,9.4 0 0 1 -9.4,9.39 z"
       style="fill:#e6e6e6"
       inkscape:connector-curvature="0" />
  </g>
</svg>
