<?xml version="1.0" encoding="UTF-8" standalone="no"?>
<svg
   xmlns:dc="http://purl.org/dc/elements/1.1/"
   xmlns:cc="http://creativecommons.org/ns#"
   xmlns:rdf="http://www.w3.org/1999/02/22-rdf-syntax-ns#"
   xmlns:svg="http://www.w3.org/2000/svg"
   xmlns="http://www.w3.org/2000/svg"
   xmlns:sodipodi="http://sodipodi.sourceforge.net/DTD/sodipodi-0.dtd"
   xmlns:inkscape="http://www.inkscape.org/namespaces/inkscape"
   id="svg"
   width="32"
   height="32"
   version="1.1"
   sodipodi:docname="input.svg"
   inkscape:version="0.92.4 (5da689c313, 2019-01-14)">
  <metadata
     id="metadata468">
    <rdf:RDF>
      <cc:Work
         rdf:about="">
        <dc:format>image/svg+xml</dc:format>
        <dc:type
           rdf:resource="http://purl.org/dc/dcmitype/StillImage" />
        <dc:title></dc:title>
      </cc:Work>
    </rdf:RDF>
  </metadata>
  <defs
     id="defs466" />
  <sodipodi:namedview
     pagecolor="#ffffff"
     bordercolor="#666666"
     borderopacity="1"
     objecttolerance="10"
     gridtolerance="10"
     guidetolerance="10"
     inkscape:pageopacity="0"
     inkscape:pageshadow="2"
     inkscape:window-width="1366"
     inkscape:window-height="717"
     id="namedview464"
     showgrid="false"
     showguides="true"
     inkscape:guide-bbox="true"
     inkscape:zoom="1.015625"
     inkscape:cx="16"
     inkscape:cy="16"
     inkscape:window-x="0"
     inkscape:window-y="25"
     inkscape:window-maximized="1"
     inkscape:current-layer="svg">
    <sodipodi:guide
       position="10.99823,53.957687"
       orientation="1,0"
       id="guide1403"
       inkscape:locked="false" />
    <sodipodi:guide
       position="22.018217,42.970335"
       orientation="0,1"
       id="guide1405"
       inkscape:locked="false" />
    <sodipodi:guide
       position="0,54"
       orientation="1,0"
       id="guide2224"
       inkscape:locked="false" />
    <sodipodi:guide
       position="22,54"
       orientation="0,1"
       id="guide2226"
       inkscape:locked="false" />
    <sodipodi:guide
       position="22,32"
       orientation="1,0"
       id="guide2228"
       inkscape:locked="false" />
    <sodipodi:guide
       position="22,32"
       orientation="0,1"
       id="guide2230"
       inkscape:locked="false" />
  </sodipodi:namedview>
  <g
     id="input-keyboard"
     transform="translate(-64)">
    <rect
       style="opacity:0.00100002"
       width="32"
       height="32"
       x="0"
       y="0"
       id="rect72" />
    <path
       id="path839"
       d="M 4.354792,5.8104393 A 2.8999664,2.8999664 0 0 0 1.454454,8.7217424 l -0.0091,14.5565146 c 0,1.609128 1.300348,2.911303 2.909476,2.911303 h 23.288554 a 2.910576,2.910576 0 0 0 2.911304,-2.911303 V 8.7217424 A 2.910576,2.910576 0 0 0 27.643384,5.8104393 Z m 1.454737,4.3678687 h 2.909476 v 2.911303 H 5.809529 Z m 4.366042,0 h 2.914956 v 2.911303 h -2.914956 z m 4.367867,0 h 2.911304 v 2.911303 h -2.911304 z m 4.364214,0 h 2.914958 v 2.911303 h -2.914958 z m 4.367868,0 h 2.914958 v 2.911303 H 23.27552 Z M 5.809529,14.542521 h 2.909476 v 2.914958 H 5.809529 Z m 4.366042,0 h 2.914956 v 2.914958 h -2.914956 z m 4.367867,0 h 2.911304 v 2.914958 h -2.911304 z m 4.364214,0 h 2.914958 v 2.914958 h -2.914958 z m 4.367868,0 h 2.914958 v 2.914958 H 23.27552 Z m -13.099949,5.824433 h 0.0037 11.64704 v 2.911303 h -11.65074 z"
       style="fill:#e6e6e6;fill-opacity:1;stroke-width:3.5365448"
       inkscape:connector-curvature="0" />
  </g>
  <g
     id="input-caps-on"
     transform="translate(-96)">
    <rect
       style="opacity:0.00100002"
       width="32"
       height="32"
       x="0"
       y="0"
       id="rect213" />
    <path
       inkscape:connector-curvature="0"
       id="path1470-5-6-2"
       d="M 4.3496094,5.806641 A 2.9010018,2.9010018 0 0 0 1.4492188,8.71875 l -0.00977,14.5625 c 0,1.609705 1.3004523,2.912109 2.9101563,2.912109 H 27.646484 A 2.9116162,2.9116162 0 0 0 30.560547,23.28125 V 8.71875 A 2.9116162,2.9116162 0 0 0 27.646484,5.806641 Z m 1.4570312,4.36914 h 2.9082032 v 2.914063 H 5.8066406 Z m 4.3652344,0 h 2.917969 v 2.914063 h -2.917969 z m 4.371094,0 h 2.910156 v 2.914063 h -2.910156 z m 4.365234,0 h 2.916016 v 2.914063 h -2.916016 z m 4.371094,0 h 2.914062 v 2.914063 H 23.279297 Z M 5.8066406,14.542969 h 2.9082032 v 2.914062 H 5.8066406 Z m 4.3652344,0 h 2.917969 v 2.914062 h -2.917969 z m 4.371094,0 h 2.910156 v 2.914062 h -2.910156 z m 10.589843,0.414062 c 0.542535,0 1.063369,0.06207 1.5625,0.183594 0.499132,0.121528 0.979384,0.300347 1.439454,0.539063 v 2.011718 c -0.46441,-0.31684 -0.923611,-0.547743 -1.375,-0.695312 -0.451389,-0.14757 -0.92665,-0.222656 -1.425782,-0.222656 -0.894097,0 -1.597222,0.286458 -2.109375,0.859374 -0.512152,0.572917 -0.767578,1.36415 -0.767578,2.371094 0,1.002604 0.255426,1.790365 0.767578,2.363282 0.512153,0.572916 1.215278,0.859374 2.109375,0.859374 0.499132,0 0.974393,-0.07509 1.425782,-0.222656 0.451389,-0.147569 0.91059,-0.378472 1.375,-0.695312 v 2.011718 c -0.46007,0.238716 -0.940322,0.417535 -1.439454,0.539063 -0.499131,0.121528 -1.019965,0.183594 -1.5625,0.183594 -1.618923,0 -2.901475,-0.452691 -3.847656,-1.355469 -0.94618,-0.907118 -1.419922,-2.134115 -1.419922,-3.683594 0,-1.553819 0.473742,-2.782769 1.419922,-3.685547 0.946181,-0.907118 2.228733,-1.361328 3.847656,-1.361328 z m -14.960937,5.410157 h 0.0039 7.277344 v 2.914062 h -7.28125 z"
       style="fill:#e6e6e6;fill-opacity:1;stroke-width:3.53780842" />
  </g>
  <g
     id="input-num-on"
     transform="translate(-128)">
    <rect
       style="opacity:0.00100002"
       width="32"
       height="32"
       x="0"
       y="0"
       id="rect345" />
    <path
       inkscape:connector-curvature="0"
       id="path1470-5-5"
       d="M 4.3496094,5.806641 A 2.9010018,2.9010018 0 0 0 1.4492188,8.71875 l -0.00977,14.5625 c 0,1.609705 1.3004523,2.912109 2.9101563,2.912109 H 27.646484 A 2.9116162,2.9116162 0 0 0 30.560547,23.28125 V 8.71875 A 2.9116162,2.9116162 0 0 0 27.646484,5.806641 Z m 1.4570312,4.36914 h 2.9082032 v 2.914063 H 5.8066406 Z m 4.3652344,0 h 2.917969 v 2.914063 h -2.917969 z m 4.371094,0 h 2.910156 v 2.914063 h -2.910156 z m 4.365234,0 h 2.916016 v 2.914063 h -2.916016 z m 4.371094,0 h 2.914062 v 2.914063 H 23.279297 Z M 5.8066406,14.542969 h 2.9082032 v 2.914062 H 5.8066406 Z m 4.3652344,0 h 2.917969 v 2.914062 h -2.917969 z m 4.371094,0 h 2.910156 v 2.914062 h -2.910156 z m 8.289062,0.597656 h 2.382813 v 7.988281 h 2.21289 v 1.730469 h -6.796875 v -1.730469 h 2.212891 v -6.283203 l -2.271484,0.46875 v -1.705078 z m -12.660156,5.226563 h 0.0039 7.277344 v 2.914062 h -7.28125 z"
       style="fill:#e6e6e6;fill-opacity:1;stroke-width:3.53780842" />
  </g>
  <g
     id="input-keyboard-brightness"
     transform="translate(-160)">
    <rect
       style="opacity:0.00100002"
       width="32"
       height="32"
       x="0"
       y="0"
       id="rect17" />
    <path
       inkscape:connector-curvature="0"
       id="path1470-5-52"
       d="M 4.349609,5.806641 A 2.9010018,2.9010018 0 0 0 1.449219,8.71875 l -0.0098,14.5625 c 0,1.609705 1.300452,2.912109 2.910156,2.912109 H 27.646484 A 2.9116162,2.9116162 0 0 0 30.560547,23.28125 V 8.71875 A 2.9116162,2.9116162 0 0 0 27.646484,5.806641 Z m 1.457032,4.36914 h 2.908203 v 2.914063 H 5.806641 Z m 4.365234,0 h 2.917969 v 2.914063 h -2.917969 z m 4.371094,0 h 2.910156 v 2.914063 h -2.910156 z m 4.365234,0 h 2.916016 v 2.914063 h -2.916016 z m 4.371094,0 h 2.914062 v 2.914063 H 23.279297 Z M 5.806641,14.542969 h 2.908203 v 2.914062 H 5.806641 Z m 4.365234,0 h 2.917969 v 2.914062 h -2.917969 z m 4.371094,0 h 2.910156 v 2.914062 h -2.910156 z m 9.455078,0.177734 c 0.557991,0.549351 1.099078,1.112802 1.667969,1.652344 h 1.960937 v 1.960937 c 0.540038,0.566259 1.104575,1.108932 1.654297,1.666016 -0.549722,0.557049 -1.114223,1.099829 -1.654297,1.666016 v 1.960937 H 25.666016 C 25.099758,24.166991 24.557084,24.731528 24,25.28125 23.442951,24.731528 22.90017,24.167027 22.333984,23.626953 H 20.373047 V 21.666016 C 19.833009,21.099757 19.268472,20.557084 18.71875,20 c 0.549722,-0.557048 1.114274,-1.099816 1.654297,-1.666016 v -1.960937 h 1.960937 c 0.565702,-0.539542 1.107516,-1.103135 1.664063,-1.652344 z M 24,16.736328 c -1.802643,0 -3.263672,1.461029 -3.263672,3.263672 0,1.802644 1.461029,3.263672 3.263672,3.263672 1.802643,0 3.263672,-1.461028 3.263672,-3.263672 0,-1.802643 -1.461029,-3.263672 -3.263672,-3.263672 z m 0,1.087891 v 4.351562 c -1.20175,0 -2.175781,-0.974031 -2.175781,-2.175781 0,-1.201749 0.974031,-2.175781 2.175781,-2.175781 z m -13.828125,2.542969 h 0.0039 7.277344 v 2.914062 h -7.28125 z"
       style="fill:#e6e6e6;fill-opacity:1;stroke-width:3.53780842" />
  </g>
  <g
     id="input-keyboard-virtual-on"
     transform="translate(-192)">
    <rect
       style="opacity:0.00100002"
       width="32"
       height="32"
       x="0"
       y="0"
       id="rect407" />
    <path
       id="path1470-5-4"
       d="M 4.3496094,5.8066406 A 2.9010018,2.9010018 0 0 0 1.4492188,8.71875 l -0.00977,14.5625 c 0,1.609705 1.3004523,2.912109 2.9101563,2.912109 H 27.646484 A 2.9116162,2.9116162 0 0 0 30.560547,23.28125 V 8.71875 A 2.9116162,2.9116162 0 0 0 27.646484,5.8066406 Z m 1.4570312,4.3691404 h 2.9082032 v 2.914063 H 5.8066406 Z m 4.3652344,0 h 2.917969 v 2.914063 h -2.917969 z m 4.371094,0 h 2.910156 v 2.914063 h -2.910156 z m 4.365234,0 h 2.916016 v 2.914063 h -2.916016 z m 4.371094,0 h 2.914062 v 2.914063 H 23.279297 Z M 5.8066406,14.542969 h 2.9082032 v 2.914062 H 5.8066406 Z m 4.3652344,0 h 2.917969 v 2.914062 h -2.917969 z m 4.371094,0 h 2.910156 v 2.914062 h -2.910156 z m 8.603515,0.123047 c 0.841511,0 0.841644,0.667254 0.839844,1.333984 0.0033,0.221522 0,0.578643 0,1.179688 0,0.87745 -0.01,1.692599 0.002,1.6875 1.2e-4,0 0.01247,-0.0037 0.01367,-0.0039 C 24.039637,18.385802 24.193659,18 24.832031,18 c 0.839918,0 0.839691,0.667254 0.837891,1.333984 0.0012,0.07971 6.6e-5,0.303959 0,0.423828 0,0.0071 0.0019,0.03957 0.002,0.04297 0.0021,-0.0015 0.0036,-0.0024 0.0059,-0.0039 0.0095,-0.591133 0.08308,-1.130859 0.835938,-1.130859 0.839917,0 0.841644,0.667253 0.839844,1.333984 0.0018,0.09829 2.97e-4,0.362291 0,0.523438 6e-4,-0.01611 0.0027,-0.0328 0.0039,-0.04883 0.0087,-0.595801 0.08,-1.140625 0.83789,-1.140625 0.83982,0 0.839691,0.665301 0.837891,1.332032 0.0028,0.182889 5.6e-4,0.545902 0,0.974609 5e-4,0.009 0.0018,0.01629 0.002,0.02539 0.0095,0.482414 0.02035,0.506354 0,1.101562 -0.04673,0.512257 -0.211663,1.43289 -0.376953,2.039063 -0.05773,0.211721 -0.08584,0.275731 -0.160156,0.363281 -0.05304,0.06247 -0.128338,0.119959 -0.179688,0.136719 -0.113067,0.03679 -5.744338,0.03507 -5.853515,-0.002 -0.178572,-0.06045 -1.213912,-0.661489 -2.25586,-2.28125 -0.562619,-0.87462 -1.05212,-1.628835 -1.08789,-1.677735 -0.03578,-0.0489 -0.08943,-0.152116 -0.119141,-0.228515 -0.04714,-0.121283 -0.05342,-0.164581 -0.04492,-0.347657 0.01119,-0.239568 0.05855,-0.372095 0.185547,-0.521484 0.183657,-0.216056 0.50279,-0.291172 0.728516,-0.171875 0.05415,0.02862 0.309281,0.251604 0.566406,0.49414 0.393398,0.370142 1.27414,0.647844 1.855469,0.720704 0.02032,-0.0872 0.02214,-0.722282 0.01172,-2.75 -0.0068,-1.268477 -0.0078,-2.129063 -0.002,-2.541016 0.0019,-0.666732 0.0023,-1.333984 0.84375,-1.333984 z m -12.974609,5.701172 h 0.0039 7.277344 v 2.914062 h -7.28125 z"
       style="fill:#e6e6e6;fill-opacity:1;stroke-width:3.53780842"
       inkscape:connector-curvature="0" />
  </g>
  <g
     id="input-keyboard-virtual-off"
     transform="translate(-224)">
    <rect
       style="opacity:0.00100002"
       width="32"
       height="32"
       x="0"
       y="0"
       id="rect428" />
    <path
       id="path1470-5-8"
       d="M 4.3496094,5.8066406 A 2.9010018,2.9010018 0 0 0 1.4492188,8.71875 l -0.00977,14.5625 c 0,1.609705 1.3004523,2.912109 2.9101563,2.912109 H 27.646484 A 2.9116162,2.9116162 0 0 0 30.560547,23.28125 V 8.71875 A 2.9116162,2.9116162 0 0 0 27.646484,5.8066406 Z m 1.4570312,4.3691404 h 2.9082032 v 2.914063 H 5.8066406 Z m 4.3652344,0 h 2.917969 v 2.914063 h -2.917969 z m 4.371094,0 h 2.910156 v 2.914063 h -2.910156 z m 4.365234,0 h 2.916016 v 2.914063 h -2.916016 z m 4.371094,0 h 2.914062 v 2.914063 H 23.279297 Z M 5.8066406,14.542969 h 2.9082032 v 2.914062 H 5.8066406 Z m 4.3652344,0 h 2.917969 v 2.914062 h -2.917969 z m 4.371094,0 h 2.910156 v 2.914062 H 14.542969 Z M 20.273438,14.933594 24,18.660156 27.71875,14.933594 29.066406,16.273438 25.339844,20 29.066406,23.71875 27.726562,25.066406 24,21.339844 20.28125,25.066406 18.933594,23.726562 22.660156,20 18.933594,16.28125 Z m -10.101563,5.433594 h 0.0039 7.277344 v 2.914062 h -7.28125 z"
       style="fill:#e6e6e6;fill-opacity:1;stroke-width:3.53780842"
       inkscape:connector-curvature="0" />
  </g>
  <g
     id="input-keyboard-battery"
     transform="translate(-32)">
    <rect
       style="opacity:0.00100002"
       width="32"
       height="32"
       x="0"
       y="0"
       id="rect121" />
    <path
       inkscape:connector-curvature="0"
       id="path1470-5-54"
       d="M 4.349626,5.806641 A 2.9010018,2.9010018 0 0 0 1.449236,8.7187504 L 1.439436,23.28125 c 0,1.609705 1.300452,2.912109 2.910156,2.912109 H 27.646501 A 2.9116162,2.9116162 0 0 0 30.560564,23.28125 V 8.7187504 A 2.9116162,2.9116162 0 0 0 27.646501,5.806641 Z m 1.457032,4.36914 h 2.908203 v 2.914063 H 5.806658 Z m 4.365234,0 h 2.917969 v 2.914063 h -2.917969 z m 4.371094,0 h 2.910156 v 2.914063 h -2.910156 z m 4.365234,0 h 2.916016 v 2.914063 H 18.90822 Z m 4.371094,0 h 2.914062 v 2.914063 h -2.914062 z m 3.650391,3.740235 -1.947266,4.533203 h 2.912109 l -6.824219,7.265625 2.929688,-5.449219 H 20.105486 Z M 5.806658,14.542969 h 2.908203 v 2.914062 H 5.806658 Z m 4.365234,0 h 2.917969 v 2.914062 h -2.917969 z m 4.371094,0 h 2.910156 v 2.914062 h -2.910156 z m -4.371094,5.824219 h 0.0039 7.277344 v 2.914062 h -7.28125 z"
       style="fill:#e6e6e6;fill-opacity:1;stroke-width:3.53780842" />
  </g>
  <g
     id="input-mouse-battery">
    <rect
       style="opacity:0.00100002"
       width="32"
       height="32"
       x="0"
       y="0"
       id="rect176" />
    <path
       inkscape:connector-curvature="0"
       id="path2"
       d="M 14.82039,3.0703125 A 9.4326103,9.4326103 0 0 0 6.5746982,12.424569 H 14.82039 Z m 2.345757,0 v 9.3542565 h 8.259231 c 0,-4.820532 -3.594528,-8.7810039 -8.245691,-9.3542565 z M 6.5611584,14.782174 l 0.01354,4.730441 a 9.4326103,9.4326103 0 1 0 18.8642206,0 v -4.730441 z m 11.9775786,1.313353 -1.687389,3.926519 h 2.523467 l -5.913475,6.295973 2.538698,-4.721979 h -3.374775 z"
       style="fill:#e6e6e6;fill-opacity:1;stroke-width:1.30284655" />
  </g>
  <g
     id="22-22-input-caps-on"
     inkscape:label="#22-22-input-caps-on"
     transform="translate(-44)">
    <rect
       style="opacity:0.00100002;stroke-width:0.6875"
       width="22"
       height="22"
       x="0.016109001"
       y="-22.05986"
       id="rect213-3" />
    <path
       inkscape:connector-curvature="0"
       id="path1470-5-6-2-2"
       d="m 3.8065994,-17.367727 a 1.7952016,1.7952016 0 0 0 -1.7948235,1.802075 l -0.00605,9.0115844 c 0,0.9961197 0.8047476,1.802075 1.8008667,1.802075 H 18.223201 a 1.80177,1.80177 0 0 0 1.803284,-1.802075 v -9.0115844 a 1.80177,1.80177 0 0 0 -1.803284,-1.802075 z m 0.9016418,2.703716 h 1.799658 v 1.803285 h -1.799658 z m 2.7013,0 h 1.8057013 v 1.803285 H 7.4095412 Z m 2.7049258,0 h 1.800866 v 1.803285 h -1.800866 z m 2.7013,0 h 1.804493 v 1.803285 h -1.804493 z m 2.704926,0 h 1.803283 v 1.803285 h -1.803283 z m -10.8124518,2.702509 h 1.799658 v 1.803284 h -1.799658 z m 2.7013,0 h 1.8057013 v 1.803284 H 7.4095412 Z m 2.7049258,0 h 1.800866 v 1.803284 h -1.800866 z m 6.55322,0.256231 c 0.335732,0 0.658035,0.03841 0.966908,0.113612 0.308874,0.0752 0.606064,0.18586 0.890766,0.333583 v 1.244894 c -0.287387,-0.196067 -0.571551,-0.338955 -0.85088,-0.430273 -0.279329,-0.09132 -0.573431,-0.137785 -0.882304,-0.137785 -0.553287,0 -0.988395,0.177266 -1.305326,0.531799 -0.316931,0.3545331 -0.474994,0.8441649 -0.474994,1.4672832 0,0.6204327 0.158063,1.107916 0.474994,1.4624491 0.316931,0.3545327 0.752039,0.531799 1.305326,0.531799 0.308873,0 0.602975,-0.046467 0.882304,-0.1377842 0.279329,-0.091319 0.563493,-0.2342066 0.85088,-0.4302739 v 1.2448939 c -0.284701,0.1477225 -0.581892,0.2583795 -0.890766,0.3335836 -0.308873,0.075204 -0.631176,0.1136119 -0.966908,0.1136119 -1.001824,0 -1.795494,-0.2801349 -2.381011,-0.8387931 -0.585517,-0.5613439 -0.878678,-1.3206357 -0.878678,-2.2794863 0,-0.9615362 0.293161,-1.7220362 0.878678,-2.2806942 0.585517,-0.561345 1.379187,-0.842419 2.381011,-0.842419 z m -9.2581458,3.3479198 h 0.00241 4.5033748 v 1.8032836 H 7.4095374 Z"
       style="fill:#e6e6e6;fill-opacity:1;stroke-width:2.18927121" />
  </g>
  <g
     id="22-22-input-keyboard"
     transform="translate(-22)">
    <rect
       style="opacity:0.00100002;stroke-width:0.6875"
       width="22"
       height="22"
       x="0"
       y="-22"
       id="rect72-6" />
    <path
       id="path839-2"
       d="m 3.7940218,-17.305234 a 1.7944805,1.7944805 0 0 0 -1.7947105,1.801495 l -0.00562,9.0074773 c 0,0.9957181 0.8046471,1.8014955 1.8003649,1.8014955 H 18.204852 a 1.8010457,1.8010457 0 0 0 1.801497,-1.8014955 v -9.0074773 a 1.8010457,1.8010457 0 0 0 -1.801497,-1.801495 z m 0.9001818,2.702809 h 1.8003648 v 1.801495 H 4.6942036 Z m 2.7016786,0 H 9.199638 v 1.801495 H 7.3958822 Z m 2.7028078,0 h 1.801495 v 1.801495 H 10.09869 Z m 2.700548,0 h 1.803756 v 1.801495 h -1.803756 z m 2.702808,0 h 1.803757 v 1.801495 h -1.803757 z m -10.8078424,2.700546 h 1.8003648 v 1.803758 H 4.6942036 Z m 2.7016786,0 H 9.199638 v 1.803758 H 7.3958822 Z m 2.7028078,0 h 1.801495 v 1.803758 H 10.09869 Z m 2.700548,0 h 1.803756 v 1.803758 h -1.803756 z m 2.702808,0 h 1.803757 v 1.803758 h -1.803757 z m -8.1061638,3.6041219 h 0.00229 7.2071118 v 1.8014954 H 7.3958822 Z"
       style="fill:#e6e6e6;fill-opacity:1;stroke-width:2.18839097"
       inkscape:connector-curvature="0" />
  </g>
  <g
     id="22-22-input-num-on"
     transform="translate(-66)">
    <rect
       style="opacity:0.00100002;stroke-width:0.6875"
       width="22"
       height="22"
       x="0"
       y="-22"
       id="rect345-4" />
    <path
       inkscape:connector-curvature="0"
       id="path1470-5-5-7"
       d="m 3.7904904,-17.307867 a 1.7952016,1.7952016 0 0 0 -1.7948235,1.802075 l -0.00605,9.0115844 c 0,0.9961197 0.8047476,1.802075 1.8008667,1.802075 H 18.207092 a 1.80177,1.80177 0 0 0 1.803284,-1.802075 v -9.0115844 a 1.80177,1.80177 0 0 0 -1.803284,-1.802075 z m 0.9016418,2.703716 h 1.799658 v 1.803285 h -1.799658 z m 2.7013,0 h 1.8057013 v 1.803285 H 7.3934322 Z m 2.7049258,0 h 1.800866 v 1.803285 h -1.800866 z m 2.7013,0 h 1.804493 v 1.803285 h -1.804493 z m 2.704926,0 h 1.803283 v 1.803285 h -1.803283 z m -10.8124518,2.702509 h 1.799658 v 1.803284 h -1.799658 z m 2.7013,0 h 1.8057013 v 1.803284 H 7.3934322 Z m 2.7049258,0 h 1.800866 v 1.803284 h -1.800866 z m 5.129448,0.369843 h 1.474535 v 4.9433177 h 1.369384 v 1.070851 h -4.206051 v -1.070851 h 1.369384 v -3.8881797 l -1.405643,0.290072 v -1.055138 z m -7.8343738,3.2343078 h 0.00241 4.5033758 v 1.8032836 H 7.3934284 Z"
       style="fill:#e6e6e6;fill-opacity:1;stroke-width:2.18927121" />
  </g>
  <g
     id="22-22-input-keyboard-brightness"
     inkscape:label="#22-22-input-keyboard-brightness"
     transform="translate(-88)">
    <rect
       style="opacity:0.00100002;stroke-width:0.6875"
       width="22"
       height="22"
       x="0"
       y="-22"
       id="rect17-4" />
    <path
       inkscape:connector-curvature="0"
       id="path1470-5-52-9"
       d="m 3.7904882,-17.307868 a 1.7952018,1.7952018 0 0 0 -1.7948232,1.802075 l -0.00606,9.0115859 c 0,0.9961199 0.8047474,1.8020752 1.8008666,1.8020752 H 18.207092 a 1.8017702,1.8017702 0 0 0 1.803284,-1.8020752 v -9.0115859 a 1.8017702,1.8017702 0 0 0 -1.803284,-1.802075 z m 0.9016425,2.703717 h 1.799658 v 1.803285 h -1.799658 z m 2.7013,0 h 1.8057015 v 1.803285 H 7.3934307 Z m 2.7049263,0 h 1.800866 v 1.803285 h -1.800866 z m 2.7013,0 h 1.804493 v 1.803285 h -1.804493 z m 2.704926,0 h 1.803284 v 1.803285 h -1.803284 z m -10.8124523,2.702509 h 1.799658 v 1.803284 h -1.799658 z m 2.7013,0 h 1.8057015 v 1.803284 H 7.3934307 Z m 2.7049263,0 h 1.800866 v 1.803284 h -1.800866 z m 5.851004,0.109985 c 0.345297,0.339951 0.680133,0.688627 1.032175,1.022507 h 1.213469 v 1.2134691 c 0.334187,0.3504132 0.683535,0.6862308 1.023714,1.0309663 -0.340179,0.3447138 -0.689504,0.6805976 -1.023714,1.0309662 v 1.2134697 h -1.213469 c -0.350412,0.334187 -0.686231,0.6835346 -1.030966,1.0237143 -0.344714,-0.3401797 -0.680599,-0.6895049 -1.030967,-1.0237143 h -1.213469 v -1.2134697 c -0.334187,-0.3504131 -0.683535,-0.6862307 -1.023714,-1.0309662 0.340179,-0.3447132 0.689536,-0.6805896 1.023714,-1.0309663 V -10.76915 h 1.213469 c 0.350069,-0.33388 0.685355,-0.682644 1.029758,-1.022507 z m 0.0012,1.247312 c -1.115514,0 -2.01963,0.9041164 -2.01963,2.0196304 0,1.1155146 0.904116,2.0196299 2.01963,2.0196299 1.115514,0 2.019629,-0.9041153 2.019629,-2.0196299 0,-1.115514 -0.904115,-2.0196304 -2.019629,-2.0196304 z m 0,0.6732107 v 2.6928394 c -0.743669,0 -1.346419,-0.6027512 -1.346419,-1.3464197 0,-0.7436679 0.60275,-1.3464197 1.346419,-1.3464197 z m -8.557139,1.5736434 h 0.00241 4.503376 v 1.8032838 H 7.3934269 Z"
       style="fill:#e6e6e6;fill-opacity:1;stroke-width:2.18927145" />
  </g>
  <g
     id="22-22-input-keyboard-virtual-on"
     transform="translate(-110)">
    <rect
       style="opacity:0.00100002;stroke-width:0.6875"
       width="22"
       height="22"
       x="0"
       y="-22"
       id="rect407-5" />
    <path
       id="path1470-5-4-4"
       d="m 3.7904904,-17.307868 a 1.7952016,1.7952016 0 0 0 -1.7948235,1.802076 l -0.00605,9.0115844 c 0,0.9961197 0.8047476,1.8020749 1.8008667,1.8020749 H 18.207092 a 1.80177,1.80177 0 0 0 1.803284,-1.8020749 v -9.0115844 a 1.80177,1.80177 0 0 0 -1.803284,-1.802076 z m 0.9016418,2.703717 h 1.799658 v 1.803285 h -1.799658 z m 2.7013,0 h 1.8057013 v 1.803285 H 7.3934322 Z m 2.7049258,0 h 1.800866 v 1.803285 h -1.800866 z m 2.7013,0 h 1.804493 v 1.803285 h -1.804493 z m 2.704926,0 h 1.803283 v 1.803285 h -1.803283 z m -10.8124518,2.702509 h 1.799658 v 1.803284 h -1.799658 z m 2.7013,0 h 1.8057013 v 1.803284 H 7.3934322 Z m 2.7049258,0 h 1.800866 v 1.803284 h -1.800866 z m 5.324038,0.07615 c 0.520745,0 0.520827,0.412911 0.519713,0.825497 0.0021,0.137083 0,0.358077 0,0.730016 0,0.5429852 -0.0062,1.0474167 0.0013,1.0442613 7.5e-5,0 0.0077,-0.00229 0.0085,-0.00241 0.02327,-0.2954841 0.118581,-0.5342266 0.513618,-0.5342266 0.51976,0 0.519619,0.412911 0.518505,0.8254977 7.43e-4,0.049327 4.1e-5,0.1880963 0,0.2622738 0,0.00439 0.0012,0.024486 0.0013,0.026591 0.0013,-9.271e-4 0.0023,-0.00149 0.0037,-0.00241 0.0058,-0.3658057 0.05141,-0.6997996 0.517295,-0.6997996 0.519759,0 0.520827,0.4129103 0.519714,0.8254976 0.0011,0.060824 1.84e-4,0.2241934 0,0.3239146 3.71e-4,-0.00997 0.0017,-0.020297 0.0024,-0.030217 0.0054,-0.3686943 0.04951,-0.705843 0.518504,-0.705843 0.519699,0 0.519619,0.4117024 0.518505,0.8242897 0.0017,0.1131756 3.46e-4,0.3378158 0,0.6031088 3.09e-4,0.00557 0.0011,0.01008 0.0013,0.015712 0.0059,0.2985281 0.01259,0.3133427 0,0.68167 -0.02892,0.3169956 -0.130981,0.8867029 -0.233266,1.2618156 -0.03573,0.1310174 -0.05312,0.1706282 -0.09911,0.224806 -0.03282,0.038658 -0.07942,0.074233 -0.111195,0.084604 -0.06996,0.022766 -3.554719,0.021702 -3.622279,-0.00124 -0.110504,-0.037407 -0.751195,-0.4093435 -1.395975,-1.411686 -0.34816,-0.5412335 -0.651074,-1.0079577 -0.673209,-1.0382181 -0.02214,-0.030261 -0.05534,-0.094133 -0.07373,-0.1414099 -0.02917,-0.075052 -0.03306,-0.1018463 -0.0278,-0.2151376 0.0069,-0.1482498 0.03623,-0.2302603 0.11482,-0.3227054 0.113652,-0.1337001 0.311138,-0.1801834 0.450822,-0.1063599 0.03351,0.017711 0.19139,0.1556979 0.350504,0.3057843 0.243443,0.2290518 0.788465,0.4008997 1.148203,0.445987 0.01258,-0.053961 0.0137,-0.4469634 0.0073,-1.7017585 -0.0042,-0.7849598 -0.0049,-1.3175088 -0.0013,-1.5724348 0.0012,-0.412587 0.0014,-0.825497 0.52213,-0.825497 z m -8.0289638,3.5280063 h 0.00241 4.5033758 v 1.8032836 H 7.3934284 Z"
       style="fill:#e6e6e6;fill-opacity:1;stroke-width:2.18927121"
       inkscape:connector-curvature="0" />
  </g>
  <g
     id="22-22-input-keyboard-virtual-off"
     transform="translate(44)">
    <rect
       style="opacity:0.00100002;stroke-width:0.6875"
       width="22"
       height="22"
       x="0"
       y="-22"
       id="rect428-4" />
    <path
       id="path1470-5-8-2"
       d="m 3.7904904,-17.307868 a 1.7952016,1.7952016 0 0 0 -1.7948235,1.802076 l -0.00605,9.0115844 c 0,0.9961197 0.8047476,1.8020749 1.8008667,1.8020749 H 18.207092 a 1.80177,1.80177 0 0 0 1.803284,-1.8020749 v -9.0115844 a 1.80177,1.80177 0 0 0 -1.803284,-1.802076 z m 0.9016418,2.703717 h 1.799658 v 1.803285 h -1.799658 z m 2.7013,0 h 1.8057013 v 1.803285 H 7.3934322 Z m 2.7049258,0 h 1.800866 v 1.803285 h -1.800866 z m 2.7013,0 h 1.804493 v 1.803285 h -1.804493 z m 2.704926,0 h 1.803283 v 1.803285 h -1.803283 z m -10.8124518,2.702509 h 1.799658 v 1.803284 h -1.799658 z m 2.7013,0 h 1.8057013 v 1.803284 H 7.3934322 Z m 2.7049258,0 h 1.800866 v 1.803284 h -1.800866 z m 3.546137,0.241727 2.306075,2.306076 2.301242,-2.306076 0.833958,0.829125 -2.306076,2.3060751 2.306076,2.3012415 -0.829124,0.8339582 -2.306076,-2.3060758 -2.301242,2.3060758 -0.833958,-0.8291239 2.306076,-2.3060758 -2.306076,-2.3012421 z m -6.2510628,3.3624238 h 0.00241 4.5033758 v 1.8032836 H 7.3934284 Z"
       style="fill:#e6e6e6;fill-opacity:1;stroke-width:2.18927121"
       inkscape:connector-curvature="0" />
  </g>
  <g
     id="22-22-input-keyboard-battery"
     transform="translate(22)">
    <rect
       style="opacity:0.00100002;stroke-width:0.6875"
       width="22"
       height="22"
       x="0"
       y="-22"
       id="rect121-1" />
    <path
       inkscape:connector-curvature="0"
       id="path1470-5-54-6"
       d="m 3.7904999,-17.307868 a 1.7952018,1.7952018 0 0 0 -1.7948233,1.802075 l -0.00606,9.011586 c 0,0.9961198 0.8047474,1.8020751 1.8008666,1.8020751 H 18.207103 a 1.8017702,1.8017702 0 0 0 1.803285,-1.8020751 v -9.011586 a 1.8017702,1.8017702 0 0 0 -1.803285,-1.802075 z m 0.9016425,2.703717 h 1.799658 v 1.803285 h -1.799658 z m 2.7012999,0 h 1.8057015 v 1.803285 H 7.3934423 Z m 2.7049267,0 h 1.800866 v 1.803285 h -1.800866 z m 2.701299,0 h 1.804493 v 1.803285 h -1.804493 z m 2.704927,0 h 1.803284 v 1.803285 h -1.803284 z m 2.25894,2.314537 -1.20501,2.805243 H 18.3606 l -4.222972,4.4961239 1.812954,-3.3720931 h -2.410019 z m -13.0713926,0.387972 h 1.799658 v 1.803284 h -1.799658 z m 2.7012999,0 h 1.8057015 v 1.803284 H 7.3934423 Z m 2.7049267,0 h 1.800866 v 1.803284 h -1.800866 z m -2.7049267,3.6041511 h 0.00241 4.5033767 V -6.494207 H 7.3934386 Z"
       style="fill:#e6e6e6;fill-opacity:1;stroke-width:2.18927145" />
  </g>
  <g
     id="22-22-input-mouse-battery">
    <rect
       style="opacity:0.00100002;stroke-width:0.6875"
       width="22"
       height="22"
       x="0"
       y="-22"
       id="rect176-3" />
    <path
       inkscape:connector-curvature="0"
       id="path2-7"
       d="m 10.279877,-18.88916 a 5.7585531,5.7585531 0 0 0 -5.033946,5.710718 h 5.033946 z m 1.432071,0 v 5.710718 h 5.042212 c 0,-2.942906 -2.194438,-5.360751 -5.033946,-5.710718 z m -6.4742829,7.150023 0.00827,2.8879057 a 5.7585531,5.7585531 0 1 0 11.5164959,0 v -2.8879057 z m 7.3122419,0.801794 -1.030142,2.3971163 h 1.540562 L 9.4501854,-4.6965722 11.000045,-7.5793126 H 8.9397652 Z"
       style="fill:#e6e6e6;fill-opacity:1;stroke-width:0.79538018" />
  </g>
  <g
     id="input-touchpad-on"
     transform="translate(64)">
    <rect
       style="opacity:0.00100002"
       width="32"
       height="32"
       x="0"
       y="-1e-06"
       id="rect268" />
    <path
       inkscape:connector-curvature="0"
       id="path2518-1"
       d="M 5.4456698,3.9431472 A 1.5263287,1.7272647 0 0 0 3.9160152,5.6748317 V 17.262687 l 24.1624088,0.06313 V 5.6748317 A 1.5263287,1.7272647 0 0 0 26.54877,3.9431472 H 5.4492775 Z M 3.9160152,18.310716 v 8.012648 c 0,0.960389 0.6841576,1.733488 1.5296546,1.733489 H 26.552377 a 1.5263287,1.7272647 0 0 0 1.529655,-1.733489 V 18.368439 L 3.9196229,18.310716 Z m 2.4514158,2.307109 h 7.902614 c 0.625242,0 1.127398,0.493571 1.127398,1.107557 v 3.326277 c 0,0.613986 -0.502156,1.107556 -1.127398,1.107556 H 6.367431 c -0.6252425,0 -1.1292026,-0.49357 -1.1292026,-1.107556 v -3.326277 c 0,-0.613986 0.5039601,-1.107557 1.1292026,-1.107557 z m 11.362375,0 h 7.902615 c 0.625242,0 1.129202,0.493571 1.129202,1.107557 v 3.326277 c 0,0.613986 -0.50396,1.107556 -1.129202,1.107556 h -7.902615 c -0.625242,0 -1.127398,-0.49357 -1.127398,-1.107556 v -3.326277 c 0,-0.613986 0.502156,-1.107557 1.127398,-1.107557 z"
       style="fill:#e6e6e6;fill-opacity:1;stroke-width:3.36865425" />
  </g>
  <g
     id="input-touchpad-off"
     transform="translate(32)">
    <rect
       style="opacity:0.00100002"
       width="32"
       height="32"
       x="0"
       y="-1e-06"
       id="rect268-0" />
    <path
       id="path2518-1-1"
       d="M 5.4453125,3.9433594 A 1.5263287,1.7272647 0 0 0 3.9160156,5.6757812 V 17.261719 l 24.1621094,0.06445 V 5.6757812 A 1.5263287,1.7272647 0 0 0 26.548828,3.9433594 H 5.4492188 Z M 12.273438,5.8261719 16,9.5527344 l 3.71875,-3.7265625 1.347656,1.3398437 -3.726562,3.7265624 3.726562,3.71875 -1.339844,1.347656 L 16,12.232422 12.28125,15.958984 10.933594,14.619141 14.660156,10.892578 10.933594,7.1738281 Z M 3.9160156,18.310547 v 8.013672 c 0,0.960389 0.6837999,1.732421 1.5292969,1.732422 H 26.552734 a 1.5263287,1.7272647 0 0 0 1.529297,-1.732422 V 18.369141 L 3.9199219,18.310547 Z m 2.4511719,2.306641 h 7.9023435 c 0.625242,0 1.126953,0.493435 1.126953,1.107421 v 3.326172 c 0,0.613986 -0.501711,1.109375 -1.126953,1.109375 H 6.3671875 c -0.6252425,0 -1.1289063,-0.495389 -1.1289063,-1.109375 v -3.326172 c 0,-0.613986 0.5036638,-1.107422 1.1289063,-1.107421 z m 11.3632815,0 h 7.902343 c 0.625243,0 1.128907,0.493435 1.128907,1.107421 v 3.326172 c 0,0.613986 -0.503665,1.109375 -1.128907,1.109375 h -7.902343 c -0.625242,0 -1.128907,-0.495389 -1.128907,-1.109375 v -3.326172 c 0,-0.613986 0.503665,-1.107422 1.128907,-1.107421 z"
       style="fill:#e6e6e6;fill-opacity:1;stroke-width:3.36865425"
       inkscape:connector-curvature="0" />
  </g>
  <g
     id="22-22-input-touchpad-on"
     transform="translate(0,-44)">
    <path
       inkscape:connector-curvature="0"
       style="opacity:0.00100002"
       d="m 0,-22 h 22 c 0,0 0,0 0,0 V 0 c 0,0 0,0 0,0 H 0 c 0,0 0,0 0,0 v -22 c 0,0 0,0 0,0 z"
       id="path336" />
    <path
       inkscape:connector-curvature="0"
       style="fill:#e6e6e6;fill-opacity:1;stroke-width:0.8888889"
       d="M 4.0659733,-18.111111 C 2.9993067,-18.111111 3,-17.01736 3,-17.01736 v 12.03472 c 0,0 -6.933e-4,1.0937511 1.0659733,1.0937511 H 17.934027 c 0,0 1.065973,2.667e-4 1.065973,-1.0937511 v -12.03472 c 0,-1.094018 -1.065973,-1.093751 -1.065973,-1.093751 z m 11.3784707,1.777778 h 1.777778 v 0.888889 h -1.777778 z m 0,1.777777 h 1.777778 v 0.888889 h -1.777778 z m 0,1.777778 h 1.777778 v 0.888889 h -1.777778 z m 0,1.777778 h 1.777778 v 0.888889 H 15.444444 Z M 4.7777778,-8.3333333 h 5.3333332 v 2.6666666 H 4.7777778 Z m 7.1111112,0 h 5.333333 v 2.6666666 h -5.333333 z"
       id="path338" />
  </g>
  <g
     id="22-22-input-touchpad-off"
     transform="translate(0,-22)">
    <path
       inkscape:connector-curvature="0"
       style="opacity:0.00100002"
       d="m 0,-22 h 22 c 0,0 0,0 0,0 V 0 c 0,0 0,0 0,0 H 0 c 0,0 0,0 0,0 v -22 c 0,0 0,0 0,0 z"
       id="path336-2" />
    <path
       id="path338-2"
       d="M 4.0664062,-18.111328 C 2.9997397,-18.111328 3,-17.017578 3,-17.017578 v 12.0351561 c 0,0 -2.603e-4,1.09375 1.0664062,1.09375 H 17.933594 c 0,0 1.066406,2.678e-4 1.066406,-1.09375 V -17.017578 c 0,-1.094018 -1.066406,-1.09375 -1.066406,-1.09375 z m 0.8886719,0.871094 2.3066407,2.304687 2.3007812,-2.304687 0.833984,0.828125 -2.3066402,2.30664 2.3066402,2.300781 -0.8281246,0.833985 -2.3066406,-2.306641 -2.3007813,2.306641 -0.8339844,-0.828125 2.3046875,-2.306641 -2.3046875,-2.300781 z m 10.4902339,0.90625 h 1.777344 v 0.888672 h -1.777344 z m 0,1.779296 h 1.777344 v 0.888672 h -1.777344 z m 0,1.777344 h 1.777344 v 0.888672 h -1.777344 z m 0,1.777344 h 1.777344 v 0.888672 H 15.445312 Z M 4.7773438,-8.3339844 h 5.3339842 v 2.6679688 H 4.7773438 Z m 7.1113282,0 h 5.333984 v 2.6679688 h -5.333984 z"
       style="fill:#e6e6e6;fill-opacity:1;stroke-width:0.8888889"
       inkscape:connector-curvature="0" />
  </g>
</svg>
