<?xml version="1.0" encoding="UTF-8" standalone="no"?>
<!-- Created with Inkscape (http://www.inkscape.org/) -->

<svg
   xmlns:dc="http://purl.org/dc/elements/1.1/"
   xmlns:cc="http://creativecommons.org/ns#"
   xmlns:rdf="http://www.w3.org/1999/02/22-rdf-syntax-ns#"
   xmlns:svg="http://www.w3.org/2000/svg"
   xmlns="http://www.w3.org/2000/svg"
   xmlns:sodipodi="http://sodipodi.sourceforge.net/DTD/sodipodi-0.dtd"
   xmlns:inkscape="http://www.inkscape.org/namespaces/inkscape"
   width="32"
   height="32"
   id="svg3869"
   version="1.1"
   inkscape:version="0.92.4 (5da689c313, 2019-01-14)"
   sodipodi:docname="kdeconnect.svg"
   viewBox="0 0 32 32">
  <defs
     id="defs3871">
    <style
       type="text/css"
       id="current-color-scheme">
      .ColorScheme-Text {
        color:#31363b;
      }
      .ColorScheme-Background {
        color:#eff0f1;
      }
      .ColorScheme-Highlight {
        color:#3daee9;
      }
      .ColorScheme-ViewText {
        color:#31363b;
      }
      .ColorScheme-ViewBackground {
        color:#fcfcfc;
      }
      .ColorScheme-ViewHover {
        color:#93cee9;
      }
      .ColorScheme-ViewFocus{
        color:#3daee9;
      }
      .ColorScheme-ButtonText {
        color:#31363b;
      }
      .ColorScheme-ButtonBackground {
        color:#eff0f1;
      }
      .ColorScheme-ButtonHover {
        color:#93cee9;
      }
      .ColorScheme-ButtonFocus{
        color:#3daee9;
      }
      </style>
  </defs>
  <sodipodi:namedview
     id="base"
     pagecolor="#ffffff"
     bordercolor="#666666"
     borderopacity="1.0"
     inkscape:pageopacity="0.0"
     inkscape:pageshadow="2"
     inkscape:zoom="2.8726213"
     inkscape:cx="16"
     inkscape:cy="16"
     inkscape:document-units="px"
     inkscape:current-layer="layer1"
     showgrid="true"
     fit-margin-top="0"
     fit-margin-left="0"
     fit-margin-right="0"
     fit-margin-bottom="0"
     inkscape:window-width="1366"
     inkscape:window-height="717"
     inkscape:window-x="0"
     inkscape:window-y="25"
     inkscape:window-maximized="1"
     inkscape:showpageshadow="false">
    <inkscape:grid
       type="xygrid"
       id="grid4132"
       originx="5"
       originy="4.9999826" />
    <sodipodi:guide
       position="7,25"
       orientation="18,0"
       id="guide4138"
       inkscape:locked="false" />
    <sodipodi:guide
       position="7,7"
       orientation="0,18"
       id="guide4140"
       inkscape:locked="false" />
    <sodipodi:guide
       position="25,7"
       orientation="-18,0"
       id="guide4142"
       inkscape:locked="false" />
    <sodipodi:guide
       position="25,25"
       orientation="0,-18"
       id="guide4144"
       inkscape:locked="false" />
    <sodipodi:guide
       position="8,24"
       orientation="16,0"
       id="guide4146"
       inkscape:locked="false" />
    <sodipodi:guide
       position="8,8"
       orientation="0,16"
       id="guide4148"
       inkscape:locked="false" />
    <sodipodi:guide
       position="24,8"
       orientation="-16,0"
       id="guide4150"
       inkscape:locked="false" />
    <sodipodi:guide
       position="24,24"
       orientation="0,-16"
       id="guide4152"
       inkscape:locked="false" />
    <sodipodi:guide
       position="2,29.999997"
       orientation="28,0"
       id="guide4265"
       inkscape:locked="false" />
    <sodipodi:guide
       position="2,1.9999974"
       orientation="0,28"
       id="guide4267"
       inkscape:locked="false" />
    <sodipodi:guide
       position="30,1.9999974"
       orientation="-28,0"
       id="guide4269"
       inkscape:locked="false" />
    <sodipodi:guide
       position="30,29.999997"
       orientation="0,-28"
       id="guide4271"
       inkscape:locked="false" />
  </sodipodi:namedview>
  <metadata
     id="metadata3874">
    <rdf:RDF>
      <cc:Work
         rdf:about="">
        <dc:format>image/svg+xml</dc:format>
        <dc:type
           rdf:resource="http://purl.org/dc/dcmitype/StillImage" />
        <dc:title></dc:title>
      </cc:Work>
    </rdf:RDF>
  </metadata>
  <g
     inkscape:label="Capa 1"
     inkscape:groupmode="layer"
     id="layer1"
     transform="translate(-321,-529.36218)">
    <g
       id="kdeconnect">
      <rect
         y="529.36218"
         x="321"
         height="32"
         width="32"
         id="rect4436"
         style="opacity:1;fill:none;fill-opacity:1;stroke:none;stroke-width:0.1;stroke-linecap:square;stroke-linejoin:miter;stroke-miterlimit:4;stroke-dasharray:none;stroke-dashoffset:0;stroke-opacity:1" />
      <path
         inkscape:connector-curvature="0"
         id="path2"
         d="m 336.96289,532.62585 a 12.773233,12.773233 0 0 0 -12.77344,12.79493 12.773233,12.773233 0 0 0 12.79297,12.75195 12.773233,12.773233 0 0 0 12.75391,-12.77344 12.773233,12.773233 0 0 0 -12.77344,-12.77344 z m -0.041,1.88867 0.0196,0.0215 a 10.965894,10.965894 0 0 1 6.01758,1.80664 h -12.08789 a 10.965894,10.965894 0 0 1 6.05078,-1.82813 z m -6.11328,1.87305 v 18.0293 h 12.36719 v -17.93555 a 10.965894,10.965894 0 0 1 4.73242,9.01953 10.965894,10.965894 0 0 1 -10.9668,10.98633 10.965894,10.965894 0 0 1 -10.98632,-10.96484 10.965894,10.965894 0 0 1 4.85351,-9.13477 z m 0.71094,2.26953 h 10.92578 v 13.60742 h -10.92578 z m 6.31641,1.3418 -1.78711,0.18164 v 7.33203 l 1.76562,-0.26367 v -3.10742 l 2.37695,3.45117 1.84766,-0.56836 -2.4375,-3.34961 2.45703,-3.14844 -1.88867,-0.44727 -2.35547,3.16797 z m -4.08204,1.78516 0.0196,0.0215 h -0.0606 l -0.68946,0.71095 a 0.0812288,0.0812288 0 0 0 0,0.12109 l 0.81251,1.36133 c -0.16246,0.24366 -0.26567,0.50746 -0.3672,0.77148 l -1.50194,0.32422 a 0.10153606,0.10153606 0 0 0 -0.0606,0.0821 v 1.01562 c 0,0.0202 0.02,0.0606 0.0606,0.0606 l 1.46288,0.36524 c 0.0812,0.32492 0.20279,0.62978 0.36524,0.91406 l -0.85351,1.2793 a 0.0812288,0.0812288 0 0 0 0,0.1211 l 0.71093,0.71093 h 0.12109 l 1.32032,-0.8125 c 0.26401,0.16245 0.54891,0.28401 0.85352,0.36524 l 0.30468,1.48242 c 0,0.0404 0.0392,0.082 0.08,0.082 h 0.9961 c 0.0404,0 0.08,-0.0413 0.08,-0.082 l 0.36718,-1.48242 c 0.30462,-0.10153 0.60907,-0.20279 0.87305,-0.36524 l 1.29883,0.85352 h 0.12109 l 0.6914,-0.71094 a 0.0812288,0.0812288 0 0 0 0.0196,-0.12109 l -0.48632,-0.77149 -0.14258,0.039 -0.0606,-0.0196 -0.69141,-1.01563 a 2.8430092,2.8430092 0 1 1 -3.73633,-3.8789 v -0.77148 c -0.16247,0.0811 -0.34534,0.14259 -0.50781,0.24413 l -1.33985,-0.89453 z"
         style="fill:#e6e6e6;stroke-width:2.03072023" />
    </g>
    <g
       id="22-22-kdeconnect"
       transform="translate(28)">
      <rect
         style="opacity:1;fill:none;fill-opacity:1;stroke:none;stroke-width:0.13858683;stroke-linecap:square;stroke-linejoin:miter;stroke-miterlimit:4;stroke-dasharray:none;stroke-dashoffset:0;stroke-opacity:1"
         id="rect4444"
         width="22"
         height="22"
         x="326.01538"
         y="534.36218" />
      <path
         id="path2-7"
         d="m 332.35392,537.39136 c -0.36942,0 -0.65361,0.2842 -0.65361,0.68203 v 14.57757 c 0,0.36947 0.28419,0.68203 0.65361,0.68203 h 9.29216 c 0.36942,0 0.65361,-0.2842 0.65361,-0.68203 v -14.57757 c 0,-0.36947 -0.28419,-0.68203 -0.65361,-0.68203 z m 0.82405,2.07443 h 7.67246 c 0.25574,0 0.45466,0.19888 0.45466,0.48307 v 10.25835 c 0,0.28414 -0.19892,0.48307 -0.48307,0.48307 h -7.67245 a 0.48307911,0.48307911 0 0 1 -0.45467,-0.48307 v -10.25835 c 0,-0.28419 0.19893,-0.48307 0.48307,-0.48307 z m 3.80781,2.15963 h -0.34098 l -0.19893,1.13667 a 2.6711433,2.6711433 0 0 0 -0.53992,0.17046 l -0.82407,-0.79564 a 3.6941346,3.6941346 0 0 0 -0.56835,0.42625 l 0.51151,1.02301 a 2.6995599,2.6995599 0 0 0 -0.31255,0.45465 l -1.13669,-0.17051 a 3.6941346,3.6941346 0 0 0 -0.2273,0.68201 l 0.99457,0.56833 a 2.5574777,2.5574777 0 0 0 0,0.25574 v 0.25571 l -0.99457,0.53993 0.2273,0.68201 1.13669,-0.14209 0.28414,0.42623 -0.45466,1.02301 0.56834,0.42625 0.79564,-0.79564 c 0.17051,0.0855 0.34103,0.14203 0.53992,0.17046 l 0.19893,1.13667 a 3.8078,3.8078 0 0 0 0.7104,0 l 0.19893,-1.13667 a 2.6427269,2.6427269 0 0 0 0.53992,-0.17046 l 0.79563,0.79564 c 0.22731,-0.11368 0.39783,-0.28414 0.56835,-0.42625 l -0.48307,-1.02301 a 2.7279763,2.7279763 0 0 0 0.31255,-0.42623 l 1.13669,0.14209 a 3.6941346,3.6941346 0 0 0 0.2273,-0.68201 l -0.99457,-0.56834 a 2.9268912,2.9268912 0 0 0 0,-0.51144 l 0.99457,-0.53993 a 3.6941346,3.6941346 0 0 0 -0.2273,-0.68201 l -1.13669,0.17051 a 2.6995599,2.6995599 0 0 0 -0.28414,-0.45465 l 0.45466,-1.02301 a 3.6941346,3.6941346 0 0 0 -0.56835,-0.42625 l -0.79563,0.79564 a 2.6711433,2.6711433 0 0 0 -0.53992,-0.17046 l -0.19893,-1.13667 a 3.8078,3.8078 0 0 0 -0.36942,0 z m 0,2.13121 a 1.605545,1.605545 0 0 1 0,3.21109 1.605545,1.605545 0 0 1 0,-3.21109 z"
         style="fill:#e6e6e6;fill-rule:evenodd;stroke-width:2.84164166"
         inkscape:connector-curvature="0" />
    </g>
    <g
       id="16-16-kdeconnect"
       transform="translate(-24)">
      <rect
         y="537.36218"
         x="329"
         height="16"
         width="16"
         id="rect4442"
         style="opacity:1;fill:none;fill-opacity:1;stroke:none;stroke-width:0.10079043;stroke-linecap:square;stroke-linejoin:miter;stroke-miterlimit:4;stroke-dasharray:none;stroke-dashoffset:0;stroke-opacity:1" />
      <path
         id="path2-5"
         d="m 333.15203,538.7606 c -0.30598,0 -0.54131,0.23535 -0.54131,0.56485 v 12.07345 c 0,0.30596 0.23533,0.56485 0.54131,0.56485 h 7.69594 c 0.30598,0 0.54131,-0.23535 0.54131,-0.56485 v -12.07345 c 0,-0.30596 -0.23533,-0.56485 -0.54131,-0.56485 z m 0.6825,1.71806 h 6.35445 c 0.21184,0 0.37657,0.16475 0.37657,0.40008 v 8.49616 c 0,0.23535 -0.16473,0.40009 -0.40009,0.40009 h -6.35444 a 0.40009545,0.40009545 0 0 1 -0.37657,-0.40009 v -8.49616 c 0,-0.23533 0.16473,-0.40008 0.40008,-0.40008 z m 3.15368,1.78867 h -0.2824 l -0.16474,0.94137 a 2.2122925,2.2122925 0 0 0 -0.44716,0.14121 l -0.68253,-0.65897 a 3.0595535,3.0595535 0 0 0 -0.4707,0.35304 l 0.42363,0.84726 a 2.2358276,2.2358276 0 0 0 -0.25887,0.37655 l -0.94141,-0.14119 a 3.0595535,3.0595535 0 0 0 -0.18828,0.56483 l 0.82372,0.47069 a 2.1181524,2.1181524 0 0 0 0,0.21183 v 0.2118 l -0.82372,0.44717 0.18828,0.56483 0.94141,-0.11761 0.23536,0.35301 -0.37657,0.84726 0.47071,0.35304 0.65897,-0.65897 c 0.14119,0.0706 0.2824,0.11762 0.44716,0.14121 l 0.16474,0.94138 a 3.1536936,3.1536936 0 0 0 0.58838,0 l 0.16474,-0.94138 a 2.1887575,2.1887575 0 0 0 0.44716,-0.14121 l 0.65897,0.65897 c 0.18828,-0.0942 0.3295,-0.23535 0.47071,-0.35304 l -0.40008,-0.84726 a 2.2593625,2.2593625 0 0 0 0.25887,-0.35301 l 0.94141,0.11761 a 3.0595535,3.0595535 0 0 0 0.18828,-0.56483 l -0.82372,-0.47069 a 2.4241078,2.4241078 0 0 0 0,-0.42363 l 0.82372,-0.44717 a 3.0595535,3.0595535 0 0 0 -0.18828,-0.56483 l -0.94141,0.14119 a 2.2358276,2.2358276 0 0 0 -0.23536,-0.37655 l 0.37657,-0.84726 a 3.0595535,3.0595535 0 0 0 -0.47071,-0.35304 l -0.65897,0.65897 a 2.2122925,2.2122925 0 0 0 -0.44716,-0.14121 l -0.16474,-0.94137 a 3.1536936,3.1536936 0 0 0 -0.30598,0 z m 0,1.76513 a 1.3297302,1.3297302 0 0 1 0,2.65943 1.3297302,1.3297302 0 0 1 0,-2.65943 z"
         style="fill:#e6e6e6;fill-rule:evenodd;stroke-width:2.35350251"
         inkscape:connector-curvature="0" />
    </g>
  </g>
</svg>
