<?xml version="1.0" encoding="UTF-8" standalone="no"?>
<svg
   xmlns:dc="http://purl.org/dc/elements/1.1/"
   xmlns:cc="http://creativecommons.org/ns#"
   xmlns:rdf="http://www.w3.org/1999/02/22-rdf-syntax-ns#"
   xmlns:svg="http://www.w3.org/2000/svg"
   xmlns="http://www.w3.org/2000/svg"
   xmlns:sodipodi="http://sodipodi.sourceforge.net/DTD/sodipodi-0.dtd"
   xmlns:inkscape="http://www.inkscape.org/namespaces/inkscape"
   version="1.1"
   width="54"
   height="32.000011"
   id="svg2"
   viewBox="0 0 54 32.000011"
   sodipodi:docname="keyboard.svg"
   inkscape:version="0.92.4 (5da689c313, 2019-01-14)">
  <sodipodi:namedview
     pagecolor="#ffffff"
     bordercolor="#666666"
     borderopacity="1"
     objecttolerance="10"
     gridtolerance="10"
     guidetolerance="10"
     inkscape:pageopacity="0"
     inkscape:pageshadow="2"
     inkscape:window-width="1366"
     inkscape:window-height="717"
     id="namedview12"
     showgrid="false"
     inkscape:zoom="9.6296296"
     inkscape:cx="27"
     inkscape:cy="16.000006"
     inkscape:window-x="0"
     inkscape:window-y="25"
     inkscape:window-maximized="1"
     inkscape:current-layer="svg2" />
  <defs
     id="defs4">
    <style
       type="text/css"
       id="current-color-scheme">
      .ColorScheme-Text {
        color:#31363b;
      }
      .ColorScheme-Background {
        color:#eff0f1;
      }
      .ColorScheme-Highlight {
        color:#3daee9;
      }
      .ColorScheme-ViewText {
        color:#31363b;
      }
      .ColorScheme-ViewBackground {
        color:#fcfcfc;
      }
      .ColorScheme-ViewHover {
        color:#93cee9;
      }
      .ColorScheme-ViewFocus{
        color:#3daee9;
      }
      .ColorScheme-ButtonText {
        color:#31363b;
      }
      .ColorScheme-ButtonBackground {
        color:#eff0f1;
      }
      .ColorScheme-ButtonHover {
        color:#93cee9;
      }
      .ColorScheme-ButtonFocus{
        color:#3daee9;
      }
      </style>
  </defs>
  <metadata
     id="metadata7">
    <rdf:RDF>
      <cc:Work
         rdf:about="">
        <dc:format>image/svg+xml</dc:format>
        <dc:type
           rdf:resource="http://purl.org/dc/dcmitype/StillImage" />
        <dc:title></dc:title>
      </cc:Work>
    </rdf:RDF>
  </metadata>
  <g
     id="keyboard-layout"
     transform="translate(21.969697,0.16560323)">
    <rect
       style="opacity:0.00100002"
       width="32"
       height="32"
       x="0"
       y="0"
       id="rect72" />
    <path
       id="path839"
       d="M 4.354792,5.8104393 A 2.8999664,2.8999664 0 0 0 1.454454,8.7217424 l -0.0091,14.5565146 c 0,1.609128 1.300348,2.911303 2.909476,2.911303 h 23.288554 a 2.910576,2.910576 0 0 0 2.911304,-2.911303 V 8.7217424 A 2.910576,2.910576 0 0 0 27.643384,5.8104393 Z m 1.454737,4.3678687 h 2.909476 v 2.911303 H 5.809529 Z m 4.366042,0 h 2.914956 v 2.911303 h -2.914956 z m 4.367867,0 h 2.911304 v 2.911303 h -2.911304 z m 4.364214,0 h 2.914958 v 2.911303 h -2.914958 z m 4.367868,0 h 2.914958 v 2.911303 H 23.27552 Z M 5.809529,14.542521 h 2.909476 v 2.914958 H 5.809529 Z m 4.366042,0 h 2.914956 v 2.914958 h -2.914956 z m 4.367867,0 h 2.911304 v 2.914958 h -2.911304 z m 4.364214,0 h 2.914958 v 2.914958 h -2.914958 z m 4.367868,0 h 2.914958 v 2.914958 H 23.27552 Z m -13.099949,5.824433 h 0.0037 11.64704 v 2.911303 h -11.65074 z"
       style="fill:#e6e6e6;fill-opacity:1;stroke-width:3.5365448"
       inkscape:connector-curvature="0" />
  </g>
  <g
     id="22-22-keyboard-layout"
     transform="translate(-0.09869,27.994285)"
     inkscape:transform-center-x="-3.5307692"
     inkscape:transform-center-y="-12.461538">
    <rect
       style="opacity:0.00100002;stroke-width:0.6875"
       width="22"
       height="22"
       x="0"
       y="-22"
       id="rect72-6" />
    <path
       id="path839-2"
       d="m 3.7940218,-17.305234 a 1.7944805,1.7944805 0 0 0 -1.7947105,1.801495 l -0.00562,9.0074773 c 0,0.9957181 0.8046471,1.8014955 1.8003649,1.8014955 H 18.204852 a 1.8010457,1.8010457 0 0 0 1.801497,-1.8014955 v -9.0074773 a 1.8010457,1.8010457 0 0 0 -1.801497,-1.801495 z m 0.9001818,2.702809 h 1.8003648 v 1.801495 H 4.6942036 Z m 2.7016786,0 H 9.199638 v 1.801495 H 7.3958822 Z m 2.7028078,0 h 1.801495 v 1.801495 H 10.09869 Z m 2.700548,0 h 1.803756 v 1.801495 h -1.803756 z m 2.702808,0 h 1.803757 v 1.801495 h -1.803757 z m -10.8078424,2.700546 h 1.8003648 v 1.803758 H 4.6942036 Z m 2.7016786,0 H 9.199638 v 1.803758 H 7.3958822 Z m 2.7028078,0 h 1.801495 v 1.803758 H 10.09869 Z m 2.700548,0 h 1.803756 v 1.803758 h -1.803756 z m 2.702808,0 h 1.803757 v 1.803758 h -1.803757 z m -8.1061638,3.6041219 h 0.00229 7.2071118 v 1.8014954 H 7.3958822 Z"
       style="fill:#e6e6e6;fill-opacity:1;stroke-width:2.18839097"
       inkscape:connector-curvature="0" />
  </g>
</svg>
