<?xml version="1.0" encoding="UTF-8" standalone="no"?>
<!-- Created with Inkscape (http://www.inkscape.org/) -->

<svg
   xmlns:dc="http://purl.org/dc/elements/1.1/"
   xmlns:cc="http://creativecommons.org/ns#"
   xmlns:rdf="http://www.w3.org/1999/02/22-rdf-syntax-ns#"
   xmlns:svg="http://www.w3.org/2000/svg"
   xmlns="http://www.w3.org/2000/svg"
   xmlns:sodipodi="http://sodipodi.sourceforge.net/DTD/sodipodi-0.dtd"
   xmlns:inkscape="http://www.inkscape.org/namespaces/inkscape"
   id="svg4153"
   version="1.1"
   inkscape:version="0.92.4 (5da689c313, 2019-01-14)"
   width="22"
   height="22"
   sodipodi:docname="kopete.svg"
   viewBox="0 0 22 22">
  <metadata
     id="metadata4159">
    <rdf:RDF>
      <cc:Work
         rdf:about="">
        <dc:format>image/svg+xml</dc:format>
        <dc:type
           rdf:resource="http://purl.org/dc/dcmitype/StillImage" />
        <dc:title></dc:title>
      </cc:Work>
    </rdf:RDF>
  </metadata>
  <defs
     id="defs4157">
    <style
       type="text/css"
       id="current-color-scheme">
      .ColorScheme-Text {
        color:#31363b;
      }
      .ColorScheme-Background {
        color:#eff0f1;
      }
      .ColorScheme-Highlight {
        color:#3daee9;
      }
      .ColorScheme-ViewText {
        color:#31363b;
      }
      .ColorScheme-ViewBackground {
        color:#fcfcfc;
      }
      .ColorScheme-ViewHover {
        color:#93cee9;
      }
      .ColorScheme-ViewFocus{
        color:#3daee9;
      }
      .ColorScheme-ButtonText {
        color:#31363b;
      }
      .ColorScheme-ButtonBackground {
        color:#eff0f1;
      }
      .ColorScheme-ButtonHover {
        color:#93cee9;
      }
      .ColorScheme-ButtonFocus{
        color:#3daee9;
      }
      </style>
  </defs>
  <sodipodi:namedview
     pagecolor="#ffffff"
     bordercolor="#666666"
     borderopacity="1"
     objecttolerance="10"
     gridtolerance="10000"
     guidetolerance="10"
     inkscape:pageopacity="0"
     inkscape:pageshadow="2"
     inkscape:window-width="1366"
     inkscape:window-height="717"
     id="namedview4155"
     inkscape:document-units="px"
     showgrid="true"
     inkscape:showpageshadow="false"
     borderlayer="true"
     inkscape:zoom="8.3567165"
     inkscape:cx="11"
     inkscape:cy="11"
     inkscape:window-x="0"
     inkscape:window-y="25"
     inkscape:window-maximized="1"
     inkscape:current-layer="svg4153">
    <inkscape:grid
       type="xygrid"
       id="grid4140" />
    <sodipodi:guide
       position="0,22"
       orientation="22,0"
       id="guide4146"
       inkscape:locked="false" />
    <sodipodi:guide
       position="0,0"
       orientation="0,22"
       id="guide4148"
       inkscape:locked="false" />
    <sodipodi:guide
       position="22,0"
       orientation="-22,0"
       id="guide4150"
       inkscape:locked="false" />
    <sodipodi:guide
       position="22,22"
       orientation="0,-22"
       id="guide4152"
       inkscape:locked="false" />
    <sodipodi:guide
       position="3,19"
       orientation="16,0"
       id="guide4154"
       inkscape:locked="false" />
    <sodipodi:guide
       position="3,3"
       orientation="0,16"
       id="guide4156"
       inkscape:locked="false" />
    <sodipodi:guide
       position="19,3"
       orientation="-16,0"
       id="guide4158"
       inkscape:locked="false" />
    <sodipodi:guide
       position="19,19"
       orientation="0,-16"
       id="guide4160"
       inkscape:locked="false" />
  </sodipodi:namedview>
  <inkscape:clipboard
     style="opacity:0.01000001;fill:#00000f;fill-opacity:0;stroke-width:1;stroke-linecap:butt;stroke-linejoin:miter;stroke-miterlimit:4;stroke-dasharray:none;stroke-dashoffset:0;stroke-opacity:1;stroke:none"
     min="0,0"
     max="22,22" />
  <g
     id="kopete">
    <rect
       y="0"
       x="0"
       height="22"
       width="22"
       id="rect4186"
       style="opacity:1;fill:none;fill-opacity:1;stroke:none" />
    <path
       id="path2"
       d="m 10.999989,2.226771 a 8.773239,8.773239 0 0 0 -8.7732358,8.787188 8.773239,8.773239 0 0 0 8.7871858,8.759285 8.773239,8.773239 0 0 0 8.75929,-8.773235 8.773239,8.773239 0 0 0 -8.77324,-8.773238 z m -0.02789,1.3111037 A 7.5318739,7.5318739 0 0 1 18.503968,11.069748 7.5318739,7.5318739 0 0 1 10.972094,18.61557 7.5318739,7.5318739 0 0 1 3.4402207,11.083696 7.5318739,7.5318739 0 0 1 10.972099,3.5378747 Z m 2.343245,1.9527081 -0.753184,0.516073 a 7.8526754,7.8526754 0 0 1 1.659802,4.9933532 7.8526754,7.8526754 0 0 1 -1.659802,4.993353 l 0.753184,0.502128 A 8.8429781,8.8429781 0 0 0 15.268051,11.000009 8.8011341,8.8011341 0 0 0 13.301395,5.5045307 Z M 7.6803872,8.5033321 c -0.2231661,0 -0.4184372,0.06974 -0.557916,0.2231668 -0.1394796,0.1534271 -0.1952713,0.3347498 -0.1952713,0.5300205 0,0.2092188 0.06974,0.3905418 0.2092191,0.5439689 0.1394787,0.139479 0.3208021,0.2231667 0.5579161,0.2231667 0.223167,0 0.4184379,-0.069737 0.5579167,-0.2231667 C 8.3917311,9.6470612 8.4475226,9.4657382 8.4475226,9.2565194 A 0.76713545,0.76713545 0 0 0 8.2383041,8.7264989 0.7113438,0.7113438 0 0 0 7.6803872,8.5033321 Z M 9.395981,10.497883 v 0.990305 h 2.789582 V 10.51183 H 9.395981 Z m -2.2316664,2.608259 v 0.251061 l 0.027897,0.278963 c 0,0.362643 -0.041845,0.725291 -0.097635,1.115835 a 4.044895,4.044895 0 0 1 -0.3765953,1.199518 l 0.8229271,0.25106 a 6.137081,6.137081 0 0 0 0.781083,-2.747737 V 13.301414 13.12009 h -1.157677 z"
       style="fill:#e6e6e6;stroke-width:1.39479136"
       inkscape:connector-curvature="0" />
  </g>
</svg>
