<?xml version="1.0" encoding="UTF-8" standalone="no"?>
<svg
   xmlns:dc="http://purl.org/dc/elements/1.1/"
   xmlns:cc="http://creativecommons.org/ns#"
   xmlns:rdf="http://www.w3.org/1999/02/22-rdf-syntax-ns#"
   xmlns:svg="http://www.w3.org/2000/svg"
   xmlns="http://www.w3.org/2000/svg"
   xmlns:sodipodi="http://sodipodi.sourceforge.net/DTD/sodipodi-0.dtd"
   xmlns:inkscape="http://www.inkscape.org/namespaces/inkscape"
   id="svg4153"
   version="1.1"
   width="22"
   height="22"
   viewBox="0 0 22 22"
   sodipodi:docname="mail.svg"
   inkscape:version="0.92.4 (5da689c313, 2019-01-14)">
  <sodipodi:namedview
     pagecolor="#ffffff"
     bordercolor="#666666"
     borderopacity="1"
     objecttolerance="10"
     gridtolerance="10"
     guidetolerance="10"
     inkscape:pageopacity="0"
     inkscape:pageshadow="2"
     inkscape:window-width="1366"
     inkscape:window-height="717"
     id="namedview12"
     showgrid="false"
     showguides="true"
     inkscape:guide-bbox="true"
     inkscape:zoom="4.1783583"
     inkscape:cx="11"
     inkscape:cy="11"
     inkscape:window-x="0"
     inkscape:window-y="25"
     inkscape:window-maximized="1"
     inkscape:current-layer="svg4153">
    <sodipodi:guide
       position="14.3,9.6461538"
       orientation="0,1"
       id="guide938"
       inkscape:locked="false" />
    <sodipodi:guide
       position="14.3,9.6461538"
       orientation="1,0"
       id="guide940"
       inkscape:locked="false" />
  </sodipodi:namedview>
  <metadata
     id="metadata4159">
    <rdf:RDF>
      <cc:Work
         rdf:about="">
        <dc:format>image/svg+xml</dc:format>
        <dc:type
           rdf:resource="http://purl.org/dc/dcmitype/StillImage" />
        <dc:title></dc:title>
      </cc:Work>
    </rdf:RDF>
  </metadata>
  <defs
     id="defs4157">
    <style
       type="text/css"
       id="current-color-scheme">
      .ColorScheme-Text {
        color:#31363b;
      }
      .ColorScheme-Background {
        color:#eff0f1;
      }
      .ColorScheme-Highlight {
        color:#3daee9;
      }
      .ColorScheme-ViewText {
        color:#31363b;
      }
      .ColorScheme-ViewBackground {
        color:#fcfcfc;
      }
      .ColorScheme-ViewHover {
        color:#93cee9;
      }
      .ColorScheme-ViewFocus{
        color:#3daee9;
      }
      .ColorScheme-ButtonText {
        color:#31363b;
      }
      .ColorScheme-ButtonBackground {
        color:#eff0f1;
      }
      .ColorScheme-ButtonHover {
        color:#93cee9;
      }
      .ColorScheme-ButtonFocus{
        color:#3daee9;
      }
      </style>
  </defs>
  <g
     id="mail-unread">
    <rect
       y="0"
       x="0"
       height="22"
       width="22"
       id="rect4193"
       style="opacity:1;fill:none;fill-opacity:1;stroke:none;stroke-width:0.1;stroke-linecap:square;stroke-linejoin:miter;stroke-miterlimit:4;stroke-dasharray:none;stroke-dashoffset:0;stroke-opacity:1" />
    <path
       id="path2"
       d="M 3,3 A 1.99,1.99 0 0 0 1.01,5 L 1,17 a 2,2 0 0 0 2,2 h 16 a 2,2 0 0 0 2,-2 V 5 A 2,2 0 0 0 19,3 H 3 m 1.6,2 h 12.8 c 0.394,0 0.749,0.138 1.027,0.358 L 11,10 3.575,5.36 C 3.852,5.138 4.206,5 4.601,5 M 19,7 v 8.5 C 19,16.329 18.284,17 17.4,17 H 4.6 C 3.717,17 3,16.329 3,15.5 L 3.008,7.005 11,12 19,7"
       style="fill:#e6e6e6;fill-opacity:1"
       inkscape:connector-curvature="0" />
  </g>
  <g
     id="mail-unread-new"
     transform="translate(22)">
    <path
       inkscape:connector-curvature="0"
       id="path2-5"
       d="M 3,3 A 1.99,1.99 0 0 0 1.009766,5 L 1,17 a 2,2 0 0 0 2,2 H 14.300781 V 17 H 4.599609 C 3.716609,17 3,16.329 3,15.5 L 3.007812,7.0058594 11,12 19,7 v 5.353516 h 2 V 5 A 2,2 0 0 0 19,3 Z m 1.599609,2 h 0.00195 12.798829 c 0.394,0 0.749343,0.1374219 1.027343,0.3574219 L 11,10 3.574219,5.359375 C 3.85075,5.137751 4.205417,5.0004666 4.599609,5 Z M 18,12.423828 l -0.685547,1.921875 -1.84375,-0.875 0.875,1.84375 L 14.423828,16 l 1.921875,0.685547 -0.875,1.84375 1.84375,-0.875 L 18,19.576172 l 0.685547,-1.921875 1.84375,0.875 -0.875,-1.84375 L 21.576172,16 l -1.921875,-0.685547 0.875,-1.84375 -1.84375,0.875 z"
       style="fill:#e6e6e6;fill-opacity:1" />
    <rect
       y="0"
       x="-9.2651362e-08"
       height="22"
       width="22"
       id="rect4178-9"
       style="opacity:1;fill:none;fill-opacity:1;stroke:none" />
  </g>
</svg>
