<?xml version="1.0" encoding="UTF-8" standalone="no"?>
<svg
   xmlns:dc="http://purl.org/dc/elements/1.1/"
   xmlns:cc="http://creativecommons.org/ns#"
   xmlns:rdf="http://www.w3.org/1999/02/22-rdf-syntax-ns#"
   xmlns:svg="http://www.w3.org/2000/svg"
   xmlns="http://www.w3.org/2000/svg"
   xmlns:sodipodi="http://sodipodi.sourceforge.net/DTD/sodipodi-0.dtd"
   xmlns:inkscape="http://www.inkscape.org/namespaces/inkscape"
   version="1.0"
   id="svg7229"
   height="22"
   width="22"
   sodipodi:docname="media.svg"
   inkscape:version="0.92.4 (5da689c313, 2019-01-14)">
  <sodipodi:namedview
     pagecolor="#ffffff"
     bordercolor="#666666"
     borderopacity="1"
     objecttolerance="10"
     gridtolerance="10"
     guidetolerance="10"
     inkscape:pageopacity="0"
     inkscape:pageshadow="2"
     inkscape:window-width="1366"
     inkscape:window-height="703"
     id="namedview43"
     showgrid="false"
     inkscape:zoom="1.4630682"
     inkscape:cx="11"
     inkscape:cy="11"
     inkscape:window-x="0"
     inkscape:window-y="0"
     inkscape:window-maximized="1"
     inkscape:current-layer="svg7229" />
  <metadata
     id="metadata45">
    <rdf:RDF>
      <cc:Work
         rdf:about="">
        <dc:format>image/svg+xml</dc:format>
        <dc:type
           rdf:resource="http://purl.org/dc/dcmitype/StillImage" />
        <dc:title></dc:title>
      </cc:Work>
    </rdf:RDF>
  </metadata>
  <defs
     id="defs7231">
    <style
       type="text/css"
       id="current-color-scheme">
      .ColorScheme-Text {
        color:#31363b;
      }
      .ColorScheme-Background{
        color:#eff0f1;
      }
      .ColorScheme-ViewText {
        color:#31363b;
      }
      .ColorScheme-ViewBackground{
        color:#ffffff;
      }
      .ColorScheme-ViewHover {
        color:#000000;
      }
      .ColorScheme-ViewFocus{
        color:#5a5a5a;
      }
      .ColorScheme-ButtonText {
        color:#31363b;
      }
      .ColorScheme-ButtonBackground{
        color:#E9E8E8;
      }
      .ColorScheme-ButtonHover {
        color:#1489ff;
      }
      .ColorScheme-ButtonFocus{
        color:#2B74C7;
      }
</style>
  </defs>
  <g
     id="layer1">
    <g
       id="media-playback-pause">
      <rect
         y="0.00013011102"
         x="4.5542716e-08"
         height="21.99991"
         width="22"
         id="rect3003-0"
         style="color:#31363b;opacity:0.01000001;fill:#963896;fill-opacity:0.99215686;stroke:none;stroke-width:1.49997652" />
      <path
         class="ColorScheme-Text"
         d="m 13.666426,3.0265029 h 5.33323 V 18.973953 h -5.33323 z m -10.66646,0 H 8.3331983 V 18.973953 H 2.999966 Z"
         style="color:#31363b;fill:#e6e6e6;fill-opacity:1;stroke-width:1.49997652"
         id="rect3287-9"
         inkscape:connector-curvature="0" />
    </g>
    <g
       id="media-playback-start">
      <rect
         y="0.00013011102"
         x="24"
         height="21.99991"
         width="22"
         id="rect3003-1"
         style="color:#31363b;opacity:0.01000001;fill:#963896;fill-opacity:0.99215686;stroke:none;stroke-width:1.49997652" />
      <path
         class="ColorScheme-Text"
         d="M 28.010912,18.994203 41.987751,11.000228 28.010912,3.0062532 Z"
         style="color:#31363b;fill:#e6e6e6;fill-opacity:1;stroke-width:1.49997652"
         id="path3357-8"
         inkscape:connector-curvature="0" />
    </g>
    <g
       id="media-playback-stop">
      <rect
         y="0.00013011102"
         x="48"
         height="21.99991"
         width="22"
         id="rect3003-3"
         style="opacity:0.01000001;fill:#963896;fill-opacity:0.99215686;stroke:none;stroke-width:1.49997652" />
      <path
         class="ColorScheme-Text"
         d="M 50.999946,3.0056532 H 66.997777 V 18.994803 H 50.999946 Z"
         style="color:#31363b;fill:#e6e6e6;fill-opacity:1;stroke-width:1.49997652"
         id="rect3274-5"
         inkscape:connector-curvature="0" />
    </g>
    <g
       id="media-record"
       transform="matrix(1.4999765,0,0,1.4999765,66.49866,-1551.0186)">
      <rect
         y="1034.0287"
         x="3.6676176"
         height="14.666837"
         width="14.666897"
         id="rect3003-03"
         style="opacity:0.01000001;fill:#ed1515;fill-opacity:0.00392157;stroke:none" />
      <rect
         style="fill:#da4453"
         id="rect3274-0"
         width="10.661418"
         height="10.664993"
         x="5.669291"
         y="1036.0297"
         ry="5.3324966" />
    </g>
    <g
       class="ColorScheme-Text"
       style="color:#31363b;fill:#e6e6e6;fill-opacity:0.99215686"
       id="media-seek-backward"
       transform="matrix(1.4999765,0,0,1.4999765,90.49817,-1551.0186)">
      <rect
         y="1034.0287"
         x="3.6679442"
         height="14.666837"
         width="14.666897"
         id="rect3003-07"
         style="opacity:0.01000001;fill:#e6e6e6;fill-opacity:0.99215686;stroke:none" />
      <path
         class="ColorScheme-Text"
         d="m 10.999999,1046.6926 -5.3316726,-5.3304 5.3316726,-5.3304 z m 5.33167,0 -5.33167,-5.3304 5.33167,-5.3304 z"
         style="color:#31363b;fill:#e6e6e6;fill-opacity:0.99215686"
         id="path4148-6"
         inkscape:connector-curvature="0" />
    </g>
    <g
       class="ColorScheme-Text"
       style="color:#31363b;fill:#e6e6e6;fill-opacity:0.99215686"
       id="media-seek-forward"
       transform="matrix(1.4999765,0,0,1.4999765,114.55211,-1551.0186)">
      <rect
         y="1034.0287"
         x="3.6319835"
         height="14.666837"
         width="14.666897"
         id="rect3003-2"
         style="opacity:0.01000001;fill:#e6e6e6;fill-opacity:0.99215686;stroke:none" />
      <path
         class="ColorScheme-Text"
         d="m 11.000001,1046.6956 5.362127,-5.3334 -5.362127,-5.3334 z m -5.3621229,0 5.3621229,-5.3334 -5.3621229,-5.3334 z"
         style="color:#31363b;fill:#e6e6e6;fill-opacity:0.99215686"
         id="path4148-8"
         inkscape:connector-curvature="0" />
    </g>
    <g
       class="ColorScheme-Text"
       style="color:#31363b;fill:#e6e6e6;fill-opacity:0.99215686"
       id="media-skip-backward"
       transform="matrix(1.4999765,0,0,1.4999765,138.49725,-1551.0186)">
      <rect
         y="1034.0287"
         x="3.6685574"
         height="14.666837"
         width="14.666897"
         id="rect3003-9"
         style="opacity:0.01000001;fill:#e6e6e6;fill-opacity:0.99215686;stroke:none" />
      <path
         class="ColorScheme-Text"
         id="rect3356-04"
         d="m 5.6605034,1036.0318 v 10.6605 h 3.561 v -5.3304 -5.3301 z m 3.561,5.3301 7.1220046,5.3304 v -10.6605 z"
         style="color:#31363b;fill:#e6e6e6;fill-opacity:0.99215686"
         inkscape:connector-curvature="0" />
    </g>
    <g
       class="ColorScheme-Text"
       style="color:#31363b;fill:#e6e6e6;fill-opacity:0.99215686"
       id="media-skip-forward"
       transform="matrix(1.4999765,0,0,1.4999765,162.49676,-1551.0186)">
      <rect
         y="1034.0287"
         x="3.668884"
         height="14.666837"
         width="14.666897"
         id="rect3003-7"
         style="opacity:0.01000001;fill:#e6e6e6;fill-opacity:0.99215686;stroke:none" />
      <path
         class="ColorScheme-Text"
         d="m 12.774348,1036.0314 h 3.548696 v 10.6616 h -3.548696 z m -7.0973961,10.6616 7.0974011,-5.3308 -7.0974011,-5.3308 z"
         style="color:#31363b;fill:#e6e6e6;fill-opacity:0.99215686"
         id="rect3402-4"
         inkscape:connector-curvature="0" />
    </g>
    <g
       style="fill:#e6e6e6;fill-opacity:0.99215686"
       id="media-eject"
       transform="matrix(1.2499744,0,0,1.2499744,189.75012,-1290.6762)">
      <rect
         y="1032.5621"
         x="1.7999408"
         height="17.600325"
         width="17.600361"
         id="rect3003"
         style="opacity:0.01000001;fill:#e6e6e6;fill-opacity:0.99215686;stroke:none" />
      <path
         id="path6"
         class="ColorScheme-Text"
         d="m 10.600116,1034.9592 -7.1958529,8.5375 H 17.795969 Z m -7.1958529,10.5656 v 2.2406 H 17.795969 v -2.2406 z"
         style="color:#31363b;fill:#e6e6e6;fill-opacity:0.99215686"
         inkscape:connector-curvature="0" />
    </g>
    <g
       id="media-playback-paused">
      <rect
         y="24.00013"
         x="4.5542716e-08"
         height="21.99991"
         width="22"
         id="rect3003-0-3"
         style="color:#31363b;opacity:0.01000001;fill:#963896;fill-opacity:0.99215686;stroke:none;stroke-width:1.49997652" />
      <path
         class="ColorScheme-Text"
         d="m 11.999834,32.000125 h 2.000046 v 6.000206 h -2.000046 z m -4.0000914,0 h 2.0000466 v 6.000206 H 7.9997426 Z m 3.0000694,-5.000022 c -4.4321023,0 -8.0001843,3.567994 -8.0001843,8.000125 0,4.432131 3.568082,8.000125 8.0001843,8.000125 4.432102,0 8.000183,-3.567994 8.000183,-8.000125 0,-4.432131 -3.568081,-8.000125 -8.000183,-8.000125 z m 0,1.000035 c 3.878088,0 7.00016,3.121901 7.00016,7.00009 0,3.878189 -3.122072,7.00009 -7.00016,7.00009 -3.8780895,0 -7.0001613,-3.121901 -7.0001613,-7.00009 0,-3.878189 3.1220718,-7.00009 7.0001613,-7.00009 z"
         style="color:#31363b;fill:#e6e6e6;fill-opacity:1;stroke:none;stroke-width:1.49997652"
         id="rect3287-9-5"
         inkscape:connector-curvature="0" />
    </g>
    <g
       id="media-playback-playing">
      <rect
         y="24.00013"
         x="24"
         height="21.99991"
         width="22"
         id="rect3003-1-2"
         style="color:#31363b;opacity:0.01000001;fill:#963896;fill-opacity:0.99215686;stroke:none;stroke-width:1.49997652" />
      <path
         class="ColorScheme-Text"
         d="m 32.999164,38.000481 4.000335,-3.000253 -4.000335,-3.000253 z m 2.000167,-11.000978 c -4.43237,0 -8.000669,3.568294 -8.000669,8.000725 0,4.432431 3.568299,8.000725 8.000669,8.000725 4.432371,0 8.00067,-3.568294 8.00067,-8.000725 0,-4.432431 -3.568299,-8.000725 -8.00067,-8.000725 z m 0,1.000185 c 3.878325,0 7.000586,3.122201 7.000586,7.00054 0,3.878339 -3.122261,7.00054 -7.000586,7.00054 -3.878324,0 -7.000585,-3.122201 -7.000585,-7.00054 0,-3.878339 3.122261,-7.00054 7.000585,-7.00054 z"
         style="color:#31363b;fill:#e6e6e6;fill-opacity:1;stroke:none;stroke-width:1.49997652"
         id="path3357-8-9"
         inkscape:connector-curvature="0" />
    </g>
    <g
       id="media-playback-stopped">
      <rect
         y="24.00013"
         x="48"
         height="21.99991"
         width="22"
         id="rect3003-3-2"
         style="color:#31363b;opacity:0.01000001;fill:#963896;fill-opacity:0.99215686;stroke:none;stroke-width:1.49997652" />
      <path
         id="path41"
         d="m 55.998793,32.000125 h 6.000137 v 6.000206 h -6.000137 z m 3.000068,-5.000022 c -4.432101,0 -8.000183,3.567994 -8.000183,8.000125 0,4.432131 3.568082,8.000125 8.000183,8.000125 4.432103,0 8.000184,-3.567994 8.000184,-8.000125 0,-4.432131 -3.568081,-8.000125 -8.000184,-8.000125 z m 0,1.000035 c 3.878089,0 7.000161,3.121901 7.000161,7.00009 0,3.878189 -3.122072,7.00009 -7.000161,7.00009 -3.878089,0 -7.00016,-3.121901 -7.00016,-7.00009 0,-3.878189 3.122071,-7.00009 7.00016,-7.00009 z"
         class="ColorScheme-Text"
         style="color:#31363b;fill:#e6e6e6;fill-opacity:1;stroke-width:1.49997652"
         inkscape:connector-curvature="0" />
    </g>
  </g>
</svg>
