<?xml version="1.0" encoding="UTF-8" standalone="no"?>
<svg
   xmlns:dc="http://purl.org/dc/elements/1.1/"
   xmlns:cc="http://creativecommons.org/ns#"
   xmlns:rdf="http://www.w3.org/1999/02/22-rdf-syntax-ns#"
   xmlns:svg="http://www.w3.org/2000/svg"
   xmlns="http://www.w3.org/2000/svg"
   xmlns:xlink="http://www.w3.org/1999/xlink"
   xmlns:sodipodi="http://sodipodi.sourceforge.net/DTD/sodipodi-0.dtd"
   xmlns:inkscape="http://www.inkscape.org/namespaces/inkscape"
   viewBox="0 0 22 22"
   id="svg"
   version="1.1"
   inkscape:version="0.92.4 (5da689c313, 2019-01-14)"
   width="100%"
   height="100%"
   sodipodi:docname="notification.svg">
  <defs
     id="defs81">
    <style
       id="current-color-scheme"
       type="text/css">
      .ColorScheme-Text {
        color:#7B7C7E;
      }
      .ColorScheme-Background{
        color:#EFF0F1;
      }
      .ColorScheme-Highlight{
        color:#3DAEE6;
      }
      .ColorScheme-ViewText {
        color:#7B7C7E;
      }
      .ColorScheme-ViewBackground{
        color:#FCFCFC;
      }
      .ColorScheme-ViewHover {
        color:#3DAEE6;
      }
      .ColorScheme-ViewFocus{
        color:#1E92FF;
      }
      .ColorScheme-ButtonText {
        color:#7B7C7E;
      }
      .ColorScheme-ButtonBackground{
        color:#EFF0F1;
      }
      .ColorScheme-ButtonHover {
        color:#3DAEE6;
      }
      .ColorScheme-ButtonFocus{
        color:#1E92FF;
      }
</style>
    <linearGradient
       inkscape:collect="always"
       xlink:href="#linearGradient4254"
       id="linearGradient5399"
       gradientUnits="userSpaceOnUse"
       x1="317.91653"
       y1="909.77173"
       x2="317.91653"
       y2="912.77173" />
    <linearGradient
       id="linearGradient4254">
      <stop
         id="stop4256"
         offset="0"
         style="stop-color:#888888;stop-opacity:1;" />
      <stop
         id="stop4258"
         offset="1"
         style="stop-color:#232323;stop-opacity:1;" />
    </linearGradient>
  </defs>
  <metadata
     id="metadata34">
    <rdf:RDF>
      <cc:Work
         rdf:about="">
        <dc:format>image/svg+xml</dc:format>
        <dc:type
           rdf:resource="http://purl.org/dc/dcmitype/StillImage" />
        <dc:title></dc:title>
      </cc:Work>
    </rdf:RDF>
  </metadata>
  <sodipodi:namedview
     pagecolor="#ffffff"
     bordercolor="#666666"
     borderopacity="1"
     objecttolerance="10"
     gridtolerance="10"
     guidetolerance="10"
     inkscape:pageopacity="1"
     inkscape:pageshadow="2"
     inkscape:window-width="1366"
     inkscape:window-height="703"
     id="namedview32"
     showgrid="true"
     inkscape:zoom="5.8522727"
     inkscape:cx="11"
     inkscape:cy="11"
     inkscape:window-x="0"
     inkscape:window-y="0"
     inkscape:window-maximized="1"
     inkscape:current-layer="svg"
     borderlayer="true"
     showguides="true"
     inkscape:guide-bbox="true"
     inkscape:snap-bbox="true">
    <inkscape:grid
       type="xygrid"
       id="grid3046"
       empspacing="4"
       visible="true"
       enabled="false"
       snapvisiblegridlinesonly="true"
       color="#0000ff"
       opacity="0.05490196"
       empcolor="#0000ff"
       empopacity="0.11372549" />
  </sodipodi:namedview>
  <path
     class="ColorScheme-Text"
     inkscape:connector-curvature="0"
     style="fill:#e6e6e6;fill-opacity:1"
     d="m -18,23 2,-2 2,2 z"
     id="expander-bottom"
     sodipodi:nodetypes="cccc" />
  <path
     class="ColorScheme-Text"
     inkscape:connector-curvature="0"
     sodipodi:nodetypes="cccc"
     id="expander-top"
     d="m -18,17 2,2 2,-2 z"
     style="fill:#e6e6e6;fill-opacity:1" />
  <path
     class="ColorScheme-Text"
     inkscape:connector-curvature="0"
     style="fill:#e6e6e6;fill-opacity:1"
     d="m -13,18 -2,2 2,2 z"
     id="expander-right"
     sodipodi:nodetypes="cccc" />
  <path
     class="ColorScheme-Text"
     inkscape:connector-curvature="0"
     sodipodi:nodetypes="cccc"
     id="expander-left"
     d="m -19,18 2,2 -2,2 z"
     style="fill:#e6e6e6;fill-opacity:1" />
  <g
     id="notification-inactive"
     transform="translate(-22)">
    <rect
       style="opacity:1;fill:none;fill-opacity:1;stroke:none"
       id="rect4400-4"
       width="22"
       height="22"
       x="22"
       y="0" />
    <path
       id="path2-93"
       d="m 33.000001,2.968332 a 8.0335839,8.0335839 0 0 0 -8.033584,8.033582 8.0335839,8.0335839 0 0 0 8.033584,8.03103 8.0335839,8.0335839 0 0 0 8.033586,-8.032308 8.0335839,8.0335839 0 0 0 -8.033586,-8.0335814 z m -0.02299,1.1954587 a 6.905817,6.905817 0 0 1 6.905822,6.9058163 6.905817,6.905817 0 0 1 -6.905813,6.905817 6.905817,6.905817 0 0 1 -6.904542,-6.905817 6.905817,6.905817 0 0 1 6.904542,-6.9045393 z m 1.152034,2.2606426 C 33.316743,6.3810077 32.892709,7.6901381 33.664138,8.0490308 34.28997,8.3057475 34.971989,7.6633166 34.820007,7.0221627 A 0.69607346,0.69607346 0 0 0 34.129041,6.4244333 Z M 33.78038,9.3070716 c -0.130278,-0.010225 -0.282264,0.035761 -0.448296,0.1609276 -0.796974,0.3461209 -1.462396,0.9131998 -2.15847,1.4215218 0.08813,0.236284 0.186472,0.427863 0.395932,0.166035 0.257995,-0.154544 1.127769,-0.830177 1.040919,-0.16859 -0.27843,1.226114 -0.616887,2.439452 -0.87616,3.668113 -0.270766,0.673088 0.344843,1.282317 0.985996,0.844233 0.682026,-0.280979 1.269536,-0.739497 1.869825,-1.159696 -0.08174,-0.200524 -0.136661,-0.489171 -0.362723,-0.226065 -0.296314,0.134109 -0.945129,0.770149 -1.066469,0.246499 0.250333,-1.328287 0.711405,-2.605483 1.006434,-3.922279 0.204355,-0.4546822 0.0051,-0.9974916 -0.386988,-1.0306994 z"
       style="fill:#e6e6e6;fill-opacity:0.94117647;stroke-width:1.27719927"
       inkscape:connector-curvature="0" />
  </g>
  <g
     transform="translate(-19.396946,-3.946566)"
     id="notification-disabled">
    <rect
       style="opacity:1;fill:none;fill-opacity:1;stroke:none"
       id="rect4400-4-6"
       width="22"
       height="22"
       x="19.396946"
       y="-18.053434" />
    <path
       id="path2-93-7"
       d="m 30.396948,-15.085103 a 8.0335839,8.0335839 0 0 0 -8.033584,8.033582 8.0335839,8.0335839 0 0 0 8.033584,8.03103 8.0335839,8.0335839 0 0 0 8.033586,-8.032308 8.0335839,8.0335839 0 0 0 -8.033586,-8.033581 z m -0.02299,1.195459 a 6.905817,6.905817 0 0 1 6.905822,6.905816 6.905817,6.905817 0 0 1 -6.905813,6.905817 6.905817,6.905817 0 0 1 -6.904542,-6.905817 6.905817,6.905817 0 0 1 6.904542,-6.904539 z m 1.152034,2.260642 c -0.812302,-0.04343 -1.236336,1.265705 -0.464907,1.624598 0.625832,0.2567165 1.307851,-0.385714 1.155869,-1.026868 a 0.69607346,0.69607346 0 0 0 -0.690966,-0.59773 z m -0.348665,2.8826386 c -0.130278,-0.010225 -0.282264,0.035761 -0.448296,0.1609276 -0.796974,0.3461209 -1.462396,0.9131998 -2.15847,1.4215218 0.08813,0.236284 0.186472,0.427863 0.395932,0.166035 0.257995,-0.154544 1.127769,-0.830177 1.040919,-0.16859 -0.27843,1.226114 -0.616887,2.439452 -0.87616,3.668113 -0.270766,0.673088 0.344843,1.282317 0.985996,0.844233 0.682026,-0.280979 1.269536,-0.739497 1.869825,-1.159696 -0.08174,-0.200524 -0.136661,-0.489171 -0.362723,-0.226065 -0.296314,0.134109 -0.945129,0.770149 -1.066469,0.246499 0.250333,-1.328287 0.711405,-2.605483 1.006434,-3.922279 0.204355,-0.4546822 0.0051,-0.9974916 -0.386988,-1.0306994 z"
       style="opacity:0.4;fill:#e6e6e6;fill-opacity:0.94117647;stroke-width:1.27719927"
       inkscape:connector-curvature="0" />
  </g>
  <g
     transform="translate(0.419847,-6.6335878)"
     id="notification-empty">
    <rect
       style="opacity:1;fill:none;fill-opacity:1;stroke:none"
       id="rect4400-4-3"
       width="22"
       height="22"
       x="21.580153"
       y="-15.366412" />
    <path
       inkscape:connector-curvature="0"
       id="path940"
       d="m 32.580078,-12.398438 a 8.0335839,8.0335839 0 0 0 -8.033203,8.0332036 8.0335839,8.0335839 0 0 0 8.033203,8.03125 8.0335839,8.0335839 0 0 0 8.033203,-8.03125 8.0335839,8.0335839 0 0 0 -8.033203,-8.0332036 z m -0.02344,1.195313 a 6.905817,6.905817 0 0 1 6.90625,6.90625 6.905817,6.905817 0 0 1 -6.90625,6.90625 6.905817,6.905817 0 0 1 -6.904297,-6.90625 6.905817,6.905817 0 0 1 6.904297,-6.904297 z"
       style="fill:#e6e6e6;fill-opacity:0.94117647;stroke-width:1.27719927" />
  </g>
  <g
     id="notification-progress-active"
     transform="translate(-38)">
    <rect
       style="opacity:1;fill:none;fill-opacity:1;stroke:none"
       id="rect4400-4-3-2"
       width="22"
       height="22"
       x="60"
       y="-1.6278076e-07" />
    <path
       id="path995"
       d="m 70.999925,2.967974 a 8.0335839,8.0335839 0 0 0 -8.033203,8.033204 8.0335839,8.0335839 0 0 0 8.033203,8.03125 8.0335839,8.0335839 0 0 0 8.033203,-8.03125 8.0335839,8.0335839 0 0 0 -8.033203,-8.033204 z"
       style="fill:#e6e6e6;fill-opacity:1;stroke-width:1.27719927"
       inkscape:connector-curvature="0" />
  </g>
  <g
     transform="translate(-23.762863,26.6751)"
     id="notification-progress-inactive">
    <rect
       style="opacity:1;fill:none;fill-opacity:1;stroke:none"
       id="rect4400-4-3-2-2"
       width="22"
       height="22"
       x="45.762863"
       y="-4.6750998" />
    <path
       id="path995-7"
       d="m 56.762787,-1.7071257 a 8.0335839,8.0335839 0 0 0 -8.033203,8.033204 8.0335839,8.0335839 0 0 0 8.033203,8.0312497 8.0335839,8.0335839 0 0 0 8.033203,-8.0312497 8.0335839,8.0335839 0 0 0 -8.033203,-8.033204 z"
       style="opacity:0.4;fill:#e6e6e6;fill-opacity:1;stroke-width:1.27719927"
       inkscape:connector-curvature="0" />
  </g>
  <g
     id="notification-active">
    <rect
       style="opacity:1;fill:none;fill-opacity:1;stroke:none"
       id="rect4400-4-9"
       width="22"
       height="22"
       x="-3.9501953e-07"
       y="22" />
    <path
       inkscape:connector-curvature="0"
       id="path845"
       d="m 11,24.966797 v 0.002 A 8.0335839,8.0335839 0 0 0 2.9667969,33.001953 8.0335839,8.0335839 0 0 0 11,41.033203 8.0335839,8.0335839 0 0 0 19.033203,33.001953 8.0335839,8.0335839 0 0 0 11,24.966797 Z m 1.128906,3.458984 a 0.69607346,0.69607346 0 0 1 0.691406,0.597657 c 0.151983,0.641154 -0.530417,1.282106 -1.15625,1.02539 -0.771428,-0.358893 -0.347458,-1.666473 0.464844,-1.623047 z m -0.349609,2.88086 c 0.392088,0.03321 0.593027,0.576568 0.388672,1.03125 -0.295029,1.316796 -0.75748,2.593588 -1.007813,3.921875 0.12134,0.52365 0.770092,-0.111984 1.066406,-0.246094 0.226063,-0.263105 0.281542,0.02604 0.363282,0.226562 -0.600289,0.420199 -1.187115,0.879178 -1.869141,1.160157 -0.641154,0.438084 -1.257094,-0.172615 -0.986328,-0.845703 0.259273,-1.228662 0.59657,-2.441855 0.875,-3.667969 0.08685,-0.661587 -0.7830206,0.01538 -1.0410156,0.169922 -0.20946,0.261828 -0.3064013,0.07027 -0.3945313,-0.166016 0.696074,-0.508322 1.3612289,-1.075754 2.1582029,-1.421875 0.166032,-0.125167 0.316988,-0.172334 0.447266,-0.162109 z"
       style="fill:#e6e6e6;fill-opacity:0.94117647;stroke-width:1.27719927" />
  </g>
</svg>
