<?xml version="1.0" encoding="UTF-8" standalone="no"?>
<!-- Created with Inkscape (http://www.inkscape.org/) -->

<svg
   xmlns:dc="http://purl.org/dc/elements/1.1/"
   xmlns:cc="http://creativecommons.org/ns#"
   xmlns:rdf="http://www.w3.org/1999/02/22-rdf-syntax-ns#"
   xmlns:svg="http://www.w3.org/2000/svg"
   xmlns="http://www.w3.org/2000/svg"
   xmlns:sodipodi="http://sodipodi.sourceforge.net/DTD/sodipodi-0.dtd"
   xmlns:inkscape="http://www.inkscape.org/namespaces/inkscape"
   id="svg4153"
   version="1.1"
   inkscape:version="0.92.4 (5da689c313, 2019-01-14)"
   width="32.000004"
   height="32"
   sodipodi:docname="plasmavault_error.svg"
   viewBox="0 0 32.000004 32">
  <metadata
     id="metadata4159">
    <rdf:RDF>
      <cc:Work
         rdf:about="">
        <dc:format>image/svg+xml</dc:format>
        <dc:type
           rdf:resource="http://purl.org/dc/dcmitype/StillImage" />
        <dc:title></dc:title>
      </cc:Work>
    </rdf:RDF>
  </metadata>
  <defs
     id="defs4157">
    <style
       type="text/css"
       id="current-color-scheme">
      .ColorScheme-Text {
        color:#31363b;
      }
      .ColorScheme-Background {
        color:#eff0f1;
      }
      .ColorScheme-Highlight {
        color:#3daee9;
      }
      .ColorScheme-ViewText {
        color:#31363b;
      }
      .ColorScheme-ViewBackground {
        color:#fcfcfc;
      }
      .ColorScheme-ViewHover {
        color:#93cee9;
      }
      .ColorScheme-ViewFocus{
        color:#3daee9;
      }
      .ColorScheme-ButtonText {
        color:#31363b;
      }
      .ColorScheme-ButtonBackground {
        color:#eff0f1;
      }
      .ColorScheme-ButtonHover {
        color:#93cee9;
      }
      .ColorScheme-ButtonFocus{
        color:#3daee9;
      }
      </style>
  </defs>
  <sodipodi:namedview
     pagecolor="#ffffff"
     bordercolor="#666666"
     borderopacity="1"
     objecttolerance="10"
     gridtolerance="10000"
     guidetolerance="10"
     inkscape:pageopacity="0"
     inkscape:pageshadow="2"
     inkscape:window-width="1366"
     inkscape:window-height="717"
     id="namedview4155"
     inkscape:document-units="px"
     showgrid="true"
     inkscape:showpageshadow="false"
     borderlayer="true"
     inkscape:zoom="4.1015625"
     inkscape:cx="16.000002"
     inkscape:cy="16"
     inkscape:window-x="0"
     inkscape:window-y="25"
     inkscape:window-maximized="1"
     inkscape:current-layer="svg4153"
     fit-margin-top="0"
     fit-margin-left="0"
     fit-margin-right="0"
     fit-margin-bottom="0">
    <inkscape:grid
       type="xygrid"
       id="grid4140"
       originx="5"
       originy="5.000001" />
    <sodipodi:guide
       position="2,30"
       orientation="28,0"
       id="guide4186"
       inkscape:locked="false" />
    <sodipodi:guide
       position="2,2"
       orientation="0,28.000004"
       id="guide4188"
       inkscape:locked="false" />
    <sodipodi:guide
       position="30.000004,2"
       orientation="-28,0"
       id="guide4190"
       inkscape:locked="false" />
    <sodipodi:guide
       position="30.000004,30"
       orientation="0,-28.000004"
       id="guide4192"
       inkscape:locked="false" />
    <sodipodi:guide
       position="0,32"
       orientation="32,0"
       id="guide4194"
       inkscape:locked="false" />
    <sodipodi:guide
       position="0,0"
       orientation="0,32.000004"
       id="guide4196"
       inkscape:locked="false" />
    <sodipodi:guide
       position="32.000004,0"
       orientation="-32,0"
       id="guide4198"
       inkscape:locked="false" />
    <sodipodi:guide
       position="32.000004,32"
       orientation="0,-32.000004"
       id="guide4200"
       inkscape:locked="false" />
  </sodipodi:namedview>
  <inkscape:clipboard
     style="opacity:0.01000001;fill:#00000f;fill-opacity:0;stroke-width:1;stroke-linecap:butt;stroke-linejoin:miter;stroke-miterlimit:4;stroke-dasharray:none;stroke-dashoffset:0;stroke-opacity:1;stroke:none"
     min="0,0"
     max="22,22" />
  <g
     id="plasmavault_error">
    <rect
       style="opacity:0.01000001;fill:#000000;fill-opacity:0.00392157;stroke:none;stroke-width:1.4545455"
       id="rect3028-6"
       width="32"
       height="32"
       x="0.0031183972"
       y="-0.02670647" />
    <path
       id="path819-5-7"
       d="M 15.84375,3.4667969 A 5.9005769,5.9005769 0 0 0 9.9433594,9.3671875 V 11.763672 H 6.3613281 v 14.238281 c 0,1.354656 1.0418244,2.396485 2.3964844,2.396485 H 22.996094 a 2.3446001,2.3446001 0 0 0 2.357422,-2.396485 l 0.18164,-14.199219 -2.539062,-0.03906 H 21.822266 V 9.4199219 A 5.9005769,5.9005769 0 0 0 15.882812,3.4804688 Z m 0.03906,2.2148437 a 3.7122832,3.7122832 0 0 1 3.673829,3.7382813 V 11.763672 H 12.236328 V 9.4199219 a 3.6992579,3.6992579 0 0 1 3.646484,-3.7128907 z m -5.003906,7.4316404 5.060547,5.060547 5.066406,-5.060547 1.935547,1.935547 -5.060547,5.066406 5.060547,5.060547 -1.935547,1.9375 -5.066406,-5.068359 -5.060547,5.068359 -1.9374998,-1.9375 5.0683598,-5.060547 -5.0683598,-5.066406 z"
       style="fill:#e6e6e6;stroke-width:3.4778235"
       inkscape:connector-curvature="0" />
  </g>
  <g
     id="22-22-plasmavault_error"
     transform="matrix(0.6875,0,0,0.6875,35.000975,4.9916541)">
    <rect
       style="opacity:0.01000001;fill:#000000;fill-opacity:0.00392157;stroke:none;stroke-width:1.4545455"
       id="rect3028-6-6"
       width="32"
       height="32"
       x="0.0031183972"
       y="-0.02670647" />
    <path
       id="path819-5-7-7"
       d="M 15.84375,3.4667969 A 5.9005769,5.9005769 0 0 0 9.9433594,9.3671875 V 11.763672 H 6.3613281 v 14.238281 c 0,1.354656 1.0418244,2.396485 2.3964844,2.396485 H 22.996094 a 2.3446001,2.3446001 0 0 0 2.357422,-2.396485 l 0.18164,-14.199219 -2.539062,-0.03906 H 21.822266 V 9.4199219 A 5.9005769,5.9005769 0 0 0 15.882812,3.4804688 Z m 0.03906,2.2148437 a 3.7122832,3.7122832 0 0 1 3.673829,3.7382813 V 11.763672 H 12.236328 V 9.4199219 a 3.6992579,3.6992579 0 0 1 3.646484,-3.7128907 z m -5.003906,7.4316404 5.060547,5.060547 5.066406,-5.060547 1.935547,1.935547 -5.060547,5.066406 5.060547,5.060547 -1.935547,1.9375 -5.066406,-5.068359 -5.060547,5.068359 -1.9374998,-1.9375 5.0683598,-5.060547 -5.0683598,-5.066406 z"
       style="fill:#e6e6e6;stroke-width:3.4778235"
       inkscape:connector-curvature="0" />
  </g>
</svg>
