<?xml version="1.0" encoding="UTF-8" standalone="no"?>
<svg
   xmlns:dc="http://purl.org/dc/elements/1.1/"
   xmlns:cc="http://creativecommons.org/ns#"
   xmlns:rdf="http://www.w3.org/1999/02/22-rdf-syntax-ns#"
   xmlns:svg="http://www.w3.org/2000/svg"
   xmlns="http://www.w3.org/2000/svg"
   xmlns:sodipodi="http://sodipodi.sourceforge.net/DTD/sodipodi-0.dtd"
   xmlns:inkscape="http://www.inkscape.org/namespaces/inkscape"
   width="32"
   height="32"
   version="1.1"
   id="svg124"
   sodipodi:docname="preferences.svg"
   inkscape:version="0.92.4 (5da689c313, 2019-01-14)">
  <metadata
     id="metadata130">
    <rdf:RDF>
      <cc:Work
         rdf:about="">
        <dc:format>image/svg+xml</dc:format>
        <dc:type
           rdf:resource="http://purl.org/dc/dcmitype/StillImage" />
        <dc:title></dc:title>
      </cc:Work>
    </rdf:RDF>
  </metadata>
  <defs
     id="defs128" />
  <sodipodi:namedview
     pagecolor="#ffffff"
     bordercolor="#666666"
     borderopacity="1"
     objecttolerance="10"
     gridtolerance="10"
     guidetolerance="10"
     inkscape:pageopacity="0"
     inkscape:pageshadow="2"
     inkscape:window-width="1366"
     inkscape:window-height="717"
     id="namedview126"
     showgrid="false"
     showguides="true"
     inkscape:guide-bbox="true"
     inkscape:zoom="2.046875"
     inkscape:cx="16"
     inkscape:cy="16"
     inkscape:window-x="0"
     inkscape:window-y="25"
     inkscape:window-maximized="1"
     inkscape:current-layer="svg124">
    <sodipodi:guide
       position="5,27"
       orientation="1,0"
       id="guide1285"
       inkscape:locked="false" />
    <sodipodi:guide
       position="27,27"
       orientation="0,1"
       id="guide1287"
       inkscape:locked="false" />
    <sodipodi:guide
       position="27,5"
       orientation="1,0"
       id="guide1289"
       inkscape:locked="false" />
    <sodipodi:guide
       position="27,5"
       orientation="0,1"
       id="guide1291"
       inkscape:locked="false" />
  </sodipodi:namedview>
  <g
     id="preferences-desktop-notification">
    <path
       id="path2-3"
       d="M -16.000002,3.2298165 A 12.773229,12.773229 0 0 0 -28.77323,16.003046 12.773229,12.773229 0 0 0 -16.000002,28.772214 12.773229,12.773229 0 0 0 -3.22677,16.001015 12.773229,12.773229 0 0 0 -16.000002,3.2277855 Z m -0.03654,1.900757 A 10.980105,10.980105 0 0 1 -5.056439,16.110674 10.980105,10.980105 0 0 1 -16.036538,27.090777 10.980105,10.980105 0 0 1 -27.014611,16.110674 10.980105,10.980105 0 0 1 -16.036538,5.1326045 Z m 0.04669,2.046963 a 1.4661797,1.4661797 0 0 0 -1.46415,1.466177 v 1.315909 a 5.1417832,5.1417832 0 0 0 -3.665449,4.9184045 v 1.837801 c 0,1.129081 -0.30867,2.237854 -0.889456,3.206507 l -1.259042,2.099765 a 0.36552962,0.36552962 0 0 0 -0.0041,0.36756 0.36552962,0.36552962 0 0 0 0.316793,0.186826 H -9.020433 A 0.36552962,0.36552962 0 0 0 -8.707706,22.0221 L -9.96675,19.922335 a 6.2363416,6.2363416 0 0 1 -0.889463,-3.208537 v -1.833741 c 0,-2.321112 -1.547405,-4.284816 -3.665445,-4.9184035 v -1.315909 a 1.4682106,1.4682106 0 0 0 -1.468189,-1.466177 z m -2.306893,16.1300095 c 0.412236,0.865087 1.287475,1.46821 2.306898,1.46821 1.021452,0 1.898723,-0.603123 2.310958,-1.46821 z"
       style="fill:#e6e6e6;stroke-width:2.03072"
       inkscape:connector-curvature="0" />
    <rect
       style="opacity:0.00100002"
       width="32"
       height="32"
       x="-32"
       y="0"
       id="rect48-7" />
  </g>
  <g
     id="preferences-system-bluetooth"
     transform="translate(32)">
    <rect
       style="opacity:0.00100002"
       width="32"
       height="32"
       x="0"
       y="0"
       id="rect48-7-7" />
    <path
       id="path2-9"
       d="M 16,3.2298171 A 12.773229,12.773229 0 0 0 3.226771,16.003046 12.773229,12.773229 0 0 0 16,28.772212 12.773229,12.773229 0 0 0 28.773228,16.001015 12.773229,12.773229 0 0 0 16,3.2277865 Z M 15.96344,5.1305712 A 10.980103,10.980103 0 0 1 26.943547,16.110673 10.980103,10.980103 0 0 1 15.963449,27.090777 10.980103,10.980103 0 0 1 4.985375,16.110673 10.980103,10.980103 0 0 1 15.963449,5.1326018 Z m -1.074246,0.629523 V 13.671778 L 9.962669,8.8894339 8.44166,10.365767 l 6.000779,5.826134 -6.000779,5.824104 1.521009,1.478366 4.926526,-4.784374 v 7.913714 h 1.076285 l 6.12871,-5.952037 -4.609732,-4.479773 4.609732,-4.481797 -6.130741,-5.9500098 z m 2.148501,3.9964567 2.020568,1.9596461 -2.020568,1.955581 z m 0,8.9493851 2.020568,1.965738 -2.020568,1.955581 z"
       style="fill:#e6e6e6;stroke-width:2.03072"
       inkscape:connector-curvature="0" />
  </g>
  <g
     id="preferences-system-bluetooth-activated"
     transform="translate(64)">
    <g
       id="preferences-system-bluetooth-0">
      <rect
         id="rect48-7-7-6"
         y="0"
         x="0"
         height="32"
         width="32"
         style="opacity:0.00100002" />
      <path
         inkscape:connector-curvature="0"
         style="fill:#e6e6e6;stroke-width:2.03072"
         d="M 16,3.2298171 A 12.773229,12.773229 0 0 0 3.226771,16.003046 12.773229,12.773229 0 0 0 16,28.772212 12.773229,12.773229 0 0 0 28.773228,16.001015 12.773229,12.773229 0 0 0 16,3.2277865 Z M 15.96344,5.1305712 A 10.980103,10.980103 0 0 1 26.943547,16.110673 10.980103,10.980103 0 0 1 15.963449,27.090777 10.980103,10.980103 0 0 1 4.985375,16.110673 10.980103,10.980103 0 0 1 15.963449,5.1326018 Z m -1.074246,0.629523 V 13.671778 L 9.962669,8.8894339 8.44166,10.365767 l 6.000779,5.826134 -6.000779,5.824104 1.521009,1.478366 4.926526,-4.784374 v 7.913714 h 1.076285 l 6.12871,-5.952037 -4.609732,-4.479773 4.609732,-4.481797 -6.130741,-5.9500098 z m 2.148501,3.9964567 2.020568,1.9596461 -2.020568,1.955581 z m 0,8.9493851 2.020568,1.965738 -2.020568,1.955581 z"
         id="path2-9-2" />
    </g>
    <path
       id="path1120"
       d="m 8.6210938,14.091797 -2.0917969,2.091797 2.0917969,2.089844 2.0898442,-2.089844 z m 14.6367182,0 -2.091796,2.091797 2.091796,2.089844 2.089844,-2.089844 z"
       style="fill:#e6e6e6;fill-opacity:1;stroke-width:1.0454545"
       inkscape:connector-curvature="0" />
  </g>
  <g
     id="preferences-system-bluetooth-inactive"
     transform="translate(96)">
    <rect
       style="opacity:0.00100002"
       width="32"
       height="32"
       x="0"
       y="0"
       id="rect48-7-7-1" />
    <path
       id="path2-9-8"
       d="M 16,3.2298171 A 12.773229,12.773229 0 0 0 3.226771,16.003046 12.773229,12.773229 0 0 0 16,28.772212 12.773229,12.773229 0 0 0 28.773228,16.001015 12.773229,12.773229 0 0 0 16,3.2277865 Z M 15.96344,5.1305712 A 10.980103,10.980103 0 0 1 26.943547,16.110673 10.980103,10.980103 0 0 1 15.963449,27.090777 10.980103,10.980103 0 0 1 4.985375,16.110673 10.980103,10.980103 0 0 1 15.963449,5.1326018 Z m -1.074246,0.629523 V 13.671778 L 9.962669,8.8894339 8.44166,10.365767 l 6.000779,5.826134 -6.000779,5.824104 1.521009,1.478366 4.926526,-4.784374 v 7.913714 h 1.076285 l 6.12871,-5.952037 -4.609732,-4.479773 4.609732,-4.481797 -6.130741,-5.9500098 z m 2.148501,3.9964567 2.020568,1.9596461 -2.020568,1.955581 z m 0,8.9493851 2.020568,1.965738 -2.020568,1.955581 z"
       style="opacity:0.5;fill:#e6e6e6;stroke-width:2.03072"
       inkscape:connector-curvature="0" />
  </g>
  <g
     id="preferences-desktop-display-randr">
    <rect
       style="opacity:0.00100002"
       width="32"
       height="32"
       x="0"
       y="0"
       id="rect48-7-7-9" />
    <path
       id="path2-2"
       d="M 16,3.229817 A 12.773229,12.773229 0 0 0 3.2267715,16.003046 12.773229,12.773229 0 0 0 16,28.772212 12.773229,12.773229 0 0 0 28.773228,16.001015 12.773229,12.773229 0 0 0 16,3.227786 Z M 15.96344,5.130571 A 10.980103,10.980103 0 0 1 26.943547,16.110673 10.980103,10.980103 0 0 1 15.963449,27.090777 10.980103,10.980103 0 0 1 4.9853749,16.110673 10.980103,10.980103 0 0 1 15.963449,5.132602 Z M 9.8712867,8.911772 c -1.1351721,0 -2.0469651,0.930069 -2.0469651,2.083518 v 10.425715 c 0,1.15548 0.9138239,2.083519 2.0469651,2.083519 H 22.153081 c 1.135175,0 2.046967,-0.928039 2.046967,-2.083519 V 10.99529 c 0,-1.153449 -0.913822,-2.083518 -2.046967,-2.083518 z m 0.8468103,1.165633 h 10.634879 a 1.7667262,1.7667262 0 0 1 1.772818,1.77282 v 8.86206 a 1.7667262,1.7667262 0 0 1 -1.772818,1.770786 H 10.718097 A 1.7667262,1.7667262 0 0 1 8.9473097,20.712285 v -8.86206 a 1.7667262,1.7667262 0 0 1 1.7707873,-1.77282 z m 3.988337,0.885394 -1.77282,2.660243 h 1.330121 v 2.656183 h -1.772817 v -1.328093 l -2.6582146,1.772822 2.6602446,1.770785 v -1.32809 h 1.770787 v 1.77282 h -1.330121 l 1.77282,2.658213 1.772815,-2.660243 h -1.328088 v -1.77079 h 4.431031 v 1.32809 l 2.656182,-1.770785 -2.656182,-1.772822 v 1.330123 h -4.431031 v -2.660244 h 1.328088 z"
       style="fill:#e6e6e6;stroke-width:2.03072"
       inkscape:connector-curvature="0" />
  </g>
  <g
     id="preferences-system-windows"
     transform="translate(128)">
    <rect
       style="opacity:0.00100002"
       width="32"
       height="32"
       x="0"
       y="0"
       id="rect48-7-7-9-7" />
    <path
       id="path2-92"
       d="M 16.000006,3.226756 A 12.773237,12.773237 0 0 0 3.2267723,16.020301 12.773237,12.773237 0 0 0 16.020315,28.773224 12.773237,12.773237 0 0 0 28.773243,15.999992 12.773237,12.773237 0 0 0 16.000006,3.226756 Z m -0.02031,1.908878 A 10.965894,10.965894 0 0 1 26.945592,16.101526 10.965894,10.965894 0 0 1 15.979698,27.087729 10.965894,10.965894 0 0 1 4.9934997,16.121836 10.965894,10.965894 0 0 1 15.959393,5.115327 Z M 13.420991,8.526938 A 0.69044522,0.69044522 0 0 0 12.730547,9.23769 v 4.487895 H 8.9127915 A 0.69044522,0.69044522 0 0 0 8.2223464,14.41603 v 8.325955 a 0.69044522,0.69044522 0 0 0 0.6904451,0.690446 h 9.7068455 a 0.69044522,0.69044522 0 0 0 0.690446,-0.690446 V 18.25409 l 3.817755,-0.0203 a 0.69044522,0.69044522 0 0 0 0.690445,-0.69045 V 9.217383 A 0.69044522,0.69044522 0 0 0 23.127838,8.526938 Z m 0,2.2541 h 9.686541 c 0.101538,0 0.203074,0.08123 0.203074,0.182765 v 6.579537 a 0.18276487,0.18276487 0 0 1 -0.203074,0.162455 h -3.797449 v -3.26946 A 0.69044522,0.69044522 0 0 0 18.619637,13.74589 h -5.40172 l 0.04061,-2.76178 c 0,-0.101536 0.06092,-0.182764 0.162457,-0.182764 z m -4.5081995,5.198644 h 9.7068455 c 0.101538,0 0.162458,0.08123 0.162458,0.182767 v 6.559231 a 0.18276487,0.18276487 0 0 1 -0.162458,0.182761 H 8.9330986 A 0.18276487,0.18276487 0 0 1 8.7300269,22.741985 v -6.579536 c 0,-0.101538 0.1015359,-0.182767 0.2030717,-0.182767 z"
       style="fill:#e6e6e6;stroke-width:2.03072095"
       inkscape:connector-curvature="0" />
  </g>
  <g
     id="22-22-preferences-system-bluetooth"
     transform="translate(33,33)">
    <rect
       style="opacity:1;fill:none;fill-opacity:1;stroke:none"
       id="rect4645-1-5"
       width="22"
       height="22"
       x="0"
       y="0" />
    <path
       id="path2629"
       d="M 10.199219,3 V 9.0722656 L 6.5273438,5.4003906 5.4003906,6.5351562 9.8632812,11 5.4003906,15.472656 6.5273438,16.599609 10.199219,12.927734 V 19 H 11 L 15.560547,14.439453 12.128906,11 15.560547,7.5605469 11,3 Z m 1.601562,3.0644531 1.503907,1.5039063 -1.503907,1.5039062 z m 0,6.8632809 1.503907,1.503907 -1.503907,1.503906 z"
       style="fill:#e6e6e6;stroke-width:0.79999995"
       inkscape:connector-curvature="0" />
  </g>
  <g
     id="22-22-preferences-system-bluetooth-activated"
     transform="translate(61,33)">
    <rect
       style="opacity:1;fill:none;fill-opacity:1;stroke:none"
       id="rect4645-1"
       width="22"
       height="22"
       x="0"
       y="0" />
    <path
       id="path2"
       d="M 7,11 5.4,9.4 3.8,11 5.4,12.6 Z M 15.56,7.56 11,3 H 10.2 V 9.072 L 6.528,5.4 5.4,6.536 9.864,11 5.4,15.472 6.528,16.6 10.2,12.928 V 19 H 11 L 15.56,14.44 12.128,11 Z M 11.8,6.064 13.304,7.568 11.8,9.072 Z m 1.504,8.368 -1.504,1.504 V 12.928 Z M 16.6,9.4 15,11 16.6,12.6 18.2,11 Z"
       style="fill:#e6e6e6;stroke-width:0.79999995"
       inkscape:connector-curvature="0" />
  </g>
  <g
     id="22-22-preferences-system-bluetooth-inactive">
    <rect
       style="opacity:1;fill:none;fill-opacity:1;stroke:none"
       id="rect4645-1-5-8"
       width="22"
       height="22"
       x="89"
       y="33" />
    <path
       id="path2629-9"
       d="m 99.199219,36 v 6.072266 L 95.527344,38.400391 94.400391,39.535156 98.863281,44 l -4.46289,4.472656 1.126953,1.126953 3.671875,-3.671875 V 52 H 100 L 104.56055,47.439453 101.12891,44 104.56055,40.560547 100,36 Z m 1.601561,3.064453 1.50391,1.503906 -1.50391,1.503907 z m 0,6.863281 1.50391,1.503907 -1.50391,1.503906 z"
       style="fill:#e6e6e6;stroke-width:0.79999995;opacity:0.5"
       inkscape:connector-curvature="0" />
  </g>
  <g
     transform="translate(-49.636784,19.709522)"
     id="preferences-system-bluetooth-battery">
    <rect
       style="opacity:0.00100002"
       width="32"
       height="32"
       x="49.636784"
       y="-51.709522"
       id="rect48-7-7-3" />
    <path
       inkscape:connector-curvature="0"
       id="path1471"
       d="m 64.489068,-46.949219 v 8.670582 l -5.397978,-5.241731 -1.667337,1.618108 6.577314,6.384682 -6.577314,6.382541 1.667337,1.620249 5.397978,-5.243871 v 8.672721 h 1.179335 l 6.716438,-6.521663 -5.05124,-4.909977 5.05124,-4.912117 -6.718578,-6.519524 z m 2.354391,4.379168 2.215268,2.146777 -2.215268,2.144637 z m 0,9.807111 2.215268,2.155339 -2.215268,2.142496 z"
       style="fill:#e6e6e6;stroke-width:2.22538924" />
  </g>
  <g
     transform="translate(-23,33.000017)"
     id="22-22-preferences-desktop-notification">
    <rect
       y="-1.7382812e-05"
       x="0"
       height="22"
       width="22"
       id="rect4178"
       style="opacity:1;fill:none;fill-opacity:1;stroke:none;stroke-width:0.1;stroke-linecap:square;stroke-linejoin:miter;stroke-miterlimit:4;stroke-dasharray:none;stroke-dashoffset:0;stroke-opacity:1" />
    <path
       id="path819"
       d="M 10.997625,2.623047 A 1.3958144,1.3958144 0 0 0 9.603962,4.018706 V 5.2715029 A 4.8950168,4.8950168 0 0 0 6.1143147,9.9540052 v 1.7493198 c 0,1.074892 -0.2942734,2.130902 -0.8471861,3.053065 l -1.1978494,1.999083 a 0.34798696,0.34798696 0 0 0 -0.00398,0.349663 0.34798696,0.34798696 0 0 0 0.3017102,0.177827 H 17.632259 a 0.34798696,0.34798696 0 0 0 0.297713,-0.52749 L 16.732116,14.75639 A 5.937044,5.937044 0 0 1 15.88493,11.701326 V 9.9560017 c 0,-2.2097154 -1.473257,-4.0793231 -3.489649,-4.6825006 V 4.0207043 A 1.3977478,1.3977478 0 0 0 10.997625,2.625045 Z M 8.8017322,17.979296 c 0.392452,0.82357 1.2253948,1.397657 2.1958928,1.397657 0.97243,0 1.807435,-0.574087 2.199887,-1.397657 z"
       style="fill:#e6e6e6;fill-opacity:1;stroke-width:1.93326128"
       inkscape:connector-curvature="0" />
  </g>
  <g
     id="22-22-preferences-desktop-display-randr"
     transform="translate(0,28)">
    <rect
       style="opacity:0.00100002"
       width="22"
       height="22"
       x="5"
       y="5"
       id="rect24-6" />
    <path
       inkscape:connector-curvature="0"
       id="path918"
       d="m 9.1210938,8.0210073 c -1.2738191,0 -2.296875,1.0441885 -2.296875,2.3385167 v 11.699159 c 0,1.296608 1.025335,2.336325 2.296875,2.336325 H 22.902344 c 1.273822,0 2.296875,-1.039717 2.296875,-2.336325 V 10.359524 c 0,-1.2943282 -1.025331,-2.3385167 -2.296875,-2.3385167 z M 10.072281,9.329437 h 11.933668 a 1.9825096,1.9825096 0 0 1 1.987849,1.987849 v 9.94582 a 1.9825096,1.9825096 0 0 1 -1.987849,1.985657 H 10.072281 A 1.9825096,1.9825096 0 0 1 8.0844316,21.263106 v -9.94582 A 1.9825096,1.9825096 0 0 1 10.072281,9.329437 Z m 4.475399,0.992829 -1.99004,2.985061 h 1.49253 v 2.980677 h -1.990041 v -1.490339 l -2.9828688,1.99004 2.9850618,1.985658 v -1.490338 h 1.987848 v 1.99004 h -1.49253 l 1.99004,2.982869 1.987849,-2.985061 H 15.045191 V 17.283025 H 20.0181 v 1.490338 l 2.980677,-1.985658 -2.980677,-1.99004 v 1.492531 h -4.972909 v -2.985061 h 1.490338 z"
       style="fill:#e6e6e6;stroke-width:2.27874684" />
  </g>
  <g
     id="22-22-preferences-system-windows"
     transform="translate(112,28)">
    <rect
       style="opacity:0.00100002"
       width="22"
       height="22"
       x="5"
       y="5"
       id="rect100-2" />
    <path
       id="path1021"
       d="M 13.068118,7.592185 A 0.77898822,0.77898822 0 0 0 12.288046,8.3942932 V 13.45595 H 7.9800179 a 0.77898822,0.77898822 0 0 0 -0.777869,0.780073 v 9.393924 a 0.77898822,0.77898822 0 0 0 0.777869,0.777869 H 18.931883 a 0.77898822,0.77898822 0 0 0 0.780072,-0.777869 v -5.063861 l 4.305824,-0.02202 A 0.77898822,0.77898822 0 0 0 24.797851,17.76399 V 8.3700604 a 0.77898822,0.77898822 0 0 0 -0.780072,-0.777869 z m 0,2.542948 h 10.927625 c 0.114564,0 0.229174,0.09038 0.229174,0.204935 v 7.42391 a 0.20620272,0.20620272 0 0 1 -0.229174,0.182898 H 19.711955 V 14.258059 A 0.77898822,0.77898822 0 0 0 18.931883,13.48019 h -6.092937 l 0.04407,-3.115883 c 0,-0.114564 0.07055,-0.207138 0.185103,-0.207138 z M 8.0042576,16.001102 H 18.931883 c 0.114564,0 0.182898,0.09037 0.182898,0.204934 v 7.401874 a 0.20620272,0.20620272 0 0 1 -0.182898,0.204935 H 8.0042576 a 0.20620272,0.20620272 0 0 1 -0.229174,-0.182898 v -7.423911 c 0,-0.114564 0.1146166,-0.204934 0.229174,-0.204934 z"
       style="fill:#e6e6e6;stroke-width:2.29114151"
       inkscape:connector-curvature="0" />
  </g>
</svg>
