<?xml version="1.0" encoding="UTF-8" standalone="no"?>
<!-- Created with Inkscape (http://www.inkscape.org/) -->

<svg
   xmlns:dc="http://purl.org/dc/elements/1.1/"
   xmlns:cc="http://creativecommons.org/ns#"
   xmlns:rdf="http://www.w3.org/1999/02/22-rdf-syntax-ns#"
   xmlns:svg="http://www.w3.org/2000/svg"
   xmlns="http://www.w3.org/2000/svg"
   xmlns:sodipodi="http://sodipodi.sourceforge.net/DTD/sodipodi-0.dtd"
   xmlns:inkscape="http://www.inkscape.org/namespaces/inkscape"
   width="54"
   height="32"
   viewBox="0 0 14.2875 8.4666669"
   version="1.1"
   id="svg891"
   inkscape:version="0.92.4 (5da689c313, 2019-01-14)"
   sodipodi:docname="system.svg">
  <defs
     id="defs885" />
  <sodipodi:namedview
     id="base"
     pagecolor="#ffffff"
     bordercolor="#666666"
     borderopacity="1.0"
     inkscape:pageopacity="0.0"
     inkscape:pageshadow="2"
     inkscape:zoom="2.3935185"
     inkscape:cx="-64.183753"
     inkscape:cy="16"
     inkscape:document-units="mm"
     inkscape:current-layer="layer1"
     showgrid="false"
     units="px"
     inkscape:window-width="1366"
     inkscape:window-height="717"
     inkscape:window-x="0"
     inkscape:window-y="25"
     inkscape:window-maximized="1" />
  <metadata
     id="metadata888">
    <rdf:RDF>
      <cc:Work
         rdf:about="">
        <dc:format>image/svg+xml</dc:format>
        <dc:type
           rdf:resource="http://purl.org/dc/dcmitype/StillImage" />
        <dc:title></dc:title>
      </cc:Work>
    </rdf:RDF>
  </metadata>
  <g
     inkscape:label="Capa 1"
     inkscape:groupmode="layer"
     id="layer1"
     transform="translate(0,-288.53332)">
    <g
       id="system-log-out"
       transform="matrix(0.26458333,0,0,0.26458333,-0.05015301,288.53845)">
      <path
         id="path14"
         d="M 22,0 V 32 H 54 V 0 Z"
         style="opacity:1;fill:none"
         inkscape:connector-curvature="0" />
      <path
         id="path2"
         d="M 49.918575,15.947415 A 11.85784,11.85784 0 0 0 38.066415,4.0952564 11.85784,11.85784 0 0 0 26.208575,15.947415 a 11.85784,11.85784 0 0 0 11.85784,11.85216 11.85784,11.85784 0 0 0 11.85216,-11.857843 z m -1.978203,0.02842 a 9.7943714,9.7943714 0 0 1 -9.800053,9.800055 9.7943714,9.7943714 0 0 1 -9.794377,-9.800055 9.7943714,9.7943714 0 0 1 9.794377,-9.8000583 9.7943714,9.7943714 0 0 1 9.800053,9.8000583 z m -2.057783,0.0056 a 7.8502794,12.750308 0 0 0 -0.0341,-1.068681 H 30.216144 a 7.8502794,12.750308 0 0 0 -0.02272,1.080085 7.8502794,12.750308 0 0 0 0.02839,1.045946 H 45.85416 a 7.8502794,12.750308 0 0 0 0.0284,-1.045946 z"
         style="fill:#e6e6e6;stroke-width:0.5684486"
         inkscape:connector-curvature="0" />
    </g>
    <g
       transform="matrix(0.18190104,0,0,0.18190104,-3.9690697,291.15664)"
       id="22-22-system-log-out">
      <path
         id="path14-6"
         d="M 22,0 V 32 H 54 V 0 Z"
         style="opacity:1;fill:none"
         inkscape:connector-curvature="0" />
      <path
         id="path2-7"
         d="M 49.918575,15.947415 A 11.85784,11.85784 0 0 0 38.066415,4.0952564 11.85784,11.85784 0 0 0 26.208575,15.947415 a 11.85784,11.85784 0 0 0 11.85784,11.85216 11.85784,11.85784 0 0 0 11.85216,-11.857843 z m -1.978203,0.02842 a 9.7943714,9.7943714 0 0 1 -9.800053,9.800055 9.7943714,9.7943714 0 0 1 -9.794377,-9.800055 9.7943714,9.7943714 0 0 1 9.794377,-9.8000583 9.7943714,9.7943714 0 0 1 9.800053,9.8000583 z m -2.057783,0.0056 a 7.8502794,12.750308 0 0 0 -0.0341,-1.068681 H 30.216144 a 7.8502794,12.750308 0 0 0 -0.02272,1.080085 7.8502794,12.750308 0 0 0 0.02839,1.045946 H 45.85416 a 7.8502794,12.750308 0 0 0 0.0284,-1.045946 z"
         style="fill:#e6e6e6;stroke-width:0.5684486"
         inkscape:connector-curvature="0" />
    </g>
    <g
       transform="matrix(0,-0.26458333,0.26458333,0,5.7825072,293.82493)"
       id="system-shutdown">
      <path
         id="path14-3"
         d="M 22,0 V 32 H 54 V 0 Z"
         style="opacity:1;fill:none"
         inkscape:connector-curvature="0" />
      <path
         id="path2-5"
         d="M 49.918575,15.947415 A 11.85784,11.85784 0 0 0 38.066415,4.0952564 11.85784,11.85784 0 0 0 26.208575,15.947415 a 11.85784,11.85784 0 0 0 11.85784,11.85216 11.85784,11.85784 0 0 0 11.85216,-11.857843 z m -1.978203,0.02842 a 9.7943714,9.7943714 0 0 1 -9.800053,9.800055 9.7943714,9.7943714 0 0 1 -9.794377,-9.800055 9.7943714,9.7943714 0 0 1 9.794377,-9.8000583 9.7943714,9.7943714 0 0 1 9.800053,9.8000583 z m -2.057783,0.0056 a 7.8502794,12.750308 0 0 0 -0.0341,-1.068681 H 30.216144 a 7.8502794,12.750308 0 0 0 -0.02272,1.080085 7.8502794,12.750308 0 0 0 0.02839,1.045946 H 45.85416 a 7.8502794,12.750308 0 0 0 0.0284,-1.045946 z"
         style="fill:#e6e6e6;stroke-width:0.5684486"
         inkscape:connector-curvature="0" />
    </g>
    <g
       transform="matrix(0,-0.18190104,0.18190104,0,0.01069082,290.93771)"
       id="22-22-system-shutdown">
      <path
         id="path14-6-2"
         d="M 22,0 V 32 H 54 V 0 Z"
         style="opacity:1;fill:none"
         inkscape:connector-curvature="0" />
      <path
         id="path2-7-9"
         d="M 49.918575,15.947415 A 11.85784,11.85784 0 0 0 38.066415,4.0952564 11.85784,11.85784 0 0 0 26.208575,15.947415 a 11.85784,11.85784 0 0 0 11.85784,11.85216 11.85784,11.85784 0 0 0 11.85216,-11.857843 z m -1.978203,0.02842 a 9.7943714,9.7943714 0 0 1 -9.800053,9.800055 9.7943714,9.7943714 0 0 1 -9.794377,-9.800055 9.7943714,9.7943714 0 0 1 9.794377,-9.8000583 9.7943714,9.7943714 0 0 1 9.800053,9.8000583 z m -2.057783,0.0056 a 7.8502794,12.750308 0 0 0 -0.0341,-1.068681 H 30.216144 a 7.8502794,12.750308 0 0 0 -0.02272,1.080085 7.8502794,12.750308 0 0 0 0.02839,1.045946 H 45.85416 a 7.8502794,12.750308 0 0 0 0.0284,-1.045946 z"
         style="fill:#e6e6e6;stroke-width:0.5684486"
         inkscape:connector-curvature="0" />
    </g>
    <g
       id="system-suspend-hibernate"
       transform="matrix(0.26458333,0,0,0.26458333,15.65837,290.40694)">
      <path
         id="path2-1"
         d="m -21.962458,31.04346 a 11.855683,11.855683 0 0 0 -11.85,11.85 11.855683,11.855683 0 0 0 11.85,11.85 11.855683,11.855683 0 0 0 11.85,-11.85 11.855683,11.855683 0 0 0 -11.85,-11.85 z m 0.0284,1.977843 a 9.7925892,9.7925892 0 0 1 9.798286,9.798272 9.7925892,9.7925892 0 0 1 -9.79827,9.792589 9.7925892,9.7925892 0 0 1 -9.798275,-9.792589 9.7925892,9.7925892 0 0 1 9.798275,-9.798272 z m -1.534531,2.671223 a 7.1611505,7.1611505 0 0 0 -6.558703,7.11568 7.1611505,7.1611505 0 0 0 6.558703,7.132738 z m 5.467482,0.772948 -0.483095,2.881513 -2.88151,0.409205 2.88151,0.551295 0.528563,2.875829 0.426258,-2.875829 2.88151,-0.454671 -2.88151,-0.505829 z"
         style="fill:#e6e6e6;fill-opacity:1;stroke-width:0.56834519"
         inkscape:connector-curvature="0" />
      <path
         id="path14-3-7"
         d="m -37.947415,58.918575 h 32 v -32 h -32 z"
         style="opacity:1;fill:none"
         inkscape:connector-curvature="0" />
    </g>
    <g
       id="22-22-system-suspend-hibernate"
       transform="matrix(0.18190104,0,0,0.18190104,7.0501199,293.08746)">
      <path
         id="path2-1-3"
         d="m -21.962458,31.04346 a 11.855683,11.855683 0 0 0 -11.85,11.85 11.855683,11.855683 0 0 0 11.85,11.85 11.855683,11.855683 0 0 0 11.85,-11.85 11.855683,11.855683 0 0 0 -11.85,-11.85 z m 0.0284,1.977843 a 9.7925892,9.7925892 0 0 1 9.798286,9.798272 9.7925892,9.7925892 0 0 1 -9.79827,9.792589 9.7925892,9.7925892 0 0 1 -9.798275,-9.792589 9.7925892,9.7925892 0 0 1 9.798275,-9.798272 z m -1.534531,2.671223 a 7.1611505,7.1611505 0 0 0 -6.558703,7.11568 7.1611505,7.1611505 0 0 0 6.558703,7.132738 z m 5.467482,0.772948 -0.483095,2.881513 -2.88151,0.409205 2.88151,0.551295 0.528563,2.875829 0.426258,-2.875829 2.88151,-0.454671 -2.88151,-0.505829 z"
         style="fill:#e6e6e6;fill-opacity:1;stroke-width:0.56834519"
         inkscape:connector-curvature="0" />
      <path
         id="path14-3-7-6"
         d="m -37.947415,58.918575 h 32 v -32 h -32 z"
         style="opacity:1;fill:none"
         inkscape:connector-curvature="0" />
    </g>
    <g
       id="system-suspend"
       transform="matrix(0.26458333,0,0,0.26458333,40.997645,271.94012)">
      <path
         id="path2-0"
         d="m -62.334587,66.518814 a 11.855683,11.855683 0 0 0 -11.85,11.85 11.855683,11.855683 0 0 0 11.85,11.85 11.855683,11.855683 0 0 0 11.85,-11.85 11.855683,11.855683 0 0 0 -11.85,-11.85 z m 0.0284,1.977843 a 9.7925892,9.7925892 0 0 1 9.798286,9.798272 9.7925892,9.7925892 0 0 1 -9.79827,9.792589 9.7925892,9.7925892 0 0 1 -9.798275,-9.792589 9.7925892,9.7925892 0 0 1 9.798275,-9.798272 z m 0,2.023307 a 7.8772667,7.8772667 0 0 0 -7.502157,5.507268 h 1.994891 a 5.9392088,5.9392088 0 0 1 5.456116,-3.586258 5.9392088,5.9392088 0 0 1 5.444748,3.580575 h 2.114246 a 7.8772667,7.8772667 0 0 0 -7.513517,-5.501585 z m -7.229345,9.252665 a 7.1611505,7.1611505 0 0 0 7.121367,6.558703 7.1611505,7.1611505 0 0 0 7.12705,-6.558703 h -14.242726 z"
         style="fill:#e6e6e6;fill-opacity:1;stroke-width:0.56834519"
         inkscape:connector-curvature="0" />
      <path
         id="path14-3-7-61"
         d="m -78.27764,94.453101 h 32 v -32 h -32 z"
         style="opacity:1;fill:none"
         inkscape:connector-curvature="0" />
    </g>
    <g
       id="22-22-system-suspend"
       transform="matrix(0.18190104,0,0,0.18190104,29.062418,278.34659)">
      <path
         id="path2-0-7"
         d="m -62.334587,66.518814 a 11.855683,11.855683 0 0 0 -11.85,11.85 11.855683,11.855683 0 0 0 11.85,11.85 11.855683,11.855683 0 0 0 11.85,-11.85 11.855683,11.855683 0 0 0 -11.85,-11.85 z m 0.0284,1.977843 a 9.7925892,9.7925892 0 0 1 9.798286,9.798272 9.7925892,9.7925892 0 0 1 -9.79827,9.792589 9.7925892,9.7925892 0 0 1 -9.798275,-9.792589 9.7925892,9.7925892 0 0 1 9.798275,-9.798272 z m 0,2.023307 a 7.8772667,7.8772667 0 0 0 -7.502157,5.507268 h 1.994891 a 5.9392088,5.9392088 0 0 1 5.456116,-3.586258 5.9392088,5.9392088 0 0 1 5.444748,3.580575 h 2.114246 a 7.8772667,7.8772667 0 0 0 -7.513517,-5.501585 z m -7.229345,9.252665 a 7.1611505,7.1611505 0 0 0 7.121367,6.558703 7.1611505,7.1611505 0 0 0 7.12705,-6.558703 h -14.242726 z"
         style="fill:#e6e6e6;fill-opacity:1;stroke-width:0.56834519"
         inkscape:connector-curvature="0" />
      <path
         id="path14-3-7-61-9"
         d="m -78.27764,94.453101 h 32 v -32 h -32 z"
         style="opacity:1;fill:none"
         inkscape:connector-curvature="0" />
    </g>
    <g
       id="system-search"
       transform="matrix(0.26458333,0,0,0.26458333,33.586293,280.34964)">
      <path
         id="path2-2"
         d="M -31.897485,2.1712057 A 12.768936,12.768936 0 0 0 -44.66642,14.94015 12.768936,12.768936 0 0 0 -31.897485,27.705036 12.768936,12.768936 0 0 0 -19.12855,14.938126 12.768936,12.768936 0 0 0 -31.897485,2.1691756 Z m -0.0366,1.9001166 A 10.97642,10.97642 0 0 1 -20.957651,15.047732 10.97642,10.97642 0 0 1 -31.934064,26.024168 10.97642,10.97642 0 0 1 -42.908447,15.047732 10.97642,10.97642 0 0 1 -31.934064,4.0733515 Z m -2.178203,2.2574006 a 6.3499611,6.3499611 0 0 0 -6.333724,6.3276321 6.3479314,6.3479314 0 0 0 6.333724,6.327627 c 1.327644,0 2.563941,-0.416155 3.585036,-1.120574 l 4.238733,4.234647 a 1.1510316,1.1510316 0 1 0 1.626053,-1.626047 l -4.238712,-4.234666 c 0.70442,-1.021113 1.12058,-2.253345 1.12058,-3.580987 a 6.3479314,6.3479314 0 0 0 -6.333711,-6.3276321 z m 0,2.302064 a 4.0113568,4.0113568 0 0 1 4.029626,4.0255681 4.0113568,4.0113568 0 0 1 -4.029626,4.027602 4.0133868,4.0133868 0 0 1 -4.033694,-4.027602 c 0,-2.235068 1.792517,-4.0255681 4.033694,-4.0255681 z"
         style="fill:#e6e6e6;fill-opacity:1;stroke-width:2.03003812"
         inkscape:connector-curvature="0" />
      <path
         id="path14-2"
         d="m -48,-1 v 32 h 32 V -1 Z"
         style="opacity:1;fill:none"
         inkscape:connector-curvature="0" />
    </g>
    <g
       id="22-22-system-search"
       transform="matrix(0.26458333,0,0,0.26458333,25.617599,289.84057)">
      <path
         inkscape:connector-curvature="0"
         id="path1153"
         d="M -31.07855,-23.347681 A 5.9378833,5.9378833 0 0 0 -37,-17.431546 a 5.9359852,5.9359852 0 0 0 5.92145,5.916135 c 1.241487,0 2.397732,-0.387974 3.352564,-1.04668 l 3.963573,3.9582585 a 1.0763359,1.0763359 0 1 0 1.522202,-1.5195455 l -3.963571,-3.958259 c 0.658707,-0.954849 1.04668,-2.108424 1.04668,-3.349909 a 5.9359852,5.9359852 0 0 0 -5.921448,-5.916135 z m 0,2.151805 a 3.7510417,3.7510417 0 0 1 3.769643,3.76433 3.7510417,3.7510417 0 0 1 -3.769643,3.766987 3.7529399,3.7529399 0 0 1 -3.769645,-3.766987 c 0,-2.090025 1.673908,-3.76433 3.769645,-3.76433 z"
         style="fill:#e6e6e6;fill-opacity:1;stroke-width:1.89829981" />
      <path
         id="path14-2-9"
         d="m -40.193367,-26.388744 v 22 h 22 v -22 z"
         style="opacity:1;fill:none;stroke-width:0.6875"
         inkscape:connector-curvature="0" />
    </g>
    <g
       id="system-reboot"
       transform="matrix(0.26458333,0,0,0.26458333,35.632519,297.19542)">
      <path
         id="path2-22"
         d="m -41.888099,3.207186 a 11.855682,11.855682 0 0 0 -11.85,11.85 11.855682,11.855682 0 0 0 11.85,11.85 11.855682,11.855682 0 0 0 11.85,-11.85 11.855682,11.855682 0 0 0 -11.85,-11.85 z m 0.0284,1.9778415 a 9.7925892,9.7925892 0 0 1 9.79829,9.7982735 9.7925892,9.7925892 0 0 1 -9.798272,9.792589 9.7925892,9.7925892 0 0 1 -9.798274,-9.792589 9.7925892,9.7925892 0 0 1 9.798274,-9.7982735 z m 0.358057,2.0687775 a 7.8772668,7.8772668 0 0 0 -5.84259,2.296113 7.8772668,7.8772668 0 0 0 0,11.139568 7.8772668,7.8772668 0 0 0 11.139569,0 7.8772668,7.8772668 0 0 0 1.136691,-9.678917 l -1.381078,1.375396 a 5.9392087,5.9392087 0 0 1 -1.079856,6.911075 5.9392087,5.9392087 0 0 1 -8.400144,0 5.9392087,5.9392087 0 0 1 0,-8.405823 5.9392087,5.9392087 0 0 1 6.774677,-1.142375 l 1.392455,-1.392446 a 7.8772668,7.8772668 0 0 0 -3.739711,-1.102591 z"
         style="fill:#e6e6e6;fill-opacity:1;stroke-width:0.56834525"
         inkscape:connector-curvature="0" />
      <path
         id="path14-9"
         d="m -58,-1 v 32 h 32 V -1 Z"
         style="opacity:1;fill:none"
         inkscape:connector-curvature="0" />
    </g>
    <g
       id="22-22-system-reboot"
       transform="matrix(0.18190104,0,0,0.18190104,25.09408,299.78063)">
      <path
         id="path2-22-1"
         d="m -41.888099,3.207186 a 11.855682,11.855682 0 0 0 -11.85,11.85 11.855682,11.855682 0 0 0 11.85,11.85 11.855682,11.855682 0 0 0 11.85,-11.85 11.855682,11.855682 0 0 0 -11.85,-11.85 z m 0.0284,1.9778415 a 9.7925892,9.7925892 0 0 1 9.79829,9.7982735 9.7925892,9.7925892 0 0 1 -9.798272,9.792589 9.7925892,9.7925892 0 0 1 -9.798274,-9.792589 9.7925892,9.7925892 0 0 1 9.798274,-9.7982735 z m 0.358057,2.0687775 a 7.8772668,7.8772668 0 0 0 -5.84259,2.296113 7.8772668,7.8772668 0 0 0 0,11.139568 7.8772668,7.8772668 0 0 0 11.139569,0 7.8772668,7.8772668 0 0 0 1.136691,-9.678917 l -1.381078,1.375396 a 5.9392087,5.9392087 0 0 1 -1.079856,6.911075 5.9392087,5.9392087 0 0 1 -8.400144,0 5.9392087,5.9392087 0 0 1 0,-8.405823 5.9392087,5.9392087 0 0 1 6.774677,-1.142375 l 1.392455,-1.392446 a 7.8772668,7.8772668 0 0 0 -3.739711,-1.102591 z"
         style="fill:#e6e6e6;fill-opacity:1;stroke-width:0.56834525"
         inkscape:connector-curvature="0" />
      <path
         id="path14-9-2"
         d="m -58,-1 v 32 h 32 V -1 Z"
         style="opacity:1;fill:none"
         inkscape:connector-curvature="0" />
    </g>
    <g
       transform="matrix(0.26458333,0,0,0.26458333,21.12834,271.33535)"
       id="system-lock-screen">
      <path
         id="path14-67"
         d="m -58,-1 v 32 h 32 V -1 Z"
         style="opacity:1;fill:none"
         inkscape:connector-curvature="0" />
      <path
         id="path2-3"
         d="m -41.946121,3.108571 a 11.753688,11.797144 0 0 0 -11.742832,11.579887 11.753688,11.797144 0 0 0 0,0.217256 11.753688,11.797144 0 0 0 11.742832,11.797144 11.753688,11.797144 0 0 0 11.753688,-11.797144 11.753688,11.797144 0 0 0 -0.01086,-0.217256 11.753688,11.797144 0 0 0 -11.742824,-11.579887 z m 0.05432,2.5093376 a 9.222628,9.222628 0 0 1 9.200903,9.0705494 h -18.390949 a 9.222628,9.222628 0 0 1 9.19004,-9.0705494 z"
         style="fill:#e6e6e6;fill-opacity:1;stroke-width:1.08629322"
         inkscape:connector-curvature="0" />
    </g>
    <g
       transform="matrix(0.18190104,0,0,0.18190104,10.511934,273.36933)"
       id="22-22-system-lock-screen">
      <path
         id="path14-35"
         d="m -58,-1 v 32 h 32 V -1 Z"
         style="opacity:1;fill:none"
         inkscape:connector-curvature="0" />
      <path
         id="path2-3-6"
         d="m -41.946121,3.108571 a 11.753688,11.797144 0 0 0 -11.742832,11.579887 11.753688,11.797144 0 0 0 0,0.217256 11.753688,11.797144 0 0 0 11.742832,11.797144 11.753688,11.797144 0 0 0 11.753688,-11.797144 11.753688,11.797144 0 0 0 -0.01086,-0.217256 11.753688,11.797144 0 0 0 -11.742824,-11.579887 z m 0.05432,2.5093376 a 9.222628,9.222628 0 0 1 9.200903,9.0705494 h -18.390949 a 9.222628,9.222628 0 0 1 9.19004,-9.0705494 z"
         style="fill:#e6e6e6;fill-opacity:1;stroke-width:1.08629322"
         inkscape:connector-curvature="0" />
    </g>
    <g
       id="system-switch-user"
       transform="matrix(0.26458333,0,0,0.26458333,36.210134,262.89347)">
      <path
         id="path2-27"
         d="m -41.971244,35.059631 a 11.855682,11.855682 0 0 0 -11.85,11.85 11.855682,11.855682 0 0 0 11.85,11.85 11.855682,11.855682 0 0 0 11.85,-11.85 11.855682,11.855682 0 0 0 -11.85,-11.85 z m 0.0284,1.977842 a 9.7925892,9.7925892 0 0 1 9.798285,9.798273 9.7925892,9.7925892 0 0 1 -9.79827,9.792589 9.7925892,9.7925892 0 0 1 -9.798275,-9.792589 9.7925892,9.7925892 0 0 1 9.798275,-9.798273 z m -0.14777,2.006259 a 7.8772668,7.8772668 0 0 0 -3.501006,0.88662 l 1.409496,1.409495 a 5.9392087,5.9392087 0 0 1 6.393885,1.324243 5.9392087,5.9392087 0 0 1 1.307194,6.382517 l 1.500431,1.494749 a 7.8772668,7.8772668 0 0 0 -1.420855,-9.201509 7.8772668,7.8772668 0 0 0 -5.683452,-2.296115 z m -6.808777,4.143239 a 7.8772668,7.8772668 0 0 0 1.364029,9.298126 7.8772668,7.8772668 0 0 0 9.298129,1.36403 l -1.48906,-1.489064 a 5.9392087,5.9392087 0 0 1 -6.467761,-1.290143 5.9392087,5.9392087 0 0 1 -1.284461,-6.467773 l -1.420863,-1.420864 z"
         style="fill:#e6e6e6;stroke-width:0.56834525"
         inkscape:connector-curvature="0" />
      <path
         id="path14-3-9"
         d="m -57.916881,62.976065 h 32 v -32 h -32 z"
         style="opacity:1;fill:none"
         inkscape:connector-curvature="0" />
    </g>
    <g
       id="22-22-system-switch-user"
       transform="matrix(0.18190104,0,0,0.18190104,25.071433,267.04215)">
      <path
         id="path2-9"
         d="m -41.971244,35.059631 a 11.855682,11.855682 0 0 0 -11.85,11.85 11.855682,11.855682 0 0 0 11.85,11.85 11.855682,11.855682 0 0 0 11.85,-11.85 11.855682,11.855682 0 0 0 -11.85,-11.85 z m 0.0284,1.977842 a 9.7925892,9.7925892 0 0 1 9.798285,9.798273 9.7925892,9.7925892 0 0 1 -9.79827,9.792589 9.7925892,9.7925892 0 0 1 -9.798275,-9.792589 9.7925892,9.7925892 0 0 1 9.798275,-9.798273 z m -0.14777,2.006259 a 7.8772668,7.8772668 0 0 0 -3.501006,0.88662 l 1.409496,1.409495 a 5.9392087,5.9392087 0 0 1 6.393885,1.324243 5.9392087,5.9392087 0 0 1 1.307194,6.382517 l 1.500431,1.494749 a 7.8772668,7.8772668 0 0 0 -1.420855,-9.201509 7.8772668,7.8772668 0 0 0 -5.683452,-2.296115 z m -6.808777,4.143239 a 7.8772668,7.8772668 0 0 0 1.364029,9.298126 7.8772668,7.8772668 0 0 0 9.298129,1.36403 l -1.48906,-1.489064 a 5.9392087,5.9392087 0 0 1 -6.467761,-1.290143 5.9392087,5.9392087 0 0 1 -1.284461,-6.467773 l -1.420863,-1.420864 z"
         style="fill:#e6e6e6;stroke-width:0.56834525"
         inkscape:connector-curvature="0" />
      <path
         id="path14-3-9-3"
         d="m -57.916881,62.976065 h 32 v -32 h -32 z"
         style="opacity:1;fill:none"
         inkscape:connector-curvature="0" />
    </g>
    <g
       transform="matrix(0.26458333,0,0,0.26458333,-46.541077,264.50946)"
       id="system-save-session">
      <path
         id="path44"
         d="m 134,27 v 32 h 32 V 27 Z"
         style="opacity:1;fill:none"
         inkscape:connector-curvature="0" />
      <path
         id="path2-6"
         d="m 142.45718,32.00143 c -0.83,0 -1.9,0.64 -2,1.43 l -1.98,15.74 -0.02,0.01 h 23 l -0.02,-0.01 -1.98,-15.74 c -0.1,-0.79 -1.17,-1.43 -2,-1.43 z m 4,2.1 h 7 v 6 h 3.11 l -6.61,7 -6.61,-7 h 3.11 z m 15,15.9 h -23 c 0.46,4.05 0.23,3.98 1.15,3.98 7.32,0 20.32,0.05 20.65,0 0.85,0 0.73,-0.6 1.2,-3.98 z"
         style="fill:#e6e6e6"
         inkscape:connector-curvature="0" />
    </g>
    <g
       transform="matrix(0.26458333,0,0,0.26458333,-39.132744,270.85946)"
       id="22-22-system-save-session">
      <path
         id="path39"
         d="m 112,37 v 22 h 22 V 37 Z"
         style="opacity:1;fill:none"
         inkscape:connector-curvature="0" />
      <path
         id="path2-6-0"
         d="m 117.95626,40.642126 c -0.55925,0 -1.28021,0.431222 -1.34758,0.963511 l -1.33409,10.605351 -0.0133,0.0066 h 15.497 l -0.0134,-0.0066 -1.33408,-10.605351 c -0.0673,-0.532289 -0.78834,-0.963511 -1.34758,-0.963511 z m 2.69513,1.414947 h 4.71648 v 4.042699 h 2.09547 l -4.4537,4.716482 -4.45371,-4.716482 h 2.09546 z m 10.10674,10.713155 h -15.497 c 0.30993,2.728823 0.15495,2.681659 0.77484,2.681659 4.93211,0 13.69125,0.03368 13.91364,0 0.57269,0 0.49187,-0.40427 0.80852,-2.681659 z"
         style="fill:#e6e6e6;stroke-width:0.67378348"
         inkscape:connector-curvature="0" />
    </g>
    <g
       transform="matrix(0.26458333,0,0,0.26458333,0.00359704,278.8033)"
       id="system-users">
      <path
         id="path14-3-6"
         d="m -37.916881,62.976065 h 32 v -32 h -32 z"
         style="opacity:1;fill:none"
         inkscape:connector-curvature="0" />
      <path
         inkscape:transform-center-y="7.0525662"
         inkscape:transform-center-x="8.0320898"
         id="path4"
         d="m -21.898465,34.382808 a 12.35306,12.35306 0 0 0 -12.353057,12.372711 12.35306,12.35306 0 0 0 12.3727,12.333413 12.35306,12.35306 0 0 0 12.333424,-12.353057 12.35306,12.35306 0 0 0 -12.353067,-12.353067 z m -0.01963,1.846088 A 10.605173,10.605173 0 0 1 -11.312936,46.834067 10.605173,10.605173 0 0 1 -21.918109,57.458881 10.605173,10.605173 0 0 1 -32.542914,46.85371 10.605173,10.605173 0 0 1 -21.937741,36.20926 Z m 1.708614,1.98356 c -1.826449,0 -3.299388,1.414022 -3.299388,3.142273 0,0.628455 0.05895,1.374746 0.432064,3.102995 0.117834,0.333868 0.608815,0.903405 1.119433,1.433662 l -0.03925,0.373142 c -0.255314,0.196394 -0.589182,0.39279 -0.923051,0.549902 a 5.4204215,5.4204215 0 0 1 -1.433693,-0.785571 V 45.69499 c 0.23567,-0.333861 0.471338,-0.648086 0.530252,-0.824843 0.255313,-1.217627 0.255313,-1.669329 0.274954,-2.121031 0,-1.178354 -0.923041,-2.1014 -2.08176,-2.1014 -1.139072,0 -2.081752,0.942683 -2.081752,2.1014 0,0.432063 0.03925,0.942678 0.27495,2.121031 0.05891,0.176757 0.294588,0.451703 0.530257,0.746295 v 0.412417 c -1.021241,0.844494 -3.790368,1.217634 -3.790368,2.101399 l -0.314229,2.612017 c 0,0.746288 1.806809,1.374747 4.202796,1.531852 0.392782,0.981967 3.201185,1.708613 6.618412,1.708613 3.672534,0 6.657693,-0.86412 6.657693,-1.94428 l -0.432066,-3.220832 c 0,-0.923037 -3.220828,-1.492573 -4.458097,-2.572734 l -0.01962,-0.255307 c 0.471342,-0.589178 0.981965,-1.197995 1.0998,-1.551503 0.412417,-1.767531 0.412417,-2.4549 0.432061,-3.122631 0,-1.708608 -1.472946,-3.102997 -3.279752,-3.102997 z"
         style="fill:#e6e6e6;fill-opacity:1;stroke-width:1.96392083"
         inkscape:connector-curvature="0" />
    </g>
    <g
       transform="matrix(0.26458333,0,0,0.26458333,-23.257743,286.2053)"
       id="22-22-system-users">
      <path
         id="path89"
         d="M 54,37 V 59 H 76 V 37 Z"
         style="opacity:1;fill:none"
         inkscape:connector-curvature="0" />
      <path
         inkscape:connector-curvature="0"
         id="path4-2"
         d="m 67.268125,39.927608 c -1.875413,0 -3.387838,1.45193 -3.387838,3.226511 0,0.645303 0.06053,1.4116 0.443646,3.186179 0.120994,0.342818 0.625137,0.927623 1.149443,1.472096 l -0.04031,0.383146 c -0.262158,0.201658 -0.604976,0.403318 -0.947797,0.564642 a 5.5657313,5.5657313 0 0 1 -1.472127,-0.806629 v -0.342821 c 0.241988,-0.342811 0.483974,-0.665458 0.544468,-0.846955 0.262157,-1.250269 0.262157,-1.714079 0.282324,-2.177891 0,-1.209942 -0.947785,-2.157734 -2.137566,-2.157734 -1.16961,0 -2.13756,0.967955 -2.13756,2.157734 0,0.443647 0.04031,0.96795 0.28232,2.177891 0.06049,0.181497 0.302486,0.463813 0.544473,0.766303 v 0.423473 c -1.048619,0.867132 -3.89198,1.250276 -3.89198,2.157733 l -0.322653,2.682039 c 0,0.766294 1.855245,1.411601 4.315464,1.572918 0.403312,1.008291 3.287001,1.754417 6.795838,1.754417 3.770986,0 6.836171,-0.887286 6.836171,-1.996402 l -0.44365,-3.307176 c 0,-0.947781 -3.30717,-1.532585 -4.577607,-2.641704 l -0.02014,-0.262151 c 0.483976,-0.604972 1.008289,-1.230111 1.129282,-1.593095 0.423473,-1.814915 0.423473,-2.52071 0.443644,-3.206341 0,-1.754414 -1.512433,-3.186183 -3.367675,-3.186183 z"
         style="fill:#e6e6e6;fill-opacity:1;stroke-width:2.01656938" />
    </g>
  </g>
</svg>
