<?xml version="1.0" encoding="UTF-8" standalone="no"?>
<svg
   xmlns:dc="http://purl.org/dc/elements/1.1/"
   xmlns:cc="http://creativecommons.org/ns#"
   xmlns:rdf="http://www.w3.org/1999/02/22-rdf-syntax-ns#"
   xmlns:svg="http://www.w3.org/2000/svg"
   xmlns="http://www.w3.org/2000/svg"
   xmlns:sodipodi="http://sodipodi.sourceforge.net/DTD/sodipodi-0.dtd"
   xmlns:inkscape="http://www.inkscape.org/namespaces/inkscape"
   version="1.1"
   id="svg2"
   viewBox="0 0 54 64"
   inkscape:version="0.92.4 (5da689c313, 2019-01-14)"
   sodipodi:docname="touchpad.svg">
  <sodipodi:namedview
     pagecolor="#ffffff"
     bordercolor="#666666"
     borderopacity="1"
     objecttolerance="10"
     gridtolerance="10"
     guidetolerance="10"
     inkscape:pageopacity="0"
     inkscape:pageshadow="2"
     inkscape:window-width="1366"
     inkscape:window-height="768"
     id="namedview20"
     showgrid="false"
     inkscape:zoom="9"
     inkscape:cx="5.7777778"
     inkscape:cy="32"
     inkscape:window-x="0"
     inkscape:window-y="25"
     inkscape:window-maximized="0"
     inkscape:current-layer="svg2" />
  <metadata
     id="metadata32">
    <rdf:RDF>
      <cc:Work
         rdf:about="">
        <dc:format>image/svg+xml</dc:format>
        <dc:type
           rdf:resource="http://purl.org/dc/dcmitype/StillImage" />
        <dc:title></dc:title>
      </cc:Work>
    </rdf:RDF>
  </metadata>
  <defs
     id="defs3051">
    <style
       type="text/css"
       id="current-color-scheme">
      .ColorScheme-Text {
        color:#31363b;
      }
      .ColorScheme-Background {
        color:#eff0f1;
      }
      .ColorScheme-Highlight {
        color:#3daee9;
      }
      .ColorScheme-ViewText {
        color:#31363b;
      }
      .ColorScheme-ViewBackground {
        color:#fcfcfc;
      }
      .ColorScheme-ViewHover {
        color:#93cee9;
      }
      .ColorScheme-ViewFocus{
        color:#3daee9;
      }
      .ColorScheme-ButtonText {
        color:#31363b;
      }
      .ColorScheme-ButtonBackground {
        color:#eff0f1;
      }
      .ColorScheme-ButtonHover {
        color:#93cee9;
      }
      .ColorScheme-ButtonFocus{
        color:#3daee9;
      }
      .ColorScheme-NegativeText {
        color:#da4453;
      }
      </style>
  </defs>
  <g
     id="touchpad_enabled"
     transform="translate(21.887663,31.945742)">
    <rect
       style="opacity:0.00100002"
       width="32"
       height="32"
       x="0"
       y="-1e-06"
       id="rect268" />
    <path
       inkscape:connector-curvature="0"
       id="path2518-1"
       d="M 5.4456698,3.9431472 A 1.5263287,1.7272647 0 0 0 3.9160152,5.6748317 V 17.262687 l 24.1624088,0.06313 V 5.6748317 A 1.5263287,1.7272647 0 0 0 26.54877,3.9431472 H 5.4492775 Z M 3.9160152,18.310716 v 8.012648 c 0,0.960389 0.6841576,1.733488 1.5296546,1.733489 H 26.552377 a 1.5263287,1.7272647 0 0 0 1.529655,-1.733489 V 18.368439 L 3.9196229,18.310716 Z m 2.4514158,2.307109 h 7.902614 c 0.625242,0 1.127398,0.493571 1.127398,1.107557 v 3.326277 c 0,0.613986 -0.502156,1.107556 -1.127398,1.107556 H 6.367431 c -0.6252425,0 -1.1292026,-0.49357 -1.1292026,-1.107556 v -3.326277 c 0,-0.613986 0.5039601,-1.107557 1.1292026,-1.107557 z m 11.362375,0 h 7.902615 c 0.625242,0 1.129202,0.493571 1.129202,1.107557 v 3.326277 c 0,0.613986 -0.50396,1.107556 -1.129202,1.107556 h -7.902615 c -0.625242,0 -1.127398,-0.49357 -1.127398,-1.107556 v -3.326277 c 0,-0.613986 0.502156,-1.107557 1.127398,-1.107557 z"
       style="fill:#e6e6e6;fill-opacity:1;stroke-width:3.36865425" />
  </g>
  <g
     id="touchpad_disabled"
     transform="translate(22,0.11613356)">
    <rect
       style="opacity:0.00100002"
       width="32"
       height="32"
       x="0"
       y="-1e-06"
       id="rect268-0" />
    <path
       id="path2518-1-1"
       d="M 5.4453125,3.9433594 A 1.5263287,1.7272647 0 0 0 3.9160156,5.6757812 V 17.261719 l 24.1621094,0.06445 V 5.6757812 A 1.5263287,1.7272647 0 0 0 26.548828,3.9433594 H 5.4492188 Z M 12.273438,5.8261719 16,9.5527344 l 3.71875,-3.7265625 1.347656,1.3398437 -3.726562,3.7265624 3.726562,3.71875 -1.339844,1.347656 L 16,12.232422 12.28125,15.958984 10.933594,14.619141 14.660156,10.892578 10.933594,7.1738281 Z M 3.9160156,18.310547 v 8.013672 c 0,0.960389 0.6837999,1.732421 1.5292969,1.732422 H 26.552734 a 1.5263287,1.7272647 0 0 0 1.529297,-1.732422 V 18.369141 L 3.9199219,18.310547 Z m 2.4511719,2.306641 h 7.9023435 c 0.625242,0 1.126953,0.493435 1.126953,1.107421 v 3.326172 c 0,0.613986 -0.501711,1.109375 -1.126953,1.109375 H 6.3671875 c -0.6252425,0 -1.1289063,-0.495389 -1.1289063,-1.109375 v -3.326172 c 0,-0.613986 0.5036638,-1.107422 1.1289063,-1.107421 z m 11.3632815,0 h 7.902343 c 0.625243,0 1.128907,0.493435 1.128907,1.107421 v 3.326172 c 0,0.613986 -0.503665,1.109375 -1.128907,1.109375 h -7.902343 c -0.625242,0 -1.128907,-0.495389 -1.128907,-1.109375 v -3.326172 c 0,-0.613986 0.503665,-1.107422 1.128907,-1.107421 z"
       style="fill:#e6e6e6;fill-opacity:1;stroke-width:3.36865425"
       inkscape:connector-curvature="0" />
  </g>
  <g
     id="22-22-touchpad_enabled"
     transform="translate(0.11111078,58.222221)">
    <path
       inkscape:connector-curvature="0"
       style="opacity:0.00100002"
       d="m 0,-22 h 22 c 0,0 0,0 0,0 V 0 c 0,0 0,0 0,0 H 0 c 0,0 0,0 0,0 v -22 c 0,0 0,0 0,0 z"
       id="path336" />
    <path
       inkscape:connector-curvature="0"
       style="fill:#e6e6e6;fill-opacity:1;stroke-width:0.8888889"
       d="M 4.0659733,-18.111111 C 2.9993067,-18.111111 3,-17.01736 3,-17.01736 v 12.03472 c 0,0 -6.933e-4,1.0937511 1.0659733,1.0937511 H 17.934027 c 0,0 1.065973,2.667e-4 1.065973,-1.0937511 v -12.03472 c 0,-1.094018 -1.065973,-1.093751 -1.065973,-1.093751 z m 11.3784707,1.777778 h 1.777778 v 0.888889 h -1.777778 z m 0,1.777777 h 1.777778 v 0.888889 h -1.777778 z m 0,1.777778 h 1.777778 v 0.888889 h -1.777778 z m 0,1.777778 h 1.777778 v 0.888889 H 15.444444 Z M 4.7777778,-8.3333333 h 5.3333332 v 2.6666666 H 4.7777778 Z m 7.1111112,0 h 5.333333 v 2.6666666 h -5.333333 z"
       id="path338" />
  </g>
  <g
     id="22-22-touchpad_disabled"
     transform="translate(0.11111112,27)">
    <path
       inkscape:connector-curvature="0"
       style="opacity:0.00100002"
       d="m 0,-22 h 22 c 0,0 0,0 0,0 V 0 c 0,0 0,0 0,0 H 0 c 0,0 0,0 0,0 v -22 c 0,0 0,0 0,0 z"
       id="path336-2" />
    <path
       id="path338-2"
       d="M 4.0664062,-18.111328 C 2.9997397,-18.111328 3,-17.017578 3,-17.017578 v 12.0351561 c 0,0 -2.603e-4,1.09375 1.0664062,1.09375 H 17.933594 c 0,0 1.066406,2.678e-4 1.066406,-1.09375 V -17.017578 c 0,-1.094018 -1.066406,-1.09375 -1.066406,-1.09375 z m 0.8886719,0.871094 2.3066407,2.304687 2.3007812,-2.304687 0.833984,0.828125 -2.3066402,2.30664 2.3066402,2.300781 -0.8281246,0.833985 -2.3066406,-2.306641 -2.3007813,2.306641 -0.8339844,-0.828125 2.3046875,-2.306641 -2.3046875,-2.300781 z m 10.4902339,0.90625 h 1.777344 v 0.888672 h -1.777344 z m 0,1.779296 h 1.777344 v 0.888672 h -1.777344 z m 0,1.777344 h 1.777344 v 0.888672 h -1.777344 z m 0,1.777344 h 1.777344 v 0.888672 H 15.445312 Z M 4.7773438,-8.3339844 h 5.3339842 v 2.6679688 H 4.7773438 Z m 7.1113282,0 h 5.333984 v 2.6679688 h -5.333984 z"
       style="fill:#e6e6e6;fill-opacity:1;stroke-width:0.8888889"
       inkscape:connector-curvature="0" />
  </g>
</svg>
