<?xml version="1.0" encoding="UTF-8" standalone="no"?>
<svg
   xmlns:dc="http://purl.org/dc/elements/1.1/"
   xmlns:cc="http://creativecommons.org/ns#"
   xmlns:rdf="http://www.w3.org/1999/02/22-rdf-syntax-ns#"
   xmlns:svg="http://www.w3.org/2000/svg"
   xmlns="http://www.w3.org/2000/svg"
   xmlns:sodipodi="http://sodipodi.sourceforge.net/DTD/sodipodi-0.dtd"
   xmlns:inkscape="http://www.inkscape.org/namespaces/inkscape"
   width="32"
   height="32"
   version="1.1"
   id="svg118"
   sodipodi:docname="update.svg"
   inkscape:version="0.92.4 (5da689c313, 2019-01-14)">
  <metadata
     id="metadata124">
    <rdf:RDF>
      <cc:Work
         rdf:about="">
        <dc:format>image/svg+xml</dc:format>
        <dc:type
           rdf:resource="http://purl.org/dc/dcmitype/StillImage" />
        <dc:title></dc:title>
      </cc:Work>
    </rdf:RDF>
  </metadata>
  <defs
     id="defs122" />
  <sodipodi:namedview
     pagecolor="#ffffff"
     bordercolor="#666666"
     borderopacity="1"
     objecttolerance="10"
     gridtolerance="10"
     guidetolerance="10"
     inkscape:pageopacity="0"
     inkscape:pageshadow="2"
     inkscape:window-width="1366"
     inkscape:window-height="703"
     id="namedview120"
     showgrid="false"
     showguides="true"
     inkscape:guide-bbox="true"
     inkscape:zoom="2.046875"
     inkscape:cx="-81.465649"
     inkscape:cy="16"
     inkscape:window-x="0"
     inkscape:window-y="0"
     inkscape:window-maximized="1"
     inkscape:current-layer="svg118" />
  <g
     id="22-22-update-low"
     transform="translate(28)">
    <rect
       width="22"
       height="22"
       x="5"
       y="5.0000439"
       style="opacity:0.00100002;fill:#e6e6e6;fill-opacity:1"
       id="rect2-5" />
    <path
       id="path1188"
       d="M 16,7.171875 A 8.8598852,8.8272523 0 0 0 7.140625,16 8.8598852,8.8272523 0 0 0 16,24.828125 8.8598852,8.8272523 0 0 0 24.859375,16 8.8598852,8.8272523 0 0 0 16,7.171875 Z m 0.06641,3.199219 a 5.5476262,5.5476262 0 0 1 5.546875,5.55664 v 0.0078 a 5.5476262,5.5476262 0 0 1 -5.546875,5.556641 5.5231511,5.5231511 0 0 1 -3.93164,-1.632813 l -1.632813,1.632813 v -4.871094 h 4.861328 l -2.234375,2.24414 a 4.144403,4.144403 0 0 0 2.9375,1.240235 4.1688778,4.1688778 0 0 0 4.160156,-4.177735 4.1688778,4.1688778 0 0 0 -4.160156,-4.160156 4.1607196,4.1607196 0 0 0 -3.93164,2.773438 h -1.445313 a 5.5476262,5.5476262 0 0 1 5.376953,-4.169922 z"
       style="fill:#e6e6e6;fill-opacity:0.98999999;stroke-width:0.81582737"
       inkscape:connector-curvature="0" />
  </g>
  <g
     id="update-low">
    <path
       id="path2-36"
       d="M 16.000001,3.2298176 A 12.773229,12.773229 0 0 0 3.226772,16.003047 12.773229,12.773229 0 0 0 16.000001,28.772213 12.773229,12.773229 0 0 0 28.773228,16.001016 12.773229,12.773229 0 0 0 16.000001,3.227787 Z m -0.03656,1.9007541 A 10.980103,10.980103 0 0 1 26.943547,16.110674 10.980103,10.980103 0 0 1 15.96345,27.090778 10.980103,10.980103 0 0 1 4.9853754,16.110674 10.980103,10.980103 0 0 1 15.96345,5.1326023 Z m 0,2.1505324 a 8.6914825,8.6914825 0 0 0 -5.635239,2.0693036 c -0.6518655,0.6295231 1.064092,2.0693033 1.644877,1.4682103 a 6.4861196,6.4861196 0 0 1 3.990368,-1.360582 6.5186107,6.5186107 0 0 1 6.536886,6.534856 6.5186107,6.5186107 0 0 1 -6.536885,6.53486 6.4983039,6.4983039 0 0 1 -4.619889,-1.912943 6.5247024,6.5247024 0 0 1 -1.614424,-2.660243 h 2.477477 l -3.5131439,-4.085807 -3.509084,4.083776 h 2.2926828 a 8.7178802,8.7178802 0 0 0 8.4884111,6.754177 8.7320946,8.7320946 0 0 0 8.71179,-8.71382 8.7300636,8.7300636 0 0 0 -8.711789,-8.7117879 z"
       style="fill:#e6e6e6;stroke-width:2.03072"
       inkscape:connector-curvature="0" />
    <rect
       width="32"
       height="32"
       x="0"
       y="0"
       style="opacity:0.00100002"
       id="rect14-6" />
  </g>
  <g
     id="update-medium"
     transform="translate(-32)">
    <path
       id="path2-36-3"
       d="M 16.000001,3.2298176 A 12.773229,12.773229 0 0 0 3.226772,16.003047 12.773229,12.773229 0 0 0 16.000001,28.772213 12.773229,12.773229 0 0 0 28.773228,16.001016 12.773229,12.773229 0 0 0 16.000001,3.227787 Z m -0.03656,1.9007541 A 10.980103,10.980103 0 0 1 26.943547,16.110674 10.980103,10.980103 0 0 1 15.96345,27.090778 10.980103,10.980103 0 0 1 4.9853754,16.110674 10.980103,10.980103 0 0 1 15.96345,5.1326023 Z m 0,2.1505324 a 8.6914825,8.6914825 0 0 0 -5.635239,2.0693036 c -0.6518655,0.6295231 1.064092,2.0693033 1.644877,1.4682103 a 6.4861196,6.4861196 0 0 1 3.990368,-1.360582 6.5186107,6.5186107 0 0 1 6.536886,6.534856 6.5186107,6.5186107 0 0 1 -6.536885,6.53486 6.4983039,6.4983039 0 0 1 -4.619889,-1.912943 6.5247024,6.5247024 0 0 1 -1.614424,-2.660243 h 2.477477 l -3.5131439,-4.085807 -3.509084,4.083776 h 2.2926828 a 8.7178802,8.7178802 0 0 0 8.4884111,6.754177 8.7320946,8.7320946 0 0 0 8.71179,-8.71382 8.7300636,8.7300636 0 0 0 -8.711789,-8.7117879 z"
       style="fill:#e6e6e6;stroke-width:2.03072"
       inkscape:connector-curvature="0" />
    <rect
       width="32"
       height="32"
       x="0"
       y="0"
       style="opacity:0.00100002"
       id="rect14-6-6" />
  </g>
  <g
     id="update-high"
     transform="translate(-64)">
    <path
       id="path2-36-3-6"
       d="M 16.000001,3.2298176 A 12.773229,12.773229 0 0 0 3.226772,16.003047 12.773229,12.773229 0 0 0 16.000001,28.772213 12.773229,12.773229 0 0 0 28.773228,16.001016 12.773229,12.773229 0 0 0 16.000001,3.227787 Z m -0.03656,1.9007541 A 10.980103,10.980103 0 0 1 26.943547,16.110674 10.980103,10.980103 0 0 1 15.96345,27.090778 10.980103,10.980103 0 0 1 4.9853754,16.110674 10.980103,10.980103 0 0 1 15.96345,5.1326023 Z m 0,2.1505324 a 8.6914825,8.6914825 0 0 0 -5.635239,2.0693036 c -0.6518655,0.6295231 1.064092,2.0693033 1.644877,1.4682103 a 6.4861196,6.4861196 0 0 1 3.990368,-1.360582 6.5186107,6.5186107 0 0 1 6.536886,6.534856 6.5186107,6.5186107 0 0 1 -6.536885,6.53486 6.4983039,6.4983039 0 0 1 -4.619889,-1.912943 6.5247024,6.5247024 0 0 1 -1.614424,-2.660243 h 2.477477 l -3.5131439,-4.085807 -3.509084,4.083776 h 2.2926828 a 8.7178802,8.7178802 0 0 0 8.4884111,6.754177 8.7320946,8.7320946 0 0 0 8.71179,-8.71382 8.7300636,8.7300636 0 0 0 -8.711789,-8.7117879 z"
       style="fill:#e6e6e6;stroke-width:2.03072"
       inkscape:connector-curvature="0" />
    <rect
       width="32"
       height="32"
       x="0"
       y="0"
       style="opacity:0.00100002"
       id="rect14-6-6-2" />
  </g>
  <g
     id="update-none"
     transform="translate(-96)">
    <rect
       width="32"
       height="32"
       x="0"
       y="0"
       style="opacity:0.00100002"
       id="rect14-6-8" />
    <path
       id="path2"
       d="M 16,3.2298171 A 12.773229,12.773229 0 0 0 3.2267715,16.003046 12.773229,12.773229 0 0 0 16,28.772212 12.773229,12.773229 0 0 0 28.773228,16.001015 12.773229,12.773229 0 0 0 16,3.2277865 Z M 15.96344,5.1305712 A 10.980103,10.980103 0 0 1 26.943547,16.110673 10.980103,10.980103 0 0 1 15.963449,27.090777 10.980103,10.980103 0 0 1 4.9853749,16.110673 10.980103,10.980103 0 0 1 15.963449,5.1326018 Z m 4.457433,3.1070015 a 0.61124674,0.61124674 0 0 0 -0.601092,0.3188231 l -5.245346,9.6377952 -3.375058,-2.692735 a 0.61530818,0.61530818 0 0 0 -0.840719,0.243686 l -1.5108561,1.949493 a 0.6214003,0.6214003 0 0 0 0.2457171,0.842747 c 0,0 6.159175,5.109291 6.167298,5.111322 a 0.54829442,0.54829442 0 0 0 0.219317,0.067 0.61530818,0.61530818 0 0 0 0.619371,-0.316793 L 23.176566,10.40232 A 0.6214003,0.6214003 0 0 0 22.930849,9.5616021 L 20.6605,8.3106788 a 0.59906243,0.59906243 0 0 0 -0.239624,-0.073107 z"
       style="fill:#e6e6e6;stroke-width:2.03072"
       inkscape:connector-curvature="0" />
  </g>
  <g
     id="22-22-update-none"
     transform="translate(28,-84)"
     style="fill:#e6e6e6;fill-opacity:1">
    <rect
       width="22"
       height="22"
       x="5"
       y="5"
       style="opacity:0.00100002;fill:#e6e6e6;fill-opacity:1"
       id="rect2-5-2" />
    <path
       inkscape:connector-curvature="0"
       d="m 16,7.1832065 c -4.869407,0 -8.8167935,3.9473885 -8.8167935,8.8167935 0,4.869075 3.9473865,8.816793 8.8167935,8.816793 4.869075,0 8.816793,-3.947718 8.816793,-8.816793 0,-4.869406 -3.947718,-8.8167935 -8.816793,-8.8167935 z m 3.730605,5.0498205 c 0.09149,0 0.181848,0.03526 0.25128,0.105801 l 1.052505,1.052614 c 0.141069,0.140406 0.141069,0.365567 0,0.505863 l -4.612287,4.612505 -1.115322,1.115325 -0.0628,0.06283 c -0.1047,0.104699 -0.275526,0.104699 -0.380445,0 l -0.0625,-0.06283 -1.052619,-1.052504 -3.179225,-3.179555 c -0.10525,-0.1047 -0.10525,-0.275527 0,-0.380226 l 1.177371,-1.177923 c 0.10525,-0.105801 0.275745,-0.105801 0.380995,0 l 2.927948,2.926954 4.420521,-4.423053 c 0.07053,-0.07053 0.16311,-0.105801 0.254583,-0.105801 z"
       style="fill:#e6e6e6;fill-opacity:1;stroke-width:1.1020993"
       id="path4-9" />
  </g>
  <g
     id="22-22-update-medium"
     transform="translate(28,-28.000044)">
    <rect
       width="22"
       height="22"
       x="5"
       y="5.0000439"
       style="opacity:0.00100002;fill:#e6e6e6;fill-opacity:1"
       id="rect2-5-7" />
    <path
       id="path1188-3"
       d="M 16,7.171875 A 8.8598852,8.8272523 0 0 0 7.140625,16 8.8598852,8.8272523 0 0 0 16,24.828125 8.8598852,8.8272523 0 0 0 24.859375,16 8.8598852,8.8272523 0 0 0 16,7.171875 Z m 0.06641,3.199219 a 5.5476262,5.5476262 0 0 1 5.546875,5.55664 v 0.0078 a 5.5476262,5.5476262 0 0 1 -5.546875,5.556641 5.5231511,5.5231511 0 0 1 -3.93164,-1.632813 l -1.632813,1.632813 v -4.871094 h 4.861328 l -2.234375,2.24414 a 4.144403,4.144403 0 0 0 2.9375,1.240235 4.1688778,4.1688778 0 0 0 4.160156,-4.177735 4.1688778,4.1688778 0 0 0 -4.160156,-4.160156 4.1607196,4.1607196 0 0 0 -3.93164,2.773438 h -1.445313 a 5.5476262,5.5476262 0 0 1 5.376953,-4.169922 z"
       style="fill:#e6e6e6;fill-opacity:0.98999999;stroke-width:0.81582737"
       inkscape:connector-curvature="0" />
  </g>
  <g
     id="22-22-update-high"
     transform="translate(28,-56.000044)">
    <rect
       width="22"
       height="22"
       x="5"
       y="5.0000439"
       style="opacity:0.00100002;fill:#e6e6e6;fill-opacity:1"
       id="rect2-5-7-1" />
    <path
       id="path1188-3-2"
       d="M 16,7.171875 A 8.8598852,8.8272523 0 0 0 7.140625,16 8.8598852,8.8272523 0 0 0 16,24.828125 8.8598852,8.8272523 0 0 0 24.859375,16 8.8598852,8.8272523 0 0 0 16,7.171875 Z m 0.06641,3.199219 a 5.5476262,5.5476262 0 0 1 5.546875,5.55664 v 0.0078 a 5.5476262,5.5476262 0 0 1 -5.546875,5.556641 5.5231511,5.5231511 0 0 1 -3.93164,-1.632813 l -1.632813,1.632813 v -4.871094 h 4.861328 l -2.234375,2.24414 a 4.144403,4.144403 0 0 0 2.9375,1.240235 4.1688778,4.1688778 0 0 0 4.160156,-4.177735 4.1688778,4.1688778 0 0 0 -4.160156,-4.160156 4.1607196,4.1607196 0 0 0 -3.93164,2.773438 h -1.445313 a 5.5476262,5.5476262 0 0 1 5.376953,-4.169922 z"
       style="fill:#e6e6e6;fill-opacity:0.98999999;stroke-width:0.81582737"
       inkscape:connector-curvature="0" />
  </g>
</svg>
