<?xml version="1.0" encoding="UTF-8" standalone="no"?>
<!-- Created with Inkscape (http://www.inkscape.org/) -->

<svg
   xmlns:dc="http://purl.org/dc/elements/1.1/"
   xmlns:cc="http://creativecommons.org/ns#"
   xmlns:rdf="http://www.w3.org/1999/02/22-rdf-syntax-ns#"
   xmlns:svg="http://www.w3.org/2000/svg"
   xmlns="http://www.w3.org/2000/svg"
   xmlns:sodipodi="http://sodipodi.sourceforge.net/DTD/sodipodi-0.dtd"
   xmlns:inkscape="http://www.inkscape.org/namespaces/inkscape"
   id="svg4153"
   version="1.1"
   inkscape:version="0.92.4 (5da689c313, 2019-01-14)"
   width="22"
   height="22"
   sodipodi:docname="user.svg"
   viewBox="0 0 22 22">
  <metadata
     id="metadata4159">
    <rdf:RDF>
      <cc:Work
         rdf:about="">
        <dc:format>image/svg+xml</dc:format>
        <dc:type
           rdf:resource="http://purl.org/dc/dcmitype/StillImage" />
        <dc:title></dc:title>
      </cc:Work>
    </rdf:RDF>
  </metadata>
  <defs
     id="defs4157">
    <style
       type="text/css"
       id="current-color-scheme">
      .ColorScheme-Text {
        color:#31363b;
      }
      .ColorScheme-Background {
        color:#eff0f1;
      }
      .ColorScheme-Highlight {
        color:#3daee9;
      }
      .ColorScheme-ViewText {
        color:#31363b;
      }
      .ColorScheme-ViewBackground {
        color:#fcfcfc;
      }
      .ColorScheme-ViewHover {
        color:#93cee9;
      }
      .ColorScheme-ViewFocus{
        color:#3daee9;
      }
      .ColorScheme-ButtonText {
        color:#31363b;
      }
      .ColorScheme-ButtonBackground {
        color:#eff0f1;
      }
      .ColorScheme-ButtonHover {
        color:#93cee9;
      }
      .ColorScheme-ButtonFocus{
        color:#3daee9;
      }
      </style>
  </defs>
  <sodipodi:namedview
     pagecolor="#ffffff"
     bordercolor="#666666"
     borderopacity="1"
     objecttolerance="10"
     gridtolerance="10000"
     guidetolerance="10"
     inkscape:pageopacity="0"
     inkscape:pageshadow="2"
     inkscape:window-width="1366"
     inkscape:window-height="717"
     id="namedview4155"
     inkscape:document-units="px"
     showgrid="true"
     inkscape:showpageshadow="false"
     borderlayer="true"
     inkscape:zoom="2.9261364"
     inkscape:cx="22.074744"
     inkscape:cy="11"
     inkscape:window-x="0"
     inkscape:window-y="25"
     inkscape:window-maximized="1"
     inkscape:current-layer="svg4153">
    <inkscape:grid
       type="xygrid"
       id="grid4140" />
    <sodipodi:guide
       position="0,22"
       orientation="22,0"
       id="guide4146"
       inkscape:locked="false" />
    <sodipodi:guide
       position="0,0"
       orientation="0,22"
       id="guide4148"
       inkscape:locked="false" />
    <sodipodi:guide
       position="22,0"
       orientation="-22,0"
       id="guide4150"
       inkscape:locked="false" />
    <sodipodi:guide
       position="22,22"
       orientation="0,-22"
       id="guide4152"
       inkscape:locked="false" />
    <sodipodi:guide
       position="3,19"
       orientation="16,0"
       id="guide4154"
       inkscape:locked="false" />
    <sodipodi:guide
       position="3,3"
       orientation="0,16"
       id="guide4156"
       inkscape:locked="false" />
    <sodipodi:guide
       position="19,3"
       orientation="-1,6.123234e-17"
       id="guide4158"
       inkscape:locked="false" />
    <sodipodi:guide
       position="44,19"
       orientation="0,-16"
       id="guide4160"
       inkscape:locked="false" />
  </sodipodi:namedview>
  <inkscape:clipboard
     style="opacity:0.01000001;fill:#00000f;fill-opacity:0;stroke-width:1;stroke-linecap:butt;stroke-linejoin:miter;stroke-miterlimit:4;stroke-dasharray:none;stroke-dashoffset:0;stroke-opacity:1;stroke:none"
     min="0,0"
     max="22,22" />
  <g
     id="user-online">
    <rect
       y="0"
       x="88"
       height="22"
       width="22"
       id="rect4554"
       style="opacity:0.97000002;fill:none;fill-opacity:1;stroke:none" />
    <path
       id="path830-3"
       d="m 98.172962,2.9999997 a 3.5092271,3.5092271 0 1 0 -0.008,7.0184493 3.5092271,3.5092271 0 0 0 0.008,-7.0184493 z m 4.815168,8.9092653 a 3.605368,3.605368 0 0 0 -3.605366,3.605368 3.605368,3.605368 0 0 0 3.605366,3.605368 3.605368,3.605368 0 0 0 3.60537,-3.605368 3.605368,3.605368 0 0 0 -3.60537,-3.605368 z m -4.815168,0.45668 c -7.026461,0 -7.026461,4.686978 -7.026461,4.686978 v 1.169742 h 8.372465 a 4.4065608,4.4065608 0 0 1 -0.160238,-0.224334 4.4065608,4.4065608 0 0 1 -0.240358,-0.37656 4.4065608,4.4065608 0 0 1 -0.184274,-0.392586 4.4065608,4.4065608 0 0 1 -0.16024,-0.41662 4.4065608,4.4065608 0 0 1 -0.104154,-0.424632 4.4065608,4.4065608 0 0 1 -0.0641,-0.432644 4.4065608,4.4065608 0 0 1 -0.02404,-0.440656 4.4065608,4.4065608 0 0 1 0.01602,-0.320478 4.4065608,4.4065608 0 0 1 0.04808,-0.432644 4.4065608,4.4065608 0 0 1 0.09614,-0.424632 4.4065608,4.4065608 0 0 1 0.136202,-0.41662 4.4065608,4.4065608 0 0 1 0.184274,-0.400596 4.4065608,4.4065608 0 0 1 0.216322,-0.384572 4.4065608,4.4065608 0 0 1 0.256382,-0.360538 4.4065608,4.4065608 0 0 1 0.240358,-0.272406 c -0.504752,-0.0641 -0.993479,-0.136202 -1.602386,-0.136202 z m 6.609838,1.049562 0.72909,0.729086 -2.90833,2.90833 -0.72909,-0.721074 -1.45817,-1.45817 0.72108,-0.729086 1.46618,1.458172 z"
       style="color:#dfdfdf;fill:#e6e6e6;stroke-width:1.16974163"
       inkscape:connector-curvature="0" />
  </g>
  <g
     id="user-offline"
     transform="translate(88,22)">
    <rect
       y="-22.012741"
       x="22.019203"
       height="22"
       width="22"
       id="rect4554-7"
       style="opacity:0.97000002;fill:none;fill-opacity:1;stroke:none" />
    <path
       inkscape:connector-curvature="0"
       id="path937"
       d="m 32.192465,-19.012733 a 3.5092271,3.5092271 0 1 0 -0.0078,7.017578 3.5092271,3.5092271 0 0 0 0.0078,-7.017578 z m 4.814453,8.910156 a 3.605368,3.605368 0 0 0 -3.605469,3.6035156 3.605368,3.605368 0 0 0 3.605469,3.6054684 3.605368,3.605368 0 0 0 3.605469,-3.6054684 3.605368,3.605368 0 0 0 -3.605469,-3.6035156 z m -4.814453,0.4550781 c -7.026462,0 -7.027344,4.6875 -7.027344,4.6875 v 1.1699219 h 8.373047 a 4.4065608,4.4065608 0 0 1 -0.160156,-0.224609 4.4065608,4.4065608 0 0 1 -0.240235,-0.376953 4.4065608,4.4065608 0 0 1 -0.183593,-0.392579 4.4065608,4.4065608 0 0 1 -0.160157,-0.4160152 4.4065608,4.4065608 0 0 1 -0.105468,-0.4238282 4.4065608,4.4065608 0 0 1 -0.06445,-0.4335937 4.4065608,4.4065608 0 0 1 -0.02344,-0.4414063 4.4065608,4.4065608 0 0 1 0.01563,-0.3203125 4.4065608,4.4065608 0 0 1 0.04883,-0.4316406 4.4065608,4.4065608 0 0 1 0.0957,-0.4257813 4.4065608,4.4065608 0 0 1 0.136719,-0.4160156 4.4065608,4.4065608 0 0 1 0.183594,-0.4003906 4.4065608,4.4065608 0 0 1 0.216797,-0.3847656 4.4065608,4.4065608 0 0 1 0.255859,-0.359375 4.4065608,4.4065608 0 0 1 0.240234,-0.2734375 c -0.504752,-0.0641 -0.992655,-0.1367188 -1.601562,-0.1367188 z m 2.80664,2.765625 h 4 v 1 h -4 z"
       style="color:#dfdfdf;opacity:0.5;fill:#e6e6e6;stroke-width:1.16974163" />
  </g>
  <g
     id="user-away"
     transform="translate(88,22)">
    <rect
       y="-22"
       x="-22"
       height="22"
       width="22"
       id="rect4562"
       style="opacity:0.97000002;fill:none;fill-opacity:1;stroke:none" />
    <path
       id="path1027"
       d="m -11.826172,-19 a 3.5092271,3.5092271 0 1 0 -0.0098,7.017578 3.5092271,3.5092271 0 0 0 0.0098,-7.017578 z m 4.8144532,8.910156 a 3.605368,3.605368 0 0 0 -3.6054692,3.6035159 3.605368,3.605368 0 0 0 3.6054692,3.6054687 3.605368,3.605368 0 0 0 3.6054688,-3.6054687 3.605368,3.605368 0 0 0 -3.6054688,-3.6035159 z m -4.8144532,0.4550784 v 0.00781 c -7.026461,0 -7.027344,4.6875 -7.027344,4.6875 v 1.1621093 h 8.373047 a 4.4065608,4.4065608 0 0 1 -0.160156,-0.2246093 4.4065608,4.4065608 0 0 1 -0.240234,-0.3769531 4.4065608,4.4065608 0 0 1 -0.185547,-0.3925782 4.4065608,4.4065608 0 0 1 -0.160156,-0.4160156 4.4065608,4.4065608 0 0 1 -0.103516,-0.4238281 4.4065608,4.4065608 0 0 1 -0.06445,-0.4335938 4.4065608,4.4065608 0 0 1 -0.02344,-0.4414062 4.4065608,4.4065608 0 0 1 0.01563,-0.3203125 4.4065608,4.4065608 0 0 1 0.04883,-0.4316406 4.4065608,4.4065608 0 0 1 0.0957,-0.4257813 4.4065608,4.4065608 0 0 1 0.136718,-0.4160156 4.4065608,4.4065608 0 0 1 0.183594,-0.4003907 4.4065608,4.4065608 0 0 1 0.216797,-0.3847656 4.4065608,4.4065608 0 0 1 0.255859,-0.359375 4.4065608,4.4065608 0 0 1 0.240235,-0.2734375 c -0.504752,-0.0641 -0.992656,-0.1367187 -1.601563,-0.1367187 z m 4.8945314,0.9121094 2.2050781,2.2050781 -2.2050781,2.2050781 -0.8261719,-0.8261719 0.8261719,-0.828125 h -2.2050782 v -1.1015625 h 2.2050782 l -0.8261719,-0.8261718 z"
       style="color:#dfdfdf;fill:#e6e6e6;stroke-width:1.16974163"
       inkscape:connector-curvature="0" />
  </g>
  <g
     id="user-invisible"
     transform="translate(132)">
    <path
       style="color:#dfdfdf;opacity:0.5;fill:#e6e6e6;fill-opacity:1;stroke-width:1.16974163"
       inkscape:connector-curvature="0"
       id="path865"
       d="m 14.988131,11.909265 a 3.605368,3.605368 0 0 0 -3.605368,3.605368 3.605368,3.605368 0 0 0 3.605368,3.605368 3.605368,3.605368 0 0 0 3.605368,-3.605368 3.605368,3.605368 0 0 0 -3.605368,-3.605368 z m 1.794672,1.506242 0.729086,0.729086 -2.90833,2.90833 -0.729086,-0.721074 -1.458171,-1.458171 0.721074,-0.729085 1.466183,1.458171 z" />
    <rect
       style="opacity:0.97000002;fill:none;fill-opacity:1;stroke:none"
       id="rect4556"
       width="22"
       height="22"
       x="0"
       y="0" />
    <path
       style="color:#dfdfdf;fill:#e6e6e6;stroke-width:1.16974163"
       inkscape:connector-curvature="0"
       id="path867"
       d="m 10.172962,2.9999999 a 3.5092273,3.5092273 0 1 0 -0.008,7.0184501 3.5092273,3.5092273 0 0 0 0.008,-7.0184501 z m 0,9.3739571 c -7.0264613,0 -7.0264613,4.678966 -7.0264613,4.678966 v 1.169742 h 8.3724653 a 4.4065608,4.4065608 0 0 1 -0.160238,-0.224334 4.4065608,4.4065608 0 0 1 -0.240358,-0.376561 4.4065608,4.4065608 0 0 1 -0.184275,-0.392585 4.4065608,4.4065608 0 0 1 -0.160238,-0.41662 4.4065608,4.4065608 0 0 1 -0.104155,-0.424632 4.4065608,4.4065608 0 0 1 -0.0641,-0.432644 4.4065608,4.4065608 0 0 1 -0.02403,-0.440656 4.4065608,4.4065608 0 0 1 0.01602,-0.320477 4.4065608,4.4065608 0 0 1 0.04807,-0.432645 4.4065608,4.4065608 0 0 1 0.09614,-0.424632 4.4065608,4.4065608 0 0 1 0.136203,-0.41662 4.4065608,4.4065608 0 0 1 0.184274,-0.400597 4.4065608,4.4065608 0 0 1 0.216322,-0.384572 4.4065608,4.4065608 0 0 1 0.256382,-0.360537 4.4065608,4.4065608 0 0 1 0.240358,-0.272406 c -0.504752,-0.0641 -0.993479,-0.136202 -1.602386,-0.136202 z" />
  </g>
  <g
     id="user-away-extended"
     transform="translate(22)">
    <rect
       y="0"
       x="22"
       height="22"
       width="22"
       id="rect4562-6"
       style="opacity:0.97000002;fill:none;fill-opacity:1;stroke:none" />
    <path
       id="path1070"
       d="m 32.173828,3 a 3.5092271,3.5092271 0 1 0 -0.0098,7.017578 A 3.5092271,3.5092271 0 0 0 32.173828,3 Z m 4.814453,8.910156 a 3.605368,3.605368 0 0 0 -3.605469,3.603516 3.605368,3.605368 0 0 0 3.605469,3.605469 3.605368,3.605368 0 0 0 3.605469,-3.605469 3.605368,3.605368 0 0 0 -3.605469,-3.603516 z m -4.814453,0.455078 v 0.0078 c -7.026461,0 -7.027344,4.6875 -7.027344,4.6875 v 1.162109 h 8.373047 a 4.4065608,4.4065608 0 0 1 -0.160156,-0.224609 4.4065608,4.4065608 0 0 1 -0.240234,-0.376953 4.4065608,4.4065608 0 0 1 -0.185547,-0.392578 4.4065608,4.4065608 0 0 1 -0.160156,-0.416016 4.4065608,4.4065608 0 0 1 -0.103516,-0.423828 4.4065608,4.4065608 0 0 1 -0.06445,-0.433594 4.4065608,4.4065608 0 0 1 -0.02344,-0.441406 4.4065608,4.4065608 0 0 1 0.01563,-0.320313 4.4065608,4.4065608 0 0 1 0.04883,-0.43164 4.4065608,4.4065608 0 0 1 0.0957,-0.425781 4.4065608,4.4065608 0 0 1 0.136718,-0.416016 4.4065608,4.4065608 0 0 1 0.183594,-0.400391 4.4065608,4.4065608 0 0 1 0.216797,-0.384765 4.4065608,4.4065608 0 0 1 0.255859,-0.359375 4.4065608,4.4065608 0 0 1 0.240235,-0.273438 c -0.504752,-0.0641 -0.992656,-0.136719 -1.601563,-0.136719 z m 2.689453,2.5 A 0.63475329,0.63475329 0 0 1 35.498047,15.5 0.63475329,0.63475329 0 0 1 34.863281,16.134766 0.63475329,0.63475329 0 0 1 34.228516,15.5 0.63475329,0.63475329 0 0 1 34.863281,14.865234 Z m 2.16211,0 A 0.63475329,0.63475329 0 0 1 37.660156,15.5 0.63475329,0.63475329 0 0 1 37.025391,16.134766 0.63475329,0.63475329 0 0 1 36.390625,15.5 0.63475329,0.63475329 0 0 1 37.025391,14.865234 Z m 2.162109,0 A 0.63475329,0.63475329 0 0 1 39.822266,15.5 0.63475329,0.63475329 0 0 1 39.1875,16.134766 0.63475329,0.63475329 0 0 1 38.552734,15.5 0.63475329,0.63475329 0 0 1 39.1875,14.865234 Z"
       style="color:#dfdfdf;fill:#e6e6e6;stroke-width:1.16974163"
       inkscape:connector-curvature="0" />
  </g>
  <g
     id="user-busy"
     transform="translate(22)">
    <rect
       style="opacity:0.97000002;fill:none;fill-opacity:1;stroke:none"
       id="rect4560"
       width="22"
       height="22"
       x="0"
       y="0" />
    <path
       id="path828"
       d="m 10.170574,2.9999996 a 3.5061871,3.5061871 0 1 0 -0.008,7.0123694 3.5061871,3.5061871 0 0 0 0.008,-7.0123694 z m 4.810998,8.9015474 a 3.5782296,3.5782296 0 0 0 -3.57823,3.57823 3.5782296,3.5782296 0 0 0 3.57823,3.570224 3.5782296,3.5782296 0 0 0 3.578228,-3.570224 3.5782296,3.5782296 0 0 0 -3.578228,-3.57823 z m -4.810998,0.456284 c -7.020375,0 -7.020375,4.682918 -7.020375,4.682918 v 1.168728 h 8.365213 a 4.4027434,4.4027434 0 0 1 -0.1601,-0.22414 4.4027434,4.4027434 0 0 1 -0.24015,-0.376234 4.4027434,4.4027434 0 0 1 -0.184114,-0.392244 4.4027434,4.4027434 0 0 1 -0.1601,-0.41626 4.4027434,4.4027434 0 0 1 -0.104066,-0.424264 4.4027434,4.4027434 0 0 1 -0.06404,-0.43227 4.4027434,4.4027434 0 0 1 -0.02402,-0.440274 4.4027434,4.4027434 0 0 1 0.01601,-0.3202 4.4027434,4.4027434 0 0 1 0.04803,-0.432268 4.4027434,4.4027434 0 0 1 0.09606,-0.424264 4.4027434,4.4027434 0 0 1 0.136085,-0.41626 4.4027434,4.4027434 0 0 1 0.184115,-0.40025 4.4027434,4.4027434 0 0 1 0.216134,-0.384239 4.4027434,4.4027434 0 0 1 0.25616,-0.360225 4.4027434,4.4027434 0 0 1 0.24015,-0.27217 c -0.504315,-0.06404 -0.992619,-0.136084 -1.600998,-0.136084 z m 4.298678,0.56035 h 1.024638 v 2.049276 h 2.041272 v 1.016634 h -3.06591 v -3.057906 z"
       style="color:#dfdfdf;fill:#e6e6e6;stroke-width:1.16872835"
       inkscape:connector-curvature="0" />
  </g>
  <g
     id="user-identity">
    <rect
       y="0"
       x="0"
       height="22"
       width="22"
       id="rect4585"
       style="opacity:0.97000002;fill:none;fill-opacity:1;stroke:none" />
    <g
       id="g7"
       transform="matrix(1.1968455,0,0,1.1968455,1.4175554,-6.5900778)"
       style="fill:#e6e6e6;fill-opacity:0.98809521">
      <path
         id="path5"
         d="m 8,8 a 3,3 0 1 1 0,6 3,3 0 0 1 0,-6 z m 0,8 c 6,-0.01 6,4 6,4 v 1 H 2 v -1 c 0,0 0,-4 6,-4 z"
         inkscape:connector-curvature="0"
         style="color:#dfdfdf;fill:#e6e6e6;fill-opacity:0.98809521" />
    </g>
  </g>
</svg>
