<?xml version="1.0" encoding="UTF-8" standalone="no"?>
<svg
   xmlns:dc="http://purl.org/dc/elements/1.1/"
   xmlns:cc="http://creativecommons.org/ns#"
   xmlns:rdf="http://www.w3.org/1999/02/22-rdf-syntax-ns#"
   xmlns:svg="http://www.w3.org/2000/svg"
   xmlns="http://www.w3.org/2000/svg"
   xmlns:sodipodi="http://sodipodi.sourceforge.net/DTD/sodipodi-0.dtd"
   xmlns:inkscape="http://www.inkscape.org/namespaces/inkscape"
   version="1.1"
   id="svg2"
   viewBox="0 0 54 64"
   sodipodi:docname="view.svg"
   inkscape:version="0.92.4 (5da689c313, 2019-01-14)">
  <sodipodi:namedview
     pagecolor="#ffffff"
     bordercolor="#666666"
     borderopacity="1"
     objecttolerance="10"
     gridtolerance="10"
     guidetolerance="10"
     inkscape:pageopacity="0"
     inkscape:pageshadow="2"
     inkscape:window-width="1366"
     inkscape:window-height="717"
     id="namedview18"
     showgrid="false"
     inkscape:zoom="4.1015625"
     inkscape:cx="27"
     inkscape:cy="32"
     inkscape:window-x="0"
     inkscape:window-y="25"
     inkscape:window-maximized="1"
     inkscape:current-layer="svg2" />
  <metadata
     id="metadata22">
    <rdf:RDF>
      <cc:Work
         rdf:about="">
        <dc:format>image/svg+xml</dc:format>
        <dc:type
           rdf:resource="http://purl.org/dc/dcmitype/StillImage" />
        <dc:title></dc:title>
      </cc:Work>
    </rdf:RDF>
  </metadata>
  <defs
     id="defs3615">
    <style
       type="text/css"
       id="current-color-scheme">
      .ColorScheme-Text {
        color:#31363b;
      }
      .ColorScheme-Background{
        color:#E9E8E8;
      }
      .ColorScheme-ViewText {
        color:#31363b;
      }
      .ColorScheme-ViewBackground{
        color:#ffffff;
      }
      .ColorScheme-ViewHover {
        color:#000000;
      }
      .ColorScheme-ViewFocus{
        color:#5a5a5a;
      }
      .ColorScheme-ButtonText {
        color:#31363b;
      }
      .ColorScheme-ButtonBackground{
        color:#E9E8E8;
      }
      .ColorScheme-ButtonHover {
        color:#1489ff;
      }
      .ColorScheme-ButtonFocus{
        color:#2B74C7;
      }
</style>
  </defs>
  <g
     id="view-refresh"
     transform="translate(21.896326,-0.10484845)">
    <path
       id="path2"
       d="M 24.466176,7.5292409 A 11.921656,11.921656 0 0 0 15.984996,4.0087517 C 9.3574094,4.0087517 4.01,9.3828318 4.01,16.010419 a 11.988332,11.988332 0 0 0 23.576608,3.000417 h -3.120432 a 8.9879156,8.9879156 0 0 1 -8.48118,6.000834 9.0012507,9.0012507 0 1 1 6.347549,-15.335464 l -4.840671,4.840671 H 28 V 4.0087517 Z"
       style="fill:#e6e6e6;stroke-width:1.33351874"
       inkscape:connector-curvature="0" />
    <path
       inkscape:connector-curvature="0"
       id="path14-3"
       d="M 0,0 V 32 H 32 V 0 Z"
       style="opacity:1;fill:none" />
  </g>
  <g
     transform="matrix(0.6875,0,0,0.6875,-15.00292,41.895139)"
     id="22-22-view-history">
    <rect
       style="opacity:0.01000001;fill:#000000;fill-opacity:0.00392157;stroke:none"
       id="rect2994-5"
       width="32"
       height="32"
       x="21.999998"
       y="1.754521e-05" />
    <path
       id="path2-36-3"
       d="M 37.981767,4.226771 A 11.754331,11.754331 0 0 0 26.265231,15.981102 11.754331,11.754331 0 0 0 37.981767,27.773228 11.754331,11.754331 0 0 0 49.811688,15.981102 11.754331,11.754331 0 0 0 37.981767,4.226771 Z m 0,1.738583 A 10.129134,10.129134 0 0 1 48.073105,16.094488 10.129134,10.129134 0 0 1 37.981767,26.223622 10.129134,10.129134 0 0 1 27.852633,16.094488 10.129134,10.129134 0 0 1 37.981767,5.965354 Z m 5.102362,4.459843 a 0.83149607,0.83149607 0 0 0 -0.113386,0 0.83149607,0.83149607 0 0 0 -0.415748,0.302362 l -4.459843,4.422047 -2.759054,-2.759055 a 0.83149607,0.83149607 0 1 0 -1.133859,1.133858 l 3.325984,3.36378 a 0.83149607,0.83149607 0 0 0 1.133858,0 l 5.026772,-5.026772 a 0.83149607,0.83149607 0 0 0 -0.642519,-1.43622 z"
       style="fill:#e6e6e6;stroke-width:3.77952766"
       inkscape:connector-curvature="0" />
  </g>
  <g
     transform="translate(-0.103672,31.895134)"
     id="view-history">
    <rect
       style="opacity:0.01000001;fill:#000000;fill-opacity:0.00392157;stroke:none"
       id="rect2994"
       width="32"
       height="32"
       x="21.999998"
       y="1.754521e-05" />
    <path
       id="path2-36"
       d="M 37.981767,4.226771 A 11.754331,11.754331 0 0 0 26.265231,15.981102 11.754331,11.754331 0 0 0 37.981767,27.773228 11.754331,11.754331 0 0 0 49.811688,15.981102 11.754331,11.754331 0 0 0 37.981767,4.226771 Z m 0,1.738583 A 10.129134,10.129134 0 0 1 48.073105,16.094488 10.129134,10.129134 0 0 1 37.981767,26.223622 10.129134,10.129134 0 0 1 27.852633,16.094488 10.129134,10.129134 0 0 1 37.981767,5.965354 Z m 5.102362,4.459843 a 0.83149607,0.83149607 0 0 0 -0.113386,0 0.83149607,0.83149607 0 0 0 -0.415748,0.302362 l -4.459843,4.422047 -2.759054,-2.759055 a 0.83149607,0.83149607 0 1 0 -1.133859,1.133858 l 3.325984,3.36378 a 0.83149607,0.83149607 0 0 0 1.133858,0 l 5.026772,-5.026772 a 0.83149607,0.83149607 0 0 0 -0.642519,-1.43622 z"
       style="fill:#e6e6e6;stroke-width:3.77952766"
       inkscape:connector-curvature="0" />
  </g>
  <g
     id="22-22-view-refresh"
     transform="matrix(0.6875,0,0,0.6875,-0.004777,1.92245)">
    <path
       id="path2-7"
       d="M 24.466176,7.5292409 A 11.921656,11.921656 0 0 0 15.984996,4.0087517 C 9.3574094,4.0087517 4.01,9.3828318 4.01,16.010419 a 11.988332,11.988332 0 0 0 23.576608,3.000417 h -3.120432 a 8.9879156,8.9879156 0 0 1 -8.48118,6.000834 9.0012507,9.0012507 0 1 1 6.347549,-15.335464 l -4.840671,4.840671 H 28 V 4.0087517 Z"
       style="fill:#e6e6e6;stroke-width:1.33351874"
       inkscape:connector-curvature="0" />
    <path
       inkscape:connector-curvature="0"
       id="path14-3-5"
       d="M 0,0 V 32 H 32 V 0 Z"
       style="opacity:1;fill:none" />
  </g>
</svg>
