<?xml version="1.0" encoding="UTF-8" standalone="no"?>
<svg
   xmlns:dc="http://purl.org/dc/elements/1.1/"
   xmlns:cc="http://creativecommons.org/ns#"
   xmlns:rdf="http://www.w3.org/1999/02/22-rdf-syntax-ns#"
   xmlns:svg="http://www.w3.org/2000/svg"
   xmlns="http://www.w3.org/2000/svg"
   xmlns:sodipodi="http://sodipodi.sourceforge.net/DTD/sodipodi-0.dtd"
   xmlns:inkscape="http://www.inkscape.org/namespaces/inkscape"
   width="24"
   height="16"
   id="svg3869"
   version="1.1"
   viewBox="0 0 24 16"
   inkscape:version="0.92.4 (5da689c313, 2019-01-14)"
   sodipodi:docname="window.svg">
  <sodipodi:namedview
     pagecolor="#ffffff"
     bordercolor="#666666"
     borderopacity="1"
     objecttolerance="10"
     gridtolerance="10"
     guidetolerance="10"
     inkscape:pageopacity="0"
     inkscape:pageshadow="2"
     inkscape:window-width="1366"
     inkscape:window-height="703"
     id="namedview17"
     showgrid="false"
     inkscape:zoom="16.09375"
     inkscape:cx="12"
     inkscape:cy="8"
     inkscape:window-x="0"
     inkscape:window-y="0"
     inkscape:window-maximized="1"
     inkscape:current-layer="svg3869"
     showguides="true"
     inkscape:guide-bbox="true">
    <sodipodi:guide
       position="16,8"
       orientation="0,1"
       id="guide839"
       inkscape:locked="false" />
    <sodipodi:guide
       position="16,8"
       orientation="1,0"
       id="guide841"
       inkscape:locked="false" />
  </sodipodi:namedview>
  <metadata
     id="metadata26">
    <rdf:RDF>
      <cc:Work
         rdf:about="">
        <dc:format>image/svg+xml</dc:format>
        <dc:type
           rdf:resource="http://purl.org/dc/dcmitype/StillImage" />
        <dc:title></dc:title>
      </cc:Work>
    </rdf:RDF>
  </metadata>
  <defs
     id="defs3871">
    <style
       type="text/css"
       id="current-color-scheme">
      .ColorScheme-Text {
        color:#31363b;
      }
      .ColorScheme-Background {
        color:#eff0f1;
      }
      .ColorScheme-Highlight {
        color:#3daee9;
      }
      .ColorScheme-ViewText {
        color:#31363b;
      }
      .ColorScheme-ViewBackground {
        color:#fcfcfc;
      }
      .ColorScheme-ViewHover {
        color:#93cee9;
      }
      .ColorScheme-ViewFocus{
        color:#3daee9;
      }
      .ColorScheme-ButtonText {
        color:#31363b;
      }
      .ColorScheme-ButtonBackground {
        color:#eff0f1;
      }
      .ColorScheme-ButtonHover {
        color:#93cee9;
      }
      .ColorScheme-ButtonFocus{
        color:#3daee9;
      }
      .ColorScheme-NegativeText {
        color:#da4453;
      }
      </style>
  </defs>
  <circle
     id="circle16"
     cx="-35.227272"
     cy="-759.21783"
     r="0"
     style="stroke-width:0.72727275" />
  <g
     id="edit-delete">
    <rect
       id="rect8"
       style="opacity:1;fill:none;stroke-width:0.72727275"
       width="16"
       height="16"
       x="0"
       y="-1.663924e-05" />
    <path
       id="path12"
       d="m 8,1.0000033 a 6.9999995,7.000007 0 0 0 -7,7 6.9999995,7.000007 0 0 0 7,6.9999997 6.9999995,7.000007 0 0 0 7,-6.9999997 6.9999995,7.000007 0 0 0 -7,-7 z m -2.881353,3.5 L 8,7.381356 10.881353,4.5000033 11.500007,5.1186506 8.618647,8.0000033 11.500007,10.881356 10.881353,11.500003 8,8.6186506 5.118647,11.500003 4.500007,10.881356 7.381353,8.0000033 4.500007,5.1186506 Z"
       style="color:#da4453;fill:#e6e6e6;fill-opacity:1;stroke:none;stroke-width:0.72727275"
       class="ColorScheme-NegativeText"
       inkscape:connector-curvature="0" />
  </g>
  <rect
     style="opacity:1;fill:none"
     y="8"
     x="16"
     height="8"
     width="8"
     id="rect15" />
  <rect
     y="8"
     x="16"
     height="8"
     width="8"
     id="rect3009"
     style="fill:#ffffff;fill-opacity:0;stroke:none;stroke-width:0.36363637" />
  <g
     id="window-pin">
    <path
       inkscape:connector-curvature="0"
       id="path831"
       d="m 21.127701,7.9957422 a 2.8765575,2.8765575 0 0 0 -2.876562,2.8765578 2.8765575,2.8765575 0 0 0 0.576434,1.724807 l -2.274279,2.274278 -0.57531,1.150632 1.15063,-0.57531 2.275402,-2.275403 a 2.8765575,2.8765575 0 0 0 1.723685,0.577555 2.8765575,2.8765575 0 0 0 2.876561,-2.876559 2.8765575,2.8765575 0 0 0 -2.876561,-2.8765578 z"
       style="color:#7b7c7e;fill:#e6e6e6;fill-opacity:1;stroke-width:0.57531118" />
  </g>
  <g
     id="window-unpin"
     transform="translate(6.442289,-1.150632)">
    <path
       inkscape:connector-curvature="0"
       id="path831-6"
       d="M 14.707428,1.1243572 A 2.8765575,2.8765575 0 0 0 11.830866,4.000915 2.8765575,2.8765575 0 0 0 12.4073,5.725722 L 10.133021,8 9.5577112,9.150632 10.708341,8.575322 12.983743,6.299919 a 2.8765575,2.8765575 0 0 0 1.723685,0.577555 2.8765575,2.8765575 0 0 0 2.876561,-2.876559 2.8765575,2.8765575 0 0 0 -2.876561,-2.8765578 z"
       style="color:#7b7c7e;fill:#e6e6e6;fill-opacity:1;stroke-width:0.57531118" />
    <path
       inkscape:connector-curvature="0"
       id="path831-6-7"
       d="M 14.707428,1.124357 A 2.8765575,2.8765575 0 0 0 11.830866,4.0009148 2.8765575,2.8765575 0 0 0 12.4073,5.725722 L 10.133021,8 9.557711,9.150632 10.708341,8.575322 12.983743,6.299919 A 2.8765575,2.8765575 0 0 0 14.707428,6.877474 2.8765575,2.8765575 0 0 0 17.583989,4.0009148 2.8765575,2.8765575 0 0 0 14.707428,1.124357 Z"
       style="color:#7b7c7e;opacity:0.5;fill:#ffffff;fill-opacity:1;stroke-width:0.57531118" />
  </g>
  <g
     transform="translate(-28,18.999985)"
     id="window-list">
    <rect
       style="opacity:0.01000001;fill:#000000;fill-opacity:0.00392157;stroke:none"
       id="rect2994"
       width="32"
       height="32"
       x="21.999998"
       y="1.754521e-05" />
    <path
       inkscape:connector-curvature="0"
       id="path822"
       d="m 44.964844,3.9980469 a 4.999989,4.9999843 0 0 0 -5,5 4.999989,4.9999843 0 0 0 5,5.0000001 4.999989,4.9999843 0 0 0 5,-5.0000001 4.999989,4.9999843 0 0 0 -5,-5 z M 31,4 a 4.999989,4.9999843 0 0 0 -5,5 4.999989,4.9999843 0 0 0 5,5 4.999989,4.9999843 0 0 0 5,-5 4.999989,4.9999843 0 0 0 -5,-5 z M 44.964844,5.1015625 A 3.896143,3.8961391 0 0 1 48.861328,8.9980469 3.896143,3.8961391 0 0 1 44.964844,12.894531 3.896143,3.8961391 0 0 1 41.068359,8.9980469 3.896143,3.8961391 0 0 1 44.964844,5.1015625 Z M 31,5.1035156 A 3.896143,3.8961391 0 0 1 34.896484,9 3.896143,3.8961391 0 0 1 31,12.896484 3.896143,3.8961391 0 0 1 27.103516,9 3.896143,3.8961391 0 0 1 31,5.1035156 Z M 30.998,17.964844 a 4.999989,4.9999843 0 0 0 -5,5 4.999989,4.9999843 0 0 0 5,5 4.999989,4.9999843 0 0 0 5,-5 4.999989,4.9999843 0 0 0 -5,-5 z m 13.966797,0 a 4.999989,4.9999843 0 0 0 -5,5 4.999989,4.9999843 0 0 0 5,5 4.999989,4.9999843 0 0 0 5,-5 4.999989,4.9999843 0 0 0 -5,-5 z M 30.998,19.068359 A 3.896143,3.8961391 0 0 1 34.894484,22.964844 3.896143,3.8961391 0 0 1 30.998,26.861328 3.896143,3.8961391 0 0 1 27.101515,22.964844 3.896143,3.8961391 0 0 1 30.998,19.068359 Z m 13.966797,0 a 3.896143,3.8961391 0 0 1 3.896484,3.896485 3.896143,3.8961391 0 0 1 -3.896484,3.896484 3.896143,3.8961391 0 0 1 -3.896485,-3.896484 3.896143,3.8961391 0 0 1 3.896485,-3.896485 z"
       style="opacity:1;fill:#e6e6e6;fill-opacity:1;fill-rule:evenodd;stroke:none;stroke-width:0.60000002;stroke-linejoin:miter;stroke-miterlimit:4;stroke-dasharray:none;stroke-opacity:1" />
  </g>
</svg>
