<?xml version="1.0" encoding="UTF-8" standalone="no"?>
<!-- Created with Inkscape (http://www.inkscape.org/) -->

<svg
   xmlns:dc="http://purl.org/dc/elements/1.1/"
   xmlns:cc="http://creativecommons.org/ns#"
   xmlns:rdf="http://www.w3.org/1999/02/22-rdf-syntax-ns#"
   xmlns:svg="http://www.w3.org/2000/svg"
   xmlns="http://www.w3.org/2000/svg"
   xmlns:sodipodi="http://sodipodi.sourceforge.net/DTD/sodipodi-0.dtd"
   xmlns:inkscape="http://www.inkscape.org/namespaces/inkscape"
   width="100"
   height="100"
   id="svg2"
   sodipodi:version="0.32"
   inkscape:version="0.92.4 (5da689c313, 2019-01-14)"
   sodipodi:docname="busywidget.svg"
   inkscape:output_extension="org.inkscape.output.svgz.inkscape"
   version="1.0">
  <sodipodi:namedview
     id="base"
     pagecolor="#ffffff"
     bordercolor="#666666"
     borderopacity="1.0"
     gridtolerance="10000"
     guidetolerance="10"
     objecttolerance="10"
     inkscape:pageopacity="1"
     inkscape:pageshadow="2"
     inkscape:zoom="2.3140111"
     inkscape:cx="122.5"
     inkscape:cy="79.532332"
     inkscape:document-units="px"
     inkscape:current-layer="layer1"
     showgrid="true"
     inkscape:window-width="1366"
     inkscape:window-height="708"
     inkscape:window-x="0"
     inkscape:window-y="0"
     inkscape:window-maximized="1" />
  <defs
     id="defs4">
    <style
       type="text/css"
       id="current-color-scheme">
      .ColorScheme-Text {
        color:#00ff00;
      }
      .ColorScheme-Background {
        color:#ff0000;
      }
      .ColorScheme-Highlight {
        color:#0000ff;
      }
      .ColorScheme-ButtonHover {
        color:#ffff00;
      }
      .ColorScheme-ButtonFocus{
        color:#ff00ff;
      }
</style>
  </defs>
  <metadata
     id="metadata7">
    <rdf:RDF>
      <cc:Work
         rdf:about="">
        <dc:format>image/svg+xml</dc:format>
        <dc:type
           rdf:resource="http://purl.org/dc/dcmitype/StillImage" />
        <dc:title></dc:title>
      </cc:Work>
    </rdf:RDF>
  </metadata>
  <g
     inkscape:label="Layer 1"
     inkscape:groupmode="layer"
     id="layer1">
    <rect
       style="fill:#60a500;fill-opacity:1;fill-rule:nonzero;stroke:none"
       id="hint-rotation-angle"
       width="15"
       height="8.5051775"
       x="13.061523"
       y="120" />
    <g
       id="busywidget">
      <rect
         style="fill:#000000;fill-opacity:0;stroke:none"
         id="rect3600"
         width="130"
         height="130"
         x="-15"
         y="-15" />
      <g
         style="fill:currentColor;fill-opacity:1"
         id="g3608"
         transform="matrix(1.0315683,0,0,1.0089619,123.68761,18.326753)">
        <path
           sodipodi:nodetypes="ccccc"
           style="fill:currentColor;fill-opacity:1"
           d="m -71.432611,-18.163938 v 10.9022634 c 22.367168,0 39.745315,18.1292576 39.745315,38.6535906 h 8.724571 c 0,-28.0769293 -22.235789,-49.555854 -48.469886,-49.555854 z"
           id="path2840"
           class="ColorScheme-Text"
           inkscape:connector-curvature="0" />
        <path
           sodipodi:nodetypes="ccccc"
           style="fill:currentColor;fill-opacity:1"
           d="m -119.9025,31.391916 c 0,28.076932 22.235792,49.555915 48.469889,49.555915 V 70.045506 c -22.367167,0 -39.745299,-18.129257 -39.745299,-38.65359 z"
           id="path3616"
           class="ColorScheme-Text"
           inkscape:connector-curvature="0" />
      </g>
    </g>
    <g
       id="stopped">
      <rect
         y="-15"
         x="130"
         height="130"
         width="130"
         id="rect3616"
         style="fill:#000000;fill-opacity:0;stroke:none" />
      <path
         sodipodi:nodetypes="csssccsssc"
         id="path3807"
         d="M 196.981,0 C 170.52381,0 147,21.71925 147,50.034944 147,78.350637 170.52381,99.9546 196.981,99.9546 223.43818,99.9546 246,78.350637 246,50.034944 246,21.71925 223.43818,0 196.981,0 Z m 0,11 C 219.53837,11 237,29.336075 237,50.034944 237,70.733812 219.53837,89 196.981,89 174.42363,89 157,70.733812 157,50.034944 157,29.336075 174.42363,11 196.981,11 Z"
         style="fill:currentColor;fill-opacity:1"
         class="ColorScheme-Text"
         inkscape:connector-curvature="0" />
    </g>
    <path
       style="font-style:normal;font-variant:normal;font-weight:normal;font-stretch:normal;font-size:16px;line-height:1.25;font-family:'Abyssinica SIL';-inkscape-font-specification:'Abyssinica SIL';letter-spacing:0px;word-spacing:0px;fill:#ffffff;fill-opacity:1;stroke:none;stroke-width:1.54541612"
       d="m 94.197222,-87.569841 c -0.189235,0 -0.367008,0.04454 -0.534213,0.133572 -0.167097,0.08031 -0.316343,0.195997 -0.446986,0.347456 -0.123538,0.151459 -0.221726,0.32993 -0.294563,0.534847 -0.07284,0.205121 -0.108899,0.423378 -0.108899,0.655145 0,0.231772 0.03606,0.454627 0.108899,0.668544 0.07284,0.205121 0.170668,0.383311 0.294563,0.534846 0.130679,0.151459 0.279567,0.271727 0.446986,0.361163 0.167455,0.08903 0.345264,0.133572 0.534213,0.133572 0.189234,0 0.367079,-0.04454 0.534213,-0.133572 0.167097,-0.08904 0.312772,-0.209302 0.436096,-0.361163 0.123538,-0.151459 0.218155,-0.32993 0.283495,-0.534846 0.07284,-0.213884 0.108899,-0.436776 0.108899,-0.668544 0,-0.231771 -0.03606,-0.450133 -0.108899,-0.655145 -0.0657,-0.205122 -0.1596,-0.383311 -0.283495,-0.534847 -0.123538,-0.151459 -0.268856,-0.267546 -0.436096,-0.347456 -0.167098,-0.08904 -0.345264,-0.133572 -0.534213,-0.133572 z m 46.105458,2.005622 c -0.76315,0 -1.46817,0.160624 -2.11504,0.481341 -0.63961,0.320806 -1.19196,0.837894 -1.65712,1.551003 -0.45791,0.713104 -0.81767,1.649065 -1.07931,2.807853 -0.26172,1.149885 -0.3925,2.553833 -0.3925,4.211806 0,1.666884 0.13424,3.039625 0.40339,4.118189 0.26885,1.069657 0.62868,1.916495 1.07931,2.540436 0.45063,0.623974 0.97031,1.06075 1.55904,1.310364 0.5887,0.240494 1.20286,0.361163 1.84243,0.361163 0.63962,0 1.26102,-0.115685 1.86429,-0.347456 0.61051,-0.231771 1.1484,-0.588315 1.61352,-1.069657 0.46516,-0.481341 0.83946,-1.091962 1.12295,-1.831781 0.28314,-0.739859 0.42517,-1.617865 0.42517,-2.634053 0,-0.677443 -0.0657,-1.283613 -0.19637,-1.818424 -0.12354,-0.534846 -0.29421,-1.002831 -0.5124,-1.403945 -0.21102,-0.410025 -0.46152,-0.75322 -0.75223,-1.029549 -0.28313,-0.285393 -0.58509,-0.516999 -0.9049,-0.695257 -0.31991,-0.178472 -0.64686,-0.307501 -0.98119,-0.387773 -0.3342,-0.08031 -0.65415,-0.120267 -0.95939,-0.120267 -0.39975,0 -0.76683,0.04454 -1.10113,0.133572 -0.33419,0.08903 -0.63597,0.209301 -0.9049,0.361163 -0.26885,0.142696 -0.50511,0.312043 -0.70866,0.508096 -0.20352,0.195996 -0.37794,0.401118 -0.52325,0.615074 0.1089,-1.230108 0.2435,-2.228486 0.40335,-2.995063 0.16746,-0.766614 0.36705,-1.363833 0.59963,-1.791706 0.23243,-0.427832 0.50514,-0.717558 0.81767,-0.869102 0.31277,-0.151459 0.66503,-0.227189 1.0575,-0.227189 0.34169,0 0.62508,0.07115 0.85037,0.213884 0.2253,0.142697 0.40704,0.325388 0.54511,0.548204 0.13817,0.213884 0.23279,0.459077 0.28349,0.73541 0.0582,0.267546 0.0875,0.525903 0.0875,0.775477 h 2.36572 c 0,-0.570469 -0.0982,-1.100866 -0.29457,-1.591111 -0.19637,-0.490244 -0.47605,-0.918117 -0.83945,-1.283613 -0.3634,-0.365343 -0.7995,-0.650692 -1.30825,-0.855705 -0.50879,-0.213884 -1.07207,-0.320806 -1.68987,-0.320806 z m -24.60631,0.508096 c -0.0875,0.142696 -0.25422,0.343275 -0.50147,0.601676 -0.24708,0.258382 -0.52332,0.530357 -0.8286,0.815589 -0.30527,0.276309 -0.6214,0.539301 -0.94846,0.788879 -0.31991,0.249659 -0.60326,0.436776 -0.85037,0.561601 v 2.634017 c 0.21815,-0.08031 0.47244,-0.191816 0.76311,-0.334151 0.29064,-0.151459 0.58513,-0.316264 0.88312,-0.494739 0.29813,-0.187234 0.58145,-0.383271 0.85038,-0.588315 0.27599,-0.213884 0.50875,-0.427833 0.69774,-0.641789 v 13.531235 h 2.27856 v -16.873903 z m 12.88641,0 -5.69093,10.001325 v 3.262448 h 6.56312 v 3.610129 h 2.25675 v -3.610129 h 1.47181 v -2.446855 h -1.47181 v -10.816918 z m 24.11569,0 -5.69092,10.001325 v 3.262448 h 6.56311 v 3.610129 h 2.25675 v -3.610129 h 1.47178 v -2.446855 h -1.47178 v -10.816918 z m -23.2435,2.03234 v 8.784578 h -4.87329 z m 24.11569,0 v 8.784578 h -4.87332 z m -59.16628,1.310327 -2.747328,1.042947 v 0.90921 h 1.580787 v 12.154001 c 0,0.525943 -0.01785,1.025095 -0.05427,1.497529 -0.02856,0.481342 -0.08748,0.913664 -0.174595,1.296971 -0.07998,0.392194 -0.189235,0.726462 -0.327055,1.002831 -0.138176,0.285393 -0.309202,0.499148 -0.512361,0.641784 L 90,-65 c -0.108899,0.04454 -0.221726,0.106962 -0.338123,0.187234 -0.116397,0.08903 -0.218155,0.195997 -0.305274,0.320806 -0.09462,0.133572 -0.170669,0.285433 -0.228867,0.454627 -0.0582,0.178109 -0.08748,0.383271 -0.08748,0.61503 0,0.258381 0.04713,0.481382 0.141747,0.668543 0.08748,0.195997 0.211014,0.356581 0.37065,0.481342 0.152458,0.124809 0.330625,0.213884 0.534212,0.267545 0.203517,0.06239 0.421565,0.09362 0.654145,0.09362 0.705023,0 1.380948,-0.209301 2.027809,-0.628431 0.654144,-0.410062 1.210172,-1.047396 1.668048,-1.912041 0.189235,-0.365343 0.341694,-0.779971 0.457877,-1.243461 0.116397,-0.463535 0.203516,-0.940423 0.261714,-1.430667 0.0657,-0.490286 0.1089,-0.976073 0.130679,-1.457418 0.02142,-0.490285 0.03213,-0.940418 0.03213,-1.350476 v -11.779641 z m 6.13795,0 -2.747367,1.069658 v 0.935968 h 1.559007 v 7.420777 c 0,0.775518 0.06927,1.444025 0.207087,2.005626 0.145318,0.552662 0.348834,1.011698 0.610513,1.377194 0.26886,0.356581 0.59238,0.619488 0.97031,0.788879 0.38518,0.178109 0.81764,0.267546 1.29733,0.267546 0.32705,0 0.66143,-0.06697 1.00301,-0.200539 0.34884,-0.12485 0.6796,-0.280851 0.99213,-0.467984 0.31991,-0.195997 0.61415,-0.405572 0.88308,-0.628432 0.276,-0.222647 0.50879,-0.423378 0.69774,-0.601673 v 1.564392 h 3.54318 v -1.069657 l -0.9812,-0.08031 c -0.13068,-0.01889 -0.24707,-0.08031 -0.34883,-0.187234 -0.0946,-0.106962 -0.14175,-0.245076 -0.14175,-0.414515 v -11.779641 h -0.91575 l -2.72558,1.069657 v 0.935964 h 1.56993 v 9.172339 c -0.13068,0.08031 -0.29064,0.169347 -0.47969,0.267546 -0.18174,0.08904 -0.37797,0.178471 -0.58874,0.267546 -0.21065,0.08031 -0.43245,0.146877 -0.66503,0.200539 -0.23244,0.0533 -0.46152,0.08031 -0.68685,0.08031 -0.39247,0 -0.7268,-0.06697 -1.00302,-0.200539 -0.27599,-0.142697 -0.5015,-0.347456 -0.67588,-0.61507 -0.16746,-0.267546 -0.29064,-0.59277 -0.37069,-0.97604 -0.0728,-0.383311 -0.1089,-0.81563 -0.1089,-1.296971 v -8.90495 z m 39.49871,3.971136 c 0.35597,0 0.69045,0.10238 1.00301,0.307501 0.31277,0.195996 0.58145,0.467948 0.80675,0.815597 0.23243,0.338693 0.41424,0.739855 0.5451,1.203386 0.13818,0.463494 0.20709,0.958229 0.20709,1.484136 0,0.525943 -0.0693,1.025087 -0.20709,1.497525 -0.13068,0.463531 -0.31277,0.869102 -0.5451,1.216751 -0.2253,0.347818 -0.49423,0.623974 -0.80675,0.828987 -0.31277,0.195996 -0.6469,0.294196 -1.00301,0.294196 -0.34884,0 -0.67957,-0.0982 -0.99213,-0.294196 -0.31277,-0.205122 -0.58873,-0.481342 -0.82856,-0.828987 -0.23244,-0.347456 -0.41792,-0.75322 -0.55603,-1.216751 -0.13068,-0.472438 -0.19637,-0.971582 -0.19637,-1.497525 0,-0.525907 0.0657,-1.020642 0.19637,-1.484136 0.13818,-0.463531 0.32349,-0.864649 0.55603,-1.203386 0.23994,-0.347456 0.51604,-0.619528 0.82856,-0.815597 0.31277,-0.205121 0.64326,-0.307501 0.99213,-0.307501 z"
       id="text843"
       inkscape:connector-curvature="0" />
  </g>
</svg>
