/* XPM */
static char * shade_toggled_prelight_xpm[] = {
"32 32 32 1",
" 	c None",
".	c #365970",
"+	c #204760",
"@	c #234F67",
"#	c #2A6079",
"$	c #2E6B84",
"%	c #31718A",
"&	c #2A6078",
"*	c #234E67",
"=	c #214861",
"-	c #31738C",
";	c #31728C",
">	c #2B617A",
",	c #2C6880",
"'	c #2C6780",
")	c #2A617A",
"!	c #234E68",
"~	c #295D76",
"{	c #204861",
"]	c #2B637C",
"^	c #2B647D",
"/	c #285C74",
"(	c #2A5F79",
"_	c #2E6B85",
":	c #2E6C84",
"<	c #307189",
"[	c #295E78",
"}	c #307089",
"|	c #30708A",
"1	c #295F79",
"2	c #2D6781",
"3	c #2D6780",
"................................",
"++++++++++++++++++++++++++++++++",
"++++++++++++++++++++++++++++++++",
"++++++++++++++++++++++++++++++++",
"++++++++++++++++++++++++++++++++",
"++++++++++++++++++++++++++++++++",
"++++++++++++++++++++++++++++++++",
"++++++++++++++++++++++++++++++++",
"++++++++++++@#$%%$&*++++++++++++",
"++++++++++=#-------;>=++++++++++",
"+++++++++=,----------'=+++++++++",
"+++++++++)------------)+++++++++",
"++++++++@--$--------$-;!++++++++",
"++++++++#-~{]------^+/-(++++++++",
"++++++++_-~++^----^++~-:++++++++",
"++++++++<--[+{]--^++~--}++++++++",
"++++++++}---[+{]^++~---|++++++++",
"++++++++_----~++++~----:++++++++",
"++++++++&-----[++~-----1++++++++",
"++++++++*;-----~~-----;!++++++++",
"+++++++++>------------#+++++++++",
"+++++++++=2----------3{+++++++++",
"++++++++++=);------;#{++++++++++",
"++++++++++++!(:<<:1!++++++++++++",
"++++++++++++++++++++++++++++++++",
"++++++++++++++++++++++++++++++++",
"++++++++++++++++++++++++++++++++",
"++++++++++++++++++++++++++++++++",
"++++++++++++++++++++++++++++++++",
"++++++++++++++++++++++++++++++++",
"++++++++++++++++++++++++++++++++",
"++++++++++++++++++++++++++++++++"};
