<?xml version="1.0" encoding="UTF-8" standalone="no"?>
<svg
   xmlns:dc="http://purl.org/dc/elements/1.1/"
   xmlns:cc="http://creativecommons.org/ns#"
   xmlns:rdf="http://www.w3.org/1999/02/22-rdf-syntax-ns#"
   xmlns:svg="http://www.w3.org/2000/svg"
   xmlns="http://www.w3.org/2000/svg"
   xmlns:sodipodi="http://sodipodi.sourceforge.net/DTD/sodipodi-0.dtd"
   xmlns:inkscape="http://www.inkscape.org/namespaces/inkscape"
   id="svg4306"
   width="22"
   height="22"
   version="1.1"
   style="enable-background:new"
   sodipodi:docname="close.svg"
   inkscape:version="0.92.4 (5da689c313, 2019-01-14)">
  <metadata
     id="metadata24">
    <rdf:RDF>
      <cc:Work
         rdf:about="">
        <dc:format>image/svg+xml</dc:format>
        <dc:type
           rdf:resource="http://purl.org/dc/dcmitype/StillImage" />
        <dc:title></dc:title>
      </cc:Work>
    </rdf:RDF>
  </metadata>
  <defs
     id="defs22" />
  <style
     type="text/css"
     id="current-color-scheme">
      .ColorScheme-Text {
        color:#31363b;
      }
      .ColorScheme-Background {
        color:#eff0f1;
      }
      .ColorScheme-Highlight {
        color:#3daee9;
      }

      </style>
  <sodipodi:namedview
     pagecolor="#ffffff"
     bordercolor="#666666"
     borderopacity="1"
     objecttolerance="10"
     gridtolerance="10"
     guidetolerance="10"
     inkscape:pageopacity="1"
     inkscape:pageshadow="2"
     inkscape:window-width="1366"
     inkscape:window-height="707"
     id="namedview20"
     showgrid="true"
     inkscape:zoom="2.0690908"
     inkscape:cx="-21.166993"
     inkscape:cy="11"
     inkscape:window-x="0"
     inkscape:window-y="0"
     inkscape:window-maximized="1"
     inkscape:current-layer="svg4306"
     showguides="true"
     inkscape:guide-bbox="true" />
  <g
     id="hover-center"
     style="fill:currentColor;fill-opacity:1">
    <path
       id="path840"
       class="ColorScheme-Text"
       d="M 11,0.04296875 C 4.9482896,0.04296875 0.04296875,4.9484238 0.04296875,11 0.04296875,17.051809 4.9482896,21.957031 11,21.957031 17.051736,21.957031 21.957031,17.051809 21.957031,11 21.957031,4.9484238 17.051736,0.04296875 11,0.04296875 Z M 5.8789062,4.0351562 11,9.1582031 16.121094,4.0351562 17.964844,5.8789062 12.841797,11 l 5.123047,5.121094 -1.84375,1.84375 L 11,12.841797 5.8789062,17.964844 4.0351562,16.121094 9.1582031,11 4.0351562,5.8789062 Z"
       style="fill:currentColor;fill-opacity:1;fill-rule:evenodd;stroke:none;stroke-width:0.02563604;enable-background:new"
       inkscape:connector-curvature="0" />
  </g>
  <g
     id="active-center"
     transform="translate(-22)">
    <path
       inkscape:connector-curvature="0"
       d="m 11.000041,21.95759 c 6.051736,0 10.957538,-4.905876 10.957538,-10.957685 0,-6.0515762 -4.905802,-10.95748298 -10.957538,-10.95748298 -6.0517104,0 -10.95762989,4.90590678 -10.95762989,10.95748298 0,6.051809 4.90591949,10.957685 10.95762989,10.957685"
       style="fill:#000000;fill-opacity:0;fill-rule:evenodd;stroke:none;stroke-width:0.02563604;enable-background:new"
       id="path14-3" />
    <path
       id="path840-6"
       class="ColorScheme-Text"
       d="M 5.8789062,4.0351562 11,9.1582031 16.121094,4.0351562 17.964844,5.8789062 12.841797,11 l 5.123047,5.121094 -1.84375,1.84375 L 11,12.841797 5.8789062,17.964844 4.0351562,16.121094 9.1582031,11 4.0351562,5.8789062 Z"
       style="fill:currentColor;fill-opacity:1;fill-rule:evenodd;stroke:none;stroke-width:0.02563604;enable-background:new"
       inkscape:connector-curvature="0" />
  </g>
  <g
     id="inactive-center"
     transform="translate(44)">
    <path
       inkscape:connector-curvature="0"
       d="m 11.000041,21.95759 c 6.051736,0 10.957538,-4.905876 10.957538,-10.957685 0,-6.0515762 -4.905802,-10.95748298 -10.957538,-10.95748298 -6.0517104,0 -10.95762989,4.90590678 -10.95762989,10.95748298 0,6.051809 4.90591949,10.957685 10.95762989,10.957685"
       style="fill:#000000;fill-opacity:0;fill-rule:evenodd;stroke:none;stroke-width:0.02563604;enable-background:new"
       id="path14-3-5" />
    <path
       id="path840-6-3"
       class="ColorScheme-Text"
       d="M 5.8789062,4.0351562 11,9.1582031 16.121094,4.0351562 17.964844,5.8789062 12.841797,11 l 5.123047,5.121094 -1.84375,1.84375 L 11,12.841797 5.8789062,17.964844 4.0351562,16.121094 9.1582031,11 4.0351562,5.8789062 Z"
       style="fill:currentColor;fill-opacity:0.5;fill-rule:evenodd;stroke:none;stroke-width:0.02563604;enable-background:new"
       inkscape:connector-curvature="0" />
  </g>
  <g
     id="pressed-center"
     style="fill:currentColor;fill-opacity:1"
     inkscape:label="#pressed-center">
    <path
       inkscape:connector-curvature="0"
       class="ColorScheme-Text"
       d="m 33.000041,21.95759 c 6.051736,0 10.957538,-4.905876 10.957538,-10.957685 0,-6.0515762 -4.905802,-10.95748298 -10.957538,-10.95748298 -6.05171,0 -10.95763,4.90590678 -10.95763,10.95748298 0,6.051809 4.90592,10.957685 10.95763,10.957685"
       style="fill:currentColor;fill-opacity:1;fill-rule:evenodd;stroke:none;stroke-width:0.02563604;enable-background:new;opacity:0"
       id="path14-3-5-6" />
    <path
       id="path840-6-3-2"
       class="ColorScheme-Text"
       d="M 27.878906,4.0351562 33,9.1582031 38.121094,4.0351562 39.964844,5.8789062 34.841797,11 l 5.123047,5.121094 -1.84375,1.84375 L 33,12.841797 27.878906,17.964844 26.035156,16.121094 31.158203,11 26.035156,5.8789062 Z"
       style="fill:currentColor;fill-opacity:1;fill-rule:evenodd;stroke:none;stroke-width:0.02563604;enable-background:new"
       inkscape:connector-curvature="0" />
  </g>
  <g
     style="enable-background:new"
     id="deactivated-center"
     transform="translate(66)">
    <path
       inkscape:connector-curvature="0"
       d="m 11.000041,21.95759 c 6.051736,0 10.957538,-4.905876 10.957538,-10.957685 0,-6.0515762 -4.905802,-10.95748298 -10.957538,-10.95748298 -6.0517104,0 -10.95762989,4.90590678 -10.95762989,10.95748298 0,6.051809 4.90591949,10.957685 10.95762989,10.957685"
       style="fill:#000000;fill-opacity:0;fill-rule:evenodd;stroke:none;stroke-width:0.02563604;enable-background:new"
       id="path14-3-5-1" />
    <path
       id="path840-6-3-27"
       class="ColorScheme-Text"
       d="M 5.8789062,4.0351562 11,9.1582031 16.121094,4.0351562 17.964844,5.8789062 12.841797,11 l 5.123047,5.121094 -1.84375,1.84375 L 11,12.841797 5.8789062,17.964844 4.0351562,16.121094 9.1582031,11 4.0351562,5.8789062 Z"
       style="fill:currentColor;fill-opacity:0.5;fill-rule:evenodd;stroke:none;stroke-width:0.02563604;enable-background:new"
       inkscape:connector-curvature="0" />
  </g>
  <path
     style="font-style:normal;font-variant:normal;font-weight:normal;font-stretch:normal;font-size:16px;line-height:1.25;font-family:'Abyssinica SIL';-inkscape-font-specification:'Abyssinica SIL';letter-spacing:0px;word-spacing:0px;fill:#ffffff;fill-opacity:1;stroke:none"
     d="M 3.3964844 -57.957031 C 3.2610677 -57.957031 3.1334635 -57.93099 3.0136719 -57.878906 C 2.8938802 -57.832031 2.7871094 -57.764323 2.6933594 -57.675781 C 2.6048177 -57.58724 2.5345052 -57.483073 2.4824219 -57.363281 C 2.4303385 -57.24349 2.4042969 -57.115885 2.4042969 -56.980469 C 2.4042969 -56.845052 2.4303385 -56.714844 2.4824219 -56.589844 C 2.5345052 -56.470052 2.6048177 -56.365885 2.6933594 -56.277344 C 2.7871094 -56.188802 2.8938802 -56.11849 3.0136719 -56.066406 C 3.1334635 -56.014323 3.2610677 -55.988281 3.3964844 -55.988281 C 3.531901 -55.988281 3.6595052 -56.014323 3.7792969 -56.066406 C 3.8990885 -56.11849 4.0032552 -56.188802 4.0917969 -56.277344 C 4.1803385 -56.365885 4.2480469 -56.470052 4.2949219 -56.589844 C 4.3470052 -56.714844 4.3730469 -56.845052 4.3730469 -56.980469 C 4.3730469 -57.115885 4.3470052 -57.24349 4.2949219 -57.363281 C 4.2480469 -57.483073 4.1803385 -57.58724 4.0917969 -57.675781 C 4.0032552 -57.764323 3.8990885 -57.832031 3.7792969 -57.878906 C 3.6595052 -57.93099 3.531901 -57.957031 3.3964844 -57.957031 z M 36.435547 -56.785156 C 35.888672 -56.785156 35.383464 -56.691406 34.919922 -56.503906 C 34.461589 -56.316406 34.065755 -56.014323 33.732422 -55.597656 C 33.404297 -55.18099 33.146484 -54.634115 32.958984 -53.957031 C 32.771484 -53.285156 32.677734 -52.464844 32.677734 -51.496094 C 32.677734 -50.522135 32.774089 -49.720052 32.966797 -49.089844 C 33.159505 -48.464844 33.417318 -47.970052 33.740234 -47.605469 C 34.063151 -47.240885 34.435547 -46.985677 34.857422 -46.839844 C 35.279297 -46.699219 35.719401 -46.628906 36.177734 -46.628906 C 36.636068 -46.628906 37.08138 -46.696615 37.513672 -46.832031 C 37.951172 -46.967448 38.336589 -47.175781 38.669922 -47.457031 C 39.003255 -47.738281 39.271484 -48.095052 39.474609 -48.527344 C 39.677734 -48.959635 39.779297 -49.472656 39.779297 -50.066406 C 39.779297 -50.46224 39.732422 -50.816406 39.638672 -51.128906 C 39.55013 -51.441406 39.427734 -51.714844 39.271484 -51.949219 C 39.120443 -52.188802 38.940755 -52.389323 38.732422 -52.550781 C 38.529297 -52.717448 38.313151 -52.852865 38.083984 -52.957031 C 37.854818 -53.061198 37.620443 -53.136719 37.380859 -53.183594 C 37.141276 -53.230469 36.912109 -53.253906 36.693359 -53.253906 C 36.406901 -53.253906 36.14388 -53.227865 35.904297 -53.175781 C 35.664714 -53.123698 35.448568 -53.053385 35.255859 -52.964844 C 35.063151 -52.88151 34.89388 -52.782552 34.748047 -52.667969 C 34.602214 -52.553385 34.477214 -52.433594 34.373047 -52.308594 C 34.451172 -53.027344 34.547526 -53.610677 34.662109 -54.058594 C 34.781901 -54.50651 34.92513 -54.855469 35.091797 -55.105469 C 35.258464 -55.355469 35.453776 -55.52474 35.677734 -55.613281 C 35.901693 -55.701823 36.154297 -55.746094 36.435547 -55.746094 C 36.680339 -55.746094 36.883464 -55.704427 37.044922 -55.621094 C 37.20638 -55.53776 37.336589 -55.43099 37.435547 -55.300781 C 37.534505 -55.175781 37.602214 -55.032552 37.638672 -54.871094 C 37.680339 -54.714844 37.701172 -54.563802 37.701172 -54.417969 L 39.396484 -54.417969 C 39.396484 -54.751302 39.326172 -55.061198 39.185547 -55.347656 C 39.044922 -55.634115 38.844401 -55.884115 38.583984 -56.097656 C 38.323568 -56.311198 38.011068 -56.477865 37.646484 -56.597656 C 37.281901 -56.722656 36.878255 -56.785156 36.435547 -56.785156 z M 18.802734 -56.488281 C 18.740234 -56.404948 18.620443 -56.28776 18.443359 -56.136719 C 18.266276 -55.985677 18.068359 -55.826823 17.849609 -55.660156 C 17.630859 -55.498698 17.404297 -55.345052 17.169922 -55.199219 C 16.940755 -55.053385 16.73763 -54.94401 16.560547 -54.871094 L 16.560547 -53.332031 C 16.716797 -53.378906 16.899089 -53.44401 17.107422 -53.527344 C 17.315755 -53.615885 17.526693 -53.71224 17.740234 -53.816406 C 17.953776 -53.925781 18.156901 -54.040365 18.349609 -54.160156 C 18.547526 -54.285156 18.714193 -54.410156 18.849609 -54.535156 L 18.849609 -46.628906 L 20.482422 -46.628906 L 20.482422 -56.488281 L 18.802734 -56.488281 z M 28.037109 -56.488281 L 23.958984 -50.644531 L 23.958984 -48.738281 L 28.662109 -48.738281 L 28.662109 -46.628906 L 30.279297 -46.628906 L 30.279297 -48.738281 L 31.333984 -48.738281 L 31.333984 -50.167969 L 30.279297 -50.167969 L 30.279297 -56.488281 L 28.037109 -56.488281 z M 45.318359 -56.488281 L 41.240234 -50.644531 L 41.240234 -48.738281 L 45.943359 -48.738281 L 45.943359 -46.628906 L 47.560547 -46.628906 L 47.560547 -48.738281 L 48.615234 -48.738281 L 48.615234 -50.167969 L 47.560547 -50.167969 L 47.560547 -56.488281 L 45.318359 -56.488281 z M 28.662109 -55.300781 L 28.662109 -50.167969 L 25.169922 -50.167969 L 28.662109 -55.300781 z M 45.943359 -55.300781 L 45.943359 -50.167969 L 42.451172 -50.167969 L 45.943359 -55.300781 z M 3.5449219 -54.535156 L 1.5761719 -53.925781 L 1.5761719 -53.394531 L 2.7089844 -53.394531 L 2.7089844 -46.292969 C 2.7089844 -45.985677 2.6959635 -45.69401 2.6699219 -45.417969 C 2.6490885 -45.136719 2.6074219 -44.884115 2.5449219 -44.660156 C 2.4876302 -44.43099 2.4095052 -44.235677 2.3105469 -44.074219 C 2.2115885 -43.907552 2.0891927 -43.782552 1.9433594 -43.699219 L 0.38867188 -44.769531 C 0.31054688 -44.74349 0.22981771 -44.707031 0.14648438 -44.660156 C 0.063151042 -44.608073 -0.009765625 -44.545573 -0.072265625 -44.472656 C -0.13997396 -44.394531 -0.19466146 -44.30599 -0.23632812 -44.207031 C -0.27799479 -44.102865 -0.29882812 -43.983073 -0.29882812 -43.847656 C -0.29882812 -43.696615 -0.26497396 -43.566406 -0.19726562 -43.457031 C -0.13476562 -43.342448 -0.046223958 -43.248698 0.068359375 -43.175781 C 0.17773437 -43.102865 0.30533854 -43.050781 0.45117188 -43.019531 C 0.59700521 -42.983073 0.75325521 -42.964844 0.91992188 -42.964844 C 1.4251302 -42.964844 1.9095052 -43.08724 2.3730469 -43.332031 C 2.8417969 -43.571615 3.2402344 -43.94401 3.5683594 -44.449219 C 3.703776 -44.66276 3.813151 -44.904948 3.8964844 -45.175781 C 3.9798177 -45.446615 4.0423177 -45.72526 4.0839844 -46.011719 C 4.1308594 -46.298177 4.1621094 -46.582031 4.1777344 -46.863281 C 4.1933594 -47.14974 4.2011719 -47.41276 4.2011719 -47.652344 L 4.2011719 -54.535156 L 3.5449219 -54.535156 z M 7.9433594 -54.535156 L 5.9746094 -53.910156 L 5.9746094 -53.363281 L 7.0917969 -53.363281 L 7.0917969 -49.027344 C 7.0917969 -48.574219 7.141276 -48.183594 7.2402344 -47.855469 C 7.344401 -47.532552 7.4902344 -47.264323 7.6777344 -47.050781 C 7.8704427 -46.842448 8.1022135 -46.688802 8.3730469 -46.589844 C 8.6490885 -46.485677 8.9589844 -46.433594 9.3027344 -46.433594 C 9.5371094 -46.433594 9.7766927 -46.472656 10.021484 -46.550781 C 10.271484 -46.623698 10.508464 -46.714844 10.732422 -46.824219 C 10.961589 -46.938802 11.172526 -47.061198 11.365234 -47.191406 C 11.563151 -47.321615 11.729818 -47.438802 11.865234 -47.542969 L 11.865234 -46.628906 L 14.404297 -46.628906 L 14.404297 -47.253906 L 13.701172 -47.300781 C 13.607422 -47.311198 13.524089 -47.347656 13.451172 -47.410156 C 13.383464 -47.472656 13.349609 -47.553385 13.349609 -47.652344 L 13.349609 -54.535156 L 12.693359 -54.535156 L 10.740234 -53.910156 L 10.740234 -53.363281 L 11.865234 -53.363281 L 11.865234 -48.003906 C 11.771484 -47.957031 11.656901 -47.904948 11.521484 -47.847656 C 11.391276 -47.795573 11.250651 -47.74349 11.099609 -47.691406 C 10.948568 -47.644531 10.789714 -47.605469 10.623047 -47.574219 C 10.45638 -47.542969 10.292318 -47.527344 10.130859 -47.527344 C 9.8496094 -47.527344 9.610026 -47.566406 9.4121094 -47.644531 C 9.2141927 -47.727865 9.0527344 -47.847656 8.9277344 -48.003906 C 8.8079427 -48.160156 8.719401 -48.35026 8.6621094 -48.574219 C 8.610026 -48.798177 8.5839844 -49.050781 8.5839844 -49.332031 L 8.5839844 -54.535156 L 7.9433594 -54.535156 z M 36.248047 -52.214844 C 36.503255 -52.214844 36.742839 -52.154948 36.966797 -52.035156 C 37.190755 -51.920573 37.383464 -51.761719 37.544922 -51.558594 C 37.711589 -51.360677 37.841797 -51.126302 37.935547 -50.855469 C 38.034505 -50.584635 38.083984 -50.295573 38.083984 -49.988281 C 38.083984 -49.68099 38.034505 -49.389323 37.935547 -49.113281 C 37.841797 -48.842448 37.711589 -48.605469 37.544922 -48.402344 C 37.383464 -48.199219 37.190755 -48.03776 36.966797 -47.917969 C 36.742839 -47.803385 36.503255 -47.746094 36.248047 -47.746094 C 35.998047 -47.746094 35.761068 -47.803385 35.537109 -47.917969 C 35.313151 -48.03776 35.115234 -48.199219 34.943359 -48.402344 C 34.776693 -48.605469 34.64388 -48.842448 34.544922 -49.113281 C 34.451172 -49.389323 34.404297 -49.68099 34.404297 -49.988281 C 34.404297 -50.295573 34.451172 -50.584635 34.544922 -50.855469 C 34.64388 -51.126302 34.776693 -51.360677 34.943359 -51.558594 C 35.115234 -51.761719 35.313151 -51.920573 35.537109 -52.035156 C 35.761068 -52.154948 35.998047 -52.214844 36.248047 -52.214844 z "
     id="text836" />
</svg>
