<?xml version="1.0" encoding="UTF-8" standalone="no"?>
<svg
   xmlns:dc="http://purl.org/dc/elements/1.1/"
   xmlns:cc="http://creativecommons.org/ns#"
   xmlns:rdf="http://www.w3.org/1999/02/22-rdf-syntax-ns#"
   xmlns:svg="http://www.w3.org/2000/svg"
   xmlns="http://www.w3.org/2000/svg"
   xmlns:sodipodi="http://sodipodi.sourceforge.net/DTD/sodipodi-0.dtd"
   xmlns:inkscape="http://www.inkscape.org/namespaces/inkscape"
   id="svg4306"
   width="22"
   height="22"
   version="1.1"
   style="enable-background:new"
   sodipodi:docname="keepbelow.svg"
   inkscape:version="0.92.4 (5da689c313, 2019-01-14)">
  <metadata
     id="metadata24">
    <rdf:RDF>
      <cc:Work
         rdf:about="">
        <dc:format>image/svg+xml</dc:format>
        <dc:type
           rdf:resource="http://purl.org/dc/dcmitype/StillImage" />
        <dc:title></dc:title>
      </cc:Work>
    </rdf:RDF>
  </metadata>
  <defs
     id="defs22" />
  <style
     type="text/css"
     id="current-color-scheme">
      .ColorScheme-Text {
        color:#31363b;
      }
      .ColorScheme-Background {
        color:#eff0f1;
      }
      .ColorScheme-Highlight {
        color:#3daee9;
      }

      </style>
  <sodipodi:namedview
     pagecolor="#ffffff"
     bordercolor="#666666"
     borderopacity="1"
     objecttolerance="10"
     gridtolerance="10"
     guidetolerance="10"
     inkscape:pageopacity="1"
     inkscape:pageshadow="2"
     inkscape:window-width="1366"
     inkscape:window-height="707"
     id="namedview20"
     showgrid="true"
     inkscape:zoom="2.6363636"
     inkscape:cx="11"
     inkscape:cy="11"
     inkscape:window-x="0"
     inkscape:window-y="0"
     inkscape:window-maximized="1"
     inkscape:current-layer="svg4306"
     showguides="true"
     inkscape:guide-bbox="true" />
  <g
     id="g892"
     inkscape:label="#hover-center"
     transform="translate(0,22)">
    <path
       inkscape:connector-curvature="0"
       id="hover-center"
       class="ColorScheme-Text"
       d="m 11,-21.957031 c -6.05171,0 -10.95703125,4.905455 -10.95703125,10.957031 0,6.051809 4.90532125,10.957031 10.95703125,10.957031 6.051736,0 10.957031,-4.905222 10.957031,-10.957031 0,-6.051576 -4.905295,-10.957031 -10.957031,-10.957031 z m 0,7.25 6,6 -1.414062,1.414062 L 11,-11.878906 6.4140625,-7.292969 5,-8.707031 Z"
       style="fill:currentColor;fill-opacity:1;fill-rule:evenodd;stroke:none;stroke-width:0.02563604;enable-background:new" />
  </g>
  <g
     id="pressed-center"
     transform="translate(22)">
    <path
       id="path896"
       d="M 11,0.042969 C 4.94829,0.042969 0.04296875,4.948424 0.04296875,11 0.04296875,17.051809 4.94829,21.957031 11,21.957031 17.051736,21.957031 21.957031,17.051809 21.957031,11 21.957031,4.948424 17.051736,0.042969 11,0.042969 Z"
       style="opacity:0;fill:#000000;fill-opacity:0;fill-rule:evenodd;stroke:none;stroke-width:0.02563604;enable-background:new"
       inkscape:connector-curvature="0" />
    <path
       id="hover-center-3"
       class="ColorScheme-Text"
       d="m 11,7.292969 6,6 -1.414062,1.414062 L 11,10.121094 6.4140625,14.707031 5,13.292969 Z"
       style="fill:currentColor;fill-opacity:1;fill-rule:evenodd;stroke:none;stroke-width:0.02563604;enable-background:new"
       inkscape:connector-curvature="0" />
  </g>
  <g
     style="fill:#ebebeb;fill-opacity:1;enable-background:new"
     id="active-center"
     transform="translate(-22)">
    <path
       id="path896-7"
       d="M 11,0.042969 C 4.94829,0.042969 0.04296875,4.948424 0.04296875,11 0.04296875,17.051809 4.94829,21.957031 11,21.957031 17.051736,21.957031 21.957031,17.051809 21.957031,11 21.957031,4.948424 17.051736,0.042969 11,0.042969 Z"
       style="opacity:0;fill:#000000;fill-opacity:1;fill-rule:evenodd;stroke:none;stroke-width:0.02563604;enable-background:new"
       inkscape:connector-curvature="0" />
    <path
       id="hover-center-3-5"
       class="ColorScheme-Text"
       d="m 11,7.292969 6,6 -1.414062,1.414062 L 11,10.121094 6.4140625,14.707031 5,13.292969 Z"
       style="fill:currentColor;fill-opacity:1;fill-rule:evenodd;stroke:none;stroke-width:0.02563604;enable-background:new"
       inkscape:connector-curvature="0" />
  </g>
  <g
     style="fill:currentColor;fill-opacity:1;enable-background:new"
     id="inactive-center"
     transform="translate(44)">
    <path
       id="path896-5"
       d="M 11,0.042969 C 4.94829,0.042969 0.04296875,4.948424 0.04296875,11 0.04296875,17.051809 4.94829,21.957031 11,21.957031 17.051736,21.957031 21.957031,17.051809 21.957031,11 21.957031,4.948424 17.051736,0.042969 11,0.042969 Z"
       style="opacity:0;fill:#000000;fill-opacity:1;fill-rule:evenodd;stroke:none;stroke-width:0.02563604;enable-background:new"
       inkscape:connector-curvature="0" />
    <path
       id="hover-center-3-6"
       class="ColorScheme-Text"
       d="m 11,7.292969 6,6 -1.414062,1.414062 L 11,10.121094 6.4140625,14.707031 5,13.292969 Z"
       style="fill:currentColor;fill-opacity:0.5;fill-rule:evenodd;stroke:none;stroke-width:0.02563604;enable-background:new"
       inkscape:connector-curvature="0" />
  </g>
  <g
     style="fill:currentColor;fill-opacity:1;enable-background:new"
     id="deactivated-center"
     transform="translate(66)">
    <path
       id="path896-9"
       d="M 11,0.042969 C 4.94829,0.042969 0.04296875,4.948424 0.04296875,11 0.04296875,17.051809 4.94829,21.957031 11,21.957031 17.051736,21.957031 21.957031,17.051809 21.957031,11 21.957031,4.948424 17.051736,0.042969 11,0.042969 Z"
       style="opacity:0;fill:#000000;fill-opacity:1;fill-rule:evenodd;stroke:none;stroke-width:0.02563604;enable-background:new"
       inkscape:connector-curvature="0" />
    <path
       id="hover-center-3-1"
       d="m 11,7.292969 6,6 -1.414062,1.414062 L 11,10.121094 6.4140625,14.707031 5,13.292969 Z"
       style="fill:currentColor;fill-opacity:0.5;fill-rule:evenodd;stroke:none;stroke-width:0.02563604;enable-background:new"
       inkscape:connector-curvature="0" />
  </g>
  <path
     style="font-style:normal;font-variant:normal;font-weight:normal;font-stretch:normal;font-size:16px;line-height:1.25;font-family:'Abyssinica SIL';-inkscape-font-specification:'Abyssinica SIL';letter-spacing:0px;word-spacing:0px;fill:#ffffff;fill-opacity:1;stroke:none;stroke-width:0.59544194;enable-background:new"
     d="m 8.1039426,-24.944365 c -0.08816,0 -0.171237,0.01418 -0.249227,0.04255 -0.07799,0.02553 -0.147501,0.0624 -0.208536,0.11062 -0.05765,0.04822 -0.103421,0.104947 -0.13733,0.170185 -0.03391,0.06524 -0.05086,0.134729 -0.05086,0.208475 0,0.07375 0.01695,0.144657 0.05086,0.212731 0.03391,0.06524 0.07968,0.121966 0.13733,0.170185 0.06104,0.04822 0.130547,0.08651 0.208536,0.114874 0.07799,0.02836 0.161065,0.04255 0.249227,0.04255 0.08816,0 0.171238,-0.01418 0.249227,-0.04255 0.07799,-0.02836 0.145806,-0.06666 0.203451,-0.114874 0.05764,-0.04822 0.101725,-0.104947 0.132243,-0.170185 0.03391,-0.06807 0.05086,-0.138984 0.05086,-0.212731 0,-0.07375 -0.01695,-0.143238 -0.05086,-0.208475 -0.03052,-0.06524 -0.0746,-0.121966 -0.132243,-0.170185 -0.05765,-0.04822 -0.125461,-0.08509 -0.203451,-0.11062 -0.07799,-0.02836 -0.161065,-0.04255 -0.249227,-0.04255 z m 21.5098094,0.638192 c -0.356038,0 -0.68495,0.05106 -0.986735,0.153166 -0.298394,0.102111 -0.556098,0.266622 -0.773112,0.493535 -0.213623,0.226913 -0.38147,0.524736 -0.50354,0.893469 -0.122071,0.365896 -0.183106,0.81263 -0.183106,1.340202 10e-7,0.530409 0.06273,0.967216 0.188192,1.310421 0.125461,0.340369 0.293308,0.609828 0.50354,0.808376 0.210232,0.198549 0.452678,0.337533 0.727336,0.416952 0.274658,0.07658 0.561184,0.114875 0.859578,0.114875 0.298395,0 0.588312,-0.03687 0.869752,-0.11062 0.28483,-0.07375 0.535753,-0.187203 0.752767,-0.340369 0.217013,-0.153166 0.391642,-0.34746 0.523885,-0.582882 0.132242,-0.235422 0.198364,-0.514808 0.198364,-0.838158 0,-0.215567 -0.03052,-0.408443 -0.09155,-0.578628 -0.05764,-0.170184 -0.137329,-0.319096 -0.239054,-0.446734 -0.09833,-0.130475 -0.215319,-0.239677 -0.350952,-0.327605 -0.132243,-0.09077 -0.272963,-0.164512 -0.42216,-0.22124 -0.149197,-0.05673 -0.301785,-0.09786 -0.457764,-0.123384 -0.155979,-0.02553 -0.305175,-0.03829 -0.447591,-0.03829 -0.186496,0 -0.357734,0.01418 -0.513713,0.04255 -0.155978,0.02836 -0.296698,0.06666 -0.422159,0.114874 -0.125462,0.04538 -0.235664,0.09928 -0.330608,0.161675 -0.09494,0.0624 -0.176323,0.127639 -0.24414,0.195713 0.05086,-0.391425 0.113593,-0.709102 0.188192,-0.953034 0.07799,-0.24393 0.171237,-0.43397 0.279744,-0.570118 0.108507,-0.136147 0.235663,-0.22833 0.381469,-0.276549 0.145807,-0.04822 0.310263,-0.07233 0.493368,-0.07233 0.15937,0 0.291613,0.02269 0.396729,0.06807 0.105116,0.04538 0.189887,0.103529 0.254313,0.174439 0.06443,0.06807 0.108507,0.146075 0.132243,0.234004 0.02713,0.08509 0.04069,0.167348 0.04069,0.246767 h 1.103719 c 0,-0.18153 -0.04578,-0.350296 -0.137329,-0.506298 -0.09155,-0.156003 -0.2221,-0.29215 -0.391643,-0.408443 -0.169541,-0.116293 -0.372992,-0.207058 -0.610351,-0.272295 -0.237359,-0.06807 -0.500149,-0.102111 -0.788371,-0.102111 z m -11.479697,0.161675 c -0.04069,0.04538 -0.118679,0.109202 -0.233968,0.191458 -0.115289,0.08226 -0.24414,0.168766 -0.386556,0.259531 -0.142415,0.08793 -0.289917,0.171603 -0.442505,0.251022 -0.149197,0.07942 -0.28144,0.138984 -0.396729,0.178694 v 0.838159 c 0.101726,-0.02553 0.220405,-0.06098 0.356039,-0.106366 0.135633,-0.04822 0.272963,-0.100692 0.411987,-0.15742 0.139025,-0.05956 0.271268,-0.121966 0.396729,-0.187203 0.128852,-0.06807 0.237359,-0.136148 0.325521,-0.204222 v 4.305668 h 1.063029 v -5.369321 z m 6.011964,0 -2.65503,3.18245 v 1.038126 h 3.061931 v 1.148745 h 1.052856 v -1.148745 h 0.686646 v -0.778595 h -0.686646 v -3.441981 z m 11.250815,0 -2.65503,3.18245 v 1.038126 h 3.061931 v 1.148745 h 1.052857 v -1.148745 h 0.686645 v -0.778595 h -0.686645 v -3.441981 z m -10.843914,0.646701 v 2.79528 h -2.27356 z m 11.250815,0 v 2.79528 h -2.27356 z m -27.6031534,0.416952 -1.281738,0.33186 v 0.289314 h 0.737508 v 3.867442 c 0,0.167348 -0.0085,0.326187 -0.02543,0.476517 -0.01356,0.153166 -0.04069,0.290732 -0.08138,0.412697 -0.0373,0.124803 -0.08816,0.231168 -0.152587,0.319096 -0.06443,0.09077 -0.144111,0.158839 -0.239055,0.204221 l -1.012166,-0.582881 c -0.05086,0.01418 -0.103421,0.03404 -0.157675,0.05956 -0.05425,0.02836 -0.101725,0.0624 -0.142415,0.102111 -0.04408,0.04255 -0.07968,0.09076 -0.106811,0.144657 -0.02713,0.05673 -0.04069,0.121965 -0.04069,0.195712 0,0.08226 0.02204,0.153166 0.06612,0.212731 0.04069,0.0624 0.09833,0.113456 0.172933,0.153166 0.07121,0.03971 0.154283,0.06807 0.249227,0.08509 0.09494,0.01985 0.196668,0.02978 0.305176,0.02978 0.328911,0 0.644259,-0.06666 0.946045,-0.199967 0.305175,-0.130474 0.564575,-0.333277 0.778198,-0.608409 0.08816,-0.116293 0.159369,-0.248186 0.213623,-0.395679 0.05425,-0.147493 0.09494,-0.299241 0.12207,-0.455244 0.03052,-0.156002 0.05086,-0.310586 0.06103,-0.463752 0.01017,-0.156003 0.01526,-0.299241 0.01526,-0.429716 v -3.748314 z m 2.8635674,0 -1.2817384,0.340369 v 0.297823 h 0.7273354 v 2.36131 c 0,0.246767 0.03221,0.459498 0.09664,0.638192 0.06782,0.175857 0.16276,0.321932 0.28483,0.438225 0.125462,0.113456 0.276355,0.19713 0.452678,0.251022 0.179715,0.05673 0.38147,0.08509 0.605265,0.08509 0.152589,0 0.308567,-0.02127 0.467936,-0.06382 0.162761,-0.03971 0.317045,-0.08935 0.462851,-0.148911 0.149197,-0.0624 0.286526,-0.129057 0.411987,-0.199967 0.128852,-0.07091 0.237359,-0.134729 0.325521,-0.191458 v 0.49779 h 1.653036 v -0.340369 l -0.457764,-0.02553 c -0.06103,-0.0057 -0.115288,-0.02553 -0.16276,-0.05956 -0.04408,-0.03404 -0.06612,-0.078 -0.06612,-0.131893 v -3.748314 H 14.1566 l -1.271566,0.340369 v 0.297823 h 0.732422 v 2.918664 c -0.06104,0.02553 -0.135634,0.05389 -0.223796,0.08509 -0.08477,0.02836 -0.176323,0.05673 -0.274657,0.08509 -0.09834,0.02553 -0.201756,0.0468 -0.310263,0.06382 -0.108507,0.01702 -0.215318,0.02553 -0.320434,0.02553 -0.183106,0 -0.339085,-0.02127 -0.467936,-0.06382 -0.128853,-0.04538 -0.233969,-0.110619 -0.315349,-0.195712 -0.07799,-0.08509 -0.135634,-0.188621 -0.172933,-0.310587 -0.03391,-0.121965 -0.05086,-0.259531 -0.05086,-0.412697 v -2.833572 z m 18.427533,1.26362 c 0.166151,0 0.32213,0.03262 0.467936,0.09786 0.145806,0.0624 0.271268,0.148912 0.376384,0.259531 0.108507,0.107784 0.193278,0.235422 0.254313,0.382916 0.06443,0.147493 0.09664,0.304914 0.09664,0.472262 0,0.167348 -0.03221,0.326187 -0.09664,0.476516 -0.06103,0.147493 -0.145806,0.27655 -0.254313,0.38717 -0.105116,0.11062 -0.230578,0.198549 -0.376384,0.263786 -0.145806,0.0624 -0.301785,0.0936 -0.467936,0.0936 -0.162761,0 -0.317044,-0.0312 -0.46285,-0.0936 -0.145806,-0.06524 -0.274659,-0.153166 -0.386556,-0.263786 -0.108507,-0.11062 -0.194974,-0.239677 -0.2594,-0.38717 -0.06103,-0.150329 -0.09155,-0.309168 -0.09155,-0.476516 0,-0.167348 0.03052,-0.324769 0.09155,-0.472262 0.06443,-0.147494 0.150893,-0.275132 0.2594,-0.382916 0.111898,-0.110619 0.24075,-0.19713 0.386556,-0.259531 0.145806,-0.06524 0.300089,-0.09786 0.46285,-0.09786 z"
     id="text836"
     inkscape:connector-curvature="0" />
</svg>
