<?xml version="1.0" encoding="UTF-8" standalone="no"?>
<svg
   xmlns:dc="http://purl.org/dc/elements/1.1/"
   xmlns:cc="http://creativecommons.org/ns#"
   xmlns:rdf="http://www.w3.org/1999/02/22-rdf-syntax-ns#"
   xmlns:svg="http://www.w3.org/2000/svg"
   xmlns="http://www.w3.org/2000/svg"
   xmlns:sodipodi="http://sodipodi.sourceforge.net/DTD/sodipodi-0.dtd"
   xmlns:inkscape="http://www.inkscape.org/namespaces/inkscape"
   version="1.1"
   id="svg2"
   viewBox="0 0 22 22"
   inkscape:version="0.92.4 (5da689c313, 2019-01-14)"
   sodipodi:docname="kruler.svg">
  <sodipodi:namedview
     pagecolor="#ffffff"
     bordercolor="#666666"
     borderopacity="1"
     objecttolerance="10"
     gridtolerance="10"
     guidetolerance="10"
     inkscape:pageopacity="0"
     inkscape:pageshadow="2"
     inkscape:window-width="1366"
     inkscape:window-height="717"
     id="namedview7"
     showgrid="false"
     inkscape:zoom="8.3567165"
     inkscape:cx="11"
     inkscape:cy="11"
     inkscape:window-x="0"
     inkscape:window-y="25"
     inkscape:window-maximized="1"
     inkscape:current-layer="svg2" />
  <metadata
     id="metadata10">
    <rdf:RDF>
      <cc:Work
         rdf:about="">
        <dc:format>image/svg+xml</dc:format>
        <dc:type
           rdf:resource="http://purl.org/dc/dcmitype/StillImage" />
        <dc:title></dc:title>
      </cc:Work>
    </rdf:RDF>
  </metadata>
  <defs
     id="defs3051">
    <style
       id="current-color-scheme"
       type="text/css">
      .ColorScheme-Text {
        color:#4d4d4d;
      }
      </style>
  </defs>
  <g
     id="kruler">
    <rect
       y="-1.7382812e-05"
       x="0"
       height="22"
       width="22"
       id="rect4165"
       style="opacity:1;fill:none;fill-opacity:1;stroke:none" />
    <path
       id="path2"
       d="M 10.998615,2.3136999 A 8.6862992,8.6862992 0 0 0 2.3137,10.999999 a 8.6862992,8.6862992 0 0 0 8.687685,8.6863 8.6862992,8.6862992 0 0 0 8.684915,-8.6863 A 8.6862992,8.6862992 0 0 0 11,2.3136999 Z m -0.02358,1.2917875 a 7.4679725,7.4679725 0 0 1 7.46797,7.4707456 7.4679725,7.4679725 0 0 1 -0.529467,2.740197 v -0.817762 h -0.733213 v 2.224589 A 7.4679725,7.4679725 0 0 1 16.44711,16.142198 V 12.99728 h -0.7346 v 3.842098 a 7.4679725,7.4679725 0 0 1 -0.731828,0.536396 v -4.37988 h -0.7346 v 4.784601 a 7.4679725,7.4679725 0 0 1 -0.733214,0.309088 v -7.944769 h -0.733205 v 8.169306 a 7.4679725,7.4679725 0 0 1 -0.733211,0.14415 v -5.46099 h -0.7346 v 5.533063 a 7.4679725,7.4679725 0 0 1 -0.336811,0.01247 7.4679725,7.4679725 0 0 1 -0.395018,-0.01942 V 12.995881 H 9.8454296 v 5.449901 A 7.4679725,7.4679725 0 0 1 9.1122164,18.296105 V 12.99728 h -0.733214 v 5.070126 A 7.4679725,7.4679725 0 0 1 7.6457883,17.751388 V 12.995894 H 6.9111879 v 4.336912 A 7.4679725,7.4679725 0 0 1 6.17936,16.797796 V 10.144814 H 5.4447598 v 5.939173 A 7.4679725,7.4679725 0 0 1 4.7115457,15.141483 V 12.99728 h -0.733214 v 0.679157 A 7.4679725,7.4679725 0 0 1 3.5056927,11.074845 7.4679725,7.4679725 0 0 1 10.975049,3.6054874 Z"
       style="fill:#e6e6e6;stroke-width:1.3860383"
       inkscape:connector-curvature="0" />
  </g>
</svg>
