<?xml version="1.0" encoding="UTF-8" standalone="no"?>
<!-- Created with Inkscape (http://www.inkscape.org/) -->

<svg
   xmlns:dc="http://purl.org/dc/elements/1.1/"
   xmlns:cc="http://creativecommons.org/ns#"
   xmlns:rdf="http://www.w3.org/1999/02/22-rdf-syntax-ns#"
   xmlns:svg="http://www.w3.org/2000/svg"
   xmlns="http://www.w3.org/2000/svg"
   xmlns:sodipodi="http://sodipodi.sourceforge.net/DTD/sodipodi-0.dtd"
   xmlns:inkscape="http://www.inkscape.org/namespaces/inkscape"
   width="54"
   height="32"
   viewBox="0 0 14.2875 8.4666659"
   version="1.1"
   id="svg827"
   inkscape:version="0.92.4 (5da689c313, 2019-01-14)"
   sodipodi:docname="start.svg">
  <defs
     id="defs821" />
  <sodipodi:namedview
     id="base"
     pagecolor="#ffffff"
     bordercolor="#666666"
     borderopacity="1.0"
     inkscape:pageopacity="0.0"
     inkscape:pageshadow="2"
     inkscape:zoom="3.1099604"
     inkscape:cx="-43.097356"
     inkscape:cy="16"
     inkscape:document-units="mm"
     inkscape:current-layer="layer1"
     showgrid="false"
     units="px"
     inkscape:window-width="1366"
     inkscape:window-height="717"
     inkscape:window-x="0"
     inkscape:window-y="25"
     inkscape:window-maximized="1" />
  <metadata
     id="metadata824">
    <rdf:RDF>
      <cc:Work
         rdf:about="">
        <dc:format>image/svg+xml</dc:format>
        <dc:type
           rdf:resource="http://purl.org/dc/dcmitype/StillImage" />
        <dc:title></dc:title>
      </cc:Work>
    </rdf:RDF>
  </metadata>
  <g
     inkscape:label="Capa 1"
     inkscape:groupmode="layer"
     id="layer1"
     transform="translate(0,-288.53334)">
    <g
       transform="matrix(0.26458333,0,0,0.26458333,-0.04835493,288.57786)"
       id="start-here-kde">
      <rect
         style="fill:none;fill-rule:evenodd;stroke:none;stroke-width:1px;stroke-linecap:butt;stroke-linejoin:miter;stroke-opacity:1"
         id="rect3343"
         width="32"
         height="32"
         x="22"
         y="0" />
      <path
         id="path2"
         d="M 37.89483,3.0626056 A 12.918977,12.918977 0 0 0 24.975853,15.981584 12.918977,12.918977 0 0 0 37.89483,28.90056 12.918977,12.918977 0 0 0 50.813806,15.981584 12.918977,12.918977 0 0 0 37.89483,3.0626056 Z M 37.85376,4.9932623 A 11.091013,11.091013 0 0 1 48.944764,16.084278 11.091013,11.091013 0 0 1 37.853753,27.19583 11.091013,11.091013 0 0 1 26.762735,16.104816 11.091013,11.091013 0 0 1 37.853756,4.9932623 Z m 0,2.1771263 a 8.9344274,8.9344274 0 0 0 -8.934431,8.9138894 8.9344274,8.9344274 0 0 0 8.934429,8.934427 8.9344274,8.9344274 0 0 0 8.934428,-8.934427 8.9344274,8.9344274 0 0 0 -8.934426,-8.9138894 z"
         style="fill:#e6e6e6;stroke-width:2.05389142"
         inkscape:connector-curvature="0" />
    </g>
    <g
       transform="matrix(0.18190104,0,0,0.18190104,-4.0310059,291.2156)"
       id="22-22-start-here-kde">
      <rect
         style="fill:none;fill-rule:evenodd;stroke:none;stroke-width:1px;stroke-linecap:butt;stroke-linejoin:miter;stroke-opacity:1"
         id="rect3343-6"
         width="32"
         height="32"
         x="22"
         y="0" />
      <path
         id="path2-7"
         d="M 37.89483,3.0626056 A 12.918977,12.918977 0 0 0 24.975853,15.981584 12.918977,12.918977 0 0 0 37.89483,28.90056 12.918977,12.918977 0 0 0 50.813806,15.981584 12.918977,12.918977 0 0 0 37.89483,3.0626056 Z M 37.85376,4.9932623 A 11.091013,11.091013 0 0 1 48.944764,16.084278 11.091013,11.091013 0 0 1 37.853753,27.19583 11.091013,11.091013 0 0 1 26.762735,16.104816 11.091013,11.091013 0 0 1 37.853756,4.9932623 Z m 0,2.1771263 a 8.9344274,8.9344274 0 0 0 -8.934431,8.9138894 8.9344274,8.9344274 0 0 0 8.934429,8.934427 8.9344274,8.9344274 0 0 0 8.934428,-8.934427 8.9344274,8.9344274 0 0 0 -8.934426,-8.9138894 z"
         style="fill:#e6e6e6;stroke-width:2.05389142"
         inkscape:connector-curvature="0" />
    </g>
    <g
       transform="matrix(0.13229167,0,0,0.13229167,-7.1921049,292.81119)"
       id="16-16-start-here-kde"
       inkscape:label="#16-16-start-here-kde">
      <rect
         style="fill:none;fill-rule:evenodd;stroke:none;stroke-width:1px;stroke-linecap:butt;stroke-linejoin:miter;stroke-opacity:1"
         id="rect3343-6-3"
         width="32"
         height="32"
         x="22"
         y="0" />
      <path
         id="path2-7-5"
         d="M 37.89483,3.0626056 A 12.918977,12.918977 0 0 0 24.975853,15.981584 12.918977,12.918977 0 0 0 37.89483,28.90056 12.918977,12.918977 0 0 0 50.813806,15.981584 12.918977,12.918977 0 0 0 37.89483,3.0626056 Z M 37.85376,4.9932623 A 11.091013,11.091013 0 0 1 48.944764,16.084278 11.091013,11.091013 0 0 1 37.853753,27.19583 11.091013,11.091013 0 0 1 26.762735,16.104816 11.091013,11.091013 0 0 1 37.853756,4.9932623 Z m 0,2.1771263 a 8.9344274,8.9344274 0 0 0 -8.934431,8.9138894 8.9344274,8.9344274 0 0 0 8.934429,8.934427 8.9344274,8.9344274 0 0 0 8.934428,-8.934427 8.9344274,8.9344274 0 0 0 -8.934426,-8.9138894 z"
         style="fill:#e6e6e6;stroke-width:2.05389142"
         inkscape:connector-curvature="0" />
    </g>
  </g>
</svg>
