<?xml version="1.0" encoding="UTF-8" standalone="no"?>
<!-- Created with Inkscape (http://www.inkscape.org/) -->

<svg
   xmlns:dc="http://purl.org/dc/elements/1.1/"
   xmlns:cc="http://creativecommons.org/ns#"
   xmlns:rdf="http://www.w3.org/1999/02/22-rdf-syntax-ns#"
   xmlns:svg="http://www.w3.org/2000/svg"
   xmlns="http://www.w3.org/2000/svg"
   xmlns:sodipodi="http://sodipodi.sourceforge.net/DTD/sodipodi-0.dtd"
   xmlns:inkscape="http://www.inkscape.org/namespaces/inkscape"
   width="22"
   height="22"
   viewBox="0 0 22 22"
   id="svg2"
   version="1.1"
   inkscape:version="0.92.4 (5da689c313, 2019-01-14)"
   sodipodi:docname="vlc.svg">
  <sodipodi:namedview
     pagecolor="#ffffff"
     bordercolor="#666666"
     borderopacity="1"
     objecttolerance="10"
     gridtolerance="10"
     guidetolerance="10"
     inkscape:pageopacity="0"
     inkscape:pageshadow="2"
     inkscape:window-width="1366"
     inkscape:window-height="717"
     id="namedview13"
     showgrid="false"
     inkscape:zoom="11.909091"
     inkscape:cx="11"
     inkscape:cy="11"
     inkscape:window-x="0"
     inkscape:window-y="25"
     inkscape:window-maximized="1"
     inkscape:current-layer="layer1" />
  <defs
     id="defs4">
    <style
       id="current-color-scheme"
       type="text/css">
      .ColorScheme-Text {
        color:#31363b;
      }
      </style>
  </defs>
  <metadata
     id="metadata7">
    <rdf:RDF>
      <cc:Work
         rdf:about="">
        <dc:format>image/svg+xml</dc:format>
        <dc:type
           rdf:resource="http://purl.org/dc/dcmitype/StillImage" />
        <dc:title></dc:title>
      </cc:Work>
    </rdf:RDF>
  </metadata>
  <g
     inkscape:label="Layer 1"
     inkscape:groupmode="layer"
     id="layer1"
     transform="translate(0,-1030.3621)">
    <g
       id="vlc">
      <rect
         y="1030.3621"
         x="0"
         height="22"
         width="22"
         id="rect4246"
         style="color:#31363b;opacity:1;fill:none;fill-opacity:1;stroke:none;stroke-width:3.29999995;stroke-linecap:butt;stroke-linejoin:round;stroke-miterlimit:4;stroke-dasharray:none;stroke-opacity:1"
         class="ColorScheme-Text" />
      <path
         id="path4"
         d="m 11.086386,1033.4161 c -0.478418,0 -0.991011,0.1308 -1.545817,0.4221 l -0.781954,2.762 c 1.57999,0.79 3.095655,0.6695 4.573127,0 l -0.894523,-2.8423 a 2.9066987,2.9066987 0 0 0 -1.350833,-0.3418 z m -3.264508,6.3603 -0.880452,2.9769 c 2.93082,1.3569 5.668666,1.2544 8.18137,-0.1005 l -0.8503,-2.8745 c -2.106652,0.6854 -4.239436,0.969 -6.450618,0 z m 7.300918,2.8744 0.719641,2.4928 c -2.243344,1.992 -6.981304,2.7317 -9.608589,0.028 l 0.707578,-2.4182 -1.507624,0.01 -2.386066,5.5944 c -0.006,0.3335 0.04824,0.8019 0.645263,0.9327 l 14.694306,0.024 c 0.631193,-0.3879 0.582949,-0.6574 0.546767,-0.995 l -2.347874,-5.6345 z"
         style="opacity:1;fill:#e6e6e6;fill-opacity:1;stroke-width:2.01016474"
         inkscape:connector-curvature="0" />
    </g>
  </g>
</svg>
