<?xml version="1.0" encoding="UTF-8" standalone="no"?>
<svg
   xmlns:dc="http://purl.org/dc/elements/1.1/"
   xmlns:cc="http://creativecommons.org/ns#"
   xmlns:rdf="http://www.w3.org/1999/02/22-rdf-syntax-ns#"
   xmlns:svg="http://www.w3.org/2000/svg"
   xmlns="http://www.w3.org/2000/svg"
   xmlns:sodipodi="http://sodipodi.sourceforge.net/DTD/sodipodi-0.dtd"
   xmlns:inkscape="http://www.inkscape.org/namespaces/inkscape"
   width="64"
   height="64"
   version="1.1"
   id="svg277"
   sodipodi:docname="osd.svg"
   inkscape:version="0.92.4 (5da689c313, 2019-01-14)">
  <metadata
     id="metadata283">
    <rdf:RDF>
      <cc:Work
         rdf:about="">
        <dc:format>image/svg+xml</dc:format>
        <dc:type
           rdf:resource="http://purl.org/dc/dcmitype/StillImage" />
        <dc:title></dc:title>
      </cc:Work>
    </rdf:RDF>
  </metadata>
  <defs
     id="defs281">
    <style
       type="text/css"
       id="current-color-scheme">
      .ColorScheme-Text {
        color:#00ff00;
      }
      .ColorScheme-Background {
        color:#ff0000;
      }
      .ColorScheme-Highlight {
        color:#0000ff;
      }
      .ColorScheme-ButtonHover {
        color:#ffff00;
      }
      .ColorScheme-ButtonFocus{
        color:#ff00ff;
      }
      .ColorScheme-NegativeText {
        color:#00ffff;
      }
  </style>
    <clipPath
       clipPathUnits="userSpaceOnUse"
       id="clipPath2087">
      <g
         id="use2089"
         inkscape:label="Clip">
        <g
           id="g2110">
          <rect
             style="opacity:0.00100002"
             width="64"
             height="64"
             x="0"
             y="0"
             id="rect2106" />
          <path
             inkscape:connector-curvature="0"
             id="path2108"
             class="ColorScheme-Highlight"
             d="M 11.722658,7.1171875 A 4.5528737,4.5528737 0 0 0 7.1699182,11.669923 v 30.919921 c 0,2.541151 2.11748,4.552734 4.5527398,4.552734 h 11.43554 v 5.503906 h -10.58789 v 4.236328 h 39.49414 v -4.236328 h -10.90429 v -5.607422 h 11.11718 a 4.5528737,4.5528737 0 0 0 4.55274,-4.558593 V 11.669923 a 4.5528737,4.5528737 0 0 0 -4.55274,-4.5527355 z m 3.49609,4.4492185 h 33.87891 a 3.4940665,3.4940665 0 0 1 3.49804,3.490236 V 39.09375 a 3.4940665,3.4940665 0 0 1 -3.49804,3.496095 H 15.218748 A 3.4940665,3.4940665 0 0 1 11.722658,39.09375 V 15.056642 a 3.4940665,3.4940665 0 0 1 3.49609,-3.490236 z m 16.78125,6.232422 -4.26172,4.261719 h 2.83985 0.30078 v 11.878906 h -0.30078 -2.83985 l 4.26172,4.259766 4.25977,-4.259766 h -2.83985 -0.30078 V 22.060547 h 0.30078 2.83985 z"
             style="fill:currentColor;fill-opacity:1;stroke-width:10.58808041" />
        </g>
      </g>
    </clipPath>
    <clipPath
       clipPathUnits="userSpaceOnUse"
       id="clipPath2087-3">
      <g
         inkscape:label="Clip"
         id="use2089-1">
        <g
           id="g2140">
          <rect
             id="rect2136"
             y="0"
             x="0"
             height="64"
             width="64"
             style="opacity:0.00100002" />
          <path
             style="fill:currentColor;fill-opacity:1;stroke-width:10.58808041"
             d="M 11.722658,7.1171875 A 4.5528737,4.5528737 0 0 0 7.1699182,11.669923 v 30.919921 c 0,2.541151 2.11748,4.552734 4.5527398,4.552734 h 11.43554 v 5.503906 h -10.58789 v 4.236328 h 39.49414 v -4.236328 h -10.90429 v -5.607422 h 11.11718 a 4.5528737,4.5528737 0 0 0 4.55274,-4.558593 V 11.669923 a 4.5528737,4.5528737 0 0 0 -4.55274,-4.5527355 z m 3.49609,4.4492185 h 33.87891 a 3.4940665,3.4940665 0 0 1 3.49804,3.490236 V 39.09375 a 3.4940665,3.4940665 0 0 1 -3.49804,3.496095 H 15.218748 A 3.4940665,3.4940665 0 0 1 11.722658,39.09375 V 15.056642 a 3.4940665,3.4940665 0 0 1 3.49609,-3.490236 z m 16.78125,6.232422 -4.26172,4.261719 h 2.83985 0.30078 v 11.878906 h -0.30078 -2.83985 l 4.26172,4.259766 4.25977,-4.259766 h -2.83985 -0.30078 V 22.060547 h 0.30078 2.83985 z"
             id="path2138"
             class="ColorScheme-Highlight"
             inkscape:connector-curvature="0" />
        </g>
      </g>
    </clipPath>
  </defs>
  <sodipodi:namedview
     pagecolor="#ffffff"
     bordercolor="#666666"
     borderopacity="1"
     objecttolerance="10"
     gridtolerance="10"
     guidetolerance="10"
     inkscape:pageopacity="0"
     inkscape:pageshadow="2"
     inkscape:window-width="1366"
     inkscape:window-height="708"
     id="namedview279"
     showgrid="false"
     showguides="true"
     inkscape:guide-bbox="true"
     inkscape:zoom="1.0234375"
     inkscape:cx="14.900763"
     inkscape:cy="32"
     inkscape:window-x="0"
     inkscape:window-y="0"
     inkscape:window-maximized="1"
     inkscape:current-layer="svg277" />
  <g
     id="osd-duplicate"
     transform="translate(-64)">
    <rect
       style="opacity:0.00100002"
       width="64"
       height="64"
       x="0"
       y="0"
       id="rect92-9" />
    <path
       id="path829-3-3"
       d="M 26.152365,5.8864155 A 3.3947327,3.3947327 0 0 0 22.759684,9.2813751 V 21.008589 H 7.6055681 a 3.3947327,3.3947327 0 0 0 -3.3926776,3.394962 v 23.055153 c 0,1.894742 1.5768886,3.39268 3.3926776,3.39268 h 8.5284689 v 4.104524 H 8.2398427 v 3.157677 H 37.685643 V 54.955908 H 29.55417 V 50.77381 h 8.291184 a 3.3947327,3.3947327 0 0 0 3.394962,-3.397239 v -4.385158 h 14.992125 v -3.157677 h -8.129197 v -4.182098 h 8.288903 a 3.3947327,3.3947327 0 0 0 3.394962,-3.397244 V 9.2813751 A 3.3947327,3.3947327 0 0 0 56.392147,5.8864155 Z m 2.607821,3.3173858 H 54.02161 A 2.6052605,2.6052605 0 0 1 56.629432,11.80706 V 29.728709 A 2.6052605,2.6052605 0 0 1 54.02161,32.33425 H 41.240316 v -2.543938 h 9.233469 A 1.3112809,1.3112809 0 0 0 51.78568,28.47385 V 12.699152 A 1.3112809,1.3112809 0 0 0 50.473785,11.382691 H 32.070727 v 0.0024 a 1.3112809,1.3112809 0 0 0 -1.311895,1.31646 v 8.307157 H 26.152365 V 11.80718 a 2.6052605,2.6052605 0 0 1 2.607821,-2.6032588 z m 3.310541,6.4522487 v 0.0024 h 18.403058 c 0.176601,0 0.326261,0.147526 0.326261,0.328544 v 12.484675 a 0.3267164,0.3267164 0 0 1 -0.326261,0.328545 h -9.233469 v -4.39658 A 3.3947327,3.3947327 0 0 0 37.845354,21.008673 H 31.744466 V 15.98468 c 0,-0.176605 0.145244,-0.328546 0.326261,-0.328546 z m -21.857338,8.669927 h 25.261424 a 2.6052605,2.6052605 0 0 1 2.607822,2.60326 v 17.921645 a 2.6052605,2.6052605 0 0 1 -2.607822,2.607822 H 10.213389 A 2.6052605,2.6052605 0 0 1 7.6055681,44.850882 V 26.929237 a 2.6052605,2.6052605 0 0 1 2.6078209,-2.60326 z m 3.310545,2.178891 v 0.0047 a 1.3112809,1.3112809 0 0 0 -1.311895,1.316459 v 15.770137 c 0,0.728489 0.58782,1.31646 1.311895,1.31646 h 18.403058 a 1.3112809,1.3112809 0 0 0 1.311895,-1.31646 v -15.77474 a 1.3112809,1.3112809 0 0 0 -1.311895,-1.31646 z m 0,4.273359 v 0.0047 h 18.403058 c 0.176601,0 0.326261,0.147526 0.326261,0.328544 v 12.484691 a 0.3267164,0.3267164 0 0 1 -0.326261,0.326264 H 13.523934 a 0.3267164,0.3267164 0 0 1 -0.326265,-0.32637 V 31.106802 c 0,-0.176603 0.145244,-0.328544 0.326265,-0.328544 z"
       style="fill:currentColor;fill-opacity:1;stroke-width:7.89473009"
       class="ColorScheme-Highlight"
       inkscape:connector-curvature="0" />
  </g>
  <g
     id="osd-shutd-laptop"
     transform="translate(-128)">
    <rect
       style="opacity:0.00100002"
       width="64"
       height="64"
       x="0"
       y="0"
       id="rect92-9-4" />
    <path
       inkscape:connector-curvature="0"
       id="path829-3-9"
       class="ColorScheme-Highlight"
       d="m 26.153538,5.8854275 a 3.3947127,3.3947127 0 0 0 -3.392656,3.394942 V 21.009793 H 7.606857 a 3.3947127,3.3947127 0 0 0 -3.394942,3.392661 v 23.055021 c 0,1.89473 1.579163,3.394938 3.394942,3.394938 h 8.526136 v 4.104501 H 8.238845 v 3.157659 h 29.447908 v -3.157659 h -8.131429 v -4.182076 h 8.29114 a 3.3947127,3.3947127 0 0 0 3.392657,-3.3995 v -4.38513 H 56.233438 V 39.832547 H 48.10429 v -4.182074 h 8.288857 a 3.3947127,3.3947127 0 0 0 3.394937,-3.39722 V 9.2803695 a 3.3947127,3.3947127 0 0 0 -3.394937,-3.394942 z m 2.60781,3.317368 H 54.02262 a 2.6052449,2.6052449 0 0 1 2.607806,2.6032435 V 29.72758 A 2.6052449,2.6052449 0 0 1 54.02262,32.333105 H 41.239121 v -2.543922 h 9.235698 a 1.3112729,1.3112729 0 0 0 1.311887,-1.316454 V 12.698123 a 1.3112729,1.3112729 0 0 0 -1.311887,-1.316449 h -18.40295 v 0.0047 a 1.3112729,1.3112729 0 0 0 -1.311887,1.316451 v 8.307108 h -4.606444 v -9.203755 a 2.6052449,2.6052449 0 0 1 2.60781,-2.6032435 z m 3.310521,6.4522135 v 0.0047 h 18.40295 c 0.176601,0 0.326261,0.147525 0.326261,0.328542 v 12.484618 a 0.32671448,0.32671448 0 0 1 -0.326261,0.326261 h -9.235698 v -4.396538 a 3.3947127,3.3947127 0 0 0 -3.392657,-3.392659 h -6.100856 v -5.026245 c 0,-0.176602 0.145244,-0.328542 0.326261,-0.328542 z m -21.857206,8.672152 h 25.261272 a 2.6052449,2.6052449 0 0 1 2.605525,2.600963 v 17.923822 a 2.6052449,2.6052449 0 0 1 -2.605525,2.605529 H 10.214663 A 2.6052449,2.6052449 0 0 1 7.606857,44.851946 V 26.928124 a 2.6052449,2.6052449 0 0 1 2.607806,-2.600963 z m 7.059101,5.443768 -1.770477,1.770482 5.309154,5.309157 -5.309154,5.309154 1.770477,1.770481 5.309158,-5.309158 5.309158,5.309158 1.770477,-1.770481 -5.311439,-5.309154 5.311439,-5.309157 -1.770477,-1.770482 -5.309158,5.309158 z"
       style="fill:currentColor;fill-opacity:1;stroke-width:7.89468431" />
  </g>
  <g
     id="osd-shutd-screen"
     transform="translate(-192)">
    <rect
       style="opacity:0.00100002"
       width="64"
       height="64"
       x="0"
       y="0"
       id="rect92-9-3" />
    <path
       inkscape:connector-curvature="0"
       id="path829-3-2"
       class="ColorScheme-Highlight"
       d="m 26.15354,5.8865675 a 3.3947127,3.3947127 0 0 0 -3.392659,3.394942 V 21.008653 H 7.6068545 a 3.3947127,3.3947127 0 0 0 -3.394941,3.394942 v 23.05502 c 0,1.89473 1.579164,3.394938 3.394941,3.394938 h 8.5261365 v 4.102218 H 8.2388425 v 3.157662 H 37.686752 v -3.157662 h -8.131428 v -4.179788 h 8.291139 a 3.3947127,3.3947127 0 0 0 3.392657,-3.399505 v -4.38513 h 14.994318 v -3.157661 h -8.129149 v -4.182074 h 8.288855 a 3.3947127,3.3947127 0 0 0 3.394942,-3.397219 V 9.2815095 a 3.3947127,3.3947127 0 0 0 -3.394942,-3.394942 z m 2.607806,3.317368 h 25.261273 a 2.6052449,2.6052449 0 0 1 2.607806,2.6032435 V 29.72872 a 2.6052449,2.6052449 0 0 1 -2.607806,2.605525 H 41.23912 v -7.93065 a 3.3947127,3.3947127 0 0 0 -0.812232,-2.199413 l 0.846453,-0.846453 5.309158,5.309158 1.770481,-1.770477 -5.311439,-5.309158 5.311439,-5.309158 -1.770481,-1.770481 -5.309158,5.309158 -5.309154,-5.309158 -1.770481,1.770481 5.309158,5.309158 -1.43053,1.430529 a 3.3947127,3.3947127 0 0 0 -0.225871,-0.009 H 26.15354 V 11.807307 A 2.6052449,2.6052449 0 0 1 28.761346,9.2040635 Z M 10.214661,24.32602 h 25.261273 a 2.6052449,2.6052449 0 0 1 2.605525,2.603244 v 17.921541 a 2.6052449,2.6052449 0 0 1 -2.605525,2.60781 H 10.214661 A 2.6052449,2.6052449 0 0 1 7.6068545,44.850805 V 26.929264 A 2.6052449,2.6052449 0 0 1 10.214661,24.32602 Z m 3.310522,2.18116 v 0.0047 a 1.3112729,1.3112729 0 0 0 -1.311888,1.316451 v 15.770044 c 0,0.728485 0.587818,1.316452 1.311888,1.316452 h 18.40295 A 1.3112729,1.3112729 0 0 0 33.24002,43.598375 V 27.823768 a 1.3112729,1.3112729 0 0 0 -1.311887,-1.316451 z m 0,4.273335 v 0.0047 h 18.40295 c 0.176601,0 0.326261,0.147526 0.326261,0.328542 v 12.484618 a 0.32671448,0.32671448 0 0 1 -0.326261,0.326261 h -18.40295 a 0.32671448,0.32671448 0 0 1 -0.32626,-0.326261 V 31.109194 c 0,-0.176602 0.145243,-0.328542 0.32626,-0.328542 z"
       style="fill:currentColor;fill-opacity:1;stroke-width:7.89468431" />
  </g>
  <g
     id="osd-sbs-left"
     inkscape:label="#osd-sbs-left"
     transform="translate(-64,-64)">
    <rect
       style="opacity:0.00100002"
       width="64"
       height="64"
       x="0"
       y="0"
       id="rect92-9-5" />
    <path
       id="path829-1-3-1"
       class="ColorScheme-Highlight"
       d="m 56.081058,12.117165 a 3.6379747,3.6379747 0 0 1 3.636719,3.638672 v 24.705077 c 0,2.030507 -1.690823,3.638672 -3.636719,3.638672 h -9.136719 v 4.398438 h 8.458985 v 3.382812 h -15.75586 v 0.002 H 8.0908245 V 48.498074 H 16.803714 V 44.015652 H 7.9189495 A 3.6379747,3.6379747 0 0 1 4.2822234,40.375027 V 15.755837 A 3.6379747,3.6379747 0 0 1 7.9189495,12.117165 H 23.674808 Z m -2.792969,3.554687 H 26.215824 a 2.7919345,2.7919345 0 0 0 -2.792969,2.789062 v 19.207032 a 2.7919345,2.7919345 0 0 0 2.792969,2.792968 h 27.072265 a 2.7919345,2.7919345 0 0 0 2.792969,-2.792968 V 18.460914 a 2.7919345,2.7919345 0 0 0 -2.792969,-2.789062 z m -33.246093,0 h -9.582032 a 2.7919345,2.7919345 0 0 0 -2.7949215,2.791016 v 19.205078 a 2.7919345,2.7919345 0 0 0 2.7949215,2.794922 h 9.582032 a 3.6379747,3.6379747 0 0 1 -0.0039,-0.08789 v -24.61914 a 3.6379747,3.6379747 0 0 1 0.0039,-0.08398 z m 18.974609,2.699219 v 0.0039 a 1.3719683,1.3719683 0 0 1 1.373047,1.376953 v 16.500001 c 0,0.762205 -0.615463,1.376953 -1.373047,1.376953 h -13.6875 v -1.035156 h 13.6875 a 0.34183719,0.34183719 0 0 0 0.341797,-0.341797 V 23.185518 c 0,-0.184778 -0.1524,-0.34375 -0.341797,-0.34375 v 0.0039 h -13.6875 v -4.474609 z m -20.832031,0 v 4.474609 h -5.566407 c -0.184777,0 -0.341796,0.154353 -0.341797,0.34375 v 13.0625 a 0.34183719,0.34183719 0 0 0 0.341797,0.341797 h 5.566407 v 1.035156 H 12.618167 A 1.3719683,1.3719683 0 0 1 11.24512,36.25193 V 19.748024 a 1.3719683,1.3719683 0 0 1 1.373047,-1.376953 z m 14.375,25.728515 h -1.373047 v 4.398438 h 1.373047 z"
       style="fill:currentColor;fill-opacity:1;stroke-width:8.46040916"
       inkscape:connector-curvature="0" />
  </g>
  <g
     id="osd-sbs-sright"
     transform="translate(-128,-64)">
    <rect
       style="opacity:0.00100002"
       width="64"
       height="64"
       x="0"
       y="0"
       id="rect92-9-6" />
    <path
       id="path829-1-3"
       d="m 7.9189441,12.117165 a 3.6379747,3.6379747 0 0 0 -3.636719,3.638672 v 24.705077 c 0,2.030507 1.690823,3.638672 3.636719,3.638672 h 9.1367189 v 4.398438 H 8.5966781 v 3.382812 H 24.352538 v 0.002 h 31.55664 v -3.384762 h -8.71289 v -4.482422 h 8.884765 a 3.6379747,3.6379747 0 0 0 3.636721,-3.640625 V 15.755837 A 3.6379747,3.6379747 0 0 0 56.081053,12.117165 H 40.325194 Z m 2.7929689,3.554687 h 27.072265 a 2.7919345,2.7919345 0 0 1 2.792969,2.789062 v 19.207032 a 2.7919345,2.7919345 0 0 1 -2.792969,2.792968 H 10.711913 A 2.7919345,2.7919345 0 0 1 7.9189441,37.667946 V 18.460914 a 2.7919345,2.7919345 0 0 1 2.7929689,-2.789062 z m 33.246093,0 h 9.582032 a 2.7919345,2.7919345 0 0 1 2.794922,2.791016 v 19.205078 a 2.7919345,2.7919345 0 0 1 -2.794922,2.794922 h -9.582032 a 3.6379747,3.6379747 0 0 0 0.0039,-0.08789 v -24.61914 a 3.6379747,3.6379747 0 0 0 -0.0039,-0.08398 z m -18.974609,2.699219 v 0.0039 a 1.3719683,1.3719683 0 0 0 -1.373047,1.376953 v 16.500001 c 0,0.762205 0.615463,1.376953 1.373047,1.376953 h 13.6875 v -1.035156 h -13.6875 A 0.34183719,0.34183719 0 0 1 24.6416,36.251924 V 23.185518 c 0,-0.184778 0.1524,-0.34375 0.341797,-0.34375 v 0.0039 h 13.6875 v -4.474609 z m 20.832031,0 v 4.474609 h 5.566407 c 0.184777,0 0.341796,0.154353 0.341797,0.34375 v 13.0625 a 0.34183719,0.34183719 0 0 1 -0.341797,0.341797 h -5.566407 v 1.035156 h 5.566407 A 1.3719683,1.3719683 0 0 0 52.754882,36.25193 V 19.748024 a 1.3719683,1.3719683 0 0 0 -1.373047,-1.376953 z m -14.375,25.728515 h 1.373047 v 4.398438 h -1.373047 z"
       style="fill:currentColor;fill-opacity:1;stroke-width:8.46040916"
       class="ColorScheme-Highlight"
       inkscape:connector-curvature="0" />
  </g>
  <g
     id="osd-rotate-cw"
     transform="translate(0,64)">
    <rect
       style="opacity:0.00100002"
       width="64"
       height="64"
       x="0"
       y="0"
       id="rect92-9-7" />
    <path
       inkscape:connector-curvature="0"
       id="path829-6-7"
       class="ColorScheme-Highlight"
       d="m 52.277344,7.118164 a 4.5528737,4.5528737 0 0 1 4.552735,4.552735 V 42.59082 c 0,2.541151 -2.117473,4.550782 -4.552735,4.550782 H 40.841798 v 5.505859 h 10.58789 v 4.234375 H 11.935548 V 52.647461 H 22.839845 V 47.038086 H 11.722657 A 4.5528737,4.5528737 0 0 1 7.1699226,42.481446 V 11.670899 A 4.5528737,4.5528737 0 0 1 11.722657,7.118164 Z M 48.78125,11.567383 H 14.900391 a 3.4940665,3.4940665 0 0 0 -3.496093,3.490234 v 24.03711 a 3.4940665,3.4940665 0 0 0 3.496093,3.496093 H 48.78125 a 3.4940665,3.4940665 0 0 0 3.496094,-3.496093 V 15.057617 A 3.4940665,3.4940665 0 0 0 48.78125,11.567383 Z m -18.384765,4.181641 a 13.311049,13.330146 0 0 1 12.556641,9.017578 l 0.617187,-0.226563 3.341797,-1.230469 -3.189453,6.894532 -6.888672,-3.189453 3.367188,-1.240235 0.757812,-0.277344 a 11.181282,11.197323 0 0 0 -10.5625,-7.615234 11.181282,11.197323 0 0 0 -11.18164,11.197266 11.181282,11.197323 0 0 0 5.308593,9.509765 l -1.380859,1.660157 A 13.311049,13.330146 0 0 1 17.087891,29.079102 13.311049,13.330146 0 0 1 30.396485,15.749024 Z"
       style="fill:currentColor;fill-opacity:1;stroke-width:10.58808041" />
  </g>
  <g
     id="osd-rotate-ccw"
     transform="translate(64)">
    <rect
       style="opacity:0.00100002"
       width="64"
       height="64"
       x="0"
       y="0"
       id="rect92-9-7-3" />
    <path
       inkscape:connector-curvature="0"
       id="path829-6-7-0"
       class="ColorScheme-Highlight"
       d="M 11.722656,7.118164 A 4.5528737,4.5528737 0 0 0 7.169921,11.670899 V 42.59082 c 0,2.541151 2.117473,4.550782 4.552735,4.550782 h 11.435546 v 5.505859 h -10.58789 v 4.234375 h 39.49414 V 52.647461 H 41.160155 v -5.609375 h 11.117188 a 4.5528737,4.5528737 0 0 0 4.552734,-4.55664 V 11.670899 A 4.5528737,4.5528737 0 0 0 52.277343,7.118164 Z m 3.496094,4.449219 h 33.880859 a 3.4940665,3.4940665 0 0 1 3.496093,3.490234 v 24.03711 A 3.4940665,3.4940665 0 0 1 49.099609,42.59082 H 15.21875 a 3.4940665,3.4940665 0 0 1 -3.496094,-3.496093 v -24.03711 a 3.4940665,3.4940665 0 0 1 3.496094,-3.490234 z m 18.384765,4.181641 a 13.311049,13.330146 0 0 0 -12.556641,9.017578 l -0.617187,-0.226563 -3.341797,-1.230469 3.189453,6.894532 6.888672,-3.189453 -3.367188,-1.240235 -0.757812,-0.277344 a 11.181282,11.197323 0 0 1 10.5625,-7.615234 11.181282,11.197323 0 0 1 11.18164,11.197266 11.181282,11.197323 0 0 1 -5.308593,9.509765 l 1.380859,1.660157 A 13.311049,13.330146 0 0 0 46.912109,29.079102 13.311049,13.330146 0 0 0 33.603515,15.749024 Z"
       style="fill:currentColor;fill-opacity:1;stroke-width:10.58808041" />
  </g>
  <g
     id="osd-rotate-flip"
     transform="translate(0,-64)">
    <rect
       style="opacity:0.00100002"
       width="64"
       height="64"
       x="0"
       y="0"
       id="rect92-9-7-3-8" />
    <path
       inkscape:connector-curvature="0"
       id="path829-6"
       class="ColorScheme-Highlight"
       d="M 11.722658,7.1171875 A 4.5528737,4.5528737 0 0 0 7.1699182,11.669923 v 30.919921 c 0,2.541151 2.11748,4.552734 4.5527398,4.552734 h 11.43554 v 5.503906 h -10.58789 v 4.236328 h 39.49414 v -4.236328 h -10.90429 v -5.607422 h 11.11718 a 4.5528737,4.5528737 0 0 0 4.55274,-4.558593 V 11.669923 a 4.5528737,4.5528737 0 0 0 -4.55274,-4.5527355 z m 3.49609,4.4492185 h 33.87891 a 3.4940665,3.4940665 0 0 1 3.49804,3.490236 V 39.09375 a 3.4940665,3.4940665 0 0 1 -3.49804,3.496095 H 15.218748 A 3.4940665,3.4940665 0 0 1 11.722658,39.09375 V 15.056642 a 3.4940665,3.4940665 0 0 1 3.49609,-3.490236 z m 16.78125,6.232422 -4.26172,4.261719 h 2.83985 0.30078 v 11.878906 h -0.30078 -2.83985 l 4.26172,4.259766 4.25977,-4.259766 h -2.83985 -0.30078 V 22.060547 h 0.30078 2.83985 z"
       style="fill:currentColor;fill-opacity:1;stroke-width:10.58808041" />
  </g>
  <g
     id="osd-rotate-normal">
    <rect
       id="rect92-9-7-3-8-8"
       y="0"
       x="0"
       height="64"
       width="64"
       style="opacity:0.00100002" />
    <path
       inkscape:connector-curvature="0"
       id="path829-6-2"
       class="ColorScheme-Highlight"
       d="m 11.722659,7.118164 a 4.5528737,4.5528737 0 0 0 -4.5527398,4.552735 v 30.919922 c 0,2.541151 2.11748,4.550781 4.5527398,4.550781 h 11.43555 v 5.505859 h -10.5879 v 4.234375 h 39.49415 v -4.234375 h -10.90625 v -5.609375 h 11.11914 a 4.5528737,4.5528737 0 0 0 4.55273,-4.55664 V 11.670899 a 4.5528737,4.5528737 0 0 0 -4.55273,-4.552735 z m 3.49609,4.449219 h 33.87891 a 3.4940665,3.4940665 0 0 1 3.49609,3.490234 v 24.03711 a 3.4940665,3.4940665 0 0 1 -3.49609,3.496094 h -33.87891 a 3.4940665,3.4940665 0 0 1 -3.49609,-3.496094 v -24.03711 a 3.4940665,3.4940665 0 0 1 3.49609,-3.490234 z m 6.2793,3.927734 v 0.0039 a 1.4966926,1.4966926 0 0 0 -1.49805,1.503906 v 18 c 0,0.831493 0.67159,1.501953 1.49805,1.501953 h 21.00391 a 1.4966926,1.4966926 0 0 0 1.49804,-1.501953 V 16.997064 a 1.4966926,1.4966926 0 0 0 -1.49804,-1.501954 z m 0,4.876954 v 0.0059 h 21.00391 c 0.20158,0 0.37304,0.168386 0.37304,0.375 v 14.25 a 0.37291331,0.37291331 0 0 1 -0.37304,0.371094 h -21.00391 a 0.37291331,0.37291331 0 0 1 -0.37305,-0.371094 V 20.747112 c 0,-0.201574 0.16644,-0.375 0.37305,-0.375 z"
       style="fill:currentColor;fill-opacity:1;stroke-width:10.58808041" />
  </g>
  <path
     style="font-style:normal;font-variant:normal;font-weight:normal;font-stretch:normal;font-size:16px;line-height:1.25;font-family:'Abyssinica SIL';-inkscape-font-specification:'Abyssinica SIL';letter-spacing:0px;word-spacing:0px;fill:#ffffff;fill-opacity:1;stroke:none;stroke-width:0.41620618"
     d="m -41.218649,-116.22607 c -0.0522,0 -0.10131,0.0117 -0.14746,0.0351 -0.0461,0.0211 -0.0873,0.0515 -0.12338,0.0913 -0.0341,0.0398 -0.0612,0.0867 -0.0813,0.14054 -0.0201,0.0539 -0.0301,0.11125 -0.0301,0.17215 0,0.0609 0.01,0.11946 0.0301,0.17567 0.0201,0.0539 0.0471,0.10072 0.0813,0.14054 0.0361,0.0398 0.0772,0.0714 0.12338,0.0949 0.0462,0.0234 0.0953,0.0351 0.14746,0.0351 0.0522,0 0.10132,-0.0117 0.14746,-0.0351 0.0461,-0.0234 0.0863,-0.055 0.12037,-0.0949 0.0341,-0.0398 0.0602,-0.0867 0.0783,-0.14054 0.0201,-0.0562 0.0301,-0.11477 0.0301,-0.17567 0,-0.0609 -0.01,-0.11828 -0.0301,-0.17215 -0.0181,-0.0539 -0.0441,-0.10072 -0.0783,-0.14054 -0.0341,-0.0398 -0.0742,-0.0703 -0.12037,-0.0913 -0.0461,-0.0234 -0.0953,-0.0351 -0.14746,-0.0351 z m 12.7265,0.52701 c -0.21065,0 -0.40526,0.0422 -0.58381,0.12648 -0.17655,0.0843 -0.32902,0.22017 -0.45742,0.40755 -0.12639,0.18738 -0.2257,0.43332 -0.29792,0.73781 -0.0722,0.30215 -0.10834,0.67106 -0.10834,1.10672 0,0.438 0.0371,0.79871 0.11135,1.08212 0.0742,0.28107 0.17353,0.50359 0.29792,0.66754 0.12439,0.16396 0.26783,0.27873 0.43034,0.34432 0.1625,0.0632 0.33203,0.0949 0.50857,0.0949 0.17655,0 0.34808,-0.0304 0.5146,-0.0913 0.16852,-0.0609 0.31699,-0.15459 0.44538,-0.28107 0.1284,-0.12648 0.23172,-0.28693 0.30997,-0.48133 0.0782,-0.19441 0.11736,-0.42512 0.11736,-0.69214 0,-0.17801 -0.0181,-0.33729 -0.0542,-0.47782 -0.0341,-0.14054 -0.0812,-0.26351 -0.14144,-0.36891 -0.0582,-0.10774 -0.12739,-0.19792 -0.20764,-0.27053 -0.0782,-0.075 -0.1615,-0.13585 -0.24978,-0.18269 -0.0883,-0.0469 -0.17855,-0.0808 -0.27084,-0.10189 -0.0923,-0.0211 -0.18056,-0.0316 -0.26482,-0.0316 -0.11034,0 -0.21166,0.0117 -0.30394,0.0351 -0.0923,0.0234 -0.17555,0.055 -0.24978,0.0949 -0.0742,0.0375 -0.13943,0.082 -0.19561,0.13351 -0.0562,0.0515 -0.10432,0.1054 -0.14444,0.16162 0.0301,-0.32323 0.0672,-0.58557 0.11134,-0.787 0.0462,-0.20144 0.10132,-0.35837 0.16552,-0.4708 0.0642,-0.11242 0.13943,-0.18855 0.2257,-0.22837 0.0863,-0.0398 0.18357,-0.0597 0.2919,-0.0597 0.0943,0 0.17254,0.0187 0.23473,0.0562 0.0622,0.0375 0.11235,0.0855 0.15047,0.14405 0.0381,0.0562 0.0642,0.12063 0.0782,0.19324 0.0161,0.0703 0.0241,0.13819 0.0241,0.20377 h 0.65302 c 0,-0.1499 -0.0271,-0.28927 -0.0813,-0.41809 -0.0542,-0.12882 -0.13141,-0.24125 -0.23172,-0.33729 -0.10031,-0.096 -0.22068,-0.17098 -0.36112,-0.22485 -0.14044,-0.0562 -0.29592,-0.0843 -0.46645,-0.0843 z m -6.79208,0.13351 c -0.0241,0.0375 -0.0702,0.0902 -0.13843,0.1581 -0.0682,0.0679 -0.14445,0.13936 -0.22871,0.21431 -0.0843,0.0726 -0.17153,0.14171 -0.26181,0.20729 -0.0883,0.0656 -0.16652,0.11477 -0.23473,0.14757 v 0.69213 c 0.0602,-0.0211 0.13041,-0.0504 0.21065,-0.0878 0.0802,-0.0398 0.16151,-0.0831 0.24376,-0.13 0.0823,-0.0492 0.1605,-0.10071 0.23473,-0.15459 0.0762,-0.0562 0.14044,-0.11242 0.1926,-0.16864 v 3.55555 h 0.62895 v -4.43389 z m 3.55704,0 -1.57087,2.62801 v 0.85726 h 1.81162 v 0.94862 h 0.62293 v -0.94862 h 0.40626 v -0.64295 h -0.40626 v -2.84232 z m 6.65666,0 -1.57087,2.62801 v 0.85726 h 1.81162 v 0.94862 h 0.62293 v -0.94862 h 0.40626 v -0.64295 h -0.40626 v -2.84232 z m -6.41591,0.53403 v 2.30829 h -1.34518 z m 6.65666,0 v 2.30829 h -1.34518 z m -16.33169,0.34431 -0.75835,0.27405 v 0.23891 h 0.43635 v 3.19366 c 0,0.1382 -0.005,0.26936 -0.015,0.3935 -0.008,0.12648 -0.0241,0.24008 -0.0482,0.3408 -0.0221,0.10306 -0.0522,0.19089 -0.0903,0.26351 -0.0381,0.075 -0.0853,0.13116 -0.14143,0.16864 l -0.59886,-0.48134 c -0.0301,0.0117 -0.0612,0.0281 -0.0933,0.0492 -0.0321,0.0234 -0.0602,0.0515 -0.0843,0.0843 -0.0261,0.0351 -0.0471,0.075 -0.0632,0.11946 -0.0161,0.0468 -0.0241,0.10071 -0.0241,0.16161 0,0.0679 0.013,0.12649 0.0391,0.17567 0.0241,0.0515 0.0582,0.0937 0.10231,0.12648 0.0421,0.0328 0.0913,0.0562 0.14746,0.0703 0.0562,0.0164 0.11636,0.0246 0.18056,0.0246 0.19461,0 0.38118,-0.055 0.55974,-0.16513 0.18056,-0.10775 0.33404,-0.27522 0.46043,-0.50242 0.0522,-0.096 0.0943,-0.20495 0.12639,-0.32674 0.0321,-0.1218 0.0562,-0.24711 0.0722,-0.37593 0.0181,-0.12883 0.0301,-0.25648 0.0361,-0.38296 0.006,-0.12883 0.009,-0.24711 0.009,-0.35486 v -3.09529 z m 1.69426,0 -0.75836,0.28107 v 0.24594 h 0.43034 v 1.94993 c 0,0.20378 0.0191,0.37944 0.0572,0.52701 0.0401,0.14522 0.0963,0.26584 0.16852,0.36188 0.0742,0.0937 0.16351,0.16278 0.26783,0.20729 0.10633,0.0468 0.2257,0.0703 0.35811,0.0703 0.0903,0 0.18257,-0.0176 0.27686,-0.0527 0.0963,-0.0328 0.18759,-0.0738 0.27385,-0.12297 0.0883,-0.0515 0.16953,-0.10657 0.24376,-0.16513 0.0762,-0.0585 0.14044,-0.11125 0.1926,-0.1581 v 0.41107 h 0.97803 v -0.28107 l -0.27084,-0.0211 c -0.0361,-0.005 -0.0682,-0.0211 -0.0963,-0.0492 -0.0261,-0.0281 -0.0391,-0.0644 -0.0391,-0.10892 v -3.09529 h -0.25278 l -0.75234,0.28107 v 0.24594 h 0.43335 v 2.41018 c -0.0361,0.0211 -0.0802,0.0445 -0.13241,0.0703 -0.0502,0.0234 -0.10433,0.0469 -0.16251,0.0703 -0.0582,0.0211 -0.11937,0.0386 -0.18357,0.0527 -0.0642,0.014 -0.12739,0.0211 -0.18959,0.0211 -0.10833,0 -0.20062,-0.0176 -0.27686,-0.0527 -0.0762,-0.0375 -0.13843,-0.0913 -0.18657,-0.16162 -0.0462,-0.0703 -0.0802,-0.15576 -0.10232,-0.25647 -0.0201,-0.10072 -0.0301,-0.21432 -0.0301,-0.3408 v -2.33992 z m 10.90284,1.04348 c 0.0983,0 0.19059,0.0269 0.27686,0.0808 0.0863,0.0515 0.1605,0.12296 0.22269,0.21431 0.0642,0.089 0.11435,0.19441 0.15047,0.31621 0.0381,0.12179 0.0572,0.25179 0.0572,0.38998 0,0.1382 -0.0191,0.26936 -0.0572,0.3935 -0.0361,0.1218 -0.0863,0.22837 -0.15047,0.31972 -0.0622,0.0914 -0.13642,0.16396 -0.22269,0.21783 -0.0863,0.0515 -0.17856,0.0773 -0.27686,0.0773 -0.0963,0 -0.18758,-0.0258 -0.27385,-0.0773 -0.0863,-0.0539 -0.16251,-0.12648 -0.22871,-0.21783 -0.0642,-0.0913 -0.11536,-0.19792 -0.15348,-0.31972 -0.0361,-0.12414 -0.0542,-0.2553 -0.0542,-0.3935 0,-0.13819 0.0181,-0.26819 0.0542,-0.38998 0.0381,-0.1218 0.0893,-0.2272 0.15348,-0.31621 0.0662,-0.0913 0.14244,-0.16279 0.22871,-0.21431 0.0863,-0.0539 0.17755,-0.0808 0.27385,-0.0808 z"
     id="text843"
     inkscape:connector-curvature="0" />
</svg>
