/* XPM */
static char * maximize_active_xpm[] = {
"32 32 22 1",
" 	c None",
".	c #323232",
"+	c #1C1C1C",
"@	c #343434",
"#	c #696969",
"$	c #8D8D8D",
"%	c #9E9E9E",
"&	c #333333",
"*	c #202020",
"=	c #6C6C6C",
"-	c #A3A3A3",
";	c #A4A4A4",
">	c #A2A2A2",
",	c #6B6B6B",
"'	c #818181",
")	c #6D6D6D",
"!	c #6A6A6A",
"~	c #686868",
"{	c #8E8E8E",
"]	c #9D9D9D",
"^	c #808080",
"/	c #1F1F1F",
"................................",
"++++++++++++++++++++++++++++++++",
"++++++++++++++++++++++++++++++++",
"++++++++++++++++++++++++++++++++",
"++++++++++++++++++++++++++++++++",
"++++++++++++++++++++++++++++++++",
"++++++++++++++++++++++++++++++++",
"++++++++++++++++++++++++++++++++",
"++++++++++++@#$%%$#&++++++++++++",
"++++++++++*=-;;;;;;>,*++++++++++",
"+++++++++*';;;;;;;;;;'*+++++++++",
"+++++++++);;;;;;;;;;;;!+++++++++",
"++++++++@-;;;;;;;;;;;;>&++++++++",
"++++++++#;;;;;;;;;;;;;;~++++++++",
"++++++++{;;;;;;;;;;;;;;$++++++++",
"++++++++%;;;;;;;;;;;;;;]++++++++",
"++++++++];;;;;;;;;;;;;;]++++++++",
"++++++++{;;;;;;;;;;;;;;$++++++++",
"++++++++#;;;;;;;;;;;;;;~++++++++",
"++++++++&>;;;;;;;;;;;;>.++++++++",
"+++++++++,;;;;;;;;;;;;#+++++++++",
"+++++++++*';;;;;;;;;;^/+++++++++",
"++++++++++*!>;;;;;;>#/++++++++++",
"++++++++++++&~$%%$~.++++++++++++",
"++++++++++++++++++++++++++++++++",
"++++++++++++++++++++++++++++++++",
"++++++++++++++++++++++++++++++++",
"++++++++++++++++++++++++++++++++",
"++++++++++++++++++++++++++++++++",
"++++++++++++++++++++++++++++++++",
"++++++++++++++++++++++++++++++++",
"++++++++++++++++++++++++++++++++"};
