/* XPM */
static char * stick_prelight_xpm[] = {
"32 32 44 1",
" 	c None",
".	c #323232",
"+	c #1C1C1C",
"@	c #373737",
"#	c #747474",
"$	c #9D9D9D",
"%	c #B0B0B0",
"&	c #737373",
"*	c #202020",
"=	c #787878",
"-	c #B6B6B6",
";	c #B7B7B7",
">	c #B5B5B5",
",	c #767676",
"'	c #1F1F1F",
")	c #8F8F8F",
"!	c #B1B1B1",
"~	c #777777",
"{	c #707070",
"]	c #2A2A2A",
"^	c #2F2F2F",
"/	c #7C7C7C",
"(	c #757575",
"_	c #6B6B6B",
":	c #7D7D7D",
"<	c #363636",
"[	c #B4B4B4",
"}	c #212121",
"|	c #727272",
"1	c #9E9E9E",
"2	c #ADADAD",
"3	c #9C9C9C",
"4	c #AFAFAF",
"5	c #AEAEAE",
"6	c #272727",
"7	c #515151",
"8	c #8D8D8D",
"9	c #282828",
"0	c #525252",
"a	c #6C6C6C",
"b	c #8E8E8E",
"c	c #939393",
"d	c #353535",
"e	c #5B5B5B",
"................................",
"++++++++++++++++++++++++++++++++",
"++++++++++++++++++++++++++++++++",
"++++++++++++++++++++++++++++++++",
"++++++++++++++++++++++++++++++++",
"++++++++++++++++++++++++++++++++",
"++++++++++++++++++++++++++++++++",
"++++++++++++++++++++++++++++++++",
"++++++++++++@#$%%$&@++++++++++++",
"++++++++++*=-;;;;;;>,'++++++++++",
"+++++++++*);;;;;;!;;;)'+++++++++",
"+++++++++~;;;;>{]+^/;;(+++++++++",
"++++++++@-;;;;_+++++:;><++++++++",
"++++++++&;;;;[}+++++]-;|++++++++",
"++++++++1;;;;1+++++++2;3++++++++",
"++++++++4;;;;5'+++++6-;4++++++++",
"++++++++4;;;;;7+++++|;;4++++++++",
"++++++++1;;;;890'+}a-;;3++++++++",
"++++++++&;;;89b;434;;;;|++++++++",
"++++++++@>;c98;;;;;;;;>d++++++++",
"+++++++++,-ec;;;;;;;;;#+++++++++",
"+++++++++'8;;;;;;;;;;8'+++++++++",
"++++++++++'(>;;;;;;>#'++++++++++",
"++++++++++++<|3443|d++++++++++++",
"++++++++++++++++++++++++++++++++",
"++++++++++++++++++++++++++++++++",
"++++++++++++++++++++++++++++++++",
"++++++++++++++++++++++++++++++++",
"++++++++++++++++++++++++++++++++",
"++++++++++++++++++++++++++++++++",
"++++++++++++++++++++++++++++++++",
"++++++++++++++++++++++++++++++++"};
