/* XPM */
static char * shade_toggled_prelight_xpm[] = {
"32 32 26 1",
" 	c None",
".	c #2F794E",
"+	c #186A3B",
"@	c #1B713C",
"#	c #24813F",
"$	c #298B40",
"%	c #2C9041",
"&	c #24803F",
"*	c #196B3B",
"=	c #2C9242",
"-	c #2C9241",
";	c #196B3C",
">	c #27873F",
",	c #24823F",
"'	c #23813E",
")	c #227E3E",
"!	c #186B3B",
"~	c #25843F",
"{	c #26853F",
"]	c #217C3E",
"^	c #298C40",
"/	c #298B41",
"(	c #2B9041",
"_	c #23803F",
":	c #278840",
"<	c #278740",
"................................",
"++++++++++++++++++++++++++++++++",
"++++++++++++++++++++++++++++++++",
"++++++++++++++++++++++++++++++++",
"++++++++++++++++++++++++++++++++",
"++++++++++++++++++++++++++++++++",
"++++++++++++++++++++++++++++++++",
"++++++++++++++++++++++++++++++++",
"++++++++++++@#$%%$&@++++++++++++",
"++++++++++*#=------=#;++++++++++",
"+++++++++*>---------->;+++++++++",
"+++++++++,------------'+++++++++",
"++++++++@=-$--------$-=@++++++++",
"++++++++#-)!~------{+]-&++++++++",
"++++++++^-)++{----{++)-/++++++++",
"++++++++(--_+!~--{++)--(++++++++",
"++++++++(---_+!~{++)---(++++++++",
"++++++++^----)++++)----/++++++++",
"++++++++&-----_++)-----'++++++++",
"++++++++@=-----))-----=@++++++++",
"+++++++++#------------#+++++++++",
"+++++++++;:----------<!+++++++++",
"++++++++++;'=------=#!++++++++++",
"++++++++++++@&/((/'@++++++++++++",
"++++++++++++++++++++++++++++++++",
"++++++++++++++++++++++++++++++++",
"++++++++++++++++++++++++++++++++",
"++++++++++++++++++++++++++++++++",
"++++++++++++++++++++++++++++++++",
"++++++++++++++++++++++++++++++++",
"++++++++++++++++++++++++++++++++",
"++++++++++++++++++++++++++++++++"};
