/* XPM */
static char * stick_prelight_xpm[] = {
"32 32 33 1",
" 	c None",
".	c #2F794E",
"+	c #186A3B",
"@	c #1B713C",
"#	c #24813F",
"$	c #298B40",
"%	c #2C9041",
"&	c #24803F",
"*	c #196B3B",
"=	c #2C9242",
"-	c #2C9241",
";	c #196B3C",
">	c #27873F",
",	c #24823F",
"'	c #237F3E",
")	c #1A6E3C",
"!	c #1B6F3C",
"~	c #24833E",
"{	c #23813E",
"]	c #227E3E",
"^	c #25823F",
"/	c #298C40",
"(	c #2B9041",
"_	c #298B41",
":	c #196D3B",
"<	c #1F773D",
"[	c #278740",
"}	c #1F783D",
"|	c #237E3F",
"1	c #278840",
"2	c #288940",
"3	c #207B3D",
"4	c #186B3B",
"................................",
"++++++++++++++++++++++++++++++++",
"++++++++++++++++++++++++++++++++",
"++++++++++++++++++++++++++++++++",
"++++++++++++++++++++++++++++++++",
"++++++++++++++++++++++++++++++++",
"++++++++++++++++++++++++++++++++",
"++++++++++++++++++++++++++++++++",
"++++++++++++@#$%%$&@++++++++++++",
"++++++++++*#=------=#;++++++++++",
"+++++++++*>------%--->;+++++++++",
"+++++++++,----=')+!~--{+++++++++",
"++++++++@=----]+++++^-=@++++++++",
"++++++++&----%*+++++)--&++++++++",
"++++++++/----$+++++++(-_++++++++",
"++++++++(----(++++++:=-(++++++++",
"++++++++(-----<+++++{--(++++++++",
"++++++++/----[:}++*|=--_++++++++",
"++++++++&---[:1-(_(----&++++++++",
"++++++++@=-2:[--------=@++++++++",
"+++++++++#-32---------#+++++++++",
"+++++++++;[----------[4+++++++++",
"++++++++++;{=------=#4++++++++++",
"++++++++++++@&_((_{@++++++++++++",
"++++++++++++++++++++++++++++++++",
"++++++++++++++++++++++++++++++++",
"++++++++++++++++++++++++++++++++",
"++++++++++++++++++++++++++++++++",
"++++++++++++++++++++++++++++++++",
"++++++++++++++++++++++++++++++++",
"++++++++++++++++++++++++++++++++",
"++++++++++++++++++++++++++++++++"};
