<?xml version="1.0" encoding="UTF-8" standalone="no"?>
<svg
   xmlns:dc="http://purl.org/dc/elements/1.1/"
   xmlns:cc="http://creativecommons.org/ns#"
   xmlns:rdf="http://www.w3.org/1999/02/22-rdf-syntax-ns#"
   xmlns:svg="http://www.w3.org/2000/svg"
   xmlns="http://www.w3.org/2000/svg"
   xmlns:sodipodi="http://sodipodi.sourceforge.net/DTD/sodipodi-0.dtd"
   xmlns:inkscape="http://www.inkscape.org/namespaces/inkscape"
   id="svg4306"
   width="22"
   height="22"
   version="1.1"
   style="enable-background:new"
   sodipodi:docname="alldesktops.svg"
   inkscape:version="0.92.4 (5da689c313, 2019-01-14)">
  <metadata
     id="metadata24">
    <rdf:RDF>
      <cc:Work
         rdf:about="">
        <dc:format>image/svg+xml</dc:format>
        <dc:type
           rdf:resource="http://purl.org/dc/dcmitype/StillImage" />
        <dc:title />
      </cc:Work>
    </rdf:RDF>
  </metadata>
  <defs
     id="defs22" />
  <sodipodi:namedview
     pagecolor="#ffffff"
     bordercolor="#666666"
     borderopacity="1"
     objecttolerance="10"
     gridtolerance="10"
     guidetolerance="10"
     inkscape:pageopacity="0"
     inkscape:pageshadow="2"
     inkscape:window-width="1366"
     inkscape:window-height="707"
     id="namedview20"
     showgrid="true"
     inkscape:zoom="2.9488636"
     inkscape:cx="11"
     inkscape:cy="6.2042083"
     inkscape:window-x="0"
     inkscape:window-y="0"
     inkscape:window-maximized="1"
     inkscape:current-layer="svg4306">
    <inkscape:grid
       type="xygrid"
       id="grid945" />
  </sodipodi:namedview>
  <g
     id="active-center"
     transform="translate(-22)">
    <path
       inkscape:connector-curvature="0"
       d="m 11.000041,21.95759 c 6.051736,0 10.957538,-4.905876 10.957538,-10.957685 0,-6.0515762 -4.905802,-10.95748298 -10.957538,-10.95748298 -6.0517104,0 -10.95762989,4.90590678 -10.95762989,10.95748298 0,6.051809 4.90591949,10.957685 10.95762989,10.957685"
       style="fill:#000000;fill-opacity:0;fill-rule:evenodd;stroke:none;stroke-width:0.02563604;enable-background:new"
       id="path14-3" />
    <g
       id="window-pin"
       transform="matrix(1.7475445,0,0,1.7475445,-23.935377,-9.9860513)"
       style="fill:#ebebeb;fill-opacity:1;enable-background:new">
      <path
         style="color:#7b7c7e;fill:#ebebeb;fill-opacity:1;stroke-width:0.57531118"
         d="m 21.127701,7.9957422 a 2.8765575,2.8765575 0 0 0 -2.876562,2.8765578 2.8765575,2.8765575 0 0 0 0.576434,1.724807 l -2.274279,2.274278 -0.57531,1.150632 1.15063,-0.57531 2.275402,-2.275403 a 2.8765575,2.8765575 0 0 0 1.723685,0.577555 2.8765575,2.8765575 0 0 0 2.876561,-2.876559 2.8765575,2.8765575 0 0 0 -2.876561,-2.8765578 z"
         id="path831"
         inkscape:connector-curvature="0" />
    </g>
  </g>
  <g
     id="hover-center"
     style="fill:#ebebeb;fill-opacity:1">
    <path
       id="path14-3-5"
       d="M 11,0.04296875 C 4.9482896,0.04296875 0.04296875,4.9484238 0.04296875,11 0.04296875,17.051809 4.9482896,21.957031 11,21.957031 17.051736,21.957031 21.957031,17.051809 21.957031,11 21.957031,4.9484238 17.051736,0.04296875 11,0.04296875 Z M 12.986328,3.9863281 A 5.0269122,5.0269122 0 0 1 18.013672,9.0136719 5.0269122,5.0269122 0 0 1 12.986328,14.041016 5.0269122,5.0269122 0 0 1 9.9746094,13.03125 l -3.9765625,3.976562 -2.0117188,1.00586 1.0058594,-2.011719 3.9746094,-3.974609 A 5.0269122,5.0269122 0 0 1 7.9589844,9.0136719 5.0269122,5.0269122 0 0 1 12.986328,3.9863281 Z"
       style="fill:#ebebeb;fill-opacity:1;fill-rule:evenodd;stroke:none;stroke-width:0.02563604;enable-background:new"
       inkscape:connector-curvature="0" />
  </g>
  <g
     id="pressed-center"
     transform="translate(22)">
    <circle
       r="5"
       cy="11"
       cx="11"
       id="path1026"
       style="opacity:1;fill:#ebebeb;fill-opacity:1;fill-rule:evenodd;stroke:none;stroke-width:0.27272725;stroke-linejoin:miter;stroke-miterlimit:4;stroke-dasharray:none;stroke-opacity:1" />
    <path
       inkscape:connector-curvature="0"
       d="m 11.000041,21.95759 c 6.051736,0 10.957538,-4.905876 10.957538,-10.957685 0,-6.0515762 -4.905802,-10.95748298 -10.957538,-10.95748298 -6.0517104,0 -10.95762989,4.90590678 -10.95762989,10.95748298 0,6.051809 4.90591949,10.957685 10.95762989,10.957685"
       style="fill:#000000;fill-opacity:0;fill-rule:evenodd;stroke:none;stroke-width:0.02563604;enable-background:new"
       id="path14-3-1" />
  </g>
  <g
     style="fill:#808080;enable-background:new"
     id="inactive-center"
     transform="translate(44)">
    <path
       inkscape:connector-curvature="0"
       d="m 11.000041,21.95759 c 6.051736,0 10.957538,-4.905876 10.957538,-10.957685 0,-6.0515762 -4.905802,-10.95748298 -10.957538,-10.95748298 -6.0517104,0 -10.95762989,4.90590678 -10.95762989,10.95748298 0,6.051809 4.90591949,10.957685 10.95762989,10.957685"
       style="fill:#808080;fill-opacity:0;fill-rule:evenodd;stroke:none;stroke-width:0.02563604;enable-background:new"
       id="path14-3-9" />
    <g
       id="window-pin-3"
       transform="matrix(1.7475445,0,0,1.7475445,-23.935377,-9.9860513)"
       style="fill:#808080;fill-opacity:1;enable-background:new">
      <path
         style="color:#7b7c7e;fill:#808080;fill-opacity:1;stroke-width:0.57531118"
         d="m 21.127701,7.9957422 a 2.8765575,2.8765575 0 0 0 -2.876562,2.8765578 2.8765575,2.8765575 0 0 0 0.576434,1.724807 l -2.274279,2.274278 -0.57531,1.150632 1.15063,-0.57531 2.275402,-2.275403 a 2.8765575,2.8765575 0 0 0 1.723685,0.577555 2.8765575,2.8765575 0 0 0 2.876561,-2.876559 2.8765575,2.8765575 0 0 0 -2.876561,-2.8765578 z"
         id="path831-6"
         inkscape:connector-curvature="0" />
    </g>
  </g>
  <g
     style="fill:#808080;enable-background:new"
     id="deactivated-center"
     transform="translate(66)">
    <path
       inkscape:connector-curvature="0"
       d="m 11.000041,21.95759 c 6.051736,0 10.957538,-4.905876 10.957538,-10.957685 0,-6.0515762 -4.905802,-10.95748298 -10.957538,-10.95748298 -6.0517104,0 -10.95762989,4.90590678 -10.95762989,10.95748298 0,6.051809 4.90591949,10.957685 10.95762989,10.957685"
       style="fill:#808080;fill-opacity:0;fill-rule:evenodd;stroke:none;stroke-width:0.02563604;enable-background:new"
       id="path14-3-9-6" />
    <g
       id="window-pin-3-2"
       transform="matrix(1.7475445,0,0,1.7475445,-23.935377,-9.9860513)"
       style="fill:#808080;fill-opacity:1;enable-background:new">
      <path
         style="color:#7b7c7e;fill:#808080;fill-opacity:1;stroke-width:0.57531118"
         d="m 21.127701,7.9957422 a 2.8765575,2.8765575 0 0 0 -2.876562,2.8765578 2.8765575,2.8765575 0 0 0 0.576434,1.724807 l -2.274279,2.274278 -0.57531,1.150632 1.15063,-0.57531 2.275402,-2.275403 a 2.8765575,2.8765575 0 0 0 1.723685,0.577555 2.8765575,2.8765575 0 0 0 2.876561,-2.876559 2.8765575,2.8765575 0 0 0 -2.876561,-2.8765578 z"
         id="path831-6-6"
         inkscape:connector-curvature="0" />
    </g>
  </g>
</svg>
