<?xml version="1.0" encoding="UTF-8" standalone="no"?>
<svg
   xmlns:dc="http://purl.org/dc/elements/1.1/"
   xmlns:cc="http://creativecommons.org/ns#"
   xmlns:rdf="http://www.w3.org/1999/02/22-rdf-syntax-ns#"
   xmlns:svg="http://www.w3.org/2000/svg"
   xmlns="http://www.w3.org/2000/svg"
   xmlns:xlink="http://www.w3.org/1999/xlink"
   xmlns:sodipodi="http://sodipodi.sourceforge.net/DTD/sodipodi-0.dtd"
   xmlns:inkscape="http://www.inkscape.org/namespaces/inkscape"
   width="100"
   height="80"
   version="1"
   id="svg38"
   sodipodi:docname="action-overlays.svg"
   inkscape:version="0.92.4 (5da689c313, 2019-01-14)">
  <metadata
     id="metadata42">
    <rdf:RDF>
      <cc:Work
         rdf:about="">
        <dc:format>image/svg+xml</dc:format>
        <dc:type
           rdf:resource="http://purl.org/dc/dcmitype/StillImage" />
        <dc:title></dc:title>
      </cc:Work>
    </rdf:RDF>
  </metadata>
  <sodipodi:namedview
     pagecolor="#ffffff"
     bordercolor="#666666"
     borderopacity="1"
     objecttolerance="10"
     gridtolerance="10"
     guidetolerance="10"
     inkscape:pageopacity="0"
     inkscape:pageshadow="2"
     inkscape:window-width="1366"
     inkscape:window-height="708"
     id="namedview40"
     showgrid="false"
     inkscape:zoom="1.8115942"
     inkscape:cx="40"
     inkscape:cy="39.5"
     inkscape:window-x="0"
     inkscape:window-y="0"
     inkscape:window-maximized="1"
     inkscape:current-layer="svg38" />
  <defs
     id="defs10">
    <style
       type="text/css"
       id="current-color-scheme">
      .ColorScheme-Text {
        color:#00ff00;
      }
      .ColorScheme-Background {
        color:#ff0000;
      }
      .ColorScheme-Highlight {
        color:#0000ff;
      }
      .ColorScheme-ButtonHover {
        color:#ffff00;
      }
      .ColorScheme-ButtonFocus{
        color:#ff00ff;
      }
  </style>
    <linearGradient
       id="a">
      <stop
         offset="0"
         stop-color="#e6e6e6"
         id="stop2" />
      <stop
         offset="1"
         stop-color="#e6e6e6"
         stop-opacity="0"
         id="stop4" />
    </linearGradient>
    <linearGradient
       xlink:href="#a"
       id="b"
       gradientUnits="userSpaceOnUse"
       x1="67.159"
       y1="63.933"
       x2="67.159"
       y2="73.942"
       gradientTransform="matrix(4.12024 0 0 3.46378 -24.178 98.384)" />
    <linearGradient
       xlink:href="#a"
       id="c"
       gradientUnits="userSpaceOnUse"
       x1="67.159"
       y1="63.933"
       x2="67.159"
       y2="73.942"
       gradientTransform="matrix(4.12024,0,0,3.46378,-24.178,124.384)" />
    <linearGradient
       xlink:href="#a"
       id="d"
       gradientUnits="userSpaceOnUse"
       x1="67.159"
       y1="63.933"
       x2="67.159"
       y2="73.942"
       gradientTransform="matrix(4.12024,0,0,3.46378,-23.178,150.384)" />
  </defs>
  <g
     id="add-normal">
    <path
       style="fill:currentColor;fill-opacity:1"
       class="ColorScheme-Text"
       id="path865"
       d="M 14 6 A 8 8 0 0 0 6 14 A 8 8 0 0 0 14 22 A 8 8 0 0 0 22 14 A 8 8 0 0 0 14 6 z M 14 7.5 A 6.5 6.5 0 0 1 20.5 14 A 6.5 6.5 0 0 1 14 20.5 A 6.5 6.5 0 0 1 7.5 14 A 6.5 6.5 0 0 1 14 7.5 z M 13 10 L 13 13 L 10 13 L 10 15 L 13 15 L 13 18 L 15 18 L 15 15 L 18 15 L 18 13 L 15 13 L 15 10 L 13 10 z " />
  </g>
  <g
     id="remove-normal">
    <path
       style="fill:currentColor;fill-opacity:1"
       class="ColorScheme-Text"
       id="path859"
       d="M 14 32 A 8 8 0 0 0 6 40 A 8 8 0 0 0 14 48 A 8 8 0 0 0 22 40 A 8 8 0 0 0 14 32 z M 14 33.5 A 6.5 6.5 0 0 1 20.5 40 A 6.5 6.5 0 0 1 14 46.5 A 6.5 6.5 0 0 1 7.5 40 A 6.5 6.5 0 0 1 14 33.5 z M 10 39 L 10 41 L 18 41 L 18 39 L 10 39 z " />
  </g>
  <g
     id="open-normal">
    <path
       style="fill:currentColor;fill-opacity:1"
       class="ColorScheme-Text"
       id="path853"
       d="M 14 59 A 8 8 0 0 0 6 67 A 8 8 0 0 0 14 75 A 8 8 0 0 0 22 67 A 8 8 0 0 0 14 59 z M 14 60.5 A 6.5 6.5 0 0 1 20.5 67 A 6.5 6.5 0 0 1 14 73.5 A 6.5 6.5 0 0 1 7.5 67 A 6.5 6.5 0 0 1 14 60.5 z M 14 63 L 10 67 L 13 67 L 13 70 L 15 70 L 15 67 L 18 67 L 14 63 z " />
  </g>
  <g
     transform="translate(-214.536 -326.505)"
     id="add-hover">
    <path
       d="M252.536 333.505a8 8 0 0 0-8 8 8 8 0 0 0 8 8 8 8 0 0 0 8-8 8 8 0 0 0-8-8zm0 1.5a6.5 6.5 0 0 1 6.5 6.5 6.5 6.5 0 0 1-6.5 6.5 6.5 6.5 0 0 1-6.5-6.5 6.5 6.5 0 0 1 6.5-6.5zm-1 2.5v3h-3v2h3v3h2v-3h3v-2h-3v-3z"
       fill="currentColor"
       class="ColorScheme-Text"
       id="path14" />
    <circle
       r="6.5"
       cx="252.536"
       cy="341.505"
       fill="url(#b)"
       id="circle16" />
  </g>
  <g
     id="add-pressed">
    <path
       id="path20"
       d="m 66,7 a 8,8 0 0 0 -8,8 8,8 0 0 0 8,8 8,8 0 0 0 8,-8 8,8 0 0 0 -8,-8 z m 0,1.5 A 6.5,6.5 0 0 1 72.5,15 6.5,6.5 0 0 1 66,21.5 6.5,6.5 0 0 1 59.5,15 6.5,6.5 0 0 1 66,8.5 Z M 65,11 v 3 h -3 v 2 h 3 v 3 h 2 v -3 h 3 v -2 h -3 v -3 z"
       inkscape:connector-curvature="0"
       class="ColorScheme-Text"
       style="fill:currentColor" />
  </g>
  <g
     transform="translate(-214.536,-326.505)"
     id="remove-hover">
    <path
       d="m 252.536,359.505 a 8,8 0 0 0 -8,8 8,8 0 0 0 8,8 8,8 0 0 0 8,-8 8,8 0 0 0 -8,-8 z m 0,1.5 a 6.5,6.5 0 0 1 6.5,6.5 6.5,6.5 0 0 1 -6.5,6.5 6.5,6.5 0 0 1 -6.5,-6.5 6.5,6.5 0 0 1 6.5,-6.5 z m -4,5.5 v 2 h 8 v -2 z"
       id="path22"
       inkscape:connector-curvature="0"
       class="ColorScheme-Text"
       style="fill:currentColor" />
    <circle
       r="6.5"
       cx="252.536"
       cy="367.505"
       id="circle24"
       style="fill:url(#c)" />
  </g>
  <g
     id="remove-pressed">
    <path
       id="path28"
       fill="currentColor"
       class="ColorScheme-Text"
       d="M66 33a8 8 0 0 0-8 8 8 8 0 0 0 8 8 8 8 0 0 0 8-8 8 8 0 0 0-8-8zm0 1.5a6.5 6.5 0 0 1 6.5 6.5 6.5 6.5 0 0 1-6.5 6.5 6.5 6.5 0 0 1-6.5-6.5 6.5 6.5 0 0 1 6.5-6.5zM62 40v2h8v-2z" />
  </g>
  <g
     transform="translate(-214.536,-326.505)"
     id="open-hover">
    <circle
       r="6.5"
       cx="253.536"
       cy="393.505"
       id="circle30"
       style="fill:url(#d)" />
    <path
       d="m 253.536,385.505 a 8,8 0 0 0 -8,8 8,8 0 0 0 8,8 8,8 0 0 0 8,-8 8,8 0 0 0 -8,-8 z m 0,1.5 a 6.5,6.5 0 0 1 6.5,6.5 6.5,6.5 0 0 1 -6.5,6.5 6.5,6.5 0 0 1 -6.5,-6.5 6.5,6.5 0 0 1 6.5,-6.5 z m 0,2.5 -4,4 h 3 v 3 h 2 v -3 h 3 z"
       id="path32"
       inkscape:connector-curvature="0"
       class="ColorScheme-Text"
       style="fill:currentColor" />
  </g>
  <g
     id="open-pressed">
    <path
       style="fill:currentColor"
       class="ColorScheme-Text"
       inkscape:connector-curvature="0"
       id="path36"
       d="m 66,59 a 8,8 0 0 0 -8,8 8,8 0 0 0 8,8 8,8 0 0 0 8,-8 8,8 0 0 0 -8,-8 z m 0,1.5 A 6.5,6.5 0 0 1 72.5,67 6.5,6.5 0 0 1 66,73.5 6.5,6.5 0 0 1 59.5,67 6.5,6.5 0 0 1 66,60.5 Z m 0,2.5 -4,4 h 3 v 3 h 2 v -3 h 3 z" />
  </g>
  <path
     style="font-style:normal;font-variant:normal;font-weight:normal;font-stretch:normal;font-size:16px;line-height:1.25;font-family:'Abyssinica SIL';-inkscape-font-specification:'Abyssinica SIL';letter-spacing:0px;word-spacing:0px;fill:#ffffff;fill-opacity:1;stroke:none;stroke-width:0.40793473"
     d="m 37.149503,-84.927668 c -0.053,0 -0.10279,0.01108 -0.14962,0.03323 -0.0468,0.01998 -0.0886,0.04876 -0.12519,0.08644 -0.0346,0.03768 -0.0621,0.08208 -0.0825,0.133059 -0.0204,0.05103 -0.0305,0.105328 -0.0305,0.162987 0,0.05766 0.0101,0.113102 0.0305,0.16632 0.0204,0.05103 0.0478,0.09536 0.0825,0.133059 0.0366,0.03768 0.0783,0.0676 0.12519,0.08985 0.0469,0.02215 0.0967,0.03323 0.14962,0.03323 0.053,0 0.10281,-0.01108 0.14962,-0.03323 0.0468,-0.02215 0.0876,-0.05207 0.12214,-0.08985 0.0346,-0.03768 0.0611,-0.08208 0.0794,-0.133059 0.0204,-0.05321 0.0305,-0.108661 0.0305,-0.16632 0,-0.05766 -0.0101,-0.111984 -0.0305,-0.162987 -0.0184,-0.05103 -0.0447,-0.09536 -0.0794,-0.133059 -0.0346,-0.03768 -0.0753,-0.06656 -0.12214,-0.08644 -0.0468,-0.02215 -0.0967,-0.03323 -0.14962,-0.03323 z m 12.913016,0.498958 c -0.213737,0 -0.411199,0.03996 -0.592367,0.119748 -0.179137,0.07981 -0.333841,0.208451 -0.464123,0.385858 -0.128243,0.177406 -0.229008,0.410254 -0.302286,0.698537 -0.07326,0.286068 -0.109928,0.635342 -0.109928,1.047812 0,0.414687 0.03764,0.756197 0.112982,1.024522 0.07529,0.266109 0.176073,0.476785 0.302286,0.632009 0.126213,0.155232 0.271756,0.263893 0.436647,0.325992 0.164882,0.05983 0.336896,0.08985 0.516023,0.08985 0.179138,0 0.353181,-0.02878 0.522142,-0.08644 0.17099,-0.05766 0.321636,-0.146361 0.451907,-0.266109 0.130282,-0.119748 0.235116,-0.271658 0.314513,-0.45571 0.07935,-0.184062 0.11908,-0.402492 0.11908,-0.655299 0,-0.168534 -0.01837,-0.319337 -0.055,-0.452387 -0.0346,-0.133059 -0.08239,-0.249484 -0.143512,-0.349273 -0.05905,-0.102006 -0.129257,-0.187386 -0.210683,-0.256131 -0.07935,-0.071 -0.163867,-0.128619 -0.253441,-0.172966 -0.08959,-0.0444 -0.181166,-0.0765 -0.274809,-0.09647 -0.09365,-0.01998 -0.183207,-0.02992 -0.268701,-0.02992 -0.111957,0 -0.214762,0.01108 -0.308395,0.03323 -0.09365,0.02215 -0.178122,0.05207 -0.25344,0.08985 -0.07529,0.0355 -0.141473,0.07763 -0.198477,0.126404 -0.05702,0.04876 -0.105849,0.09979 -0.146557,0.153018 0.03054,-0.306026 0.06818,-0.554402 0.112972,-0.745111 0.04688,-0.190718 0.102804,-0.339294 0.167946,-0.44574 0.06514,-0.106436 0.141473,-0.178514 0.229008,-0.216215 0.08756,-0.03768 0.18626,-0.05652 0.296177,-0.05652 0.09568,0 0.175069,0.0177 0.23817,0.05321 0.06311,0.0355 0.113997,0.08095 0.152675,0.136382 0.03866,0.05321 0.06514,0.114209 0.07935,0.182955 0.01634,0.06656 0.02445,0.130834 0.02445,0.192923 h 0.66259 c 0,-0.141921 -0.0275,-0.273873 -0.08249,-0.395836 -0.055,-0.121963 -0.133336,-0.228409 -0.235116,-0.319337 -0.10178,-0.09089 -0.223915,-0.161879 -0.366413,-0.212882 -0.142498,-0.05321 -0.300257,-0.07981 -0.473285,-0.07981 z m -6.891626,0.126404 c -0.0245,0.0355 -0.0712,0.0854 -0.14045,0.149685 -0.0692,0.06428 -0.14657,0.131942 -0.23207,0.202902 -0.0855,0.06874 -0.17404,0.134167 -0.26564,0.196257 -0.0896,0.06211 -0.16896,0.108661 -0.23817,0.139715 v 0.65529 c 0.0611,-0.01998 0.13232,-0.04772 0.21373,-0.08313 0.0814,-0.03768 0.16388,-0.07868 0.24734,-0.123081 0.0835,-0.04658 0.16285,-0.09535 0.23817,-0.146361 0.0773,-0.05321 0.14249,-0.106436 0.19542,-0.159664 v 3.366297 h 0.63817 v -4.197885 z m 3.609175,0 -1.593892,2.488127 v 0.811631 h 1.83817 v 0.898127 h 0.632059 v -0.898127 h 0.412214 v -0.608728 h -0.412214 v -2.69103 z m 6.754217,0 -1.593892,2.488127 v 0.811631 h 1.83817 v 0.898127 h 0.632059 v -0.898127 h 0.412214 v -0.608728 h -0.412214 v -2.69103 z m -6.509939,0.505605 v 2.185425 h -1.364895 z m 6.754217,0 v 2.185425 h -1.364895 z m -16.57104,0.325983 -0.76946,0.259464 v 0.226193 h 0.44274 v 3.023669 c 0,0.130844 -0.005,0.255023 -0.0152,0.372555 -0.008,0.119748 -0.0245,0.227301 -0.0489,0.32266 -0.0224,0.09757 -0.053,0.180729 -0.0916,0.249484 -0.0387,0.071 -0.0866,0.124178 -0.1435,0.159663 l -0.60764,-0.455719 c -0.0305,0.01108 -0.0621,0.02661 -0.0947,0.04658 -0.0326,0.02215 -0.0611,0.04876 -0.0855,0.07981 -0.0265,0.03323 -0.0478,0.07101 -0.0641,0.113102 -0.0163,0.04431 -0.0245,0.09535 -0.0245,0.153007 0,0.06428 0.0132,0.119758 0.0397,0.16632 0.0245,0.04876 0.0591,0.08871 0.10381,0.119748 0.0427,0.03105 0.0926,0.05321 0.14962,0.06656 0.057,0.01552 0.11807,0.02329 0.18321,0.02329 0.19746,0 0.38677,-0.05207 0.56794,-0.156341 0.18321,-0.102015 0.33894,-0.260571 0.46718,-0.475677 0.053,-0.09089 0.0957,-0.194041 0.12824,-0.309348 0.0326,-0.115318 0.057,-0.233958 0.0733,-0.355921 0.0184,-0.121973 0.0305,-0.242827 0.0366,-0.362576 0.006,-0.121973 0.009,-0.233957 0.009,-0.335971 v -2.930536 z m 1.71909,0 -0.76947,0.266109 v 0.23285 h 0.43664 v 1.846139 c 0,0.192933 0.0194,0.359244 0.058,0.498959 0.0407,0.137491 0.0977,0.25169 0.17099,0.342618 0.0753,0.08871 0.16591,0.154116 0.27176,0.196257 0.10788,0.04431 0.229,0.06656 0.36335,0.06656 0.0916,0 0.18525,-0.01666 0.28092,-0.04989 0.0977,-0.03106 0.19034,-0.06987 0.27787,-0.116425 0.0896,-0.04876 0.17201,-0.100898 0.24733,-0.156341 0.0773,-0.05539 0.1425,-0.105328 0.19542,-0.149684 v 0.389189 h 0.99236 v -0.266109 l -0.27481,-0.01998 c -0.0366,-0.0047 -0.0692,-0.01998 -0.0977,-0.04658 -0.0265,-0.02661 -0.0397,-0.06097 -0.0397,-0.103123 v -2.930536 h -0.25648 l -0.76337,0.266109 v 0.232849 h 0.4397 v 2.281892 c -0.0366,0.01998 -0.0814,0.04213 -0.13435,0.06656 -0.0509,0.02215 -0.10586,0.0444 -0.16489,0.06656 -0.059,0.01998 -0.12112,0.03654 -0.18626,0.04989 -0.0651,0.01326 -0.12926,0.01998 -0.19237,0.01998 -0.10992,0 -0.20356,-0.01666 -0.28092,-0.04989 -0.0773,-0.0355 -0.14046,-0.08644 -0.1893,-0.153017 -0.0469,-0.06656 -0.0814,-0.147469 -0.10382,-0.242819 -0.0204,-0.09536 -0.0305,-0.202912 -0.0305,-0.32266 v -2.215371 z m 11.062627,0.987938 c 0.09974,0 0.193383,0.02547 0.280918,0.0765 0.08756,0.04876 0.162852,0.116416 0.225953,0.202904 0.06514,0.08426 0.116026,0.184061 0.152675,0.299378 0.03866,0.115308 0.05804,0.238388 0.05804,0.369223 0,0.130844 -0.01938,0.255021 -0.05804,0.372554 -0.03663,0.115317 -0.08756,0.216215 -0.152675,0.302703 -0.06311,0.08653 -0.138419,0.155232 -0.225953,0.206235 -0.08756,0.04876 -0.181177,0.07319 -0.280918,0.07319 -0.09771,0 -0.190329,-0.02443 -0.277863,-0.07319 -0.08756,-0.05103 -0.164892,-0.119748 -0.232062,-0.206235 -0.06514,-0.08644 -0.117051,-0.187386 -0.155729,-0.302703 -0.03663,-0.117533 -0.05499,-0.24171 -0.05499,-0.372554 0,-0.130835 0.01837,-0.253915 0.05499,-0.369223 0.03866,-0.115317 0.09061,-0.215107 0.155729,-0.299378 0.06717,-0.08644 0.144527,-0.154126 0.232062,-0.202904 0.08756,-0.05103 0.180152,-0.0765 0.277863,-0.0765 z"
     id="text843"
     inkscape:connector-curvature="0" />
</svg>
