<?xml version="1.0" encoding="UTF-8" standalone="no"?>
<svg
   xmlns:dc="http://purl.org/dc/elements/1.1/"
   xmlns:cc="http://creativecommons.org/ns#"
   xmlns:rdf="http://www.w3.org/1999/02/22-rdf-syntax-ns#"
   xmlns:svg="http://www.w3.org/2000/svg"
   xmlns="http://www.w3.org/2000/svg"
   xmlns:sodipodi="http://sodipodi.sourceforge.net/DTD/sodipodi-0.dtd"
   xmlns:inkscape="http://www.inkscape.org/namespaces/inkscape"
   width="200"
   height="100"
   version="1"
   id="svg152"
   sodipodi:docname="configuration-icons.svg"
   inkscape:version="0.92.4 (5da689c313, 2019-01-14)">
  <metadata
     id="metadata158">
    <rdf:RDF>
      <cc:Work
         rdf:about="">
        <dc:format>image/svg+xml</dc:format>
        <dc:type
           rdf:resource="http://purl.org/dc/dcmitype/StillImage" />
        <dc:title></dc:title>
      </cc:Work>
    </rdf:RDF>
  </metadata>
  <defs
     id="defs156" />
  <style
     type="text/css"
     id="current-color-scheme">
      .ColorScheme-Text {
        color:#00ff00;
      }
      .ColorScheme-Background {
        color:#ff0000;
      }
      .ColorScheme-Highlight {
        color:#0000ff;
      }
      .ColorScheme-ButtonHover {
        color:#ffff00;
      }
      .ColorScheme-ButtonFocus{
        color:#ff00ff;
      }
  </style>
  <sodipodi:namedview
     pagecolor="#ffffff"
     bordercolor="#666666"
     borderopacity="1"
     objecttolerance="10"
     gridtolerance="10"
     guidetolerance="10"
     inkscape:pageopacity="0"
     inkscape:pageshadow="2"
     inkscape:window-width="1366"
     inkscape:window-height="708"
     id="namedview154"
     showgrid="false"
     showguides="true"
     inkscape:guide-bbox="true"
     inkscape:zoom="1.6817288"
     inkscape:cx="101.17155"
     inkscape:cy="102.32825"
     inkscape:window-x="0"
     inkscape:window-y="0"
     inkscape:window-maximized="1"
     inkscape:current-layer="svg152" />
  <g
     id="return-to-source">
    <rect
       style="opacity:0;fill:#000000;fill-opacity:1;stroke-width:3.77952766"
       width="15.99874"
       height="15.99874"
       x="111.99686"
       y="38.009678"
       id="rect6" />
    <path
       id="path1020"
       class="ColorScheme-Text"
       d="M 114.89062 39 C 113.84369 39 113 39.843696 113 40.890625 L 113 51.109375 C 113 52.156304 113.84369 53 114.89062 53 L 125.10938 53 C 126.15631 53 127 52.156304 127 51.109375 L 127 40.890625 C 127 39.843696 126.15631 39 125.10938 39 L 114.89062 39 z M 117.99805 39.988281 L 121.99805 39.988281 L 119.99805 41.988281 L 117.99805 39.988281 z M 113.99805 44.988281 L 125.99805 44.988281 L 125.99805 46.988281 L 113.99805 46.988281 L 113.99805 44.988281 z M 119.99805 49.988281 L 121.99805 51.988281 L 117.99805 51.988281 L 119.99805 49.988281 z "
       style="fill:currentColor;fill-opacity:1" />
  </g>
  <g
     id="add">
    <rect
       style="fill:none;stroke-width:3.77952766"
       width="15.99874"
       height="15.99874"
       x="76.015747"
       y="56.00021"
       id="rect11" />
    <rect
       style="fill:none;stroke-width:3.77952766"
       width="12"
       height="12"
       x="78.018898"
       y="58.003353"
       id="rect13" />
    <path
       style="fill:currentColor;fill-opacity:1"
       class="ColorScheme-Text"
       d="m 82.999996,57.999966 v 5 h -5 v 2 h 5 v 5 h 2 v -5 h 5 v -2 h -5 v -5 z"
       id="path15"
       inkscape:connector-curvature="0" />
  </g>
  <g
     id="remove">
    <rect
       style="fill:none;stroke-width:3.77952766"
       width="15.99874"
       height="15.99874"
       x="94.006325"
       y="56.00021"
       id="rect18" />
    <rect
       style="fill:none;stroke-width:3.77952766"
       width="12"
       height="12"
       x="96.009468"
       y="58.003353"
       id="rect20" />
    <rect
       style="fill:currentColor;stroke-width:3.77952766;fill-opacity:1"
       class="ColorScheme-Text"
       width="1.9993701"
       height="12"
       x="62.992359"
       y="-107.99057"
       transform="rotate(90)"
       id="rect22" />
  </g>
  <g
     id="help"
     inkscape:label="#g887">
    <rect
       style="opacity:0;fill:#000000;stroke-width:3.77952766"
       width="15.99874"
       height="15.99874"
       x="39.996849"
       y="56.00021"
       id="rect120" />
    <path
       inkscape:connector-curvature="0"
       id="path122"
       class="ColorScheme-Text"
       d="m 48.99999,70.99996 h -2 v -2 h 2 z m 2.07,-7.75 -0.9,0.92 c -0.72,0.73 -1.17,1.33 -1.17,2.83 h -2 v -0.5 c 0,-1.1 0.45,-2.1 1.17,-2.83 l 1.24,-1.26 c 0.37,-0.36 0.59,-0.86 0.59,-1.41 0,-1.1 -0.9,-2 -2,-2 -1.1,0 -2,0.9 -2,2 h -2 c 0,-2.21 1.79,-4 4,-4 2.21,0 4,1.79 4,4 0,0.88 -0.36,1.68 -0.93,2.25 z"
       style="fill:currentColor;fill-opacity:1" />
  </g>
  <g
     id="close">
    <rect
       style="opacity:0.00100002"
       width="16"
       height="16"
       x="130"
       y="55.990002"
       id="rect143" />
    <path
       id="path2"
       class="ColorScheme-Text"
       d="m 133.30236,57.6053 -1.69,1.7 4.7,4.69 -4.7,4.7 1.7,1.69 4.69,-4.7 4.7,4.7 1.69,-1.7 -4.7,-4.69 4.7,-4.7 -1.7,-1.69 -4.69,4.7 z"
       style="opacity:1;fill:currentColor;fill-opacity:1;stroke:none"
       inkscape:connector-curvature="0" />
  </g>
  <g
     id="delete">
    <rect
       style="opacity:0;fill:#00000;stroke-width:3.77952766"
       width="15.99874"
       height="15.99874"
       x="57.987404"
       y="56.00021"
       id="rect127" />
    <path
       id="path2-6"
       class="ColorScheme-Text"
       font-weight="400"
       d="m 63.851402,57.538722 -0.809784,0.816534 v 0.978492 l -3.961194,0.01352 v 1.430617 h 1.444114 v 8.651194 c 0,0.647825 0.546605,1.201182 1.201176,1.194432 l 8.583715,-0.06751 a 1.2146766,1.2146766 0 0 0 1.201185,-1.194427 v -8.583713 h 1.40362 v -1.47111 l -3.961194,0.01352 v -0.971743 l -0.809784,-0.809784 z m 0.472371,1.147195 h 3.347112 l 0.13496,0.141713 v 0.492617 l -3.623783,0.01352 v -0.512862 z m -2.375368,2.091946 h 8.111344 v 8.111338 H 61.94166 v -8.111338 z"
       style="opacity:1;fill:currentColor;fill-opacity:1;stroke:none"
       inkscape:connector-curvature="0" />
  </g>
  <g
     id="move">
    <rect
       style="opacity:0;fill:#000000;stroke-width:3.77952766"
       width="15.99874"
       height="15.99874"
       x="94.006302"
       y="20.019146"
       id="rect58" />
    <path
       id="path5"
       class="ColorScheme-Text"
       d="m 102.0483,20.953107 -1.75,3.5 h 3.5 z m -3.499993,5.25 -3.5,1.75 3.5,1.75 z m 6.999993,0 v 3.5 l 3.5,-1.75 z m -3.5,0.875 c -0.48475,0 -0.875,0.39025 -0.875,0.875 0,0.48475 0.39025,0.875 0.875,0.875 0.48475,0 0.875,-0.39025 0.875,-0.875 0,-0.48475 -0.39025,-0.875 -0.875,-0.875 z m -1.75,4.375 1.75,3.5 1.75,-3.5 z"
       style="fill:currentColor;stroke-width:0.875;fill-opacity:1"
       inkscape:connector-curvature="0" />
  </g>
  <g
     id="size-vertical"
     style="fill-rule:evenodd">
    <rect
       style="opacity:0;fill:#000000;stroke-width:3.77952766;fill-rule:evenodd"
       width="15.99874"
       height="15.99874"
       x="111.99686"
       y="20.019146"
       id="rect48" />
    <path
       id="path1098"
       class="ColorScheme-Text"
       d="M 120 21 L 118.25 24.5 L 121.75 24.5 L 120 21 z M 120 27.125 C 119.51525 27.125 119.125 27.51525 119.125 28 C 119.125 28.48475 119.51525 28.875 120 28.875 C 120.48475 28.875 120.875 28.48475 120.875 28 C 120.875 27.51525 120.48475 27.125 120 27.125 z M 118.25 31.5 L 120 35 L 121.75 31.5 L 118.25 31.5 z "
       style="fill:currentColor;fill-opacity:1;stroke-width:0.875;fill-rule:evenodd" />
  </g>
  <g
     id="size-horizontal"
     style="fill-rule:evenodd">
    <rect
       style="opacity:0;fill:#000000;stroke-width:3.77952766;fill-rule:evenodd"
       width="15.99874"
       height="15.99874"
       x="129.98741"
       y="20.019146"
       id="rect53" />
    <path
       id="path1111"
       class="ColorScheme-Text"
       d="M 134.5 26.25 L 131 28 L 134.5 29.75 L 134.5 26.25 z M 141.5 26.25 L 141.5 29.75 L 145 28 L 141.5 26.25 z M 138 27.125 C 137.51525 27.125 137.125 27.51525 137.125 28 C 137.125 28.48475 137.51525 28.875 138 28.875 C 138.48475 28.875 138.875 28.48475 138.875 28 C 138.875 27.51525 138.48475 27.125 138 27.125 z "
       style="fill:currentColor;fill-opacity:1;stroke-width:0.875;fill-rule:evenodd" />
  </g>
  <g
     id="status">
    <rect
       style="opacity:0;fill:#000000;stroke-width:3.77952766"
       width="15.99874"
       height="15.99874"
       x="94.006302"
       y="38.009678"
       id="rect101" />
    <path
       id="path2-5"
       class="ColorScheme-Text"
       d="m 99.767911,48.466243 -3.119029,-3.125898 -1.064867,1.057997 4.190767,4.190766 8.979248,-8.999842 -1.06487,-1.057998 z"
       style="fill:currentColor;stroke-width:0.68701088"
       inkscape:connector-curvature="0" />
  </g>
  <g
     id="maximize">
    <rect
       style="opacity:0;fill:#000000;stroke-width:3.77952766"
       width="15.99874"
       height="15.99874"
       x="57.987404"
       y="38.009678"
       id="rect72" />
    <path
       id="path2-62"
       class="ColorScheme-Text"
       d="m 70.619477,50.528556 h -9.336 v -9.336 h 4.668 v -1.332 h -4.668 a 1.332,1.332 0 0 0 -1.332,1.332 v 9.336 c 0,0.732 0.6,1.332 1.332,1.332 h 9.336 a 1.332,1.332 0 0 0 1.332,-1.332 v -4.668 h -1.332 z m -3.336,-10.668 v 1.332 h 2.394 l -6.558,6.552 0.948,0.948 6.552,-6.558 v 2.394 h 1.332 v -4.668 z"
       style="fill:currentColor;stroke-width:0.59999996"
       inkscape:connector-curvature="0" />
  </g>
  <g
     id="unmaximize">
    <rect
       style="opacity:0;fill:#000000;stroke-width:3.77952766"
       width="15.99874"
       height="15.99874"
       x="76.015747"
       y="38.009678"
       id="rect81" />
    <path
       id="path1184"
       class="ColorScheme-Text"
       d="M 79.283203 39.861328 A 1.332 1.332 0 0 0 77.951172 41.193359 L 77.951172 50.529297 C 77.951172 51.261297 78.551203 51.861328 79.283203 51.861328 L 88.619141 51.861328 A 1.332 1.332 0 0 0 89.951172 50.529297 L 89.951172 45.861328 L 88.619141 45.861328 L 88.619141 50.529297 L 79.283203 50.529297 L 79.283203 41.193359 L 83.951172 41.193359 L 83.951172 39.861328 L 79.283203 39.861328 z M 89.003906 39.861328 L 82.451172 46.417969 L 82.451172 44.025391 L 81.119141 44.025391 L 81.119141 48.693359 L 85.787109 48.693359 L 85.787109 47.361328 L 83.392578 47.361328 L 89.951172 40.808594 L 89.003906 39.861328 z "
       style="fill:currentColor;stroke-width:0.59999996" />
  </g>
  <g
     id="size-diagonal-tr2bl">
    <rect
       style="opacity:0;fill:#000000;stroke-width:3.77952766"
       width="15.99874"
       height="15.99874"
       x="148.01575"
       y="20.019146"
       id="rect92" />
    <path
       id="path1220"
       class="ColorScheme-Text"
       d="M 151.4043 21.996094 A 1.332 1.332 0 0 0 150.07227 23.328125 L 150.07227 27.826172 L 151.4043 27.826172 L 151.4043 23.328125 L 156.07227 23.328125 L 156.07227 21.996094 L 151.4043 21.996094 z M 157.4043 21.996094 L 157.4043 23.328125 L 159.79688 23.328125 L 157.95703 25.166016 L 157.95508 25.164062 L 155.59961 27.523438 L 153.24023 29.878906 L 153.24219 29.880859 L 151.4043 31.720703 L 151.4043 29.328125 L 150.07227 29.328125 L 150.07227 33.996094 L 154.74023 33.996094 L 154.74023 32.664062 L 152.3457 32.664062 L 154.18555 30.826172 L 154.1875 30.828125 L 156.54492 28.46875 L 158.9043 26.111328 L 158.90234 26.109375 L 160.74023 24.269531 L 160.74023 26.664062 L 162.07227 26.664062 L 162.07227 21.996094 L 157.4043 21.996094 z M 160.74023 27.996094 L 160.74023 32.664062 L 156.19141 32.664062 L 156.19141 33.996094 L 160.74023 33.996094 A 1.332 1.332 0 0 0 162.07227 32.664062 L 162.07227 27.996094 L 160.74023 27.996094 z "
       style="fill:currentColor;stroke-width:0.59999996" />
  </g>
  <g
     id="menu"
     inkscape:label="#g888">
    <rect
       y="20.020004"
       x="40"
       height="15.999996"
       width="16.000002"
       id="rect4152"
       style="opacity:1;fill:none;fill-opacity:1;stroke:none;stroke-width:3.77952766" />
    <path
       id="rect4167"
       d="m 42.000004,23.02012 v 2.000013 H 54.000005 V 23.02012 Z m 0,3.999988 v 2.000013 h 12.000001 v -2.000013 z m 0,4.000025 v 1.999975 h 12.000001 v -1.999975 z"
       style="opacity:1;fill:currentColor;fill-opacity:1;stroke:none;stroke-width:3.77952766;stroke-opacity:1"
       inkscape:connector-curvature="0"
       class="ColorScheme-Text" />
  </g>
  <g
     id="configure">
    <rect
       style="opacity:0;fill:#000000;stroke-width:3.77952766"
       width="15.99874"
       height="15.99874"
       x="57.987404"
       y="20.019146"
       id="rect32" />
    <path
       id="path833"
       class="ColorScheme-Text"
       d="m 60.855921,21.219976 v 0.903863 h 1.348694 v -0.903863 z m 4.506884,0 v 2.689388 h 1.346926 v -2.689388 z m 4.505128,0 v 6.740798 h 1.346911 v -6.740798 z m -10.326074,1.251021 v 2.502944 h 3.943085 v -2.502944 z m 4.505997,2.001293 v 2.505606 h 3.942202 V 24.47229 Z m -3.191935,1.072561 v 9.440847 h 1.348694 v -9.440847 z m 4.506884,1.946237 v 7.491067 h 1.346926 v -7.491067 z m 3.190165,0.984661 v 2.503824 h 3.943085 V 28.47752 Z m 1.314963,3.058749 v 3.449429 h 1.346911 v -3.446756 z"
       style="fill:currentColor;fill-opacity:1;stroke-width:1.71815753"
       inkscape:connector-curvature="0" />
  </g>
  <g
     id="rotate">
    <rect
       style="opacity:0;fill:#000000;stroke-width:3.77952766"
       width="15.99874"
       height="15.99874"
       x="76.015747"
       y="20.019146"
       id="rect39" />
    <path
       id="path2-67"
       class="ColorScheme-Text"
       d="m 87.9276,26.52849 1.11995,-1.119947 a 6.238579,6.238579 0 0 1 1.27769,3.075911 H 88.73207 A 4.7006234,4.7006234 0 0 0 87.9276,26.52849 Z m 0.80447,3.525467 h 1.59317 a 6.238579,6.238579 0 0 1 -1.27769,3.075912 L 87.9276,32.009921 c 0.42589,-0.599408 0.69405,-1.261912 0.80447,-1.955964 z m -0.7887,4.195857 a 6.2149181,6.2149181 0 0 1 -3.07591,1.261915 v -1.585278 a 4.6533016,4.6533016 0 0 0 1.94019,-0.812356 z m -4.6533,-11.238905 v -2.421294 l 3.58068,3.588563 -3.58857,3.509692 v -3.075909 a 4.7321712,4.7321712 0 0 0 0,9.31449 v 1.593164 a 6.3095616,6.3095616 0 0 1 0,-12.508706 z"
       style="fill:currentColor;stroke-width:0.78869522"
       inkscape:connector-curvature="0" />
  </g>
  <g
     transform="matrix(-1,0,0,1,204.02371,17.864493)"
     id="size-diagonal-tl2br"
     inkscape:label="#size-diagonal-tr2br">
    <rect
       style="opacity:0;fill:#000000;stroke-width:3.77952766"
       width="15.99874"
       height="15.99874"
       x="148.01575"
       y="20.019146"
       id="rect92-3" />
    <path
       inkscape:connector-curvature="0"
       id="path1220-5"
       class="ColorScheme-Text"
       d="m 151.4043,21.996094 a 1.332,1.332 0 0 0 -1.33203,1.332031 v 4.498047 h 1.33203 v -4.498047 h 4.66797 v -1.332031 z m 6,0 v 1.332031 h 2.39258 l -1.83985,1.837891 -0.002,-0.002 -2.35547,2.359376 -2.35938,2.355468 0.002,0.002 -1.83789,1.839844 v -2.392578 h -1.33203 v 4.667969 h 4.66796 v -1.332032 h -2.39453 l 1.83985,-1.83789 0.002,0.002 2.35742,-2.359375 2.35938,-2.357422 -0.002,-0.002 1.83789,-1.839844 v 2.394531 h 1.33204 v -4.667968 z m 3.33593,6 v 4.667968 h -4.54882 v 1.332032 h 4.54882 a 1.332,1.332 0 0 0 1.33204,-1.332032 v -4.667968 z"
       style="fill:currentColor;stroke-width:0.59999996" />
  </g>
  <g
     id="restore">
    <rect
       style="opacity:1;fill:none;fill-opacity:1;stroke:none;stroke-width:3.77952766"
       id="rect4414"
       width="16.000002"
       height="15.999996"
       x="147.95033"
       y="37.999733" />
    <rect
       y="39.999763"
       x="149.95033"
       height="11.999997"
       width="12.000001"
       id="rect4416"
       style="opacity:1;fill:none;fill-opacity:1;stroke:none;stroke-width:3.77952766" />
    <path
       sodipodi:nodetypes="ccccccccccccc"
       id="path4418"
       d="m 153.95031,41.999965 2,-1.999975 2,1.999975 z m -4,3 v 2.000013 h 12 v -2.000013 z m 6,7.000026 -2,-2.000013 h 4 z"
       style="opacity:1;fill:currentColor;fill-opacity:1;stroke:none;stroke-width:3.77952766"
       inkscape:connector-curvature="0"
       class="ColorScheme-Text" />
  </g>
  <g
     id="collapse">
    <rect
       y="38.049454"
       x="130"
       height="15.999996"
       width="16.000002"
       id="rect4397"
       style="opacity:1;fill:none;fill-opacity:1;stroke:none;stroke-width:3.77952766" />
    <rect
       style="opacity:1;fill:none;fill-opacity:1;stroke:none;stroke-width:3.77952766"
       id="rect4399"
       width="12.000001"
       height="11.999997"
       x="132.00002"
       y="40.049484" />
    <path
       inkscape:connector-curvature="0"
       style="opacity:1;fill:currentColor;fill-opacity:1;stroke:none;stroke-width:3.77952766"
       d="m 136,40.04971 2,1.999975 2,-1.999975 z m -4,4.999975 v 2.000013 h 12 v -2.000013 z m 6,5.000013 -2,2.000013 h 4 z"
       id="path4401"
       class="ColorScheme-Text" />
  </g>
  <g
     id="filter">
    <rect
       y="56.000027"
       x="112.00027"
       height="15.999996"
       width="16.000002"
       id="rect4527"
       style="opacity:1;fill:none;fill-opacity:1;stroke:none;stroke-width:3.77952766" />
    <rect
       style="opacity:1;fill:none;fill-opacity:1;stroke:none;stroke-width:3.77952766"
       id="rect4529"
       width="12.000001"
       height="11.999997"
       x="114.00028"
       y="58.000057" />
    <path
       id="path4545"
       d="m 116.00029,58.000167 -1,1 v 1 l 3,5.259766 v 2.740234 0.002 l 3,1.996094 v 0.002 h 1 v -0.539062 -4.201172 l 3,-5.25986 v -1 l -1,-1 z m 0,1 h 8 v 0.734375 l -3,5.263672 v 0.002 1 2.794922 l -2,-1.330125 v -2.464844 -0.002 l -3,-5.263672 z m 1,1 2,2 v -1 l 1,-1 z"
       style="fill:currentColor;fill-opacity:1;fill-rule:evenodd;stroke:none;stroke-width:0.26458335px;stroke-linecap:butt;stroke-linejoin:miter;stroke-opacity:1"
       inkscape:connector-curvature="0"
       class="ColorScheme-Text" />
  </g>
  <path
     style="font-style:normal;font-variant:normal;font-weight:normal;font-stretch:normal;font-size:16px;line-height:1.25;font-family:'Abyssinica SIL';-inkscape-font-specification:'Abyssinica SIL';letter-spacing:0px;word-spacing:0px;fill:#ffffff;fill-opacity:1;stroke:none;stroke-width:0.74359304"
     d="m 40.148194,-44.54671 c -0.09828,0 -0.190739,0.01984 -0.277628,0.0595 -0.08679,0.03577 -0.164362,0.08731 -0.232291,0.154788 -0.0642,0.06747 -0.115224,0.146989 -0.153066,0.238268 -0.03784,0.09138 -0.05667,0.18861 -0.05667,0.291858 0,0.103248 0.01882,0.202529 0.05667,0.297827 0.03784,0.09138 0.08868,0.170757 0.153066,0.238267 0.06797,0.06748 0.145346,0.12105 0.232291,0.160891 0.08698,0.03967 0.179425,0.0595 0.277628,0.0595 0.09828,0 0.190757,-0.01984 0.277627,-0.0595 0.08679,-0.03967 0.16248,-0.09325 0.226625,-0.160891 0.0642,-0.06748 0.11334,-0.146989 0.147417,-0.238267 0.03784,-0.09528 0.05667,-0.194579 0.05667,-0.297827 0,-0.103248 -0.01883,-0.200528 -0.05667,-0.291858 -0.03408,-0.09138 -0.08303,-0.170759 -0.147417,-0.238268 -0.0642,-0.06748 -0.139699,-0.119185 -0.226625,-0.154788 -0.08679,-0.03967 -0.179423,-0.0595 -0.277627,-0.0595 z m 23.960582,0.893478 c -0.396598,0 -0.762997,0.07155 -1.099159,0.214431 -0.332396,0.14292 -0.619456,0.37327 -0.861198,0.690949 -0.237959,0.317679 -0.424933,0.734639 -0.560903,1.250863 -0.135935,0.512257 -0.203976,1.137697 -0.203976,1.876303 0,0.742574 0.06985,1.354111 0.209642,1.834597 0.139698,0.476519 0.326711,0.853772 0.560903,1.131729 0.234194,0.277972 0.504253,0.472551 0.810215,0.58375 0.305944,0.107148 0.625123,0.160891 0.9575,0.160891 0.332398,0 0.655342,-0.05154 0.968854,-0.154788 0.317277,-0.103248 0.59681,-0.262087 0.83853,-0.476517 0.241746,-0.214431 0.436266,-0.486454 0.583591,-0.816034 0.14723,-0.329598 0.220958,-0.720737 0.220958,-1.173436 0,-0.301792 -0.03409,-0.571832 -0.102043,-0.810083 -0.0642,-0.238268 -0.152878,-0.446748 -0.266292,-0.625439 -0.109578,-0.18266 -0.239843,-0.335549 -0.390931,-0.45865 -0.14723,-0.127153 -0.304063,-0.230317 -0.470269,-0.309727 -0.166245,-0.07951 -0.336162,-0.136987 -0.50992,-0.172741 -0.173777,-0.03577 -0.339947,-0.05358 -0.498586,-0.05358 -0.20774,0 -0.398498,0.01984 -0.572237,0.0595 -0.173776,0.03967 -0.330513,0.09325 -0.470268,0.160891 -0.139699,0.06358 -0.262509,0.139021 -0.368281,0.226349 -0.10581,0.08731 -0.196407,0.178692 -0.271942,0.274008 0.05667,-0.547996 0.12652,-0.992761 0.209624,-1.33426 0.08698,-0.341515 0.190757,-0.60757 0.311629,-0.79818 0.120871,-0.190595 0.262509,-0.319663 0.424933,-0.387173 0.162479,-0.06748 0.345612,-0.101213 0.549569,-0.101213 0.177541,0 0.324846,0.0317 0.441933,0.09528 0.117106,0.06358 0.211525,0.144954 0.283295,0.244218 0.07173,0.09528 0.120871,0.204513 0.147229,0.327615 0.0303,0.119183 0.04537,0.234283 0.04537,0.345465 h 1.22946 c 0,-0.254135 -0.05102,-0.49042 -0.153065,-0.708817 -0.102043,-0.218399 -0.247413,-0.40901 -0.436267,-0.571833 -0.188858,-0.162756 -0.415482,-0.289874 -0.679893,-0.381205 -0.26441,-0.09528 -0.557137,-0.142919 -0.878199,-0.142919 z m -12.787663,0.226349 c -0.04537,0.06358 -0.132167,0.152924 -0.260626,0.26804 -0.128403,0.115114 -0.271962,0.236266 -0.430601,0.363334 -0.158714,0.123085 -0.322944,0.240251 -0.492917,0.351434 -0.166245,0.111216 -0.313512,0.194579 -0.441933,0.250187 v 1.173418 c 0.113339,-0.03577 0.245526,-0.08545 0.396596,-0.148855 0.150996,-0.06747 0.304081,-0.140884 0.458935,-0.220398 0.154949,-0.08341 0.302179,-0.170741 0.441934,-0.262087 0.143463,-0.09528 0.264411,-0.190594 0.362615,-0.285908 v 6.027982 h 1.184143 v -7.517095 z m 6.696951,0 -2.957526,4.455457 v 1.453375 h 3.410794 v 1.608264 h 1.172809 v -1.608264 h 0.764878 v -1.090039 h -0.764878 v -4.818793 z m 12.532704,0 -2.957526,4.455457 v 1.453375 h 3.410791 v 1.608264 h 1.17281 v -1.608264 h 0.764881 v -1.090039 h -0.764881 v -4.818793 z m -12.079436,0.905381 v 3.913412 h -2.532614 z m 12.532701,0 v 3.913412 h -2.53261 z m -30.748184,0.583733 -1.427771,0.464618 v 0.405041 h 0.821531 v 5.414443 c 0,0.234301 -0.0094,0.456666 -0.02824,0.66713 -0.01506,0.21443 -0.04537,0.407025 -0.09075,0.577783 -0.04161,0.174725 -0.09828,0.323629 -0.170011,0.446747 -0.07173,0.127153 -0.160597,0.222365 -0.266274,0.285908 l -1.127492,-0.81605 c -0.05667,0.01984 -0.115224,0.04764 -0.175659,0.08341 -0.06043,0.03967 -0.113341,0.08731 -0.158715,0.14292 -0.04914,0.05951 -0.08868,0.127154 -0.118989,0.20253 -0.03031,0.07934 -0.04537,0.170741 -0.04537,0.273988 0,0.115117 0.02448,0.214448 0.07361,0.297827 0.04537,0.08731 0.109575,0.158856 0.192621,0.21443 0.07926,0.05561 0.171894,0.09528 0.277629,0.119185 0.10581,0.0278 0.219074,0.04171 0.339946,0.04171 0.366398,0 0.717659,-0.09325 1.05384,-0.279958 0.339946,-0.182676 0.628907,-0.4666 0.866866,-0.851789 0.09828,-0.162756 0.177542,-0.347466 0.237959,-0.553945 0.06043,-0.206497 0.105809,-0.418944 0.135932,-0.637342 0.03408,-0.218415 0.05667,-0.434829 0.06797,-0.64926 0.01129,-0.218415 0.01694,-0.418944 0.01694,-0.601619 v -5.247671 z m 3.189836,0 -1.427788,0.476518 v 0.416961 h 0.810214 v 3.305857 c 0,0.345483 0.03596,0.643292 0.107693,0.893479 0.0755,0.246202 0.181307,0.450698 0.317277,0.613521 0.139698,0.158857 0.307846,0.275973 0.504252,0.351434 0.20019,0.07934 0.424932,0.119185 0.674226,0.119185 0.170011,0 0.343729,-0.02984 0.521252,-0.08935 0.181307,-0.05561 0.353183,-0.125119 0.515587,-0.20848 0.166245,-0.08731 0.319178,-0.180677 0.458934,-0.279958 0.143464,-0.09918 0.264411,-0.188609 0.362615,-0.268038 v 0.696917 h 1.841367 v -0.476519 l -0.509919,-0.03577 c -0.06797,-0.0085 -0.128403,-0.03577 -0.181307,-0.08341 -0.04914,-0.04764 -0.07362,-0.109182 -0.07362,-0.18466 v -5.24767 h -0.475916 l -1.416455,0.476519 v 0.416959 h 0.815882 v 4.086153 c -0.06797,0.03577 -0.150996,0.07544 -0.249293,0.119186 -0.09451,0.03967 -0.196425,0.07951 -0.305963,0.119184 -0.109574,0.03577 -0.22474,0.06544 -0.345612,0.08935 -0.120871,0.02373 -0.239842,0.03577 -0.356947,0.03577 -0.203956,0 -0.377715,-0.02984 -0.521254,-0.08935 -0.143464,-0.06358 -0.260626,-0.154788 -0.35126,-0.274005 -0.08698,-0.119186 -0.150995,-0.264071 -0.192642,-0.434812 -0.03784,-0.170759 -0.05667,-0.363354 -0.05667,-0.577784 v -3.967036 z m 20.527119,1.769087 c 0.185073,0 0.35883,0.04561 0.521253,0.136987 0.16248,0.08731 0.302177,0.208462 0.419267,0.363336 0.120871,0.150888 0.215291,0.329597 0.283292,0.536092 0.07173,0.206481 0.107696,0.426879 0.107696,0.661163 0,0.2343 -0.03597,0.456665 -0.107696,0.667128 -0.06797,0.206497 -0.162478,0.387172 -0.283292,0.542046 -0.117108,0.154956 -0.256844,0.277972 -0.419267,0.369303 -0.162479,0.08731 -0.33618,0.131051 -0.521253,0.131051 -0.181307,0 -0.353163,-0.04374 -0.515586,-0.131051 -0.162479,-0.09138 -0.305963,-0.214432 -0.430599,-0.369303 -0.120872,-0.154788 -0.217193,-0.335549 -0.288962,-0.542046 -0.06797,-0.210463 -0.102045,-0.432828 -0.102045,-0.667128 0,-0.234284 0.03408,-0.454682 0.102045,-0.661163 0.07173,-0.206495 0.168128,-0.385188 0.288962,-0.536092 0.124636,-0.154788 0.268175,-0.275991 0.430599,-0.363336 0.16248,-0.09138 0.334279,-0.136987 0.515586,-0.136987 z"
     id="text843"
     inkscape:connector-curvature="0" />
</svg>
