<?xml version="1.0" encoding="UTF-8" standalone="no"?>
<svg
   xmlns:dc="http://purl.org/dc/elements/1.1/"
   xmlns:cc="http://creativecommons.org/ns#"
   xmlns:rdf="http://www.w3.org/1999/02/22-rdf-syntax-ns#"
   xmlns:svg="http://www.w3.org/2000/svg"
   xmlns="http://www.w3.org/2000/svg"
   xmlns:sodipodi="http://sodipodi.sourceforge.net/DTD/sodipodi-0.dtd"
   xmlns:inkscape="http://www.inkscape.org/namespaces/inkscape"
   width="76"
   height="66"
   version="1.1"
   id="svg60"
   sodipodi:docname="slider.svg"
   inkscape:version="0.92.4 (5da689c313, 2019-01-14)">
  <metadata
     id="metadata66">
    <rdf:RDF>
      <cc:Work
         rdf:about="">
        <dc:format>image/svg+xml</dc:format>
        <dc:type
           rdf:resource="http://purl.org/dc/dcmitype/StillImage" />
        <dc:title></dc:title>
      </cc:Work>
    </rdf:RDF>
  </metadata>
  <defs
     id="defs64" />
  <style
     type="text/css"
     id="current-color-scheme">
      .ColorScheme-Text {
        color:#00ff00;
      }
      .ColorScheme-Background {
        color:#ff0000;
      }
      .ColorScheme-Highlight {
        color:#0000ff;
      }
      .ColorScheme-ButtonHover {
        color:#ffff00;
      }
      .ColorScheme-ButtonFocus{
        color:#ff00ff;
      }
      </style>
  <sodipodi:namedview
     pagecolor="#ffffff"
     bordercolor="#666666"
     borderopacity="1"
     objecttolerance="10"
     gridtolerance="10"
     guidetolerance="10"
     inkscape:pageopacity="0"
     inkscape:pageshadow="2"
     inkscape:window-width="1366"
     inkscape:window-height="708"
     id="namedview62"
     showgrid="false"
     inkscape:zoom="3.1903096"
     inkscape:cx="-5.8977745"
     inkscape:cy="78.362299"
     inkscape:window-x="0"
     inkscape:window-y="0"
     inkscape:window-maximized="1"
     inkscape:current-layer="svg60" />
  <rect
     id="hint-tile-center"
     style="fill:#ff2a2a"
     width="2"
     height="2"
     x="0"
     y="36" />
  <path
     id="groove-bottomright"
     class="ColorScheme-Text"
     style="opacity:0.3;fill:currentColor;fill-opacity:1"
     d="m 7,53 v 1 h 1 v -1 z" />
  <path
     id="groove-right"
     class="ColorScheme-Text"
     style="opacity:0.3;fill:currentColor;fill-opacity:1"
     d="m 7,51 v 1 h 1 v -1 z" />
  <path
     id="groove-topright"
     class="ColorScheme-Text"
     style="opacity:0.3;fill:currentColor;fill-opacity:1"
     d="m 7,49 v 1 h 1 v -1 z" />
  <path
     id="groove-bottomleft"
     class="ColorScheme-Text"
     style="opacity:0.3;fill:currentColor;fill-opacity:1"
     d="m 3,53 v 1 h 1 v -1 z" />
  <path
     id="groove-left"
     class="ColorScheme-Text"
     style="opacity:0.3;fill:currentColor"
     d="m 3,51 v 1 h 1 v -1 z" />
  <path
     id="groove-topleft"
     class="ColorScheme-Text"
     style="opacity:0.3;fill:currentColor"
     d="M 4,49 H 3 v 1 h 1 z" />
  <path
     id="groove-bottom"
     class="ColorScheme-Text"
     style="opacity:0.3;fill:currentColor;fill-opacity:1"
     d="m 5,53 v 1 h 1 v -1 z" />
  <path
     id="groove-center"
     class="ColorScheme-Text"
     style="opacity:0.3;fill:currentColor"
     d="M 6,51 H 5 v 1 h 1 z" />
  <path
     id="groove-top"
     class="ColorScheme-Text"
     style="opacity:0.3;fill:currentColor"
     d="m 5,49 v 1 h 1 v -1 z" />
  <path
     id="groove-highlight-bottomright"
     class="ColorScheme-Text"
     style="fill:currentColor;fill-opacity:1"
     d="m 7,62 v 1 h 1 v -1 z" />
  <path
     id="groove-highlight-right"
     class="ColorScheme-Text"
     style="fill:currentColor;fill-opacity:1"
     d="m 7,60 v 1 h 1 v -1 z" />
  <path
     id="groove-highlight-topright"
     class="ColorScheme-Text"
     style="fill:currentColor;fill-opacity:1"
     d="m 7,58 v 1 h 1 v -1 z" />
  <path
     id="groove-highlight-bottomleft"
     class="ColorScheme-Text"
     style="fill:currentColor;fill-opacity:1"
     d="m 3,62 v 1 h 1 v -1 z" />
  <path
     id="groove-highlight-left"
     class="ColorScheme-Text"
     style="fill:currentColor;fill-opacity:1"
     d="m 3,60 v 1 h 1 v -1 z" />
  <path
     id="groove-highlight-topleft"
     class="ColorScheme-Text"
     style="fill:currentColor;fill-opacity:1"
     d="M 4,58 H 3 v 1 h 1 z" />
  <path
     id="groove-highlight-bottom"
     class="ColorScheme-Text"
     style="fill:currentColor;fill-opacity:1"
     d="m 5,62 v 1 h 1 v -1 z" />
  <path
     id="groove-highlight-center"
     class="ColorScheme-Text"
     style="fill:currentColor;fill-opacity:1"
     d="M 6,60 H 5 v 1 h 1 z" />
  <path
     id="groove-highlight-top"
     class="ColorScheme-Text"
     style="fill:currentColor;fill-opacity:1"
     d="m 5,58 v 1 h 1 v -1 z" />
  <g
     id="horizontal-slider-handle"
     transform="matrix(0.6875,0,0,0.6875,-7.187504,41.250002)"
     style="fill:#000000;fill-opacity:1">
    <rect
       style="opacity:0;fill:#000000;fill-opacity:1"
       width="32"
       height="32"
       x="25"
       y="4"
       id="rect21" />
    <circle
       style="fill:currentColor;fill-opacity:1"
       class="ColorScheme-Text"
       cx="41"
       cy="20"
       r="7.273"
       id="circle23" />
  </g>
  <g
     id="horizontal-slider-hover"
     transform="matrix(0.6875,0,0,0.6875,14.8125,41.25)"
     style="fill:#000000;fill-opacity:1">
    <rect
       style="opacity:0;fill:#000000;fill-opacity:1"
       width="32"
       height="32"
       x="25"
       y="4"
       id="rect26" />
    <circle
       style="opacity:0.2;fill:currentColor;fill-opacity:1"
       class="ColorScheme-Text"
       cx="41"
       cy="20"
       r="16"
       id="circle28" />
    <circle
       style="fill:currentColor;fill-opacity:1"
       class="ColorScheme-Text"
       cx="41"
       cy="20"
       r="7.273"
       id="circle30" />
  </g>
  <g
     id="horizontal-slider-focus"
     transform="matrix(0.6875,0,0,0.6875,36.8125,41.25)"
     style="fill:#000000;fill-opacity:1">
    <rect
       style="opacity:0;fill:#000000;fill-opacity:1"
       width="32"
       height="32"
       x="25"
       y="4"
       id="rect33" />
    <circle
       style="opacity:0.3;fill:currentColor;fill-opacity:1"
       class="ColorScheme-Text"
       cx="41"
       cy="20"
       r="16"
       id="circle35" />
    <circle
       style="fill:currentColor;fill-opacity:1"
       class="ColorScheme-Text"
       cx="41"
       cy="20"
       r="7.273"
       id="circle37" />
  </g>
  <g
     id="vertical-slider-handle"
     transform="matrix(0.6875,0,0,0.6875,-7.1875,19.25)"
     style="fill:currentColor;fill-opacity:1">
    <rect
       style="opacity:0;fill:#000000;fill-opacity:1"
       width="32"
       height="32"
       x="25"
       y="4"
       id="rect40" />
    <circle
       style="fill:currentColor;fill-opacity:1"
       class="ColorScheme-Text"
       cx="41"
       cy="20"
       r="7.273"
       id="circle42" />
  </g>
  <g
     id="vertical-slider-hover"
     transform="matrix(0.6875,0,0,0.6875,14.8125,19.25)"
     style="fill:#000000;fill-opacity:1">
    <rect
       style="opacity:0;fill:#000000;fill-opacity:1"
       width="32"
       height="32"
       x="25"
       y="4"
       id="rect45" />
    <circle
       style="opacity:0.2;fill:currentColor;fill-opacity:1"
       class="ColorScheme-Text"
       cx="41"
       cy="20"
       r="16"
       id="circle47" />
    <circle
       style="fill:currentColor;fill-opacity:1"
       class="ColorScheme-Text"
       cx="41"
       cy="20"
       r="7.273"
       id="circle49" />
  </g>
  <g
     id="vertical-slider-focus"
     transform="matrix(0.6875,0,0,0.6875,36.8125,19.25)"
     style="fill:#000000;fill-opacity:1">
    <rect
       style="opacity:0;fill:#000000;fill-opacity:1"
       width="32"
       height="32"
       x="25"
       y="4"
       id="rect52" />
    <circle
       style="opacity:0.3;fill:currentColor;fill-opacity:1"
       class="ColorScheme-Text"
       cx="41"
       cy="20"
       r="16"
       id="circle54" />
    <circle
       style="fill:currentColor;fill-opacity:1"
       class="ColorScheme-Text"
       cx="41"
       cy="20"
       r="7.273"
       id="circle56" />
  </g>
  <circle
     id="hint-handle-size"
     style="fill:#ff0000"
     cx="65"
     cy="11"
     r="11" />
  <path
     style="font-style:normal;font-variant:normal;font-weight:normal;font-stretch:normal;font-size:16px;line-height:1.25;font-family:'Abyssinica SIL';-inkscape-font-specification:'Abyssinica SIL';letter-spacing:0px;word-spacing:0px;fill:#ffffff;fill-opacity:1;stroke:none;stroke-width:0.77465343"
     d="m 3.3164921,-34.303743 c -0.099719,0 -0.1935349,0.02122 -0.2816971,0.06365 -0.088067,0.03826 -0.1667715,0.09339 -0.2356958,0.165562 -0.065143,0.07217 -0.1169129,0.15722 -0.1553096,0.254853 -0.038402,0.09774 -0.057501,0.201739 -0.057501,0.312174 0,0.110436 0.0191,0.216628 0.057501,0.318559 0.038394,0.09774 0.089977,0.182644 0.1553096,0.254853 0.06896,0.07217 0.1474766,0.129476 0.2356958,0.172091 0.088257,0.04243 0.1820542,0.06365 0.2816971,0.06365 0.099719,0 0.193553,-0.02122 0.2816948,-0.06365 0.088066,-0.04243 0.1648616,-0.09974 0.2299465,-0.172091 0.065143,-0.07217 0.1150022,-0.15722 0.1495782,-0.254853 0.038394,-0.101913 0.057501,-0.208123 0.057501,-0.318559 0,-0.110435 -0.019107,-0.214486 -0.057501,-0.312174 -0.034578,-0.09774 -0.084245,-0.182645 -0.1495782,-0.254853 -0.065143,-0.07217 -0.1417453,-0.127482 -0.2299465,-0.165562 -0.088066,-0.04243 -0.1820526,-0.06365 -0.2816948,-0.06365 z m 24.3117469,0.955673 c -0.402411,0 -0.774179,0.07653 -1.115268,0.229358 -0.337267,0.152868 -0.628534,0.399253 -0.87382,0.739047 -0.241447,0.339791 -0.431161,0.785776 -0.569124,1.337935 -0.137926,0.547914 -0.206965,1.216892 -0.206965,2.006912 0,0.794264 0.07088,1.448371 0.212715,1.962303 0.141745,0.509689 0.331499,0.913204 0.569124,1.210509 0.237625,0.297322 0.511642,0.505445 0.822088,0.624385 0.310429,0.114606 0.634286,0.17209 0.971534,0.17209 0.337269,0 0.664946,-0.05513 0.983054,-0.165562 0.321928,-0.110436 0.605554,-0.280331 0.85082,-0.509688 0.245285,-0.229357 0.442661,-0.520316 0.592144,-0.872838 0.149387,-0.352541 0.224195,-0.770908 0.224195,-1.255119 0,-0.3228 -0.03458,-0.611637 -0.10354,-0.866473 -0.06514,-0.254853 -0.155118,-0.477845 -0.270195,-0.668976 -0.111181,-0.195374 -0.243357,-0.358906 -0.396661,-0.490576 -0.149387,-0.136004 -0.308517,-0.246349 -0.47716,-0.331287 -0.168682,-0.08505 -0.341089,-0.146523 -0.517393,-0.184766 -0.176323,-0.03826 -0.344929,-0.0573 -0.505892,-0.0573 -0.210785,0 -0.404339,0.02122 -0.580625,0.06365 -0.176322,0.04243 -0.335356,0.09974 -0.47716,0.172091 -0.141746,0.068 -0.266356,0.148697 -0.373679,0.242105 -0.107361,0.09339 -0.199285,0.19113 -0.275927,0.293081 0.0575,-0.586143 0.128374,-1.061867 0.212696,-1.427138 0.08826,-0.365289 0.193553,-0.649863 0.316196,-0.853742 0.122643,-0.203862 0.266357,-0.341914 0.431161,-0.414124 0.164861,-0.07217 0.350678,-0.108258 0.557623,-0.108258 0.180145,0 0.329608,0.03391 0.448411,0.101912 0.118823,0.068 0.214625,0.155044 0.287447,0.261218 0.07278,0.101912 0.122643,0.218749 0.149386,0.350419 0.03075,0.127481 0.04604,0.250593 0.04604,0.369514 h 1.24748 c 0,-0.271826 -0.05177,-0.524559 -0.155309,-0.758159 -0.10354,-0.233601 -0.251037,-0.43748 -0.442661,-0.611637 -0.191624,-0.174086 -0.421571,-0.310053 -0.689857,-0.40774 -0.268284,-0.101913 -0.565303,-0.152869 -0.89107,-0.152869 z m -12.975078,0.242105 c -0.04604,0.068 -0.134105,0.163569 -0.264446,0.286698 -0.130285,0.123128 -0.275948,0.252713 -0.436912,0.388627 -0.16104,0.131652 -0.327677,0.256974 -0.500141,0.375897 -0.168682,0.118958 -0.318107,0.208123 -0.44841,0.267602 v 1.2551 c 0.115,-0.03826 0.249124,-0.0914 0.402409,-0.159216 0.153208,-0.07217 0.308536,-0.150692 0.465661,-0.235741 0.157219,-0.08922 0.306607,-0.182626 0.44841,-0.280331 0.145566,-0.101912 0.268287,-0.203861 0.367929,-0.305809 v 6.44759 h 1.201499 v -8.040361 z m 6.795101,0 -3.000873,4.765602 v 1.554545 h 3.460784 v 1.720215 h 1.189998 v -1.720215 h 0.776087 v -1.165918 h -0.776087 v -5.154229 z m 12.716381,0 -3.000871,4.765602 v 1.554545 h 3.460781 v 1.720215 h 1.189999 v -1.720215 h 0.776088 v -1.165918 h -0.776088 v -5.154229 z m -12.25647,0.968405 v 4.185824 h -2.569732 z m 12.71638,0 v 4.185824 h -2.56973 z m -31.1988284,0.624366 -1.4486957,0.49696 v 0.433237 h 0.8335706 v 5.791342 c 0,0.250611 -0.00956,0.488455 -0.028657,0.713569 -0.015283,0.229356 -0.046036,0.435358 -0.092078,0.618003 -0.042219,0.186887 -0.099717,0.346157 -0.1725021,0.477845 -0.072784,0.136004 -0.1629509,0.237844 -0.2701765,0.30581 L 1.103169,-23.549284 c -0.057501,0.02122 -0.11691211,0.05096 -0.17823348,0.08922 -0.0613184,0.04243 -0.1150022,0.09339 -0.16104019,0.152868 -0.0498601,0.06365 -0.0899767,0.136005 -0.12073354,0.216628 -0.0307531,0.08487 -0.0460357,0.182626 -0.0460357,0.293062 0,0.123129 0.0248324,0.229375 0.0746925,0.318558 0.0460432,0.09339 0.11118152,0.169913 0.19544562,0.229357 0.0804239,0.05948 0.17441209,0.101912 0.28169709,0.127481 0.1073601,0.02974 0.2222841,0.04461 0.3449284,0.04461 0.3717676,0 0.7281768,-0.09974 1.0692845,-0.299446 0.3449284,-0.195392 0.6381242,-0.49908 0.879571,-0.911082 0.099719,-0.174085 0.1801435,-0.371653 0.2414461,-0.592505 0.061318,-0.220871 0.1073593,-0.448107 0.1379253,-0.681708 0.034578,-0.233619 0.057501,-0.465097 0.06896,-0.694454 0.011458,-0.233619 0.017191,-0.448107 0.017191,-0.643499 v -5.612961 z m 3.2365863,0 -1.4487146,0.50969 v 0.445984 h 0.8220891 v 3.535979 c 0,0.369532 0.036486,0.688072 0.1092708,0.955674 0.076604,0.26334 0.1839649,0.48207 0.3219278,0.656229 0.141746,0.169914 0.3123578,0.295183 0.5116421,0.375897 0.2031245,0.08487 0.4311603,0.12748 0.6841073,0.12748 0.1725022,0 0.3487671,-0.03191 0.528891,-0.09556 0.1839649,-0.05948 0.3583597,-0.133829 0.5231439,-0.222993 0.1686814,-0.09339 0.3238565,-0.193254 0.4656604,-0.299446 0.1455659,-0.106083 0.268286,-0.201739 0.367929,-0.286696 v 0.745429 h 1.8683543 v -0.509689 l -0.517392,-0.03826 c -0.06896,-0.0091 -0.130285,-0.03826 -0.183965,-0.08922 -0.04986,-0.05096 -0.07469,-0.116782 -0.07469,-0.197515 v -5.61296 h -0.482891 l -1.4372143,0.509689 v 0.445984 h 0.82784 v 4.370591 c -0.068967,0.03826 -0.1532095,0.08069 -0.2529471,0.127482 -0.095899,0.04243 -0.1993038,0.08505 -0.310447,0.12748 -0.11118,0.03826 -0.2280343,0.07 -0.3506778,0.09557 -0.122642,0.02539 -0.2433567,0.03826 -0.362178,0.03826 -0.2069459,0 -0.3832507,-0.03192 -0.5288933,-0.09557 -0.1455667,-0.068 -0.2644458,-0.165562 -0.3564091,-0.293079 -0.088257,-0.127482 -0.1532073,-0.282453 -0.1954652,-0.465079 -0.038394,-0.182645 -0.057501,-0.388646 -0.057501,-0.618003 v -4.243182 z m 20.8279631,1.892234 c 0.187785,0 0.364089,0.04878 0.528893,0.146522 0.164861,0.09339 0.306607,0.222974 0.425409,0.388628 0.122644,0.161391 0.218447,0.352541 0.287447,0.57341 0.07278,0.220854 0.109271,0.456594 0.109271,0.707186 0,0.25061 -0.03649,0.488453 -0.109271,0.713567 -0.06896,0.220872 -0.164861,0.414124 -0.287447,0.579778 -0.118821,0.165742 -0.260606,0.297322 -0.425409,0.39501 -0.164861,0.09339 -0.341108,0.140174 -0.528893,0.140174 -0.183964,0 -0.358339,-0.04678 -0.523142,-0.140174 -0.164861,-0.09774 -0.310448,-0.229358 -0.43691,-0.39501 -0.122644,-0.165563 -0.220376,-0.358906 -0.293198,-0.579778 -0.06896,-0.225114 -0.103539,-0.462957 -0.103539,-0.713567 0,-0.250592 0.03458,-0.486332 0.103539,-0.707186 0.07278,-0.220869 0.170593,-0.412001 0.293198,-0.57341 0.126462,-0.165563 0.272106,-0.295202 0.43691,-0.388628 0.164861,-0.09774 0.339178,-0.146522 0.523142,-0.146522 z"
     id="text843"
     inkscape:connector-curvature="0" />
</svg>
