/* XPM */
static char * shade_toggled_prelight_xpm[] = {
"32 32 28 1",
" 	c None",
".	c #BA672F",
"+	c #B35618",
"@	c #B85C1E",
"#	c #C4692E",
"$	c #CC7338",
"%	c #D0773D",
"&	c #B45719",
"*	c #C56B2E",
"=	c #D1793D",
"-	c #D1793E",
";	c #D1783D",
">	c #C56A2E",
",	c #CA7035",
"'	c #CA6F34",
")	c #C2672B",
"!	c #B35718",
"~	c #C76C31",
"{	c #C76D32",
"]	c #B45619",
"^	c #C16629",
"/	c #C4692D",
"(	c #C2682B",
"_	c #CC7337",
":	c #D0773C",
"<	c #C3692C",
"[	c #B85B1E",
"}	c #C97034",
"................................",
"++++++++++++++++++++++++++++++++",
"++++++++++++++++++++++++++++++++",
"++++++++++++++++++++++++++++++++",
"++++++++++++++++++++++++++++++++",
"++++++++++++++++++++++++++++++++",
"++++++++++++++++++++++++++++++++",
"++++++++++++++++++++++++++++++++",
"++++++++++++@#$%%$#@++++++++++++",
"++++++++++&*=------;>&++++++++++",
"+++++++++&,----------'&+++++++++",
"+++++++++*------------>+++++++++",
"++++++++@=-$--------$-;@++++++++",
"++++++++#-)!~------{]^-/++++++++",
"++++++++$-(+]{----{]+(-_++++++++",
"++++++++:--<+!~--{]+(--:++++++++",
"++++++++:---<+!~{]+(---:++++++++",
"++++++++$----(+]]+(----_++++++++",
"++++++++#-----<++(-----/++++++++",
"++++++++@;-----((-----;[++++++++",
"+++++++++>------------#+++++++++",
"+++++++++&}----------}]+++++++++",
"++++++++++&>;------;#]++++++++++",
"++++++++++++@/_::_/[++++++++++++",
"++++++++++++++++++++++++++++++++",
"++++++++++++++++++++++++++++++++",
"++++++++++++++++++++++++++++++++",
"++++++++++++++++++++++++++++++++",
"++++++++++++++++++++++++++++++++",
"++++++++++++++++++++++++++++++++",
"++++++++++++++++++++++++++++++++",
"++++++++++++++++++++++++++++++++"};
