<?xml version="1.0" encoding="UTF-8" standalone="no"?>
<!-- Created with Inkscape (http://www.inkscape.org/) -->

<svg
   xmlns:dc="http://purl.org/dc/elements/1.1/"
   xmlns:cc="http://creativecommons.org/ns#"
   xmlns:rdf="http://www.w3.org/1999/02/22-rdf-syntax-ns#"
   xmlns:svg="http://www.w3.org/2000/svg"
   xmlns="http://www.w3.org/2000/svg"
   xmlns:sodipodi="http://sodipodi.sourceforge.net/DTD/sodipodi-0.dtd"
   xmlns:inkscape="http://www.inkscape.org/namespaces/inkscape"
   width="32"
   height="32"
   id="svg3869"
   version="1.1"
   inkscape:version="0.92.4 (5da689c313, 2019-01-14)"
   sodipodi:docname="kdeconnect.svg"
   viewBox="0 0 32 32">
  <defs
     id="defs3871">
    <style
       type="text/css"
       id="current-color-scheme">
      .ColorScheme-Text {
        color:#00ff00;
      }
      .ColorScheme-Background {
        color:#ff0000;
      }
      .ColorScheme-Highlight {
        color:#0000ff;
      }
      .ColorScheme-ButtonHover {
        color:#ffff00;
      }
      .ColorScheme-ButtonFocus{
        color:#ff00ff;
      }
      .ColorScheme-NegativeText {
        color:#00ffff;
      }
  </style>
  </defs>
  <sodipodi:namedview
     id="base"
     pagecolor="#ffffff"
     bordercolor="#666666"
     borderopacity="1.0"
     inkscape:pageopacity="0.0"
     inkscape:pageshadow="2"
     inkscape:zoom="7.0559861"
     inkscape:cx="19.50769"
     inkscape:cy="35.147459"
     inkscape:document-units="px"
     inkscape:current-layer="layer1"
     showgrid="true"
     fit-margin-top="0"
     fit-margin-left="0"
     fit-margin-right="0"
     fit-margin-bottom="0"
     inkscape:window-width="1366"
     inkscape:window-height="704"
     inkscape:window-x="0"
     inkscape:window-y="0"
     inkscape:window-maximized="1"
     inkscape:showpageshadow="false" />
  <metadata
     id="metadata3874">
    <rdf:RDF>
      <cc:Work
         rdf:about="">
        <dc:format>image/svg+xml</dc:format>
        <dc:type
           rdf:resource="http://purl.org/dc/dcmitype/StillImage" />
        <dc:title></dc:title>
      </cc:Work>
    </rdf:RDF>
  </metadata>
  <g
     inkscape:label="Capa 1"
     inkscape:groupmode="layer"
     id="layer1"
     transform="translate(-321,-529.36218)">
    <g
       id="kdeconnect">
      <rect
         y="529.36218"
         x="321"
         height="32"
         width="32"
         id="rect4436"
         style="opacity:1;fill:none;fill-opacity:1;stroke:none;stroke-width:0.1;stroke-linecap:square;stroke-linejoin:miter;stroke-miterlimit:4;stroke-dasharray:none;stroke-dashoffset:0;stroke-opacity:1" />
      <path
         inkscape:connector-curvature="0"
         id="path2"
         class="ColorScheme-Text"
         d="m 336.96289,532.62585 a 12.773233,12.773233 0 0 0 -12.77344,12.79493 12.773233,12.773233 0 0 0 12.79297,12.75195 12.773233,12.773233 0 0 0 12.75391,-12.77344 12.773233,12.773233 0 0 0 -12.77344,-12.77344 z m -0.041,1.88867 0.0196,0.0215 a 10.965894,10.965894 0 0 1 6.01758,1.80664 h -12.08789 a 10.965894,10.965894 0 0 1 6.05078,-1.82813 z m -6.11328,1.87305 v 18.0293 h 12.36719 v -17.93555 a 10.965894,10.965894 0 0 1 4.73242,9.01953 10.965894,10.965894 0 0 1 -10.9668,10.98633 10.965894,10.965894 0 0 1 -10.98632,-10.96484 10.965894,10.965894 0 0 1 4.85351,-9.13477 z m 0.71094,2.26953 h 10.92578 v 13.60742 h -10.92578 z m 6.31641,1.3418 -1.78711,0.18164 v 7.33203 l 1.76562,-0.26367 v -3.10742 l 2.37695,3.45117 1.84766,-0.56836 -2.4375,-3.34961 2.45703,-3.14844 -1.88867,-0.44727 -2.35547,3.16797 z m -4.08204,1.78516 0.0196,0.0215 h -0.0606 l -0.68946,0.71095 a 0.0812288,0.0812288 0 0 0 0,0.12109 l 0.81251,1.36133 c -0.16246,0.24366 -0.26567,0.50746 -0.3672,0.77148 l -1.50194,0.32422 a 0.10153606,0.10153606 0 0 0 -0.0606,0.0821 v 1.01562 c 0,0.0202 0.02,0.0606 0.0606,0.0606 l 1.46288,0.36524 c 0.0812,0.32492 0.20279,0.62978 0.36524,0.91406 l -0.85351,1.2793 a 0.0812288,0.0812288 0 0 0 0,0.1211 l 0.71093,0.71093 h 0.12109 l 1.32032,-0.8125 c 0.26401,0.16245 0.54891,0.28401 0.85352,0.36524 l 0.30468,1.48242 c 0,0.0404 0.0392,0.082 0.08,0.082 h 0.9961 c 0.0404,0 0.08,-0.0413 0.08,-0.082 l 0.36718,-1.48242 c 0.30462,-0.10153 0.60907,-0.20279 0.87305,-0.36524 l 1.29883,0.85352 h 0.12109 l 0.6914,-0.71094 a 0.0812288,0.0812288 0 0 0 0.0196,-0.12109 l -0.48632,-0.77149 -0.14258,0.039 -0.0606,-0.0196 -0.69141,-1.01563 a 2.8430092,2.8430092 0 1 1 -3.73633,-3.8789 v -0.77148 c -0.16247,0.0811 -0.34534,0.14259 -0.50781,0.24413 l -1.33985,-0.89453 z"
         style="fill:currentColor;stroke-width:2.03072023" />
    </g>
    <g
       id="22-22-kdeconnect"
       transform="translate(28)">
      <rect
         style="opacity:1;fill:none;fill-opacity:1;stroke:none;stroke-width:0.13858683;stroke-linecap:square;stroke-linejoin:miter;stroke-miterlimit:4;stroke-dasharray:none;stroke-dashoffset:0;stroke-opacity:1"
         id="rect4444"
         width="22"
         height="22"
         x="326.01538"
         y="534.36218" />
      <path
         id="path2-7"
         d="m 332.35392,537.39136 c -0.36942,0 -0.65361,0.2842 -0.65361,0.68203 v 14.57757 c 0,0.36947 0.28419,0.68203 0.65361,0.68203 h 9.29216 c 0.36942,0 0.65361,-0.2842 0.65361,-0.68203 v -14.57757 c 0,-0.36947 -0.28419,-0.68203 -0.65361,-0.68203 z m 0.82405,2.07443 h 7.67246 c 0.25574,0 0.45466,0.19888 0.45466,0.48307 v 10.25835 c 0,0.28414 -0.19892,0.48307 -0.48307,0.48307 h -7.67245 a 0.48307911,0.48307911 0 0 1 -0.45467,-0.48307 v -10.25835 c 0,-0.28419 0.19893,-0.48307 0.48307,-0.48307 z m 3.80781,2.15963 h -0.34098 l -0.19893,1.13667 a 2.6711433,2.6711433 0 0 0 -0.53992,0.17046 l -0.82407,-0.79564 a 3.6941346,3.6941346 0 0 0 -0.56835,0.42625 l 0.51151,1.02301 a 2.6995599,2.6995599 0 0 0 -0.31255,0.45465 l -1.13669,-0.17051 a 3.6941346,3.6941346 0 0 0 -0.2273,0.68201 l 0.99457,0.56833 a 2.5574777,2.5574777 0 0 0 0,0.25574 v 0.25571 l -0.99457,0.53993 0.2273,0.68201 1.13669,-0.14209 0.28414,0.42623 -0.45466,1.02301 0.56834,0.42625 0.79564,-0.79564 c 0.17051,0.0855 0.34103,0.14203 0.53992,0.17046 l 0.19893,1.13667 a 3.8078,3.8078 0 0 0 0.7104,0 l 0.19893,-1.13667 a 2.6427269,2.6427269 0 0 0 0.53992,-0.17046 l 0.79563,0.79564 c 0.22731,-0.11368 0.39783,-0.28414 0.56835,-0.42625 l -0.48307,-1.02301 a 2.7279763,2.7279763 0 0 0 0.31255,-0.42623 l 1.13669,0.14209 a 3.6941346,3.6941346 0 0 0 0.2273,-0.68201 l -0.99457,-0.56834 a 2.9268912,2.9268912 0 0 0 0,-0.51144 l 0.99457,-0.53993 a 3.6941346,3.6941346 0 0 0 -0.2273,-0.68201 l -1.13669,0.17051 a 2.6995599,2.6995599 0 0 0 -0.28414,-0.45465 l 0.45466,-1.02301 a 3.6941346,3.6941346 0 0 0 -0.56835,-0.42625 l -0.79563,0.79564 a 2.6711433,2.6711433 0 0 0 -0.53992,-0.17046 l -0.19893,-1.13667 a 3.8078,3.8078 0 0 0 -0.36942,0 z m 0,2.13121 a 1.605545,1.605545 0 0 1 0,3.21109 1.605545,1.605545 0 0 1 0,-3.21109 z"
         style="fill:currentColor;fill-rule:evenodd;stroke-width:2.84164166"
         class="ColorScheme-Text"
         inkscape:connector-curvature="0" />
    </g>
    <g
       id="16-16-kdeconnect"
       transform="translate(-24)">
      <rect
         y="537.36218"
         x="329"
         height="16"
         width="16"
         id="rect4442"
         style="opacity:1;fill:none;fill-opacity:1;stroke:none;stroke-width:0.10079043;stroke-linecap:square;stroke-linejoin:miter;stroke-miterlimit:4;stroke-dasharray:none;stroke-dashoffset:0;stroke-opacity:1" />
      <path
         id="path2-5"
         class="ColorScheme-Text"
         d="m 333.15203,538.7606 c -0.30598,0 -0.54131,0.23535 -0.54131,0.56485 v 12.07345 c 0,0.30596 0.23533,0.56485 0.54131,0.56485 h 7.69594 c 0.30598,0 0.54131,-0.23535 0.54131,-0.56485 v -12.07345 c 0,-0.30596 -0.23533,-0.56485 -0.54131,-0.56485 z m 0.6825,1.71806 h 6.35445 c 0.21184,0 0.37657,0.16475 0.37657,0.40008 v 8.49616 c 0,0.23535 -0.16473,0.40009 -0.40009,0.40009 h -6.35444 a 0.40009545,0.40009545 0 0 1 -0.37657,-0.40009 v -8.49616 c 0,-0.23533 0.16473,-0.40008 0.40008,-0.40008 z m 3.15368,1.78867 h -0.2824 l -0.16474,0.94137 a 2.2122925,2.2122925 0 0 0 -0.44716,0.14121 l -0.68253,-0.65897 a 3.0595535,3.0595535 0 0 0 -0.4707,0.35304 l 0.42363,0.84726 a 2.2358276,2.2358276 0 0 0 -0.25887,0.37655 l -0.94141,-0.14119 a 3.0595535,3.0595535 0 0 0 -0.18828,0.56483 l 0.82372,0.47069 a 2.1181524,2.1181524 0 0 0 0,0.21183 v 0.2118 l -0.82372,0.44717 0.18828,0.56483 0.94141,-0.11761 0.23536,0.35301 -0.37657,0.84726 0.47071,0.35304 0.65897,-0.65897 c 0.14119,0.0706 0.2824,0.11762 0.44716,0.14121 l 0.16474,0.94138 a 3.1536936,3.1536936 0 0 0 0.58838,0 l 0.16474,-0.94138 a 2.1887575,2.1887575 0 0 0 0.44716,-0.14121 l 0.65897,0.65897 c 0.18828,-0.0942 0.3295,-0.23535 0.47071,-0.35304 l -0.40008,-0.84726 a 2.2593625,2.2593625 0 0 0 0.25887,-0.35301 l 0.94141,0.11761 a 3.0595535,3.0595535 0 0 0 0.18828,-0.56483 l -0.82372,-0.47069 a 2.4241078,2.4241078 0 0 0 0,-0.42363 l 0.82372,-0.44717 a 3.0595535,3.0595535 0 0 0 -0.18828,-0.56483 l -0.94141,0.14119 a 2.2358276,2.2358276 0 0 0 -0.23536,-0.37655 l 0.37657,-0.84726 a 3.0595535,3.0595535 0 0 0 -0.47071,-0.35304 l -0.65897,0.65897 a 2.2122925,2.2122925 0 0 0 -0.44716,-0.14121 l -0.16474,-0.94137 a 3.1536936,3.1536936 0 0 0 -0.30598,0 z m 0,1.76513 a 1.3297302,1.3297302 0 0 1 0,2.65943 1.3297302,1.3297302 0 0 1 0,-2.65943 z"
         style="fill:currentColor;fill-rule:evenodd;stroke-width:2.35350251"
         inkscape:connector-curvature="0" />
    </g>
    <path
       style="font-style:normal;font-variant:normal;font-weight:normal;font-stretch:normal;font-size:16px;line-height:1.25;font-family:'Abyssinica SIL';-inkscape-font-specification:'Abyssinica SIL';letter-spacing:0px;word-spacing:0px;fill:#ffffff;fill-opacity:1;stroke:none;stroke-width:0.41620618"
       d="m 334.32803,491.06726 c -0.0522,0 -0.10131,0.0117 -0.14746,0.0351 -0.0461,0.0211 -0.0873,0.0515 -0.12338,0.0913 -0.0341,0.0398 -0.0612,0.0867 -0.0813,0.14054 -0.0201,0.0539 -0.0301,0.11125 -0.0301,0.17215 0,0.0609 0.01,0.11946 0.0301,0.17567 0.0201,0.0539 0.0471,0.10072 0.0813,0.14054 0.0361,0.0398 0.0772,0.0714 0.12338,0.0949 0.0462,0.0234 0.0953,0.0351 0.14746,0.0351 0.0522,0 0.10132,-0.0117 0.14746,-0.0351 0.0461,-0.0234 0.0863,-0.055 0.12037,-0.0949 0.0341,-0.0398 0.0602,-0.0867 0.0783,-0.14054 0.0201,-0.0562 0.0301,-0.11477 0.0301,-0.17567 0,-0.0609 -0.01,-0.11828 -0.0301,-0.17215 -0.0181,-0.0539 -0.0441,-0.10072 -0.0783,-0.14054 -0.0341,-0.0398 -0.0742,-0.0703 -0.12037,-0.0913 -0.0461,-0.0234 -0.0953,-0.0351 -0.14746,-0.0351 z m 12.7265,0.52701 c -0.21065,0 -0.40526,0.0422 -0.58381,0.12648 -0.17655,0.0843 -0.32902,0.22017 -0.45742,0.40755 -0.12639,0.18738 -0.2257,0.43332 -0.29792,0.73781 -0.0722,0.30215 -0.10834,0.67106 -0.10834,1.10672 0,0.438 0.0371,0.79871 0.11135,1.08212 0.0742,0.28107 0.17353,0.50359 0.29792,0.66754 0.12439,0.16396 0.26783,0.27873 0.43034,0.34432 0.1625,0.0632 0.33203,0.0949 0.50857,0.0949 0.17655,0 0.34808,-0.0304 0.5146,-0.0913 0.16852,-0.0609 0.31699,-0.15459 0.44538,-0.28107 0.1284,-0.12648 0.23172,-0.28693 0.30997,-0.48133 0.0782,-0.19441 0.11736,-0.42512 0.11736,-0.69214 0,-0.17801 -0.0181,-0.33729 -0.0542,-0.47782 -0.0341,-0.14054 -0.0812,-0.26351 -0.14144,-0.36891 -0.0582,-0.10774 -0.12739,-0.19792 -0.20764,-0.27053 -0.0782,-0.075 -0.1615,-0.13585 -0.24978,-0.18269 -0.0883,-0.0469 -0.17855,-0.0808 -0.27084,-0.10189 -0.0923,-0.0211 -0.18056,-0.0316 -0.26482,-0.0316 -0.11034,0 -0.21166,0.0117 -0.30394,0.0351 -0.0923,0.0234 -0.17555,0.055 -0.24978,0.0949 -0.0742,0.0375 -0.13943,0.082 -0.19561,0.13351 -0.0562,0.0515 -0.10432,0.1054 -0.14444,0.16162 0.0301,-0.32323 0.0672,-0.58557 0.11134,-0.787 0.0462,-0.20144 0.10132,-0.35837 0.16552,-0.4708 0.0642,-0.11242 0.13943,-0.18855 0.2257,-0.22837 0.0863,-0.0398 0.18357,-0.0597 0.2919,-0.0597 0.0943,0 0.17254,0.0187 0.23473,0.0562 0.0622,0.0375 0.11235,0.0855 0.15047,0.14405 0.0381,0.0562 0.0642,0.12063 0.0782,0.19324 0.0161,0.0703 0.0241,0.13819 0.0241,0.20377 h 0.65302 c 0,-0.1499 -0.0271,-0.28927 -0.0813,-0.41809 -0.0542,-0.12882 -0.13141,-0.24125 -0.23172,-0.33729 -0.10031,-0.096 -0.22068,-0.17098 -0.36112,-0.22485 -0.14044,-0.0562 -0.29592,-0.0843 -0.46645,-0.0843 z m -6.79208,0.13351 c -0.0241,0.0375 -0.0702,0.0902 -0.13843,0.1581 -0.0682,0.0679 -0.14445,0.13936 -0.22871,0.21431 -0.0843,0.0726 -0.17153,0.14171 -0.26181,0.20729 -0.0883,0.0656 -0.16652,0.11477 -0.23473,0.14757 v 0.69213 c 0.0602,-0.0211 0.13041,-0.0504 0.21065,-0.0878 0.0802,-0.0398 0.16151,-0.0831 0.24376,-0.13 0.0823,-0.0492 0.1605,-0.10071 0.23473,-0.15459 0.0762,-0.0562 0.14044,-0.11242 0.1926,-0.16864 v 3.55555 h 0.62895 v -4.43389 z m 3.55704,0 -1.57087,2.62801 v 0.85726 h 1.81162 v 0.94862 h 0.62293 v -0.94862 h 0.40626 v -0.64295 h -0.40626 v -2.84232 z m 6.65666,0 -1.57087,2.62801 v 0.85726 h 1.81162 v 0.94862 h 0.62293 v -0.94862 h 0.40626 v -0.64295 h -0.40626 v -2.84232 z m -6.41591,0.53403 v 2.30829 h -1.34518 z m 6.65666,0 v 2.30829 h -1.34518 z m -16.33169,0.34431 -0.75835,0.27405 v 0.23891 h 0.43635 v 3.19366 c 0,0.1382 -0.005,0.26936 -0.015,0.3935 -0.008,0.12648 -0.0241,0.24008 -0.0482,0.3408 -0.0221,0.10306 -0.0522,0.19089 -0.0903,0.26351 -0.0381,0.075 -0.0853,0.13116 -0.14143,0.16864 l -0.59886,-0.48134 c -0.0301,0.0117 -0.0612,0.0281 -0.0933,0.0492 -0.0321,0.0234 -0.0602,0.0515 -0.0843,0.0843 -0.0261,0.0351 -0.0471,0.075 -0.0632,0.11946 -0.0161,0.0468 -0.0241,0.10071 -0.0241,0.16161 0,0.0679 0.013,0.12649 0.0391,0.17567 0.0241,0.0515 0.0582,0.0937 0.10231,0.12648 0.0421,0.0328 0.0913,0.0562 0.14746,0.0703 0.0562,0.0164 0.11636,0.0246 0.18056,0.0246 0.19461,0 0.38118,-0.055 0.55974,-0.16513 0.18056,-0.10775 0.33404,-0.27522 0.46043,-0.50242 0.0522,-0.096 0.0943,-0.20495 0.12639,-0.32674 0.0321,-0.1218 0.0562,-0.24711 0.0722,-0.37593 0.0181,-0.12883 0.0301,-0.25648 0.0361,-0.38296 0.006,-0.12883 0.009,-0.24711 0.009,-0.35486 v -3.09529 z m 1.69426,0 -0.75836,0.28107 v 0.24594 h 0.43034 v 1.94993 c 0,0.20378 0.0191,0.37944 0.0572,0.52701 0.0401,0.14522 0.0963,0.26584 0.16852,0.36188 0.0742,0.0937 0.16351,0.16278 0.26783,0.20729 0.10633,0.0468 0.2257,0.0703 0.35811,0.0703 0.0903,0 0.18257,-0.0176 0.27686,-0.0527 0.0963,-0.0328 0.18759,-0.0738 0.27385,-0.12297 0.0883,-0.0515 0.16953,-0.10657 0.24376,-0.16513 0.0762,-0.0585 0.14044,-0.11125 0.1926,-0.1581 v 0.41107 h 0.97803 v -0.28107 l -0.27084,-0.0211 c -0.0361,-0.005 -0.0682,-0.0211 -0.0963,-0.0492 -0.0261,-0.0281 -0.0391,-0.0644 -0.0391,-0.10892 v -3.09529 h -0.25278 l -0.75234,0.28107 v 0.24594 h 0.43335 v 2.41018 c -0.0361,0.0211 -0.0802,0.0445 -0.13241,0.0703 -0.0502,0.0234 -0.10433,0.0469 -0.16251,0.0703 -0.0582,0.0211 -0.11937,0.0386 -0.18357,0.0527 -0.0642,0.014 -0.12739,0.0211 -0.18959,0.0211 -0.10833,0 -0.20062,-0.0176 -0.27686,-0.0527 -0.0762,-0.0375 -0.13843,-0.0913 -0.18657,-0.16162 -0.0462,-0.0703 -0.0802,-0.15576 -0.10232,-0.25647 -0.0201,-0.10072 -0.0301,-0.21432 -0.0301,-0.3408 v -2.33992 z m 10.90284,1.04348 c 0.0983,0 0.19059,0.0269 0.27686,0.0808 0.0863,0.0515 0.1605,0.12296 0.22269,0.21431 0.0642,0.089 0.11435,0.19441 0.15047,0.31621 0.0381,0.12179 0.0572,0.25179 0.0572,0.38998 0,0.1382 -0.0191,0.26936 -0.0572,0.3935 -0.0361,0.1218 -0.0863,0.22837 -0.15047,0.31972 -0.0622,0.0914 -0.13642,0.16396 -0.22269,0.21783 -0.0863,0.0515 -0.17856,0.0773 -0.27686,0.0773 -0.0963,0 -0.18758,-0.0258 -0.27385,-0.0773 -0.0863,-0.0539 -0.16251,-0.12648 -0.22871,-0.21783 -0.0642,-0.0913 -0.11536,-0.19792 -0.15348,-0.31972 -0.0361,-0.12414 -0.0542,-0.2553 -0.0542,-0.3935 0,-0.13819 0.0181,-0.26819 0.0542,-0.38998 0.0381,-0.1218 0.0893,-0.2272 0.15348,-0.31621 0.0662,-0.0913 0.14244,-0.16279 0.22871,-0.21431 0.0863,-0.0539 0.17755,-0.0808 0.27385,-0.0808 z"
       id="text843"
       inkscape:connector-curvature="0" />
  </g>
</svg>
