<?xml version="1.0" encoding="UTF-8" standalone="no"?>
<!-- Created with Inkscape (http://www.inkscape.org/) -->

<svg
   xmlns:dc="http://purl.org/dc/elements/1.1/"
   xmlns:cc="http://creativecommons.org/ns#"
   xmlns:rdf="http://www.w3.org/1999/02/22-rdf-syntax-ns#"
   xmlns:svg="http://www.w3.org/2000/svg"
   xmlns="http://www.w3.org/2000/svg"
   xmlns:sodipodi="http://sodipodi.sourceforge.net/DTD/sodipodi-0.dtd"
   xmlns:inkscape="http://www.inkscape.org/namespaces/inkscape"
   width="54"
   height="32"
   viewBox="0 0 14.2875 8.4666659"
   version="1.1"
   id="svg827"
   inkscape:version="0.92.4 (5da689c313, 2019-01-14)"
   sodipodi:docname="printer.svg">
  <defs
     id="defs821" />
  <style
     type="text/css"
     id="current-color-scheme">
      .ColorScheme-Text {
        color:#00ff00;
      }
      .ColorScheme-Background {
        color:#ff0000;
      }
      .ColorScheme-Highlight {
        color:#0000ff;
      }
      .ColorScheme-ButtonHover {
        color:#ffff00;
      }
      .ColorScheme-ButtonFocus{
        color:#ff00ff;
      }
      .ColorScheme-NegativeText {
        color:#00ffff;
      }
  </style>
  <sodipodi:namedview
     id="base"
     pagecolor="#ffffff"
     bordercolor="#666666"
     borderopacity="1.0"
     inkscape:pageopacity="0.0"
     inkscape:pageshadow="2"
     inkscape:zoom="8.1121796"
     inkscape:cx="26.906103"
     inkscape:cy="30.680183"
     inkscape:document-units="mm"
     inkscape:current-layer="layer1"
     showgrid="false"
     units="px"
     inkscape:window-width="1366"
     inkscape:window-height="708"
     inkscape:window-x="0"
     inkscape:window-y="0"
     inkscape:window-maximized="1"
     showguides="true"
     inkscape:guide-bbox="true" />
  <metadata
     id="metadata824">
    <rdf:RDF>
      <cc:Work
         rdf:about="">
        <dc:format>image/svg+xml</dc:format>
        <dc:type
           rdf:resource="http://purl.org/dc/dcmitype/StillImage" />
        <dc:title></dc:title>
      </cc:Work>
    </rdf:RDF>
  </metadata>
  <g
     inkscape:label="Capa 1"
     inkscape:groupmode="layer"
     id="layer1"
     transform="translate(0,-288.53334)">
    <g
       id="printer">
      <rect
         style="fill:none;fill-rule:evenodd;stroke:none;stroke-width:0.26458332px;stroke-linecap:butt;stroke-linejoin:miter;stroke-opacity:1"
         id="rect3343"
         width="8.4666662"
         height="8.4666662"
         x="5.8003292"
         y="288.52216" />
      <path
         id="path2"
         class="ColorScheme-Text"
         d="m 10.023582,289.37567 a 3.3795944,3.3795944 0 0 0 -3.379594,3.385 3.3795944,3.3795944 0 0 0 3.384967,3.37424 3.3795944,3.3795944 0 0 0 3.374221,-3.37962 3.3795944,3.3795944 0 0 0 -3.379594,-3.37962 z m -0.0054,0.50506 a 2.9014004,2.9014004 0 0 1 2.901399,2.90145 2.9014004,2.9014004 0 0 1 -2.901398,2.90674 2.9014004,2.9014004 0 0 1 -2.9067737,-2.90137 2.9014004,2.9014004 0 0 1 2.9014007,-2.9122 z M 8.5083799,290.461 v 0.75223 h 3.0196061 v -0.74685 H 8.5084069 Z m -0.7522149,1.12837 c -0.1934267,0 -0.3761076,0.19342 -0.3761076,0.38145 v 1.50981 c 0,0.18805 0.1826809,0.37613 0.3761076,0.37613 h 0.3761072 v -0.75221 h 0.3761087 v 1.85368 h 3.0196071 v -1.85906 h 0.376108 v 0.75221 h 0.376106 c 0.193428,0 0.376108,-0.18808 0.376108,-0.37612 v -1.50444 c 0,-0.18803 -0.18268,-0.37607 -0.376108,-0.37607 H 7.7561908 Z m 1.0907109,1.51518 h 2.3479861 v 1.5313 H 8.8469029 Z"
         style="fill:currentColor;stroke-width:0.53729641"
         inkscape:connector-curvature="0" />
    </g>
    <g
       id="22-22-printer"
       transform="matrix(0.26458333,0,0,0.26458333,-0.0291827,291.2156)">
      <rect
         y="0"
         x="0"
         height="22"
         width="22"
         id="rect3009"
         style="fill:currentColor;fill-opacity:0;stroke:none" />
      <path
         inkscape:connector-curvature="0"
         id="path854"
         class="ColorScheme-Text"
         d="M 5.7304688,3.2949219 V 5.9160156 H 16.335938 V 3.2949219 Z m -2.640625,3.9433593 c -0.679289,0 -1.3222657,0.6775539 -1.3222657,1.3378907 v 5.3027341 c 0,0.660409 0.6429767,1.322266 1.3222657,1.322266 h 1.3203124 v -2.642578 h 1.3203126 v 6.509765 H 16.335938 v -6.527343 h 1.320312 v 2.642578 h 1.320312 c 0.6793,0 1.320313,-0.661892 1.320313,-1.322266 V 8.5761719 c 0,-0.6603368 -0.641013,-1.3183594 -1.320313,-1.3183594 H 3.0898438 Z M 14,10 h 3 v 1 H 14 Z M 6.9199219,12.558594 H 15.164062 V 17.9375 H 6.9199219 Z M 8,14 v 1 h 6 v -1 z m 0,2 v 1 h 6 v -1 z"
         style="fill:currentColor;fill-opacity:1;stroke:none" />
    </g>
    <path
       style="font-style:normal;font-variant:normal;font-weight:normal;font-stretch:normal;font-size:16px;line-height:1.25;font-family:'Abyssinica SIL';-inkscape-font-specification:'Abyssinica SIL';letter-spacing:0px;word-spacing:0px;fill:#ffffff;fill-opacity:1;stroke:none;stroke-width:0.11012122"
       d="m 3.0649713,280.72865 c -0.013811,0 -0.026805,0.003 -0.039015,0.009 -0.012197,0.006 -0.023098,0.0136 -0.032644,0.0242 -0.00902,0.0105 -0.016192,0.0229 -0.021511,0.0372 -0.00532,0.0143 -0.00796,0.0294 -0.00796,0.0455 0,0.0161 0.00265,0.0316 0.00796,0.0465 0.00532,0.0143 0.012462,0.0266 0.021511,0.0372 0.00955,0.0105 0.020426,0.0189 0.032644,0.0251 0.012224,0.006 0.025215,0.009 0.039015,0.009 0.013811,0 0.026808,-0.003 0.039016,-0.009 0.012197,-0.006 0.022833,-0.0145 0.031848,-0.0251 0.00902,-0.0105 0.015928,-0.0229 0.020717,-0.0372 0.00532,-0.0149 0.00796,-0.0304 0.00796,-0.0465 0,-0.0161 -0.00265,-0.0313 -0.00796,-0.0455 -0.00479,-0.0143 -0.011668,-0.0267 -0.020717,-0.0372 -0.00902,-0.0105 -0.019632,-0.0186 -0.031848,-0.0242 -0.012197,-0.006 -0.025215,-0.009 -0.039016,-0.009 z m 3.3672198,0.13944 c -0.055735,0 -0.107225,0.0112 -0.1544664,0.0335 -0.046712,0.0223 -0.087053,0.0583 -0.1210257,0.10783 -0.033441,0.0496 -0.059716,0.11465 -0.078825,0.19522 -0.019103,0.0799 -0.028665,0.17755 -0.028665,0.29282 0,0.11588 0.00982,0.21132 0.029461,0.28631 0.019632,0.0744 0.045913,0.13324 0.078825,0.17662 0.032911,0.0434 0.070863,0.0737 0.1138608,0.0911 0.042995,0.0167 0.08785,0.0251 0.1345591,0.0251 0.046712,0 0.092096,-0.008 0.1361546,-0.0242 0.044588,-0.0161 0.08387,-0.0409 0.1178401,-0.0744 0.033972,-0.0335 0.061309,-0.0759 0.082013,-0.12735 0.02069,-0.0514 0.031051,-0.11248 0.031051,-0.18313 0,-0.0471 -0.00479,-0.0892 -0.01434,-0.12642 -0.00902,-0.0372 -0.021484,-0.0697 -0.037423,-0.0976 -0.015399,-0.0285 -0.033705,-0.0524 -0.054938,-0.0716 -0.02069,-0.0198 -0.04273,-0.0359 -0.066088,-0.0483 -0.023363,-0.0124 -0.047241,-0.0214 -0.07166,-0.027 -0.024421,-0.006 -0.047773,-0.008 -0.070067,-0.008 -0.029194,0 -0.056002,0.003 -0.080417,0.009 -0.024421,0.006 -0.046448,0.0146 -0.066088,0.0251 -0.019632,0.01 -0.036891,0.0217 -0.051755,0.0353 -0.01487,0.0136 -0.027601,0.0279 -0.038216,0.0428 0.00796,-0.0855 0.01778,-0.15493 0.029459,-0.20823 0.012224,-0.0533 0.026808,-0.0948 0.043794,-0.12456 0.016986,-0.0298 0.036891,-0.0499 0.059716,-0.0604 0.022833,-0.0105 0.04857,-0.0158 0.077232,-0.0158 0.02495,0 0.045651,0.005 0.062106,0.0149 0.016457,0.01 0.029726,0.0226 0.039812,0.0381 0.010081,0.0149 0.016986,0.0319 0.02069,0.0511 0.00426,0.0186 0.00638,0.0366 0.00638,0.0539 h 0.1727782 c 0,-0.0397 -0.00717,-0.0765 -0.021511,-0.11061 -0.01434,-0.0341 -0.034769,-0.0638 -0.061309,-0.0892 -0.02654,-0.0254 -0.058388,-0.0452 -0.095546,-0.0595 -0.037158,-0.0149 -0.078296,-0.0223 -0.1234148,-0.0223 z m -1.7970712,0.0353 c -0.00638,0.01 -0.018574,0.0239 -0.036626,0.0418 -0.018045,0.018 -0.038219,0.0369 -0.060513,0.0567 -0.022304,0.0192 -0.045384,0.0375 -0.069271,0.0548 -0.023363,0.0174 -0.044059,0.0304 -0.062106,0.0391 v 0.18312 c 0.015928,-0.006 0.034504,-0.0133 0.055735,-0.0232 0.02122,-0.0105 0.042733,-0.022 0.064495,-0.0344 0.021775,-0.013 0.042466,-0.0267 0.062106,-0.0409 0.020161,-0.0149 0.037158,-0.0297 0.050959,-0.0446 v 0.94074 h 0.1664097 v -1.17313 z m 0.9411335,0 -0.415626,0.69533 v 0.22682 h 0.4793245 v 0.25099 h 0.1648169 v -0.25099 h 0.1074896 v -0.17012 H 5.8047688 v -0.75203 z m 1.7612413,0 -0.415626,0.69533 v 0.22682 h 0.4793245 v 0.25099 h 0.1648169 v -0.25099 h 0.1074896 v -0.17012 H 7.5660101 v -0.75203 z m -1.6975428,0.1413 v 0.61073 H 5.2840397 Z m 1.7612413,0 v 0.61073 H 7.045281 Z m -4.321093,0.0911 -0.2006468,0.0725 v 0.0632 h 0.1154509 v 0.84499 c 0,0.0366 -0.00132,0.0713 -0.00397,0.10411 -0.00212,0.0335 -0.00638,0.0635 -0.012753,0.0902 -0.00585,0.0273 -0.013811,0.0505 -0.023892,0.0697 -0.010081,0.0198 -0.022569,0.0347 -0.03742,0.0446 l -0.1584483,-0.12735 c -0.00796,0.003 -0.016192,0.007 -0.024686,0.013 -0.00849,0.006 -0.015928,0.0136 -0.022304,0.0223 -0.00691,0.009 -0.012462,0.0198 -0.016722,0.0316 -0.00426,0.0125 -0.00638,0.0267 -0.00638,0.0428 0,0.018 0.00344,0.0335 0.010345,0.0465 0.00638,0.0136 0.015399,0.0248 0.02707,0.0335 0.011139,0.009 0.024157,0.0149 0.039016,0.0186 0.01487,0.004 0.030787,0.007 0.047773,0.007 0.051491,0 0.1008539,-0.0146 0.1480979,-0.0437 0.047773,-0.0285 0.088381,-0.0728 0.1218221,-0.13294 0.013811,-0.0254 0.02495,-0.0542 0.033441,-0.0864 0.00849,-0.0322 0.01487,-0.0654 0.019103,-0.0995 0.00479,-0.0341 0.00796,-0.0679 0.00955,-0.10133 0.00159,-0.0341 0.00238,-0.0654 0.00238,-0.0939 v -0.81896 z m 0.4482729,0 -0.2006494,0.0744 v 0.0651 h 0.1138608 v 0.51592 c 0,0.0539 0.00505,0.1004 0.015134,0.13944 0.01061,0.0384 0.025479,0.0703 0.044588,0.0957 0.019632,0.0248 0.043262,0.0431 0.070863,0.0548 0.028133,0.0124 0.059716,0.0186 0.09475,0.0186 0.023892,0 0.048305,-0.005 0.073252,-0.0139 0.025479,-0.009 0.049633,-0.0195 0.072456,-0.0325 0.023363,-0.0136 0.044855,-0.0282 0.064495,-0.0437 0.020161,-0.0155 0.037158,-0.0294 0.050959,-0.0418 v 0.10877 h 0.2587703 v -0.0744 l -0.07166,-0.006 c -0.00955,-10e-4 -0.018045,-0.006 -0.025479,-0.013 -0.00691,-0.007 -0.010345,-0.017 -0.010345,-0.0288 v -0.81896 h -0.066881 l -0.1990567,0.0744 v 0.0651 h 0.1146572 v 0.63769 c -0.00955,0.006 -0.02122,0.0118 -0.035033,0.0186 -0.013282,0.006 -0.027604,0.0124 -0.042998,0.0186 -0.015399,0.006 -0.031583,0.0102 -0.04857,0.0139 -0.016986,0.004 -0.033705,0.006 -0.050162,0.006 -0.028662,0 -0.053081,-0.005 -0.073252,-0.014 -0.020161,-0.01 -0.036626,-0.0241 -0.049363,-0.0428 -0.012224,-0.0186 -0.02122,-0.0412 -0.027072,-0.0679 -0.00532,-0.0266 -0.00796,-0.0567 -0.00796,-0.0902 v -0.6191 z m 2.8847098,0.27608 c 0.026009,0 0.050427,0.007 0.073253,0.0214 0.022834,0.0136 0.042466,0.0325 0.05892,0.0567 0.016986,0.0235 0.030255,0.0514 0.039812,0.0837 0.010081,0.0322 0.015134,0.0666 0.015134,0.10318 0,0.0366 -0.00505,0.0713 -0.015134,0.10411 -0.00955,0.0322 -0.022834,0.0604 -0.039812,0.0846 -0.016457,0.0242 -0.036094,0.0434 -0.05892,0.0576 -0.022833,0.0136 -0.047244,0.0204 -0.073253,0.0204 -0.025479,0 -0.04963,-0.007 -0.072456,-0.0204 -0.022834,-0.0143 -0.042998,-0.0335 -0.060513,-0.0576 -0.016986,-0.0242 -0.030522,-0.0524 -0.040608,-0.0846 -0.00955,-0.0328 -0.01434,-0.0675 -0.01434,-0.10411 0,-0.0366 0.00479,-0.071 0.01434,-0.10318 0.010081,-0.0322 0.023627,-0.0601 0.040608,-0.0837 0.017515,-0.0242 0.037687,-0.0431 0.060513,-0.0567 0.022833,-0.0143 0.046977,-0.0214 0.072456,-0.0214 z"
       id="text843"
       inkscape:connector-curvature="0" />
  </g>
</svg>
