<?xml version="1.0" encoding="UTF-8" standalone="no"?>
<!-- Created with Inkscape (http://www.inkscape.org/) -->

<svg
   xmlns:dc="http://purl.org/dc/elements/1.1/"
   xmlns:cc="http://creativecommons.org/ns#"
   xmlns:rdf="http://www.w3.org/1999/02/22-rdf-syntax-ns#"
   xmlns:svg="http://www.w3.org/2000/svg"
   xmlns="http://www.w3.org/2000/svg"
   xmlns:sodipodi="http://sodipodi.sourceforge.net/DTD/sodipodi-0.dtd"
   xmlns:inkscape="http://www.inkscape.org/namespaces/inkscape"
   id="svg4153"
   version="1.1"
   inkscape:version="0.92.4 (5da689c313, 2019-01-14)"
   width="22"
   height="22"
   sodipodi:docname="user.svg"
   viewBox="0 0 22 22">
  <metadata
     id="metadata4159">
    <rdf:RDF>
      <cc:Work
         rdf:about="">
        <dc:format>image/svg+xml</dc:format>
        <dc:type
           rdf:resource="http://purl.org/dc/dcmitype/StillImage" />
        <dc:title></dc:title>
      </cc:Work>
    </rdf:RDF>
  </metadata>
  <defs
     id="defs4157">
    <style
       type="text/css"
       id="current-color-scheme">
      .ColorScheme-Text {
        color:#00ff00;
      }
      .ColorScheme-Background {
        color:#ff0000;
      }
      .ColorScheme-Highlight {
        color:#0000ff;
      }
      .ColorScheme-ButtonHover {
        color:#ffff00;
      }
      .ColorScheme-ButtonFocus{
        color:#ff00ff;
      }
      .ColorScheme-NegativeText {
        color:#00ffff;
      }
  </style>
  </defs>
  <sodipodi:namedview
     pagecolor="#ffffff"
     bordercolor="#666666"
     borderopacity="1"
     objecttolerance="10"
     gridtolerance="10000"
     guidetolerance="10"
     inkscape:pageopacity="0"
     inkscape:pageshadow="2"
     inkscape:window-width="1366"
     inkscape:window-height="708"
     id="namedview4155"
     inkscape:document-units="px"
     showgrid="true"
     inkscape:showpageshadow="false"
     borderlayer="true"
     inkscape:zoom="2.621805"
     inkscape:cx="77"
     inkscape:cy="11.006371"
     inkscape:window-x="0"
     inkscape:window-y="0"
     inkscape:window-maximized="1"
     inkscape:current-layer="svg4153" />
  <inkscape:clipboard
     style="opacity:0.01000001;fill:#00000f;fill-opacity:0;stroke-width:1;stroke-linecap:butt;stroke-linejoin:miter;stroke-miterlimit:4;stroke-dasharray:none;stroke-dashoffset:0;stroke-opacity:1;stroke:none"
     min="0,0"
     max="22,22" />
  <g
     id="user-online">
    <rect
       y="0"
       x="88"
       height="22"
       width="22"
       id="rect4554"
       style="opacity:0.97000002;fill:none;fill-opacity:1;stroke:none" />
    <path
       id="path830-3"
       d="m 98.172962,2.9999997 a 3.5092271,3.5092271 0 1 0 -0.008,7.0184493 3.5092271,3.5092271 0 0 0 0.008,-7.0184493 z m 4.815168,8.9092653 a 3.605368,3.605368 0 0 0 -3.605366,3.605368 3.605368,3.605368 0 0 0 3.605366,3.605368 3.605368,3.605368 0 0 0 3.60537,-3.605368 3.605368,3.605368 0 0 0 -3.60537,-3.605368 z m -4.815168,0.45668 c -7.026461,0 -7.026461,4.686978 -7.026461,4.686978 v 1.169742 h 8.372465 a 4.4065608,4.4065608 0 0 1 -0.160238,-0.224334 4.4065608,4.4065608 0 0 1 -0.240358,-0.37656 4.4065608,4.4065608 0 0 1 -0.184274,-0.392586 4.4065608,4.4065608 0 0 1 -0.16024,-0.41662 4.4065608,4.4065608 0 0 1 -0.104154,-0.424632 4.4065608,4.4065608 0 0 1 -0.0641,-0.432644 4.4065608,4.4065608 0 0 1 -0.02404,-0.440656 4.4065608,4.4065608 0 0 1 0.01602,-0.320478 4.4065608,4.4065608 0 0 1 0.04808,-0.432644 4.4065608,4.4065608 0 0 1 0.09614,-0.424632 4.4065608,4.4065608 0 0 1 0.136202,-0.41662 4.4065608,4.4065608 0 0 1 0.184274,-0.400596 4.4065608,4.4065608 0 0 1 0.216322,-0.384572 4.4065608,4.4065608 0 0 1 0.256382,-0.360538 4.4065608,4.4065608 0 0 1 0.240358,-0.272406 c -0.504752,-0.0641 -0.993479,-0.136202 -1.602386,-0.136202 z m 6.609838,1.049562 0.72909,0.729086 -2.90833,2.90833 -0.72909,-0.721074 -1.45817,-1.45817 0.72108,-0.729086 1.46618,1.458172 z"
       style="fill:currentColor;stroke-width:1.16974163"
       class="ColorScheme-Text"
       inkscape:connector-curvature="0" />
  </g>
  <g
     id="user-offline"
     transform="translate(88,22)">
    <rect
       y="-22.012741"
       x="22.019203"
       height="22"
       width="22"
       id="rect4554-7"
       style="opacity:0.97000002;fill:none;fill-opacity:1;stroke:none" />
    <path
       inkscape:connector-curvature="0"
       id="path937"
       class="ColorScheme-Text"
       d="m 32.192465,-19.012733 a 3.5092271,3.5092271 0 1 0 -0.0078,7.017578 3.5092271,3.5092271 0 0 0 0.0078,-7.017578 z m 4.814453,8.910156 a 3.605368,3.605368 0 0 0 -3.605469,3.6035156 3.605368,3.605368 0 0 0 3.605469,3.6054684 3.605368,3.605368 0 0 0 3.605469,-3.6054684 3.605368,3.605368 0 0 0 -3.605469,-3.6035156 z m -4.814453,0.4550781 c -7.026462,0 -7.027344,4.6875 -7.027344,4.6875 v 1.1699219 h 8.373047 a 4.4065608,4.4065608 0 0 1 -0.160156,-0.224609 4.4065608,4.4065608 0 0 1 -0.240235,-0.376953 4.4065608,4.4065608 0 0 1 -0.183593,-0.392579 4.4065608,4.4065608 0 0 1 -0.160157,-0.4160152 4.4065608,4.4065608 0 0 1 -0.105468,-0.4238282 4.4065608,4.4065608 0 0 1 -0.06445,-0.4335937 4.4065608,4.4065608 0 0 1 -0.02344,-0.4414063 4.4065608,4.4065608 0 0 1 0.01563,-0.3203125 4.4065608,4.4065608 0 0 1 0.04883,-0.4316406 4.4065608,4.4065608 0 0 1 0.0957,-0.4257813 4.4065608,4.4065608 0 0 1 0.136719,-0.4160156 4.4065608,4.4065608 0 0 1 0.183594,-0.4003906 4.4065608,4.4065608 0 0 1 0.216797,-0.3847656 4.4065608,4.4065608 0 0 1 0.255859,-0.359375 4.4065608,4.4065608 0 0 1 0.240234,-0.2734375 c -0.504752,-0.0641 -0.992655,-0.1367188 -1.601562,-0.1367188 z m 2.80664,2.765625 h 4 v 1 h -4 z"
       style="opacity:0.5;fill:currentColor;stroke-width:1.16974163" />
  </g>
  <g
     id="user-away"
     transform="translate(88,22)">
    <rect
       y="-22"
       x="-22"
       height="22"
       width="22"
       id="rect4562"
       style="opacity:0.97000002;fill:none;fill-opacity:1;stroke:none" />
    <path
       id="path1027"
       d="m -11.826172,-19 a 3.5092271,3.5092271 0 1 0 -0.0098,7.017578 3.5092271,3.5092271 0 0 0 0.0098,-7.017578 z m 4.8144532,8.910156 a 3.605368,3.605368 0 0 0 -3.6054692,3.6035159 3.605368,3.605368 0 0 0 3.6054692,3.6054687 3.605368,3.605368 0 0 0 3.6054688,-3.6054687 3.605368,3.605368 0 0 0 -3.6054688,-3.6035159 z m -4.8144532,0.4550784 v 0.00781 c -7.026461,0 -7.027344,4.6875 -7.027344,4.6875 v 1.1621093 h 8.373047 a 4.4065608,4.4065608 0 0 1 -0.160156,-0.2246093 4.4065608,4.4065608 0 0 1 -0.240234,-0.3769531 4.4065608,4.4065608 0 0 1 -0.185547,-0.3925782 4.4065608,4.4065608 0 0 1 -0.160156,-0.4160156 4.4065608,4.4065608 0 0 1 -0.103516,-0.4238281 4.4065608,4.4065608 0 0 1 -0.06445,-0.4335938 4.4065608,4.4065608 0 0 1 -0.02344,-0.4414062 4.4065608,4.4065608 0 0 1 0.01563,-0.3203125 4.4065608,4.4065608 0 0 1 0.04883,-0.4316406 4.4065608,4.4065608 0 0 1 0.0957,-0.4257813 4.4065608,4.4065608 0 0 1 0.136718,-0.4160156 4.4065608,4.4065608 0 0 1 0.183594,-0.4003907 4.4065608,4.4065608 0 0 1 0.216797,-0.3847656 4.4065608,4.4065608 0 0 1 0.255859,-0.359375 4.4065608,4.4065608 0 0 1 0.240235,-0.2734375 c -0.504752,-0.0641 -0.992656,-0.1367187 -1.601563,-0.1367187 z m 4.8945314,0.9121094 2.2050781,2.2050781 -2.2050781,2.2050781 -0.8261719,-0.8261719 0.8261719,-0.828125 h -2.2050782 v -1.1015625 h 2.2050782 l -0.8261719,-0.8261718 z"
       style="fill:currentColor;stroke-width:1.16974163"
       class="ColorScheme-Text"
       inkscape:connector-curvature="0" />
  </g>
  <g
     id="user-invisible"
     transform="translate(132)">
    <path
       style="opacity:0.5;fill:currentColor;fill-opacity:1;stroke-width:1.16974163"
       class="ColorScheme-Text"
       inkscape:connector-curvature="0"
       id="path865"
       d="m 14.988131,11.909265 a 3.605368,3.605368 0 0 0 -3.605368,3.605368 3.605368,3.605368 0 0 0 3.605368,3.605368 3.605368,3.605368 0 0 0 3.605368,-3.605368 3.605368,3.605368 0 0 0 -3.605368,-3.605368 z m 1.794672,1.506242 0.729086,0.729086 -2.90833,2.90833 -0.729086,-0.721074 -1.458171,-1.458171 0.721074,-0.729085 1.466183,1.458171 z" />
    <rect
       style="opacity:0.97000002;fill:none;fill-opacity:1;stroke:none"
       id="rect4556"
       width="22"
       height="22"
       x="0"
       y="0" />
    <path
       style="fill:currentColor;stroke-width:1.16974163"
       class="ColorScheme-Text"
       inkscape:connector-curvature="0"
       id="path867"
       d="m 10.172962,2.9999999 a 3.5092273,3.5092273 0 1 0 -0.008,7.0184501 3.5092273,3.5092273 0 0 0 0.008,-7.0184501 z m 0,9.3739571 c -7.0264613,0 -7.0264613,4.678966 -7.0264613,4.678966 v 1.169742 h 8.3724653 a 4.4065608,4.4065608 0 0 1 -0.160238,-0.224334 4.4065608,4.4065608 0 0 1 -0.240358,-0.376561 4.4065608,4.4065608 0 0 1 -0.184275,-0.392585 4.4065608,4.4065608 0 0 1 -0.160238,-0.41662 4.4065608,4.4065608 0 0 1 -0.104155,-0.424632 4.4065608,4.4065608 0 0 1 -0.0641,-0.432644 4.4065608,4.4065608 0 0 1 -0.02403,-0.440656 4.4065608,4.4065608 0 0 1 0.01602,-0.320477 4.4065608,4.4065608 0 0 1 0.04807,-0.432645 4.4065608,4.4065608 0 0 1 0.09614,-0.424632 4.4065608,4.4065608 0 0 1 0.136203,-0.41662 4.4065608,4.4065608 0 0 1 0.184274,-0.400597 4.4065608,4.4065608 0 0 1 0.216322,-0.384572 4.4065608,4.4065608 0 0 1 0.256382,-0.360537 4.4065608,4.4065608 0 0 1 0.240358,-0.272406 c -0.504752,-0.0641 -0.993479,-0.136202 -1.602386,-0.136202 z" />
  </g>
  <g
     id="user-away-extended"
     transform="translate(22)">
    <rect
       y="0"
       x="22"
       height="22"
       width="22"
       id="rect4562-6"
       style="opacity:0.97000002;fill:none;fill-opacity:1;stroke:none" />
    <path
       id="path1070"
       d="m 32.173828,3 a 3.5092271,3.5092271 0 1 0 -0.0098,7.017578 A 3.5092271,3.5092271 0 0 0 32.173828,3 Z m 4.814453,8.910156 a 3.605368,3.605368 0 0 0 -3.605469,3.603516 3.605368,3.605368 0 0 0 3.605469,3.605469 3.605368,3.605368 0 0 0 3.605469,-3.605469 3.605368,3.605368 0 0 0 -3.605469,-3.603516 z m -4.814453,0.455078 v 0.0078 c -7.026461,0 -7.027344,4.6875 -7.027344,4.6875 v 1.162109 h 8.373047 a 4.4065608,4.4065608 0 0 1 -0.160156,-0.224609 4.4065608,4.4065608 0 0 1 -0.240234,-0.376953 4.4065608,4.4065608 0 0 1 -0.185547,-0.392578 4.4065608,4.4065608 0 0 1 -0.160156,-0.416016 4.4065608,4.4065608 0 0 1 -0.103516,-0.423828 4.4065608,4.4065608 0 0 1 -0.06445,-0.433594 4.4065608,4.4065608 0 0 1 -0.02344,-0.441406 4.4065608,4.4065608 0 0 1 0.01563,-0.320313 4.4065608,4.4065608 0 0 1 0.04883,-0.43164 4.4065608,4.4065608 0 0 1 0.0957,-0.425781 4.4065608,4.4065608 0 0 1 0.136718,-0.416016 4.4065608,4.4065608 0 0 1 0.183594,-0.400391 4.4065608,4.4065608 0 0 1 0.216797,-0.384765 4.4065608,4.4065608 0 0 1 0.255859,-0.359375 4.4065608,4.4065608 0 0 1 0.240235,-0.273438 c -0.504752,-0.0641 -0.992656,-0.136719 -1.601563,-0.136719 z m 2.689453,2.5 A 0.63475329,0.63475329 0 0 1 35.498047,15.5 0.63475329,0.63475329 0 0 1 34.863281,16.134766 0.63475329,0.63475329 0 0 1 34.228516,15.5 0.63475329,0.63475329 0 0 1 34.863281,14.865234 Z m 2.16211,0 A 0.63475329,0.63475329 0 0 1 37.660156,15.5 0.63475329,0.63475329 0 0 1 37.025391,16.134766 0.63475329,0.63475329 0 0 1 36.390625,15.5 0.63475329,0.63475329 0 0 1 37.025391,14.865234 Z m 2.162109,0 A 0.63475329,0.63475329 0 0 1 39.822266,15.5 0.63475329,0.63475329 0 0 1 39.1875,16.134766 0.63475329,0.63475329 0 0 1 38.552734,15.5 0.63475329,0.63475329 0 0 1 39.1875,14.865234 Z"
       style="fill:currentColor;stroke-width:1.16974163"
       class="ColorScheme-Text"
       inkscape:connector-curvature="0" />
  </g>
  <g
     id="user-busy"
     transform="translate(22)">
    <rect
       style="opacity:0.97000002;fill:none;fill-opacity:1;stroke:none"
       id="rect4560"
       width="22"
       height="22"
       x="0"
       y="0" />
    <path
       id="path828"
       d="m 10.170574,2.9999996 a 3.5061871,3.5061871 0 1 0 -0.008,7.0123694 3.5061871,3.5061871 0 0 0 0.008,-7.0123694 z m 4.810998,8.9015474 a 3.5782296,3.5782296 0 0 0 -3.57823,3.57823 3.5782296,3.5782296 0 0 0 3.57823,3.570224 3.5782296,3.5782296 0 0 0 3.578228,-3.570224 3.5782296,3.5782296 0 0 0 -3.578228,-3.57823 z m -4.810998,0.456284 c -7.020375,0 -7.020375,4.682918 -7.020375,4.682918 v 1.168728 h 8.365213 a 4.4027434,4.4027434 0 0 1 -0.1601,-0.22414 4.4027434,4.4027434 0 0 1 -0.24015,-0.376234 4.4027434,4.4027434 0 0 1 -0.184114,-0.392244 4.4027434,4.4027434 0 0 1 -0.1601,-0.41626 4.4027434,4.4027434 0 0 1 -0.104066,-0.424264 4.4027434,4.4027434 0 0 1 -0.06404,-0.43227 4.4027434,4.4027434 0 0 1 -0.02402,-0.440274 4.4027434,4.4027434 0 0 1 0.01601,-0.3202 4.4027434,4.4027434 0 0 1 0.04803,-0.432268 4.4027434,4.4027434 0 0 1 0.09606,-0.424264 4.4027434,4.4027434 0 0 1 0.136085,-0.41626 4.4027434,4.4027434 0 0 1 0.184115,-0.40025 4.4027434,4.4027434 0 0 1 0.216134,-0.384239 4.4027434,4.4027434 0 0 1 0.25616,-0.360225 4.4027434,4.4027434 0 0 1 0.24015,-0.27217 c -0.504315,-0.06404 -0.992619,-0.136084 -1.600998,-0.136084 z m 4.298678,0.56035 h 1.024638 v 2.049276 h 2.041272 v 1.016634 h -3.06591 v -3.057906 z"
       style="fill:currentColor;stroke-width:1.16872835"
       class="ColorScheme-Text"
       inkscape:connector-curvature="0" />
  </g>
  <g
     id="user-identity">
    <rect
       y="0"
       x="0"
       height="22"
       width="22"
       id="rect4585"
       style="opacity:0.97000002;fill:none;fill-opacity:1;stroke:none" />
    <g
       id="g7"
       class="ColorScheme-Text"
       transform="matrix(1.1968455,0,0,1.1968455,1.4175554,-6.5900778)"
       style="fill:currentColor;fill-opacity:0.98809521">
      <path
         id="path5"
         d="m 8,8 a 3,3 0 1 1 0,6 3,3 0 0 1 0,-6 z m 0,8 c 6,-0.01 6,4 6,4 v 1 H 2 v -1 c 0,0 0,-4 6,-4 z"
         inkscape:connector-curvature="0"
         class="ColorScheme-Text"
         style="fill:currentColor;fill-opacity:0.98809521" />
    </g>
  </g>
  <path
     style="font-style:normal;font-variant:normal;font-weight:normal;font-stretch:normal;font-size:16px;line-height:1.25;font-family:'Abyssinica SIL';-inkscape-font-specification:'Abyssinica SIL';letter-spacing:0px;word-spacing:0px;fill:#ffffff;fill-opacity:1;stroke:none;stroke-width:0.41620618"
     d="m 58.32803,-68.29492 c -0.0522,0 -0.10131,0.0117 -0.14746,0.0351 -0.0461,0.0211 -0.0873,0.0515 -0.12338,0.0913 -0.0341,0.0398 -0.0612,0.0867 -0.0813,0.14054 -0.0201,0.0539 -0.0301,0.11125 -0.0301,0.17215 0,0.0609 0.01,0.11946 0.0301,0.17567 0.0201,0.0539 0.0471,0.10072 0.0813,0.14054 0.0361,0.0398 0.0772,0.0714 0.12338,0.0949 0.0462,0.0234 0.0953,0.0351 0.14746,0.0351 0.0522,0 0.10132,-0.0117 0.14746,-0.0351 0.0461,-0.0234 0.0863,-0.055 0.12037,-0.0949 0.0341,-0.0398 0.0602,-0.0867 0.0783,-0.14054 0.0201,-0.0562 0.0301,-0.11477 0.0301,-0.17567 0,-0.0609 -0.01,-0.11828 -0.0301,-0.17215 -0.0181,-0.0539 -0.0441,-0.10072 -0.0783,-0.14054 -0.0341,-0.0398 -0.0742,-0.0703 -0.12037,-0.0913 -0.0461,-0.0234 -0.0953,-0.0351 -0.14746,-0.0351 z m 12.7265,0.52701 c -0.21065,0 -0.40526,0.0422 -0.58381,0.12648 -0.17655,0.0843 -0.32902,0.22017 -0.45742,0.40755 -0.12639,0.18738 -0.2257,0.43332 -0.29792,0.73781 -0.0722,0.30215 -0.10834,0.67106 -0.10834,1.10672 0,0.438 0.0371,0.79871 0.11135,1.08212 0.0742,0.28107 0.17353,0.50359 0.29792,0.66754 0.12439,0.16396 0.26783,0.27873 0.43034,0.34432 0.1625,0.0632 0.33203,0.0949 0.50857,0.0949 0.17655,0 0.34808,-0.0304 0.5146,-0.0913 0.16852,-0.0609 0.31699,-0.15459 0.44538,-0.28107 0.1284,-0.12648 0.23172,-0.28693 0.30997,-0.48133 0.0782,-0.19441 0.11736,-0.42512 0.11736,-0.69214 0,-0.17801 -0.0181,-0.33729 -0.0542,-0.47782 -0.0341,-0.14054 -0.0812,-0.26351 -0.14144,-0.36891 -0.0582,-0.10774 -0.12739,-0.19792 -0.20764,-0.27053 -0.0782,-0.075 -0.1615,-0.13585 -0.24978,-0.18269 -0.0883,-0.0469 -0.17855,-0.0808 -0.27084,-0.10189 -0.0923,-0.0211 -0.18056,-0.0316 -0.26482,-0.0316 -0.11034,0 -0.21166,0.0117 -0.30394,0.0351 -0.0923,0.0234 -0.17555,0.055 -0.24978,0.0949 -0.0742,0.0375 -0.13943,0.082 -0.19561,0.13351 -0.0562,0.0515 -0.10432,0.1054 -0.14444,0.16162 0.0301,-0.32323 0.0672,-0.58557 0.11134,-0.787 0.0462,-0.20144 0.10132,-0.35837 0.16552,-0.4708 0.0642,-0.11242 0.13943,-0.18855 0.2257,-0.22837 0.0863,-0.0398 0.18357,-0.0597 0.2919,-0.0597 0.0943,0 0.17254,0.0187 0.23473,0.0562 0.0622,0.0375 0.11235,0.0855 0.15047,0.14405 0.0381,0.0562 0.0642,0.12063 0.0782,0.19324 0.0161,0.0703 0.0241,0.13819 0.0241,0.20377 h 0.65302 c 0,-0.1499 -0.0271,-0.28927 -0.0813,-0.41809 -0.0542,-0.12882 -0.13141,-0.24125 -0.23172,-0.33729 -0.10031,-0.096 -0.22068,-0.17098 -0.36112,-0.22485 -0.14044,-0.0562 -0.29592,-0.0843 -0.46645,-0.0843 z m -6.79208,0.13351 c -0.0241,0.0375 -0.0702,0.0902 -0.13843,0.1581 -0.0682,0.0679 -0.14445,0.13936 -0.22871,0.21431 -0.0843,0.0726 -0.17153,0.14171 -0.26181,0.20729 -0.0883,0.0656 -0.16652,0.11477 -0.23473,0.14757 v 0.69213 c 0.0602,-0.0211 0.13041,-0.0504 0.21065,-0.0878 0.0802,-0.0398 0.16151,-0.0831 0.24376,-0.13 0.0823,-0.0492 0.1605,-0.10071 0.23473,-0.15459 0.0762,-0.0562 0.14044,-0.11242 0.1926,-0.16864 v 3.55555 h 0.62895 v -4.43389 z m 3.55704,0 -1.57087,2.62801 v 0.85726 h 1.81162 v 0.94862 h 0.62293 v -0.94862 h 0.40626 v -0.64295 h -0.40626 v -2.84232 z m 6.65666,0 -1.57087,2.62801 v 0.85726 h 1.81162 v 0.94862 h 0.62293 v -0.94862 h 0.40626 v -0.64295 h -0.40626 v -2.84232 z m -6.41591,0.53403 v 2.30829 h -1.34518 z m 6.65666,0 v 2.30829 h -1.34518 z m -16.33169,0.34431 -0.75835,0.27405 v 0.23891 h 0.43635 v 3.19366 c 0,0.1382 -0.005,0.26936 -0.015,0.3935 -0.008,0.12648 -0.0241,0.24008 -0.0482,0.3408 -0.0221,0.10306 -0.0522,0.19089 -0.0903,0.26351 -0.0381,0.075 -0.0853,0.13116 -0.14143,0.16864 l -0.59886,-0.48134 c -0.0301,0.0117 -0.0612,0.0281 -0.0933,0.0492 -0.0321,0.0234 -0.0602,0.0515 -0.0843,0.0843 -0.0261,0.0351 -0.0471,0.075 -0.0632,0.11946 -0.0161,0.0468 -0.0241,0.10071 -0.0241,0.16161 0,0.0679 0.013,0.12649 0.0391,0.17567 0.0241,0.0515 0.0582,0.0937 0.10231,0.12648 0.0421,0.0328 0.0913,0.0562 0.14746,0.0703 0.0562,0.0164 0.11636,0.0246 0.18056,0.0246 0.19461,0 0.38118,-0.055 0.55974,-0.16513 0.18056,-0.10775 0.33404,-0.27522 0.46043,-0.50242 0.0522,-0.096 0.0943,-0.20495 0.12639,-0.32674 0.0321,-0.1218 0.0562,-0.24711 0.0722,-0.37593 0.0181,-0.12883 0.0301,-0.25648 0.0361,-0.38296 0.006,-0.12883 0.009,-0.24711 0.009,-0.35486 v -3.09529 z m 1.69426,0 -0.75836,0.28107 v 0.24594 h 0.43034 v 1.94993 c 0,0.20378 0.0191,0.37944 0.0572,0.52701 0.0401,0.14522 0.0963,0.26584 0.16852,0.36188 0.0742,0.0937 0.16351,0.16278 0.26783,0.20729 0.10633,0.0468 0.2257,0.0703 0.35811,0.0703 0.0903,0 0.18257,-0.0176 0.27686,-0.0527 0.0963,-0.0328 0.18759,-0.0738 0.27385,-0.12297 0.0883,-0.0515 0.16953,-0.10657 0.24376,-0.16513 0.0762,-0.0585 0.14044,-0.11125 0.1926,-0.1581 v 0.41107 h 0.97803 v -0.28107 l -0.27084,-0.0211 c -0.0361,-0.005 -0.0682,-0.0211 -0.0963,-0.0492 -0.0261,-0.0281 -0.0391,-0.0644 -0.0391,-0.10892 v -3.09529 h -0.25278 l -0.75234,0.28107 v 0.24594 h 0.43335 v 2.41018 c -0.0361,0.0211 -0.0802,0.0445 -0.13241,0.0703 -0.0502,0.0234 -0.10433,0.0469 -0.16251,0.0703 -0.0582,0.0211 -0.11937,0.0386 -0.18357,0.0527 -0.0642,0.014 -0.12739,0.0211 -0.18959,0.0211 -0.10833,0 -0.20062,-0.0176 -0.27686,-0.0527 -0.0762,-0.0375 -0.13843,-0.0913 -0.18657,-0.16162 -0.0462,-0.0703 -0.0802,-0.15576 -0.10232,-0.25647 -0.0201,-0.10072 -0.0301,-0.21432 -0.0301,-0.3408 v -2.33992 z m 10.90284,1.04348 c 0.0983,0 0.19059,0.0269 0.27686,0.0808 0.0863,0.0515 0.1605,0.12296 0.22269,0.21431 0.0642,0.089 0.11435,0.19441 0.15047,0.31621 0.0381,0.12179 0.0572,0.25179 0.0572,0.38998 0,0.1382 -0.0191,0.26936 -0.0572,0.3935 -0.0361,0.1218 -0.0863,0.22837 -0.15047,0.31972 -0.0622,0.0914 -0.13642,0.16396 -0.22269,0.21783 -0.0863,0.0515 -0.17856,0.0773 -0.27686,0.0773 -0.0963,0 -0.18758,-0.0258 -0.27385,-0.0773 -0.0863,-0.0539 -0.16251,-0.12648 -0.22871,-0.21783 -0.0642,-0.0913 -0.11536,-0.19792 -0.15348,-0.31972 -0.0361,-0.12414 -0.0542,-0.2553 -0.0542,-0.3935 0,-0.13819 0.0181,-0.26819 0.0542,-0.38998 0.0381,-0.1218 0.0893,-0.2272 0.15348,-0.31621 0.0662,-0.0913 0.14244,-0.16279 0.22871,-0.21431 0.0863,-0.0539 0.17755,-0.0808 0.27385,-0.0808 z"
     id="text843"
     inkscape:connector-curvature="0" />
</svg>
