<?xml version="1.0" encoding="UTF-8" standalone="no"?>
<svg
   xmlns:dc="http://purl.org/dc/elements/1.1/"
   xmlns:cc="http://creativecommons.org/ns#"
   xmlns:rdf="http://www.w3.org/1999/02/22-rdf-syntax-ns#"
   xmlns:svg="http://www.w3.org/2000/svg"
   xmlns="http://www.w3.org/2000/svg"
   xmlns:sodipodi="http://sodipodi.sourceforge.net/DTD/sodipodi-0.dtd"
   xmlns:inkscape="http://www.inkscape.org/namespaces/inkscape"
   viewBox="0 0 22 22"
   id="svg"
   version="1.1"
   inkscape:version="0.92.4 (5da689c313, 2019-01-14)"
   width="100%"
   height="100%"
   sodipodi:docname="wallet.svg">
  <defs
     id="defs81">
    <style
       type="text/css"
       id="current-color-scheme">
      .ColorScheme-Text {
        color:#00ff00;
      }
      .ColorScheme-Background {
        color:#ff0000;
      }
      .ColorScheme-Highlight {
        color:#0000ff;
      }
      .ColorScheme-ButtonHover {
        color:#ffff00;
      }
      .ColorScheme-ButtonFocus{
        color:#ff00ff;
      }
      .ColorScheme-NegativeText {
        color:#00ffff;
      }
  </style>
  </defs>
  <metadata
     id="metadata34">
    <rdf:RDF>
      <cc:Work
         rdf:about="">
        <dc:format>image/svg+xml</dc:format>
        <dc:type
           rdf:resource="http://purl.org/dc/dcmitype/StillImage" />
        <dc:title></dc:title>
      </cc:Work>
    </rdf:RDF>
  </metadata>
  <sodipodi:namedview
     pagecolor="#ffffff"
     bordercolor="#666666"
     borderopacity="1"
     objecttolerance="10"
     gridtolerance="10000"
     guidetolerance="10"
     inkscape:pageopacity="0"
     inkscape:pageshadow="2"
     inkscape:window-width="1366"
     inkscape:window-height="708"
     id="namedview32"
     showgrid="true"
     inkscape:zoom="6.0184429"
     inkscape:cx="-4.7466015"
     inkscape:cy="6.5177229"
     inkscape:window-x="0"
     inkscape:window-y="0"
     inkscape:window-maximized="1"
     inkscape:current-layer="svg"
     borderlayer="true"
     showguides="true"
     inkscape:guide-bbox="true"
     inkscape:snap-bbox="true"
     inkscape:showpageshadow="false" />
  <g
     id="wallet-open">
    <path
       id="rect4188"
       d="M 3,3 V 7 H 2 v 1 10 c 0,0.554 0.446,1 1,1 h 16 1 V 18 8 C 20,7.446 19.554,7 19,7 H 14 V 3 Z m 1,1 h 9 V 7 H 10.492188 C 10.021704,6.3726797 9.284143,6.0024532 8.5,6 7.7137941,6.0006144 6.9736765,6.3710349 6.5019531,7 H 4 Z M 3,8 H 4 6.0507812 10.945312 13 h 1 5 v 3 h -2 -5 c -1.108,0 -2,0.892 -2,2 0,1.108 0.892,2 2,2 h 5 2 v 3 H 3 Z m 10,4 c 0.552285,0 1,0.447715 1,1 0,0.552285 -0.447715,1 -1,1 -0.552285,0 -1,-0.447715 -1,-1 0,-0.552285 0.447715,-1 1,-1 z"
       style="opacity:1;fill:currentColor;fill-opacity:1;stroke:none"
       inkscape:connector-curvature="0"
       sodipodi:nodetypes="ccccsscccssccccccccccccccccccccssscccccsssss"
       class="ColorScheme-Text" />
    <rect
       y="0"
       x="0"
       height="22"
       width="22"
       id="rect4216"
       style="opacity:1;fill:none;fill-opacity:1;stroke:none" />
  </g>
  <g
     id="wallet-closed">
    <path
       inkscape:connector-curvature="0"
       style="opacity:1;fill:currentColor;fill-opacity:1;stroke:none"
       d="m 24,7 v 1 10 c 0,0.554 0.446,1 1,1 h 16 1 V 18 8 C 42,7.446 41.554,7 41,7 H 25 Z m 1,1 h 16 v 3 h -2 -5 c -1.108,0 -2,0.892 -2,2 0,1.108 0.892,2 2,2 h 5 2 v 3 H 25 Z m 10,4 c 0.552285,0 1,0.447715 1,1 0,0.552285 -0.447715,1 -1,1 -0.552285,0 -1,-0.447715 -1,-1 0,-0.552285 0.447715,-1 1,-1 z"
       id="path4200"
       sodipodi:nodetypes="ccsscccssccccccssscccccsssss"
       class="ColorScheme-Text" />
    <rect
       y="0"
       x="22"
       height="22"
       width="22"
       id="rect4222"
       style="opacity:1;fill:none;fill-opacity:1;stroke:none" />
  </g>
  <path
     style="font-style:normal;font-variant:normal;font-weight:normal;font-stretch:normal;font-size:16px;line-height:1.25;font-family:'Abyssinica SIL';-inkscape-font-specification:'Abyssinica SIL';letter-spacing:0px;word-spacing:0px;fill:#ffffff;fill-opacity:1;stroke:none;stroke-width:0.41620618"
     d="m 18.32803,-23.29492 c -0.0522,0 -0.10131,0.0117 -0.14746,0.0351 -0.0461,0.0211 -0.0873,0.0515 -0.12338,0.0913 -0.0341,0.0398 -0.0612,0.0867 -0.0813,0.14054 -0.0201,0.0539 -0.0301,0.11125 -0.0301,0.17215 0,0.0609 0.01,0.11946 0.0301,0.17567 0.0201,0.0539 0.0471,0.10072 0.0813,0.14054 0.0361,0.0398 0.0772,0.0714 0.12338,0.0949 0.0462,0.0234 0.0953,0.0351 0.14746,0.0351 0.0522,0 0.10132,-0.0117 0.14746,-0.0351 0.0461,-0.0234 0.0863,-0.055 0.12037,-0.0949 0.0341,-0.0398 0.0602,-0.0867 0.0783,-0.14054 0.0201,-0.0562 0.0301,-0.11477 0.0301,-0.17567 0,-0.0609 -0.01,-0.11828 -0.0301,-0.17215 -0.0181,-0.0539 -0.0441,-0.10072 -0.0783,-0.14054 -0.0341,-0.0398 -0.0742,-0.0703 -0.12037,-0.0913 -0.0461,-0.0234 -0.0953,-0.0351 -0.14746,-0.0351 z m 12.7265,0.52701 c -0.21065,0 -0.40526,0.0422 -0.58381,0.12648 -0.17655,0.0843 -0.32902,0.22017 -0.45742,0.40755 -0.12639,0.18738 -0.2257,0.43332 -0.29792,0.73781 -0.0722,0.30215 -0.10834,0.67106 -0.10834,1.10672 0,0.438 0.0371,0.79871 0.11135,1.08212 0.0742,0.28107 0.17353,0.50359 0.29792,0.66754 0.12439,0.16396 0.26783,0.27873 0.43034,0.34432 0.1625,0.0632 0.33203,0.0949 0.50857,0.0949 0.17655,0 0.34808,-0.0304 0.5146,-0.0913 0.16852,-0.0609 0.31699,-0.15459 0.44538,-0.28107 0.1284,-0.12648 0.23172,-0.28693 0.30997,-0.48133 0.0782,-0.19441 0.11736,-0.42512 0.11736,-0.69214 0,-0.17801 -0.0181,-0.33729 -0.0542,-0.47782 -0.0341,-0.14054 -0.0812,-0.26351 -0.14144,-0.36891 -0.0582,-0.10774 -0.12739,-0.19792 -0.20764,-0.27053 -0.0782,-0.075 -0.1615,-0.13585 -0.24978,-0.18269 -0.0883,-0.0469 -0.17855,-0.0808 -0.27084,-0.10189 -0.0923,-0.0211 -0.18056,-0.0316 -0.26482,-0.0316 -0.11034,0 -0.21166,0.0117 -0.30394,0.0351 -0.0923,0.0234 -0.17555,0.055 -0.24978,0.0949 -0.0742,0.0375 -0.13943,0.082 -0.19561,0.13351 -0.0562,0.0515 -0.10432,0.1054 -0.14444,0.16162 0.0301,-0.32323 0.0672,-0.58557 0.11134,-0.787 0.0462,-0.20144 0.10132,-0.35837 0.16552,-0.4708 0.0642,-0.11242 0.13943,-0.18855 0.2257,-0.22837 0.0863,-0.0398 0.18357,-0.0597 0.2919,-0.0597 0.0943,0 0.17254,0.0187 0.23473,0.0562 0.0622,0.0375 0.11235,0.0855 0.15047,0.14405 0.0381,0.0562 0.0642,0.12063 0.0782,0.19324 0.0161,0.0703 0.0241,0.13819 0.0241,0.20377 h 0.65302 c 0,-0.1499 -0.0271,-0.28927 -0.0813,-0.41809 -0.0542,-0.12882 -0.13141,-0.24125 -0.23172,-0.33729 -0.10031,-0.096 -0.22068,-0.17098 -0.36112,-0.22485 -0.14044,-0.0562 -0.29592,-0.0843 -0.46645,-0.0843 z m -6.79208,0.13351 c -0.0241,0.0375 -0.0702,0.0902 -0.13843,0.1581 -0.0682,0.0679 -0.14445,0.13936 -0.22871,0.21431 -0.0843,0.0726 -0.17153,0.14171 -0.26181,0.20729 -0.0883,0.0656 -0.16652,0.11477 -0.23473,0.14757 v 0.69213 c 0.0602,-0.0211 0.13041,-0.0504 0.21065,-0.0878 0.0802,-0.0398 0.16151,-0.0831 0.24376,-0.13 0.0823,-0.0492 0.1605,-0.10071 0.23473,-0.15459 0.0762,-0.0562 0.14044,-0.11242 0.1926,-0.16864 v 3.55555 h 0.62895 v -4.43389 z m 3.55704,0 -1.57087,2.62801 v 0.85726 h 1.81162 v 0.94862 h 0.62293 v -0.94862 h 0.40626 v -0.64295 h -0.40626 v -2.84232 z m 6.65666,0 -1.57087,2.62801 v 0.85726 h 1.81162 v 0.94862 h 0.62293 v -0.94862 h 0.40626 v -0.64295 h -0.40626 v -2.84232 z m -6.41591,0.53403 v 2.30829 h -1.34518 z m 6.65666,0 v 2.30829 h -1.34518 z m -16.33169,0.34431 -0.75835,0.27405 v 0.23891 h 0.43635 v 3.19366 c 0,0.1382 -0.005,0.26936 -0.015,0.3935 -0.008,0.12648 -0.0241,0.24008 -0.0482,0.3408 -0.0221,0.10306 -0.0522,0.19089 -0.0903,0.26351 -0.0381,0.075 -0.0853,0.13116 -0.14143,0.16864 l -0.59886,-0.48134 c -0.0301,0.0117 -0.0612,0.0281 -0.0933,0.0492 -0.0321,0.0234 -0.0602,0.0515 -0.0843,0.0843 -0.0261,0.0351 -0.0471,0.075 -0.0632,0.11946 -0.0161,0.0468 -0.0241,0.10071 -0.0241,0.16161 0,0.0679 0.013,0.12649 0.0391,0.17567 0.0241,0.0515 0.0582,0.0937 0.10231,0.12648 0.0421,0.0328 0.0913,0.0562 0.14746,0.0703 0.0562,0.0164 0.11636,0.0246 0.18056,0.0246 0.19461,0 0.38118,-0.055 0.55974,-0.16513 0.18056,-0.10775 0.33404,-0.27522 0.46043,-0.50242 0.0522,-0.096 0.0943,-0.20495 0.12639,-0.32674 0.0321,-0.1218 0.0562,-0.24711 0.0722,-0.37593 0.0181,-0.12883 0.0301,-0.25648 0.0361,-0.38296 0.006,-0.12883 0.009,-0.24711 0.009,-0.35486 v -3.09529 z m 1.69426,0 -0.75836,0.28107 v 0.24594 h 0.43034 v 1.94993 c 0,0.20378 0.0191,0.37944 0.0572,0.52701 0.0401,0.14522 0.0963,0.26584 0.16852,0.36188 0.0742,0.0937 0.16351,0.16278 0.26783,0.20729 0.10633,0.0468 0.2257,0.0703 0.35811,0.0703 0.0903,0 0.18257,-0.0176 0.27686,-0.0527 0.0963,-0.0328 0.18759,-0.0738 0.27385,-0.12297 0.0883,-0.0515 0.16953,-0.10657 0.24376,-0.16513 0.0762,-0.0585 0.14044,-0.11125 0.1926,-0.1581 v 0.41107 h 0.97803 v -0.28107 l -0.27084,-0.0211 c -0.0361,-0.005 -0.0682,-0.0211 -0.0963,-0.0492 -0.0261,-0.0281 -0.0391,-0.0644 -0.0391,-0.10892 v -3.09529 h -0.25278 l -0.75234,0.28107 v 0.24594 h 0.43335 v 2.41018 c -0.0361,0.0211 -0.0802,0.0445 -0.13241,0.0703 -0.0502,0.0234 -0.10433,0.0469 -0.16251,0.0703 -0.0582,0.0211 -0.11937,0.0386 -0.18357,0.0527 -0.0642,0.014 -0.12739,0.0211 -0.18959,0.0211 -0.10833,0 -0.20062,-0.0176 -0.27686,-0.0527 -0.0762,-0.0375 -0.13843,-0.0913 -0.18657,-0.16162 -0.0462,-0.0703 -0.0802,-0.15576 -0.10232,-0.25647 -0.0201,-0.10072 -0.0301,-0.21432 -0.0301,-0.3408 v -2.33992 z m 10.90284,1.04348 c 0.0983,0 0.19059,0.0269 0.27686,0.0808 0.0863,0.0515 0.1605,0.12296 0.22269,0.21431 0.0642,0.089 0.11435,0.19441 0.15047,0.31621 0.0381,0.12179 0.0572,0.25179 0.0572,0.38998 0,0.1382 -0.0191,0.26936 -0.0572,0.3935 -0.0361,0.1218 -0.0863,0.22837 -0.15047,0.31972 -0.0622,0.0914 -0.13642,0.16396 -0.22269,0.21783 -0.0863,0.0515 -0.17856,0.0773 -0.27686,0.0773 -0.0963,0 -0.18758,-0.0258 -0.27385,-0.0773 -0.0863,-0.0539 -0.16251,-0.12648 -0.22871,-0.21783 -0.0642,-0.0913 -0.11536,-0.19792 -0.15348,-0.31972 -0.0361,-0.12414 -0.0542,-0.2553 -0.0542,-0.3935 0,-0.13819 0.0181,-0.26819 0.0542,-0.38998 0.0381,-0.1218 0.0893,-0.2272 0.15348,-0.31621 0.0662,-0.0913 0.14244,-0.16279 0.22871,-0.21431 0.0863,-0.0539 0.17755,-0.0808 0.27385,-0.0808 z"
     id="text843"
     inkscape:connector-curvature="0" />
</svg>
