/* XPM */
static char * maximize_toggled_prelight_xpm[] = {
"32 32 34 1",
" 	c None",
".	c #8D3027",
"+	c #811A10",
"@	c #861D15",
"#	c #932420",
"$	c #9B2928",
"%	c #9F2B2B",
"&	c #922420",
"*	c #871E15",
"=	c #811A11",
"-	c #932521",
";	c #A02C2C",
">	c #A02B2B",
",	c #821A11",
"'	c #982825",
")	c #942521",
"!	c #952622",
"~	c #871E16",
"{	c #811B11",
"]	c #952522",
"^	c #8D211B",
"/	c #881E16",
"(	c #91231E",
"_	c #8E211C",
":	c #861D14",
"<	c #90231E",
"[	c #92241F",
"}	c #881D16",
"|	c #9A2827",
"1	c #9E2B2B",
"2	c #821B11",
"3	c #962522",
"4	c #982724",
"5	c #972724",
"................................",
"++++++++++++++++++++++++++++++++",
"++++++++++++++++++++++++++++++++",
"++++++++++++++++++++++++++++++++",
"++++++++++++++++++++++++++++++++",
"++++++++++++++++++++++++++++++++",
"++++++++++++++++++++++++++++++++",
"++++++++++++++++++++++++++++++++",
"++++++++++++@#$%%$&*++++++++++++",
"++++++++++=-;;;;;;;>-,++++++++++",
"+++++++++=';;;;>>;;;;',+++++++++",
"+++++++++);;;!~{{~];;;#+++++++++",
"++++++++@;;;^+/((/+_;;>:++++++++",
"++++++++&;;!+<;;;;(+];;[++++++++",
"++++++++$;;~/;;;;;;}~;;|++++++++",
"++++++++1;>{<;;;;;;({>;%++++++++",
"++++++++%;>{(;;;;;;<2>;1++++++++",
"++++++++$;;~/;;;;;;}~;;|++++++++",
"++++++++&;;]+(;;;;<+3;;[++++++++",
"++++++++*>;;_+}(<}+^;;>:++++++++",
"+++++++++-;;;]~22~3;;;#+++++++++",
"+++++++++,4;;;;>>;;;;5=+++++++++",
"++++++++++,#>;;;;;;>#=++++++++++",
"++++++++++++:[|11|[:++++++++++++",
"++++++++++++++++++++++++++++++++",
"++++++++++++++++++++++++++++++++",
"++++++++++++++++++++++++++++++++",
"++++++++++++++++++++++++++++++++",
"++++++++++++++++++++++++++++++++",
"++++++++++++++++++++++++++++++++",
"++++++++++++++++++++++++++++++++",
"++++++++++++++++++++++++++++++++"};
