/* XPM */
static char * hide_active_xpm[] = {
"32 32 28 1",
" 	c None",
".	c #323232",
"+	c #1C1C1C",
"@	c #404040",
"#	c #919191",
"$	c #C6C6C6",
"%	c #E0E0E0",
"&	c #909090",
"*	c #212121",
"=	c #949494",
"-	c #E7E7E7",
";	c #E9E9E9",
">	c #E6E6E6",
",	c #929292",
"'	c #202020",
")	c #B4B4B4",
"!	c #B3B3B3",
"~	c #959595",
"{	c #3F3F3F",
"]	c #8E8E8E",
"^	c #C7C7C7",
"/	c #C5C5C5",
"(	c #DFDFDF",
"_	c #DEDEDE",
":	c #DDDDDD",
"<	c #8D8D8D",
"[	c #3E3E3E",
"}	c #B2B2B2",
"................................",
"++++++++++++++++++++++++++++++++",
"++++++++++++++++++++++++++++++++",
"++++++++++++++++++++++++++++++++",
"++++++++++++++++++++++++++++++++",
"++++++++++++++++++++++++++++++++",
"++++++++++++++++++++++++++++++++",
"++++++++++++++++++++++++++++++++",
"++++++++++++@#$%%$&@++++++++++++",
"++++++++++*=-;;;;;;>,'++++++++++",
"+++++++++*);;;;;;;;;;!'+++++++++",
"+++++++++~;;;;;;;;;;;;,+++++++++",
"++++++++@-;;;;;;;;;;;;>{++++++++",
"++++++++#;;;;;;;;;;;;;;]++++++++",
"++++++++^;;;;;;;;;;;;;;/++++++++",
"++++++++(;;;;;;;;;;;;;;_++++++++",
"++++++++_;;;;;;;;;;;;;;:++++++++",
"++++++++^;;;;;;;;;;;;;;/++++++++",
"++++++++&;;;;;;;;;;;;;;<++++++++",
"++++++++@>;;;;;;;;;;;;>[++++++++",
"+++++++++,;;;;;;;;;;;;#+++++++++",
"+++++++++'!;;;;;;;;;;}'+++++++++",
"++++++++++',>;;;;;;>#'++++++++++",
"++++++++++++{]/((/<[++++++++++++",
"++++++++++++++++++++++++++++++++",
"++++++++++++++++++++++++++++++++",
"++++++++++++++++++++++++++++++++",
"++++++++++++++++++++++++++++++++",
"++++++++++++++++++++++++++++++++",
"++++++++++++++++++++++++++++++++",
"++++++++++++++++++++++++++++++++",
"++++++++++++++++++++++++++++++++"};
