/* XPM */
static char * maximize_prelight_xpm[] = {
"32 32 41 1",
" 	c None",
".	c #323232",
"+	c #1C1C1C",
"@	c #343434",
"#	c #696969",
"$	c #8D8D8D",
"%	c #9E9E9E",
"&	c #333333",
"*	c #202020",
"=	c #6C6C6C",
"-	c #A3A3A3",
";	c #7A7A7A",
">	c #676767",
",	c #9F9F9F",
"'	c #A2A2A2",
")	c #6B6B6B",
"!	c #818181",
"~	c #666666",
"{	c #242424",
"]	c #252525",
"^	c #6D6D6D",
"/	c #4B4B4B",
"(	c #272727",
"_	c #5D5D5D",
":	c #262626",
"<	c #4C4C4C",
"[	c #6A6A6A",
"}	c #3B3B3B",
"|	c #9A9A9A",
"1	c #A4A4A4",
"2	c #686868",
"3	c #8E8E8E",
"4	c #7B7B7B",
"5	c #9D9D9D",
"6	c #5C5C5C",
"7	c #999999",
"8	c #3A3A3A",
"9	c #4D4D4D",
"0	c #808080",
"a	c #1F1F1F",
"b	c #A0A0A0",
"................................",
"++++++++++++++++++++++++++++++++",
"++++++++++++++++++++++++++++++++",
"++++++++++++++++++++++++++++++++",
"++++++++++++++++++++++++++++++++",
"++++++++++++++++++++++++++++++++",
"++++++++++++++++++++++++++++++++",
"++++++++++++++++++++++++++++++++",
"++++++++++++@#$%%$#&++++++++++++",
"++++++++++*=-%;>>;,')*++++++++++",
"+++++++++*!-~{++++]>-!*+++++++++",
"+++++++++^-/+(_;;_:+<-[+++++++++",
"++++++++@-~+}|1111|}+2'&++++++++",
"++++++++#%{(|111111|:],2++++++++",
"++++++++3;+_11111111_+4$++++++++",
"++++++++5~+;11111111;+>5++++++++",
"++++++++5~+;11111111;+>5++++++++",
"++++++++3;+_111111116+4$++++++++",
"++++++++#%]:|1111117:],2++++++++",
"++++++++&'>+}|111178+#'.++++++++",
"+++++++++)-<+:_;;6:+9-#+++++++++",
"+++++++++*!-2]++++]#-0a+++++++++",
"++++++++++*[',;224b'#a++++++++++",
"++++++++++++&2$%%$2.++++++++++++",
"++++++++++++++++++++++++++++++++",
"++++++++++++++++++++++++++++++++",
"++++++++++++++++++++++++++++++++",
"++++++++++++++++++++++++++++++++",
"++++++++++++++++++++++++++++++++",
"++++++++++++++++++++++++++++++++",
"++++++++++++++++++++++++++++++++",
"++++++++++++++++++++++++++++++++"};
