/* XPM */
static char * close_prelight_xpm[] = {
"32 32 39 1",
" 	c None",
".	c #FFFFFF",
"+	c #D6D6D6",
"@	c #7C7C7C",
"#	c #404040",
"$	c #232323",
"%	c #7D7D7D",
"&	c #D7D7D7",
"*	c #F9F9F9",
"=	c #787878",
"-	c #1B1B1B",
";	c #191919",
">	c #1C1C1C",
",	c #7A7A7A",
"'	c #FAFAFA",
")	c #545454",
"!	c #555555",
"~	c #777777",
"{	c #424242",
"]	c #C3C3C3",
"^	c #2C2C2C",
"/	c #2E2E2E",
"(	c #C4C4C4",
"_	c #3F3F3F",
":	c #C6C6C6",
"<	c #D9D9D9",
"[	c #C1C1C1",
"}	c #D8D8D8",
"|	c #2D2D2D",
"1	c #DADADA",
"2	c #2F2F2F",
"3	c #2B2B2B",
"4	c #7F7F7F",
"5	c #414141",
"6	c #242424",
"7	c #252525",
"8	c #262626",
"9	c #808080",
"0	c #565656",
"................................",
"................................",
"................................",
"................................",
"................................",
"................................",
"................................",
"................................",
"............+@#$$#%&............",
"..........*=-;;;;;;>,'..........",
".........*);;;;;;;;;;!'.........",
".........~;{]^;;;;/(_;,.........",
"........+-;:.+^;;/<.[;>}........",
"........@;;|&.12|&.+3;;4........",
"........_;;;/<.+<.+^;;;5........",
"........6;;;;|&..+3;;;;7........",
"........7;;;;|&..12;;;;8........",
"........_;;;/<.+<.+^;;;5........",
"........%;;|&.+3|&.12;;9........",
"........&>;:.+^;;/<.[;><........",
".........,;{]^;;;;/(_;@.........",
".........'!;;;;;;;;;;0'.........",
"..........',>;;;;;;>@'..........",
"............}456659<............",
"................................",
"................................",
"................................",
"................................",
"................................",
"................................",
"................................",
"................................"};
