/* XPM */
static char * close_inactive_xpm[] = {
"32 32 16 1",
" 	c None",
".	c #FFFFFF",
"+	c #F6F6F6",
"@	c #E2E2E2",
"#	c #D5D5D5",
"$	c #CECECE",
"%	c #FEFEFE",
"&	c #E1E1E1",
"*	c #CCCCCC",
"=	c #CDCDCD",
"-	c #D9D9D9",
";	c #E3E3E3",
">	c #D4D4D4",
",	c #CFCFCF",
"'	c #F7F7F7",
")	c #DADADA",
"................................",
"................................",
"................................",
"................................",
"................................",
"................................",
"................................",
"................................",
"............+@#$$#@+............",
"..........%&*******=&%..........",
".........%-**********-%.........",
".........&************@.........",
"........+*************=+........",
"........@**************;........",
"........>**************#........",
"........$**************,........",
"........,**************,........",
"........>**************#........",
"........@**************;........",
"........+=************='........",
".........&************@.........",
".........%-**********)%.........",
"..........%@=******=@%..........",
"............+;#$$#;'............",
"................................",
"................................",
"................................",
"................................",
"................................",
"................................",
"................................",
"................................"};
