/* XPM */
static char * maximize_toggled_prelight_xpm[] = {
"32 32 44 1",
" 	c None",
".	c #FFFFFF",
"+	c #DFDFDF",
"@	c #999999",
"#	c #6A6A6A",
"$	c #545454",
"%	c #9A9A9A",
"&	c #E0E0E0",
"*	c #FAFAFA",
"=	c #969696",
"-	c #4D4D4D",
";	c #4C4C4C",
">	c #4E4E4E",
",	c #979797",
"'	c #FBFBFB",
")	c #7A7A7A",
"!	c #959595",
"~	c #8E8E8E",
"{	c #DBDBDB",
"]	c #FDFDFD",
"^	c #8D8D8D",
"/	c #989898",
"(	c #B8B8B8",
"_	c #D7D7D7",
":	c #A6A6A6",
"<	c #D8D8D8",
"[	c #B7B7B7",
"}	c #E1E1E1",
"|	c #A5A5A5",
"1	c #9B9B9B",
"2	c #696969",
"3	c #DADADA",
"4	c #6B6B6B",
"5	c #555555",
"6	c #A7A7A7",
"7	c #FCFCFC",
"8	c #565656",
"9	c #8B8B8B",
"0	c #B6B6B6",
"a	c #E2E2E2",
"b	c #8C8C8C",
"c	c #7B7B7B",
"d	c #7C7C7C",
"e	c #9C9C9C",
"................................",
"................................",
"................................",
"................................",
"................................",
"................................",
"................................",
"................................",
"............+@#$$#%&............",
"..........*=-;;;;;;>,'..........",
".........*);;;;>>;;;;)'.........",
".........!;;;~{]]{^;;;/.........",
"........+-;;(._::<.[;;>}........",
"........%;;~.|-;;-:.^;;1........",
"........2;;{_-;;;;-<3;;4........",
"........$;>]|;;;;;;:]>;5........",
"........5;>]:;;;;;;67>;8........",
"........2;;{<-;;;;-<3;;4........",
"........%;;^.:-;;-6.9;;1........",
"........&>;;[.<:6<.0;;>a........",
".........,;;;b37739;;;@.........",
".........'c;;;;>>;;;;d'.........",
"..........'/>;;;;;;>@'..........",
"............}14$$4ea............",
"................................",
"................................",
"................................",
"................................",
"................................",
"................................",
"................................",
"................................"};
