/* XPM */
static char * shade_prelight_xpm[] = {
"32 32 32 1",
" 	c None",
".	c #FFFFFF",
"+	c #E4E4E4",
"@	c #A8A8A8",
"#	c #808080",
"$	c #6D6D6D",
"%	c #A9A9A9",
"&	c #E5E5E5",
"*	c #FBFBFB",
"=	c #A5A5A5",
"-	c #676767",
";	c #666666",
">	c #686868",
",	c #A6A6A6",
"'	c #8D8D8D",
")	c #8E8E8E",
"!	c #A4A4A4",
"~	c #A7A7A7",
"{	c #B2B2B2",
"]	c #B3B3B3",
"^	c #B8B8B8",
"/	c #AAAAAA",
"(	c #7F7F7F",
"_	c #FDFDFD",
":	c #9C9C9C",
"<	c #989898",
"[	c #FCFCFC",
"}	c #6E6E6E",
"|	c #9A9A9A",
"1	c #ADADAD",
"2	c #E6E6E6",
"3	c #8F8F8F",
"................................",
"................................",
"................................",
"................................",
"................................",
"................................",
"................................",
"................................",
"............+@#$$#%&............",
"..........*=-;;;;;;>,*..........",
".........*';;;;;;;;;;)*.........",
".........!;;;;;;;;;;;;~.........",
"........+-;;;;;{{;;;;;>&........",
"........@;;;;;]..^;;;;;/........",
"........(;;;;{.__.{;;;;#........",
"........$;;;]._:<[.^;;;}........",
"........};;]._:;;<[.^;;}........",
"........(;{._|;;;;|_.{;#........",
"........%;1_:;;;;;;<[{;/........",
"........&>;#;;;;;;;;#;>2........",
".........,;;;;;;;;;;;;@.........",
".........*);;;;;;;;;;3[.........",
"..........*~>;;;;;;>@[..........",
"............&/#$$#/2............",
"................................",
"................................",
"................................",
"................................",
"................................",
"................................",
"................................",
"................................"};
