/* XPM */
static char * stick_toggled_prelight_xpm[] = {
"32 32 34 1",
" 	c None",
".	c #FFFFFF",
"+	c #E4E4E4",
"@	c #A8A8A8",
"#	c #808080",
"$	c #6D6D6D",
"%	c #A9A9A9",
"&	c #E5E5E5",
"*	c #FBFBFB",
"=	c #A5A5A5",
"-	c #676767",
";	c #666666",
">	c #686868",
",	c #A6A6A6",
"'	c #8D8D8D",
")	c #8E8E8E",
"!	c #A4A4A4",
"~	c #A7A7A7",
"{	c #777777",
"]	c #CDCDCD",
"^	c #F7F7F7",
"/	c #CFCFCF",
"(	c #7D7D7D",
"_	c #F4F4F4",
":	c #F5F5F5",
"<	c #AAAAAA",
"[	c #7F7F7F",
"}	c #CCCCCC",
"|	c #6E6E6E",
"1	c #F6F6F6",
"2	c #CBCBCB",
"3	c #E6E6E6",
"4	c #8F8F8F",
"5	c #FCFCFC",
"................................",
"................................",
"................................",
"................................",
"................................",
"................................",
"................................",
"................................",
"............+@#$$#%&............",
"..........*=-;;;;;;>,*..........",
".........*';;;;;;;;;;)*.........",
".........!;;;;;;;;;;;;~.........",
"........+-;;;{]^^/(;;;>&........",
"........%;;;{_....:{;;;<........",
"........[;;;]......};;;#........",
"........|;;;^......^;;;|........",
"........|;;;^......1;;;|........",
"........[;;;/......2;;;#........",
"........%;;;(:...._{;;;<........",
"........&>;;;{}^^2{;;;>3........",
".........,;;;;;;;;;;;;@.........",
".........*);;;;;;;;;;45.........",
"..........*~>;;;;;;>@5..........",
"............&<#$$#<3............",
"................................",
"................................",
"................................",
"................................",
"................................",
"................................",
"................................",
"................................"};
