/* XPM */
static char * close_inactive_xpm[] = {
"32 32 29 1",
" 	c None",
".	c #2F794E",
"+	c #186A3B",
"@	c #347751",
"#	c #729681",
"$	c #9CAAA2",
"%	c #B0B4B2",
"&	c #719581",
"*	c #347851",
"=	c #1C6C3E",
"-	c #769884",
";	c #B6B7B6",
">	c #B7B7B7",
",	c #B5B6B6",
"'	c #749683",
")	c #1B6C3E",
"!	c #8EA397",
"~	c #769784",
"{	c #739682",
"]	c #337750",
"^	c #719580",
"/	c #9DAAA3",
"(	c #9BA9A1",
"_	c #AFB3B1",
":	c #AEB3B0",
"<	c #70947F",
"[	c #32774F",
"}	c #8DA396",
"|	c #8CA296",
"................................",
"++++++++++++++++++++++++++++++++",
"++++++++++++++++++++++++++++++++",
"++++++++++++++++++++++++++++++++",
"++++++++++++++++++++++++++++++++",
"++++++++++++++++++++++++++++++++",
"++++++++++++++++++++++++++++++++",
"++++++++++++++++++++++++++++++++",
"++++++++++++@#$%%$&*++++++++++++",
"++++++++++=-;>>>>>>,')++++++++++",
"+++++++++=!>>>>>>>>>>!)+++++++++",
"+++++++++~>>>>>>>>>>>>{+++++++++",
"++++++++@;>>>>>>>>>>>>,]++++++++",
"++++++++#>>>>>>>>>>>>>>^++++++++",
"++++++++/>>>>>>>>>>>>>>(++++++++",
"++++++++_>>>>>>>>>>>>>>_++++++++",
"++++++++_>>>>>>>>>>>>>>:++++++++",
"++++++++/>>>>>>>>>>>>>>(++++++++",
"++++++++&>>>>>>>>>>>>>><++++++++",
"++++++++*,>>>>>>>>>>>>,[++++++++",
"+++++++++'>>>>>>>>>>>>#+++++++++",
"+++++++++)}>>>>>>>>>>|=+++++++++",
"++++++++++){,>>>>>>,#=++++++++++",
"++++++++++++]^(__(<[++++++++++++",
"++++++++++++++++++++++++++++++++",
"++++++++++++++++++++++++++++++++",
"++++++++++++++++++++++++++++++++",
"++++++++++++++++++++++++++++++++",
"++++++++++++++++++++++++++++++++",
"++++++++++++++++++++++++++++++++",
"++++++++++++++++++++++++++++++++",
"++++++++++++++++++++++++++++++++"};
