/* XPM */
static char * maximize_prelight_xpm[] = {
"32 32 44 1",
" 	c None",
".	c #2F794E",
"+	c #186A3B",
"@	c #1C7339",
"#	c #238932",
"$	c #29972F",
"%	c #2B9E2D",
"&	c #238833",
"*	c #1C7439",
"=	c #186B3A",
"-	c #248A32",
";	c #2CA02C",
">	c #258F30",
",	c #2B9E2C",
"'	c #2B9F2C",
")	c #248933",
"!	c #186C3B",
"~	c #279230",
"{	c #2C9F2C",
"]	c #1A6D3B",
"^	c #196D3A",
"/	c #1F7D35",
"(	c #196F39",
"_	c #228434",
":	c #268F31",
"<	c #196E3A",
"[	c #207D36",
"}	c #1C7637",
"|	c #2B9C2D",
"1	c #2B9B2E",
"2	c #1D7638",
"3	c #238732",
"4	c #1B7338",
"5	c #238832",
"6	c #269031",
"7	c #28962E",
"8	c #2B9D2D",
"9	c #238733",
"0	c #228334",
"a	c #2A9C2D",
"b	c #1F7E36",
"c	c #26922F",
"d	c #269130",
"e	c #196B3B",
"................................",
"++++++++++++++++++++++++++++++++",
"++++++++++++++++++++++++++++++++",
"++++++++++++++++++++++++++++++++",
"++++++++++++++++++++++++++++++++",
"++++++++++++++++++++++++++++++++",
"++++++++++++++++++++++++++++++++",
"++++++++++++++++++++++++++++++++",
"++++++++++++@#$%%$&*++++++++++++",
"++++++++++=-;%>&&>,')!++++++++++",
"+++++++++=~{&]++++^&{~!+++++++++",
"+++++++++-;/+(_::_<+[{#+++++++++",
"++++++++@;&+}|;;;;12+3'4++++++++",
"++++++++&%](|;;;;;;1<^,5++++++++",
"++++++++$:+_;;;;;;;;_+67++++++++",
"++++++++89+:;;;;;;;;>+&8++++++++",
"++++++++89+:;;;;;;;;>+&8++++++++",
"++++++++$:+_;;;;;;;;0+67++++++++",
"++++++++&%^<1;;;;;;a<<,5++++++++",
"++++++++*'&+21;;;;a2+)'4++++++++",
"+++++++++){[+<_::0<+b{#+++++++++",
"+++++++++!c{3^++++<){de+++++++++",
"++++++++++!#',:336,'#e++++++++++",
"++++++++++++45788734++++++++++++",
"++++++++++++++++++++++++++++++++",
"++++++++++++++++++++++++++++++++",
"++++++++++++++++++++++++++++++++",
"++++++++++++++++++++++++++++++++",
"++++++++++++++++++++++++++++++++",
"++++++++++++++++++++++++++++++++",
"++++++++++++++++++++++++++++++++",
"++++++++++++++++++++++++++++++++"};
