<?xml version="1.0" encoding="UTF-8" standalone="no"?>
<svg
   xmlns:dc="http://purl.org/dc/elements/1.1/"
   xmlns:cc="http://creativecommons.org/ns#"
   xmlns:rdf="http://www.w3.org/1999/02/22-rdf-syntax-ns#"
   xmlns:svg="http://www.w3.org/2000/svg"
   xmlns="http://www.w3.org/2000/svg"
   xmlns:sodipodi="http://sodipodi.sourceforge.net/DTD/sodipodi-0.dtd"
   xmlns:inkscape="http://www.inkscape.org/namespaces/inkscape"
   width="54"
   height="32"
   id="svg3613"
   version="1.1"
   sodipodi:docname="computer.svg"
   inkscape:version="0.92.4 (5da689c313, 2019-01-14)">
  <sodipodi:namedview
     pagecolor="#ffffff"
     bordercolor="#666666"
     borderopacity="1"
     objecttolerance="10"
     gridtolerance="10"
     guidetolerance="10"
     inkscape:pageopacity="0"
     inkscape:pageshadow="2"
     inkscape:window-width="1366"
     inkscape:window-height="704"
     id="namedview12"
     showgrid="false"
     showguides="true"
     inkscape:guide-bbox="true"
     inkscape:zoom="2.43559"
     inkscape:cx="18.991274"
     inkscape:cy="-4.0000175"
     inkscape:window-x="0"
     inkscape:window-y="0"
     inkscape:window-maximized="1"
     inkscape:current-layer="svg3613" />
  <metadata
     id="metadata13">
    <rdf:RDF>
      <cc:Work
         rdf:about="">
        <dc:format>image/svg+xml</dc:format>
        <dc:type
           rdf:resource="http://purl.org/dc/dcmitype/StillImage" />
        <dc:title></dc:title>
      </cc:Work>
    </rdf:RDF>
  </metadata>
  <defs
     id="defs3615">
    <style
       type="text/css"
       id="current-color-scheme">
      .ColorScheme-Text {
        color:#00ff00;
      }
      .ColorScheme-Background {
        color:#ff0000;
      }
      .ColorScheme-Highlight {
        color:#0000ff;
      }
      .ColorScheme-ButtonHover {
        color:#ffff00;
      }
      .ColorScheme-ButtonFocus{
        color:#ff00ff;
      }
      .ColorScheme-NegativeText {
        color:#00ffff;
      }
  </style>
  </defs>
  <g
     id="computer"
     transform="translate(0,40)">
    <rect
       style="opacity:0.01000001;fill:#000000;fill-opacity:0.00392157;stroke:none"
       id="rect2994"
       width="32"
       height="32"
       x="21.999998"
       y="1.754521e-05" />
    <path
       id="path819"
       d="m 28.333984,4.1308594 0.0059,0.00391 c -1.199997,0 -2.167969,0.9660184 -2.167969,2.1660156 v 14.810543 c 0,1.196763 0.967972,2.167969 2.167969,2.167969 h 5.433594 v 2.587891 h -5.072266 v 2.001953 h 18.875 v -2.001953 h -5.205078 v -2.587891 h 5.304687 c 1.196762,0 2.166016,-0.971206 2.166016,-2.167969 V 6.2988281 c 0,-1.1967628 -0.969254,-2.1679687 -2.166016,-2.1679687 z m 0.97461,1.4003906 h 17.3125 c 0.99377,0 1.794922,0.8203542 1.794922,1.84375 v 12.611328 c 0,1.023394 -0.801152,1.847656 -1.794922,1.847656 h -17.3125 A 1.786708,1.839973 0 0 1 27.515625,19.986328 V 7.375 c 0,-1.01983 0.799199,-1.84375 1.792969,-1.84375 z"
       style="fill:currentColor;fill-opacity:1;stroke-width:3.23449421"
       class="ColorScheme-Highlight"
       inkscape:connector-curvature="0" />
  </g>
  <g
     id="16-16-computer"
     transform="translate(0,40)">
    <rect
       style="opacity:0.01000001;fill:#00000f;fill-opacity:0.00392157;stroke:none;stroke-width:0.54506987"
       id="rect3034"
       width="15.988703"
       height="15.988683"
       x="-16.01745"
       y="15.990278" />
    <path
       id="path819-5"
       d="m -12.857422,18.146484 0.0039,0.002 c -0.593374,0 -1.072265,0.476938 -1.072265,1.070312 v 7.324219 c 0,0.591775 0.478891,1.072265 1.072265,1.072265 h 2.6875 v 1.279297 h -2.509765 v 0.990235 h 9.3339841 V 28.894577 H -5.9160216 V 27.61528 h 2.6230468 c 0.5917751,0 1.0722657,-0.48049 1.0722657,-1.072265 V 19.21875 c 0,-0.591776 -0.4804906,-1.072266 -1.0722657,-1.072266 z m 0.726563,0.921875 h 8.0742184 c 0.4634664,0 0.8359375,0.382092 0.8359375,0.859375 v 5.882813 c 0,0.477283 -0.3724711,0.861328 -0.8359375,0.861328 h -8.0742184 a 0.83327338,0.85811496 0 0 1 -0.837891,-0.861328 v -5.882813 c 0,-0.475622 0.374425,-0.859375 0.837891,-0.859375 z"
       style="fill:currentColor;fill-opacity:1;stroke-width:1.59939384"
       class="ColorScheme-Highlight"
       inkscape:connector-curvature="0" />
  </g>
  <g
     id="22-22-computer"
     transform="translate(-0.07343032,40)">
    <rect
       style="opacity:0.01000001;fill:#000000;fill-opacity:0.00392157;stroke:none"
       id="rect3028"
       width="22"
       height="22"
       x="2.2758499e-16"
       y="10" />
    <path
       inkscape:connector-curvature="0"
       id="path819-5-5"
       class="ColorScheme-Highlight"
       d="m 4.5628306,13.134766 0.00391,0.002 c -0.795583,0 -1.4355468,0.641919 -1.4355468,1.4375 v 9.818359 c 0,0.793439 0.6399638,1.4375 1.4355468,1.4375 h 3.6035156 v 1.714844 h -3.363285 v 1.328125 H 17.320643 v -1.328125 h -3.451172 v -1.714844 h 3.517578 c 0.793437,0 1.435547,-0.644062 1.435547,-1.4375 v -9.820312 c 0,-0.793438 -0.64211,-1.4375 -1.435547,-1.4375 z M 5.553065,14.386719 H 16.34408 c 0.619351,0 1.117188,0.510621 1.117188,1.148437 v 7.861328 c 0,0.637817 -0.497837,1.150391 -1.117188,1.150391 H 5.553065 A 1.113544,1.146741 0 0 1 4.4358774,23.396484 v -7.861328 c 0,-0.635599 0.4978331,-1.148437 1.1171876,-1.148437 z"
       style="fill:currentColor;fill-opacity:1;stroke-width:2.1444273" />
  </g>
  <g
     id="computer-laptop">
    <path
       inkscape:connector-curvature="0"
       id="path821"
       class="ColorScheme-Highlight"
       d="m 28.505859,5.173828 c -2.052031,0 -3.699218,1.651094 -3.699218,3.703125 v 11.839844 c 0,1.383353 0.759318,2.573731 1.880859,3.207031 h -3.296875 v 2.902344 h 29.294922 v -2.902344 h -3.013672 a 3.6795044,3.6795044 0 0 0 1.876953,-3.207031 V 8.876953 c 0,-2.052031 -1.649139,-3.703125 -3.701172,-3.703125 z m 1.373047,1.703125 h 0.0078 16.480469 a 3.2911603,3.1533415 0 0 1 3.294921,3.152344 v 10.101562 a 3.2911603,3.1533415 0 0 1 -3.291002,3.154297 H 29.882812 A 3.2911603,3.1533415 0 0 1 26.587891,20.130859 V 10.033203 a 3.2911603,3.1533415 0 0 1 3.291015,-3.15625 z m 5.921875,16.722656 h 4.603516 v 0.949219 h -4.603516 z"
       style="fill:currentColor;fill-opacity:1;stroke-width:3.53798509" />
    <rect
       style="opacity:0.01000001;fill:#000000;fill-opacity:0.00392157;stroke:none"
       id="rect2994-0"
       width="32"
       height="32"
       x="21.999958"
       y="1.754521e-05" />
  </g>
  <g
     id="22-22-computer-laptop">
    <rect
       style="opacity:0.01000001;fill:#f2f2f2;fill-opacity:0.00392157;stroke:none"
       id="rect3028-6"
       width="22"
       height="22"
       x="-0.073430322"
       y="10" />
    <path
       id="path821-1"
       class="ColorScheme-Highlight"
       d="M 4.703125 13.849609 C 3.3515674 13.849609 2.265625 14.937504 2.265625 16.289062 L 2.265625 24.087891 C 2.265625 24.999029 2.7652102 25.784052 3.5039062 26.201172 L 1.3339844 26.201172 L 1.3339844 28.111328 L 20.628906 28.111328 L 20.628906 26.201172 L 18.642578 26.201172 A 2.4234831 2.4234831 0 0 0 19.878906 24.087891 L 19.878906 16.289062 C 19.878906 14.937504 18.792965 13.849609 17.441406 13.849609 L 4.703125 13.849609 z M 5.7597656 15.193359 L 5.765625 15.193359 L 16.175781 15.193359 A 2.0788362 1.9917836 0 0 1 18.257812 17.185547 L 18.257812 23.564453 A 2.0788362 1.9917836 0 0 1 16.177734 25.556641 L 5.7636719 25.556641 A 2.0788362 1.9917836 0 0 1 3.6816406 23.564453 L 3.6816406 17.1875 A 2.0788362 1.9917836 0 0 1 5.7597656 15.193359 z M 9.5078125 25.986328 L 12.539062 25.986328 L 12.539062 26.611328 L 9.5078125 26.611328 L 9.5078125 25.986328 z "
       style="stroke-width:2.3302722;fill:currentColor;fill-opacity:1" />
  </g>
  <g
     id="16-16-computer-laptop">
    <rect
       style="opacity:0.01000001;fill:#00000f;fill-opacity:0.00392157;stroke:none;stroke-width:0.54506987"
       id="rect3034-2"
       width="15.988703"
       height="15.988683"
       x="-16.01709"
       y="15.978018" />
    <path
       inkscape:connector-curvature="0"
       id="path821-1-7"
       class="ColorScheme-Highlight"
       d="m -12.330431,19.073093 c -0.931273,0 -1.679528,0.7496 -1.679528,1.680873 v 5.373685 c 0,0.627807 0.344232,1.168717 0.853222,1.456129 h -1.495157 v 1.316168 H -1.356967 V 27.58378 h -1.368654 a 1.6698704,1.6698704 0 0 0 0.851876,-1.456129 v -5.373685 c 0,-0.931273 -0.748254,-1.680873 -1.679529,-1.680873 z m 0.728066,0.925892 h 0.0041 7.172992 a 1.4323958,1.3724132 0 0 1 1.434597,1.372694 v 4.395303 a 1.4323958,1.3724132 0 0 1 -1.433251,1.372692 h -7.175683 a 1.4323958,1.3724132 0 0 1 -1.434598,-1.372692 v -4.393959 a 1.4323958,1.3724132 0 0 1 1.431906,-1.374038 z m 2.582549,7.43676 h 2.088644 v 0.430649 h -2.088644 z"
       style="fill:currentColor;fill-opacity:1;stroke-width:1.60564446" />
  </g>
  <path
     style="font-style:normal;font-variant:normal;font-weight:normal;font-stretch:normal;font-size:16px;line-height:1.25;font-family:'Abyssinica SIL';-inkscape-font-specification:'Abyssinica SIL';letter-spacing:0px;word-spacing:0px;fill:#ffffff;fill-opacity:1;stroke:none;stroke-width:0.41620618"
     d="m 12.531632,-41.169387 c -0.0522,0 -0.10131,0.0117 -0.14746,0.0351 -0.0461,0.0211 -0.0873,0.0515 -0.12338,0.0913 -0.0341,0.0398 -0.0612,0.0867 -0.0813,0.14054 -0.0201,0.0539 -0.0301,0.11125 -0.0301,0.17215 0,0.0609 0.01,0.11946 0.0301,0.17567 0.0201,0.0539 0.0471,0.10072 0.0813,0.14054 0.0361,0.0398 0.0772,0.0714 0.12338,0.0949 0.0462,0.0234 0.0953,0.0351 0.14746,0.0351 0.0522,0 0.10132,-0.0117 0.14746,-0.0351 0.0461,-0.0234 0.0863,-0.055 0.12037,-0.0949 0.0341,-0.0398 0.0602,-0.0867 0.0783,-0.14054 0.0201,-0.0562 0.0301,-0.11477 0.0301,-0.17567 0,-0.0609 -0.01,-0.11828 -0.0301,-0.17215 -0.0181,-0.0539 -0.0441,-0.10072 -0.0783,-0.14054 -0.0341,-0.0398 -0.0742,-0.0703 -0.12037,-0.0913 -0.0461,-0.0234 -0.0953,-0.0351 -0.14746,-0.0351 z m 12.7265,0.52701 c -0.21065,0 -0.40526,0.0422 -0.58381,0.12648 -0.17655,0.0843 -0.32902,0.22017 -0.45742,0.40755 -0.12639,0.18738 -0.2257,0.43332 -0.29792,0.73781 -0.0722,0.30215 -0.10834,0.67106 -0.10834,1.10672 0,0.438 0.0371,0.79871 0.11135,1.08212 0.0742,0.28107 0.17353,0.50359 0.29792,0.66754 0.12439,0.16396 0.26783,0.27873 0.43034,0.34432 0.1625,0.0632 0.33203,0.0949 0.50857,0.0949 0.17655,0 0.34808,-0.0304 0.5146,-0.0913 0.16852,-0.0609 0.31699,-0.15459 0.44538,-0.28107 0.1284,-0.12648 0.23172,-0.28693 0.30997,-0.48133 0.0782,-0.19441 0.11736,-0.42512 0.11736,-0.69214 0,-0.17801 -0.0181,-0.33729 -0.0542,-0.47782 -0.0341,-0.14054 -0.0812,-0.26351 -0.14144,-0.36891 -0.0582,-0.10774 -0.12739,-0.19792 -0.20764,-0.27053 -0.0782,-0.075 -0.1615,-0.13585 -0.24978,-0.18269 -0.0883,-0.0469 -0.17855,-0.0808 -0.27084,-0.10189 -0.0923,-0.0211 -0.18056,-0.0316 -0.26482,-0.0316 -0.11034,0 -0.21166,0.0117 -0.30394,0.0351 -0.0923,0.0234 -0.17555,0.055 -0.24978,0.0949 -0.0742,0.0375 -0.13943,0.082 -0.19561,0.13351 -0.0562,0.0515 -0.10432,0.1054 -0.14444,0.16162 0.0301,-0.32323 0.0672,-0.58557 0.11134,-0.787 0.0462,-0.20144 0.10132,-0.35837 0.16552,-0.4708 0.0642,-0.11242 0.13943,-0.18855 0.2257,-0.22837 0.0863,-0.0398 0.18357,-0.0597 0.2919,-0.0597 0.0943,0 0.17254,0.0187 0.23473,0.0562 0.0622,0.0375 0.11235,0.0855 0.15047,0.14405 0.0381,0.0562 0.0642,0.12063 0.0782,0.19324 0.0161,0.0703 0.0241,0.13819 0.0241,0.20377 h 0.65302 c 0,-0.1499 -0.0271,-0.28927 -0.0813,-0.41809 -0.0542,-0.12882 -0.13141,-0.24125 -0.23172,-0.33729 -0.10031,-0.096 -0.22068,-0.17098 -0.36112,-0.22485 -0.14044,-0.0562 -0.29592,-0.0843 -0.46645,-0.0843 z m -6.79208,0.13351 c -0.0241,0.0375 -0.0702,0.0902 -0.13843,0.1581 -0.0682,0.0679 -0.14445,0.13936 -0.22871,0.21431 -0.0843,0.0726 -0.17153,0.14171 -0.26181,0.20729 -0.0883,0.0656 -0.16652,0.11477 -0.23473,0.14757 v 0.69213 c 0.0602,-0.0211 0.13041,-0.0504 0.21065,-0.0878 0.0802,-0.0398 0.16151,-0.0831 0.24376,-0.13 0.0823,-0.0492 0.1605,-0.10071 0.23473,-0.15459 0.0762,-0.0562 0.14044,-0.11242 0.1926,-0.16864 v 3.55555 h 0.62895 v -4.43389 z m 3.55704,0 -1.57087,2.62801 v 0.85726 h 1.81162 v 0.94862 h 0.62293 v -0.94862 h 0.40626 v -0.64295 h -0.40626 v -2.84232 z m 6.65666,0 -1.57087,2.62801 v 0.85726 h 1.81162 v 0.94862 h 0.62293 v -0.94862 h 0.40626 v -0.64295 h -0.40626 v -2.84232 z m -6.41591,0.53403 v 2.30829 h -1.34518 z m 6.65666,0 v 2.30829 h -1.34518 z m -16.33169,0.34431 -0.75835,0.27405 v 0.23891 h 0.43635 v 3.19366 c 0,0.1382 -0.005,0.26936 -0.015,0.3935 -0.008,0.12648 -0.0241,0.24008 -0.0482,0.3408 -0.0221,0.10306 -0.0522,0.19089 -0.0903,0.26351 -0.0381,0.075 -0.0853,0.13116 -0.14143,0.16864 l -0.59886,-0.48134 c -0.0301,0.0117 -0.0612,0.0281 -0.0933,0.0492 -0.0321,0.0234 -0.0602,0.0515 -0.0843,0.0843 -0.0261,0.0351 -0.0471,0.075 -0.0632,0.11946 -0.0161,0.0468 -0.0241,0.10071 -0.0241,0.16161 0,0.0679 0.013,0.12649 0.0391,0.17567 0.0241,0.0515 0.0582,0.0937 0.10231,0.12648 0.0421,0.0328 0.0913,0.0562 0.14746,0.0703 0.0562,0.0164 0.11636,0.0246 0.18056,0.0246 0.19461,0 0.38118,-0.055 0.55974,-0.16513 0.18056,-0.10775 0.33404,-0.27522 0.46043,-0.50242 0.0522,-0.096 0.0943,-0.20495 0.12639,-0.32674 0.0321,-0.1218 0.0562,-0.24711 0.0722,-0.37593 0.0181,-0.12883 0.0301,-0.25648 0.0361,-0.38296 0.006,-0.12883 0.009,-0.24711 0.009,-0.35486 v -3.09529 z m 1.69426,0 -0.75836,0.28107 v 0.24594 h 0.43034 v 1.94993 c 0,0.20378 0.0191,0.37944 0.0572,0.52701 0.0401,0.14522 0.0963,0.26584 0.16852,0.36188 0.0742,0.0937 0.16351,0.16278 0.26783,0.20729 0.10633,0.0468 0.2257,0.0703 0.35811,0.0703 0.0903,0 0.18257,-0.0176 0.27686,-0.0527 0.0963,-0.0328 0.18759,-0.0738 0.27385,-0.12297 0.0883,-0.0515 0.16953,-0.10657 0.24376,-0.16513 0.0762,-0.0585 0.14044,-0.11125 0.1926,-0.1581 v 0.41107 h 0.97803 v -0.28107 l -0.27084,-0.0211 c -0.0361,-0.005 -0.0682,-0.0211 -0.0963,-0.0492 -0.0261,-0.0281 -0.0391,-0.0644 -0.0391,-0.10892 v -3.09529 h -0.25278 l -0.75234,0.28107 v 0.24594 h 0.43335 v 2.41018 c -0.0361,0.0211 -0.0802,0.0445 -0.13241,0.0703 -0.0502,0.0234 -0.10433,0.0469 -0.16251,0.0703 -0.0582,0.0211 -0.11937,0.0386 -0.18357,0.0527 -0.0642,0.014 -0.12739,0.0211 -0.18959,0.0211 -0.10833,0 -0.20062,-0.0176 -0.27686,-0.0527 -0.0762,-0.0375 -0.13843,-0.0913 -0.18657,-0.16162 -0.0462,-0.0703 -0.0802,-0.15576 -0.10232,-0.25647 -0.0201,-0.10072 -0.0301,-0.21432 -0.0301,-0.3408 v -2.33992 z m 10.90284,1.04348 c 0.0983,0 0.19059,0.0269 0.27686,0.0808 0.0863,0.0515 0.1605,0.12296 0.22269,0.21431 0.0642,0.089 0.11435,0.19441 0.15047,0.31621 0.0381,0.12179 0.0572,0.25179 0.0572,0.38998 0,0.1382 -0.0191,0.26936 -0.0572,0.3935 -0.0361,0.1218 -0.0863,0.22837 -0.15047,0.31972 -0.0622,0.0914 -0.13642,0.16396 -0.22269,0.21783 -0.0863,0.0515 -0.17856,0.0773 -0.27686,0.0773 -0.0963,0 -0.18758,-0.0258 -0.27385,-0.0773 -0.0863,-0.0539 -0.16251,-0.12648 -0.22871,-0.21783 -0.0642,-0.0913 -0.11536,-0.19792 -0.15348,-0.31972 -0.0361,-0.12414 -0.0542,-0.2553 -0.0542,-0.3935 0,-0.13819 0.0181,-0.26819 0.0542,-0.38998 0.0381,-0.1218 0.0893,-0.2272 0.15348,-0.31621 0.0662,-0.0913 0.14244,-0.16279 0.22871,-0.21431 0.0863,-0.0539 0.17755,-0.0808 0.27385,-0.0808 z"
     id="text843"
     inkscape:connector-curvature="0" />
</svg>
