<?xml version="1.0" encoding="UTF-8" standalone="no"?>
<svg
   xmlns:dc="http://purl.org/dc/elements/1.1/"
   xmlns:cc="http://creativecommons.org/ns#"
   xmlns:rdf="http://www.w3.org/1999/02/22-rdf-syntax-ns#"
   xmlns:svg="http://www.w3.org/2000/svg"
   xmlns="http://www.w3.org/2000/svg"
   xmlns:sodipodi="http://sodipodi.sourceforge.net/DTD/sodipodi-0.dtd"
   xmlns:inkscape="http://www.inkscape.org/namespaces/inkscape"
   viewBox="0 0 22 22"
   id="svg"
   version="1.1"
   inkscape:version="0.92.4 (5da689c313, 2019-01-14)"
   width="100%"
   height="100%"
   sodipodi:docname="quassel.svg">
  <defs
     id="defs81">
    <style
       type="text/css"
       id="current-color-scheme">
      .ColorScheme-Text {
        color:#00ff00;
      }
      .ColorScheme-Background {
        color:#ff0000;
      }
      .ColorScheme-Highlight {
        color:#0000ff;
      }
      .ColorScheme-ButtonHover {
        color:#ffff00;
      }
      .ColorScheme-ButtonFocus{
        color:#ff00ff;
      }
      .ColorScheme-NegativeText {
        color:#00ffff;
      }
  </style>
  </defs>
  <metadata
     id="metadata34">
    <rdf:RDF>
      <cc:Work
         rdf:about="">
        <dc:format>image/svg+xml</dc:format>
        <dc:type
           rdf:resource="http://purl.org/dc/dcmitype/StillImage" />
        <dc:title />
      </cc:Work>
    </rdf:RDF>
  </metadata>
  <sodipodi:namedview
     pagecolor="#3daee9"
     bordercolor="#666666"
     borderopacity="1"
     objecttolerance="10"
     gridtolerance="10"
     guidetolerance="10"
     inkscape:pageopacity="0.03921569"
     inkscape:pageshadow="2"
     inkscape:window-width="1366"
     inkscape:window-height="717"
     id="namedview32"
     showgrid="true"
     inkscape:zoom="7.9999996"
     inkscape:cx="-12.324293"
     inkscape:cy="7.741729"
     inkscape:window-x="0"
     inkscape:window-y="25"
     inkscape:window-maximized="1"
     inkscape:current-layer="svg"
     borderlayer="true"
     showguides="true"
     inkscape:guide-bbox="true"
     inkscape:snap-bbox="true">
    <inkscape:grid
       type="xygrid"
       id="grid3046"
       empspacing="4"
       visible="true"
       enabled="true"
       snapvisiblegridlinesonly="true"
       color="#0000ff"
       opacity="0.03921569"
       empcolor="#0000ff"
       empopacity="0.07843137" />
    <sodipodi:guide
       orientation="0,1"
       position="2,19"
       id="guide3820"
       inkscape:locked="false" />
    <sodipodi:guide
       orientation="0,1"
       position="5,3"
       id="guide3822"
       inkscape:locked="false" />
    <sodipodi:guide
       orientation="1,0"
       position="11,20"
       id="guide3824"
       inkscape:locked="false" />
    <sodipodi:guide
       orientation="0,1"
       position="2,11"
       id="guide3826"
       inkscape:locked="false" />
  </sodipodi:namedview>
  <g
     id="quassel">
    <rect
       y="0"
       x="0"
       height="22"
       width="22"
       id="rect3881"
       style="fill:currentColor;fill-opacity:0;stroke:none" />
    <path
       style="fill:currentColor;fill-opacity:1;stroke:none"
       class="ColorScheme-Highlight"
       d="m 11,3 c -4.418278,0 -8,3.581722 -8,8 0,4.418278 3.581722,8 8,8 4.418278,0 8,-3.581722 8,-8 0,-4.418278 -3.581722,-8 -8,-8 z m 0,1 c 3.865993,0 7,3.1340068 7,7 0,3.865993 -3.134007,7 -7,7 C 7.1340068,18 4,14.865993 4,11 4,7.1340068 7.1340068,4 11,4 Z m 2,7 c -1.656854,0 -3,1.343146 -3,3 0,1.656854 1.343146,3 3,3 1.656854,0 3,-1.343146 3,-3 0,-1.656854 -1.343146,-3 -3,-3 z"
       id="path2999"
       inkscape:connector-curvature="0" />
  </g>
  <g
     id="quassel_inactive">
    <rect
       style="fill:currentColor;fill-opacity:0;stroke:none"
       id="rect3777"
       width="22"
       height="22"
       x="-24"
       y="0" />
    <path
       inkscape:connector-curvature="0"
       class="ColorScheme-Highlight"
       id="path3779"
       d="m -13,3 c -4.418278,0 -8,3.581722 -8,8 0,4.418278 3.581722,8 8,8 4.418278,0 8,-3.581722 8,-8 0,-4.418278 -3.581722,-8 -8,-8 z m 0,1 c 3.865993,0 7,3.1340068 7,7 0,3.865993 -3.134007,7 -7,7 -3.865993,0 -7,-3.134007 -7,-7 0,-3.8659932 3.134007,-7 7,-7 z m 2,7 c -1.656854,0 -3,1.343146 -3,3 0,1.656854 1.343146,3 3,3 1.656854,0 3,-1.343146 3,-3 0,-1.656854 -1.343146,-3 -3,-3 z"
       style="opacity:0.5;fill:currentColor;fill-opacity:1;stroke:none" />
  </g>
  <g
     transform="translate(23,-1)"
     id="quassel_message">
    <rect
       style="fill:currentColor;fill-opacity:0.01000001;stroke:none"
       id="rect3785"
       width="22"
       height="22"
       x="1"
       y="1" />
    <path
       inkscape:connector-curvature="0"
       class="ColorScheme-NegativeText"
       id="path3787"
       transform="translate(1,1)"
       d="m 11,3 c -4.418278,0 -8,3.581722 -8,8 0,4.418278 3.581722,8 8,8 4.418278,0 8,-3.581722 8,-8 0,-4.418278 -3.581722,-8 -8,-8 z m 0,1 c 3.865993,0 7,3.1340068 7,7 0,3.865993 -3.134007,7 -7,7 C 7.1340068,18 4,14.865993 4,11 4,7.1340068 7.1340068,4 11,4 z m 2,7 c -1.656854,0 -3,1.343146 -3,3 0,1.656854 1.343146,3 3,3 1.656854,0 3,-1.343146 3,-3 0,-1.656854 -1.343146,-3 -3,-3 z"
       style="fill:currentColor;fill-opacity:1;stroke:none" />
  </g>
</svg>
