<?xml version="1.0" encoding="UTF-8" standalone="no"?>
<!-- Created with Inkscape (http://www.inkscape.org/) -->

<svg
   xmlns:dc="http://purl.org/dc/elements/1.1/"
   xmlns:cc="http://creativecommons.org/ns#"
   xmlns:rdf="http://www.w3.org/1999/02/22-rdf-syntax-ns#"
   xmlns:svg="http://www.w3.org/2000/svg"
   xmlns="http://www.w3.org/2000/svg"
   xmlns:sodipodi="http://sodipodi.sourceforge.net/DTD/sodipodi-0.dtd"
   xmlns:inkscape="http://www.inkscape.org/namespaces/inkscape"
   id="svg4153"
   version="1.1"
   inkscape:version="0.92.4 (5da689c313, 2019-01-14)"
   width="22"
   height="22"
   sodipodi:docname="software.svg"
   viewBox="0 0 22 22">
  <metadata
     id="metadata4159">
    <rdf:RDF>
      <cc:Work
         rdf:about="">
        <dc:format>image/svg+xml</dc:format>
        <dc:type
           rdf:resource="http://purl.org/dc/dcmitype/StillImage" />
        <dc:title></dc:title>
      </cc:Work>
    </rdf:RDF>
  </metadata>
  <defs
     id="defs4157">
    <style
       type="text/css"
       id="current-color-scheme">
      .ColorScheme-Text {
        color:#00ff00;
      }
      .ColorScheme-Background {
        color:#ff0000;
      }
      .ColorScheme-Highlight {
        color:#0000ff;
      }
      .ColorScheme-ButtonHover {
        color:#ffff00;
      }
      .ColorScheme-ButtonFocus{
        color:#ff00ff;
      }
      .ColorScheme-NegativeText {
        color:#00ffff;
      }
  </style>
  </defs>
  <sodipodi:namedview
     pagecolor="#ffffff"
     bordercolor="#666666"
     borderopacity="1"
     objecttolerance="10"
     gridtolerance="10000"
     guidetolerance="10"
     inkscape:pageopacity="0"
     inkscape:pageshadow="2"
     inkscape:window-width="1366"
     inkscape:window-height="708"
     id="namedview4155"
     inkscape:document-units="px"
     showgrid="true"
     inkscape:showpageshadow="false"
     borderlayer="true"
     inkscape:zoom="4.2104995"
     inkscape:cx="6.8437235"
     inkscape:cy="11"
     inkscape:window-x="0"
     inkscape:window-y="0"
     inkscape:window-maximized="1"
     inkscape:current-layer="svg4153"
     showguides="true"
     inkscape:guide-bbox="true">
    <inkscape:grid
       type="xygrid"
       id="grid4140"
       enabled="false" />
  </sodipodi:namedview>
  <inkscape:clipboard
     style="opacity:0.01000001;fill:#00000f;fill-opacity:0;stroke-width:1;stroke-linecap:butt;stroke-linejoin:miter;stroke-miterlimit:4;stroke-dasharray:none;stroke-dashoffset:0;stroke-opacity:1;stroke:none"
     min="0,0"
     max="22,22" />
  <g
     id="software-updates-updates"
     transform="translate(0.0068433,0.011794)">
    <rect
       style="opacity:1;fill:none;fill-opacity:0.59905659;stroke:none"
       id="rect4212-3"
       width="22"
       height="22"
       x="0"
       y="-2.6645353e-15" />
    <path
       id="path825"
       d="M 6.8270312,3.0260647 A 0.41071909,0.41071909 0 0 0 6.5137174,3.182722 L 3.3644062,7.1729274 A 0.391161,0.391161 0 0 0 3.2673792,7.4266099 V 18.594741 c 0,0.234698 0.1952021,0.410341 0.4103402,0.410341 H 18.209425 c 0.234696,0 0.410338,-0.195207 0.410338,-0.410341 V 7.4266099 A 0.391161,0.391161 0 0 0 18.541945,7.1729274 L 15.412845,3.182722 A 0.41071909,0.41071909 0 0 0 15.080324,3.0260647 Z m 0.1950627,0.8024884 v 0.019204 H 10.542329 V 7.0546776 H 4.4791972 Z m 4.3419221,0.019207 h 3.520236 l 2.542904,3.2271338 h -6.06314 z M 4.1082748,7.8965819 H 17.79908 V 18.203606 H 4.1082748 Z"
       style="fill:currentColor;fill-opacity:1;stroke-width:1.95580447"
       class="ColorScheme-Highlight"
       inkscape:connector-curvature="0" />
    <path
       style="fill:currentColor;fill-opacity:1;stroke-width:1.95580447"
       class="ColorScheme-Highlight"
       inkscape:connector-curvature="0"
       id="path2"
       d="M 8.80194,17.283992 V 13.567958 H 7.1003885 l 3.8724935,-4.6939296 3.872491,4.6939296 h -1.681981 v 3.716034 H 8.7823812 Z" />
  </g>
  <g
     id="software-updates-inactive"
     transform="translate(44.006843,0.011794)">
    <rect
       style="opacity:1;fill:none;fill-opacity:0.59905659;stroke:none"
       id="rect4212-0"
       width="22"
       height="22"
       x="0"
       y="-2.6645353e-15" />
    <path
       id="path825-93"
       d="M 6.8270312,3.0260647 A 0.41071909,0.41071909 0 0 0 6.5137174,3.182722 L 3.3644062,7.1729274 A 0.391161,0.391161 0 0 0 3.2673792,7.4266099 V 18.594741 c 0,0.234698 0.1952021,0.410341 0.4103402,0.410341 H 18.209425 c 0.234696,0 0.410338,-0.195207 0.410338,-0.410341 V 7.4266099 A 0.391161,0.391161 0 0 0 18.541945,7.1729274 L 15.412845,3.182722 A 0.41071909,0.41071909 0 0 0 15.080324,3.0260647 Z m 0.1950627,0.8024884 v 0.019204 H 10.542329 V 7.0546776 H 4.4791972 Z m 4.3419221,0.019207 h 3.520236 l 2.542904,3.2271338 h -6.06314 z M 4.1082748,7.8965819 H 17.79908 V 18.203606 H 4.1082748 Z"
       style="fill:currentColor;fill-opacity:1;stroke-width:1.95580447"
       class="ColorScheme-Highlight"
       inkscape:connector-curvature="0" />
  </g>
  <g
     id="software-updates-security"
     transform="translate(22.006843,0.0117937)">
    <rect
       style="opacity:1;fill:none;fill-opacity:0.59905659;stroke:none"
       id="rect4212-62"
       width="22"
       height="22"
       x="0"
       y="-2.6645353e-15" />
    <path
       id="path825-9"
       d="M 6.8270312,3.0260647 A 0.41071909,0.41071909 0 0 0 6.5137174,3.182722 L 3.3644062,7.1729274 A 0.391161,0.391161 0 0 0 3.2673792,7.4266099 V 18.594741 c 0,0.234698 0.1952021,0.410341 0.4103402,0.410341 H 18.209425 c 0.234696,0 0.410338,-0.195207 0.410338,-0.410341 V 7.4266099 A 0.391161,0.391161 0 0 0 18.541945,7.1729274 L 15.412845,3.182722 A 0.41071909,0.41071909 0 0 0 15.080324,3.0260647 Z m 0.1950627,0.8024884 v 0.019204 H 10.542329 V 7.0546776 H 4.4791972 Z m 4.3419221,0.019207 h 3.520236 l 2.542904,3.2271338 h -6.06314 z M 4.1082748,7.8965819 H 17.79908 V 18.203606 H 4.1082748 Z"
       style="fill:currentColor;fill-opacity:1;stroke-width:1.95580447"
       class="ColorScheme-Highlight"
       inkscape:connector-curvature="0" />
    <path
       id="path2-2"
       d="M 10.999156,8.9153846 C 9.2390571,9.2421538 9.291043,10.222462 7.6571968,10.400699 7.2301689,14.36649 8.7340499,16.156294 10.999156,17.084616 13.26426,16.156294 14.764428,14.36649 14.341114,10.400699 12.707266,10.222462 12.75554,9.2384407 10.999156,8.9153846 Z"
       style="fill:currentColor;stroke-width:0.37132871"
       class="ColorScheme-Highlight"
       inkscape:connector-curvature="0" />
  </g>
  <g
     id="software-updates-important"
     transform="translate(-21.993157,0.0117937)">
    <rect
       style="opacity:1;fill:none;fill-opacity:0.59905659;stroke:none"
       id="rect4212-6"
       width="22"
       height="22"
       x="0"
       y="-2.6645353e-15" />
    <path
       id="path825-7"
       d="M 6.8270312,3.0260647 A 0.41071909,0.41071909 0 0 0 6.5137174,3.182722 L 3.3644062,7.1729274 A 0.391161,0.391161 0 0 0 3.2673792,7.4266099 V 18.594741 c 0,0.234698 0.1952021,0.410341 0.4103402,0.410341 H 18.209425 c 0.234696,0 0.410338,-0.195207 0.410338,-0.410341 V 7.4266099 A 0.391161,0.391161 0 0 0 18.541945,7.1729274 L 15.412845,3.182722 A 0.41071909,0.41071909 0 0 0 15.080324,3.0260647 Z m 0.1950627,0.8024884 v 0.019204 H 10.542329 V 7.0546776 H 4.4791972 Z m 4.3419221,0.019207 h 3.520236 l 2.542904,3.2271338 h -6.06314 z M 4.1082748,7.8965819 H 17.79908 V 18.203606 H 4.1082748 Z"
       style="fill:currentColor;fill-opacity:1;stroke-width:1.95580447"
       class="ColorScheme-Highlight"
       inkscape:connector-curvature="0" />
    <path
       id="path916"
       d="M 10.951172,8.5683594 5.8222656,17.431641 H 16.177734 Z m 0.02148,2.8183596 a 0.3658317,0.3658317 0 0 1 0.0918,0.01367 c 0.222252,0.05114 0.330746,0.302827 0.291016,0.513671 -0.07789,0.890191 -0.185081,1.776598 -0.251953,2.667969 h -0.257813 c -0.08064,-0.928347 -0.188401,-1.847071 -0.283203,-2.771484 0,-0.02911 0.0031,-0.05918 0.0078,-0.08789 0.02203,-0.170721 0.166439,-0.301755 0.330079,-0.330078 a 0.3658317,0.3658317 0 0 1 0.07226,-0.0059 z m -0.03516,3.755859 a 0.38117303,0.38117303 0 0 1 0.01563,0 c 0.156168,-3.94e-4 0.316686,0.08415 0.388672,0.228516 0.127845,0.22422 -0.0049,0.537443 -0.255859,0.601562 -0.258049,0.08733 -0.561009,-0.129725 -0.550782,-0.404297 a 0.42050977,0.42050977 0 0 1 0.160156,-0.328125 0.38117303,0.38117303 0 0 1 0.242188,-0.09766 z"
       style="fill:currentColor;fill-opacity:1;stroke-width:0.56417513"
       class="ColorScheme-Highlight"
       inkscape:connector-curvature="0" />
  </g>
  <g
     id="software-updates-additional"
     transform="translate(-22,22)">
    <rect
       style="opacity:1;fill:none;fill-opacity:0.59905659;stroke:none"
       id="rect4212-3-6"
       width="22"
       height="22"
       x="0.0068433001"
       y="0.011794" />
    <path
       id="path825-2"
       d="m 6.8339844,3.0371094 a 0.41071909,0.41071909 0 0 0 -0.3125,0.1582031 L 3.3710938,7.1855469 A 0.391161,0.391161 0 0 0 3.2734375,7.4375 v 11.169922 c 0,0.234698 0.1950181,0.410156 0.4101563,0.410156 H 18.216797 c 0.234696,0 0.410156,-0.195022 0.410156,-0.410156 V 7.4375 A 0.391161,0.391161 0 0 0 18.548828,7.1855469 L 15.419922,3.1953125 A 0.41071909,0.41071909 0 0 0 15.087891,3.0371094 Z M 7.0292969,3.8398438 V 3.859375 H 10.548828 V 7.0664062 H 4.4863281 Z m 4.3417971,0.019531 h 3.519531 l 2.542969,3.2265625 h -6.0625 z M 4.1152344,7.9082031 H 17.806641 V 18.214844 H 4.1152344 Z M 10.980469,8.8867188 7.1074219,13.580078 h 1.7011719 v 3.714844 h 4.3613282 v -3.714844 h 1.68164 z m -0.002,1.0664062 2.371093,2.873047 h -0.847656 v 3.810547 H 9.4707031 V 12.826172 H 8.609375 Z"
       style="fill:currentColor;fill-opacity:1;stroke-width:1.95580447"
       class="ColorScheme-Highlight"
       inkscape:connector-curvature="0" />
  </g>
  <g
     transform="translate(-15.006843,-1.0117931)"
     id="software-updates-release">
    <rect
       style="opacity:1;fill:none;fill-opacity:0.59905659;stroke:none"
       id="rect4212-3-7"
       width="22"
       height="22"
       x="15.006843"
       y="23.011793" />
    <path
       inkscape:connector-curvature="0"
       id="path1067"
       class="ColorScheme-Highlight"
       d="m 21.833984,26.037109 a 0.41071909,0.41071909 0 0 0 -0.3125,0.158203 l -3.15039,3.990235 a 0.391161,0.391161 0 0 0 -0.09766,0.251953 v 11.169922 c 0,0.234698 0.195018,0.410156 0.410156,0.410156 h 14.533203 c 0.234696,0 0.410156,-0.195022 0.410156,-0.410156 V 30.4375 a 0.391161,0.391161 0 0 0 -0.07813,-0.251953 l -3.128906,-3.990235 a 0.41071909,0.41071909 0 0 0 -0.332031,-0.158203 z m 0.195313,0.802735 v 0.01953 h 3.519531 v 3.207031 h -6.0625 z m 4.341797,0.01953 h 3.519531 l 2.542969,3.226563 h -6.0625 z m -0.390625,5.027344 3.871093,4.693359 h -1.68164 v 3.714844 h -4.361328 v -3.714844 h -1.701172 z"
       style="fill:currentColor;fill-opacity:1;stroke-width:1.95580447" />
  </g>
  <path
     style="font-style:normal;font-variant:normal;font-weight:normal;font-stretch:normal;font-size:16px;line-height:1.25;font-family:'Abyssinica SIL';-inkscape-font-specification:'Abyssinica SIL';letter-spacing:0px;word-spacing:0px;fill:#ffffff;fill-opacity:1;stroke:none;stroke-width:0.41620618"
     d="m -0.3972266,-27.921401 c -0.0522,0 -0.10131,0.0117 -0.14746,0.0351 -0.0461,0.0211 -0.0873,0.0515 -0.12338,0.0913 -0.0341,0.0398 -0.0612,0.0867 -0.0813,0.14054 -0.0201,0.0539 -0.0301,0.11125 -0.0301,0.17215 0,0.0609 0.01,0.11946 0.0301,0.17567 0.0201,0.0539 0.0471,0.10072 0.0813,0.14054 0.0361,0.0398 0.0772,0.0714 0.12338,0.0949 0.0462,0.0234 0.0953,0.0351 0.14746,0.0351 0.0522,0 0.10132,-0.0117 0.14746,-0.0351 0.0461,-0.0234 0.0863,-0.055 0.12037,-0.0949 0.0341,-0.0398 0.0602,-0.0867 0.0783,-0.14054 0.0201,-0.0562 0.0301,-0.11477 0.0301,-0.17567 0,-0.0609 -0.01,-0.11828 -0.0301,-0.17215 -0.0181,-0.0539 -0.0441,-0.10072 -0.0783,-0.14054 -0.0341,-0.0398 -0.0742,-0.0703 -0.12037,-0.0913 -0.0461,-0.0234 -0.0953,-0.0351 -0.14746,-0.0351 z m 12.7264996,0.52701 c -0.21065,0 -0.40526,0.0422 -0.58381,0.12648 -0.17655,0.0843 -0.32902,0.22017 -0.45742,0.40755 -0.12639,0.18738 -0.2257,0.43332 -0.29792,0.73781 -0.0722,0.30215 -0.10834,0.67106 -0.10834,1.10672 0,0.438 0.0371,0.79871 0.11135,1.08212 0.0742,0.28107 0.17353,0.50359 0.29792,0.66754 0.12439,0.16396 0.26783,0.27873 0.43034,0.34432 0.1625,0.0632 0.33203,0.0949 0.50857,0.0949 0.17655,0 0.34808,-0.0304 0.5146,-0.0913 0.16852,-0.0609 0.31699,-0.15459 0.44538,-0.28107 0.1284,-0.12648 0.23172,-0.28693 0.30997,-0.48133 0.0782,-0.19441 0.11736,-0.42512 0.11736,-0.69214 0,-0.17801 -0.0181,-0.33729 -0.0542,-0.47782 -0.0341,-0.14054 -0.0812,-0.26351 -0.14144,-0.36891 -0.0582,-0.10774 -0.12739,-0.19792 -0.20764,-0.27053 -0.0782,-0.075 -0.1615,-0.13585 -0.24978,-0.18269 -0.0883,-0.0469 -0.17855,-0.0808 -0.27084,-0.10189 -0.0923,-0.0211 -0.18056,-0.0316 -0.26482,-0.0316 -0.11034,0 -0.21166,0.0117 -0.30394,0.0351 -0.0923,0.0234 -0.17555,0.055 -0.24978,0.0949 -0.0742,0.0375 -0.13943,0.082 -0.19561,0.13351 -0.0562,0.0515 -0.10432,0.1054 -0.14444,0.16162 0.0301,-0.32323 0.0672,-0.58557 0.11134,-0.787 0.0462,-0.20144 0.10132,-0.35837 0.16552,-0.4708 0.0642,-0.11242 0.13943,-0.18855 0.2257,-0.22837 0.0863,-0.0398 0.18357,-0.0597 0.2919,-0.0597 0.0943,0 0.17254,0.0187 0.23473,0.0562 0.0622,0.0375 0.11235,0.0855 0.15047,0.14405 0.0381,0.0562 0.0642,0.12063 0.0782,0.19324 0.0161,0.0703 0.0241,0.13819 0.0241,0.20377 h 0.65302 c 0,-0.1499 -0.0271,-0.28927 -0.0813,-0.41809 -0.0542,-0.12882 -0.13141,-0.24125 -0.23172,-0.33729 -0.10031,-0.096 -0.22068,-0.17098 -0.36112,-0.22485 -0.14044,-0.0562 -0.29592,-0.0843 -0.46645,-0.0843 z m -6.7920796,0.13351 c -0.0241,0.0375 -0.0702,0.0902 -0.13843,0.1581 -0.0682,0.0679 -0.14445,0.13936 -0.22871,0.21431 -0.0843,0.0726 -0.17153,0.14171 -0.26181,0.20729 -0.0883,0.0656 -0.16652,0.11477 -0.23473,0.14757 v 0.69213 c 0.0602,-0.0211 0.13041,-0.0504 0.21065,-0.0878 0.0802,-0.0398 0.16151,-0.0831 0.24376,-0.13 0.0823,-0.0492 0.1605,-0.10071 0.23473,-0.15459 0.0762,-0.0562 0.14044,-0.11242 0.1926,-0.16864 v 3.55555 h 0.62895 v -4.43389 z m 3.55704,0 -1.57087,2.62801 v 0.85726 h 1.81162 v 0.94862 h 0.62293 v -0.94862 h 0.4062596 v -0.64295 H 9.9579134 v -2.84232 z m 6.6566596,0 -1.57087,2.62801 v 0.85726 h 1.81162 v 0.94862 h 0.62293 v -0.94862 h 0.40626 v -0.64295 h -0.40626 v -2.84232 z m -6.4159096,0.53403 v 2.30829 h -1.34518 z m 6.6566596,0 v 2.30829 h -1.34518 z m -16.3316896,0.34431 -0.75835,0.27405 v 0.23891 h 0.43635 v 3.19366 c 0,0.1382 -0.005,0.26936 -0.015,0.3935 -0.008,0.12648 -0.0241,0.24008 -0.0482,0.3408 -0.0221,0.10306 -0.0522,0.19089 -0.0903,0.26351 -0.0381,0.075 -0.0853,0.13116 -0.14143,0.16864 l -0.59886,-0.48134 c -0.0301,0.0117 -0.0612,0.0281 -0.0933,0.0492 -0.0321,0.0234 -0.0602,0.0515 -0.0843,0.0843 -0.0261,0.0351 -0.0471,0.075 -0.0632,0.11946 -0.0161,0.0468 -0.0241,0.10071 -0.0241,0.16161 0,0.0679 0.013,0.12649 0.0391,0.17567 0.0241,0.0515 0.0582,0.0937 0.10231,0.12648 0.0421,0.0328 0.0913,0.0562 0.14746,0.0703 0.0562,0.0164 0.11636,0.0246 0.18056,0.0246 0.19461,0 0.38118,-0.055 0.55974,-0.16513 0.18056,-0.10775 0.33404,-0.27522 0.46043,-0.50242 0.0522,-0.096 0.0943,-0.20495 0.12639,-0.32674 0.0321,-0.1218 0.0562,-0.24711 0.0722,-0.37593 0.0181,-0.12883 0.0301,-0.25648 0.0361,-0.38296 0.006,-0.12883 0.009,-0.24711 0.009,-0.35486 v -3.09529 z m 1.69426,0 -0.75836,0.28107 v 0.24594 h 0.43034 v 1.94993 c 0,0.20378 0.0191,0.37944 0.0572,0.52701 0.0401,0.14522 0.0963,0.26584 0.16852,0.36188 0.0742,0.0937 0.16351,0.16278 0.26783,0.20729 0.10633,0.0468 0.2257,0.0703 0.35811,0.0703 0.0903,0 0.18257,-0.0176 0.27686,-0.0527 0.0963,-0.0328 0.18759,-0.0738 0.27385,-0.12297 0.0883,-0.0515 0.16953,-0.10657 0.24376,-0.16513 0.0762,-0.0585 0.14044,-0.11125 0.1926,-0.1581 v 0.41107 h 0.97803 v -0.28107 l -0.27084,-0.0211 c -0.0361,-0.005 -0.0682,-0.0211 -0.0963,-0.0492 -0.0261,-0.0281 -0.0391,-0.0644 -0.0391,-0.10892 v -3.09529 h -0.25278 l -0.75234,0.28107 v 0.24594 h 0.43335 v 2.41018 c -0.0361,0.0211 -0.0802,0.0445 -0.13241,0.0703 -0.0502,0.0234 -0.10433,0.0469 -0.16251,0.0703 -0.0582,0.0211 -0.11937,0.0386 -0.18357,0.0527 -0.0642,0.014 -0.12739,0.0211 -0.18959,0.0211 -0.10833,0 -0.20062,-0.0176 -0.27686,-0.0527 -0.0762,-0.0375 -0.13843,-0.0913 -0.18657,-0.16162 -0.0462,-0.0703 -0.0802,-0.15576 -0.10232,-0.25647 -0.0201,-0.10072 -0.0301,-0.21432 -0.0301,-0.3408 v -2.33992 z m 10.9028396,1.04348 c 0.0983,0 0.19059,0.0269 0.27686,0.0808 0.0863,0.0515 0.1605,0.12296 0.22269,0.21431 0.0642,0.089 0.11435,0.19441 0.15047,0.31621 0.0381,0.12179 0.0572,0.25179 0.0572,0.38998 0,0.1382 -0.0191,0.26936 -0.0572,0.3935 -0.0361,0.1218 -0.0863,0.22837 -0.15047,0.31972 -0.0622,0.0914 -0.13642,0.16396 -0.22269,0.21783 -0.0863,0.0515 -0.17856,0.0773 -0.27686,0.0773 -0.0963,0 -0.18758,-0.0258 -0.27385,-0.0773 -0.0863,-0.0539 -0.16251,-0.12648 -0.22871,-0.21783 -0.0642,-0.0913 -0.11536,-0.19792 -0.15348,-0.31972 -0.0361,-0.12414 -0.0542,-0.2553 -0.0542,-0.3935 0,-0.13819 0.0181,-0.26819 0.0542,-0.38998 0.0381,-0.1218 0.0893,-0.2272 0.15348,-0.31621 0.0662,-0.0913 0.14244,-0.16279 0.22871,-0.21431 0.0863,-0.0539 0.17755,-0.0808 0.27385,-0.0808 z"
     id="text843"
     inkscape:connector-curvature="0" />
</svg>
