/* XPM */
static char * maximize_prelight_xpm[] = {
"32 32 36 1",
" 	c None",
".	c #8D3027",
"+	c #811A10",
"@	c #861D15",
"#	c #932420",
"$	c #9B2928",
"%	c #9F2B2B",
"&	c #922420",
"*	c #871E15",
"=	c #811A11",
"-	c #932521",
";	c #A02C2C",
">	c #962623",
",	c #92241F",
"'	c #A02B2B",
")	c #821A11",
"!	c #982825",
"~	c #821B12",
"{	c #831B12",
"]	c #942521",
"^	c #8C2019",
"/	c #841B12",
"(	c #90231D",
"_	c #962724",
":	c #8B211A",
"<	c #881E16",
"[	c #9E2B2A",
"}	c #9D2B2A",
"|	c #861D14",
"1	c #9A2827",
"2	c #8F231D",
"3	c #9E2A29",
"4	c #8C211A",
"5	c #982724",
"6	c #972724",
"7	c #9E2B2B",
"................................",
"++++++++++++++++++++++++++++++++",
"++++++++++++++++++++++++++++++++",
"++++++++++++++++++++++++++++++++",
"++++++++++++++++++++++++++++++++",
"++++++++++++++++++++++++++++++++",
"++++++++++++++++++++++++++++++++",
"++++++++++++++++++++++++++++++++",
"++++++++++++@#$%%$&*++++++++++++",
"++++++++++=-;%>,,>%'-)++++++++++",
"+++++++++=!;,~++++{,;!)+++++++++",
"+++++++++];^+/(__({+:;#+++++++++",
"++++++++@;,+<[;;;;}<+,'|++++++++",
"++++++++&%~/[;;;;;;}{{%,++++++++",
"++++++++$_+(;;;;;;;;(+_1++++++++",
"++++++++%,+_;;;;;;;;>+,%++++++++",
"++++++++%,+_;;;;;;;;>+,%++++++++",
"++++++++$_+(;;;;;;;;2+_1++++++++",
"++++++++&%{{};;;;;;3{{%,++++++++",
"++++++++*',+<};;;;3<+#'|++++++++",
"+++++++++-;:+{(__2{+4;#+++++++++",
"+++++++++)5;,{++++{#;6=+++++++++",
"++++++++++)#'%_,,6%'#=++++++++++",
"++++++++++++|,1771,|++++++++++++",
"++++++++++++++++++++++++++++++++",
"++++++++++++++++++++++++++++++++",
"++++++++++++++++++++++++++++++++",
"++++++++++++++++++++++++++++++++",
"++++++++++++++++++++++++++++++++",
"++++++++++++++++++++++++++++++++",
"++++++++++++++++++++++++++++++++",
"++++++++++++++++++++++++++++++++"};
