/* XPM */
static char * stick_toggled_prelight_xpm[] = {
"32 32 28 1",
" 	c None",
".	c #8D3027",
"+	c #811A10",
"@	c #861D14",
"#	c #93251D",
"$	c #9A2A24",
"%	c #9E2D27",
"&	c #92251D",
"*	c #811B11",
"=	c #93261E",
"-	c #A02E28",
";	c #9F2E28",
">	c #821B11",
",	c #982821",
"'	c #94261E",
")	c #9C2B24",
"!	c #8B2118",
"~	c #821B12",
"{	c #9B2B25",
"]	c #831B12",
"^	c #9B2A24",
"/	c #8C2118",
"(	c #9E2C26",
"_	c #831B11",
":	c #9C2C25",
"<	c #972821",
"[	c #821A10",
"}	c #93241C",
"................................",
"++++++++++++++++++++++++++++++++",
"++++++++++++++++++++++++++++++++",
"++++++++++++++++++++++++++++++++",
"++++++++++++++++++++++++++++++++",
"++++++++++++++++++++++++++++++++",
"++++++++++++++++++++++++++++++++",
"++++++++++++++++++++++++++++++++",
"++++++++++++@#$%%$&@++++++++++++",
"++++++++++*=-;;;;;;-=>++++++++++",
"+++++++++*,;;;;;;;;;;,>+++++++++",
"+++++++++';;;;;;;;;;;;#+++++++++",
"++++++++@-;;;)!~~!{;;;-@++++++++",
"++++++++&;;;)]++++]);;;&++++++++",
"++++++++^;;;!++++++/;;;^++++++++",
"++++++++(;;;~++++++~;;;(++++++++",
"++++++++(;;;~++++++];;;(++++++++",
"++++++++^;;;!++++++/;;;^++++++++",
"++++++++&;;;{]++++_:;;;&++++++++",
"++++++++@-;;;)/~~/:;;;-@++++++++",
"+++++++++=;;;;;;;;;;;;#+++++++++",
"+++++++++>,;;;;;;;;;;<[+++++++++",
"++++++++++>#-;;;;;;-#[++++++++++",
"++++++++++++@&^((^}@++++++++++++",
"++++++++++++++++++++++++++++++++",
"++++++++++++++++++++++++++++++++",
"++++++++++++++++++++++++++++++++",
"++++++++++++++++++++++++++++++++",
"++++++++++++++++++++++++++++++++",
"++++++++++++++++++++++++++++++++",
"++++++++++++++++++++++++++++++++",
"++++++++++++++++++++++++++++++++"};
