/* XPM */
static char * maximize_toggled_prelight_xpm[] = {
"32 32 45 1",
" 	c None",
".	c #40A599",
"+	c #2B9B8E",
"@	c #33AA9C",
"#	c #47CABA",
"$	c #53E0CF",
"%	c #59EBD9",
"&	c #46C9BA",
"*	c #34A99B",
"=	c #2C9E90",
"-	c #48CCBB",
";	c #5AEDDB",
">	c #5BEEDC",
",	c #5BEDDB",
"'	c #47CBBC",
")	c #2C9D90",
"!	c #4FD9C8",
"~	c #4ED8C8",
"{	c #48CCBC",
"]	c #49CFBF",
"^	c #34AC9E",
"/	c #2B9C8F",
"(	c #4AD0C0",
"_	c #46CBBB",
":	c #3EBCAD",
"<	c #35AD9F",
"[	c #43C5B5",
"}	c #36AD9F",
"|	c #3FBCAE",
"1	c #33A99B",
"2	c #43C4B5",
"3	c #46CABA",
"4	c #53E1CF",
"5	c #36AD9E",
"6	c #35AC9E",
"7	c #52E0CE",
"8	c #59EAD9",
"9	c #58EAD8",
"0	c #2B9D8F",
"a	c #4AD1C0",
"b	c #3EBDAE",
"c	c #33A89B",
"d	c #4ED8C7",
"e	c #2C9D8F",
"f	c #45C9B9",
"................................",
"++++++++++++++++++++++++++++++++",
"++++++++++++++++++++++++++++++++",
"++++++++++++++++++++++++++++++++",
"++++++++++++++++++++++++++++++++",
"++++++++++++++++++++++++++++++++",
"++++++++++++++++++++++++++++++++",
"++++++++++++++++++++++++++++++++",
"++++++++++++@#$%%$&*++++++++++++",
"++++++++++=-;>>>>>>,')++++++++++",
"+++++++++=!>>>>,,>>>>~)+++++++++",
"+++++++++{>>>]^//^(>>>_+++++++++",
"++++++++@;>>:+<[[}+|>>,1++++++++",
"++++++++&>>]+2>>>>[+(>>3++++++++",
"++++++++4>>^<>>>>>>56>>7++++++++",
"++++++++8>,/2>>>>>>[/,>9++++++++",
"++++++++9>,/[>>>>>>20,>9++++++++",
"++++++++4>>^}>>>>>;56>>7++++++++",
"++++++++&>>(+[>>>>2+a>>3++++++++",
"++++++++*,>>|+5[25+b>>,c++++++++",
"+++++++++'>>>(6006a>>>#+++++++++",
"+++++++++)d>>>>,,>>>>de+++++++++",
"++++++++++)_,>>>>>>,#e++++++++++",
"++++++++++++137887fc++++++++++++",
"++++++++++++++++++++++++++++++++",
"++++++++++++++++++++++++++++++++",
"++++++++++++++++++++++++++++++++",
"++++++++++++++++++++++++++++++++",
"++++++++++++++++++++++++++++++++",
"++++++++++++++++++++++++++++++++",
"++++++++++++++++++++++++++++++++",
"++++++++++++++++++++++++++++++++"};
