/* XPM */
static char * stick_toggled_prelight_xpm[] = {
"32 32 35 1",
" 	c None",
".	c #40A599",
"+	c #2B9B8E",
"@	c #33A194",
"#	c #45B0A4",
"$	c #52B9AD",
"%	c #57BDB1",
"&	c #45AFA3",
"*	c #2C9C8E",
"=	c #47B1A4",
"-	c #5ABFB3",
";	c #59BFB3",
">	c #46B0A3",
",	c #2D9C8F",
"'	c #4EB6AA",
")	c #47B1A5",
"!	c #46AFA3",
"~	c #55BBAF",
"{	c #3AA79A",
"]	c #2D9D90",
"^	c #52BAAE",
"/	c #33A195",
"(	c #2E9E91",
"_	c #2E9D90",
":	c #45AEA2",
"<	c #53B9AD",
"[	c #58BDB1",
"}	c #2E9C90",
"|	c #2E9D91",
"1	c #3BA79B",
"2	c #2F9D91",
"3	c #32A195",
"4	c #4DB5A9",
"5	c #2C9C8F",
"6	c #58BDB2",
"................................",
"++++++++++++++++++++++++++++++++",
"++++++++++++++++++++++++++++++++",
"++++++++++++++++++++++++++++++++",
"++++++++++++++++++++++++++++++++",
"++++++++++++++++++++++++++++++++",
"++++++++++++++++++++++++++++++++",
"++++++++++++++++++++++++++++++++",
"++++++++++++@#$%%$&@++++++++++++",
"++++++++++*=-------;>,++++++++++",
"+++++++++*'----------',+++++++++",
"+++++++++)------------!+++++++++",
"++++++++@----~{]]{^---;/++++++++",
"++++++++&---~(++++_~---:++++++++",
"++++++++<---{++++++{---$++++++++",
"++++++++[---]++++++}---[++++++++",
"++++++++[---]++++++|---[++++++++",
"++++++++<---{++++++1---$++++++++",
"++++++++&---^_++++2~---:++++++++",
"++++++++@;---~{}}1~---;3++++++++",
"+++++++++>------------#+++++++++",
"+++++++++,4----------45+++++++++",
"++++++++++,!;------;#5++++++++++",
"++++++++++++/:$66$&3++++++++++++",
"++++++++++++++++++++++++++++++++",
"++++++++++++++++++++++++++++++++",
"++++++++++++++++++++++++++++++++",
"++++++++++++++++++++++++++++++++",
"++++++++++++++++++++++++++++++++",
"++++++++++++++++++++++++++++++++",
"++++++++++++++++++++++++++++++++",
"++++++++++++++++++++++++++++++++"};
