/* XPM */
static char * shade_prelight_xpm[] = {
"32 32 28 1",
" 	c None",
".	c #BA672F",
"+	c #B35618",
"@	c #B85C1E",
"#	c #C4692E",
"$	c #CC7338",
"%	c #D0773D",
"&	c #B45719",
"*	c #C56B2E",
"=	c #D1793D",
"-	c #D1793E",
";	c #D1783D",
">	c #C56A2E",
",	c #CA7035",
"'	c #CA6F34",
")	c #C2682B",
"!	c #C2672B",
"~	c #C16629",
"{	c #C4692D",
"]	c #B45619",
"^	c #CC7337",
"/	c #D0773C",
"(	c #B35718",
"_	c #C76D31",
":	c #C76D32",
"<	c #C3692C",
"[	c #B85B1E",
"}	c #C97034",
"................................",
"++++++++++++++++++++++++++++++++",
"++++++++++++++++++++++++++++++++",
"++++++++++++++++++++++++++++++++",
"++++++++++++++++++++++++++++++++",
"++++++++++++++++++++++++++++++++",
"++++++++++++++++++++++++++++++++",
"++++++++++++++++++++++++++++++++",
"++++++++++++@#$%%$#@++++++++++++",
"++++++++++&*=------;>&++++++++++",
"+++++++++&,----------'&+++++++++",
"+++++++++*------------>+++++++++",
"++++++++@=-----))-----;@++++++++",
"++++++++#-----!++~-----{++++++++",
"++++++++$----)+]]+)----^++++++++",
"++++++++/---!+(_:]+~---/++++++++",
"++++++++/--!+(_--:]+~--/++++++++",
"++++++++$-)+]:----:]+)-^++++++++",
"++++++++#-<(_------:])-{++++++++",
"++++++++@;-$--------$-;[++++++++",
"+++++++++>------------#+++++++++",
"+++++++++&}----------}]+++++++++",
"++++++++++&>;------;#]++++++++++",
"++++++++++++@{^//^{[++++++++++++",
"++++++++++++++++++++++++++++++++",
"++++++++++++++++++++++++++++++++",
"++++++++++++++++++++++++++++++++",
"++++++++++++++++++++++++++++++++",
"++++++++++++++++++++++++++++++++",
"++++++++++++++++++++++++++++++++",
"++++++++++++++++++++++++++++++++",
"++++++++++++++++++++++++++++++++"};
