<?xml version="1.0" encoding="UTF-8" standalone="no"?>
<!-- Created with Inkscape (http://www.inkscape.org/) -->

<svg
   xmlns:dc="http://purl.org/dc/elements/1.1/"
   xmlns:cc="http://creativecommons.org/ns#"
   xmlns:rdf="http://www.w3.org/1999/02/22-rdf-syntax-ns#"
   xmlns:svg="http://www.w3.org/2000/svg"
   xmlns="http://www.w3.org/2000/svg"
   xmlns:sodipodi="http://sodipodi.sourceforge.net/DTD/sodipodi-0.dtd"
   xmlns:inkscape="http://www.inkscape.org/namespaces/inkscape"
   width="32"
   height="32"
   viewBox="0 0 8.4666665 8.4666669"
   version="1.1"
   id="svg76"
   inkscape:version="0.92.4 (5da689c313, 2019-01-14)"
   sodipodi:docname="login.svg">
  <defs
     id="defs70" />
  <sodipodi:namedview
     id="base"
     pagecolor="#1c1c1c"
     bordercolor="#666666"
     borderopacity="1.0"
     inkscape:pageopacity="0.0"
     inkscape:pageshadow="2"
     inkscape:zoom="16.375"
     inkscape:cx="10.259542"
     inkscape:cy="16"
     inkscape:document-units="mm"
     inkscape:current-layer="layer1"
     showgrid="true"
     units="px"
     inkscape:window-width="1366"
     inkscape:window-height="708"
     inkscape:window-x="0"
     inkscape:window-y="0"
     inkscape:window-maximized="1"
     showguides="true"
     inkscape:guide-bbox="true" />
  <metadata
     id="metadata73">
    <rdf:RDF>
      <cc:Work
         rdf:about="">
        <dc:format>image/svg+xml</dc:format>
        <dc:type
           rdf:resource="http://purl.org/dc/dcmitype/StillImage" />
        <dc:title />
      </cc:Work>
    </rdf:RDF>
  </metadata>
  <g
     inkscape:label="Capa 1"
     inkscape:groupmode="layer"
     id="layer1"
     transform="translate(0,-288.53332)">
    <path
       style="fill:#ffffff;fill-opacity:1"
       d="M 16.003906 0.16796875 A 15.858801 15.858801 0 0 0 0.16015625 16.019531 A 15.858801 15.858801 0 0 0 16.011719 31.876953 A 15.858801 15.858801 0 0 0 31.861328 16.019531 A 15.858801 15.858801 0 0 0 16.011719 0.16796875 L 16.003906 0.16796875 z M 16.048828 1.8125 A 14.098535 14.098535 0 0 1 30.15625 15.919922 A 14.098535 14.098535 0 0 1 16.048828 30.019531 A 14.098535 14.098535 0 0 1 1.9433594 15.919922 A 14.098535 14.098535 0 0 1 16.048828 1.8125 z M 13.771484 6.3652344 L 12.068359 8.0683594 L 20 16 L 12.068359 23.931641 L 13.771484 25.632812 L 21.703125 17.703125 L 23.40625 16 L 21.703125 14.296875 L 13.771484 6.3652344 z "
       transform="matrix(0.26458333,0,0,0.26458333,0,288.53332)"
       id="path11" />
  </g>
</svg>
