<?xml version="1.0" encoding="UTF-8" standalone="no"?>
<!-- Created with Inkscape (http://www.inkscape.org/) -->

<svg
   xmlns:dc="http://purl.org/dc/elements/1.1/"
   xmlns:cc="http://creativecommons.org/ns#"
   xmlns:rdf="http://www.w3.org/1999/02/22-rdf-syntax-ns#"
   xmlns:svg="http://www.w3.org/2000/svg"
   xmlns="http://www.w3.org/2000/svg"
   xmlns:sodipodi="http://sodipodi.sourceforge.net/DTD/sodipodi-0.dtd"
   xmlns:inkscape="http://www.inkscape.org/namespaces/inkscape"
   width="32"
   height="32"
   viewBox="0 0 8.4666665 8.4666669"
   version="1.1"
   id="svg76"
   inkscape:version="0.92.4 (5da689c313, 2019-01-14)"
   sodipodi:docname="logout_primary.svg">
  <defs
     id="defs70" />
  <sodipodi:namedview
     id="base"
     pagecolor="#1c1c1c"
     bordercolor="#666666"
     borderopacity="1.0"
     inkscape:pageopacity="0.0"
     inkscape:pageshadow="2"
     inkscape:zoom="16.375"
     inkscape:cx="16"
     inkscape:cy="16"
     inkscape:document-units="mm"
     inkscape:current-layer="layer1"
     showgrid="true"
     units="px"
     inkscape:window-width="1366"
     inkscape:window-height="708"
     inkscape:window-x="0"
     inkscape:window-y="0"
     inkscape:window-maximized="1"
     showguides="true"
     inkscape:guide-bbox="true" />
  <metadata
     id="metadata73">
    <rdf:RDF>
      <cc:Work
         rdf:about="">
        <dc:format>image/svg+xml</dc:format>
        <dc:type
           rdf:resource="http://purl.org/dc/dcmitype/StillImage" />
        <dc:title />
      </cc:Work>
    </rdf:RDF>
  </metadata>
  <g
     inkscape:label="Capa 1"
     inkscape:groupmode="layer"
     id="layer1"
     transform="translate(0,-288.53332)">
    <path
       inkscape:connector-curvature="0"
       class="ColorScheme-Text"
       style="fill:#f9f9f9;stroke-width:0.1995997"
       d="m 8.3959865,292.76665 a 4.1636504,4.1636504 0 0 0 -4.1616561,-4.16166 4.1636504,4.1636504 0 0 0 -4.1636503,4.16166 4.1636504,4.1636504 0 0 0 4.1636503,4.16166 4.1636504,4.1636504 0 0 0 4.1616561,-4.16366 z m -0.6946075,0.0114 a 3.4391036,3.4391036 0 0 1 -3.4410985,3.4411 3.4391036,3.4391036 0 0 1 -3.43910558,-3.4411 3.4391036,3.4391036 0 0 1 3.43910558,-3.44111 3.4391036,3.4391036 0 0 1 3.4410985,3.44111 z m -0.7225507,9.8e-4 a 2.7564733,4.4770232 0 0 0 -0.01197,-0.37523 H 1.4778601 a 2.7564733,4.4770232 0 0 0 -0.00799,0.37924 2.7564733,4.4770232 0 0 0 0.00995,0.36727 h 5.4889946 a 2.7564733,4.4770232 0 0 0 0.00995,-0.36727 z"
       id="path2" />
  </g>
</svg>
