<?xml version="1.0" encoding="UTF-8" standalone="no"?>
<!-- Created with Inkscape (http://www.inkscape.org/) -->

<svg
   xmlns:dc="http://purl.org/dc/elements/1.1/"
   xmlns:cc="http://creativecommons.org/ns#"
   xmlns:rdf="http://www.w3.org/1999/02/22-rdf-syntax-ns#"
   xmlns:svg="http://www.w3.org/2000/svg"
   xmlns="http://www.w3.org/2000/svg"
   xmlns:sodipodi="http://sodipodi.sourceforge.net/DTD/sodipodi-0.dtd"
   xmlns:inkscape="http://www.inkscape.org/namespaces/inkscape"
   width="32"
   height="32"
   viewBox="0 0 8.4666665 8.4666669"
   version="1.1"
   id="svg76"
   inkscape:version="0.92.4 (5da689c313, 2019-01-14)"
   sodipodi:docname="restart_primary.svg">
  <defs
     id="defs70" />
  <sodipodi:namedview
     id="base"
     pagecolor="#1c1c1c"
     bordercolor="#666666"
     borderopacity="1.0"
     inkscape:pageopacity="0.0"
     inkscape:pageshadow="2"
     inkscape:zoom="5.7894368"
     inkscape:cx="16"
     inkscape:cy="16"
     inkscape:document-units="mm"
     inkscape:current-layer="layer1"
     showgrid="true"
     units="px"
     inkscape:window-width="1366"
     inkscape:window-height="708"
     inkscape:window-x="0"
     inkscape:window-y="0"
     inkscape:window-maximized="1"
     showguides="true"
     inkscape:guide-bbox="true" />
  <metadata
     id="metadata73">
    <rdf:RDF>
      <cc:Work
         rdf:about="">
        <dc:format>image/svg+xml</dc:format>
        <dc:type
           rdf:resource="http://purl.org/dc/dcmitype/StillImage" />
        <dc:title></dc:title>
      </cc:Work>
    </rdf:RDF>
  </metadata>
  <g
     inkscape:label="Capa 1"
     inkscape:groupmode="layer"
     id="layer1"
     transform="translate(0,-288.53332)">
    <path
       inkscape:connector-curvature="0"
       class="ColorScheme-Text"
       style="fill:#f9f9f9;fill-opacity:1;stroke-width:0.19966257"
       d="m 4.2403266,288.6076 a 4.1649612,4.1649612 0 0 0 -4.16296497,4.16297 4.1649612,4.1649612 0 0 0 4.16296497,4.16296 4.1649612,4.1649612 0 0 0 4.1629647,-4.16296 4.1649612,4.1649612 0 0 0 -4.1629647,-4.16297 z m 0.01,0.69483 a 3.4401862,3.4401862 0 0 1 3.4421887,3.44218 3.4401862,3.4401862 0 0 1 -3.4421827,3.44019 3.4401862,3.4401862 0 0 1 -3.44218297,-3.44019 3.4401862,3.4401862 0 0 1 3.44218297,-3.44218 z m 0.125787,0.72677 a 2.7673238,2.7673238 0 0 0 -2.052531,0.80663 2.7673238,2.7673238 0 0 0 0,3.91339 2.7673238,2.7673238 0 0 0 3.9133867,0 2.7673238,2.7673238 0 0 0 0.399325,-3.40025 l -0.48518,0.48318 a 2.0864741,2.0864741 0 0 1 -0.379358,2.4279 2.0864741,2.0864741 0 0 1 -2.9510137,0 2.0864741,2.0864741 0 0 1 0,-2.95301 2.0864741,2.0864741 0 0 1 2.3799787,-0.40132 l 0.489176,-0.48918 A 2.7673238,2.7673238 0 0 0 4.3761156,290.0292 Z"
       id="path2-22" />
  </g>
</svg>
