<?xml version="1.0" encoding="UTF-8" standalone="no"?>
<!-- Created with Inkscape (http://www.inkscape.org/) -->

<svg
   xmlns:dc="http://purl.org/dc/elements/1.1/"
   xmlns:cc="http://creativecommons.org/ns#"
   xmlns:rdf="http://www.w3.org/1999/02/22-rdf-syntax-ns#"
   xmlns:svg="http://www.w3.org/2000/svg"
   xmlns="http://www.w3.org/2000/svg"
   xmlns:sodipodi="http://sodipodi.sourceforge.net/DTD/sodipodi-0.dtd"
   xmlns:inkscape="http://www.inkscape.org/namespaces/inkscape"
   width="32"
   height="32"
   viewBox="0 0 8.4666665 8.4666669"
   version="1.1"
   id="svg76"
   inkscape:version="0.92.4 (5da689c313, 2019-01-14)"
   sodipodi:docname="shutdown_primary.svg">
  <defs
     id="defs70" />
  <sodipodi:namedview
     id="base"
     pagecolor="#1c1c1c"
     bordercolor="#666666"
     borderopacity="1.0"
     inkscape:pageopacity="0.0"
     inkscape:pageshadow="2"
     inkscape:zoom="16.375"
     inkscape:cx="5.8625954"
     inkscape:cy="16"
     inkscape:document-units="mm"
     inkscape:current-layer="layer1"
     showgrid="true"
     units="px"
     inkscape:window-width="1366"
     inkscape:window-height="708"
     inkscape:window-x="0"
     inkscape:window-y="0"
     inkscape:window-maximized="1"
     showguides="true"
     inkscape:guide-bbox="true" />
  <metadata
     id="metadata73">
    <rdf:RDF>
      <cc:Work
         rdf:about="">
        <dc:format>image/svg+xml</dc:format>
        <dc:type
           rdf:resource="http://purl.org/dc/dcmitype/StillImage" />
        <dc:title />
      </cc:Work>
    </rdf:RDF>
  </metadata>
  <g
     inkscape:label="Capa 1"
     inkscape:groupmode="layer"
     id="layer1"
     transform="translate(0,-288.53332)">
    <path
       inkscape:connector-curvature="0"
       class="ColorScheme-Text"
       style="fill:#f9f9f9;stroke-width:0.20037454"
       d="m 4.2355774,288.5872 a 4.1798135,4.1798135 0 0 0 -4.1778103,4.1778 4.1798135,4.1798135 0 0 0 4.1778103,4.17979 4.1798135,4.1798135 0 0 0 4.177811,-4.17979 4.1798135,4.1798135 0 0 0 -4.1798135,-4.1778 z m 0.00998,0.6973 a 3.4524541,3.4524541 0 0 1 3.4544569,3.45445 3.4524541,3.4524541 0 0 1 -3.4544569,3.45245 3.4524541,3.4524541 0 0 1 -3.45445855,-3.45245 3.4524541,3.4524541 0 0 1 3.45445855,-3.45445 z m 0.00201,0.72533 a 4.4944028,2.7671738 0 0 0 -0.376703,0.0125 v 5.51031 a 4.4944028,2.7671738 0 0 0 0.3807238,0.01 4.4944028,2.7671738 0 0 0 0.3686883,-0.0115 v -5.51032 a 4.4944028,2.7671738 0 0 0 -0.3686883,-0.0113 z"
       id="path2-5" />
  </g>
</svg>
