<?xml version="1.0" encoding="UTF-8" standalone="no"?>
<!-- Created with Inkscape (http://www.inkscape.org/) -->

<svg
   xmlns:dc="http://purl.org/dc/elements/1.1/"
   xmlns:cc="http://creativecommons.org/ns#"
   xmlns:rdf="http://www.w3.org/1999/02/22-rdf-syntax-ns#"
   xmlns:svg="http://www.w3.org/2000/svg"
   xmlns="http://www.w3.org/2000/svg"
   xmlns:sodipodi="http://sodipodi.sourceforge.net/DTD/sodipodi-0.dtd"
   xmlns:inkscape="http://www.inkscape.org/namespaces/inkscape"
   width="32"
   height="32"
   viewBox="0 0 8.4666665 8.4666669"
   version="1.1"
   id="svg76"
   inkscape:version="0.92.4 (5da689c313, 2019-01-14)"
   sodipodi:docname="switch_primary.svg">
  <defs
     id="defs70" />
  <sodipodi:namedview
     id="base"
     pagecolor="#1c1c1c"
     bordercolor="#666666"
     borderopacity="1.0"
     inkscape:pageopacity="0.0"
     inkscape:pageshadow="2"
     inkscape:zoom="4.09375"
     inkscape:cx="16"
     inkscape:cy="16"
     inkscape:document-units="mm"
     inkscape:current-layer="layer1"
     showgrid="true"
     units="px"
     inkscape:window-width="1366"
     inkscape:window-height="708"
     inkscape:window-x="0"
     inkscape:window-y="0"
     inkscape:window-maximized="1"
     showguides="true"
     inkscape:guide-bbox="true" />
  <metadata
     id="metadata73">
    <rdf:RDF>
      <cc:Work
         rdf:about="">
        <dc:format>image/svg+xml</dc:format>
        <dc:type
           rdf:resource="http://purl.org/dc/dcmitype/StillImage" />
        <dc:title></dc:title>
      </cc:Work>
    </rdf:RDF>
  </metadata>
  <g
     inkscape:label="Capa 1"
     inkscape:groupmode="layer"
     id="layer1"
     transform="translate(0,-288.53332)">
    <path
       inkscape:connector-curvature="0"
       class="ColorScheme-Text"
       style="fill:#f9f9f9;stroke-width:0.19966257"
       d="m 4.2303936,288.61266 a 4.1649612,4.1649612 0 0 0 -4.16296497,4.16296 4.1649612,4.1649612 0 0 0 4.16296497,4.16297 4.1649612,4.1649612 0 0 0 4.1629647,-4.16297 4.1649612,4.1649612 0 0 0 -4.1629647,-4.16296 z m 0.01,0.69482 a 3.4401862,3.4401862 0 0 1 3.4421867,3.44219 3.4401862,3.4401862 0 0 1 -3.4421807,3.44018 3.4401862,3.4401862 0 0 1 -3.44218397,-3.44018 3.4401862,3.4401862 0 0 1 3.44218397,-3.44219 z m -0.05191,0.70481 a 2.7673238,2.7673238 0 0 0 -1.229921,0.31148 l 0.495163,0.49516 a 2.0864741,2.0864741 0 0 1 2.2462037,0.46521 2.0864741,2.0864741 0 0 1 0.459224,2.24221 l 0.527109,0.52511 a 2.7673238,2.7673238 0 0 0 -0.499154,-3.23253 2.7673238,2.7673238 0 0 0 -1.9966247,-0.80664 z m -2.391958,1.45554 a 2.7673238,2.7673238 0 0 0 0.47919,3.26648 2.7673238,2.7673238 0 0 0 3.2664797,0.47919 l -0.523114,-0.52311 a 2.0864741,2.0864741 0 0 1 -2.2721567,-0.45324 2.0864741,2.0864741 0 0 1 -0.451238,-2.27216 l -0.499156,-0.49916 z"
       id="path2-27" />
  </g>
</svg>
