/* XPM */
static char * menu_active_xpm[] = {
"32 32 24 1",
" 	c None",
".	c #FFFFFF",
"+	c #E4E4E4",
"@	c #A8A8A8",
"#	c #808080",
"$	c #6D6D6D",
"%	c #A9A9A9",
"&	c #E5E5E5",
"*	c #FBFBFB",
"=	c #A5A5A5",
"-	c #676767",
";	c #666666",
">	c #686868",
",	c #A6A6A6",
"'	c #8D8D8D",
")	c #8E8E8E",
"!	c #A4A4A4",
"~	c #A7A7A7",
"{	c #AAAAAA",
"]	c #7F7F7F",
"^	c #6E6E6E",
"/	c #E6E6E6",
"(	c #8F8F8F",
"_	c #FCFCFC",
"................................",
"................................",
"................................",
"................................",
"................................",
"................................",
"................................",
"................................",
"............+@#$$#%&............",
"..........*=-;;;;;;>,*..........",
".........*';;;;;;;;;;)*.........",
".........!;;;;;;;;;;;;~.........",
"........+-;;;;;;;;;;;;>&........",
"........@;;;;;;;;;;;;;;{........",
"........];;;;;;;;;;;;;;#........",
"........$;;;;;;;;;;;;;;^........",
"........^;;;;;;;;;;;;;;^........",
"........];;;;;;;;;;;;;;#........",
"........%;;;;;;;;;;;;;;{........",
"........&>;;;;;;;;;;;;>/........",
".........,;;;;;;;;;;;;@.........",
".........*);;;;;;;;;;(_.........",
"..........*~>;;;;;;>@_..........",
"............&{#$$#{/............",
"................................",
"................................",
"................................",
"................................",
"................................",
"................................",
"................................",
"................................"};
