<?xml version="1.0" encoding="UTF-8" standalone="no"?>
<svg
   xmlns:dc="http://purl.org/dc/elements/1.1/"
   xmlns:cc="http://creativecommons.org/ns#"
   xmlns:rdf="http://www.w3.org/1999/02/22-rdf-syntax-ns#"
   xmlns:svg="http://www.w3.org/2000/svg"
   xmlns="http://www.w3.org/2000/svg"
   xmlns:sodipodi="http://sodipodi.sourceforge.net/DTD/sodipodi-0.dtd"
   xmlns:inkscape="http://www.inkscape.org/namespaces/inkscape"
   id="svg4306"
   width="22"
   height="22"
   version="1.1"
   style="enable-background:new"
   sodipodi:docname="maximize.svg"
   inkscape:version="0.92.4 (5da689c313, 2019-01-14)">
  <metadata
     id="metadata24">
    <rdf:RDF>
      <cc:Work
         rdf:about="">
        <dc:format>image/svg+xml</dc:format>
        <dc:type
           rdf:resource="http://purl.org/dc/dcmitype/StillImage" />
        <dc:title />
      </cc:Work>
    </rdf:RDF>
  </metadata>
  <defs
     id="defs22" />
  <sodipodi:namedview
     pagecolor="#ffffff"
     bordercolor="#666666"
     borderopacity="1"
     objecttolerance="10"
     gridtolerance="10"
     guidetolerance="10"
     inkscape:pageopacity="0"
     inkscape:pageshadow="2"
     inkscape:window-width="1366"
     inkscape:window-height="707"
     id="namedview20"
     showgrid="true"
     inkscape:zoom="5.9204546"
     inkscape:cx="-6.8195777"
     inkscape:cy="11"
     inkscape:window-x="0"
     inkscape:window-y="0"
     inkscape:window-maximized="1"
     inkscape:current-layer="svg4306"
     showguides="true"
     inkscape:guide-bbox="true">
    <inkscape:grid
       type="xygrid"
       id="grid945" />
    <sodipodi:guide
       position="22,18"
       orientation="0,1"
       id="guide829"
       inkscape:locked="false" />
    <sodipodi:guide
       position="3,18"
       orientation="1,0"
       id="guide831"
       inkscape:locked="false" />
    <sodipodi:guide
       position="3,4"
       orientation="0,1"
       id="guide833"
       inkscape:locked="false" />
    <sodipodi:guide
       position="19,18"
       orientation="1,0"
       id="guide835"
       inkscape:locked="false" />
  </sodipodi:namedview>
  <g
     id="hover-center"
     transform="translate(-22,22)"
     style="fill:#ebebeb;fill-opacity:1">
    <path
       inkscape:connector-curvature="0"
       id="path851"
       d="m 33,-21.957031 c -6.05171,0 -10.957031,4.905455 -10.957031,10.957031 0,6.051809 4.905321,10.957031 10.957031,10.957031 6.051736,0 10.957031,-4.905222 10.957031,-10.957031 0,-6.051576 -4.905295,-10.957031 -10.957031,-10.957031 z m 0,4 c 3.842476,0 6.957031,3.114658 6.957031,6.957031 0,3.842521 -3.114555,6.957031 -6.957031,6.957031 -3.842459,0 -6.957031,-3.11451 -6.957031,-6.957031 0,-3.842373 3.114572,-6.957031 6.957031,-6.957031 z m 0,2 c -2.737833,0 -4.957031,2.219259 -4.957031,4.957031 0,2.737877 2.219198,4.957031 4.957031,4.957031 2.737845,0 4.957031,-2.219154 4.957031,-4.957031 0,-2.737772 -2.219186,-4.957031 -4.957031,-4.957031 z"
       style="fill:#ebebeb;fill-opacity:1;fill-rule:evenodd;stroke:none;stroke-width:0.02563604;enable-background:new" />
  </g>
  <g
     id="active-center"
     transform="translate(-22)">
    <path
       id="path916"
       d="M 11,0.042969 C 4.94829,0.042969 0.042969,4.948424 0.042969,11 0.042969,17.051809 4.94829,21.957031 11,21.957031 17.051736,21.957031 21.957031,17.051809 21.957031,11 21.957031,4.948424 17.051736,0.042969 11,0.042969 Z"
       style="opacity:0;fill:#2c89a0;fill-opacity:0;fill-rule:evenodd;stroke:none;stroke-width:0.02563604;enable-background:new"
       inkscape:connector-curvature="0" />
    <path
       inkscape:connector-curvature="0"
       id="path914"
       d="M 11,4.0429688 C 7.157541,4.0429687 4.0429688,7.157627 4.0429688,11 4.0429687,14.842521 7.157541,17.957031 11,17.957031 c 3.842476,0 6.957031,-3.11451 6.957031,-6.957031 0,-3.842373 -3.114555,-6.9570312 -6.957031,-6.9570312 z m 0,2 c 2.737845,0 4.957031,2.2192592 4.957031,4.9570312 0,2.737877 -2.219186,4.957031 -4.957031,4.957031 C 8.262167,15.957031 6.0429688,13.737877 6.0429688,11 6.0429687,8.262228 8.262167,6.0429688 11,6.0429688 Z"
       style="fill:#ebebeb;fill-opacity:1;fill-rule:evenodd;stroke:none;stroke-width:0.02563604;enable-background:new" />
  </g>
  <g
     style="fill:#ebebeb;fill-opacity:1;enable-background:new"
     id="pressed-center"
     transform="translate(22)">
    <path
       id="path916-2"
       d="M 11,0.042969 C 4.94829,0.042969 0.042969,4.948424 0.042969,11 0.042969,17.051809 4.94829,21.957031 11,21.957031 17.051736,21.957031 21.957031,17.051809 21.957031,11 21.957031,4.948424 17.051736,0.042969 11,0.042969 Z"
       style="opacity:0;fill:#ebebeb;fill-opacity:1;fill-rule:evenodd;stroke:none;stroke-width:0.02563604;enable-background:new"
       inkscape:connector-curvature="0" />
    <path
       inkscape:connector-curvature="0"
       id="path914-9"
       d="M 11,4.0429688 C 7.157541,4.0429687 4.0429688,7.157627 4.0429688,11 4.0429687,14.842521 7.157541,17.957031 11,17.957031 c 3.842476,0 6.957031,-3.11451 6.957031,-6.957031 0,-3.842373 -3.114555,-6.9570312 -6.957031,-6.9570312 z m 0,2 c 2.737845,0 4.957031,2.2192592 4.957031,4.9570312 0,2.737877 -2.219186,4.957031 -4.957031,4.957031 C 8.262167,15.957031 6.0429688,13.737877 6.0429688,11 6.0429687,8.262228 8.262167,6.0429688 11,6.0429688 Z"
       style="fill:#ebebeb;fill-opacity:1;fill-rule:evenodd;stroke:none;stroke-width:0.02563604;enable-background:new" />
  </g>
  <g
     style="fill:#808080;fill-opacity:1;enable-background:new"
     id="deactivated-center"
     transform="translate(66,-0.042969)">
    <path
       id="path916-2-2"
       d="M 11,0.042969 C 4.94829,0.042969 0.042969,4.948424 0.042969,11 0.042969,17.051809 4.94829,21.957031 11,21.957031 17.051736,21.957031 21.957031,17.051809 21.957031,11 21.957031,4.948424 17.051736,0.042969 11,0.042969 Z"
       style="opacity:0;fill:#808080;fill-opacity:1;fill-rule:evenodd;stroke:none;stroke-width:0.02563604;enable-background:new"
       inkscape:connector-curvature="0" />
    <path
       inkscape:connector-curvature="0"
       id="path914-9-7"
       d="M 11,4.0429688 C 7.157541,4.0429687 4.0429688,7.157627 4.0429688,11 4.0429687,14.842521 7.157541,17.957031 11,17.957031 c 3.842476,0 6.957031,-3.11451 6.957031,-6.957031 0,-3.842373 -3.114555,-6.9570312 -6.957031,-6.9570312 z m 0,2 c 2.737845,0 4.957031,2.2192592 4.957031,4.9570312 0,2.737877 -2.219186,4.957031 -4.957031,4.957031 C 8.262167,15.957031 6.0429688,13.737877 6.0429688,11 6.0429687,8.262228 8.262167,6.0429688 11,6.0429688 Z"
       style="fill:#808080;fill-opacity:1;fill-rule:evenodd;stroke:none;stroke-width:0.02563604;enable-background:new" />
  </g>
  <g
     style="fill:#808080;fill-opacity:1;enable-background:new"
     id="inactive-center"
     transform="translate(44.017274)">
    <path
       id="path916-2-2-9"
       d="M 11,0.042969 C 4.94829,0.042969 0.042969,4.948424 0.042969,11 0.042969,17.051809 4.94829,21.957031 11,21.957031 17.051736,21.957031 21.957031,17.051809 21.957031,11 21.957031,4.948424 17.051736,0.042969 11,0.042969 Z"
       style="opacity:0;fill:#808080;fill-opacity:1;fill-rule:evenodd;stroke:none;stroke-width:0.02563604;enable-background:new"
       inkscape:connector-curvature="0" />
    <path
       inkscape:connector-curvature="0"
       id="path914-9-7-3"
       d="M 11,4.0429688 C 7.157541,4.0429687 4.0429688,7.157627 4.0429688,11 4.0429687,14.842521 7.157541,17.957031 11,17.957031 c 3.842476,0 6.957031,-3.11451 6.957031,-6.957031 0,-3.842373 -3.114555,-6.9570312 -6.957031,-6.9570312 z m 0,2 c 2.737845,0 4.957031,2.2192592 4.957031,4.9570312 0,2.737877 -2.219186,4.957031 -4.957031,4.957031 C 8.262167,15.957031 6.0429688,13.737877 6.0429688,11 6.0429687,8.262228 8.262167,6.0429688 11,6.0429688 Z"
       style="fill:#808080;fill-opacity:1;fill-rule:evenodd;stroke:none;stroke-width:0.02563604;enable-background:new" />
  </g>
</svg>
