/* XPM */
static char * stick_toggled_prelight_xpm[] = {
"32 32 31 1",
" 	c None",
".	c #2F794E",
"+	c #186A3B",
"@	c #1B713C",
"#	c #24813F",
"$	c #298B40",
"%	c #2C9041",
"&	c #24803F",
"*	c #196B3B",
"=	c #2C9242",
"-	c #2C9241",
";	c #196B3C",
">	c #27873F",
",	c #24823F",
"'	c #23813E",
")	c #2A8E40",
"!	c #1F773D",
"~	c #1A6C3C",
"{	c #1F773E",
"]	c #2A8C41",
"^	c #196D3B",
"/	c #298C40",
"(	c #1F783D",
"_	c #298B41",
":	c #2B9041",
"<	c #196C3C",
"[	c #196D3C",
"}	c #2A8D41",
"|	c #278840",
"1	c #278740",
"2	c #186B3B",
"................................",
"++++++++++++++++++++++++++++++++",
"++++++++++++++++++++++++++++++++",
"++++++++++++++++++++++++++++++++",
"++++++++++++++++++++++++++++++++",
"++++++++++++++++++++++++++++++++",
"++++++++++++++++++++++++++++++++",
"++++++++++++++++++++++++++++++++",
"++++++++++++@#$%%$&@++++++++++++",
"++++++++++*#=------=#;++++++++++",
"+++++++++*>---------->;+++++++++",
"+++++++++,------------'+++++++++",
"++++++++@=---)!~~{]---=@++++++++",
"++++++++&---)^++++^)---&++++++++",
"++++++++/---!++++++(---_++++++++",
"++++++++:---~++++++<---:++++++++",
"++++++++:---~++++++[---:++++++++",
"++++++++/---{++++++(---_++++++++",
"++++++++&---]^++++^}---&++++++++",
"++++++++@=---)(<<(}---=@++++++++",
"+++++++++#------------#+++++++++",
"+++++++++;|----------12+++++++++",
"++++++++++;'=------=#2++++++++++",
"++++++++++++@&_::_'@++++++++++++",
"++++++++++++++++++++++++++++++++",
"++++++++++++++++++++++++++++++++",
"++++++++++++++++++++++++++++++++",
"++++++++++++++++++++++++++++++++",
"++++++++++++++++++++++++++++++++",
"++++++++++++++++++++++++++++++++",
"++++++++++++++++++++++++++++++++",
"++++++++++++++++++++++++++++++++"};
