<?xml version="1.0" encoding="UTF-8" standalone="no"?>
<!-- Created with Inkscape (http://www.inkscape.org/) -->

<svg
   xmlns:dc="http://purl.org/dc/elements/1.1/"
   xmlns:cc="http://creativecommons.org/ns#"
   xmlns:rdf="http://www.w3.org/1999/02/22-rdf-syntax-ns#"
   xmlns:svg="http://www.w3.org/2000/svg"
   xmlns="http://www.w3.org/2000/svg"
   xmlns:sodipodi="http://sodipodi.sourceforge.net/DTD/sodipodi-0.dtd"
   xmlns:inkscape="http://www.inkscape.org/namespaces/inkscape"
   width="32"
   height="32"
   id="svg3869"
   version="1.1"
   inkscape:version="0.92.4 (5da689c313, 2019-01-14)"
   sodipodi:docname="device.svg"
   viewBox="0 0 32 32">
  <defs
     id="defs3871">
    <style
       type="text/css"
       id="current-color-scheme">
      .ColorScheme-Text {
        color:#00ff00;
      }
      .ColorScheme-Background {
        color:#ff0000;
      }
      .ColorScheme-Highlight {
        color:#0000ff;
      }
      .ColorScheme-ButtonHover {
        color:#ffff00;
      }
      .ColorScheme-ButtonFocus{
        color:#ff00ff;
      }
      .ColorScheme-NegativeText {
        color:#00ffff;
      }
  </style>
  </defs>
  <sodipodi:namedview
     id="base"
     pagecolor="#ffffff"
     bordercolor="#666666"
     borderopacity="1.0"
     inkscape:pageopacity="0.0"
     inkscape:pageshadow="2"
     inkscape:zoom="5.6829279"
     inkscape:cx="40.999992"
     inkscape:cy="16.000005"
     inkscape:document-units="px"
     inkscape:current-layer="layer1"
     showgrid="true"
     fit-margin-top="0"
     fit-margin-left="0"
     fit-margin-right="0"
     fit-margin-bottom="0"
     inkscape:window-width="1366"
     inkscape:window-height="704"
     inkscape:window-x="0"
     inkscape:window-y="0"
     inkscape:window-maximized="1"
     inkscape:showpageshadow="false"
     showguides="true"
     inkscape:guide-bbox="true" />
  <metadata
     id="metadata3874">
    <rdf:RDF>
      <cc:Work
         rdf:about="">
        <dc:format>image/svg+xml</dc:format>
        <dc:type
           rdf:resource="http://purl.org/dc/dcmitype/StillImage" />
        <dc:title></dc:title>
      </cc:Work>
    </rdf:RDF>
  </metadata>
  <g
     inkscape:label="Capa 1"
     inkscape:groupmode="layer"
     id="layer1"
     transform="translate(-321,-529.36218)">
    <g
       id="22-22-device-notifier">
      <rect
         y="534.36218"
         x="358"
         height="21.999985"
         width="21.999985"
         id="rect4157"
         style="opacity:0.2;fill:none;fill-opacity:1;stroke:none" />
      <path
         id="path2"
         d="m 376.27483,537.64136 a 0.38005953,0.38005953 0 0 0 -0.10974,0.0254 l -2.67731,0.88679 a 0.39695108,0.39695108 0 0 0 -0.15204,0.65877 l 0.38854,0.3885 -6.37656,6.36811 a 0.62498681,0.62498681 0 0 0 -0.0678,0.0678 l -0.0171,0.017 -0.0171,0.0171 -0.43075,0.43922 0.12672,-2.58446 0.97125,-0.97967 a 1.6553706,1.6553706 0 1 0 -1.005,-1.01349 l -1.18239,1.18241 a 0.70944449,0.70944449 0 0 0 -0.20275,0.46448 l -0.21117,4.42559 -0.71789,0.71789 a 2.2803573,2.2803573 0 0 0 -2.6604,0.42231 2.2719114,2.2719114 0 0 0 0,3.24317 2.2803573,2.2803573 0 0 0 3.24319,0 2.2803573,2.2803573 0 0 0 0.42229,-2.6604 l 0.84454,-0.84461 a 0.70099872,0.70099872 0 0 0 0.12671,-0.12668 l 1.5371,-1.53713 4.41714,-0.21114 a 0.70944449,0.70944449 0 0 0 0.47299,-0.20267 l 1.28377,-1.28377 0.2787,0.27025 a 0.39695108,0.39695108 0 0 0 0.55741,0 l 1.57094,-1.55401 a 0.39695108,0.39695108 0 0 0 0,-0.55743 l -1.57936,-1.57091 a 0.38850529,0.38850529 0 0 0 -0.55744,0 l -1.57093,1.56248 a 0.39695108,0.39695108 0 0 0 0,0.55743 l 0.27876,0.27869 -1.09797,1.09795 -2.56753,0.11824 5.11814,-5.12656 0.38848,0.39699 a 0.39695108,0.39695108 0 0 0 0.65879,-0.15206 l 0.89525,-2.68574 a 0.39695108,0.39695108 0 0 0 -0.2787,-0.50674 0.37161379,0.37161379 0 0 0 -0.10975,0 z"
         style="fill:currentColor;stroke-width:0.69255286"
         class="ColorScheme-Text"
         inkscape:connector-curvature="0" />
    </g>
    <g
       id="device-notifier">
      <rect
         y="529.36218"
         x="321"
         height="31.999985"
         width="31.999985"
         id="rect4151"
         style="opacity:0.2;fill:none;fill-opacity:1;stroke:none" />
      <path
         id="path2-3"
         d="m 336.97732,531.32809 a 14.080919,14.080919 0 0 0 -14.08093,14.08088 14.080919,14.080919 0 0 0 14.08093,14.07647 14.080919,14.080919 0 0 0 14.08093,-14.0787 14.080919,14.080919 0 0 0 -14.08093,-14.08088 z m -0.0403,2.09531 a 12.104223,12.104223 0 0 1 12.10422,12.10425 12.104223,12.104223 0 0 1 -12.10422,12.10424 12.104223,12.104223 0 0 1 -12.10199,-12.10424 12.104223,12.104223 0 0 1 12.10199,-12.102 z m 7.89338,4.19521 a 0.41190613,0.41190613 0 0 0 -0.11641,0.0223 l -2.90349,0.96481 a 0.42533783,0.42533783 0 0 0 -0.16564,0.70964 l 0.42311,0.42087 -6.89943,6.89945 a 0.67606332,0.67606332 0 0 0 -0.0829,0.076 l -0.009,0.008 c -0.007,0.007 -0.0132,0.0204 -0.0223,0.0269 l -0.4679,0.46791 0.13433,-2.7938 1.06113,-1.06113 a 1.7931346,1.7931346 0 1 0 -1.08799,-1.08799 l -1.27156,1.27156 a 0.76784675,0.76784675 0 0 0 -0.22381,0.50816 l -0.22835,4.7817 -0.78355,0.78351 a 2.4691979,2.4691979 0 0 0 -2.87438,0.45668 c -0.47008,0.46787 -0.72756,1.09019 -0.72756,1.75283 0,0.66265 0.25971,1.285 0.72756,1.75285 a 2.4669599,2.4669599 0 0 0 3.50569,0 c 0.7701,-0.77229 0.94021,-1.92968 0.45669,-2.87439 l 0.91782,-0.92006 a 0.76113085,0.76113085 0 0 0 0.13432,-0.13434 l 1.66556,-1.66328 4.77716,-0.23061 a 0.76784675,0.76784675 0 0 0 0.51265,-0.22382 l 1.38797,-1.38795 0.30444,0.29997 a 0.42533783,0.42533783 0 0 0 0.60444,0 l 1.69465,-1.6924 a 0.42533783,0.42533783 0 0 0 0,-0.60445 l -1.69689,-1.69236 a 0.42309926,0.42309926 0 0 0 -0.60445,0 l -1.69016,1.69236 a 0.42757647,0.42757647 0 0 0 0,0.60445 l 0.3022,0.30222 -1.17971,1.1775 -2.79155,0.13434 5.5428,-5.54508 0.42087,0.42532 a 0.42757647,0.42757647 0 0 0 0.70962,-0.16787 l 0.9671,-2.90125 a 0.42533783,0.42533783 0 0 0 -0.30668,-0.55071 v 0.004 a 0.3984744,0.3984744 0 0 0 -0.11641,-0.0113 z"
         style="fill:currentColor;stroke-width:2.23862004"
         class="ColorScheme-Text"
         inkscape:connector-curvature="0" />
    </g>
    <g
       id="16-16-device-notifier">
      <rect
         style="opacity:0.2;fill:none;fill-opacity:1;stroke:none"
         id="rect4182"
         width="15.999985"
         height="15.999985"
         x="387"
         y="537.36218" />
      <path
         id="path2-6"
         d="m 400.59462,539.39133 a 0.29432622,0.29432622 0 0 0 -0.0849,0.0195 l -2.07336,0.68675 a 0.30740738,0.30740738 0 0 0 -0.11772,0.51017 l 0.30087,0.30086 -4.93814,4.93161 a 0.48400311,0.48400311 0 0 0 -0.0524,0.0524 l -0.0131,0.0132 -0.0131,0.013 -0.33356,0.34012 0.0981,-2.00145 0.75218,-0.75869 a 1.2819542,1.2819542 0 1 0 -0.77833,-0.78486 l -0.91567,0.91568 a 0.54940895,0.54940895 0 0 0 -0.15698,0.35972 l -0.16353,3.42728 -0.55596,0.55593 a 1.7659573,1.7659573 0 0 0 -2.06028,0.32704 1.7594167,1.7594167 0 0 0 0,2.51158 1.7659573,1.7659573 0 0 0 2.51159,0 1.7659573,1.7659573 0 0 0 0.32703,-2.06028 l 0.65404,-0.65407 a 0.54286836,0.54286836 0 0 0 0.0981,-0.0981 l 1.19035,-1.19041 3.42072,-0.16351 a 0.54940895,0.54940895 0 0 0 0.3663,-0.15696 l 0.99416,-0.99417 0.21584,0.20929 a 0.30740738,0.30740738 0 0 0 0.43168,0 l 1.21656,-1.20347 a 0.30740738,0.30740738 0 0 0 0,-0.43168 l -1.22308,-1.21653 a 0.3008668,0.3008668 0 0 0 -0.43171,0 l -1.21654,1.20998 a 0.30740738,0.30740738 0 0 0 0,0.43171 l 0.21585,0.21582 -0.85029,0.85027 -1.98832,0.0917 3.96357,-3.97013 0.30087,0.30743 a 0.30740738,0.30740738 0 0 0 0.51017,-0.11775 l 0.69331,-2.0799 a 0.30740738,0.30740738 0 0 0 -0.21584,-0.39244 0.28778564,0.28778564 0 0 0 -0.0849,0 z"
         style="fill:currentColor;stroke-width:0.53632778"
         class="ColorScheme-Text"
         inkscape:connector-curvature="0" />
    </g>
    <path
       style="font-style:normal;font-variant:normal;font-weight:normal;font-stretch:normal;font-size:16px;line-height:1.25;font-family:'Abyssinica SIL';-inkscape-font-specification:'Abyssinica SIL';letter-spacing:0px;word-spacing:0px;fill:#ffffff;fill-opacity:1;stroke:none;stroke-width:0.41620618"
       d="m 352.94692,505.90525 c -0.0522,0 -0.10131,0.0117 -0.14746,0.0351 -0.0461,0.0211 -0.0873,0.0515 -0.12338,0.0913 -0.0341,0.0398 -0.0612,0.0867 -0.0813,0.14054 -0.0201,0.0539 -0.0301,0.11125 -0.0301,0.17215 0,0.0609 0.01,0.11946 0.0301,0.17567 0.0201,0.0539 0.0471,0.10072 0.0813,0.14054 0.0361,0.0398 0.0772,0.0714 0.12338,0.0949 0.0462,0.0234 0.0953,0.0351 0.14746,0.0351 0.0522,0 0.10132,-0.0117 0.14746,-0.0351 0.0461,-0.0234 0.0863,-0.055 0.12037,-0.0949 0.0341,-0.0398 0.0602,-0.0867 0.0783,-0.14054 0.0201,-0.0562 0.0301,-0.11477 0.0301,-0.17567 0,-0.0609 -0.01,-0.11828 -0.0301,-0.17215 -0.0181,-0.0539 -0.0441,-0.10072 -0.0783,-0.14054 -0.0341,-0.0398 -0.0742,-0.0703 -0.12037,-0.0913 -0.0461,-0.0234 -0.0953,-0.0351 -0.14746,-0.0351 z m 12.7265,0.52701 c -0.21065,0 -0.40526,0.0422 -0.58381,0.12648 -0.17655,0.0843 -0.32902,0.22017 -0.45742,0.40755 -0.12639,0.18738 -0.2257,0.43332 -0.29792,0.73781 -0.0722,0.30215 -0.10834,0.67106 -0.10834,1.10672 0,0.438 0.0371,0.79871 0.11135,1.08212 0.0742,0.28107 0.17353,0.50359 0.29792,0.66754 0.12439,0.16396 0.26783,0.27873 0.43034,0.34432 0.1625,0.0632 0.33203,0.0949 0.50857,0.0949 0.17655,0 0.34808,-0.0304 0.5146,-0.0913 0.16852,-0.0609 0.31699,-0.15459 0.44538,-0.28107 0.1284,-0.12648 0.23172,-0.28693 0.30997,-0.48133 0.0782,-0.19441 0.11736,-0.42512 0.11736,-0.69214 0,-0.17801 -0.0181,-0.33729 -0.0542,-0.47782 -0.0341,-0.14054 -0.0812,-0.26351 -0.14144,-0.36891 -0.0582,-0.10774 -0.12739,-0.19792 -0.20764,-0.27053 -0.0782,-0.075 -0.1615,-0.13585 -0.24978,-0.18269 -0.0883,-0.0469 -0.17855,-0.0808 -0.27084,-0.10189 -0.0923,-0.0211 -0.18056,-0.0316 -0.26482,-0.0316 -0.11034,0 -0.21166,0.0117 -0.30394,0.0351 -0.0923,0.0234 -0.17555,0.055 -0.24978,0.0949 -0.0742,0.0375 -0.13943,0.082 -0.19561,0.13351 -0.0562,0.0515 -0.10432,0.1054 -0.14444,0.16162 0.0301,-0.32323 0.0672,-0.58557 0.11134,-0.787 0.0462,-0.20144 0.10132,-0.35837 0.16552,-0.4708 0.0642,-0.11242 0.13943,-0.18855 0.2257,-0.22837 0.0863,-0.0398 0.18357,-0.0597 0.2919,-0.0597 0.0943,0 0.17254,0.0187 0.23473,0.0562 0.0622,0.0375 0.11235,0.0855 0.15047,0.14405 0.0381,0.0562 0.0642,0.12063 0.0782,0.19324 0.0161,0.0703 0.0241,0.13819 0.0241,0.20377 h 0.65302 c 0,-0.1499 -0.0271,-0.28927 -0.0813,-0.41809 -0.0542,-0.12882 -0.13141,-0.24125 -0.23172,-0.33729 -0.10031,-0.096 -0.22068,-0.17098 -0.36112,-0.22485 -0.14044,-0.0562 -0.29592,-0.0843 -0.46645,-0.0843 z m -6.79208,0.13351 c -0.0241,0.0375 -0.0702,0.0902 -0.13843,0.1581 -0.0682,0.0679 -0.14445,0.13936 -0.22871,0.21431 -0.0843,0.0726 -0.17153,0.14171 -0.26181,0.20729 -0.0883,0.0656 -0.16652,0.11477 -0.23473,0.14757 v 0.69213 c 0.0602,-0.0211 0.13041,-0.0504 0.21065,-0.0878 0.0802,-0.0398 0.16151,-0.0831 0.24376,-0.13 0.0823,-0.0492 0.1605,-0.10071 0.23473,-0.15459 0.0762,-0.0562 0.14044,-0.11242 0.1926,-0.16864 v 3.55555 h 0.62895 v -4.43389 z m 3.55704,0 -1.57087,2.62801 v 0.85726 h 1.81162 v 0.94862 h 0.62293 v -0.94862 h 0.40626 v -0.64295 h -0.40626 v -2.84232 z m 6.65666,0 -1.57087,2.62801 v 0.85726 h 1.81162 v 0.94862 h 0.62293 v -0.94862 h 0.40626 v -0.64295 h -0.40626 v -2.84232 z m -6.41591,0.53403 v 2.30829 h -1.34518 z m 6.65666,0 v 2.30829 h -1.34518 z m -16.33169,0.34431 -0.75835,0.27405 v 0.23891 h 0.43635 v 3.19366 c 0,0.1382 -0.005,0.26936 -0.015,0.3935 -0.008,0.12648 -0.0241,0.24008 -0.0482,0.3408 -0.0221,0.10306 -0.0522,0.19089 -0.0903,0.26351 -0.0381,0.075 -0.0853,0.13116 -0.14143,0.16864 l -0.59886,-0.48134 c -0.0301,0.0117 -0.0612,0.0281 -0.0933,0.0492 -0.0321,0.0234 -0.0602,0.0515 -0.0843,0.0843 -0.0261,0.0351 -0.0471,0.075 -0.0632,0.11946 -0.0161,0.0468 -0.0241,0.10071 -0.0241,0.16161 0,0.0679 0.013,0.12649 0.0391,0.17567 0.0241,0.0515 0.0582,0.0937 0.10231,0.12648 0.0421,0.0328 0.0913,0.0562 0.14746,0.0703 0.0562,0.0164 0.11636,0.0246 0.18056,0.0246 0.19461,0 0.38118,-0.055 0.55974,-0.16513 0.18056,-0.10775 0.33404,-0.27522 0.46043,-0.50242 0.0522,-0.096 0.0943,-0.20495 0.12639,-0.32674 0.0321,-0.1218 0.0562,-0.24711 0.0722,-0.37593 0.0181,-0.12883 0.0301,-0.25648 0.0361,-0.38296 0.006,-0.12883 0.009,-0.24711 0.009,-0.35486 v -3.09529 z m 1.69426,0 -0.75836,0.28107 v 0.24594 h 0.43034 v 1.94993 c 0,0.20378 0.0191,0.37944 0.0572,0.52701 0.0401,0.14522 0.0963,0.26584 0.16852,0.36188 0.0742,0.0937 0.16351,0.16278 0.26783,0.20729 0.10633,0.0468 0.2257,0.0703 0.35811,0.0703 0.0903,0 0.18257,-0.0176 0.27686,-0.0527 0.0963,-0.0328 0.18759,-0.0738 0.27385,-0.12297 0.0883,-0.0515 0.16953,-0.10657 0.24376,-0.16513 0.0762,-0.0585 0.14044,-0.11125 0.1926,-0.1581 v 0.41107 h 0.97803 v -0.28107 l -0.27084,-0.0211 c -0.0361,-0.005 -0.0682,-0.0211 -0.0963,-0.0492 -0.0261,-0.0281 -0.0391,-0.0644 -0.0391,-0.10892 v -3.09529 h -0.25278 l -0.75234,0.28107 v 0.24594 h 0.43335 v 2.41018 c -0.0361,0.0211 -0.0802,0.0445 -0.13241,0.0703 -0.0502,0.0234 -0.10433,0.0469 -0.16251,0.0703 -0.0582,0.0211 -0.11937,0.0386 -0.18357,0.0527 -0.0642,0.014 -0.12739,0.0211 -0.18959,0.0211 -0.10833,0 -0.20062,-0.0176 -0.27686,-0.0527 -0.0762,-0.0375 -0.13843,-0.0913 -0.18657,-0.16162 -0.0462,-0.0703 -0.0802,-0.15576 -0.10232,-0.25647 -0.0201,-0.10072 -0.0301,-0.21432 -0.0301,-0.3408 v -2.33992 z m 10.90284,1.04348 c 0.0983,0 0.19059,0.0269 0.27686,0.0808 0.0863,0.0515 0.1605,0.12296 0.22269,0.21431 0.0642,0.089 0.11435,0.19441 0.15047,0.31621 0.0381,0.12179 0.0572,0.25179 0.0572,0.38998 0,0.1382 -0.0191,0.26936 -0.0572,0.3935 -0.0361,0.1218 -0.0863,0.22837 -0.15047,0.31972 -0.0622,0.0914 -0.13642,0.16396 -0.22269,0.21783 -0.0863,0.0515 -0.17856,0.0773 -0.27686,0.0773 -0.0963,0 -0.18758,-0.0258 -0.27385,-0.0773 -0.0863,-0.0539 -0.16251,-0.12648 -0.22871,-0.21783 -0.0642,-0.0913 -0.11536,-0.19792 -0.15348,-0.31972 -0.0361,-0.12414 -0.0542,-0.2553 -0.0542,-0.3935 0,-0.13819 0.0181,-0.26819 0.0542,-0.38998 0.0381,-0.1218 0.0893,-0.2272 0.15348,-0.31621 0.0662,-0.0913 0.14244,-0.16279 0.22871,-0.21431 0.0863,-0.0539 0.17755,-0.0808 0.27385,-0.0808 z"
       id="text843"
       inkscape:connector-curvature="0" />
  </g>
</svg>
