<?xml version="1.0" encoding="UTF-8" standalone="no"?>
<svg
   xmlns:dc="http://purl.org/dc/elements/1.1/"
   xmlns:cc="http://creativecommons.org/ns#"
   xmlns:rdf="http://www.w3.org/1999/02/22-rdf-syntax-ns#"
   xmlns:svg="http://www.w3.org/2000/svg"
   xmlns="http://www.w3.org/2000/svg"
   xmlns:sodipodi="http://sodipodi.sourceforge.net/DTD/sodipodi-0.dtd"
   xmlns:inkscape="http://www.inkscape.org/namespaces/inkscape"
   version="1.0"
   id="svg7229"
   height="22"
   width="22"
   sodipodi:docname="media.svg"
   inkscape:version="0.92.4 (5da689c313, 2019-01-14)">
  <sodipodi:namedview
     pagecolor="#ffffff"
     bordercolor="#666666"
     borderopacity="1"
     objecttolerance="10"
     gridtolerance="10"
     guidetolerance="10"
     inkscape:pageopacity="0"
     inkscape:pageshadow="2"
     inkscape:window-width="1366"
     inkscape:window-height="708"
     id="namedview43"
     showgrid="false"
     inkscape:zoom="1.4630682"
     inkscape:cx="-0.9611649"
     inkscape:cy="11"
     inkscape:window-x="0"
     inkscape:window-y="0"
     inkscape:window-maximized="1"
     inkscape:current-layer="svg7229" />
  <metadata
     id="metadata45">
    <rdf:RDF>
      <cc:Work
         rdf:about="">
        <dc:format>image/svg+xml</dc:format>
        <dc:type
           rdf:resource="http://purl.org/dc/dcmitype/StillImage" />
        <dc:title></dc:title>
      </cc:Work>
    </rdf:RDF>
  </metadata>
  <defs
     id="defs7231">
    <style
       type="text/css"
       id="current-color-scheme">
      .ColorScheme-Text {
        color:#00ff00;
      }
      .ColorScheme-Background {
        color:#ff0000;
      }
      .ColorScheme-Highlight {
        color:#0000ff;
      }
      .ColorScheme-ButtonHover {
        color:#ffff00;
      }
      .ColorScheme-ButtonFocus{
        color:#ff00ff;
      }
      .ColorScheme-NegativeText {
        color:#00ffff;
      }
  </style>
  </defs>
  <g
     id="layer1">
    <g
       id="media-playback-pause">
      <rect
         y="0.00013011102"
         x="4.5542716e-08"
         height="21.99991"
         width="22"
         id="rect3003-0"
         style="opacity:0.01000001;fill:#963896;fill-opacity:0.99215686;stroke:none;stroke-width:1.49997652" />
      <path
         class="ColorScheme-Text"
         d="m 13.666426,3.0265029 h 5.33323 V 18.973953 h -5.33323 z m -10.66646,0 H 8.3331983 V 18.973953 H 2.999966 Z"
         style="fill:currentColor;fill-opacity:1;stroke-width:1.49997652"
         id="rect3287-9"
         inkscape:connector-curvature="0" />
    </g>
    <g
       id="media-playback-start">
      <rect
         y="0.00013011102"
         x="24"
         height="21.99991"
         width="22"
         id="rect3003-1"
         style="opacity:0.01000001;fill:#963896;fill-opacity:0.99215686;stroke:none;stroke-width:1.49997652" />
      <path
         class="ColorScheme-Text"
         d="M 28.010912,18.994203 41.987751,11.000228 28.010912,3.0062532 Z"
         style="fill:currentColor;fill-opacity:1;stroke-width:1.49997652"
         id="path3357-8"
         inkscape:connector-curvature="0" />
    </g>
    <g
       id="media-playback-stop">
      <rect
         y="0.00013011102"
         x="48"
         height="21.99991"
         width="22"
         id="rect3003-3"
         style="opacity:0.01000001;fill:#963896;fill-opacity:0.99215686;stroke:none;stroke-width:1.49997652" />
      <path
         class="ColorScheme-Text"
         d="M 50.999946,3.0056532 H 66.997777 V 18.994803 H 50.999946 Z"
         style="fill:currentColor;fill-opacity:1;stroke-width:1.49997652"
         id="rect3274-5"
         inkscape:connector-curvature="0" />
    </g>
    <g
       id="media-record"
       transform="matrix(1.4999765,0,0,1.4999765,66.49866,-1551.0186)">
      <rect
         y="1034.0287"
         x="3.6676176"
         height="14.666837"
         width="14.666897"
         id="rect3003-03"
         style="opacity:0.01000001;fill:#ed1515;fill-opacity:0.00392157;stroke:none" />
      <rect
         style="fill:#da4453"
         id="rect3274-0"
         width="10.661418"
         height="10.664993"
         x="5.669291"
         y="1036.0297"
         ry="5.3324966" />
    </g>
    <g
       class="ColorScheme-Text"
       style="fill:currentColor;fill-opacity:0.99215686"
       id="media-seek-backward"
       transform="matrix(1.4999765,0,0,1.4999765,90.49817,-1551.0186)">
      <rect
         y="1034.0287"
         x="3.6679442"
         height="14.666837"
         width="14.666897"
         id="rect3003-07"
         class="ColorScheme-Text"
         style="opacity:0.01000001;fill:currentColor;fill-opacity:0.99215686;stroke:none" />
      <path
         class="ColorScheme-Text"
         d="m 10.999999,1046.6926 -5.3316726,-5.3304 5.3316726,-5.3304 z m 5.33167,0 -5.33167,-5.3304 5.33167,-5.3304 z"
         style="fill:currentColor;fill-opacity:0.99215686"
         id="path4148-6"
         inkscape:connector-curvature="0" />
    </g>
    <g
       class="ColorScheme-Text"
       style="fill:currentColor;fill-opacity:0.99215686"
       id="media-seek-forward"
       transform="matrix(1.4999765,0,0,1.4999765,114.55211,-1551.0186)">
      <rect
         y="1034.0287"
         x="3.6319835"
         height="14.666837"
         width="14.666897"
         id="rect3003-2"
         class="ColorScheme-Text"
         style="opacity:0.01000001;fill:currentColor;fill-opacity:0.99215686;stroke:none" />
      <path
         class="ColorScheme-Text"
         d="m 11.000001,1046.6956 5.362127,-5.3334 -5.362127,-5.3334 z m -5.3621229,0 5.3621229,-5.3334 -5.3621229,-5.3334 z"
         style="fill:currentColor;fill-opacity:0.99215686"
         id="path4148-8"
         inkscape:connector-curvature="0" />
    </g>
    <g
       class="ColorScheme-Text"
       style="fill:currentColor;fill-opacity:0.99215686"
       id="media-skip-backward"
       transform="matrix(1.4999765,0,0,1.4999765,138.49725,-1551.0186)">
      <rect
         y="1034.0287"
         x="3.6685574"
         height="14.666837"
         width="14.666897"
         id="rect3003-9"
         class="ColorScheme-Text"
         style="opacity:0.01000001;fill:currentColor;fill-opacity:0.99215686;stroke:none" />
      <path
         class="ColorScheme-Text"
         id="rect3356-04"
         d="m 5.6605034,1036.0318 v 10.6605 h 3.561 v -5.3304 -5.3301 z m 3.561,5.3301 7.1220046,5.3304 v -10.6605 z"
         style="fill:currentColor;fill-opacity:0.99215686"
         inkscape:connector-curvature="0" />
    </g>
    <g
       class="ColorScheme-Text"
       style="fill:currentColor;fill-opacity:0.99215686"
       id="media-skip-forward"
       transform="matrix(1.4999765,0,0,1.4999765,162.49676,-1551.0186)">
      <rect
         y="1034.0287"
         x="3.668884"
         height="14.666837"
         width="14.666897"
         id="rect3003-7"
         class="ColorScheme-Text"
         style="opacity:0.01000001;fill:currentColor;fill-opacity:0.99215686;stroke:none" />
      <path
         class="ColorScheme-Text"
         d="m 12.774348,1036.0314 h 3.548696 v 10.6616 h -3.548696 z m -7.0973961,10.6616 7.0974011,-5.3308 -7.0974011,-5.3308 z"
         style="fill:currentColor;fill-opacity:0.99215686"
         id="rect3402-4"
         inkscape:connector-curvature="0" />
    </g>
    <g
       style="fill:currentColor;fill-opacity:0.99215686"
       id="media-eject"
       transform="matrix(1.2499744,0,0,1.2499744,189.75012,-1290.6762)">
      <rect
         y="1032.5621"
         x="1.7999408"
         height="17.600325"
         width="17.600361"
         id="rect3003"
         class="ColorScheme-Text"
         style="opacity:0.01000001;fill:currentColor;fill-opacity:0.99215686;stroke:none" />
      <path
         id="path6"
         class="ColorScheme-Text"
         d="m 10.600116,1034.9592 -7.1958529,8.5375 H 17.795969 Z m -7.1958529,10.5656 v 2.2406 H 17.795969 v -2.2406 z"
         style="fill:currentColor;fill-opacity:0.99215686"
         inkscape:connector-curvature="0" />
    </g>
    <g
       id="media-playback-paused">
      <rect
         y="24.00013"
         x="4.5542716e-08"
         height="21.99991"
         width="22"
         id="rect3003-0-3"
         style="opacity:0.01000001;fill:#963896;fill-opacity:0.99215686;stroke:none;stroke-width:1.49997652" />
      <path
         class="ColorScheme-Text"
         d="m 11.999834,32.000125 h 2.000046 v 6.000206 h -2.000046 z m -4.0000914,0 h 2.0000466 v 6.000206 H 7.9997426 Z m 3.0000694,-5.000022 c -4.4321023,0 -8.0001843,3.567994 -8.0001843,8.000125 0,4.432131 3.568082,8.000125 8.0001843,8.000125 4.432102,0 8.000183,-3.567994 8.000183,-8.000125 0,-4.432131 -3.568081,-8.000125 -8.000183,-8.000125 z m 0,1.000035 c 3.878088,0 7.00016,3.121901 7.00016,7.00009 0,3.878189 -3.122072,7.00009 -7.00016,7.00009 -3.8780895,0 -7.0001613,-3.121901 -7.0001613,-7.00009 0,-3.878189 3.1220718,-7.00009 7.0001613,-7.00009 z"
         style="fill:currentColor;fill-opacity:1;stroke:none;stroke-width:1.49997652"
         id="rect3287-9-5"
         inkscape:connector-curvature="0" />
    </g>
    <g
       id="media-playback-playing">
      <rect
         y="24.00013"
         x="24"
         height="21.99991"
         width="22"
         id="rect3003-1-2"
         style="opacity:0.01000001;fill:#963896;fill-opacity:0.99215686;stroke:none;stroke-width:1.49997652" />
      <path
         class="ColorScheme-Text"
         d="m 32.999164,38.000481 4.000335,-3.000253 -4.000335,-3.000253 z m 2.000167,-11.000978 c -4.43237,0 -8.000669,3.568294 -8.000669,8.000725 0,4.432431 3.568299,8.000725 8.000669,8.000725 4.432371,0 8.00067,-3.568294 8.00067,-8.000725 0,-4.432431 -3.568299,-8.000725 -8.00067,-8.000725 z m 0,1.000185 c 3.878325,0 7.000586,3.122201 7.000586,7.00054 0,3.878339 -3.122261,7.00054 -7.000586,7.00054 -3.878324,0 -7.000585,-3.122201 -7.000585,-7.00054 0,-3.878339 3.122261,-7.00054 7.000585,-7.00054 z"
         style="fill:currentColor;fill-opacity:1;stroke:none;stroke-width:1.49997652"
         id="path3357-8-9"
         inkscape:connector-curvature="0" />
    </g>
    <g
       id="media-playback-stopped">
      <rect
         y="24.00013"
         x="48"
         height="21.99991"
         width="22"
         id="rect3003-3-2"
         class="ColorScheme-Text"
         style="opacity:0.01000001;fill:currentColor;fill-opacity:0.99215686;stroke:none;stroke-width:1.49997652" />
      <path
         id="path41"
         d="m 55.998793,32.000125 h 6.000137 v 6.000206 h -6.000137 z m 3.000068,-5.000022 c -4.432101,0 -8.000183,3.567994 -8.000183,8.000125 0,4.432131 3.568082,8.000125 8.000183,8.000125 4.432103,0 8.000184,-3.567994 8.000184,-8.000125 0,-4.432131 -3.568081,-8.000125 -8.000184,-8.000125 z m 0,1.000035 c 3.878089,0 7.000161,3.121901 7.000161,7.00009 0,3.878189 -3.122072,7.00009 -7.000161,7.00009 -3.878089,0 -7.00016,-3.121901 -7.00016,-7.00009 0,-3.878189 3.122071,-7.00009 7.00016,-7.00009 z"
         class="ColorScheme-Text"
         style="fill:currentColor;fill-opacity:1;stroke-width:1.49997652"
         inkscape:connector-curvature="0" />
    </g>
  </g>
  <path
     style="font-style:normal;font-variant:normal;font-weight:normal;font-stretch:normal;font-size:16px;line-height:1.25;font-family:'Abyssinica SIL';-inkscape-font-specification:'Abyssinica SIL';letter-spacing:0px;word-spacing:0px;fill:#ffffff;fill-opacity:1;stroke:none;stroke-width:0.41620618"
     d="m 60.352239,-58.606055 c -0.0522,0 -0.10131,0.0117 -0.14746,0.0351 -0.0461,0.0211 -0.0873,0.0515 -0.12338,0.0913 -0.0341,0.0398 -0.0612,0.0867 -0.0813,0.14054 -0.0201,0.0539 -0.0301,0.11125 -0.0301,0.17215 0,0.0609 0.01,0.11946 0.0301,0.17567 0.0201,0.0539 0.0471,0.10072 0.0813,0.14054 0.0361,0.0398 0.0772,0.0714 0.12338,0.0949 0.0462,0.0234 0.0953,0.0351 0.14746,0.0351 0.0522,0 0.10132,-0.0117 0.14746,-0.0351 0.0461,-0.0234 0.0863,-0.055 0.12037,-0.0949 0.0341,-0.0398 0.0602,-0.0867 0.0783,-0.14054 0.0201,-0.0562 0.0301,-0.11477 0.0301,-0.17567 0,-0.0609 -0.01,-0.11828 -0.0301,-0.17215 -0.0181,-0.0539 -0.0441,-0.10072 -0.0783,-0.14054 -0.0341,-0.0398 -0.0742,-0.0703 -0.12037,-0.0913 -0.0461,-0.0234 -0.0953,-0.0351 -0.14746,-0.0351 z m 12.7265,0.52701 c -0.21065,0 -0.40526,0.0422 -0.58381,0.12648 -0.17655,0.0843 -0.32902,0.22017 -0.45742,0.40755 -0.12639,0.18738 -0.2257,0.43332 -0.29792,0.73781 -0.0722,0.30215 -0.10834,0.67106 -0.10834,1.10672 0,0.438 0.0371,0.79871 0.11135,1.08212 0.0742,0.28107 0.17353,0.50359 0.29792,0.66754 0.12439,0.16396 0.26783,0.27873 0.43034,0.34432 0.1625,0.0632 0.33203,0.0949 0.50857,0.0949 0.17655,0 0.34808,-0.0304 0.5146,-0.0913 0.16852,-0.0609 0.31699,-0.15459 0.44538,-0.28107 0.1284,-0.12648 0.23172,-0.28693 0.30997,-0.48133 0.0782,-0.19441 0.11736,-0.42512 0.11736,-0.69214 0,-0.17801 -0.0181,-0.33729 -0.0542,-0.47782 -0.0341,-0.14054 -0.0812,-0.26351 -0.14144,-0.36891 -0.0582,-0.10774 -0.12739,-0.19792 -0.20764,-0.27053 -0.0782,-0.075 -0.1615,-0.13585 -0.24978,-0.18269 -0.0883,-0.0469 -0.17855,-0.0808 -0.27084,-0.10189 -0.0923,-0.0211 -0.18056,-0.0316 -0.26482,-0.0316 -0.11034,0 -0.21166,0.0117 -0.30394,0.0351 -0.0923,0.0234 -0.17555,0.055 -0.24978,0.0949 -0.0742,0.0375 -0.13943,0.082 -0.19561,0.13351 -0.0562,0.0515 -0.10432,0.1054 -0.14444,0.16162 0.0301,-0.32323 0.0672,-0.58557 0.11134,-0.787 0.0462,-0.20144 0.10132,-0.35837 0.16552,-0.4708 0.0642,-0.11242 0.13943,-0.18855 0.2257,-0.22837 0.0863,-0.0398 0.18357,-0.0597 0.2919,-0.0597 0.0943,0 0.17254,0.0187 0.23473,0.0562 0.0622,0.0375 0.11235,0.0855 0.15047,0.14405 0.0381,0.0562 0.0642,0.12063 0.0782,0.19324 0.0161,0.0703 0.0241,0.13819 0.0241,0.20377 h 0.65302 c 0,-0.1499 -0.0271,-0.28927 -0.0813,-0.41809 -0.0542,-0.12882 -0.13141,-0.24125 -0.23172,-0.33729 -0.10031,-0.096 -0.22068,-0.17098 -0.36112,-0.22485 -0.14044,-0.0562 -0.29592,-0.0843 -0.46645,-0.0843 z m -6.79208,0.13351 c -0.0241,0.0375 -0.0702,0.0902 -0.13843,0.1581 -0.0682,0.0679 -0.14445,0.13936 -0.22871,0.21431 -0.0843,0.0726 -0.17153,0.14171 -0.26181,0.20729 -0.0883,0.0656 -0.16652,0.11477 -0.23473,0.14757 v 0.69213 c 0.0602,-0.0211 0.13041,-0.0504 0.21065,-0.0878 0.0802,-0.0398 0.16151,-0.0831 0.24376,-0.13 0.0823,-0.0492 0.1605,-0.10071 0.23473,-0.15459 0.0762,-0.0562 0.14044,-0.11242 0.1926,-0.16864 v 3.55555 h 0.62895 v -4.43389 z m 3.55704,0 -1.57087,2.62801 v 0.85726 h 1.81162 v 0.94862 h 0.62293 v -0.94862 h 0.40626 v -0.64295 h -0.40626 v -2.84232 z m 6.65666,0 -1.57087,2.62801 v 0.85726 h 1.81162 v 0.94862 h 0.62293 v -0.94862 h 0.40626 v -0.64295 h -0.40626 v -2.84232 z m -6.41591,0.53403 v 2.30829 h -1.34518 z m 6.65666,0 v 2.30829 h -1.34518 z m -16.33169,0.34431 -0.75835,0.27405 v 0.23891 h 0.43635 v 3.19366 c 0,0.1382 -0.005,0.26936 -0.015,0.3935 -0.008,0.12648 -0.0241,0.24008 -0.0482,0.3408 -0.0221,0.10306 -0.0522,0.19089 -0.0903,0.26351 -0.0381,0.075 -0.0853,0.13116 -0.14143,0.16864 l -0.59886,-0.48134 c -0.0301,0.0117 -0.0612,0.0281 -0.0933,0.0492 -0.0321,0.0234 -0.0602,0.0515 -0.0843,0.0843 -0.0261,0.0351 -0.0471,0.075 -0.0632,0.11946 -0.0161,0.0468 -0.0241,0.10071 -0.0241,0.16161 0,0.0679 0.013,0.12649 0.0391,0.17567 0.0241,0.0515 0.0582,0.0937 0.10231,0.12648 0.0421,0.0328 0.0913,0.0562 0.14746,0.0703 0.0562,0.0164 0.11636,0.0246 0.18056,0.0246 0.19461,0 0.38118,-0.055 0.55974,-0.16513 0.18056,-0.10775 0.33404,-0.27522 0.46043,-0.50242 0.0522,-0.096 0.0943,-0.20495 0.12639,-0.32674 0.0321,-0.1218 0.0562,-0.24711 0.0722,-0.37593 0.0181,-0.12883 0.0301,-0.25648 0.0361,-0.38296 0.006,-0.12883 0.009,-0.24711 0.009,-0.35486 v -3.09529 z m 1.69426,0 -0.75836,0.28107 v 0.24594 h 0.43034 v 1.94993 c 0,0.20378 0.0191,0.37944 0.0572,0.52701 0.0401,0.14522 0.0963,0.26584 0.16852,0.36188 0.0742,0.0937 0.16351,0.16278 0.26783,0.20729 0.10633,0.0468 0.2257,0.0703 0.35811,0.0703 0.0903,0 0.18257,-0.0176 0.27686,-0.0527 0.0963,-0.0328 0.18759,-0.0738 0.27385,-0.12297 0.0883,-0.0515 0.16953,-0.10657 0.24376,-0.16513 0.0762,-0.0585 0.14044,-0.11125 0.1926,-0.1581 v 0.41107 h 0.97803 v -0.28107 l -0.27084,-0.0211 c -0.0361,-0.005 -0.0682,-0.0211 -0.0963,-0.0492 -0.0261,-0.0281 -0.0391,-0.0644 -0.0391,-0.10892 v -3.09529 h -0.25278 l -0.75234,0.28107 v 0.24594 h 0.43335 v 2.41018 c -0.0361,0.0211 -0.0802,0.0445 -0.13241,0.0703 -0.0502,0.0234 -0.10433,0.0469 -0.16251,0.0703 -0.0582,0.0211 -0.11937,0.0386 -0.18357,0.0527 -0.0642,0.014 -0.12739,0.0211 -0.18959,0.0211 -0.10833,0 -0.20062,-0.0176 -0.27686,-0.0527 -0.0762,-0.0375 -0.13843,-0.0913 -0.18657,-0.16162 -0.0462,-0.0703 -0.0802,-0.15576 -0.10232,-0.25647 -0.0201,-0.10072 -0.0301,-0.21432 -0.0301,-0.3408 v -2.33992 z m 10.90284,1.04348 c 0.0983,0 0.19059,0.0269 0.27686,0.0808 0.0863,0.0515 0.1605,0.12296 0.22269,0.21431 0.0642,0.089 0.11435,0.19441 0.15047,0.31621 0.0381,0.12179 0.0572,0.25179 0.0572,0.38998 0,0.1382 -0.0191,0.26936 -0.0572,0.3935 -0.0361,0.1218 -0.0863,0.22837 -0.15047,0.31972 -0.0622,0.0914 -0.13642,0.16396 -0.22269,0.21783 -0.0863,0.0515 -0.17856,0.0773 -0.27686,0.0773 -0.0963,0 -0.18758,-0.0258 -0.27385,-0.0773 -0.0863,-0.0539 -0.16251,-0.12648 -0.22871,-0.21783 -0.0642,-0.0913 -0.11536,-0.19792 -0.15348,-0.31972 -0.0361,-0.12414 -0.0542,-0.2553 -0.0542,-0.3935 0,-0.13819 0.0181,-0.26819 0.0542,-0.38998 0.0381,-0.1218 0.0893,-0.2272 0.15348,-0.31621 0.0662,-0.0913 0.14244,-0.16279 0.22871,-0.21431 0.0863,-0.0539 0.17755,-0.0808 0.27385,-0.0808 z"
     id="text843"
     inkscape:connector-curvature="0" />
</svg>
