<?xml version="1.0" encoding="UTF-8" standalone="no"?>
<!-- Created with Inkscape (http://www.inkscape.org/) -->

<svg
   xmlns:dc="http://purl.org/dc/elements/1.1/"
   xmlns:cc="http://creativecommons.org/ns#"
   xmlns:rdf="http://www.w3.org/1999/02/22-rdf-syntax-ns#"
   xmlns:svg="http://www.w3.org/2000/svg"
   xmlns="http://www.w3.org/2000/svg"
   xmlns:sodipodi="http://sodipodi.sourceforge.net/DTD/sodipodi-0.dtd"
   xmlns:inkscape="http://www.inkscape.org/namespaces/inkscape"
   width="54"
   height="32"
   viewBox="0 0 14.2875 8.4666669"
   version="1.1"
   id="svg2156"
   inkscape:version="0.92.4 (5da689c313, 2019-01-14)"
   sodipodi:docname="nepomuk.svg">
  <defs
     id="defs2150" />
  <style
     type="text/css"
     id="current-color-scheme">
      .ColorScheme-Text {
        color:#00ff00;
      }
      .ColorScheme-Background {
        color:#ff0000;
      }
      .ColorScheme-Highlight {
        color:#0000ff;
      }
      .ColorScheme-ButtonHover {
        color:#ffff00;
      }
      .ColorScheme-ButtonFocus{
        color:#ff00ff;
      }
      .ColorScheme-NegativeText {
        color:#00ffff;
      }
  </style>
  <sodipodi:namedview
     id="base"
     pagecolor="#ffffff"
     bordercolor="#666666"
     borderopacity="1.0"
     inkscape:pageopacity="0.0"
     inkscape:pageshadow="2"
     inkscape:zoom="4.7870371"
     inkscape:cx="25.067698"
     inkscape:cy="16"
     inkscape:document-units="mm"
     inkscape:current-layer="layer1"
     showgrid="false"
     units="px"
     inkscape:window-width="1366"
     inkscape:window-height="708"
     inkscape:window-x="0"
     inkscape:window-y="0"
     inkscape:window-maximized="1" />
  <metadata
     id="metadata2153">
    <rdf:RDF>
      <cc:Work
         rdf:about="">
        <dc:format>image/svg+xml</dc:format>
        <dc:type
           rdf:resource="http://purl.org/dc/dcmitype/StillImage" />
        <dc:title></dc:title>
      </cc:Work>
    </rdf:RDF>
  </metadata>
  <g
     inkscape:label="Capa 1"
     inkscape:groupmode="layer"
     id="layer1"
     transform="translate(0,-288.53332)">
    <g
       id="nepomuk"
       transform="matrix(0.26458333,0,0,0.26458333,18.534376,288.78935)">
      <path
         id="path2-2"
         d="M -31.897485,2.1712057 A 12.768936,12.768936 0 0 0 -44.66642,14.94015 12.768936,12.768936 0 0 0 -31.897485,27.705036 12.768936,12.768936 0 0 0 -19.12855,14.938126 12.768936,12.768936 0 0 0 -31.897485,2.1691756 Z m -0.0366,1.9001166 A 10.97642,10.97642 0 0 1 -20.957651,15.047732 10.97642,10.97642 0 0 1 -31.934064,26.024168 10.97642,10.97642 0 0 1 -42.908447,15.047732 10.97642,10.97642 0 0 1 -31.934064,4.0733515 Z m -2.178203,2.2574006 a 6.3499611,6.3499611 0 0 0 -6.333724,6.3276321 6.3479314,6.3479314 0 0 0 6.333724,6.327627 c 1.327644,0 2.563941,-0.416155 3.585036,-1.120574 l 4.238733,4.234647 a 1.1510316,1.1510316 0 1 0 1.626053,-1.626047 l -4.238712,-4.234666 c 0.70442,-1.021113 1.12058,-2.253345 1.12058,-3.580987 a 6.3479314,6.3479314 0 0 0 -6.333711,-6.3276321 z m 0,2.302064 a 4.0113568,4.0113568 0 0 1 4.029626,4.0255681 4.0113568,4.0113568 0 0 1 -4.029626,4.027602 4.0133868,4.0133868 0 0 1 -4.033694,-4.027602 c 0,-2.235068 1.792517,-4.0255681 4.033694,-4.0255681 z"
         style="fill:currentColor;fill-opacity:1;stroke-width:2.03003812"
         class="ColorScheme-Text"
         inkscape:connector-curvature="0" />
      <path
         id="path14-2"
         d="m -48,-1 v 32 h 32 V -1 Z"
         style="opacity:1;fill:none"
         inkscape:connector-curvature="0" />
    </g>
    <g
       id="22-22-nepomuk"
       transform="matrix(0.26458333,0,0,0.26458333,10.593317,298.225)">
      <path
         inkscape:connector-curvature="0"
         id="path1153"
         class="ColorScheme-Text"
         d="M -31.07855,-23.347681 A 5.9378833,5.9378833 0 0 0 -37,-17.431546 a 5.9359852,5.9359852 0 0 0 5.92145,5.916135 c 1.241487,0 2.397732,-0.387974 3.352564,-1.04668 l 3.963573,3.9582585 a 1.0763359,1.0763359 0 1 0 1.522202,-1.5195455 l -3.963571,-3.958259 c 0.658707,-0.954849 1.04668,-2.108424 1.04668,-3.349909 a 5.9359852,5.9359852 0 0 0 -5.921448,-5.916135 z m 0,2.151805 a 3.7510417,3.7510417 0 0 1 3.769643,3.76433 3.7510417,3.7510417 0 0 1 -3.769643,3.766987 3.7529399,3.7529399 0 0 1 -3.769645,-3.766987 c 0,-2.090025 1.673908,-3.76433 3.769645,-3.76433 z"
         style="fill:currentColor;fill-opacity:1;stroke-width:1.89829981" />
      <path
         id="path14-2-9"
         d="m -40.193367,-26.388744 v 22 h 22 v -22 z"
         style="opacity:1;fill:none;stroke-width:0.6875"
         inkscape:connector-curvature="0" />
    </g>
    <path
       style="font-style:normal;font-variant:normal;font-weight:normal;font-stretch:normal;font-size:16px;line-height:1.25;font-family:'Abyssinica SIL';-inkscape-font-specification:'Abyssinica SIL';letter-spacing:0px;word-spacing:0px;fill:#ffffff;fill-opacity:1;stroke:none;stroke-width:0.11012122"
       d="m 3.2453212,280.68723 c -0.013811,0 -0.026805,0.003 -0.039015,0.009 -0.012197,0.006 -0.023098,0.0136 -0.032644,0.0241 -0.00902,0.0105 -0.016192,0.0229 -0.021511,0.0372 -0.00532,0.0143 -0.00796,0.0294 -0.00796,0.0455 0,0.0161 0.00265,0.0316 0.00796,0.0465 0.00532,0.0143 0.012462,0.0266 0.021511,0.0372 0.00955,0.0105 0.020426,0.0189 0.032644,0.0251 0.012224,0.006 0.025215,0.009 0.039015,0.009 0.013811,0 0.026808,-0.003 0.039016,-0.009 0.012197,-0.006 0.022833,-0.0145 0.031848,-0.0251 0.00902,-0.0105 0.015928,-0.0229 0.020717,-0.0372 0.00532,-0.0149 0.00796,-0.0304 0.00796,-0.0465 0,-0.0161 -0.00265,-0.0313 -0.00796,-0.0455 -0.00479,-0.0143 -0.011668,-0.0267 -0.020717,-0.0372 -0.00902,-0.0105 -0.019632,-0.0186 -0.031848,-0.0241 -0.012197,-0.006 -0.025215,-0.009 -0.039016,-0.009 z m 3.3672198,0.13944 c -0.055735,0 -0.107225,0.0112 -0.1544664,0.0335 -0.046712,0.0223 -0.087053,0.0583 -0.1210257,0.10783 -0.033441,0.0496 -0.059716,0.11465 -0.078825,0.19522 -0.019103,0.0799 -0.028665,0.17755 -0.028665,0.29282 0,0.11588 0.00982,0.21132 0.029461,0.28631 0.019632,0.0744 0.045913,0.13324 0.078825,0.17662 0.032911,0.0434 0.070863,0.0737 0.1138608,0.0911 0.042995,0.0167 0.08785,0.0251 0.1345591,0.0251 0.046712,0 0.092096,-0.008 0.1361546,-0.0242 0.044588,-0.0161 0.08387,-0.0409 0.1178401,-0.0744 0.033972,-0.0335 0.061309,-0.0759 0.082013,-0.12735 0.02069,-0.0514 0.031051,-0.11248 0.031051,-0.18313 0,-0.0471 -0.00479,-0.0892 -0.01434,-0.12642 -0.00902,-0.0372 -0.021484,-0.0697 -0.037423,-0.0976 -0.015399,-0.0285 -0.033705,-0.0524 -0.054938,-0.0716 -0.02069,-0.0198 -0.04273,-0.0359 -0.066088,-0.0483 -0.023363,-0.0124 -0.047241,-0.0214 -0.07166,-0.027 -0.024421,-0.006 -0.047773,-0.008 -0.070067,-0.008 -0.029194,0 -0.056002,0.003 -0.080417,0.009 -0.024421,0.006 -0.046448,0.0145 -0.066088,0.0251 -0.019632,0.01 -0.036891,0.0217 -0.051755,0.0353 -0.01487,0.0136 -0.027601,0.0279 -0.038216,0.0428 0.00796,-0.0855 0.01778,-0.15493 0.029459,-0.20823 0.012224,-0.0533 0.026808,-0.0948 0.043794,-0.12456 0.016986,-0.0298 0.036891,-0.0499 0.059716,-0.0604 0.022833,-0.0105 0.04857,-0.0158 0.077232,-0.0158 0.02495,0 0.045651,0.005 0.062106,0.0149 0.016457,0.01 0.029726,0.0226 0.039812,0.0381 0.010081,0.0149 0.016986,0.0319 0.02069,0.0511 0.00426,0.0186 0.00638,0.0366 0.00638,0.0539 h 0.1727782 c 0,-0.0397 -0.00717,-0.0765 -0.021511,-0.11061 -0.01434,-0.0341 -0.034769,-0.0638 -0.061309,-0.0892 -0.02654,-0.0254 -0.058388,-0.0452 -0.095546,-0.0595 -0.037158,-0.0149 -0.078296,-0.0223 -0.1234148,-0.0223 z m -1.7970712,0.0353 c -0.00638,0.01 -0.018574,0.0239 -0.036626,0.0418 -0.018045,0.018 -0.038219,0.0369 -0.060513,0.0567 -0.022304,0.0192 -0.045384,0.0375 -0.069271,0.0548 -0.023363,0.0174 -0.044059,0.0304 -0.062106,0.039 v 0.18312 c 0.015928,-0.006 0.034504,-0.0133 0.055735,-0.0232 0.02122,-0.0105 0.042733,-0.022 0.064495,-0.0344 0.021775,-0.013 0.042466,-0.0266 0.062106,-0.0409 0.020161,-0.0149 0.037158,-0.0297 0.050959,-0.0446 v 0.94074 h 0.1664097 v -1.17313 z m 0.9411335,0 -0.415626,0.69533 v 0.22682 h 0.4793245 v 0.25099 h 0.1648169 v -0.25099 H 6.0926083 V 281.614 H 5.9851187 v -0.75203 z m 1.7612413,0 -0.415626,0.69533 v 0.22682 h 0.4793245 v 0.25099 H 7.74636 v -0.25099 H 7.8538496 V 281.614 H 7.74636 v -0.75203 z m -1.6975428,0.1413 V 281.614 H 5.4643896 Z m 1.7612413,0 V 281.614 H 7.2256309 Z m -4.321093,0.0911 -0.2006468,0.0725 v 0.0632 h 0.115451 v 0.84499 c 0,0.0366 -0.00132,0.0713 -0.00397,0.10411 -0.00212,0.0335 -0.00638,0.0635 -0.012753,0.0902 -0.00585,0.0273 -0.013811,0.0505 -0.023892,0.0697 -0.010081,0.0198 -0.022569,0.0347 -0.03742,0.0446 l -0.1584484,-0.12735 c -0.00796,0.003 -0.016192,0.007 -0.024686,0.013 -0.00849,0.006 -0.015928,0.0136 -0.022304,0.0223 -0.00691,0.009 -0.012462,0.0198 -0.016722,0.0316 -0.00426,0.0125 -0.00638,0.0267 -0.00638,0.0428 0,0.018 0.00344,0.0335 0.010345,0.0465 0.00638,0.0136 0.015399,0.0248 0.02707,0.0335 0.011139,0.009 0.024157,0.0149 0.039016,0.0186 0.01487,0.004 0.030787,0.007 0.047773,0.007 0.051491,0 0.1008538,-0.0146 0.1480978,-0.0437 0.047773,-0.0285 0.088381,-0.0728 0.1218221,-0.13294 0.013811,-0.0254 0.02495,-0.0542 0.033441,-0.0865 0.00849,-0.0322 0.01487,-0.0654 0.019103,-0.0995 0.00479,-0.0341 0.00796,-0.0679 0.00955,-0.10133 0.00159,-0.0341 0.00238,-0.0654 0.00238,-0.0939 v -0.81896 z m 0.448273,0 -0.2006495,0.0744 v 0.0651 h 0.1138608 v 0.51592 c 0,0.0539 0.00505,0.1004 0.015134,0.13944 0.01061,0.0384 0.025479,0.0703 0.044588,0.0958 0.019632,0.0248 0.043262,0.0431 0.070863,0.0548 0.028133,0.0124 0.059716,0.0186 0.09475,0.0186 0.023892,0 0.048305,-0.005 0.073252,-0.0139 0.025479,-0.009 0.049633,-0.0195 0.072456,-0.0325 0.023363,-0.0136 0.044855,-0.0282 0.064495,-0.0437 0.020161,-0.0155 0.037158,-0.0294 0.050959,-0.0418 v 0.10877 h 0.2587703 v -0.0744 l -0.07166,-0.006 c -0.00955,-0.001 -0.018045,-0.006 -0.025479,-0.013 -0.00691,-0.007 -0.010345,-0.017 -0.010345,-0.0288 v -0.81896 h -0.066881 l -0.1990567,0.0744 v 0.0651 h 0.1146572 v 0.63769 c -0.00955,0.006 -0.02122,0.0118 -0.035033,0.0186 -0.013282,0.006 -0.027604,0.0124 -0.042998,0.0186 -0.015399,0.006 -0.031583,0.0102 -0.04857,0.0139 -0.016986,0.004 -0.033705,0.006 -0.050162,0.006 -0.028662,0 -0.053081,-0.005 -0.073252,-0.014 -0.020161,-0.01 -0.036626,-0.0241 -0.049363,-0.0428 -0.012224,-0.0186 -0.02122,-0.0412 -0.027072,-0.0679 -0.00532,-0.0266 -0.00796,-0.0567 -0.00796,-0.0902 v -0.6191 z m 2.8847097,0.27608 c 0.026009,0 0.050427,0.007 0.073253,0.0214 0.022834,0.0136 0.042466,0.0325 0.05892,0.0567 0.016986,0.0235 0.030255,0.0514 0.039812,0.0837 0.010081,0.0322 0.015134,0.0666 0.015134,0.10318 0,0.0366 -0.00505,0.0713 -0.015134,0.10411 -0.00955,0.0322 -0.022834,0.0604 -0.039812,0.0846 -0.016457,0.0242 -0.036094,0.0434 -0.05892,0.0576 -0.022833,0.0136 -0.047244,0.0205 -0.073253,0.0205 -0.025479,0 -0.04963,-0.007 -0.072456,-0.0205 -0.022834,-0.0143 -0.042998,-0.0335 -0.060513,-0.0576 -0.016986,-0.0242 -0.030522,-0.0524 -0.040608,-0.0846 -0.00955,-0.0328 -0.01434,-0.0675 -0.01434,-0.10411 0,-0.0366 0.00479,-0.071 0.01434,-0.10318 0.010081,-0.0322 0.023627,-0.0601 0.040608,-0.0837 0.017515,-0.0242 0.037687,-0.0431 0.060513,-0.0567 0.022833,-0.0143 0.046977,-0.0214 0.072456,-0.0214 z"
       id="text843"
       inkscape:connector-curvature="0" />
  </g>
</svg>
