<?xml version="1.0" encoding="UTF-8" standalone="no"?>
<!-- Created with Inkscape (http://www.inkscape.org/) -->

<svg
   xmlns:dc="http://purl.org/dc/elements/1.1/"
   xmlns:cc="http://creativecommons.org/ns#"
   xmlns:rdf="http://www.w3.org/1999/02/22-rdf-syntax-ns#"
   xmlns:svg="http://www.w3.org/2000/svg"
   xmlns="http://www.w3.org/2000/svg"
   xmlns:xlink="http://www.w3.org/1999/xlink"
   xmlns:sodipodi="http://sodipodi.sourceforge.net/DTD/sodipodi-0.dtd"
   xmlns:inkscape="http://www.inkscape.org/namespaces/inkscape"
   version="1.1"
   width="100%"
   height="100%"
   viewBox="0 0 22 22"
   id="svg"
   inkscape:version="0.92.4 (5da689c313, 2019-01-14)"
   sodipodi:docname="video.svg">
  <sodipodi:namedview
     pagecolor="#ffffff"
     bordercolor="#666666"
     borderopacity="1"
     objecttolerance="10"
     gridtolerance="10"
     guidetolerance="10"
     inkscape:pageopacity="0"
     inkscape:pageshadow="2"
     inkscape:window-width="1366"
     inkscape:window-height="708"
     id="namedview13"
     showgrid="false"
     inkscape:zoom="2.1092674"
     inkscape:cx="8.0666667"
     inkscape:cy="11"
     inkscape:window-x="0"
     inkscape:window-y="0"
     inkscape:window-maximized="1"
     inkscape:current-layer="svg"
     inkscape:snap-bbox="true"
     inkscape:snap-bbox-midpoints="true"
     inkscape:bbox-paths="true"
     inkscape:bbox-nodes="true"
     inkscape:snap-bbox-edge-midpoints="true">
    <inkscape:grid
       type="xygrid"
       id="grid2990"
       empspacing="4"
       visible="true"
       enabled="true"
       snapvisiblegridlinesonly="true" />
  </sodipodi:namedview>
  <defs
     id="defs81">
    <style
       type="text/css"
       id="current-color-scheme">
      .ColorScheme-Text {
        color:#00ff00;
      }
      .ColorScheme-Background {
        color:#ff0000;
      }
      .ColorScheme-Highlight {
        color:#0000ff;
      }
      .ColorScheme-ButtonHover {
        color:#ffff00;
      }
      .ColorScheme-ButtonFocus{
        color:#ff00ff;
      }
      .ColorScheme-NegativeText {
        color:#00ffff;
      }
  </style>
    <linearGradient
       inkscape:collect="always"
       xlink:href="#linearGradient7992"
       id="linearGradient7865"
       gradientUnits="userSpaceOnUse"
       gradientTransform="matrix(1.2500008,0,0,1.2000018,-100.14269,-103.49382)"
       x1="401.57144"
       y1="535.79797"
       x2="401.57144"
       y2="520.79797" />
    <linearGradient
       id="linearGradient7992">
      <stop
         id="stop7994"
         offset="0"
         style="stop-stop-opacity:0;" />
      <stop
         id="stop7996"
         offset="1"
         style="stop-stop-opacity:0.12612613;" />
    </linearGradient>
    <linearGradient
       inkscape:collect="always"
       xlink:href="#linearGradient7992-0"
       id="linearGradient7865-9"
       gradientUnits="userSpaceOnUse"
       gradientTransform="matrix(1.2500008,0,0,1.2000018,-100.14269,-103.49382)"
       x1="401.57144"
       y1="535.79797"
       x2="401.57144"
       y2="520.79797" />
    <linearGradient
       id="linearGradient7992-0">
      <stop
         id="stop7994-2"
         offset="0"
         style="stop-stop-opacity:0;" />
      <stop
         id="stop7996-1"
         offset="1"
         style="stop-stop-opacity:0.12612613;" />
    </linearGradient>
    <linearGradient
       inkscape:collect="always"
       xlink:href="#linearGradient7992-0-8"
       id="linearGradient7865-9-1"
       gradientUnits="userSpaceOnUse"
       gradientTransform="matrix(1.2500008,0,0,1.2000018,-100.14269,-103.49382)"
       x1="401.57144"
       y1="535.79797"
       x2="401.57144"
       y2="520.79797" />
    <linearGradient
       id="linearGradient7992-0-8">
      <stop
         id="stop7994-2-5"
         offset="0"
         style="stop-stop-opacity:0;" />
      <stop
         id="stop7996-1-6"
         offset="1"
         style="stop-stop-opacity:0.12612613;" />
    </linearGradient>
    <linearGradient
       inkscape:collect="always"
       xlink:href="#linearGradient7992-0-8"
       id="linearGradient3144"
       gradientUnits="userSpaceOnUse"
       gradientTransform="matrix(1.2500008,0,0,1.2000018,-100.14269,-103.49382)"
       x1="401.57144"
       y1="535.79797"
       x2="401.57144"
       y2="520.79797" />
    <linearGradient
       inkscape:collect="always"
       xlink:href="#linearGradient7992-0-8"
       id="linearGradient3147"
       gradientUnits="userSpaceOnUse"
       gradientTransform="matrix(0.93750184,0,0,0.90000254,603.47407,1318.8338)"
       x1="401.57144"
       y1="535.79797"
       x2="401.57144"
       y2="520.79797" />
  </defs>
  <metadata
     id="metadata34">
    <rdf:RDF>
      <cc:Work
         rdf:about="">
        <dc:format>image/svg+xml</dc:format>
        <dc:type
           rdf:resource="http://purl.org/dc/dcmitype/StillImage" />
        <dc:title></dc:title>
      </cc:Work>
    </rdf:RDF>
  </metadata>
  <g
     transform="matrix(3.7795276,0,0,3.7795276,-21.929118,-1124.2732)"
     id="video-display-brightness">
    <path
       id="path14-2"
       d="m 5.8343762,288.52477 v 8.46666 h 8.4666668 v -8.46666 z"
       style="opacity:1;fill:none;stroke-width:0.26458332"
       inkscape:connector-curvature="0" />
    <path
       id="path2-3"
       d="m 10.094833,289.36381 a 3.3795854,3.3795854 0 0 0 -3.3795841,3.38496 3.3795854,3.3795854 0 0 0 3.3849581,3.37421 3.3795854,3.3795854 0 0 0 3.374212,-3.37958 3.3795854,3.3795854 0 0 0 -3.379586,-3.37959 z m -0.01075,0.49968 0.0054,0.005 a 2.9013928,2.9013928 0 0 1 2.901393,2.90139 2.9013928,2.9013928 0 0 1 -2.901393,2.90677 2.9013928,2.9013928 0 0 1 -2.9067655,-2.9014 2.9013928,2.9013928 0 0 1 2.9013935,-2.91214 z m -0.06447,0.4567 a 0.08059424,0.08059424 0 0 0 -0.080595,0.0806 v 0.48357 c 0,0.043 0.037611,0.0806 0.080595,0.0806 h 0.161188 c 0.04298,0 0.08059,-0.0376 0.08059,-0.0806 v -0.48357 a 0.08059424,0.08059424 0 0 0 -0.08059,-0.0806 z m -1.515173,0.62864 a 0.08059424,0.08059424 0 0 0 -0.053729,0.0215 l -0.1182044,0.11821 a 0.08059424,0.08059424 0 0 0 0,0.10746 l 0.3438686,0.34386 a 0.08059424,0.08059424 0 0 0 0.1128318,0 l 0.1128311,-0.10745 a 0.08059424,0.08059424 0 0 0 0,-0.11821 l -0.3384958,-0.34387 a 0.08059424,0.08059424 0 0 0 -0.053729,-0.0215 z m 3.191533,0 a 0.08059424,0.08059424 0 0 0 -0.05373,0.0215 l -0.343868,0.34387 a 0.08059424,0.08059424 0 0 0 0,0.11283 l 0.107458,0.11283 a 0.08059424,0.08059424 0 0 0 0.118205,0 l 0.343868,-0.33849 a 0.08059424,0.08059424 0 0 0 0,-0.11283 l -0.118204,-0.11821 a 0.08059424,0.08059424 0 0 0 -0.05373,-0.0215 z m -1.595766,0.66087 a 1.1283193,1.1283193 0 0 0 -0.0054,0 1.1283193,1.1283193 0 0 0 -0.0054,0 1.1283193,1.1283193 0 0 0 -0.3277509,0.0537 1.1283193,1.1283193 0 0 0 -0.1074581,0.0376 1.1283193,1.1283193 0 0 0 -0.00537,0 1.1283193,1.1283193 0 0 0 -0.09134,0.0537 1.1283193,1.1283193 0 0 0 -0.026865,0.0107 1.1283193,1.1283193 0 0 0 -0.2417828,0.18805 1.1283193,1.1283193 0 0 0 -0.021492,0.0269 1.1283193,1.1283193 0 0 0 -0.05373,0.0591 1.1283193,1.1283193 0 0 0 -0.010745,0.0161 1.1283193,1.1283193 0 0 0 -0.05373,0.0752 1.1283193,1.1283193 0 0 0 -0.010745,0.0215 1.1283193,1.1283193 0 0 0 -0.048357,0.0806 1.1283193,1.1283193 0 0 0 0,0.005 1.1283193,1.1283193 0 0 0 -0.042983,0.0967 1.1283193,1.1283193 0 0 0 -0.010745,0.0322 1.1283193,1.1283193 0 0 0 -0.021492,0.0752 1.1283193,1.1283193 0 0 0 -0.010745,0.043 1.1283193,1.1283193 0 0 0 -0.016118,0.0645 1.1283193,1.1283193 0 0 0 0,0.043 1.1283193,1.1283193 0 0 0 -0.010745,0.0699 1.1283193,1.1283193 0 0 0 0,0.0752 1.1283193,1.1283193 0 0 0 0.016118,0.22566 1.1283193,1.1283193 0 0 0 0.3223771,0.58565 1.1283193,1.1283193 0 0 0 0.1773073,0.1397 1.1283193,1.1283193 0 0 0 0.096713,0.0537 1.1283193,1.1283193 0 0 0 0.5104304,0.12358 1.1283193,1.1283193 0 0 0 1.128319,-1.12832 1.1283193,1.1283193 0 0 0 -1.128319,-1.12832 z m 0,0.28477 a 0.84355302,0.84355302 0 0 1 0.843552,0.84355 0.84355302,0.84355302 0 0 1 -0.843552,0.84356 0.84355302,0.84355302 0 0 1 -0.0054,0 v -1.68711 a 0.84355302,0.84355302 0 0 1 0.0054,0 z m -2.3372332,0.68236 a 0.08059424,0.08059424 0 0 0 -0.080595,0.0806 v 0.16119 c 0,0.043 0.037611,0.0806 0.080595,0.0806 h 0.483566 c 0.042982,0 0.080594,-0.0376 0.080594,-0.0806 v -0.16119 a 0.08059424,0.08059424 0 0 0 -0.080594,-0.0806 z m 4.1909002,0 a 0.08059424,0.08059424 0 0 0 -0.08059,0.0806 v 0.16119 c 0,0.043 0.03761,0.0806 0.08059,0.0806 h 0.483566 c 0.04298,0 0.08059,-0.0376 0.08059,-0.0806 v -0.16119 a 0.08059424,0.08059424 0 0 0 -0.08059,-0.0806 z m -3.2237688,1.3325 a 0.08059424,0.08059424 0 0 0 -0.05373,0.0269 l -0.3438686,0.3385 a 0.08059424,0.08059424 0 0 0 0,0.11283 l 0.1182044,0.1182 a 0.08059424,0.08059424 0 0 0 0.107459,0 l 0.3492415,-0.34387 a 0.08059424,0.08059424 0 0 0 0,-0.11283 l -0.1074581,-0.11287 a 0.08059424,0.08059424 0 0 0 -0.059103,-0.0269 z m 2.7402028,0 a 0.08059424,0.08059424 0 0 0 -0.0591,0.0269 l -0.112831,0.10746 a 0.08059424,0.08059424 0 0 0 0,0.1182 l 0.338496,0.34387 a 0.08059424,0.08059424 0 0 0 0.112831,0 l 0.118205,-0.1182 a 0.08059424,0.08059424 0 0 0 0,-0.10746 l -0.343869,-0.34924 a 0.08059424,0.08059424 0 0 0 -0.05373,-0.0269 z m -1.450695,0.60177 a 0.08059424,0.08059424 0 0 0 -0.080595,0.0806 v 0.48357 c 0,0.043 0.037611,0.0806 0.080595,0.0806 h 0.161188 c 0.04298,0 0.08059,-0.0376 0.08059,-0.0806 v -0.48357 a 0.08059424,0.08059424 0 0 0 -0.08059,-0.0806 z"
       style="fill:currentColor;stroke-width:0.53729486"
       class="ColorScheme-Text"
       inkscape:connector-curvature="0" />
  </g>
  <g
     id="22-22-video-display-brightness">
    <rect
       style="opacity:0.01000001;fill:#00000f;fill-opacity:0.00392157;stroke:none;stroke-width:0.75000101"
       id="rect3074"
       width="22.00001"
       height="21.999983"
       x="9.129248e-07"
       y="1.7631031e-05" />
    <path
       id="path5"
       d="m 10.995558,2.71875 0.0023,0.00222 L 11,2.71875 Z m 0.0023,0.00222 C 10.125142,3.5821525 9.274724,4.4672782 8.387674,5.3133047 H 5.313305 V 8.3876744 C 4.466442,9.2754812 3.580739,10.126524 2.71875,11 c 0.861989,0.873533 1.747749,1.724405 2.594555,2.612326 v 3.074369 h 3.074369 c 0.887807,0.846863 1.73885,1.732566 2.612326,2.594555 0.873533,-0.861989 1.724405,-1.747749 2.612326,-2.594555 h 3.074369 V 13.612326 C 17.533558,12.724519 18.419261,11.873476 19.28125,11 18.419261,10.126467 17.533501,9.275595 16.686695,8.3876744 V 5.3133047 H 13.612326 C 12.720275,4.4672777 11.872735,3.5823791 10.997779,2.7209713 Z m 0.0022,3.1610064 c 2.826629,0 5.118026,2.291397 5.118026,5.1180256 0,2.826629 -2.291397,5.118026 -5.118026,5.118026 -2.826629,0 -5.118026,-2.291397 -5.118026,-5.118026 0,-2.8266286 2.291397,-5.1180256 5.118026,-5.1180256 z m 0,1.7060086 c -1.8844,0 -3.412017,1.527617 -3.412017,3.412017 0,1.884399 1.527617,3.412016 3.412017,3.412016 z"
       class="ColorScheme-Text"
       style="fill:currentColor;fill-opacity:1;stroke-width:1.13733912"
       inkscape:connector-curvature="0" />
  </g>
  <path
     style="font-style:normal;font-variant:normal;font-weight:normal;font-stretch:normal;font-size:16px;line-height:1.25;font-family:'Abyssinica SIL';-inkscape-font-specification:'Abyssinica SIL';letter-spacing:0px;word-spacing:0px;fill:#ffffff;fill-opacity:1;stroke:none;stroke-width:0.41620618"
     d="m 9.0702624,-76.664855 c -0.0522,0 -0.10131,0.0117 -0.14746,0.0351 -0.0461,0.0211 -0.0873,0.0515 -0.12338,0.0913 -0.0341,0.0398 -0.0612,0.0867 -0.0813,0.14054 -0.0201,0.0539 -0.0301,0.11125 -0.0301,0.17215 0,0.0609 0.01,0.11946 0.0301,0.17567 0.0201,0.0539 0.0471,0.10072 0.0813,0.14054 0.0361,0.0398 0.0772,0.0714 0.12338,0.0949 0.0462,0.0234 0.0953,0.0351 0.14746,0.0351 0.0522,0 0.10132,-0.0117 0.14746,-0.0351 0.0461,-0.0234 0.0863,-0.055 0.12037,-0.0949 0.0341,-0.0398 0.0602,-0.0867 0.0783,-0.14054 0.0201,-0.0562 0.0301,-0.11477 0.0301,-0.17567 0,-0.0609 -0.01,-0.11828 -0.0301,-0.17215 -0.0181,-0.0539 -0.0441,-0.10072 -0.0783,-0.14054 -0.0341,-0.0398 -0.0742,-0.0703 -0.12037,-0.0913 -0.0461,-0.0234 -0.0953,-0.0351 -0.14746,-0.0351 z m 12.7264996,0.52701 c -0.21065,0 -0.40526,0.0422 -0.58381,0.12648 -0.17655,0.0843 -0.32902,0.22017 -0.45742,0.40755 -0.12639,0.18738 -0.2257,0.43332 -0.29792,0.73781 -0.0722,0.30215 -0.10834,0.67106 -0.10834,1.10672 0,0.438 0.0371,0.79871 0.11135,1.08212 0.0742,0.28107 0.17353,0.50359 0.29792,0.66754 0.12439,0.16396 0.26783,0.27873 0.43034,0.34432 0.1625,0.0632 0.33203,0.0949 0.50857,0.0949 0.17655,0 0.34808,-0.0304 0.5146,-0.0913 0.16852,-0.0609 0.31699,-0.15459 0.44538,-0.28107 0.1284,-0.12648 0.23172,-0.28693 0.30997,-0.48133 0.0782,-0.19441 0.11736,-0.42512 0.11736,-0.69214 0,-0.17801 -0.0181,-0.33729 -0.0542,-0.47782 -0.0341,-0.14054 -0.0812,-0.26351 -0.14144,-0.36891 -0.0582,-0.10774 -0.12739,-0.19792 -0.20764,-0.27053 -0.0782,-0.075 -0.1615,-0.13585 -0.24978,-0.18269 -0.0883,-0.0469 -0.17855,-0.0808 -0.27084,-0.10189 -0.0923,-0.0211 -0.18056,-0.0316 -0.26482,-0.0316 -0.11034,0 -0.21166,0.0117 -0.30394,0.0351 -0.0923,0.0234 -0.17555,0.055 -0.24978,0.0949 -0.0742,0.0375 -0.13943,0.082 -0.19561,0.13351 -0.0562,0.0515 -0.10432,0.1054 -0.14444,0.16162 0.0301,-0.32323 0.0672,-0.58557 0.11134,-0.787 0.0462,-0.20144 0.10132,-0.35837 0.16552,-0.4708 0.0642,-0.11242 0.13943,-0.18855 0.2257,-0.22837 0.0863,-0.0398 0.18357,-0.0597 0.2919,-0.0597 0.0943,0 0.17254,0.0187 0.23473,0.0562 0.0622,0.0375 0.11235,0.0855 0.15047,0.14405 0.0381,0.0562 0.0642,0.12063 0.0782,0.19324 0.0161,0.0703 0.0241,0.13819 0.0241,0.20377 h 0.65302 c 0,-0.1499 -0.0271,-0.28927 -0.0813,-0.41809 -0.0542,-0.12882 -0.13141,-0.24125 -0.23172,-0.33729 -0.10031,-0.096 -0.22068,-0.17098 -0.36112,-0.22485 -0.14044,-0.0562 -0.29592,-0.0843 -0.46645,-0.0843 z m -6.79208,0.13351 c -0.0241,0.0375 -0.0702,0.0902 -0.13843,0.1581 -0.0682,0.0679 -0.14445,0.13936 -0.22871,0.21431 -0.0843,0.0726 -0.17153,0.14171 -0.26181,0.20729 -0.0883,0.0656 -0.16652,0.11477 -0.23473,0.14757 v 0.69213 c 0.0602,-0.0211 0.13041,-0.0504 0.21065,-0.0878 0.0802,-0.0398 0.16151,-0.0831 0.24376,-0.13 0.0823,-0.0492 0.1605,-0.10071 0.23473,-0.15459 0.0762,-0.0562 0.14044,-0.11242 0.1926,-0.16864 v 3.55555 h 0.62895 v -4.43389 z m 3.55704,0 -1.57087,2.62801 v 0.85726 h 1.81162 v 0.94862 h 0.62293 v -0.94862 h 0.40626 v -0.64295 h -0.40626 v -2.84232 z m 6.65666,0 -1.57087,2.62801 v 0.85726 h 1.81162 v 0.94862 h 0.62293 v -0.94862 h 0.40626 v -0.64295 h -0.40626 v -2.84232 z m -6.41591,0.53403 v 2.30829 h -1.34518 z m 6.65666,0 v 2.30829 h -1.34518 z m -16.3316896,0.34431 -0.75835,0.27405 v 0.23891 h 0.43635 v 3.19366 c 0,0.1382 -0.005,0.26936 -0.015,0.3935 -0.008,0.12648 -0.0241,0.24008 -0.0482,0.3408 -0.0221,0.10306 -0.0522,0.19089 -0.0903,0.26351 -0.0381,0.075 -0.0853,0.13116 -0.14143,0.16864 l -0.59886,-0.48134 c -0.0301,0.0117 -0.0612,0.0281 -0.0933,0.0492 -0.0321,0.0234 -0.0602,0.0515 -0.0843,0.0843 -0.0261,0.0351 -0.0471,0.075 -0.0632,0.11946 -0.0161,0.0468 -0.0241,0.10071 -0.0241,0.16161 0,0.0679 0.013,0.12649 0.0391,0.17567 0.0241,0.0515 0.0582,0.0937 0.10231,0.12648 0.0421,0.0328 0.0913,0.0562 0.14746,0.0703 0.0562,0.0164 0.11636,0.0246 0.18056,0.0246 0.19461,0 0.38118,-0.055 0.55974,-0.16513 0.18056,-0.10775 0.33404,-0.27522 0.46043,-0.50242 0.0522,-0.096 0.0943,-0.20495 0.12639,-0.32674 0.0321,-0.1218 0.0562,-0.24711 0.0722,-0.37593 0.0181,-0.12883 0.0301,-0.25648 0.0361,-0.38296 0.006,-0.12883 0.009,-0.24711 0.009,-0.35486 v -3.09529 z m 1.6942596,0 -0.75836,0.28107 v 0.24594 h 0.43034 v 1.94993 c 0,0.20378 0.0191,0.37944 0.0572,0.52701 0.0401,0.14522 0.0963,0.26584 0.16852,0.36188 0.0742,0.0937 0.16351,0.16278 0.26783,0.20729 0.10633,0.0468 0.2257,0.0703 0.35811,0.0703 0.0903,0 0.18257,-0.0176 0.27686,-0.0527 0.0963,-0.0328 0.18759,-0.0738 0.27385,-0.12297 0.0883,-0.0515 0.16953,-0.10657 0.24376,-0.16513 0.0762,-0.0585 0.14044,-0.11125 0.1926,-0.1581 v 0.41107 h 0.97803 v -0.28107 l -0.27084,-0.0211 c -0.0361,-0.005 -0.0682,-0.0211 -0.0963,-0.0492 -0.0261,-0.0281 -0.0391,-0.0644 -0.0391,-0.10892 v -3.09529 h -0.25278 l -0.75234,0.28107 v 0.24594 h 0.43335 v 2.41018 c -0.0361,0.0211 -0.0802,0.0445 -0.13241,0.0703 -0.0502,0.0234 -0.10433,0.0469 -0.16251,0.0703 -0.0582,0.0211 -0.11937,0.0386 -0.18357,0.0527 -0.0642,0.014 -0.12739,0.0211 -0.18959,0.0211 -0.10833,0 -0.20062,-0.0176 -0.27686,-0.0527 -0.0762,-0.0375 -0.13843,-0.0913 -0.18657,-0.16162 -0.0462,-0.0703 -0.0802,-0.15576 -0.10232,-0.25647 -0.0201,-0.10072 -0.0301,-0.21432 -0.0301,-0.3408 v -2.33992 z m 10.90284,1.04348 c 0.0983,0 0.19059,0.0269 0.27686,0.0808 0.0863,0.0515 0.1605,0.12296 0.22269,0.21431 0.0642,0.089 0.11435,0.19441 0.15047,0.31621 0.0381,0.12179 0.0572,0.25179 0.0572,0.38998 0,0.1382 -0.0191,0.26936 -0.0572,0.3935 -0.0361,0.1218 -0.0863,0.22837 -0.15047,0.31972 -0.0622,0.0914 -0.13642,0.16396 -0.22269,0.21783 -0.0863,0.0515 -0.17856,0.0773 -0.27686,0.0773 -0.0963,0 -0.18758,-0.0258 -0.27385,-0.0773 -0.0863,-0.0539 -0.16251,-0.12648 -0.22871,-0.21783 -0.0642,-0.0913 -0.11536,-0.19792 -0.15348,-0.31972 -0.0361,-0.12414 -0.0542,-0.2553 -0.0542,-0.3935 0,-0.13819 0.0181,-0.26819 0.0542,-0.38998 0.0381,-0.1218 0.0893,-0.2272 0.15348,-0.31621 0.0662,-0.0913 0.14244,-0.16279 0.22871,-0.21431 0.0863,-0.0539 0.17755,-0.0808 0.27385,-0.0808 z"
     id="text843"
     inkscape:connector-curvature="0" />
</svg>
