/* XPM */
static char * maximize_prelight_xpm[] = {
"32 32 51 1",
" 	c None",
".	c #40A599",
"+	c #2B9B8E",
"@	c #33AA9C",
"#	c #47CABA",
"$	c #53E0CF",
"%	c #59EBD9",
"&	c #46C9BA",
"*	c #34A99B",
"=	c #2C9E90",
"-	c #48CCBB",
";	c #5AEDDB",
">	c #4CD4C4",
",	c #45C9B9",
"'	c #5BEDDB",
")	c #47CBBC",
"!	c #2C9D90",
"~	c #4FD9C8",
"{	c #5BEEDC",
"]	c #45C8B8",
"^	c #2DA093",
"/	c #2EA093",
"(	c #4ED8C8",
"_	c #48CCBC",
":	c #3CB8A9",
"<	c #2FA294",
"[	c #42C3B3",
"}	c #42C2B3",
"|	c #2FA193",
"1	c #3CB8AA",
"2	c #46CBBB",
"3	c #36AEA0",
"4	c #57E8D7",
"5	c #57E7D6",
"6	c #33A99B",
"7	c #46CABA",
"8	c #53E1CF",
"9	c #4DD5C4",
"0	c #52E0CE",
"a	c #58EAD8",
"b	c #46C9B9",
"c	c #58E7D6",
"d	c #2EA194",
"e	c #35AD9F",
"f	c #33A89B",
"g	c #3CB9AA",
"h	c #4ED8C7",
"i	c #2C9D8F",
"j	c #4DD5C5",
"k	c #5AEBD9",
"l	c #59EAD9",
"................................",
"++++++++++++++++++++++++++++++++",
"++++++++++++++++++++++++++++++++",
"++++++++++++++++++++++++++++++++",
"++++++++++++++++++++++++++++++++",
"++++++++++++++++++++++++++++++++",
"++++++++++++++++++++++++++++++++",
"++++++++++++++++++++++++++++++++",
"++++++++++++@#$%%$&*++++++++++++",
"++++++++++=-;%>,,>%')!++++++++++",
"+++++++++=~{]^++++/,{(!+++++++++",
"+++++++++_;:+<[>>}|+1{2+++++++++",
"++++++++@;]+34{{{{53+,'6++++++++",
"++++++++&%^<4{{{{{{5|/%7++++++++",
"++++++++8>+[{{{{{{{{}+90++++++++",
"++++++++ab+>{{{{{{{{>+,a++++++++",
"++++++++ab+>{{{{{{{{>+,a++++++++",
"++++++++8>+}{{{{{{{{}+90++++++++",
"++++++++&%/|5{{{{{{cdd%7++++++++",
"++++++++*',+35{{{{ce+b'f++++++++",
"+++++++++){1+|}>>}d+g{#+++++++++",
"+++++++++!h{,/++++db{hi+++++++++",
"++++++++++!2'%>,,jk'#i++++++++++",
"++++++++++++670ll0,f++++++++++++",
"++++++++++++++++++++++++++++++++",
"++++++++++++++++++++++++++++++++",
"++++++++++++++++++++++++++++++++",
"++++++++++++++++++++++++++++++++",
"++++++++++++++++++++++++++++++++",
"++++++++++++++++++++++++++++++++",
"++++++++++++++++++++++++++++++++",
"++++++++++++++++++++++++++++++++"};
