/* XPM */
static char * close_inactive_xpm[] = {
"32 32 29 1",
" 	c None",
".	c #8D3027",
"+	c #811A10",
"@	c #8A352D",
"#	c #A0736F",
"$	c #AE9C9B",
"%	c #B5B0B0",
"&	c #9F726E",
"*	c #8B362D",
"=	c #821E15",
"-	c #A17773",
";	c #B7B6B6",
">	c #B7B7B7",
",	c #B7B5B5",
"'	c #A07571",
")	c #821D14",
"!	c #A98F8C",
"~	c #A07470",
"{	c #8A352C",
"]	c #9F726D",
"^	c #AE9D9C",
"/	c #AD9B9A",
"(	c #B4AFAF",
"_	c #B5AFAF",
":	c #B4AEAE",
"<	c #9F716C",
"[	c #8A342B",
"}	c #A98E8B",
"|	c #A88D8A",
"................................",
"++++++++++++++++++++++++++++++++",
"++++++++++++++++++++++++++++++++",
"++++++++++++++++++++++++++++++++",
"++++++++++++++++++++++++++++++++",
"++++++++++++++++++++++++++++++++",
"++++++++++++++++++++++++++++++++",
"++++++++++++++++++++++++++++++++",
"++++++++++++@#$%%$&*++++++++++++",
"++++++++++=-;>>>>>>,')++++++++++",
"+++++++++=!>>>>>>>>>>!)+++++++++",
"+++++++++->>>>>>>>>>>>~+++++++++",
"++++++++@;>>>>>>>>>>>>,{++++++++",
"++++++++#>>>>>>>>>>>>>>]++++++++",
"++++++++^>>>>>>>>>>>>>>/++++++++",
"++++++++(>>>>>>>>>>>>>>_++++++++",
"++++++++_>>>>>>>>>>>>>>:++++++++",
"++++++++^>>>>>>>>>>>>>>/++++++++",
"++++++++&>>>>>>>>>>>>>><++++++++",
"++++++++*,>>>>>>>>>>>>,[++++++++",
"+++++++++'>>>>>>>>>>>>#+++++++++",
"+++++++++)}>>>>>>>>>>|)+++++++++",
"++++++++++)~,>>>>>>,#)++++++++++",
"++++++++++++{]/((/<[++++++++++++",
"++++++++++++++++++++++++++++++++",
"++++++++++++++++++++++++++++++++",
"++++++++++++++++++++++++++++++++",
"++++++++++++++++++++++++++++++++",
"++++++++++++++++++++++++++++++++",
"++++++++++++++++++++++++++++++++",
"++++++++++++++++++++++++++++++++",
"++++++++++++++++++++++++++++++++"};
