/* XPM */
static char * close_prelight_xpm[] = {
"32 32 27 1",
" 	c None",
".	c #BA672F",
"+	c #B35618",
"@	c #A65016",
"#	c #8A4213",
"$	c #773910",
"%	c #6E350F",
"&	c #B15518",
"*	c #894212",
"=	c #6C340E",
"-	c #6B340E",
";	c #8A4212",
">	c #B25518",
",	c #7E3C11",
"'	c #783A10",
")	c #A14D16",
"!	c #71360F",
"~	c #72370F",
"{	c #A14E16",
"]	c #A75016",
"^	c #9F4D15",
"/	c #A85116",
"(	c #8B4313",
"_	c #6F350F",
":	c #70360F",
"<	c #8C4313",
"[	c #7E3D11",
"................................",
"++++++++++++++++++++++++++++++++",
"++++++++++++++++++++++++++++++++",
"++++++++++++++++++++++++++++++++",
"++++++++++++++++++++++++++++++++",
"++++++++++++++++++++++++++++++++",
"++++++++++++++++++++++++++++++++",
"++++++++++++++++++++++++++++++++",
"++++++++++++@#$%%$#@++++++++++++",
"++++++++++&*=------=;>++++++++++",
"+++++++++&,----------,>+++++++++",
"+++++++++*-')!----~)$-;+++++++++",
"++++++++@=-{+@!--~]+^-=]++++++++",
"++++++++#--~@+/~~@+@!--(++++++++",
"++++++++$---~]+@]+@!---'++++++++",
"++++++++_----~@++@!----_++++++++",
"++++++++_----~@++/~----:++++++++",
"++++++++$---~]+@]+@!---'++++++++",
"++++++++#--~@+@!~@+/~--<++++++++",
"++++++++@=-{+@!--~]+^-=]++++++++",
"+++++++++;-')!----~)$-#+++++++++",
"+++++++++>[----------[>+++++++++",
"++++++++++>;=------=#>++++++++++",
"++++++++++++]('__'<]++++++++++++",
"++++++++++++++++++++++++++++++++",
"++++++++++++++++++++++++++++++++",
"++++++++++++++++++++++++++++++++",
"++++++++++++++++++++++++++++++++",
"++++++++++++++++++++++++++++++++",
"++++++++++++++++++++++++++++++++",
"++++++++++++++++++++++++++++++++",
"++++++++++++++++++++++++++++++++"};
