/* XPM */
static char * stick_toggled_prelight_xpm[] = {
"32 32 31 1",
" 	c None",
".	c #BA672F",
"+	c #B35618",
"@	c #B85C1E",
"#	c #C4692E",
"$	c #CC7338",
"%	c #D0773D",
"&	c #B45719",
"*	c #C56B2E",
"=	c #D1793D",
"-	c #D1793E",
";	c #D1783D",
">	c #C56A2E",
",	c #CA7035",
"'	c #CA6F34",
")	c #CE753A",
"!	c #BD6125",
"~	c #B4581A",
"{	c #BD6124",
"]	c #CD7438",
"^	c #B5591A",
"/	c #C4692D",
"(	c #BD6225",
"_	c #CC7337",
":	c #D0773C",
"<	c #B5581A",
"[	c #B5581B",
"}	c #CE7539",
"|	c #B85B1E",
"1	c #C97034",
"2	c #B45619",
"................................",
"++++++++++++++++++++++++++++++++",
"++++++++++++++++++++++++++++++++",
"++++++++++++++++++++++++++++++++",
"++++++++++++++++++++++++++++++++",
"++++++++++++++++++++++++++++++++",
"++++++++++++++++++++++++++++++++",
"++++++++++++++++++++++++++++++++",
"++++++++++++@#$%%$#@++++++++++++",
"++++++++++&*=------;>&++++++++++",
"+++++++++&,----------'&+++++++++",
"+++++++++*------------>+++++++++",
"++++++++@=---)!~~{]---;@++++++++",
"++++++++#---)^++++^)---/++++++++",
"++++++++$---!++++++(---_++++++++",
"++++++++:---~++++++<---:++++++++",
"++++++++:---~++++++<---:++++++++",
"++++++++$---{++++++(---_++++++++",
"++++++++#---]^++++[}---/++++++++",
"++++++++@;---)(<<(}---;|++++++++",
"+++++++++>------------#+++++++++",
"+++++++++&1----------12+++++++++",
"++++++++++&>;------;#2++++++++++",
"++++++++++++@/_::_/|++++++++++++",
"++++++++++++++++++++++++++++++++",
"++++++++++++++++++++++++++++++++",
"++++++++++++++++++++++++++++++++",
"++++++++++++++++++++++++++++++++",
"++++++++++++++++++++++++++++++++",
"++++++++++++++++++++++++++++++++",
"++++++++++++++++++++++++++++++++",
"++++++++++++++++++++++++++++++++"};
